M48
;Layer_Color=9474304
;FILE_FORMAT=2:4
INCH,LZ
;TYPE=PLATED
T1F00S00C0.0079
T2F00S00C0.0098
T3F00S00C0.0100
T4F00S00C0.0110
T5F00S00C0.0120
T6F00S00C0.0140
T7F00S00C0.0180
T8F00S00C0.0295
%
T01
X-000157Y014114
X000157
X0Y014311
X-000157Y014508
X000157
T02
X-001535Y002835
X-001181Y00376
X-000846Y004291
X-000906Y005
X-000118Y005236
Y00563
X000276
Y005236
X000079Y005433
X001024Y005453
X000221Y004567
Y004291
X000512Y004244
X000391Y003977
X-000118Y004154
Y004567
X-001969Y004331
X-002283
X-001693Y005315
X00248Y00476
X002756Y004222
X002835Y00626
X001969Y00626
X001969Y006732
X001969Y007205
X002756Y007756
X002874Y008602
X001594Y005866
X000039Y006299
X000236Y006575
X00063Y014961
X000965Y015394
X002463Y015392
X-00065Y015394
X-000827Y014705
X-001181Y014134
T03
X-001673Y013504
X-001378Y013494
X-000635Y015102
X002756Y015059
Y014567
Y014075
X001945Y013803
X002165Y013504
X00128Y013494
X002264Y011024
X002264Y010138
T04
X000394Y009636
X000689
X000984
T05
X-000736Y015866
T06
X001555Y005453
X00248Y005118
X00063Y006368
X000965Y008209
X001555
X002224Y009094
X-000709Y009646
X-002047Y013504
X-001457Y016417
Y01689
Y017331
X-000236Y015866
X000236
X002415Y013701
T07
X-000512Y003799
X000453Y003563
X002146Y002638
T08
X-00063Y007126
Y007913
X-002165Y014232
Y015232
Y016232
M30
