G04*
G04 #@! TF.GenerationSoftware,Altium Limited,Altium Designer,21.0.9 (235)*
G04*
G04 Layer_Physical_Order=1*
G04 Layer_Color=255*
%FSLAX24Y24*%
%MOIN*%
G70*
G04*
G04 #@! TF.SameCoordinates,2108956C-AFA9-499C-9B58-46B140F6933B*
G04*
G04*
G04 #@! TF.FilePolarity,Positive*
G04*
G01*
G75*
%ADD14C,0.0080*%
%ADD15C,0.0100*%
%ADD17R,0.0236X0.1535*%
%ADD18O,0.0236X0.0079*%
%ADD19O,0.0079X0.0236*%
%ADD20R,0.0606X0.0669*%
%ADD21R,0.0591X0.2362*%
%ADD22R,0.0591X0.1575*%
%ADD23C,0.0295*%
%ADD24R,0.0217X0.0217*%
%ADD25R,0.0315X0.0315*%
%ADD26R,0.0217X0.0217*%
%ADD27R,0.0315X0.0315*%
%ADD28R,0.0217X0.0335*%
%ADD29R,0.0157X0.0197*%
%ADD30R,0.0945X0.0650*%
%ADD31O,0.0118X0.0236*%
%ADD32R,0.0315X0.0217*%
%ADD33R,0.0197X0.0157*%
%ADD34R,0.0197X0.0472*%
%ADD35R,0.0472X0.0197*%
%ADD36R,0.0394X0.0236*%
%ADD37C,0.0060*%
%ADD63C,0.0100*%
%ADD64C,0.0160*%
%ADD65C,0.0140*%
%ADD66C,0.0160*%
%ADD67C,0.0080*%
%ADD68C,0.0200*%
%ADD69C,0.0120*%
%ADD70C,0.0472*%
%ADD71R,0.0472X0.0472*%
%ADD72R,0.0492X0.0492*%
%ADD73C,0.0492*%
%ADD74C,0.0157*%
%ADD75C,0.0200*%
%ADD76C,0.0197*%
%ADD77C,0.0260*%
%ADD78C,0.0320*%
%ADD79C,0.0220*%
G36*
X1119Y17061D02*
X1124Y17033D01*
X1134Y17005D01*
X1147Y16980D01*
X1164Y16956D01*
X1184Y16934D01*
X1209Y16913D01*
X1237Y16894D01*
X1269Y16876D01*
X1304Y16861D01*
X1299Y16746D01*
X1264Y16759D01*
X1233Y16766D01*
X1206Y16769D01*
X1182Y16768D01*
X1162Y16762D01*
X1146Y16751D01*
X1133Y16736D01*
X1124Y16717D01*
X1119Y16692D01*
X1117Y16664D01*
Y17092D01*
X1119Y17061D01*
D02*
G37*
G36*
X-1566Y17535D02*
X-1623Y17497D01*
X-1673Y17420D01*
X-1691Y17331D01*
X-1673Y17241D01*
X-1623Y17165D01*
X-1613Y17158D01*
Y17062D01*
X-1623Y17056D01*
X-1673Y16980D01*
X-1691Y16890D01*
X-1673Y16800D01*
X-1623Y16724D01*
X-1588Y16701D01*
Y16606D01*
X-1623Y16583D01*
X-1673Y16507D01*
X-1691Y16417D01*
X-1675Y16335D01*
X-1693Y16306D01*
X-1729Y16267D01*
X-1762Y16276D01*
X-1772Y16286D01*
X-1788Y16303D01*
X-1801Y16321D01*
X-1811Y16339D01*
X-1819Y16358D01*
X-1825Y16377D01*
X-1828Y16397D01*
X-1829Y16414D01*
Y16569D01*
X-2502D01*
Y15896D01*
X-1940D01*
X-1938Y15896D01*
X-1934Y15896D01*
X-1930Y15895D01*
X-1926Y15896D01*
X-1829D01*
X-1764Y15860D01*
X-1751Y15842D01*
X-1703Y15726D01*
X-1687Y15609D01*
X-1688Y15602D01*
Y15242D01*
X-1768Y15214D01*
X-1778Y15226D01*
X-1813Y15253D01*
X-1817Y15258D01*
X-1831Y15271D01*
X-1838Y15320D01*
X-1872Y15402D01*
X-1926Y15472D01*
X-1996Y15526D01*
X-2078Y15560D01*
X-2165Y15571D01*
X-2253Y15560D01*
X-2335Y15526D01*
X-2405Y15472D01*
X-2459Y15402D01*
X-2493Y15320D01*
X-2504Y15232D01*
X-2493Y15145D01*
X-2459Y15063D01*
X-2405Y14992D01*
X-2335Y14939D01*
X-2253Y14905D01*
X-2165Y14893D01*
X-2078Y14905D01*
X-2016Y14930D01*
X-1953Y14905D01*
X-1932Y14887D01*
X-1923Y14845D01*
X-1925Y14839D01*
Y14114D01*
X-1926D01*
X-1908Y13972D01*
X-1853Y13840D01*
X-1791Y13760D01*
X-1798Y13668D01*
X-1805Y13656D01*
X-1817Y13648D01*
X-1862Y13582D01*
X-1877Y13504D01*
X-1862Y13426D01*
X-1826Y13373D01*
Y13344D01*
X-1829Y13295D01*
X-1830Y13289D01*
X-1872D01*
Y13192D01*
X-1872Y13188D01*
X-1871Y13188D01*
X-1872D01*
X-1872Y13184D01*
Y12740D01*
X-2894Y12740D01*
X-2894Y12740D01*
X-3048D01*
X-3048Y17615D01*
X-1587D01*
X-1566Y17535D01*
D02*
G37*
G36*
X-1930Y16386D02*
X-1924Y16354D01*
X-1915Y16324D01*
X-1903Y16294D01*
X-1887Y16266D01*
X-1868Y16239D01*
X-1845Y16214D01*
X-1819Y16190D01*
X-1789Y16167D01*
X-1755Y16145D01*
X-1765Y16022D01*
X-1796Y16040D01*
X-1824Y16053D01*
X-1849Y16061D01*
X-1871Y16066D01*
X-1889Y16065D01*
X-1904Y16061D01*
X-1915Y16052D01*
X-1924Y16038D01*
X-1929Y16020D01*
X-1930Y15997D01*
X-1932Y16419D01*
X-1930Y16386D01*
D02*
G37*
G36*
X617Y16095D02*
X619Y16086D01*
X622Y16077D01*
X625Y16067D01*
X630Y16056D01*
X636Y16045D01*
X650Y16021D01*
X659Y16008D01*
X669Y15995D01*
X544Y15934D01*
X519Y15967D01*
X424Y16077D01*
X411Y16088D01*
X399Y16097D01*
X390Y16102D01*
X383Y16104D01*
X617D01*
X617Y16095D01*
D02*
G37*
G36*
X282Y16107D02*
X281Y16104D01*
X282Y16100D01*
Y16024D01*
Y15943D01*
X398D01*
X442Y15886D01*
X471Y15864D01*
X470Y15855D01*
X465Y15833D01*
X444Y15784D01*
X394Y15773D01*
X394Y15773D01*
D01*
X298Y15760D01*
X209Y15724D01*
X189Y15709D01*
X132Y15665D01*
X76Y15592D01*
X-257D01*
Y15300D01*
X-258Y15296D01*
X-257Y15293D01*
Y15222D01*
X-281Y15205D01*
X-333Y15184D01*
X-399Y15228D01*
X-491Y15246D01*
X-557Y15290D01*
X-635Y15306D01*
X-713Y15290D01*
X-779Y15246D01*
X-823Y15180D01*
X-839Y15102D01*
X-823Y15024D01*
X-796Y14982D01*
X-814Y14938D01*
X-834Y14906D01*
X-904Y14892D01*
X-906Y14891D01*
X-983Y14883D01*
Y14883D01*
X-1080D01*
X-1084Y14884D01*
X-1088Y14883D01*
X-1380D01*
X-1382Y14962D01*
Y15602D01*
X-1382D01*
X-1397Y15755D01*
X-1441Y15902D01*
X-1514Y16038D01*
X-1592Y16133D01*
X-1549Y16196D01*
X-1543Y16200D01*
X-1457Y16183D01*
X-1367Y16201D01*
X-1298Y16247D01*
X-1264Y16238D01*
X-1218Y16216D01*
Y15943D01*
X-998D01*
X-947Y15881D01*
X-950Y15866D01*
X-934Y15784D01*
X-888Y15715D01*
X-818Y15668D01*
X-736Y15652D01*
X-654Y15668D01*
X-585Y15715D01*
X-538Y15784D01*
X-522Y15866D01*
X-525Y15880D01*
X-513Y15896D01*
X-507Y15902D01*
X-506Y15905D01*
X-478Y15943D01*
X-282D01*
Y16024D01*
Y17615D01*
X282D01*
Y16107D01*
D02*
G37*
G36*
X464Y15295D02*
X458Y15292D01*
X452Y15286D01*
X447Y15278D01*
X443Y15267D01*
X440Y15255D01*
X437Y15240D01*
X435Y15222D01*
X434Y15181D01*
X354D01*
X353Y15203D01*
X350Y15240D01*
X348Y15255D01*
X344Y15267D01*
X340Y15278D01*
X335Y15286D01*
X330Y15292D01*
X323Y15295D01*
X316Y15296D01*
X471D01*
X464Y15295D01*
D02*
G37*
G36*
X-8Y15295D02*
X-15Y15290D01*
X-20Y15282D01*
X-25Y15271D01*
X-29Y15256D01*
X-33Y15239D01*
X-35Y15218D01*
X-38Y15167D01*
X-39Y15136D01*
X-119D01*
X-119Y15167D01*
X-125Y15239D01*
X-128Y15256D01*
X-132Y15271D01*
X-137Y15282D01*
X-143Y15290D01*
X-149Y15295D01*
X-156Y15296D01*
X-1D01*
X-8Y15295D01*
D02*
G37*
G36*
X-1929Y15226D02*
X-1927Y15223D01*
X-1925Y15220D01*
X-1922Y15216D01*
X-1918Y15212D01*
X-1907Y15201D01*
X-1883Y15181D01*
X-1917Y15077D01*
X-1969Y15100D01*
X-1929Y15228D01*
X-1929Y15226D01*
D02*
G37*
G36*
X-547Y15150D02*
X-544Y15148D01*
X-541Y15147D01*
X-536Y15145D01*
X-531Y15144D01*
X-525Y15143D01*
X-510Y15142D01*
X-492Y15142D01*
Y15062D01*
X-502Y15062D01*
X-525Y15060D01*
X-531Y15059D01*
X-536Y15058D01*
X-541Y15057D01*
X-544Y15055D01*
X-547Y15054D01*
X-548Y15052D01*
Y15152D01*
X-547Y15150D01*
D02*
G37*
G36*
X642Y15072D02*
X644Y15070D01*
X647Y15068D01*
X650Y15065D01*
X657Y15060D01*
X667Y15053D01*
X679Y15046D01*
X546Y15011D01*
X549Y15018D01*
X558Y15034D01*
X559Y15039D01*
X560Y15043D01*
X561Y15046D01*
X561Y15049D01*
X560Y15052D01*
X559Y15054D01*
X641Y15074D01*
X642Y15072D01*
D02*
G37*
G36*
X2027Y15059D02*
X2048Y15030D01*
X2069Y15004D01*
X2091Y14982D01*
X2112Y14963D01*
X2134Y14948D01*
X2156Y14936D01*
X2178Y14927D01*
X2201Y14922D01*
X2223Y14920D01*
X1911D01*
X1926Y14921D01*
X1939Y14924D01*
X1948Y14929D01*
X1955Y14937D01*
X1959Y14946D01*
X1959Y14957D01*
X1957Y14971D01*
X1952Y14986D01*
X1944Y15004D01*
X1933Y15024D01*
X2006Y15092D01*
X2027Y15059D01*
D02*
G37*
G36*
X3048Y14720D02*
X2968Y14696D01*
X2934Y14745D01*
X2853Y14800D01*
X2756Y14819D01*
X2659Y14800D01*
X2577Y14745D01*
X2523Y14664D01*
X2503Y14567D01*
X2523Y14470D01*
X2577Y14388D01*
X2606Y14369D01*
Y14273D01*
X2577Y14253D01*
X2523Y14171D01*
X2503Y14075D01*
X2523Y13978D01*
X2557Y13927D01*
X2560Y13920D01*
X2569Y13908D01*
X2575Y13898D01*
X2581Y13886D01*
X2586Y13872D01*
X2591Y13855D01*
X2596Y13836D01*
X2599Y13816D01*
X2603Y13768D01*
Y12877D01*
X2604Y12870D01*
X2588Y12742D01*
X2535Y12616D01*
X2457Y12514D01*
X2451Y12510D01*
X2434Y12492D01*
X2376Y12437D01*
X2376Y12437D01*
X2327Y12378D01*
X2263Y12299D01*
X2179Y12142D01*
X2127Y11971D01*
X2109Y11793D01*
X2111Y11793D01*
X2111Y11792D01*
Y11516D01*
X2111D01*
X2123Y11425D01*
X2158Y11341D01*
X2193Y11295D01*
X2190Y11263D01*
X2177Y11213D01*
X2169Y11201D01*
X2120Y11168D01*
X2075Y11102D01*
X2060Y11024D01*
X2075Y10946D01*
X2120Y10879D01*
X2186Y10835D01*
X2264Y10820D01*
X2302Y10746D01*
Y10416D01*
X2264Y10342D01*
X2186Y10326D01*
X2120Y10282D01*
X2075Y10216D01*
X2060Y10138D01*
X2075Y10060D01*
X2120Y9994D01*
X2122Y9919D01*
X2092Y9896D01*
X2021Y9804D01*
X1977Y9697D01*
X1962Y9582D01*
X1962D01*
Y9285D01*
X1962D01*
X1973Y9203D01*
X1972Y9201D01*
X1973Y9198D01*
X1977Y9167D01*
X1987Y9143D01*
X1995Y9119D01*
X1990Y9094D01*
X2008Y9005D01*
X2059Y8929D01*
X2120Y8888D01*
Y8621D01*
X2115Y8581D01*
X2111Y8557D01*
X2101Y8514D01*
X2075Y8498D01*
X1993Y8543D01*
X1992Y8545D01*
X1962Y8620D01*
X1912Y8684D01*
X1848Y8733D01*
X1773Y8764D01*
X1697Y8774D01*
X1693Y8775D01*
X1478D01*
Y9431D01*
X1172D01*
X1153Y9511D01*
X1182Y9554D01*
X1198Y9636D01*
X1182Y9718D01*
X1136Y9788D01*
X1066Y9834D01*
X984Y9850D01*
X902Y9834D01*
X837Y9790D01*
X771Y9834D01*
X689Y9850D01*
X607Y9834D01*
X541Y9790D01*
X476Y9834D01*
X394Y9850D01*
X312Y9834D01*
X242Y9788D01*
X196Y9718D01*
X180Y9636D01*
X196Y9554D01*
X225Y9511D01*
X212Y9459D01*
X201Y9431D01*
X-691D01*
Y9330D01*
X-690Y9330D01*
X-691D01*
Y8758D01*
X-45D01*
X-41Y8741D01*
X-41Y8738D01*
X-25Y8670D01*
X-20Y8645D01*
X-16Y8634D01*
X-14Y8623D01*
X-13Y8621D01*
X1Y8562D01*
X71Y8394D01*
X165Y8240D01*
X240Y8152D01*
X203Y8072D01*
X84D01*
X80Y8073D01*
X78Y8073D01*
X76Y8073D01*
X73Y8072D01*
X-21D01*
Y8032D01*
X-32Y8030D01*
X-113Y8026D01*
X-113Y8026D01*
X-163Y8036D01*
X-202Y8048D01*
X-232Y8063D01*
X-252Y8078D01*
X-265Y8093D01*
X-274Y8110D01*
X-280Y8131D01*
X-283Y8167D01*
X-284Y8168D01*
Y8259D01*
X-381D01*
X-385Y8260D01*
X-389Y8259D01*
X-390D01*
X-394Y8260D01*
X-395Y8259D01*
X-853D01*
Y9330D01*
X-885D01*
X-881Y9331D01*
X-878Y9335D01*
X-876Y9341D01*
X-874Y9350D01*
X-872Y9361D01*
X-870Y9375D01*
X-868Y9410D01*
X-867Y9456D01*
X-853D01*
Y9529D01*
X-859Y9532D01*
X-853Y9552D01*
Y12617D01*
X2364D01*
Y13184D01*
X2365Y13188D01*
X2363D01*
X2364Y13189D01*
X2364Y13192D01*
Y13289D01*
X2323D01*
X2318Y13347D01*
Y13373D01*
X2354Y13426D01*
X2369Y13504D01*
X2354Y13582D01*
X2310Y13648D01*
X2243Y13692D01*
X2204Y13700D01*
X2164Y13714D01*
X2146Y13786D01*
X2149Y13803D01*
X2147Y13814D01*
X2157Y13838D01*
X2161Y13846D01*
X2162Y13851D01*
X2165Y13858D01*
X2171Y13868D01*
X2184Y13885D01*
X2196Y13898D01*
X2206Y13906D01*
X2213Y13911D01*
X2218Y13914D01*
X2221Y13914D01*
X2232Y13915D01*
X2234Y13916D01*
X2324D01*
Y14013D01*
X2325Y14017D01*
X2324Y14021D01*
Y14023D01*
X2325Y14026D01*
X2324Y14027D01*
Y14431D01*
X2324D01*
Y14506D01*
X2324D01*
Y14911D01*
X2325Y14912D01*
X2324Y14916D01*
Y14916D01*
X2325Y14920D01*
X2324Y14924D01*
Y15021D01*
X2233D01*
X2231Y15022D01*
X2216Y15023D01*
X2208Y15025D01*
X2199Y15028D01*
X2188Y15034D01*
X2175Y15043D01*
X2161Y15056D01*
X2159Y15058D01*
X2155Y15067D01*
X2119Y15114D01*
X2098Y15185D01*
X2098Y15240D01*
Y15602D01*
X1728D01*
Y16315D01*
X1728D01*
X1714Y16457D01*
X1673Y16594D01*
X1606Y16720D01*
X1515Y16830D01*
X1405Y16921D01*
X1357Y16946D01*
X1347Y16953D01*
X1346Y16953D01*
X1345Y16954D01*
X1326Y16963D01*
X1284Y16985D01*
X1270Y16994D01*
X1255Y17007D01*
X1243Y17020D01*
X1234Y17033D01*
X1228Y17045D01*
X1223Y17059D01*
X1220Y17074D01*
X1219Y17098D01*
X1218Y17100D01*
Y17615D01*
X3048D01*
Y14720D01*
D02*
G37*
G36*
X182Y14692D02*
X236Y14681D01*
X291Y14692D01*
X356Y14667D01*
X381Y14602D01*
X370Y14547D01*
X381Y14493D01*
X397Y14469D01*
X381Y14444D01*
X370Y14390D01*
X381Y14335D01*
X397Y14311D01*
X381Y14287D01*
X370Y14232D01*
X381Y14178D01*
X397Y14154D01*
X381Y14129D01*
X370Y14075D01*
X381Y14020D01*
X356Y13955D01*
X291Y13930D01*
X236Y13941D01*
X182Y13930D01*
X157Y13914D01*
X133Y13930D01*
X79Y13941D01*
X24Y13930D01*
X0Y13914D01*
X-24Y13930D01*
X-79Y13941D01*
X-133Y13930D01*
X-179Y13900D01*
X-189Y13885D01*
X-191Y13875D01*
X-195Y13848D01*
X-196Y13818D01*
X-276D01*
X-276Y13848D01*
X-279Y13880D01*
X-281Y13881D01*
X-293Y13900D01*
X-339Y13930D01*
X-344Y13931D01*
X-348Y13942D01*
X-427Y13904D01*
X-438Y13985D01*
X-393Y14010D01*
X-381Y14018D01*
X-381Y14019D01*
X-381Y14020D01*
X-370Y14075D01*
X-381Y14129D01*
X-397Y14154D01*
X-381Y14178D01*
X-370Y14232D01*
X-381Y14287D01*
X-397Y14311D01*
X-381Y14335D01*
X-370Y14390D01*
X-381Y14444D01*
X-397Y14469D01*
X-381Y14493D01*
X-370Y14547D01*
X-381Y14602D01*
X-356Y14667D01*
X-291Y14692D01*
X-236Y14681D01*
X-182Y14692D01*
X-157Y14708D01*
X-133Y14692D01*
X-79Y14681D01*
X-24Y14692D01*
X0Y14708D01*
X24Y14692D01*
X79Y14681D01*
X133Y14692D01*
X157Y14708D01*
X182Y14692D01*
D02*
G37*
G36*
X-751Y14768D02*
X-744Y14763D01*
X-737Y14759D01*
X-730Y14755D01*
X-723Y14752D01*
X-715Y14749D01*
X-706Y14747D01*
X-697Y14746D01*
X-688Y14745D01*
X-678Y14745D01*
Y14665D01*
X-688Y14664D01*
X-697Y14664D01*
X-706Y14662D01*
X-715Y14660D01*
X-723Y14657D01*
X-730Y14654D01*
X-737Y14651D01*
X-744Y14646D01*
X-751Y14641D01*
X-756Y14636D01*
Y14774D01*
X-751Y14768D01*
D02*
G37*
G36*
X-1082Y14775D02*
X-1077Y14769D01*
X-1069Y14763D01*
X-1058Y14758D01*
X-1044Y14754D01*
X-1026Y14751D01*
X-1005Y14748D01*
X-961Y14745D01*
X-956Y14746D01*
X-948Y14747D01*
X-939Y14749D01*
X-931Y14752D01*
X-923Y14755D01*
X-916Y14759D01*
X-909Y14763D01*
X-903Y14768D01*
X-897Y14774D01*
Y14636D01*
X-903Y14641D01*
X-909Y14646D01*
X-916Y14651D01*
X-923Y14654D01*
X-931Y14657D01*
X-939Y14660D01*
X-948Y14662D01*
X-956Y14664D01*
X-960Y14664D01*
X-1026Y14659D01*
X-1044Y14655D01*
X-1058Y14651D01*
X-1069Y14646D01*
X-1077Y14641D01*
X-1082Y14634D01*
X-1084Y14627D01*
Y14782D01*
X-1082Y14775D01*
D02*
G37*
G36*
X-983Y14526D02*
X-906Y14519D01*
X-904Y14518D01*
X-854Y14508D01*
X-835Y14485D01*
X-809Y14442D01*
X-804Y14425D01*
X-811Y14390D01*
X-801Y14335D01*
X-784Y14311D01*
X-801Y14287D01*
X-811Y14232D01*
X-801Y14178D01*
X-784Y14154D01*
X-801Y14129D01*
X-811Y14075D01*
X-801Y14020D01*
X-847Y13945D01*
X-860Y13938D01*
X-919Y13970D01*
X-1096Y14023D01*
X-1280Y14041D01*
Y14041D01*
X-1349Y14068D01*
X-1352Y14070D01*
X-1375Y14103D01*
X-1382Y14143D01*
X-1382D01*
Y14447D01*
X-1380Y14526D01*
X-1088D01*
X-1084Y14525D01*
X-1080Y14526D01*
X-983D01*
Y14526D01*
D02*
G37*
G36*
X2841Y14620D02*
X2844Y14617D01*
X2848Y14614D01*
X2853Y14610D01*
X2867Y14602D01*
X2894Y14587D01*
X2905Y14581D01*
X2886Y14476D01*
X2878Y14481D01*
X2869Y14486D01*
X2861Y14489D01*
X2854Y14492D01*
X2846Y14493D01*
X2839Y14494D01*
X2832Y14493D01*
X2826Y14491D01*
X2819Y14489D01*
X2813Y14485D01*
X2839Y14623D01*
X2841Y14620D01*
D02*
G37*
G36*
X2203Y14015D02*
X2183Y14010D01*
X2163Y14000D01*
X2144Y13988D01*
X2125Y13971D01*
X2106Y13951D01*
X2088Y13927D01*
X2070Y13899D01*
X2066Y13892D01*
X2069Y13890D01*
X2064Y13880D01*
X2049Y13844D01*
X2047Y13837D01*
X2046Y13831D01*
X2045Y13825D01*
X2044Y13820D01*
X2045Y13816D01*
X2021Y13834D01*
X1915Y13843D01*
X1929Y13876D01*
X1937Y13900D01*
X1934Y13902D01*
X1938Y13903D01*
X1948Y13932D01*
X1953Y13954D01*
X1954Y13973D01*
X1952Y13989D01*
X1947Y14001D01*
X1938Y14010D01*
X1926Y14015D01*
X1911Y14017D01*
X2223D01*
X2203Y14015D01*
D02*
G37*
G36*
X2822Y13999D02*
X2819Y13994D01*
X2816Y13988D01*
X2813Y13982D01*
X2813Y13981D01*
X2870D01*
X2858Y13964D01*
X2847Y13946D01*
X2837Y13926D01*
X2829Y13904D01*
X2822Y13881D01*
X2816Y13855D01*
X2812Y13828D01*
X2808Y13799D01*
X2806Y13736D01*
X2706D01*
X2705Y13768D01*
X2700Y13828D01*
X2696Y13855D01*
X2690Y13881D01*
X2683Y13904D01*
X2675Y13926D01*
X2665Y13946D01*
X2654Y13964D01*
X2642Y13981D01*
X2699D01*
X2699Y13982D01*
X2696Y13988D01*
X2693Y13994D01*
X2690Y13999D01*
X2686Y14003D01*
X2826D01*
X2822Y13999D01*
D02*
G37*
G36*
X276Y13762D02*
X283Y13656D01*
X287Y13624D01*
X305Y13533D01*
X313Y13505D01*
X322Y13478D01*
X258Y13431D01*
X242Y13475D01*
X196Y13632D01*
X200Y13627D01*
X275Y13799D01*
X276Y13762D01*
D02*
G37*
G36*
X425Y13760D02*
X422Y13740D01*
X421Y13718D01*
X422Y13696D01*
X426Y13672D01*
X432Y13647D01*
X441Y13620D01*
X452Y13592D01*
X465Y13563D01*
X481Y13532D01*
X424Y13476D01*
X408Y13505D01*
X360Y13609D01*
X360Y13615D01*
X362Y13616D01*
X366Y13614D01*
X431Y13778D01*
X425Y13760D01*
D02*
G37*
G36*
X787Y15487D02*
X984D01*
X1011Y15460D01*
X1038Y15433D01*
Y13970D01*
X1038Y13969D01*
X1034Y13948D01*
X1000Y13882D01*
X1000Y13882D01*
X913Y13768D01*
X858Y13636D01*
X840Y13494D01*
X842D01*
Y13382D01*
X795Y13349D01*
X774Y13351D01*
X732Y13361D01*
X724Y13379D01*
X716Y13389D01*
X681Y13455D01*
X568Y13592D01*
Y13592D01*
X536Y13659D01*
Y13720D01*
X590Y13775D01*
X669D01*
X724Y13786D01*
X770Y13817D01*
X801Y13863D01*
X811Y13917D01*
X801Y13972D01*
X784Y13996D01*
X801Y14020D01*
X811Y14075D01*
X801Y14129D01*
X784Y14154D01*
X801Y14178D01*
X811Y14232D01*
X801Y14287D01*
X784Y14311D01*
X801Y14335D01*
X811Y14390D01*
X801Y14444D01*
X784Y14469D01*
X801Y14493D01*
X811Y14547D01*
X801Y14602D01*
X784Y14626D01*
X801Y14650D01*
X811Y14705D01*
X801Y14759D01*
X770Y14805D01*
X811Y14874D01*
X817Y14883D01*
X832Y14961D01*
X817Y15038D01*
X773Y15104D01*
X740Y15126D01*
X731Y15134D01*
X721Y15140D01*
X720Y15140D01*
X673Y15201D01*
X603Y15255D01*
X572Y15268D01*
Y15293D01*
X573Y15296D01*
X572Y15300D01*
Y15487D01*
X786D01*
Y15491D01*
X787Y15487D01*
D02*
G37*
G36*
X2232Y13428D02*
X2228Y13423D01*
X2225Y13418D01*
X2223Y13411D01*
X2220Y13404D01*
X2219Y13396D01*
X2217Y13387D01*
X2216Y13378D01*
X2216Y13365D01*
X2216Y13350D01*
X2223Y13260D01*
X2227Y13238D01*
X2232Y13220D01*
X2239Y13206D01*
X2246Y13196D01*
X2254Y13190D01*
X2263Y13188D01*
X2068D01*
X2077Y13190D01*
X2085Y13196D01*
X2092Y13206D01*
X2098Y13220D01*
X2104Y13238D01*
X2108Y13260D01*
X2111Y13286D01*
X2115Y13350D01*
X2115Y13369D01*
X2114Y13387D01*
X2112Y13396D01*
X2110Y13404D01*
X2108Y13411D01*
X2106Y13418D01*
X2103Y13423D01*
X2099Y13428D01*
X2095Y13433D01*
X2235D01*
X2232Y13428D01*
D02*
G37*
G36*
X1921Y13350D02*
X1928Y13260D01*
X1932Y13238D01*
X1937Y13220D01*
X1943Y13206D01*
X1950Y13196D01*
X1958Y13190D01*
X1967Y13188D01*
X1773D01*
X1782Y13190D01*
X1790Y13196D01*
X1797Y13206D01*
X1803Y13220D01*
X1808Y13238D01*
X1813Y13260D01*
X1816Y13286D01*
X1820Y13350D01*
X1820Y13388D01*
X1920D01*
X1921Y13350D01*
D02*
G37*
G36*
X1625D02*
X1632Y13260D01*
X1637Y13238D01*
X1642Y13220D01*
X1648Y13206D01*
X1655Y13196D01*
X1663Y13190D01*
X1672Y13188D01*
X1478D01*
X1487Y13190D01*
X1495Y13196D01*
X1502Y13206D01*
X1508Y13220D01*
X1513Y13238D01*
X1517Y13260D01*
X1521Y13286D01*
X1524Y13350D01*
X1525Y13388D01*
X1625D01*
X1625Y13350D01*
D02*
G37*
G36*
X1344Y13417D02*
X1339Y13410D01*
X1334Y13403D01*
X1330Y13396D01*
X1327Y13388D01*
X1324Y13380D01*
X1322Y13371D01*
X1321Y13362D01*
X1320Y13353D01*
X1320Y13345D01*
X1320Y13317D01*
X1325Y13266D01*
X1329Y13245D01*
X1334Y13228D01*
X1340Y13213D01*
X1348Y13202D01*
X1356Y13194D01*
X1366Y13189D01*
X1377Y13188D01*
X1182D01*
X1193Y13189D01*
X1203Y13194D01*
X1212Y13202D01*
X1219Y13213D01*
X1225Y13228D01*
X1230Y13245D01*
X1234Y13266D01*
X1237Y13290D01*
X1239Y13317D01*
X1239Y13345D01*
X1239Y13353D01*
X1238Y13362D01*
X1237Y13371D01*
X1235Y13380D01*
X1232Y13388D01*
X1229Y13396D01*
X1225Y13403D01*
X1220Y13410D01*
X1215Y13417D01*
X1210Y13423D01*
X1350D01*
X1344Y13417D01*
D02*
G37*
G36*
X1025Y13317D02*
X1029Y13266D01*
X1033Y13245D01*
X1039Y13228D01*
X1045Y13213D01*
X1052Y13202D01*
X1061Y13194D01*
X1071Y13189D01*
X1081Y13188D01*
X887D01*
X898Y13189D01*
X908Y13194D01*
X916Y13202D01*
X924Y13213D01*
X930Y13228D01*
X935Y13245D01*
X939Y13266D01*
X942Y13290D01*
X944Y13317D01*
X944Y13348D01*
X1024D01*
X1025Y13317D01*
D02*
G37*
G36*
X120D02*
X122Y13290D01*
X126Y13266D01*
X131Y13245D01*
X138Y13228D01*
X146Y13213D01*
X156Y13202D01*
X168Y13194D01*
X181Y13189D01*
X196Y13188D01*
X1D01*
X8Y13189D01*
X15Y13194D01*
X20Y13202D01*
X25Y13213D01*
X29Y13228D01*
X33Y13245D01*
X35Y13266D01*
X38Y13317D01*
X39Y13348D01*
X119D01*
X120Y13317D01*
D02*
G37*
G36*
X-482Y13345D02*
X-453Y13258D01*
X-443Y13236D01*
X-434Y13219D01*
X-424Y13205D01*
X-414Y13196D01*
X-405Y13190D01*
X-395Y13188D01*
X-589D01*
X-598Y13381D01*
X-491Y13382D01*
X-482Y13345D01*
D02*
G37*
G36*
X-778Y13344D02*
X-747Y13257D01*
X-738Y13236D01*
X-728Y13219D01*
X-718Y13205D01*
X-709Y13196D01*
X-699Y13190D01*
X-690Y13188D01*
X-885D01*
X-885Y13215D01*
X-893Y13355D01*
X-895Y13368D01*
X-898Y13378D01*
X-789Y13381D01*
X-778Y13344D01*
D02*
G37*
G36*
X-1312Y13419D02*
X-1315Y13414D01*
X-1318Y13408D01*
X-1321Y13402D01*
X-1323Y13394D01*
X-1325Y13387D01*
X-1326Y13378D01*
X-1327Y13369D01*
X-1328Y13358D01*
X-1327Y13350D01*
X-1320Y13260D01*
X-1316Y13238D01*
X-1311Y13220D01*
X-1305Y13206D01*
X-1298Y13196D01*
X-1290Y13190D01*
X-1281Y13188D01*
X-1475D01*
X-1466Y13190D01*
X-1458Y13196D01*
X-1451Y13206D01*
X-1445Y13220D01*
X-1440Y13238D01*
X-1435Y13260D01*
X-1432Y13286D01*
X-1428Y13350D01*
X-1428Y13360D01*
X-1430Y13378D01*
X-1431Y13387D01*
X-1433Y13394D01*
X-1435Y13402D01*
X-1438Y13408D01*
X-1441Y13414D01*
X-1444Y13419D01*
X-1448Y13423D01*
X-1308D01*
X-1312Y13419D01*
D02*
G37*
G36*
X-1607Y13428D02*
X-1610Y13423D01*
X-1613Y13418D01*
X-1616Y13411D01*
X-1618Y13404D01*
X-1620Y13396D01*
X-1621Y13387D01*
X-1622Y13378D01*
X-1623Y13365D01*
X-1623Y13350D01*
X-1616Y13260D01*
X-1611Y13238D01*
X-1606Y13220D01*
X-1600Y13206D01*
X-1593Y13196D01*
X-1585Y13190D01*
X-1576Y13188D01*
X-1770D01*
X-1761Y13190D01*
X-1753Y13196D01*
X-1746Y13206D01*
X-1740Y13220D01*
X-1735Y13238D01*
X-1731Y13260D01*
X-1727Y13286D01*
X-1724Y13350D01*
X-1723Y13369D01*
X-1725Y13387D01*
X-1726Y13396D01*
X-1728Y13404D01*
X-1730Y13411D01*
X-1733Y13418D01*
X-1736Y13423D01*
X-1739Y13428D01*
X-1743Y13433D01*
X-1603D01*
X-1607Y13428D01*
D02*
G37*
G36*
X434Y13226D02*
X436Y13199D01*
X436Y13194D01*
X437Y13191D01*
X438Y13189D01*
X440Y13187D01*
X441Y13187D01*
X346D01*
X348Y13187D01*
X349Y13189D01*
X350Y13191D01*
X351Y13194D01*
X352Y13199D01*
X353Y13204D01*
X353Y13218D01*
X354Y13235D01*
X434D01*
X434Y13226D01*
D02*
G37*
G36*
X645Y13307D02*
X659Y13282D01*
X673Y13260D01*
X688Y13241D01*
X703Y13225D01*
X719Y13211D01*
X735Y13201D01*
X752Y13194D01*
X769Y13189D01*
X786Y13188D01*
X593Y12930D01*
X607Y12953D01*
X616Y12980D01*
X622Y13011D01*
X623Y13046D01*
X620Y13084D01*
X613Y13126D01*
X601Y13172D01*
X585Y13221D01*
X541Y13332D01*
X632Y13335D01*
X645Y13307D01*
D02*
G37*
G36*
X2689Y11873D02*
X2694Y11839D01*
X2701Y11809D01*
X2712Y11783D01*
X2725Y11761D01*
X2742Y11743D01*
X2761Y11729D01*
X2784Y11719D01*
X2809Y11713D01*
X2838Y11711D01*
X2438D01*
X2466Y11713D01*
X2492Y11719D01*
X2514Y11729D01*
X2534Y11743D01*
X2550Y11761D01*
X2564Y11783D01*
X2574Y11809D01*
X2582Y11839D01*
X2586Y11873D01*
X2588Y11911D01*
X2688D01*
X2689Y11873D01*
D02*
G37*
G36*
X2350Y11480D02*
X2384Y11450D01*
X2415Y11426D01*
X2445Y11407D01*
X2473Y11394D01*
X2499Y11387D01*
X2523Y11386D01*
X2545Y11390D01*
X2565Y11400D01*
X2583Y11415D01*
X2403Y11222D01*
X2401Y11225D01*
X2397Y11231D01*
X2389Y11240D01*
X2277Y11361D01*
X2247Y11392D01*
X2314Y11516D01*
X2350Y11480D01*
D02*
G37*
G36*
X2403Y11074D02*
X2410Y11074D01*
X2410Y10974D01*
X2403Y10973D01*
Y10926D01*
X2401Y10935D01*
X2397Y10943D01*
X2390Y10950D01*
X2381Y10957D01*
X2368Y10962D01*
X2355Y10966D01*
X2350Y10964D01*
X2344Y10961D01*
X2339Y10957D01*
X2335Y10954D01*
Y10969D01*
X2335Y10969D01*
X2314Y10972D01*
X2290Y10973D01*
X2264Y10974D01*
Y11074D01*
X2290Y11074D01*
X2335Y11078D01*
X2335Y11078D01*
Y11094D01*
X2339Y11090D01*
X2344Y11086D01*
X2350Y11083D01*
X2355Y11082D01*
X2368Y11085D01*
X2381Y11091D01*
X2390Y11097D01*
X2397Y11104D01*
X2401Y11112D01*
X2403Y11121D01*
Y11074D01*
D02*
G37*
G36*
Y10188D02*
X2410Y10188D01*
X2410Y10088D01*
X2403Y10088D01*
Y10041D01*
X2401Y10050D01*
X2397Y10058D01*
X2390Y10065D01*
X2381Y10071D01*
X2368Y10076D01*
X2355Y10080D01*
X2350Y10078D01*
X2344Y10075D01*
X2339Y10072D01*
X2335Y10068D01*
Y10083D01*
X2335Y10084D01*
X2314Y10086D01*
X2290Y10087D01*
X2264Y10088D01*
Y10188D01*
X2290Y10188D01*
X2335Y10192D01*
X2335Y10192D01*
Y10208D01*
X2339Y10204D01*
X2344Y10201D01*
X2350Y10198D01*
X2355Y10196D01*
X2368Y10200D01*
X2381Y10205D01*
X2390Y10211D01*
X2397Y10218D01*
X2401Y10226D01*
X2403Y10235D01*
Y10188D01*
D02*
G37*
G36*
X1044Y9558D02*
X1061D01*
X1058Y9554D01*
X1055Y9549D01*
X1053Y9543D01*
X1050Y9537D01*
X1049Y9529D01*
X1047Y9521D01*
X1046Y9512D01*
X1046Y9509D01*
X1054Y9390D01*
X1058Y9368D01*
X1063Y9351D01*
X1068Y9339D01*
X1074Y9332D01*
X1081Y9330D01*
X887D01*
X894Y9332D01*
X900Y9339D01*
X906Y9351D01*
X911Y9368D01*
X915Y9390D01*
X918Y9416D01*
X923Y9483D01*
X923Y9502D01*
X922Y9521D01*
X920Y9529D01*
X918Y9537D01*
X916Y9543D01*
X913Y9549D01*
X910Y9554D01*
X907Y9558D01*
X924D01*
X924Y9570D01*
X1044D01*
X1044Y9558D01*
D02*
G37*
G36*
X749D02*
X766D01*
X763Y9554D01*
X760Y9549D01*
X757Y9543D01*
X755Y9537D01*
X753Y9529D01*
X752Y9521D01*
X751Y9512D01*
X750Y9509D01*
X758Y9390D01*
X762Y9368D01*
X767Y9351D01*
X773Y9339D01*
X779Y9332D01*
X786Y9330D01*
X592D01*
X599Y9332D01*
X605Y9339D01*
X611Y9351D01*
X616Y9368D01*
X620Y9390D01*
X623Y9416D01*
X628Y9483D01*
X628Y9502D01*
X626Y9521D01*
X625Y9529D01*
X623Y9537D01*
X621Y9543D01*
X618Y9549D01*
X615Y9554D01*
X612Y9558D01*
X629D01*
X629Y9570D01*
X749D01*
X749Y9558D01*
D02*
G37*
G36*
X454D02*
X471D01*
X467Y9554D01*
X465Y9549D01*
X462Y9543D01*
X460Y9537D01*
X458Y9529D01*
X456Y9521D01*
X455Y9512D01*
X455Y9509D01*
X463Y9390D01*
X467Y9368D01*
X472Y9351D01*
X478Y9339D01*
X484Y9332D01*
X491Y9330D01*
X296D01*
X304Y9332D01*
X310Y9339D01*
X315Y9351D01*
X320Y9368D01*
X324Y9390D01*
X328Y9416D01*
X332Y9483D01*
X333Y9502D01*
X331Y9521D01*
X329Y9529D01*
X328Y9537D01*
X325Y9543D01*
X323Y9549D01*
X320Y9554D01*
X317Y9558D01*
X334D01*
X334Y9570D01*
X454D01*
X454Y9558D01*
D02*
G37*
G36*
X2226Y9274D02*
X2227Y9264D01*
X2228Y9255D01*
X2230Y9247D01*
X2233Y9240D01*
X2236Y9234D01*
X2240Y9230D01*
X2244Y9226D01*
X2249Y9223D01*
X2255Y9221D01*
X2099Y9127D01*
X2074Y9208D01*
X2226Y9285D01*
X2226Y9274D01*
D02*
G37*
G36*
X2375Y8980D02*
X2223Y8904D01*
X2223Y8915D01*
X2222Y8925D01*
X2221Y8934D01*
X2219Y8942D01*
X2216Y8949D01*
X2213Y8955D01*
X2209Y8959D01*
X2205Y8963D01*
X2200Y8966D01*
X2194Y8968D01*
X2350Y9062D01*
X2375Y8980D01*
D02*
G37*
G36*
X1354Y8860D02*
X1349Y8857D01*
X1344Y8853D01*
X1340Y8848D01*
X1337Y8840D01*
X1334Y8831D01*
X1332Y8821D01*
X1331Y8809D01*
X1330Y8795D01*
X1330Y8780D01*
X1230D01*
X1229Y8795D01*
X1227Y8821D01*
X1225Y8831D01*
X1222Y8840D01*
X1219Y8848D01*
X1215Y8853D01*
X1210Y8857D01*
X1205Y8860D01*
X1200Y8861D01*
X1359D01*
X1354Y8860D01*
D02*
G37*
G36*
X188Y8857D02*
X181Y8852D01*
X176Y8842D01*
X173Y8828D01*
X171Y8810D01*
X170Y8789D01*
X171Y8763D01*
X178Y8700D01*
X183Y8663D01*
X80Y8662D01*
X74Y8700D01*
X52Y8788D01*
X45Y8810D01*
X37Y8828D01*
X28Y8842D01*
X20Y8852D01*
X11Y8857D01*
X1Y8859D01*
X196D01*
X188Y8857D01*
D02*
G37*
G36*
X2381Y8505D02*
X2381Y8503D01*
X2378Y8497D01*
X2367Y8471D01*
X2281Y8290D01*
X2168Y8403D01*
X2179Y8427D01*
X2189Y8453D01*
X2197Y8480D01*
X2211Y8537D01*
X2216Y8567D01*
X2223Y8631D01*
X2225Y8665D01*
X2226Y8700D01*
X2381Y8505D01*
D02*
G37*
G36*
X1137Y8699D02*
X1168Y8624D01*
X1218Y8560D01*
X1282Y8511D01*
X1357Y8480D01*
X1433Y8470D01*
X1437Y8469D01*
X1693D01*
Y8467D01*
X1695Y8466D01*
X1696Y8465D01*
X1697D01*
Y7993D01*
X1711Y7991D01*
X1697D01*
Y7717D01*
X1698Y7712D01*
X1703Y7680D01*
X1644Y7600D01*
X1426D01*
Y7065D01*
X1842D01*
Y7366D01*
X1922Y7419D01*
X1928Y7417D01*
X2004Y7407D01*
X2008Y7406D01*
X2370D01*
Y7101D01*
X2370Y7098D01*
X2370Y7094D01*
Y6996D01*
X2314Y6941D01*
X2121D01*
X2117Y6941D01*
X2114Y6941D01*
X2016D01*
X2016Y6941D01*
X1969Y6935D01*
X1941Y6929D01*
X1941Y6929D01*
X1938Y6929D01*
X1891Y6919D01*
X1825Y6875D01*
X1782Y6810D01*
X1776Y6781D01*
X1718Y6762D01*
X1690Y6759D01*
X1631Y6804D01*
X1557Y6835D01*
X1481Y6845D01*
X1476Y6846D01*
X1043D01*
X1039Y6845D01*
X963Y6835D01*
X888Y6804D01*
X824Y6755D01*
X775Y6690D01*
X752Y6635D01*
X678D01*
Y6635D01*
X613Y6599D01*
X540Y6585D01*
X538Y6583D01*
X458Y6615D01*
X439Y6682D01*
X466Y6732D01*
X523Y6756D01*
X615Y6826D01*
X685Y6918D01*
X729Y7025D01*
X735Y7065D01*
X1094D01*
Y7312D01*
X1133Y7406D01*
X1148Y7523D01*
X1206Y7577D01*
X1222D01*
Y7678D01*
X1222Y7678D01*
X1222Y7679D01*
Y7987D01*
X1223Y7991D01*
X1222Y7995D01*
Y8092D01*
X1222D01*
X1192Y8172D01*
X1199Y8209D01*
X1181Y8298D01*
X1130Y8374D01*
X1054Y8425D01*
X965Y8443D01*
X875Y8425D01*
X799Y8374D01*
X748Y8298D01*
X730Y8209D01*
X737Y8172D01*
X728Y8148D01*
X671Y8126D01*
X637Y8133D01*
X605Y8192D01*
X503Y8318D01*
X503Y8318D01*
X450Y8376D01*
X392Y8446D01*
X314Y8593D01*
X288Y8678D01*
X325Y8746D01*
X338Y8758D01*
X1130D01*
X1137Y8699D01*
D02*
G37*
G36*
X1045Y8167D02*
X1050Y8116D01*
X1056D01*
X1053Y8113D01*
X1052Y8109D01*
X1051Y8106D01*
X1051Y8098D01*
X1057Y8069D01*
X1064Y8045D01*
X1072Y8026D01*
X1082Y8011D01*
X1093Y8000D01*
X1106Y7993D01*
X1121Y7991D01*
X808D01*
X823Y7993D01*
X836Y8000D01*
X847Y8011D01*
X857Y8026D01*
X865Y8045D01*
X872Y8069D01*
X878Y8098D01*
X879Y8105D01*
X878Y8109D01*
X876Y8113D01*
X874Y8116D01*
X880D01*
X882Y8130D01*
X884Y8167D01*
X885Y8209D01*
X1045D01*
X1045Y8167D01*
D02*
G37*
G36*
X-381Y8112D02*
X-369Y8071D01*
X-349Y8034D01*
X-321Y8003D01*
X-285Y7976D01*
X-241Y7954D01*
X-189Y7937D01*
X-129Y7925D01*
X-116Y7923D01*
X-20Y7929D01*
X16Y7935D01*
X44Y7943D01*
X64Y7951D01*
X76Y7961D01*
X80Y7971D01*
Y7659D01*
X76Y7669D01*
X64Y7679D01*
X44Y7687D01*
X16Y7695D01*
X-20Y7701D01*
X-64Y7706D01*
X-132Y7710D01*
X-321Y7698D01*
X-349Y7692D01*
X-369Y7685D01*
X-381Y7677D01*
X-385Y7669D01*
Y8158D01*
X-381Y8112D01*
D02*
G37*
G36*
X-73Y7604D02*
X-35Y7600D01*
X-21Y7598D01*
Y7557D01*
X73D01*
X76Y7557D01*
X78Y7557D01*
X80Y7557D01*
X84Y7557D01*
X438D01*
Y7139D01*
X438Y7138D01*
X428Y7087D01*
X398Y7043D01*
X354Y7013D01*
X303Y7003D01*
X302Y7003D01*
X167D01*
Y7005D01*
X23Y6986D01*
X-112Y6930D01*
X-228Y6842D01*
X-228Y6842D01*
X-288Y6796D01*
X-306Y6784D01*
X-396Y6766D01*
X-403Y6767D01*
X-571D01*
Y6768D01*
X-720Y6753D01*
X-863Y6710D01*
X-995Y6639D01*
X-1111Y6544D01*
X-1206Y6428D01*
X-1277Y6296D01*
X-1320Y6153D01*
X-1335Y6004D01*
X-1335Y6004D01*
X-1355Y5932D01*
X-1375Y5903D01*
X-1422Y5872D01*
X-1475Y5861D01*
X-1476Y5862D01*
X-1909D01*
Y5863D01*
X-2051Y5845D01*
X-2184Y5790D01*
X-2297Y5703D01*
X-2330Y5660D01*
X-2338Y5652D01*
X-2342Y5644D01*
X-2384Y5589D01*
X-2395Y5562D01*
X-2405Y5549D01*
X-2418Y5535D01*
X-2427Y5525D01*
X-2429Y5523D01*
X-2511D01*
Y5426D01*
X-2512Y5422D01*
X-2511Y5418D01*
Y5212D01*
X-2512Y5208D01*
X-2511Y5204D01*
Y5107D01*
X-2459D01*
X-2456Y5064D01*
Y5030D01*
X-2455Y5026D01*
X-2458Y5011D01*
X-2476Y4993D01*
X-2515Y4958D01*
X-2548Y4930D01*
X-2573Y4913D01*
X-2675D01*
X-2678Y4914D01*
X-2682Y4913D01*
X-2885D01*
Y4496D01*
X-2484D01*
X-2484Y4496D01*
X-2483Y4496D01*
X-2477D01*
X-2473Y4496D01*
X-2469Y4496D01*
X-2370D01*
Y4586D01*
X-2370Y4586D01*
X-2370Y4589D01*
X-2367Y4596D01*
X-2360Y4608D01*
X-2352Y4621D01*
X-2303Y4681D01*
X-2289Y4691D01*
X-2253Y4738D01*
X-2246Y4746D01*
X-2240Y4755D01*
X-2238Y4758D01*
X-2232Y4765D01*
X-2231Y4767D01*
X-2213Y4790D01*
X-2165Y4906D01*
X-2149Y5030D01*
X-2149Y5030D01*
X-2142Y5107D01*
X-2095D01*
Y5202D01*
X-2094Y5205D01*
X-2091Y5298D01*
X-2088Y5336D01*
X-2078Y5410D01*
X-2071Y5439D01*
X-2063Y5467D01*
X-2055Y5492D01*
X-2047Y5510D01*
X-2003Y5540D01*
X-1916Y5557D01*
X-1909Y5556D01*
X-1476D01*
Y5555D01*
X-1360Y5570D01*
X-1252Y5615D01*
X-1194Y5660D01*
X-1114Y5620D01*
Y5402D01*
X-804D01*
X-800Y5401D01*
X-799Y5401D01*
X-798Y5401D01*
X-795Y5402D01*
X-697D01*
Y5498D01*
X-697Y5501D01*
X-696Y5547D01*
X-694Y5588D01*
X-685Y5664D01*
X-679Y5697D01*
X-671Y5727D01*
X-663Y5754D01*
X-654Y5779D01*
X-645Y5798D01*
X-617Y5817D01*
X-537Y5832D01*
X-531Y5831D01*
X-511D01*
X-501Y5830D01*
X-486Y5828D01*
X-471Y5825D01*
X-457Y5821D01*
X-442Y5816D01*
X-428Y5810D01*
X-413Y5803D01*
X-399Y5795D01*
X-382Y5784D01*
X-379Y5783D01*
X-367Y5775D01*
X-349Y5772D01*
X-345Y5770D01*
X-342Y5770D01*
X-305Y5763D01*
X-243Y5775D01*
X-190Y5811D01*
X-155Y5863D01*
X-143Y5925D01*
Y6043D01*
X-154Y6098D01*
X-132Y6119D01*
X-88Y6146D01*
X-38Y6112D01*
X-8Y6106D01*
X12Y6068D01*
X21Y6046D01*
X29Y6024D01*
X35Y6003D01*
X40Y5983D01*
X43Y5963D01*
X45Y5949D01*
Y5925D01*
X48Y5907D01*
X48Y5903D01*
X50Y5900D01*
X57Y5863D01*
X92Y5811D01*
X145Y5775D01*
X207Y5763D01*
X269Y5775D01*
X321Y5811D01*
X348D01*
X401Y5775D01*
X463Y5763D01*
X525Y5775D01*
X577Y5811D01*
X612Y5863D01*
X625Y5925D01*
Y5979D01*
X626Y5984D01*
X626D01*
X625Y6033D01*
X686Y6088D01*
X760Y6078D01*
X780Y6028D01*
X826Y5969D01*
X838Y5949D01*
X845Y5936D01*
Y5668D01*
X1202D01*
Y5952D01*
X1202Y5952D01*
X1202Y5953D01*
Y6065D01*
X1130D01*
X1127Y6069D01*
X1121Y6084D01*
X1094Y6119D01*
Y6198D01*
X1095Y6202D01*
X1094Y6206D01*
Y6210D01*
X1094Y6212D01*
X1094Y6213D01*
Y6540D01*
X1426D01*
Y6101D01*
X1842D01*
X1842Y6101D01*
Y6101D01*
X1874Y6082D01*
X1891Y6073D01*
X1909Y6069D01*
X1909Y6069D01*
X1909Y6069D01*
X1969Y6058D01*
X1976Y6059D01*
X2016Y5985D01*
Y5898D01*
X2015Y5894D01*
X2016Y5891D01*
Y5579D01*
X2459D01*
X2460Y5579D01*
X2472Y5578D01*
X2476Y5576D01*
X2485Y5571D01*
X2499Y5560D01*
X2516Y5542D01*
X2536Y5518D01*
X2556Y5489D01*
X2604Y5406D01*
X2617Y5380D01*
X2640Y5305D01*
X2652Y5176D01*
X2651Y5170D01*
Y5090D01*
X2653Y5081D01*
X2644Y4986D01*
X2559Y4946D01*
X2558Y4947D01*
X2480Y4962D01*
X2403Y4947D01*
X2337Y4903D01*
X2298Y4844D01*
X2044D01*
X2025Y4825D01*
X2016Y4834D01*
Y4834D01*
X2025Y4825D01*
X2016Y4811D01*
Y4309D01*
X1965Y4250D01*
X1828Y4237D01*
X1820Y4239D01*
X1707D01*
X1685Y4309D01*
X1685D01*
Y4758D01*
X1691Y4766D01*
X1726Y4851D01*
X1727Y4861D01*
X1813D01*
Y5271D01*
X1813Y5274D01*
X1813Y5278D01*
Y5376D01*
X1813D01*
X1782Y5413D01*
X1790Y5453D01*
X1772Y5543D01*
X1721Y5619D01*
X1645Y5669D01*
X1555Y5687D01*
X1465Y5669D01*
X1389Y5619D01*
X1338Y5543D01*
X1321Y5453D01*
X1328Y5413D01*
X1298Y5376D01*
X1298D01*
Y5278D01*
X1297Y5274D01*
X1298Y5271D01*
Y5150D01*
X1260Y5119D01*
X651D01*
X612Y5112D01*
X610Y5110D01*
X404D01*
X365Y5102D01*
X353Y5094D01*
X341Y5102D01*
X302Y5110D01*
X141D01*
X102Y5102D01*
X90Y5094D01*
X78Y5102D01*
X39Y5110D01*
X-28D01*
X-31Y5110D01*
X-34Y5110D01*
X-40Y5110D01*
X-49Y5109D01*
X-55Y5108D01*
X-62Y5108D01*
X-78Y5105D01*
X-85Y5102D01*
X-91Y5101D01*
X-106Y5096D01*
X-112Y5093D01*
X-119Y5091D01*
X-124Y5088D01*
X-132Y5085D01*
X-137Y5080D01*
X-144Y5077D01*
X-148Y5075D01*
X-156Y5069D01*
X-161Y5064D01*
X-167Y5060D01*
X-177Y5051D01*
X-179Y5049D01*
X-183Y5044D01*
X-188Y5040D01*
X-190Y5037D01*
X-199Y5026D01*
X-209Y5009D01*
X-219Y4992D01*
X-219Y4990D01*
X-223Y4978D01*
X-223Y4975D01*
X-225Y4973D01*
X-231Y4948D01*
X-231Y4945D01*
X-232Y4942D01*
X-238Y4917D01*
X-238Y4915D01*
X-239Y4912D01*
X-242Y4887D01*
X-242Y4884D01*
X-243Y4881D01*
X-243Y4876D01*
X-245Y4862D01*
X-244Y4857D01*
X-245Y4853D01*
Y4833D01*
X-246Y4827D01*
X-246Y4823D01*
X-247Y4824D01*
Y4821D01*
X-248Y4817D01*
X-251Y4801D01*
X-264Y4782D01*
X-266Y4777D01*
X-269Y4773D01*
X-271Y4768D01*
X-273Y4764D01*
X-280Y4748D01*
X-281Y4748D01*
X-354D01*
X-354Y4748D01*
X-370Y4748D01*
X-370Y4748D01*
X-370Y4748D01*
X-392Y4743D01*
X-409Y4740D01*
X-409Y4740D01*
X-409Y4740D01*
X-438Y4728D01*
X-471Y4706D01*
X-493Y4684D01*
X-493Y4684D01*
X-515Y4651D01*
X-527Y4622D01*
X-527Y4622D01*
X-527Y4622D01*
X-531Y4604D01*
X-535Y4583D01*
X-535Y4583D01*
X-535Y4583D01*
X-535Y4567D01*
Y4490D01*
X-527Y4451D01*
X-514Y4431D01*
Y4093D01*
X-513Y4087D01*
X-513Y4081D01*
X-509Y4067D01*
X-506Y4054D01*
X-503Y4049D01*
X-501Y4043D01*
X-492Y4032D01*
X-484Y4021D01*
X-479Y4017D01*
X-475Y4013D01*
X-437Y3983D01*
X-425Y3977D01*
X-413Y3969D01*
X-393Y3961D01*
X-354Y3953D01*
X-335Y3953D01*
X-128Y3953D01*
X-118Y3951D01*
X-108Y3953D01*
X-79D01*
X-69Y3955D01*
X-58Y3955D01*
X-12Y3965D01*
X-3Y3968D01*
X6Y3970D01*
X27Y3979D01*
X52Y3969D01*
X62Y3958D01*
X70Y3945D01*
X74Y3942D01*
X78Y3938D01*
X91Y3931D01*
X96Y3928D01*
Y3858D01*
X104Y3819D01*
X126Y3786D01*
X159Y3764D01*
X198Y3756D01*
X1020D01*
X1059Y3764D01*
X1059Y3764D01*
X1097Y3780D01*
X1130Y3802D01*
X1159Y3831D01*
X1177Y3858D01*
X1253Y3850D01*
X1267Y3778D01*
X1268Y3775D01*
Y3450D01*
X1267Y3446D01*
X1268Y3442D01*
Y3345D01*
X1268D01*
X1298Y3309D01*
Y3254D01*
X1233Y3196D01*
X1153Y3232D01*
Y3259D01*
X487D01*
X483Y3260D01*
X483Y3260D01*
X482Y3260D01*
X440Y3259D01*
X382D01*
Y3258D01*
X278Y3257D01*
X198Y3269D01*
Y3269D01*
X101D01*
X97Y3270D01*
X93Y3269D01*
X88D01*
X86Y3269D01*
X86Y3269D01*
X-395D01*
Y2833D01*
X93D01*
X97Y2832D01*
X99Y2833D01*
X102Y2832D01*
X117Y2833D01*
X198D01*
Y2837D01*
X381Y2844D01*
X382Y2843D01*
Y2843D01*
X480D01*
X483Y2842D01*
X487Y2843D01*
X490Y2842D01*
X492Y2843D01*
X810D01*
X811Y2842D01*
X818Y2818D01*
X825Y2785D01*
X839Y2626D01*
Y1902D01*
X834Y1842D01*
X826Y1791D01*
X815Y1749D01*
X803Y1719D01*
X791Y1698D01*
X781Y1687D01*
X772Y1681D01*
X763Y1678D01*
X738Y1675D01*
X738Y1675D01*
X648D01*
Y1577D01*
X647Y1574D01*
X648Y1570D01*
Y1564D01*
X648Y1563D01*
X648Y1562D01*
Y102D01*
X-648D01*
Y2462D01*
X-830D01*
X-831Y2464D01*
X-835Y2479D01*
X-838Y2500D01*
X-839Y2514D01*
Y2998D01*
X-833Y3103D01*
X-827Y3148D01*
X-820Y3184D01*
X-814Y3207D01*
X-746D01*
Y3304D01*
X-746Y3308D01*
X-746Y3312D01*
Y3643D01*
X-1251D01*
X-1327Y3653D01*
X-1374Y3733D01*
X-1367Y3748D01*
X-1367D01*
Y4152D01*
X-1282D01*
X-1278Y4151D01*
X-1275Y4152D01*
X-983D01*
Y4509D01*
X-1275D01*
X-1278Y4510D01*
X-1282Y4509D01*
X-1367D01*
Y4539D01*
X-1464D01*
X-1468Y4540D01*
X-1472Y4539D01*
X-1776D01*
X-1780Y4540D01*
X-1784Y4539D01*
X-1881D01*
X-1882Y4539D01*
Y4539D01*
X-1962Y4532D01*
X-1969Y4533D01*
X-2046Y4518D01*
X-2112Y4474D01*
X-2155Y4408D01*
X-2171Y4331D01*
X-2155Y4253D01*
X-2112Y4188D01*
X-2046Y4144D01*
X-1969Y4128D01*
X-1962Y4130D01*
X-1957Y4129D01*
X-1882Y4064D01*
Y3748D01*
X-1842D01*
X-1829Y3723D01*
X-1879Y3643D01*
X-1887D01*
X-1891Y3644D01*
X-1895Y3643D01*
X-2357D01*
X-2361Y3644D01*
X-2365Y3643D01*
X-2373D01*
X-2423Y3723D01*
X-2410Y3748D01*
X-2370D01*
Y4165D01*
X-2885D01*
Y3748D01*
X-2885D01*
X-2878Y3733D01*
X-2925Y3653D01*
X-2925D01*
Y3237D01*
Y2882D01*
X-2813D01*
X-2782Y2808D01*
X-2864Y2726D01*
X-2897Y2677D01*
X-2909Y2618D01*
Y1260D01*
X-2909Y1260D01*
X-2897Y1201D01*
X-2864Y1152D01*
X-2791Y1078D01*
Y669D01*
X-2779Y611D01*
X-2746Y561D01*
X-2746Y561D01*
X-2361Y176D01*
X-2391Y102D01*
X-3048D01*
X-3048Y7536D01*
X-955D01*
X-916Y7544D01*
X-883Y7566D01*
X-882Y7567D01*
X-391D01*
X-388Y7567D01*
X-387Y7567D01*
X-385Y7567D01*
X-381Y7567D01*
X-284D01*
Y7598D01*
X-132Y7608D01*
X-73Y7604D01*
D02*
G37*
G36*
X1106Y7677D02*
X1093Y7672D01*
X1082Y7664D01*
X1072Y7653D01*
X1063Y7639D01*
X1057Y7622D01*
X1051Y7602D01*
X1048Y7579D01*
X1045Y7552D01*
X1045Y7523D01*
X885D01*
X884Y7552D01*
X882Y7579D01*
X878Y7602D01*
X872Y7622D01*
X866Y7639D01*
X857Y7653D01*
X848Y7664D01*
X836Y7672D01*
X823Y7677D01*
X809Y7678D01*
X1120D01*
X1106Y7677D01*
D02*
G37*
G36*
X2629Y7384D02*
X2630Y7369D01*
X2632Y7355D01*
X2635Y7343D01*
X2639Y7333D01*
X2643Y7325D01*
X2648Y7319D01*
X2654Y7314D01*
X2661Y7311D01*
X2669Y7311D01*
X2489D01*
X2497Y7311D01*
X2503Y7314D01*
X2509Y7319D01*
X2514Y7325D01*
X2519Y7333D01*
X2522Y7343D01*
X2525Y7355D01*
X2527Y7369D01*
X2528Y7384D01*
X2529Y7402D01*
X2629D01*
X2629Y7384D01*
D02*
G37*
G36*
X2675Y7096D02*
X2665Y7090D01*
X2657Y7080D01*
X2649Y7066D01*
X2643Y7048D01*
X2638Y7026D01*
X2634Y7000D01*
X2631Y6973D01*
X2634Y6937D01*
X2638Y6911D01*
X2643Y6889D01*
X2649Y6871D01*
X2657Y6857D01*
X2665Y6847D01*
X2675Y6841D01*
X2686Y6839D01*
X2472D01*
X2483Y6841D01*
X2492Y6847D01*
X2501Y6857D01*
X2508Y6871D01*
X2514Y6889D01*
X2520Y6911D01*
X2524Y6937D01*
X2526Y6964D01*
X2524Y7000D01*
X2520Y7026D01*
X2514Y7048D01*
X2508Y7066D01*
X2501Y7080D01*
X2492Y7090D01*
X2483Y7096D01*
X2472Y7098D01*
X2686D01*
X2675Y7096D01*
D02*
G37*
G36*
X2117Y6625D02*
X2116Y6636D01*
X2111Y6646D01*
X2104Y6654D01*
X2094Y6662D01*
X2080Y6668D01*
X2064Y6673D01*
X2057Y6675D01*
X2053Y6673D01*
X2048Y6670D01*
X2043Y6667D01*
X2039Y6663D01*
Y6678D01*
X2022Y6680D01*
X1997Y6682D01*
X1969Y6682D01*
Y6782D01*
X1997Y6783D01*
X2039Y6787D01*
Y6801D01*
X2043Y6798D01*
X2048Y6794D01*
X2053Y6792D01*
X2057Y6790D01*
X2064Y6791D01*
X2080Y6797D01*
X2094Y6803D01*
X2104Y6810D01*
X2111Y6819D01*
X2116Y6829D01*
X2117Y6839D01*
Y6625D01*
D02*
G37*
G36*
X780Y6449D02*
X796Y6448D01*
X810Y6448D01*
Y6288D01*
X796Y6288D01*
X780Y6287D01*
Y6219D01*
X778Y6232D01*
X774Y6244D01*
X766Y6254D01*
X756Y6263D01*
X742Y6271D01*
X726Y6277D01*
X724Y6278D01*
X723Y6277D01*
Y6278D01*
X706Y6282D01*
X684Y6285D01*
X658Y6287D01*
X630Y6288D01*
Y6448D01*
X658Y6449D01*
X684Y6451D01*
X706Y6454D01*
X723Y6458D01*
Y6459D01*
X724Y6459D01*
X726Y6459D01*
X742Y6465D01*
X756Y6473D01*
X766Y6482D01*
X774Y6492D01*
X778Y6504D01*
X780Y6517D01*
Y6449D01*
D02*
G37*
G36*
X306Y6505D02*
X304Y6500D01*
X303Y6495D01*
X302Y6490D01*
X303Y6483D01*
X304Y6476D01*
X305Y6469D01*
X308Y6461D01*
X311Y6452D01*
X315Y6442D01*
X190Y6438D01*
X171Y6501D01*
X309Y6508D01*
X306Y6505D01*
D02*
G37*
G36*
X936Y6516D02*
X941Y6444D01*
X942Y6435D01*
X944Y6427D01*
X946Y6422D01*
X949Y6417D01*
X823D01*
X825Y6422D01*
X827Y6427D01*
X829Y6435D01*
X831Y6444D01*
X834Y6468D01*
X835Y6498D01*
X836Y6535D01*
X936D01*
X936Y6516D01*
D02*
G37*
G36*
X2117Y6153D02*
X2331D01*
X2321Y6151D01*
X2311Y6145D01*
X2302Y6135D01*
X2295Y6121D01*
X2289Y6103D01*
X2284Y6081D01*
X2280Y6055D01*
X2277Y6028D01*
X2280Y5992D01*
X2284Y5966D01*
X2289Y5944D01*
X2295Y5926D01*
X2302Y5912D01*
X2311Y5902D01*
X2321Y5896D01*
X2331Y5894D01*
X2117D01*
X2128Y5896D01*
X2138Y5902D01*
X2146Y5912D01*
X2154Y5926D01*
X2160Y5944D01*
X2165Y5966D01*
X2169Y5992D01*
X2172Y6019D01*
X2169Y6055D01*
X2165Y6081D01*
X2160Y6103D01*
X2154Y6121D01*
X2146Y6135D01*
X2138Y6145D01*
X2128Y6151D01*
X2117Y6153D01*
X2116Y6164D01*
X2111Y6173D01*
X2104Y6182D01*
X2094Y6189D01*
X2080Y6196D01*
X2064Y6201D01*
X2057Y6202D01*
X2053Y6201D01*
X2048Y6198D01*
X2043Y6195D01*
X2039Y6191D01*
Y6205D01*
X2022Y6208D01*
X1997Y6209D01*
X1969Y6210D01*
Y6310D01*
X1997Y6310D01*
X2039Y6314D01*
Y6329D01*
X2043Y6325D01*
X2048Y6322D01*
X2053Y6319D01*
X2057Y6318D01*
X2064Y6319D01*
X2080Y6324D01*
X2094Y6330D01*
X2104Y6338D01*
X2111Y6346D01*
X2116Y6356D01*
X2117Y6367D01*
Y6153D01*
D02*
G37*
G36*
X947Y6315D02*
X944Y6309D01*
X942Y6302D01*
X941Y6293D01*
X939Y6282D01*
X937Y6256D01*
X936Y6206D01*
X836D01*
X836Y6224D01*
X831Y6293D01*
X829Y6302D01*
X827Y6309D01*
X825Y6315D01*
X823Y6319D01*
X949D01*
X947Y6315D01*
D02*
G37*
G36*
X196Y6217D02*
X185Y6210D01*
X252Y6084D01*
X248Y6085D01*
X148Y5925D01*
X147Y5951D01*
X144Y5977D01*
X140Y6003D01*
X134Y6029D01*
X126Y6056D01*
X116Y6083D01*
X105Y6110D01*
X77Y6166D01*
X62Y6191D01*
X59Y6193D01*
X54Y6196D01*
X49Y6199D01*
X45Y6200D01*
X40Y6201D01*
X138Y6298D01*
X196Y6217D01*
D02*
G37*
G36*
X455Y6245D02*
X516Y6102D01*
X519Y6090D01*
X517Y6083D01*
X512Y6081D01*
X504Y6085D01*
X404Y5925D01*
X403Y5953D01*
X399Y5982D01*
X394Y6013D01*
X386Y6046D01*
X365Y6115D01*
X351Y6152D01*
X295Y6272D01*
X432Y6289D01*
X455Y6245D01*
D02*
G37*
G36*
X-328Y5871D02*
X-347Y5883D01*
X-366Y5894D01*
X-386Y5903D01*
X-406Y5911D01*
X-426Y5918D01*
X-447Y5924D01*
X-468Y5929D01*
X-489Y5932D01*
X-510Y5934D01*
X-531Y5934D01*
Y6034D01*
X-510Y6035D01*
X-489Y6037D01*
X-468Y6040D01*
X-447Y6044D01*
X-426Y6050D01*
X-406Y6057D01*
X-386Y6065D01*
X-366Y6075D01*
X-347Y6086D01*
X-328Y6098D01*
Y5871D01*
D02*
G37*
G36*
X983Y6201D02*
X974Y6198D01*
X968Y6193D01*
X964Y6185D01*
X961Y6176D01*
X961Y6165D01*
X963Y6151D01*
X967Y6136D01*
X972Y6118D01*
X980Y6098D01*
X997Y6073D01*
X1053Y5997D01*
X1065Y5985D01*
X1075Y5976D01*
X1085Y5969D01*
X1094Y5965D01*
X1101Y5963D01*
X947Y5841D01*
X957Y5850D01*
X963Y5862D01*
X966Y5875D01*
X967Y5891D01*
X965Y5909D01*
X959Y5928D01*
X951Y5950D01*
X940Y5974D01*
X926Y6000D01*
X910Y6028D01*
X910Y6028D01*
X895Y6061D01*
X867Y6117D01*
X853Y6139D01*
X840Y6158D01*
X827Y6174D01*
X814Y6186D01*
X802Y6195D01*
X790Y6200D01*
X779Y6202D01*
X993D01*
X983Y6201D01*
D02*
G37*
G36*
X-719Y5875D02*
X-734Y5848D01*
X-748Y5819D01*
X-759Y5788D01*
X-770Y5754D01*
X-779Y5718D01*
X-786Y5680D01*
X-795Y5596D01*
X-798Y5551D01*
X-798Y5503D01*
X-1013Y5717D01*
X-1001Y5719D01*
X-988Y5724D01*
X-975Y5733D01*
X-960Y5745D01*
X-944Y5761D01*
X-927Y5780D01*
X-890Y5829D01*
X-870Y5859D01*
X-848Y5892D01*
X-719Y5875D01*
D02*
G37*
G36*
X2974Y9644D02*
X3048Y9629D01*
Y5500D01*
X2968Y5490D01*
X2966Y5496D01*
X2947Y5543D01*
X2946Y5550D01*
X2943Y5554D01*
X2942Y5559D01*
X2925Y5595D01*
X2903Y5649D01*
X2891Y5668D01*
X2859Y5737D01*
X2795Y5885D01*
X2789Y5902D01*
X2787Y5908D01*
Y5996D01*
X2690D01*
X2686Y5996D01*
X2682Y5996D01*
X2490D01*
X2433Y6052D01*
Y6149D01*
X2433Y6153D01*
X2433Y6157D01*
Y6468D01*
X2490Y6524D01*
X2787D01*
Y6836D01*
X2788Y6839D01*
X2787Y6843D01*
Y6941D01*
X2787D01*
X2787Y6996D01*
X2787Y6996D01*
Y7094D01*
X2788Y7098D01*
X2787Y7101D01*
Y7413D01*
X2730D01*
X2721Y7482D01*
X2690Y7557D01*
X2641Y7621D01*
X2576Y7670D01*
X2502Y7701D01*
X2482Y7704D01*
X2423Y7754D01*
Y8269D01*
X2423Y8269D01*
X2440Y8342D01*
X2465Y8404D01*
X2482D01*
Y8493D01*
X2482Y8494D01*
X2482Y8495D01*
X2482Y8495D01*
X2487Y8537D01*
X2487D01*
Y8904D01*
X2487D01*
X2476Y8986D01*
X2476Y8988D01*
X2476Y8991D01*
X2472Y9022D01*
X2462Y9046D01*
X2454Y9070D01*
X2459Y9094D01*
X2441Y9184D01*
X2390Y9260D01*
X2329Y9301D01*
Y9582D01*
X2377Y9644D01*
X2974D01*
Y9644D01*
D02*
G37*
G36*
X2687Y5885D02*
X2692Y5869D01*
X2701Y5847D01*
X2766Y5696D01*
X2849Y5516D01*
X2720Y5401D01*
X2694Y5454D01*
X2642Y5543D01*
X2617Y5580D01*
X2592Y5611D01*
X2567Y5636D01*
X2543Y5655D01*
X2519Y5669D01*
X2495Y5678D01*
X2472Y5680D01*
X2686Y5894D01*
X2687Y5885D01*
D02*
G37*
G36*
X1636Y5419D02*
X1638Y5389D01*
X1642Y5362D01*
X1642Y5360D01*
X1646D01*
X1644Y5357D01*
X1643Y5356D01*
X1647Y5339D01*
X1654Y5319D01*
X1663Y5303D01*
X1673Y5290D01*
X1684Y5282D01*
X1697Y5276D01*
X1711Y5274D01*
X1635D01*
X1635Y5272D01*
X1475D01*
X1475Y5274D01*
X1399D01*
X1413Y5276D01*
X1426Y5282D01*
X1438Y5290D01*
X1448Y5303D01*
X1456Y5319D01*
X1463Y5339D01*
X1467Y5356D01*
X1466Y5357D01*
X1464Y5360D01*
X1468D01*
X1468Y5362D01*
X1472Y5389D01*
X1474Y5419D01*
X1475Y5453D01*
X1635D01*
X1636Y5419D01*
D02*
G37*
G36*
X-2123Y5584D02*
X-2137Y5558D01*
X-2150Y5529D01*
X-2160Y5498D01*
X-2170Y5464D01*
X-2178Y5428D01*
X-2190Y5348D01*
X-2193Y5304D01*
X-2196Y5208D01*
X-2207Y5206D01*
X-2217Y5201D01*
X-2225Y5192D01*
X-2233Y5179D01*
X-2239Y5163D01*
X-2244Y5144D01*
X-2248Y5120D01*
X-2251Y5094D01*
X-2253Y5030D01*
X-2353D01*
X-2354Y5063D01*
X-2358Y5120D01*
X-2362Y5144D01*
X-2367Y5163D01*
X-2374Y5179D01*
X-2381Y5192D01*
X-2390Y5201D01*
X-2399Y5206D01*
X-2410Y5208D01*
X-2196D01*
X-2410Y5422D01*
X-2398Y5424D01*
X-2386Y5429D01*
X-2372Y5438D01*
X-2358Y5450D01*
X-2342Y5466D01*
X-2326Y5486D01*
X-2308Y5509D01*
X-2271Y5565D01*
X-2250Y5599D01*
X-2123Y5584D01*
D02*
G37*
G36*
X-2320Y4816D02*
X-2349Y4785D01*
X-2434Y4682D01*
X-2447Y4661D01*
X-2458Y4642D01*
X-2466Y4625D01*
X-2470Y4610D01*
X-2472Y4598D01*
X-2680Y4812D01*
X-2661Y4797D01*
X-2639Y4789D01*
X-2614Y4788D01*
X-2587Y4793D01*
X-2556Y4805D01*
X-2523Y4824D01*
X-2487Y4849D01*
X-2448Y4881D01*
X-2406Y4919D01*
X-2361Y4965D01*
X-2320Y4816D01*
D02*
G37*
G36*
X39Y4652D02*
X35Y4644D01*
X19Y4567D01*
X35Y4490D01*
X39Y4482D01*
Y4376D01*
X35Y4369D01*
X19Y4291D01*
X35Y4214D01*
X39Y4207D01*
Y4173D01*
X39Y4150D01*
X21Y4106D01*
X-12Y4073D01*
X-33Y4064D01*
X-79Y4055D01*
X-335Y4055D01*
X-354Y4055D01*
X-374Y4063D01*
X-412Y4093D01*
Y4490D01*
X-433D01*
Y4567D01*
X-433Y4583D01*
X-421Y4612D01*
X-399Y4634D01*
X-370Y4646D01*
X-354Y4646D01*
X-354Y4646D01*
X-276D01*
X-256Y4648D01*
X-221Y4662D01*
X-194Y4689D01*
X-179Y4725D01*
X-179Y4725D01*
X-155Y4761D01*
X-148Y4797D01*
X-147Y4800D01*
X-147Y4805D01*
X-143Y4823D01*
Y4853D01*
X-141Y4872D01*
X-138Y4897D01*
X-133Y4922D01*
X-126Y4947D01*
X-122Y4961D01*
X-110Y4974D01*
X-98Y4985D01*
X-86Y4993D01*
X-74Y5000D01*
X-59Y5004D01*
X-43Y5007D01*
X-28Y5008D01*
X39D01*
Y4652D01*
D02*
G37*
G36*
X2479Y4662D02*
X2474Y4661D01*
X2468Y4660D01*
X2462Y4658D01*
X2456Y4656D01*
X2450Y4652D01*
X2443Y4648D01*
X2436Y4643D01*
X2429Y4637D01*
X2414Y4623D01*
X2343Y4694D01*
X2351Y4701D01*
X2363Y4716D01*
X2368Y4723D01*
X2372Y4730D01*
X2376Y4736D01*
X2379Y4742D01*
X2380Y4748D01*
X2382Y4754D01*
X2382Y4759D01*
X2479Y4662D01*
D02*
G37*
G36*
X1260Y4583D02*
X1260Y4583D01*
X1260Y4570D01*
X1255Y4544D01*
X1245Y4520D01*
X1230Y4498D01*
X1220Y4488D01*
X1220Y4488D01*
X1211Y4479D01*
X1189Y4464D01*
X1165Y4454D01*
X1139Y4449D01*
X1125Y4449D01*
X433D01*
X408Y4489D01*
X408Y4489D01*
X408Y4490D01*
X424Y4567D01*
X408Y4644D01*
X404Y4652D01*
X404Y5008D01*
X651D01*
Y5017D01*
X1260D01*
X1260Y4583D01*
D02*
G37*
G36*
X-1780Y4224D02*
X-1782Y4234D01*
X-1788Y4244D01*
X-1797Y4253D01*
X-1810Y4260D01*
X-1827Y4266D01*
X-1848Y4272D01*
X-1872Y4276D01*
X-1878Y4274D01*
X-1884Y4271D01*
X-1889Y4269D01*
X-1894Y4265D01*
X-1898Y4262D01*
Y4278D01*
X-1901Y4278D01*
X-1969Y4281D01*
Y4381D01*
X-1933Y4381D01*
X-1898Y4384D01*
Y4400D01*
X-1894Y4396D01*
X-1889Y4393D01*
X-1884Y4390D01*
X-1878Y4388D01*
X-1872Y4386D01*
X-1848Y4390D01*
X-1827Y4395D01*
X-1810Y4401D01*
X-1797Y4409D01*
X-1788Y4417D01*
X-1782Y4427D01*
X-1780Y4438D01*
Y4224D01*
D02*
G37*
G36*
X-1465Y4429D02*
X-1458Y4421D01*
X-1446Y4414D01*
X-1429Y4408D01*
X-1408Y4402D01*
X-1381Y4398D01*
X-1370Y4397D01*
X-1288Y4402D01*
X-1281Y4405D01*
X-1278Y4408D01*
Y4391D01*
X-1273Y4391D01*
X-1228Y4391D01*
Y4271D01*
X-1273Y4270D01*
X-1278Y4270D01*
Y4253D01*
X-1281Y4257D01*
X-1288Y4259D01*
X-1300Y4262D01*
X-1317Y4264D01*
X-1338Y4266D01*
X-1381Y4263D01*
X-1408Y4259D01*
X-1429Y4254D01*
X-1446Y4248D01*
X-1458Y4241D01*
X-1465Y4233D01*
X-1468Y4224D01*
Y4270D01*
X-1518Y4271D01*
Y4391D01*
X-1473Y4391D01*
X-1468Y4391D01*
Y4438D01*
X-1465Y4429D01*
D02*
G37*
G36*
X3048Y4740D02*
X3048Y102D01*
X1439D01*
Y1562D01*
X1439Y1563D01*
X1439Y1564D01*
Y1570D01*
X1439Y1574D01*
X1439Y1577D01*
Y1675D01*
X1349D01*
X1348Y1675D01*
X1324Y1678D01*
X1315Y1681D01*
X1306Y1687D01*
X1296Y1698D01*
X1284Y1719D01*
X1271Y1749D01*
X1261Y1791D01*
X1252Y1842D01*
X1247Y1902D01*
Y2551D01*
X1250Y2572D01*
X1337Y2640D01*
X1392Y2677D01*
X1445Y2709D01*
X1496Y2736D01*
X1544Y2757D01*
X1590Y2773D01*
X1633Y2784D01*
X1674Y2791D01*
X1717Y2793D01*
X1719Y2794D01*
X1813D01*
Y2891D01*
X1813Y2895D01*
X1813Y2898D01*
X1813Y2901D01*
X1813Y2903D01*
Y3204D01*
X1813Y3207D01*
X1813Y3211D01*
Y3214D01*
X1813Y3217D01*
X1813Y3218D01*
Y3309D01*
X1770D01*
X1759Y3456D01*
Y3533D01*
X1755Y3556D01*
X1748Y3606D01*
X1720Y3674D01*
X1685Y3720D01*
Y3771D01*
X1685Y3774D01*
X1685Y3776D01*
X1685Y3778D01*
X1685Y3782D01*
Y3872D01*
X1820D01*
Y3871D01*
X1937Y3881D01*
X2016Y3809D01*
Y3345D01*
X2319D01*
X2319Y3345D01*
X2320Y3345D01*
X2328D01*
X2331Y3344D01*
X2335Y3345D01*
X2433D01*
Y3376D01*
X2513Y3421D01*
X2547Y3404D01*
Y3404D01*
X2645D01*
X2649Y3403D01*
X2652Y3404D01*
X2964D01*
Y3820D01*
X2652D01*
X2649Y3821D01*
X2645Y3820D01*
X2547D01*
X2547Y3820D01*
X2507Y3801D01*
X2433Y3843D01*
Y3880D01*
X2335D01*
X2331Y3880D01*
X2328Y3880D01*
X2320D01*
X2319Y3880D01*
X2305Y3892D01*
X2322Y3986D01*
X2357Y4000D01*
X2516Y4098D01*
X2657Y4218D01*
X2657Y4218D01*
X2783Y4365D01*
X2884Y4530D01*
X2958Y4709D01*
X2968Y4749D01*
X3048Y4740D01*
D02*
G37*
G36*
X302Y4947D02*
X300Y4941D01*
Y4887D01*
X299Y4882D01*
X300Y4877D01*
Y4823D01*
X302Y4817D01*
Y4652D01*
X304Y4642D01*
X304Y4632D01*
X307Y4622D01*
X309Y4613D01*
X311Y4610D01*
X320Y4567D01*
X308Y4510D01*
X308Y4509D01*
X308Y4499D01*
X306Y4489D01*
X308Y4480D01*
X308Y4472D01*
X308Y4471D01*
X308Y4469D01*
X312Y4460D01*
X314Y4450D01*
X314Y4450D01*
X319Y4443D01*
X322Y4435D01*
X347Y4395D01*
X355Y4386D01*
X361Y4377D01*
X368Y4372D01*
X374Y4366D01*
X384Y4361D01*
X394Y4355D01*
X402Y4353D01*
X410Y4349D01*
X422Y4349D01*
X433Y4347D01*
X980D01*
X1023Y4295D01*
X1054Y4258D01*
X1054Y4258D01*
X1087Y4221D01*
X1102Y4202D01*
Y3940D01*
X1087Y3903D01*
X1058Y3874D01*
X1020Y3858D01*
X198D01*
Y4017D01*
X142D01*
X116Y4067D01*
X134Y4111D01*
X134Y4111D01*
X141Y4150D01*
X141Y4173D01*
Y4207D01*
X139Y4217D01*
Y4227D01*
X136Y4236D01*
X134Y4246D01*
X132Y4249D01*
X123Y4291D01*
X132Y4334D01*
X134Y4337D01*
X136Y4347D01*
X139Y4356D01*
Y4366D01*
X141Y4376D01*
Y4482D01*
X139Y4492D01*
X139Y4502D01*
X136Y4511D01*
X134Y4521D01*
X132Y4524D01*
X123Y4567D01*
X132Y4610D01*
X134Y4613D01*
X136Y4622D01*
X139Y4632D01*
X139Y4642D01*
X141Y4652D01*
Y5008D01*
X302D01*
Y4947D01*
D02*
G37*
G36*
X-1558Y3850D02*
X-1562Y3848D01*
X-1565Y3844D01*
X-1567Y3840D01*
X-1569Y3833D01*
X-1571Y3825D01*
X-1572Y3816D01*
X-1573Y3806D01*
X-1574Y3780D01*
X-1674D01*
X-1674Y3794D01*
X-1676Y3816D01*
X-1677Y3825D01*
X-1679Y3833D01*
X-1681Y3840D01*
X-1684Y3844D01*
X-1686Y3848D01*
X-1690Y3850D01*
X-1693Y3851D01*
X-1555D01*
X-1558Y3850D01*
D02*
G37*
G36*
X-2562D02*
X-2566Y3848D01*
X-2568Y3844D01*
X-2571Y3840D01*
X-2573Y3833D01*
X-2575Y3825D01*
X-2576Y3816D01*
X-2577Y3806D01*
X-2578Y3780D01*
X-2678D01*
X-2678Y3794D01*
X-2680Y3816D01*
X-2681Y3825D01*
X-2683Y3833D01*
X-2685Y3840D01*
X-2687Y3844D01*
X-2690Y3848D01*
X-2694Y3850D01*
X-2697Y3851D01*
X-2559D01*
X-2562Y3850D01*
D02*
G37*
G36*
X1492Y4027D02*
X1561Y3806D01*
X1569Y3791D01*
X1577Y3781D01*
X1583Y3778D01*
X1369D01*
X1373Y3781D01*
X1374Y3788D01*
X1374Y3801D01*
X1373Y3818D01*
X1370Y3840D01*
X1350Y3936D01*
X1329Y4025D01*
X1478Y4085D01*
X1492Y4027D01*
D02*
G37*
G36*
X2334Y3758D02*
X2341Y3740D01*
X2353Y3724D01*
X2370Y3710D01*
X2391Y3699D01*
X2418Y3689D01*
X2449Y3682D01*
X2485Y3676D01*
X2497Y3675D01*
X2562Y3680D01*
X2589Y3684D01*
X2610Y3689D01*
X2627Y3695D01*
X2639Y3702D01*
X2646Y3710D01*
X2649Y3719D01*
Y3505D01*
X2646Y3514D01*
X2639Y3522D01*
X2627Y3529D01*
X2610Y3535D01*
X2589Y3540D01*
X2562Y3545D01*
X2531Y3548D01*
X2503Y3549D01*
X2485Y3548D01*
X2449Y3543D01*
X2418Y3535D01*
X2391Y3526D01*
X2370Y3514D01*
X2353Y3500D01*
X2341Y3484D01*
X2334Y3466D01*
X2331Y3446D01*
Y3778D01*
X2334Y3758D01*
D02*
G37*
G36*
X-1643Y3338D02*
X-1645Y3349D01*
X-1650Y3358D01*
X-1661Y3367D01*
X-1674Y3374D01*
X-1692Y3381D01*
X-1715Y3386D01*
X-1741Y3390D01*
X-1762Y3392D01*
X-1819Y3387D01*
X-1841Y3383D01*
X-1859Y3378D01*
X-1873Y3372D01*
X-1883Y3365D01*
X-1889Y3357D01*
X-1891Y3348D01*
Y3542D01*
X-1889Y3533D01*
X-1883Y3525D01*
X-1873Y3518D01*
X-1859Y3512D01*
X-1841Y3507D01*
X-1819Y3502D01*
X-1793Y3499D01*
X-1771Y3498D01*
X-1741Y3500D01*
X-1715Y3504D01*
X-1692Y3509D01*
X-1674Y3515D01*
X-1661Y3523D01*
X-1650Y3531D01*
X-1645Y3541D01*
X-1643Y3552D01*
Y3338D01*
D02*
G37*
G36*
X-2607Y3541D02*
X-2601Y3531D01*
X-2591Y3523D01*
X-2577Y3515D01*
X-2559Y3509D01*
X-2537Y3504D01*
X-2511Y3500D01*
X-2490Y3498D01*
X-2433Y3502D01*
X-2411Y3507D01*
X-2393Y3512D01*
X-2379Y3518D01*
X-2369Y3525D01*
X-2363Y3533D01*
X-2361Y3542D01*
Y3348D01*
X-2363Y3357D01*
X-2369Y3365D01*
X-2379Y3372D01*
X-2393Y3378D01*
X-2411Y3383D01*
X-2433Y3387D01*
X-2459Y3391D01*
X-2481Y3392D01*
X-2511Y3390D01*
X-2537Y3386D01*
X-2559Y3381D01*
X-2577Y3374D01*
X-2591Y3367D01*
X-2601Y3358D01*
X-2607Y3349D01*
X-2609Y3338D01*
Y3552D01*
X-2607Y3541D01*
D02*
G37*
G36*
X-1790Y3246D02*
X-1744Y3237D01*
Y3237D01*
X-1714Y3237D01*
X-1646D01*
X-1643Y3236D01*
X-1639Y3237D01*
X-1340D01*
Y3207D01*
X-1273D01*
X-1266Y3184D01*
X-1260Y3150D01*
X-1247Y2993D01*
Y2714D01*
X-1284Y2712D01*
X-1476D01*
X-1479Y2712D01*
X-1560Y2722D01*
X-1638Y2755D01*
X-1703Y2805D01*
X-1704Y2806D01*
X-1959Y3061D01*
X-1959Y3061D01*
X-2053Y3138D01*
X-2106Y3166D01*
X-2086Y3246D01*
X-1895D01*
X-1891Y3246D01*
X-1887Y3246D01*
X-1790D01*
Y3246D01*
D02*
G37*
G36*
X1656Y3472D02*
X1669Y3289D01*
X1675Y3260D01*
X1683Y3237D01*
X1691Y3221D01*
X1701Y3211D01*
X1711Y3207D01*
X1651D01*
X1652Y3193D01*
X1655Y3051D01*
X1555D01*
X1711Y2895D01*
X1663Y2892D01*
X1612Y2884D01*
X1560Y2871D01*
X1507Y2852D01*
X1452Y2828D01*
X1395Y2798D01*
X1337Y2763D01*
X1277Y2722D01*
X1152Y2625D01*
X1139Y2671D01*
X1142Y2620D01*
X1143Y2544D01*
X943D01*
X942Y2620D01*
X926Y2800D01*
X917Y2844D01*
X905Y2880D01*
X892Y2908D01*
X876Y2928D01*
X858Y2940D01*
X838Y2944D01*
X1052D01*
X1069Y2940D01*
X1085Y2928D01*
X1086Y2927D01*
X1399Y3207D01*
X1452Y3154D01*
X1448Y3207D01*
X1399D01*
X1410Y3211D01*
X1419Y3221D01*
X1428Y3237D01*
X1435Y3260D01*
X1441Y3289D01*
X1442Y3296D01*
X1441Y3304D01*
X1434Y3347D01*
X1424Y3383D01*
X1413Y3411D01*
X1400Y3430D01*
X1386Y3442D01*
X1369Y3446D01*
X1453D01*
X1455Y3533D01*
X1655D01*
X1656Y3472D01*
D02*
G37*
G36*
X-2607Y3187D02*
X-2601Y3177D01*
X-2591Y3169D01*
X-2577Y3161D01*
X-2559Y3155D01*
X-2537Y3150D01*
X-2511Y3146D01*
X-2481Y3143D01*
X-2409Y3141D01*
Y3041D01*
X-2447Y3040D01*
X-2511Y3035D01*
X-2537Y3031D01*
X-2559Y3026D01*
X-2577Y3020D01*
X-2591Y3013D01*
X-2601Y3004D01*
X-2607Y2994D01*
X-2609Y2983D01*
Y3198D01*
X-2607Y3187D01*
D02*
G37*
G36*
X101Y3165D02*
X113Y3162D01*
X133Y3159D01*
X197Y3155D01*
X267Y3154D01*
X483Y3158D01*
Y3151D01*
X497Y3151D01*
Y2951D01*
X483Y2951D01*
Y2944D01*
X479Y2945D01*
X467Y2947D01*
X428Y2948D01*
X97Y2934D01*
Y2951D01*
X83Y2951D01*
Y3151D01*
X97Y3151D01*
Y3168D01*
X101Y3165D01*
D02*
G37*
G36*
X-866Y3304D02*
X-882Y3292D01*
X-896Y3272D01*
X-909Y3244D01*
X-919Y3208D01*
X-928Y3164D01*
X-935Y3112D01*
X-942Y2984D01*
X-943Y2908D01*
X-1143D01*
X-1144Y2984D01*
X-1159Y3164D01*
X-1167Y3208D01*
X-1178Y3244D01*
X-1190Y3272D01*
X-1205Y3292D01*
X-1221Y3304D01*
X-1239Y3308D01*
X-848D01*
X-866Y3304D01*
D02*
G37*
G36*
X-1114Y2559D02*
X-943D01*
X-942Y2521D01*
X-939Y2487D01*
X-934Y2457D01*
X-928Y2432D01*
X-919Y2410D01*
X-908Y2392D01*
X-895Y2378D01*
X-881Y2368D01*
X-864Y2362D01*
X-845Y2360D01*
X-1241D01*
X-1223Y2362D01*
X-1206Y2368D01*
X-1191Y2378D01*
X-1179Y2392D01*
X-1168Y2410D01*
X-1159Y2432D01*
X-1152Y2457D01*
X-1147Y2487D01*
X-1146Y2500D01*
X-1159Y2502D01*
X-1202Y2506D01*
X-1293Y2509D01*
X-1330Y2509D01*
Y2609D01*
X-1293Y2609D01*
X-1142Y2619D01*
X-1129Y2622D01*
X-1120Y2626D01*
X-1114Y2630D01*
Y2559D01*
D02*
G37*
G36*
X-2135Y2047D02*
X-2133Y2037D01*
X-2130Y2028D01*
X-2126Y2020D01*
X-2121Y2014D01*
X-2114Y2008D01*
X-2107Y2004D01*
X-2098Y2001D01*
X-2088Y1999D01*
X-2077Y1998D01*
Y1938D01*
X-2088Y1938D01*
X-2098Y1936D01*
X-2107Y1933D01*
X-2114Y1929D01*
X-2121Y1924D01*
X-2126Y1917D01*
X-2130Y1909D01*
X-2133Y1900D01*
X-2135Y1890D01*
X-2135Y1878D01*
X-2195D01*
X-2196Y1890D01*
X-2198Y1900D01*
X-2201Y1909D01*
X-2205Y1917D01*
X-2210Y1924D01*
X-2217Y1929D01*
X-2225Y1933D01*
X-2232Y1935D01*
X-2239Y1933D01*
X-2246Y1929D01*
X-2253Y1924D01*
X-2258Y1917D01*
X-2263Y1910D01*
X-2266Y1901D01*
X-2267Y1891D01*
X-2268Y1880D01*
X-2328Y1969D01*
X-2268Y2057D01*
X-2267Y2046D01*
X-2266Y2036D01*
X-2263Y2027D01*
X-2258Y2020D01*
X-2253Y2013D01*
X-2246Y2008D01*
X-2239Y2004D01*
X-2232Y2002D01*
X-2225Y2004D01*
X-2217Y2008D01*
X-2210Y2014D01*
X-2205Y2020D01*
X-2201Y2028D01*
X-2198Y2037D01*
X-2196Y2047D01*
X-2195Y2059D01*
X-2135D01*
X-2135Y2047D01*
D02*
G37*
G36*
X-2357Y1969D02*
X-2417Y1880D01*
X-2417Y1891D01*
X-2419Y1901D01*
X-2422Y1910D01*
X-2426Y1917D01*
X-2432Y1924D01*
X-2438Y1929D01*
X-2446Y1933D01*
X-2455Y1936D01*
X-2465Y1938D01*
X-2477Y1938D01*
Y1998D01*
X-2465Y1999D01*
X-2455Y2001D01*
X-2446Y2004D01*
X-2438Y2008D01*
X-2432Y2013D01*
X-2426Y2020D01*
X-2422Y2027D01*
X-2419Y2036D01*
X-2417Y2046D01*
X-2417Y2057D01*
X-2357Y1969D01*
D02*
G37*
G36*
X1145Y1898D02*
X1151Y1830D01*
X1161Y1770D01*
X1174Y1718D01*
X1192Y1674D01*
X1213Y1638D01*
X1238Y1610D01*
X1268Y1590D01*
X1301Y1578D01*
X1337Y1574D01*
X749D01*
X786Y1578D01*
X819Y1590D01*
X848Y1610D01*
X873Y1638D01*
X895Y1674D01*
X912Y1718D01*
X926Y1770D01*
X936Y1830D01*
X941Y1898D01*
X943Y1974D01*
X1143D01*
X1145Y1898D01*
D02*
G37*
D14*
X-177Y14134D02*
G03*
X-236Y13991I143J-142D01*
G01*
X371Y15157D02*
G03*
X394Y15181I0J23D01*
G01*
X630Y14961D02*
G03*
X433Y15157I-197J0D01*
G01*
X371D02*
G03*
X276Y15118I0J-134D01*
G01*
D02*
G03*
X236Y15023I95J-95D01*
G01*
X-394Y15003D02*
G03*
X-492Y15102I-98J0D01*
G01*
X1181Y15433D02*
G03*
X984Y15630I-197J0D01*
G01*
X1102Y13780D02*
G03*
X984Y13494I285J-285D01*
G01*
X394Y15630D02*
G03*
X167Y15403I0J-227D01*
G01*
X118Y15197D02*
G03*
X167Y15315I-118J118D01*
G01*
X118Y15197D02*
G03*
X79Y15102I95J-95D01*
G01*
X1102Y13780D02*
G03*
X1181Y13970I-190J190D01*
G01*
X-591Y13917D02*
G03*
X-255Y14056I0J475D01*
G01*
X394Y13647D02*
G03*
X453Y13504I202J0D01*
G01*
X689Y12953D02*
G03*
X466Y13490I-760J0D01*
G01*
X394Y13235D02*
G03*
X315Y13425I-269J0D01*
G01*
X236Y13615D02*
G03*
X315Y13425I269J0D01*
G01*
X79Y13000D02*
G03*
X98Y12953I67J0D01*
G01*
X-177Y14134D02*
X0Y14311D01*
X-236Y13720D02*
Y13991D01*
X-255Y14057D02*
X-177Y14134D01*
X371Y15157D02*
X433D01*
X236Y14902D02*
Y15023D01*
X-394Y14902D02*
Y15003D01*
X-635Y15102D02*
X-492D01*
X1280Y12953D02*
Y13494D01*
X1181Y13970D02*
Y15433D01*
X394Y15630D02*
X984D01*
X984Y12953D02*
Y13494D01*
X167Y15315D02*
Y15403D01*
X79Y14902D02*
Y15102D01*
X394Y15181D02*
Y15394D01*
X-827Y14705D02*
X-591D01*
X-1181D02*
X-827D01*
X-591Y14705D02*
Y14705D01*
X-79Y14902D02*
Y15394D01*
X453Y13504D02*
X466Y13490D01*
X394Y13647D02*
Y13720D01*
X394Y12953D02*
Y13235D01*
X236Y13615D02*
Y13720D01*
X79Y13000D02*
Y13720D01*
D15*
X2224Y4577D02*
G03*
X2348Y4628I0J175D01*
G01*
X1890Y15249D02*
G03*
X1969Y15059I269J0D01*
G01*
X2067Y14821D02*
G03*
X1969Y15059I-336J0D01*
G01*
X2559Y12402D02*
G03*
X2756Y12877I-475J475D01*
G01*
X1945Y13803D02*
G03*
X2067Y14096I-293J293D01*
G01*
X2264Y11516D02*
G03*
X2461Y11319I197J0D01*
G01*
X2485Y12328D02*
G03*
X2264Y11793I534J-535D01*
G01*
X2756Y12303D02*
G03*
X2638Y12018I285J-285D01*
G01*
X2756Y12303D02*
G03*
X2953Y12778I-475J475D01*
G01*
X3031Y14291D02*
G03*
X2756Y14567I-276J0D01*
G01*
X2992Y13898D02*
G03*
X2953Y13803I95J-95D01*
G01*
X2992Y13898D02*
G03*
X3031Y13993I-95J95D01*
G01*
X500Y16114D02*
G03*
X669Y15945I169J0D01*
G01*
X1378Y15453D02*
G03*
X886Y15945I-492J0D01*
G01*
X1575Y14156D02*
G03*
X1772Y13681I672J0D01*
G01*
X1575Y16315D02*
G03*
X1000Y16890I-575J0D01*
G01*
X1870Y13443D02*
G03*
X1772Y13681I-336J0D01*
G01*
X1575Y13443D02*
G03*
X1476Y13681I-336J0D01*
G01*
X1378Y13919D02*
G03*
X1476Y13681I336J0D01*
G01*
X-403Y6614D02*
G03*
X-118Y6732I0J403D01*
G01*
X-571Y6614D02*
G03*
X-1181Y6004I0J-610D01*
G01*
X-1909Y5709D02*
G03*
X-2303Y5315I0J-394D01*
G01*
X-1476Y5709D02*
G03*
X-1181Y6004I0J295D01*
G01*
X-531Y5984D02*
G03*
X-906Y5610I0J-374D01*
G01*
X1260Y6197D02*
G03*
X1299Y6102I134J0D01*
G01*
X1339Y6007D02*
G03*
X1299Y6102I-134J0D01*
G01*
X-49Y5742D02*
G03*
X79Y5433I437J0D01*
G01*
X-187Y5168D02*
G03*
X-305Y4882I286J-286D01*
G01*
X98Y8918D02*
G03*
X391Y8211I1000J0D01*
G01*
X591Y7733D02*
G03*
X394Y8209I-672J0D01*
G01*
X302Y6850D02*
G03*
X591Y7139I0J289D01*
G01*
X167Y6850D02*
G03*
X-118Y6732I0J-403D01*
G01*
X-1812Y2698D02*
G03*
X-1476Y2559I336J336D01*
G01*
X-2067Y2953D02*
G03*
X-2400Y3091I-333J-333D01*
G01*
X-787Y13130D02*
G03*
X-1378Y13720I-591J0D01*
G01*
X-1772Y14114D02*
G03*
X-1378Y13720I394J0D01*
G01*
X-1772Y14839D02*
G03*
X-2165Y15232I-394J0D01*
G01*
X-492Y13100D02*
G03*
X-1280Y13887I-787J0D01*
G01*
X-1535Y14143D02*
G03*
X-1280Y13887I256J0D01*
G01*
X-1535Y15602D02*
G03*
X-2165Y16232I-630J0D01*
G01*
X-736Y15866D02*
G03*
X-500Y16436I-570J570D01*
G01*
X2579Y7402D02*
G03*
X2421Y7559I-157J0D01*
G01*
X1280Y8780D02*
G03*
X1437Y8622I157J0D01*
G01*
X1850Y7717D02*
G03*
X2008Y7559I157J0D01*
G01*
X1850Y8465D02*
G03*
X1693Y8622I-157J0D01*
G01*
X1634Y6535D02*
G03*
X1476Y6693I-157J0D01*
G01*
X1043D02*
G03*
X886Y6535I0J-157D01*
G01*
X1024Y5873D02*
G03*
X945Y6063I-269J0D01*
G01*
X886Y6206D02*
G03*
X945Y6063I202J0D01*
G01*
X-1535Y3566D02*
G03*
X-1575Y3661I-134J0D01*
G01*
X-1624Y3780D02*
G03*
X-1575Y3661I168J0D01*
G01*
X-2677D02*
G03*
X-2628Y3780I-119J119D01*
G01*
X-2677Y3661D02*
G03*
X-2717Y3566I95J-95D01*
G01*
X-2628Y4705D02*
G03*
X-2303Y5030I0J325D01*
G01*
X2264Y10138D02*
X2264Y10138D01*
X2638D02*
X2638Y10138D01*
X2264Y10138D02*
X2638D01*
X2348Y4628D02*
X2480Y4760D01*
X2348Y4628D02*
X2348Y4628D01*
X2244Y15394D02*
X2462D01*
X1890Y15249D02*
Y15394D01*
X2067Y14764D02*
Y14821D01*
X2264Y11024D02*
X2638D01*
X2638Y11024D01*
X2264Y11024D02*
X2264Y11024D01*
X2485Y12328D02*
X2559Y12402D01*
X2067Y14096D02*
Y14173D01*
X2264Y11516D02*
Y11793D01*
X2264Y11793D02*
X2264Y11793D01*
X2461Y11319D02*
X2638D01*
X2756Y12877D02*
Y14075D01*
X2638Y11614D02*
Y12018D01*
X2953Y12778D02*
Y13803D01*
X3031Y13993D02*
Y14291D01*
X500Y16114D02*
Y16890D01*
X669Y15945D02*
X886D01*
X1870Y12953D02*
Y13443D01*
X1575Y14156D02*
Y16315D01*
X1575Y12953D02*
Y13443D01*
X1378Y13919D02*
Y15453D01*
X-571Y6614D02*
X-403D01*
X-2303Y5030D02*
Y5315D01*
X-1909Y5709D02*
X-1476D01*
X-531Y5984D02*
X-305D01*
X1260Y6197D02*
Y6368D01*
X1339Y5866D02*
Y6007D01*
X-49Y5742D02*
Y5984D01*
X-118Y5236D02*
X79Y5433D01*
X-187Y5168D02*
X-118Y5236D01*
X-1949Y5315D02*
X-1693D01*
X-906Y5000D02*
Y5256D01*
X391Y8211D02*
X394Y8209D01*
X98Y8918D02*
Y9094D01*
X591Y7139D02*
Y7733D01*
X167Y6850D02*
X302D01*
X-1476Y2559D02*
X-1043D01*
X-2717Y3091D02*
X-2400D01*
X-1812Y2698D02*
X-1812Y2698D01*
X-2067Y2953D02*
X-1812Y2698D01*
X-2638Y669D02*
X-2165Y197D01*
X-2638Y669D02*
Y1142D01*
X-2756Y1260D02*
X-2638Y1142D01*
X-2480Y2894D02*
X-2441D01*
X-2402Y2854D01*
X-2756Y2618D02*
X-2480Y2894D01*
X-2402Y2559D02*
Y2854D01*
X-2165Y197D02*
Y669D01*
X-2756Y1260D02*
Y2618D01*
X2224Y6260D02*
X2224Y6260D01*
Y5787D02*
Y6260D01*
X1969D02*
X2224D01*
X-787Y12953D02*
Y13130D01*
X-1772Y14114D02*
Y14839D01*
X-492Y12953D02*
Y13100D01*
X-1535Y14143D02*
Y15602D01*
X-776Y15866D02*
X-742Y15900D01*
X-1378Y12953D02*
Y13494D01*
X-500Y16436D02*
Y16890D01*
X2165Y12953D02*
Y13504D01*
X-1673Y12953D02*
Y13504D01*
X2579Y7205D02*
Y7402D01*
X2008Y7559D02*
X2421D01*
X1437Y8622D02*
X1693D01*
X1280Y8780D02*
Y9094D01*
X1850Y7717D02*
Y8465D01*
X-1181Y14134D02*
Y14390D01*
X709Y15394D02*
X965D01*
X-650D02*
X-394D01*
X1969Y6732D02*
X2224D01*
X1043Y6693D02*
X1476D01*
X1634Y6368D02*
Y6535D01*
X886Y6368D02*
Y6535D01*
X1024Y5866D02*
Y5873D01*
X886Y6206D02*
Y6368D01*
X-1969Y4331D02*
X-1624D01*
X1969Y7205D02*
X2224D01*
X2756Y7756D02*
Y8012D01*
X2579Y7205D02*
X2579Y7205D01*
X2579Y6732D02*
Y7205D01*
X1339Y5866D02*
X1594D01*
X-1624Y3780D02*
Y3957D01*
X-1535Y3445D02*
Y3566D01*
X-2628Y4331D02*
X-2283D01*
X-2717Y3445D02*
Y3566D01*
X-2628Y3780D02*
Y3957D01*
X2579Y6260D02*
X2835D01*
X2618Y8602D02*
X2874D01*
X1024Y5197D02*
Y5453D01*
X2756Y3967D02*
Y4222D01*
X-846Y4291D02*
X-591D01*
X-1181Y3760D02*
Y4016D01*
X-1535Y2835D02*
Y3091D01*
X-1969Y3445D02*
X-1535D01*
X-2717D02*
X-2283D01*
D17*
X500Y16811D02*
D03*
X1000D02*
D03*
X-1000D02*
D03*
X-500D02*
D03*
X0D02*
D03*
D18*
X591Y13917D02*
D03*
Y14075D02*
D03*
Y14232D02*
D03*
Y14390D02*
D03*
Y14547D02*
D03*
Y14705D02*
D03*
X-591D02*
D03*
Y14547D02*
D03*
Y14390D02*
D03*
Y14232D02*
D03*
Y14075D02*
D03*
Y13917D02*
D03*
D19*
X394Y14902D02*
D03*
X236D02*
D03*
X79D02*
D03*
X-79D02*
D03*
X-236D02*
D03*
X-394D02*
D03*
Y13720D02*
D03*
X-236D02*
D03*
X-79D02*
D03*
X79D02*
D03*
X236D02*
D03*
X394D02*
D03*
D20*
X0Y14311D02*
D03*
D21*
X-1043Y1181D02*
D03*
D22*
X1043Y787D02*
D03*
D23*
X2756Y14075D02*
D03*
Y14567D02*
D03*
Y15059D02*
D03*
D24*
X2244Y15394D02*
D03*
X1890D02*
D03*
X2579Y5787D02*
D03*
X2224D02*
D03*
X2224Y6260D02*
D03*
X2579D02*
D03*
X2579Y7205D02*
D03*
X2224D02*
D03*
X-1949Y5315D02*
D03*
X-2303D02*
D03*
X591Y3051D02*
D03*
X945D02*
D03*
X2224Y6732D02*
D03*
X2579D02*
D03*
D25*
X2067Y14173D02*
D03*
Y14764D02*
D03*
X965Y7835D02*
D03*
X1555D02*
D03*
Y5118D02*
D03*
X2146D02*
D03*
X1555Y3051D02*
D03*
X2146D02*
D03*
X2165Y8012D02*
D03*
X2756D02*
D03*
D26*
X-1535Y3445D02*
D03*
Y3091D02*
D03*
X2756Y3967D02*
D03*
Y3612D02*
D03*
X-906Y5256D02*
D03*
Y5610D02*
D03*
X-2717Y3445D02*
D03*
Y3091D02*
D03*
D27*
X866Y4154D02*
D03*
Y3563D02*
D03*
X236Y7815D02*
D03*
Y7224D02*
D03*
D28*
X886Y6368D02*
D03*
X1260D02*
D03*
X1634D02*
D03*
Y7333D02*
D03*
X886D02*
D03*
X2224Y4577D02*
D03*
X1850D02*
D03*
X1476D02*
D03*
Y3612D02*
D03*
X2224D02*
D03*
D29*
X1024Y5866D02*
D03*
X1339D02*
D03*
X-591Y4291D02*
D03*
X-276D02*
D03*
X-2283Y3445D02*
D03*
X-1969D02*
D03*
X394Y15394D02*
D03*
X709D02*
D03*
X-79D02*
D03*
X-394D02*
D03*
X2618Y8602D02*
D03*
X2303D02*
D03*
D30*
X79Y5433D02*
D03*
D31*
X463Y4882D02*
D03*
X207D02*
D03*
X-49D02*
D03*
X-305D02*
D03*
Y5984D02*
D03*
X-49D02*
D03*
X207D02*
D03*
X463D02*
D03*
D32*
X-2628Y4705D02*
D03*
Y4331D02*
D03*
Y3957D02*
D03*
X-1624D02*
D03*
Y4331D02*
D03*
Y4705D02*
D03*
D33*
X-1181Y4016D02*
D03*
Y4331D02*
D03*
X1024Y5197D02*
D03*
Y4882D02*
D03*
X-1181Y14705D02*
D03*
Y14390D02*
D03*
D34*
X-787Y9094D02*
D03*
X1280D02*
D03*
X689D02*
D03*
X984D02*
D03*
X-492D02*
D03*
X98D02*
D03*
X-197D02*
D03*
X394D02*
D03*
X-1083Y12953D02*
D03*
X-1673D02*
D03*
X-1378D02*
D03*
X-1968D02*
D03*
X394D02*
D03*
X-197D02*
D03*
X98D02*
D03*
X-787D02*
D03*
X-492D02*
D03*
X984D02*
D03*
X689D02*
D03*
X1575D02*
D03*
X1280D02*
D03*
X1870D02*
D03*
X2165D02*
D03*
X2461D02*
D03*
D35*
X2638Y11614D02*
D03*
Y11319D02*
D03*
Y9547D02*
D03*
Y9843D02*
D03*
Y10138D02*
D03*
Y10433D02*
D03*
Y10728D02*
D03*
Y11024D02*
D03*
D36*
X-98Y3051D02*
D03*
Y3799D02*
D03*
X-1043Y3425D02*
D03*
D37*
X-1811Y1970D02*
G03*
X-1811Y1970I-177J0D01*
G01*
X-2165D02*
G03*
X-2165Y1970I-177J0D01*
G01*
X-1900Y1969D02*
X-1722D01*
X-1944Y1880D02*
X-1900Y1969D01*
X-1988Y2057D02*
X-1944Y1880D01*
X-2032D02*
X-1988Y2057D01*
X-2077Y1969D02*
X-2032Y1880D01*
X-2165Y1969D02*
X-2077D01*
X-2047Y965D02*
X-1929Y846D01*
X-2402D02*
X-2283Y965D01*
X-2165Y1083D02*
Y1201D01*
X-2608Y1969D02*
X-2387D01*
X-2298D02*
X-2165D01*
Y1378D02*
Y2559D01*
X-2283Y965D02*
X-2224D01*
X-2298Y1880D02*
Y2057D01*
X-2387Y1880D02*
Y2057D01*
X-2106Y965D02*
X-2047D01*
X-2402Y846D02*
X-1929D01*
D63*
X2348Y4628D02*
D03*
X-1812Y2698D02*
D03*
D64*
X2461Y13592D02*
G03*
X2415Y13701I-155J0D01*
G01*
X2104Y5017D02*
G03*
X2146Y5118I-101J101D01*
G01*
X1969Y4882D02*
G03*
X1850Y4597I285J-285D01*
G01*
X-709Y9646D02*
G03*
X-787Y9456I190J-190D01*
G01*
X-1968Y13314D02*
G03*
X-2047Y13504I-269J0D01*
G01*
X2303Y8904D02*
G03*
X2224Y9094I-269J0D01*
G01*
X2406Y9843D02*
G03*
X2146Y9582I0J-261D01*
G01*
Y9285D02*
G03*
X2224Y9094I269J0D01*
G01*
Y8346D02*
G03*
X2165Y8204I143J-143D01*
G01*
X1506Y4823D02*
G03*
X1476Y4752I71J-71D01*
G01*
X-236Y15866D02*
G03*
X0Y16436I-570J570D01*
G01*
X886Y7333D02*
G03*
X965Y7523I-190J190D01*
G01*
X2835Y5170D02*
G03*
X2579Y5787I-874J0D01*
G01*
X2527Y4348D02*
G03*
X2835Y5090I-742J742D01*
G01*
X1820Y4055D02*
G03*
X2527Y4348I0J1000D01*
G01*
X1476Y3680D02*
G03*
X1403Y4055I-1000J0D01*
G01*
X1024Y4773D02*
G03*
X1183Y4387I546J0D01*
G01*
X1403Y4055D02*
G03*
X1183Y4387I-927J-375D01*
G01*
X1506Y4823D02*
G03*
X1555Y4942I-119J119D01*
G01*
X2224Y8346D02*
G03*
X2303Y8537I-190J190D01*
G01*
X2461Y12953D02*
Y13592D01*
X2104Y5017D02*
X2104Y5017D01*
X1969Y4882D02*
X2104Y5017D01*
X1850Y4577D02*
Y4597D01*
X-276Y15866D02*
X-242Y15900D01*
X-787Y9094D02*
Y9456D01*
X-1968Y12953D02*
Y13314D01*
X2406Y9843D02*
X2638D01*
X2303Y8602D02*
Y8904D01*
X2146Y9285D02*
Y9582D01*
X2165Y8012D02*
Y8204D01*
X1476Y4577D02*
Y4752D01*
X0Y16436D02*
Y16890D01*
X-1457D02*
X-1000D01*
X965Y7523D02*
Y7835D01*
X2835Y5090D02*
Y5170D01*
X2527Y4348D02*
X2527Y4348D01*
X1403Y4055D02*
X1820D01*
X1476Y3612D02*
Y3680D01*
X1398Y4055D02*
X1403D01*
X1024Y4773D02*
Y4882D01*
X2146Y5118D02*
X2480D01*
X1555D02*
Y5453D01*
Y4942D02*
Y5118D01*
X2303Y8537D02*
Y8602D01*
X1555Y7835D02*
Y8209D01*
X965Y7835D02*
Y8209D01*
X630Y6368D02*
X886D01*
D65*
X2638Y9547D02*
G03*
X2618Y9528I0J-20D01*
G01*
Y8602D02*
Y9528D01*
D66*
X2104Y5017D02*
D03*
D67*
X-177Y14134D02*
D03*
D68*
X-392Y7224D02*
G03*
X-630Y7126I0J-336D01*
G01*
Y7913D02*
G03*
X-392Y7815I238J238D01*
G01*
X1555Y3533D02*
G03*
X1476Y3612I-79J0D01*
G01*
X1555Y3051D02*
G03*
X1043Y2539I0J-512D01*
G01*
Y2953D02*
G03*
X945Y3051I-98J0D01*
G01*
X-392Y7224D02*
X236D01*
X-1043Y1181D02*
Y2559D01*
Y3425D01*
X-512Y3799D02*
X-98D01*
X-392Y7815D02*
X236D01*
X1555Y3051D02*
Y3533D01*
X1043Y2539D02*
Y2953D01*
Y787D02*
Y2539D01*
X2146Y2638D02*
Y3051D01*
X453Y3563D02*
X866D01*
X-98Y3051D02*
X591D01*
D69*
X-1949Y5030D02*
G03*
X-1624Y4705I325J0D01*
G01*
X207Y5984D02*
G03*
X102Y6236I-356J0D01*
G01*
X236Y6531D02*
G03*
X316Y6337I274J0D01*
G01*
X463Y5984D02*
G03*
X316Y6337I-499J0D01*
G01*
X-1949Y5030D02*
Y5315D01*
X394Y9094D02*
Y9636D01*
X39Y6299D02*
X102Y6236D01*
X236Y6531D02*
Y6575D01*
X984Y9094D02*
Y9636D01*
X689Y9094D02*
Y9636D01*
X463Y4882D02*
X1024D01*
X-1624Y4331D02*
X-1181D01*
X2224Y3612D02*
X2756D01*
D70*
X-2165Y14232D02*
D03*
Y15232D02*
D03*
D71*
Y16232D02*
D03*
D72*
X-630Y7913D02*
D03*
D73*
Y7126D02*
D03*
D74*
X157Y14114D02*
D03*
X-157Y14508D02*
D03*
X157D02*
D03*
X-157Y14114D02*
D03*
X0Y14311D02*
D03*
D75*
X2264Y10138D02*
D03*
X2756Y15059D02*
D03*
Y14075D02*
D03*
X2264Y11024D02*
D03*
X1945Y13803D02*
D03*
X2756Y14567D02*
D03*
X-1378Y13494D02*
D03*
X-635Y15102D02*
D03*
X1280Y13494D02*
D03*
X2165Y13504D02*
D03*
X-1673D02*
D03*
D76*
X2463Y15392D02*
D03*
X-1693Y5315D02*
D03*
X-906Y5000D02*
D03*
X-118Y4154D02*
D03*
Y4567D02*
D03*
X512Y4244D02*
D03*
X391Y3977D02*
D03*
X221Y4291D02*
D03*
Y4567D02*
D03*
X630Y14961D02*
D03*
X-827Y14705D02*
D03*
X-1181Y14134D02*
D03*
X965Y15394D02*
D03*
X-650D02*
D03*
X2480Y4760D02*
D03*
X1969Y6260D02*
D03*
X1969Y6732D02*
D03*
X236Y6575D02*
D03*
X39Y6299D02*
D03*
X-1969Y4331D02*
D03*
X1969Y7205D02*
D03*
X2756Y7756D02*
D03*
X1594Y5866D02*
D03*
X-118Y5630D02*
D03*
Y5236D02*
D03*
X276Y5630D02*
D03*
Y5236D02*
D03*
X79Y5433D02*
D03*
X-2283Y4331D02*
D03*
X2835Y6260D02*
D03*
X2874Y8602D02*
D03*
X1024Y5453D02*
D03*
X2756Y4222D02*
D03*
X-846Y4291D02*
D03*
X-1181Y3760D02*
D03*
X-1535Y2835D02*
D03*
D77*
X2415Y13701D02*
D03*
X-1457Y17331D02*
D03*
X236Y15866D02*
D03*
X-1457Y16417D02*
D03*
X-236Y15866D02*
D03*
X-2047Y13504D02*
D03*
X-1457Y16890D02*
D03*
X-709Y9646D02*
D03*
X2224Y9094D02*
D03*
X2480Y5118D02*
D03*
X1555Y5453D02*
D03*
Y8209D02*
D03*
X965D02*
D03*
X630Y6368D02*
D03*
D78*
X-512Y3799D02*
D03*
X2146Y2638D02*
D03*
X453Y3563D02*
D03*
D79*
X-736Y15866D02*
D03*
X394Y9636D02*
D03*
X984D02*
D03*
X689D02*
D03*
M02*
