G04*
G04 #@! TF.GenerationSoftware,Altium Limited,Altium Designer,18.1.6 (161)*
G04*
G04 Layer_Physical_Order=2*
G04 Layer_Color=36540*
%FSLAX24Y24*%
%MOIN*%
G70*
G01*
G75*
%ADD67C,0.0492*%
%ADD74C,0.0140*%
%ADD75C,0.0098*%
%ADD76C,0.0180*%
%ADD77C,0.0079*%
G36*
X3150Y0D02*
X-3150D01*
X-3150Y7536D01*
X-955D01*
X-916Y7544D01*
X-883Y7566D01*
X-882Y7567D01*
X-284D01*
Y8259D01*
X-853D01*
Y12631D01*
X-853Y12631D01*
Y12638D01*
X-861Y12677D01*
X-883Y12710D01*
X-916Y12732D01*
X-955Y12740D01*
X-2894Y12740D01*
X-2898Y12739D01*
X-3149Y12740D01*
X-3150Y12787D01*
X-3150Y17717D01*
X3150D01*
X3150Y0D01*
D02*
G37*
%LPC*%
G36*
X-1457Y17504D02*
X-1523Y17491D01*
X-1579Y17453D01*
X-1617Y17397D01*
X-1630Y17331D01*
X-1617Y17264D01*
X-1579Y17208D01*
X-1523Y17171D01*
X-1457Y17157D01*
X-1390Y17171D01*
X-1334Y17208D01*
X-1297Y17264D01*
X-1283Y17331D01*
X-1297Y17397D01*
X-1334Y17453D01*
X-1390Y17491D01*
X-1457Y17504D01*
D02*
G37*
G36*
Y17063D02*
X-1523Y17050D01*
X-1579Y17012D01*
X-1617Y16956D01*
X-1630Y16890D01*
X-1617Y16823D01*
X-1579Y16767D01*
X-1523Y16730D01*
X-1457Y16716D01*
X-1390Y16730D01*
X-1334Y16767D01*
X-1297Y16823D01*
X-1283Y16890D01*
X-1297Y16956D01*
X-1334Y17012D01*
X-1390Y17050D01*
X-1457Y17063D01*
D02*
G37*
G36*
Y16591D02*
X-1523Y16577D01*
X-1579Y16540D01*
X-1617Y16484D01*
X-1630Y16417D01*
X-1617Y16351D01*
X-1579Y16295D01*
X-1523Y16257D01*
X-1457Y16244D01*
X-1390Y16257D01*
X-1334Y16295D01*
X-1297Y16351D01*
X-1283Y16417D01*
X-1297Y16484D01*
X-1334Y16540D01*
X-1390Y16577D01*
X-1457Y16591D01*
D02*
G37*
G36*
X-1829Y16569D02*
X-2502D01*
Y15896D01*
X-1829D01*
Y16569D01*
D02*
G37*
G36*
X-736Y16029D02*
X-799Y16017D01*
X-852Y15982D01*
X-887Y15929D01*
X-899Y15866D01*
X-887Y15804D01*
X-852Y15751D01*
X-799Y15715D01*
X-736Y15703D01*
X-674Y15715D01*
X-621Y15751D01*
X-586Y15804D01*
X-573Y15866D01*
X-586Y15929D01*
X-621Y15982D01*
X-674Y16017D01*
X-736Y16029D01*
D02*
G37*
G36*
X-635Y15255D02*
X-693Y15243D01*
X-743Y15210D01*
X-776Y15160D01*
X-788Y15102D01*
X-776Y15043D01*
X-743Y14994D01*
X-693Y14961D01*
X-635Y14949D01*
X-576Y14961D01*
X-527Y14994D01*
X-494Y15043D01*
X-482Y15102D01*
X-494Y15160D01*
X-527Y15210D01*
X-576Y15243D01*
X-635Y15255D01*
D02*
G37*
G36*
X-2165Y15571D02*
X-2253Y15560D01*
X-2335Y15526D01*
X-2405Y15472D01*
X-2459Y15402D01*
X-2493Y15320D01*
X-2504Y15232D01*
X-2493Y15145D01*
X-2459Y15063D01*
X-2405Y14992D01*
X-2335Y14939D01*
X-2253Y14905D01*
X-2165Y14893D01*
X-2078Y14905D01*
X-1996Y14939D01*
X-1926Y14992D01*
X-1872Y15063D01*
X-1838Y15145D01*
X-1826Y15232D01*
X-1838Y15320D01*
X-1872Y15402D01*
X-1926Y15472D01*
X-1996Y15526D01*
X-2078Y15560D01*
X-2165Y15571D01*
D02*
G37*
G36*
X630Y15113D02*
X572Y15101D01*
X522Y15068D01*
X489Y15019D01*
X478Y14961D01*
X489Y14902D01*
X522Y14853D01*
X572Y14820D01*
X630Y14808D01*
X688Y14820D01*
X737Y14853D01*
X770Y14902D01*
X782Y14961D01*
X770Y15019D01*
X737Y15068D01*
X688Y15101D01*
X630Y15113D01*
D02*
G37*
G36*
X-827Y14857D02*
X-885Y14845D01*
X-934Y14812D01*
X-967Y14763D01*
X-979Y14705D01*
X-967Y14647D01*
X-934Y14597D01*
X-885Y14564D01*
X-827Y14553D01*
X-769Y14564D01*
X-719Y14597D01*
X-686Y14647D01*
X-675Y14705D01*
X-686Y14763D01*
X-719Y14812D01*
X-769Y14845D01*
X-827Y14857D01*
D02*
G37*
G36*
X-2165Y14571D02*
X-2253Y14560D01*
X-2335Y14526D01*
X-2405Y14472D01*
X-2459Y14402D01*
X-2493Y14320D01*
X-2504Y14232D01*
X-2493Y14145D01*
X-2459Y14063D01*
X-2405Y13992D01*
X-2335Y13939D01*
X-2253Y13905D01*
X-2165Y13893D01*
X-2078Y13905D01*
X-1996Y13939D01*
X-1926Y13992D01*
X-1872Y14063D01*
X-1838Y14145D01*
X-1826Y14232D01*
X-1838Y14320D01*
X-1872Y14402D01*
X-1926Y14472D01*
X-1996Y14526D01*
X-2078Y14560D01*
X-2165Y14571D01*
D02*
G37*
G36*
X2165Y13657D02*
X2107Y13645D01*
X2057Y13612D01*
X2024Y13562D01*
X2012Y13504D01*
X2024Y13445D01*
X2057Y13396D01*
X2107Y13363D01*
X2165Y13351D01*
X2224Y13363D01*
X2274Y13396D01*
X2307Y13445D01*
X2318Y13504D01*
X2307Y13562D01*
X2274Y13612D01*
X2224Y13645D01*
X2165Y13657D01*
D02*
G37*
G36*
X1280Y13647D02*
X1221Y13636D01*
X1171Y13603D01*
X1138Y13553D01*
X1127Y13494D01*
X1138Y13436D01*
X1171Y13386D01*
X1221Y13353D01*
X1280Y13341D01*
X1338Y13353D01*
X1388Y13386D01*
X1421Y13436D01*
X1432Y13494D01*
X1421Y13553D01*
X1388Y13603D01*
X1338Y13636D01*
X1280Y13647D01*
D02*
G37*
G36*
X-1673Y13657D02*
X-1732Y13645D01*
X-1781Y13612D01*
X-1815Y13562D01*
X-1826Y13504D01*
X-1815Y13445D01*
X-1781Y13396D01*
X-1732Y13363D01*
X-1673Y13351D01*
X-1615Y13363D01*
X-1565Y13396D01*
X-1559Y13405D01*
X-1499D01*
X-1486Y13386D01*
X-1436Y13353D01*
X-1378Y13341D01*
X-1319Y13353D01*
X-1270Y13386D01*
X-1237Y13436D01*
X-1225Y13494D01*
X-1237Y13553D01*
X-1270Y13603D01*
X-1319Y13636D01*
X-1378Y13647D01*
X-1436Y13636D01*
X-1486Y13603D01*
X-1492Y13593D01*
X-1552D01*
X-1565Y13612D01*
X-1615Y13645D01*
X-1673Y13657D01*
D02*
G37*
G36*
X984Y9794D02*
X924Y9782D01*
X873Y9748D01*
X867Y9739D01*
X807D01*
X801Y9748D01*
X749Y9782D01*
X689Y9794D01*
X629Y9782D01*
X577Y9748D01*
X571Y9739D01*
X511D01*
X505Y9748D01*
X454Y9782D01*
X394Y9794D01*
X333Y9782D01*
X282Y9748D01*
X248Y9697D01*
X236Y9636D01*
X248Y9576D01*
X282Y9524D01*
X333Y9490D01*
X394Y9478D01*
X454Y9490D01*
X505Y9524D01*
X511Y9533D01*
X571D01*
X577Y9524D01*
X629Y9490D01*
X689Y9478D01*
X749Y9490D01*
X801Y9524D01*
X807Y9533D01*
X867D01*
X873Y9524D01*
X924Y9490D01*
X984Y9478D01*
X1045Y9490D01*
X1096Y9524D01*
X1130Y9576D01*
X1142Y9636D01*
X1130Y9697D01*
X1096Y9748D01*
X1045Y9782D01*
X984Y9794D01*
D02*
G37*
G36*
X2224Y9268D02*
X2158Y9255D01*
X2102Y9217D01*
X2064Y9161D01*
X2051Y9094D01*
X2064Y9028D01*
X2102Y8972D01*
X2158Y8934D01*
X2224Y8921D01*
X2291Y8934D01*
X2347Y8972D01*
X2385Y9028D01*
X2398Y9094D01*
X2385Y9161D01*
X2347Y9217D01*
X2291Y9255D01*
X2224Y9268D01*
D02*
G37*
G36*
X965Y8382D02*
X898Y8369D01*
X842Y8331D01*
X804Y8275D01*
X791Y8209D01*
X804Y8142D01*
X842Y8086D01*
X898Y8049D01*
X965Y8035D01*
X1031Y8049D01*
X1087Y8086D01*
X1125Y8142D01*
X1138Y8209D01*
X1125Y8275D01*
X1087Y8331D01*
X1031Y8369D01*
X965Y8382D01*
D02*
G37*
G36*
X1969Y6884D02*
X1910Y6873D01*
X1861Y6840D01*
X1828Y6791D01*
X1816Y6732D01*
X1828Y6674D01*
X1861Y6625D01*
X1910Y6592D01*
X1969Y6580D01*
X2027Y6592D01*
X2076Y6625D01*
X2109Y6674D01*
X2121Y6732D01*
X2109Y6791D01*
X2076Y6840D01*
X2027Y6873D01*
X1969Y6884D01*
D02*
G37*
G36*
X236Y6727D02*
X178Y6715D01*
X129Y6682D01*
X96Y6633D01*
X84Y6575D01*
X96Y6517D01*
X118Y6483D01*
X114Y6474D01*
X85Y6442D01*
X39Y6451D01*
X-19Y6440D01*
X-68Y6407D01*
X-101Y6357D01*
X-113Y6299D01*
X-101Y6241D01*
X-68Y6192D01*
X-19Y6159D01*
X39Y6147D01*
X98Y6159D01*
X147Y6192D01*
X180Y6241D01*
X192Y6299D01*
X180Y6357D01*
X157Y6391D01*
X161Y6400D01*
X190Y6432D01*
X236Y6423D01*
X294Y6434D01*
X344Y6467D01*
X377Y6517D01*
X388Y6575D01*
X377Y6633D01*
X344Y6682D01*
X294Y6715D01*
X236Y6727D01*
D02*
G37*
G36*
X630Y6541D02*
X564Y6528D01*
X507Y6491D01*
X470Y6434D01*
X457Y6368D01*
X470Y6302D01*
X507Y6246D01*
X564Y6208D01*
X630Y6195D01*
X696Y6208D01*
X752Y6246D01*
X790Y6302D01*
X803Y6368D01*
X790Y6434D01*
X752Y6491D01*
X696Y6528D01*
X630Y6541D01*
D02*
G37*
G36*
X1969Y6412D02*
X1910Y6400D01*
X1861Y6367D01*
X1828Y6318D01*
X1816Y6260D01*
X1828Y6202D01*
X1861Y6152D01*
X1910Y6119D01*
X1969Y6108D01*
X2027Y6119D01*
X2076Y6152D01*
X2109Y6202D01*
X2121Y6260D01*
X2109Y6318D01*
X2076Y6367D01*
X2027Y6400D01*
X1969Y6412D01*
D02*
G37*
G36*
X1555Y5626D02*
X1489Y5613D01*
X1433Y5575D01*
X1395Y5519D01*
X1382Y5453D01*
X1395Y5386D01*
X1433Y5330D01*
X1489Y5293D01*
X1555Y5279D01*
X1621Y5293D01*
X1678Y5330D01*
X1715Y5386D01*
X1728Y5453D01*
X1715Y5519D01*
X1678Y5575D01*
X1621Y5613D01*
X1555Y5626D01*
D02*
G37*
G36*
X2480Y4912D02*
X2422Y4901D01*
X2373Y4868D01*
X2340Y4818D01*
X2328Y4760D01*
X2340Y4702D01*
X2373Y4652D01*
X2422Y4620D01*
X2480Y4608D01*
X2539Y4620D01*
X2588Y4652D01*
X2621Y4702D01*
X2632Y4760D01*
X2621Y4818D01*
X2588Y4868D01*
X2539Y4901D01*
X2480Y4912D01*
D02*
G37*
G36*
X221Y4719D02*
X163Y4707D01*
X114Y4674D01*
X81Y4625D01*
X77Y4606D01*
X26D01*
X22Y4625D01*
X-11Y4674D01*
X-60Y4707D01*
X-118Y4719D01*
X-176Y4707D01*
X-226Y4674D01*
X-259Y4625D01*
X-270Y4567D01*
X-259Y4509D01*
X-226Y4459D01*
X-176Y4426D01*
X-118Y4415D01*
X-60Y4426D01*
X-11Y4459D01*
X22Y4509D01*
X26Y4528D01*
X77D01*
X81Y4509D01*
X114Y4459D01*
X122Y4454D01*
Y4404D01*
X114Y4399D01*
X81Y4350D01*
X69Y4291D01*
X81Y4233D01*
X114Y4184D01*
X163Y4151D01*
X221Y4139D01*
X280Y4151D01*
X322Y4179D01*
X324Y4179D01*
X334Y4169D01*
X334Y4153D01*
X322Y4111D01*
X284Y4085D01*
X251Y4036D01*
X239Y3977D01*
X251Y3919D01*
X284Y3870D01*
X333Y3837D01*
X391Y3825D01*
X450Y3837D01*
X499Y3870D01*
X532Y3919D01*
X543Y3977D01*
X532Y4036D01*
X526Y4044D01*
X549Y4100D01*
X570Y4104D01*
X619Y4137D01*
X652Y4186D01*
X664Y4244D01*
X652Y4303D01*
X619Y4352D01*
X570Y4385D01*
X512Y4397D01*
X454Y4385D01*
X412Y4357D01*
X394Y4354D01*
X352Y4364D01*
X329Y4399D01*
X321Y4404D01*
Y4454D01*
X329Y4459D01*
X362Y4509D01*
X374Y4567D01*
X362Y4625D01*
X329Y4674D01*
X280Y4707D01*
X221Y4719D01*
D02*
G37*
G36*
X-1969Y4483D02*
X-2027Y4471D01*
X-2076Y4438D01*
X-2109Y4389D01*
X-2121Y4331D01*
X-2109Y4272D01*
X-2076Y4223D01*
X-2027Y4190D01*
X-1969Y4179D01*
X-1910Y4190D01*
X-1861Y4223D01*
X-1828Y4272D01*
X-1816Y4331D01*
X-1828Y4389D01*
X-1861Y4438D01*
X-1910Y4471D01*
X-1969Y4483D01*
D02*
G37*
G36*
X-118Y4306D02*
X-176Y4294D01*
X-226Y4261D01*
X-259Y4212D01*
X-270Y4154D01*
X-259Y4095D01*
X-226Y4046D01*
X-176Y4013D01*
X-118Y4001D01*
X-60Y4013D01*
X-11Y4046D01*
X22Y4095D01*
X34Y4154D01*
X22Y4212D01*
X-11Y4261D01*
X-60Y4294D01*
X-118Y4306D01*
D02*
G37*
%LPD*%
D67*
X-630Y7126D02*
D03*
D74*
X236Y15866D02*
D03*
X-236D02*
D03*
X2539Y13504D02*
D03*
X-2047D02*
D03*
X-709Y9646D02*
D03*
X2480Y5118D02*
D03*
X1555Y8209D02*
D03*
D75*
X-1181Y14134D02*
D03*
X965Y15394D02*
D03*
X-650D02*
D03*
X1969Y7205D02*
D03*
X2756Y7756D02*
D03*
X1594Y5866D02*
D03*
X-118Y5630D02*
D03*
Y5236D02*
D03*
X276Y5630D02*
D03*
Y5236D02*
D03*
X79Y5433D02*
D03*
X-2283Y4331D02*
D03*
X2835Y6260D02*
D03*
X2874Y8602D02*
D03*
X1024Y5453D02*
D03*
X2756Y4222D02*
D03*
X-846Y4291D02*
D03*
X-1181Y5276D02*
D03*
X-1693Y5709D02*
D03*
X-906Y5256D02*
D03*
X-1181Y3760D02*
D03*
X-1535Y2835D02*
D03*
D76*
X2146Y2638D02*
D03*
X453Y3563D02*
D03*
X-433Y3799D02*
D03*
D77*
X157Y14114D02*
D03*
X-157Y14508D02*
D03*
X157D02*
D03*
X-157Y14114D02*
D03*
X0Y14311D02*
D03*
M02*
