G04*
G04 #@! TF.GenerationSoftware,Altium Limited,Altium Designer,18.1.6 (161)*
G04*
G04 Layer_Physical_Order=3*
G04 Layer_Color=16440176*
%FSLAX24Y24*%
%MOIN*%
G70*
G01*
G75*
%ADD58C,0.0200*%
%ADD66R,0.0492X0.0492*%
%ADD70C,0.0260*%
%ADD71C,0.0197*%
%ADD74C,0.0140*%
%ADD75C,0.0098*%
%ADD78C,0.0300*%
G36*
X-236Y17145D02*
X-1457D01*
X-1554Y17125D01*
X-1637Y17070D01*
X-1692Y16987D01*
X-1712Y16890D01*
X-1692Y16792D01*
X-1637Y16710D01*
X-1554Y16654D01*
X-1457Y16635D01*
X-236D01*
Y16039D01*
X-303Y16026D01*
X-359Y15989D01*
X-396Y15932D01*
X-410Y15866D01*
X-396Y15800D01*
X-359Y15744D01*
X-303Y15706D01*
X-236Y15693D01*
Y15023D01*
X-452D01*
X-488Y15073D01*
X-482Y15102D01*
X-494Y15160D01*
X-527Y15210D01*
X-546Y15223D01*
X-546Y15283D01*
X-542Y15286D01*
X-509Y15335D01*
X-497Y15394D01*
X-509Y15452D01*
X-542Y15501D01*
X-591Y15534D01*
X-650Y15546D01*
X-708Y15534D01*
X-757Y15501D01*
X-790Y15452D01*
X-802Y15394D01*
X-790Y15335D01*
X-757Y15286D01*
X-738Y15273D01*
Y15213D01*
X-743Y15210D01*
X-776Y15160D01*
X-788Y15102D01*
X-780Y15063D01*
X-790Y15028D01*
X-810Y15004D01*
X-871Y14979D01*
X-937Y14929D01*
X-987Y14863D01*
X-1019Y14787D01*
X-1029Y14705D01*
X-1031D01*
X-1015Y14627D01*
X-971Y14561D01*
X-905Y14516D01*
X-827Y14501D01*
X-749Y14516D01*
X-683Y14561D01*
X-646Y14615D01*
X-314D01*
X-287Y14565D01*
X-289Y14562D01*
X-300Y14508D01*
X-289Y14454D01*
X-258Y14407D01*
X-212Y14377D01*
X-157Y14366D01*
X-141Y14318D01*
X-142Y14311D01*
X-141Y14304D01*
X-157Y14256D01*
X-212Y14245D01*
X-258Y14215D01*
X-289Y14169D01*
X-300Y14114D01*
X-289Y14060D01*
X-258Y14014D01*
X-212Y13983D01*
X-157Y13972D01*
X-103Y13983D01*
X-57Y14014D01*
X-26Y14060D01*
X-25Y14063D01*
X25D01*
X26Y14060D01*
X57Y14014D01*
X103Y13983D01*
X157Y13972D01*
X212Y13983D01*
X258Y14014D01*
X289Y14060D01*
X300Y14114D01*
X289Y14169D01*
X258Y14215D01*
X212Y14245D01*
X157Y14256D01*
X141Y14304D01*
X142Y14311D01*
X141Y14318D01*
X157Y14366D01*
X212Y14377D01*
X258Y14407D01*
X289Y14454D01*
X300Y14508D01*
X298Y14517D01*
X339Y14567D01*
X1533Y14567D01*
X1533Y9019D01*
X1520D01*
X1510Y9017D01*
X1362Y9002D01*
X1210Y8956D01*
X1070Y8881D01*
X948Y8781D01*
X847Y8658D01*
X772Y8518D01*
X726Y8367D01*
X711Y8209D01*
X710D01*
X729Y8111D01*
X784Y8028D01*
X867Y7973D01*
X965Y7954D01*
X1062Y7973D01*
X1145Y8028D01*
X1200Y8111D01*
X1219Y8209D01*
X1219D01*
X1217Y8211D01*
X1227Y8287D01*
X1258Y8360D01*
X1306Y8423D01*
X1368Y8471D01*
X1441Y8501D01*
X1483Y8507D01*
X1533Y8469D01*
Y8378D01*
X1489Y8369D01*
X1433Y8331D01*
X1395Y8275D01*
X1382Y8209D01*
X1395Y8142D01*
X1433Y8086D01*
X1489Y8049D01*
X1555Y8035D01*
X1621Y8049D01*
X1655Y8071D01*
X2146Y8071D01*
Y7298D01*
X2096Y7283D01*
X2076Y7312D01*
X2027Y7345D01*
X1969Y7357D01*
X1910Y7345D01*
X1861Y7312D01*
X1828Y7263D01*
X1816Y7205D01*
X1828Y7146D01*
X1861Y7097D01*
X1910Y7064D01*
X1969Y7053D01*
X2027Y7064D01*
X2076Y7097D01*
X2096Y7126D01*
X2146Y7111D01*
Y6890D01*
X1280Y6890D01*
Y3248D01*
X-98D01*
Y4005D01*
X-60Y4013D01*
X-11Y4046D01*
X22Y4095D01*
X34Y4154D01*
X22Y4212D01*
X-11Y4261D01*
X-60Y4294D01*
X-98Y4302D01*
Y4419D01*
X-60Y4426D01*
X-11Y4459D01*
X22Y4509D01*
X34Y4567D01*
X22Y4625D01*
X-11Y4674D01*
X-60Y4707D01*
X-98Y4715D01*
Y5088D01*
X-60Y5096D01*
X-11Y5129D01*
X22Y5178D01*
X34Y5236D01*
X32Y5248D01*
X67Y5283D01*
X79Y5281D01*
X90Y5283D01*
X126Y5248D01*
X123Y5236D01*
X135Y5178D01*
X168Y5129D01*
X217Y5096D01*
X276Y5084D01*
X334Y5096D01*
X383Y5129D01*
X416Y5178D01*
X428Y5236D01*
X416Y5294D01*
X383Y5344D01*
X334Y5377D01*
X276Y5388D01*
X264Y5386D01*
X229Y5421D01*
X231Y5433D01*
X229Y5445D01*
X264Y5480D01*
X276Y5478D01*
X334Y5489D01*
X383Y5522D01*
X416Y5572D01*
X428Y5630D01*
X416Y5688D01*
X383Y5738D01*
X334Y5770D01*
X276Y5782D01*
X217Y5770D01*
X168Y5738D01*
X135Y5688D01*
X123Y5630D01*
X126Y5618D01*
X90Y5583D01*
X79Y5585D01*
X67Y5583D01*
X32Y5618D01*
X34Y5630D01*
X22Y5688D01*
X-11Y5738D01*
X-60Y5770D01*
X-98Y5778D01*
Y6154D01*
X-48Y6178D01*
X-19Y6159D01*
X39Y6147D01*
X98Y6159D01*
X147Y6192D01*
X180Y6241D01*
X192Y6299D01*
X180Y6357D01*
X157Y6391D01*
X161Y6400D01*
X190Y6432D01*
X236Y6423D01*
X294Y6434D01*
X344Y6467D01*
X377Y6517D01*
X388Y6575D01*
X377Y6633D01*
X344Y6682D01*
X294Y6715D01*
X236Y6727D01*
X178Y6715D01*
X129Y6682D01*
X96Y6633D01*
X84Y6575D01*
X96Y6517D01*
X118Y6483D01*
X114Y6474D01*
X85Y6442D01*
X39Y6451D01*
X-19Y6440D01*
X-48Y6420D01*
X-98Y6445D01*
Y8268D01*
X-853D01*
Y9477D01*
X-803Y9504D01*
X-775Y9486D01*
X-709Y9472D01*
X-642Y9486D01*
X-586Y9523D01*
X-549Y9579D01*
X-535Y9646D01*
X-549Y9712D01*
X-586Y9768D01*
X-642Y9806D01*
X-709Y9819D01*
X-775Y9806D01*
X-803Y9787D01*
X-853Y9814D01*
Y12631D01*
X-853Y12631D01*
Y12638D01*
X-861Y12677D01*
X-883Y12710D01*
X-916Y12732D01*
X-955Y12740D01*
X-2894Y12740D01*
X-2898Y12739D01*
X-3149Y12740D01*
X-3150Y12787D01*
Y17717D01*
X-236D01*
Y17145D01*
D02*
G37*
G36*
X3150Y0D02*
X-3149D01*
Y7536D01*
X-1874D01*
Y5891D01*
X-1872Y5883D01*
X-1872Y5875D01*
X-1868Y5864D01*
X-1866Y5852D01*
X-1861Y5845D01*
X-1858Y5837D01*
X-1850Y5829D01*
X-1844Y5819D01*
X-1837Y5814D01*
X-1831Y5808D01*
X-1814Y5796D01*
X-1833Y5767D01*
X-1845Y5709D01*
X-1833Y5650D01*
X-1814Y5621D01*
X-1831Y5609D01*
X-1837Y5603D01*
X-1844Y5598D01*
X-1850Y5589D01*
X-1858Y5580D01*
X-1861Y5572D01*
X-1866Y5565D01*
X-1868Y5554D01*
X-1872Y5543D01*
X-1872Y5534D01*
X-1874Y5526D01*
Y2165D01*
X-1866Y2126D01*
X-1844Y2093D01*
X-1811Y2071D01*
X-1772Y2063D01*
X2146D01*
X2185Y2071D01*
X2218Y2093D01*
X2240Y2126D01*
X2248Y2165D01*
Y2444D01*
X2246Y2454D01*
Y2464D01*
X2242Y2473D01*
X2242Y2474D01*
X2283Y2501D01*
X2325Y2564D01*
X2339Y2638D01*
X2325Y2712D01*
X2283Y2775D01*
X2242Y2802D01*
X2242Y2802D01*
X2246Y2812D01*
Y2822D01*
X2248Y2832D01*
Y6166D01*
X2247Y6171D01*
X2247Y6176D01*
X2243Y6191D01*
X2240Y6205D01*
X2237Y6210D01*
X2236Y6214D01*
X2226Y6226D01*
X2226Y6226D01*
X2221Y6242D01*
X2219Y6271D01*
X2226Y6294D01*
X2226Y6294D01*
X2236Y6305D01*
X2237Y6310D01*
X2240Y6314D01*
X2243Y6329D01*
X2247Y6343D01*
X2247Y6348D01*
X2248Y6353D01*
Y6788D01*
X2240Y6827D01*
X2232Y6839D01*
X2240Y6851D01*
X2248Y6890D01*
Y7111D01*
X2247Y7116D01*
X2247Y7121D01*
X2243Y7136D01*
X2240Y7150D01*
X2237Y7155D01*
X2236Y7159D01*
X2226Y7171D01*
X2226Y7171D01*
X2221Y7187D01*
X2219Y7215D01*
X2226Y7238D01*
X2226Y7239D01*
X2236Y7250D01*
X2237Y7255D01*
X2240Y7259D01*
X2243Y7274D01*
X2247Y7288D01*
X2247Y7293D01*
X2248Y7298D01*
Y8071D01*
X2240Y8110D01*
X2218Y8143D01*
X2185Y8165D01*
X2146Y8173D01*
X1758Y8173D01*
X1728Y8209D01*
X1715Y8275D01*
X1678Y8331D01*
X1633Y8361D01*
Y8368D01*
X1635Y8378D01*
Y8469D01*
X1633Y8476D01*
X1634Y8483D01*
X1629Y8495D01*
X1627Y8508D01*
X1623Y8514D01*
X1621Y8521D01*
X1612Y8530D01*
X1605Y8541D01*
X1599Y8545D01*
X1594Y8550D01*
X1544Y8588D01*
X1533Y8594D01*
Y8917D01*
X1572Y8925D01*
X1605Y8947D01*
X1627Y8980D01*
X1635Y9019D01*
X1635Y14567D01*
X1627Y14606D01*
X1605Y14639D01*
X1572Y14661D01*
X1533Y14669D01*
X339Y14669D01*
X334Y14668D01*
X329Y14668D01*
X314Y14664D01*
X300Y14661D01*
X296Y14658D01*
X291Y14657D01*
X279Y14647D01*
X267Y14639D01*
X264Y14635D01*
X260Y14632D01*
X247Y14616D01*
X212Y14639D01*
X157Y14650D01*
X103Y14639D01*
X57Y14608D01*
X29Y14567D01*
X-29D01*
X-57Y14608D01*
X-103Y14639D01*
X-157Y14650D01*
X-211Y14639D01*
X-224Y14663D01*
X-233Y14675D01*
X-242Y14687D01*
X-246Y14690D01*
X-249Y14694D01*
X-262Y14701D01*
X-275Y14709D01*
X-280Y14710D01*
X-284Y14713D01*
X-299Y14714D01*
X-314Y14717D01*
X-646D01*
X-656Y14715D01*
X-666D01*
X-675Y14711D01*
X-685Y14709D01*
X-694Y14704D01*
X-703Y14700D01*
X-710Y14693D01*
X-718Y14687D01*
X-724Y14679D01*
X-731Y14672D01*
X-756Y14634D01*
X-789Y14612D01*
X-827Y14605D01*
X-865Y14612D01*
X-897Y14634D01*
X-906Y14646D01*
Y14794D01*
X-898Y14812D01*
X-864Y14856D01*
X-820Y14890D01*
X-771Y14910D01*
X-768Y14912D01*
X-765Y14913D01*
X-752Y14923D01*
X-738Y14932D01*
X-738Y14933D01*
X-707Y14960D01*
X-693Y14961D01*
X-635Y14949D01*
X-576Y14961D01*
X-547Y14980D01*
X-534Y14963D01*
X-528Y14958D01*
X-524Y14951D01*
X-514Y14944D01*
X-505Y14936D01*
X-498Y14933D01*
X-491Y14929D01*
X-479Y14926D01*
X-468Y14922D01*
X-460Y14923D01*
X-452Y14921D01*
X-236D01*
X-197Y14929D01*
X-164Y14951D01*
X-142Y14984D01*
X-134Y15023D01*
Y15693D01*
X-136Y15703D01*
Y15713D01*
X-140Y15722D01*
X-141Y15725D01*
X-114Y15744D01*
X-76Y15800D01*
X-63Y15866D01*
X-76Y15932D01*
X-114Y15989D01*
X-141Y16007D01*
X-140Y16010D01*
X-136Y16020D01*
Y16030D01*
X-134Y16039D01*
Y16635D01*
X-142Y16674D01*
X-164Y16707D01*
X-197Y16729D01*
X-236Y16737D01*
X-906D01*
Y17043D01*
X-236D01*
X-197Y17050D01*
X-164Y17073D01*
X-142Y17106D01*
X-134Y17145D01*
Y17717D01*
X3150D01*
Y0D01*
D02*
G37*
G36*
X-200Y6445D02*
X-197Y6428D01*
X-195Y6412D01*
X-193Y6409D01*
X-193Y6406D01*
X-183Y6392D01*
X-175Y6378D01*
X-172Y6375D01*
X-171Y6373D01*
X-157Y6363D01*
X-144Y6353D01*
X-106Y6335D01*
X-113Y6299D01*
X-106Y6264D01*
X-144Y6245D01*
X-157Y6235D01*
X-171Y6226D01*
X-172Y6223D01*
X-175Y6221D01*
X-183Y6207D01*
X-193Y6193D01*
X-193Y6189D01*
X-195Y6186D01*
X-197Y6170D01*
X-200Y6154D01*
Y5778D01*
X-198Y5768D01*
Y5758D01*
X-198Y5756D01*
X-226Y5738D01*
X-259Y5688D01*
X-270Y5630D01*
X-259Y5572D01*
X-226Y5522D01*
X-176Y5489D01*
X-118Y5478D01*
X-90Y5436D01*
Y5431D01*
X-118Y5388D01*
X-176Y5377D01*
X-226Y5344D01*
X-259Y5294D01*
X-270Y5236D01*
X-259Y5178D01*
X-226Y5129D01*
X-198Y5110D01*
X-198Y5108D01*
Y5098D01*
X-200Y5088D01*
Y4715D01*
X-198Y4705D01*
Y4695D01*
X-195Y4686D01*
X-193Y4676D01*
X-187Y4668D01*
X-183Y4658D01*
X-176Y4651D01*
X-171Y4643D01*
X-162Y4637D01*
X-155Y4630D01*
X-146Y4627D01*
X-137Y4621D01*
X-128Y4619D01*
X-118Y4615D01*
X-100Y4611D01*
X-84Y4601D01*
X-74Y4585D01*
X-70Y4567D01*
X-74Y4548D01*
X-84Y4533D01*
X-100Y4522D01*
X-118Y4519D01*
X-128Y4515D01*
X-137Y4513D01*
X-146Y4507D01*
X-155Y4503D01*
X-162Y4496D01*
X-171Y4491D01*
X-176Y4482D01*
X-183Y4475D01*
X-187Y4466D01*
X-193Y4458D01*
X-195Y4448D01*
X-198Y4439D01*
Y4429D01*
X-200Y4419D01*
Y4302D01*
X-198Y4292D01*
Y4282D01*
X-195Y4273D01*
X-193Y4263D01*
X-187Y4254D01*
X-183Y4245D01*
X-176Y4238D01*
X-171Y4230D01*
X-162Y4224D01*
X-155Y4217D01*
X-146Y4213D01*
X-137Y4208D01*
X-128Y4206D01*
X-118Y4202D01*
X-100Y4198D01*
X-84Y4188D01*
X-74Y4172D01*
X-70Y4154D01*
X-74Y4135D01*
X-84Y4119D01*
X-100Y4109D01*
X-118Y4105D01*
X-128Y4101D01*
X-137Y4100D01*
X-146Y4094D01*
X-155Y4090D01*
X-162Y4083D01*
X-171Y4077D01*
X-176Y4069D01*
X-183Y4062D01*
X-187Y4053D01*
X-193Y4044D01*
X-195Y4034D01*
X-198Y4025D01*
Y4015D01*
X-200Y4005D01*
Y3860D01*
X-250Y3855D01*
X-254Y3873D01*
X-296Y3936D01*
X-359Y3978D01*
X-433Y3993D01*
X-507Y3978D01*
X-570Y3936D01*
X-612Y3873D01*
X-627Y3799D01*
X-612Y3725D01*
X-570Y3662D01*
X-507Y3620D01*
X-433Y3605D01*
X-359Y3620D01*
X-296Y3662D01*
X-254Y3725D01*
X-250Y3744D01*
X-200Y3739D01*
Y3248D01*
X-193Y3209D01*
X-171Y3176D01*
X-137Y3154D01*
X-98Y3146D01*
X1280D01*
X1319Y3154D01*
X1352Y3176D01*
X1374Y3209D01*
X1381Y3248D01*
Y6788D01*
X2146Y6788D01*
Y6353D01*
X2096Y6338D01*
X2076Y6367D01*
X2027Y6400D01*
X1969Y6412D01*
X1910Y6400D01*
X1861Y6367D01*
X1828Y6318D01*
X1816Y6260D01*
X1828Y6202D01*
X1861Y6152D01*
X1910Y6119D01*
X1969Y6108D01*
X2027Y6119D01*
X2076Y6152D01*
X2096Y6182D01*
X2146Y6166D01*
Y2832D01*
X2072Y2817D01*
X2009Y2775D01*
X1967Y2712D01*
X1952Y2638D01*
X1967Y2564D01*
X2009Y2501D01*
X2072Y2459D01*
X2146Y2444D01*
Y2165D01*
X-1772D01*
Y5526D01*
X-1722Y5562D01*
X-1693Y5557D01*
X-1635Y5568D01*
X-1585Y5601D01*
X-1552Y5650D01*
X-1541Y5709D01*
X-1552Y5767D01*
X-1585Y5816D01*
X-1635Y5849D01*
X-1693Y5861D01*
X-1722Y5855D01*
X-1772Y5891D01*
Y7536D01*
X-955D01*
X-916Y7544D01*
X-883Y7566D01*
X-861Y7599D01*
X-853Y7638D01*
Y8166D01*
X-200D01*
Y6445D01*
D02*
G37*
%LPC*%
G36*
X-1829Y16569D02*
X-2502D01*
Y15896D01*
X-1829D01*
Y16569D01*
D02*
G37*
G36*
X-736Y16029D02*
X-799Y16017D01*
X-852Y15982D01*
X-887Y15929D01*
X-899Y15866D01*
X-887Y15804D01*
X-852Y15751D01*
X-799Y15715D01*
X-736Y15703D01*
X-674Y15715D01*
X-621Y15751D01*
X-586Y15804D01*
X-573Y15866D01*
X-586Y15929D01*
X-621Y15982D01*
X-674Y16017D01*
X-736Y16029D01*
D02*
G37*
G36*
X-2165Y15571D02*
X-2253Y15560D01*
X-2335Y15526D01*
X-2405Y15472D01*
X-2459Y15402D01*
X-2493Y15320D01*
X-2504Y15232D01*
X-2493Y15145D01*
X-2459Y15063D01*
X-2405Y14992D01*
X-2335Y14939D01*
X-2253Y14905D01*
X-2165Y14893D01*
X-2078Y14905D01*
X-1996Y14939D01*
X-1926Y14992D01*
X-1872Y15063D01*
X-1838Y15145D01*
X-1826Y15232D01*
X-1838Y15320D01*
X-1872Y15402D01*
X-1926Y15472D01*
X-1996Y15526D01*
X-2078Y15560D01*
X-2165Y15571D01*
D02*
G37*
G36*
X-1181Y14286D02*
X-1239Y14274D01*
X-1289Y14241D01*
X-1322Y14192D01*
X-1333Y14134D01*
X-1322Y14076D01*
X-1289Y14026D01*
X-1239Y13993D01*
X-1181Y13982D01*
X-1123Y13993D01*
X-1074Y14026D01*
X-1041Y14076D01*
X-1029Y14134D01*
X-1041Y14192D01*
X-1074Y14241D01*
X-1123Y14274D01*
X-1181Y14286D01*
D02*
G37*
G36*
X-2165Y14571D02*
X-2253Y14560D01*
X-2335Y14526D01*
X-2405Y14472D01*
X-2459Y14402D01*
X-2493Y14320D01*
X-2504Y14232D01*
X-2493Y14145D01*
X-2459Y14063D01*
X-2405Y13992D01*
X-2335Y13939D01*
X-2253Y13905D01*
X-2165Y13893D01*
X-2078Y13905D01*
X-1996Y13939D01*
X-1926Y13992D01*
X-1872Y14063D01*
X-1838Y14145D01*
X-1826Y14232D01*
X-1838Y14320D01*
X-1872Y14402D01*
X-1926Y14472D01*
X-1996Y14526D01*
X-2078Y14560D01*
X-2165Y14571D01*
D02*
G37*
G36*
X1280Y13647D02*
X1221Y13636D01*
X1171Y13603D01*
X1138Y13553D01*
X1127Y13494D01*
X1138Y13436D01*
X1171Y13386D01*
X1221Y13353D01*
X1280Y13341D01*
X1338Y13353D01*
X1388Y13386D01*
X1421Y13436D01*
X1432Y13494D01*
X1421Y13553D01*
X1388Y13603D01*
X1338Y13636D01*
X1280Y13647D01*
D02*
G37*
G36*
X-1673Y13657D02*
X-1732Y13645D01*
X-1781Y13612D01*
X-1815Y13562D01*
X-1826Y13504D01*
X-1815Y13445D01*
X-1781Y13396D01*
X-1732Y13363D01*
X-1673Y13351D01*
X-1615Y13363D01*
X-1565Y13396D01*
X-1559Y13405D01*
X-1499D01*
X-1486Y13386D01*
X-1436Y13353D01*
X-1378Y13341D01*
X-1319Y13353D01*
X-1270Y13386D01*
X-1237Y13436D01*
X-1225Y13494D01*
X-1237Y13553D01*
X-1270Y13603D01*
X-1319Y13636D01*
X-1378Y13647D01*
X-1436Y13636D01*
X-1486Y13603D01*
X-1492Y13593D01*
X-1552D01*
X-1565Y13612D01*
X-1615Y13645D01*
X-1673Y13657D01*
D02*
G37*
G36*
X-2047Y13677D02*
X-2114Y13664D01*
X-2170Y13627D01*
X-2207Y13570D01*
X-2221Y13504D01*
X-2207Y13438D01*
X-2170Y13381D01*
X-2114Y13344D01*
X-2047Y13331D01*
X-1981Y13344D01*
X-1925Y13381D01*
X-1887Y13438D01*
X-1874Y13504D01*
X-1887Y13570D01*
X-1925Y13627D01*
X-1981Y13664D01*
X-2047Y13677D01*
D02*
G37*
G36*
X984Y9794D02*
X924Y9782D01*
X873Y9748D01*
X867Y9739D01*
X807D01*
X801Y9748D01*
X749Y9782D01*
X689Y9794D01*
X629Y9782D01*
X577Y9748D01*
X571Y9739D01*
X511D01*
X505Y9748D01*
X454Y9782D01*
X394Y9794D01*
X333Y9782D01*
X282Y9748D01*
X248Y9697D01*
X236Y9636D01*
X248Y9576D01*
X282Y9524D01*
X333Y9490D01*
X394Y9478D01*
X454Y9490D01*
X505Y9524D01*
X511Y9533D01*
X571D01*
X577Y9524D01*
X629Y9490D01*
X689Y9478D01*
X749Y9490D01*
X801Y9524D01*
X807Y9533D01*
X867D01*
X873Y9524D01*
X924Y9490D01*
X984Y9478D01*
X1045Y9490D01*
X1096Y9524D01*
X1130Y9576D01*
X1142Y9636D01*
X1130Y9697D01*
X1096Y9748D01*
X1045Y9782D01*
X984Y9794D01*
D02*
G37*
G36*
X1024Y5605D02*
X965Y5593D01*
X916Y5560D01*
X883Y5511D01*
X871Y5453D01*
X883Y5395D01*
X916Y5345D01*
X965Y5312D01*
X1024Y5301D01*
X1082Y5312D01*
X1131Y5345D01*
X1164Y5395D01*
X1176Y5453D01*
X1164Y5511D01*
X1131Y5560D01*
X1082Y5593D01*
X1024Y5605D01*
D02*
G37*
G36*
X453Y3757D02*
X379Y3742D01*
X316Y3700D01*
X274Y3637D01*
X259Y3563D01*
X274Y3489D01*
X316Y3426D01*
X379Y3384D01*
X453Y3369D01*
X527Y3384D01*
X590Y3426D01*
X632Y3489D01*
X646Y3563D01*
X632Y3637D01*
X590Y3700D01*
X527Y3742D01*
X453Y3757D01*
D02*
G37*
G36*
X236Y16039D02*
X170Y16026D01*
X114Y15989D01*
X76Y15932D01*
X63Y15866D01*
X76Y15800D01*
X114Y15744D01*
X170Y15706D01*
X236Y15693D01*
X303Y15706D01*
X359Y15744D01*
X396Y15800D01*
X410Y15866D01*
X396Y15932D01*
X359Y15989D01*
X303Y16026D01*
X236Y16039D01*
D02*
G37*
G36*
X965Y15546D02*
X906Y15534D01*
X857Y15501D01*
X824Y15452D01*
X812Y15394D01*
X824Y15335D01*
X857Y15286D01*
X906Y15253D01*
X965Y15242D01*
X1023Y15253D01*
X1072Y15286D01*
X1105Y15335D01*
X1117Y15394D01*
X1105Y15452D01*
X1072Y15501D01*
X1023Y15534D01*
X965Y15546D01*
D02*
G37*
G36*
X2165Y13657D02*
X2107Y13645D01*
X2057Y13612D01*
X2024Y13562D01*
X2012Y13504D01*
X2024Y13445D01*
X2057Y13396D01*
X2107Y13363D01*
X2165Y13351D01*
X2224Y13363D01*
X2274Y13396D01*
X2307Y13445D01*
X2318Y13504D01*
X2307Y13562D01*
X2274Y13612D01*
X2224Y13645D01*
X2165Y13657D01*
D02*
G37*
G36*
X2539Y13677D02*
X2473Y13664D01*
X2417Y13627D01*
X2379Y13570D01*
X2366Y13504D01*
X2379Y13438D01*
X2417Y13381D01*
X2473Y13344D01*
X2539Y13331D01*
X2606Y13344D01*
X2662Y13381D01*
X2700Y13438D01*
X2713Y13504D01*
X2700Y13570D01*
X2662Y13627D01*
X2606Y13664D01*
X2539Y13677D01*
D02*
G37*
G36*
X2874Y8755D02*
X2816Y8743D01*
X2766Y8710D01*
X2733Y8661D01*
X2722Y8602D01*
X2733Y8544D01*
X2766Y8495D01*
X2816Y8462D01*
X2874Y8450D01*
X2932Y8462D01*
X2982Y8495D01*
X3015Y8544D01*
X3026Y8602D01*
X3015Y8661D01*
X2982Y8710D01*
X2932Y8743D01*
X2874Y8755D01*
D02*
G37*
G36*
X2756Y7908D02*
X2698Y7896D01*
X2648Y7863D01*
X2615Y7814D01*
X2604Y7756D01*
X2615Y7698D01*
X2648Y7648D01*
X2698Y7615D01*
X2756Y7604D01*
X2814Y7615D01*
X2863Y7648D01*
X2896Y7698D01*
X2908Y7756D01*
X2896Y7814D01*
X2863Y7863D01*
X2814Y7896D01*
X2756Y7908D01*
D02*
G37*
G36*
X2835Y6412D02*
X2776Y6400D01*
X2727Y6367D01*
X2694Y6318D01*
X2683Y6260D01*
X2694Y6202D01*
X2727Y6152D01*
X2776Y6119D01*
X2835Y6108D01*
X2893Y6119D01*
X2942Y6152D01*
X2975Y6202D01*
X2987Y6260D01*
X2975Y6318D01*
X2942Y6367D01*
X2893Y6400D01*
X2835Y6412D01*
D02*
G37*
G36*
X2480Y5291D02*
X2414Y5278D01*
X2358Y5241D01*
X2320Y5184D01*
X2307Y5118D01*
X2320Y5052D01*
X2358Y4996D01*
X2414Y4958D01*
X2434Y4954D01*
Y4903D01*
X2422Y4901D01*
X2373Y4868D01*
X2340Y4818D01*
X2328Y4760D01*
X2340Y4702D01*
X2373Y4652D01*
X2422Y4620D01*
X2480Y4608D01*
X2539Y4620D01*
X2588Y4652D01*
X2621Y4702D01*
X2632Y4760D01*
X2621Y4818D01*
X2588Y4868D01*
X2539Y4901D01*
X2527Y4903D01*
Y4954D01*
X2547Y4958D01*
X2603Y4996D01*
X2640Y5052D01*
X2654Y5118D01*
X2640Y5184D01*
X2603Y5241D01*
X2547Y5278D01*
X2480Y5291D01*
D02*
G37*
G36*
X-2283Y4483D02*
X-2342Y4471D01*
X-2391Y4438D01*
X-2424Y4389D01*
X-2436Y4331D01*
X-2424Y4272D01*
X-2391Y4223D01*
X-2342Y4190D01*
X-2283Y4179D01*
X-2225Y4190D01*
X-2176Y4223D01*
X-2143Y4272D01*
X-2131Y4331D01*
X-2143Y4389D01*
X-2176Y4438D01*
X-2225Y4471D01*
X-2283Y4483D01*
D02*
G37*
G36*
X2756Y4375D02*
X2697Y4363D01*
X2648Y4330D01*
X2615Y4281D01*
X2604Y4222D01*
X2615Y4164D01*
X2648Y4115D01*
X2697Y4082D01*
X2756Y4070D01*
X2814Y4082D01*
X2863Y4115D01*
X2896Y4164D01*
X2908Y4222D01*
X2896Y4281D01*
X2863Y4330D01*
X2814Y4363D01*
X2756Y4375D01*
D02*
G37*
G36*
X-630Y7475D02*
X-720Y7463D01*
X-804Y7428D01*
X-877Y7373D01*
X-932Y7301D01*
X-967Y7216D01*
X-979Y7126D01*
X-967Y7036D01*
X-932Y6951D01*
X-877Y6879D01*
X-804Y6824D01*
X-720Y6789D01*
X-630Y6777D01*
X-540Y6789D01*
X-455Y6824D01*
X-383Y6879D01*
X-328Y6951D01*
X-293Y7036D01*
X-281Y7126D01*
X-293Y7216D01*
X-328Y7301D01*
X-383Y7373D01*
X-455Y7428D01*
X-540Y7463D01*
X-630Y7475D01*
D02*
G37*
G36*
X1594Y6018D02*
X1536Y6007D01*
X1487Y5974D01*
X1454Y5924D01*
X1442Y5866D01*
X1454Y5808D01*
X1487Y5759D01*
X1536Y5726D01*
X1594Y5714D01*
X1653Y5726D01*
X1702Y5759D01*
X1735Y5808D01*
X1747Y5866D01*
X1735Y5924D01*
X1702Y5974D01*
X1653Y6007D01*
X1594Y6018D01*
D02*
G37*
G36*
X-1181Y5428D02*
X-1239Y5416D01*
X-1289Y5383D01*
X-1322Y5334D01*
X-1333Y5276D01*
X-1322Y5217D01*
X-1289Y5168D01*
X-1239Y5135D01*
X-1181Y5123D01*
X-1123Y5135D01*
X-1074Y5168D01*
X-1020Y5158D01*
X-1013Y5148D01*
X-964Y5115D01*
X-906Y5104D01*
X-847Y5115D01*
X-798Y5148D01*
X-765Y5198D01*
X-753Y5256D01*
X-765Y5314D01*
X-798Y5363D01*
X-847Y5396D01*
X-906Y5408D01*
X-964Y5396D01*
X-1013Y5363D01*
X-1067Y5373D01*
X-1074Y5383D01*
X-1123Y5416D01*
X-1181Y5428D01*
D02*
G37*
G36*
X-846Y4443D02*
X-905Y4432D01*
X-954Y4399D01*
X-987Y4350D01*
X-999Y4291D01*
X-987Y4233D01*
X-954Y4184D01*
X-905Y4151D01*
X-846Y4139D01*
X-788Y4151D01*
X-739Y4184D01*
X-706Y4233D01*
X-694Y4291D01*
X-706Y4350D01*
X-739Y4399D01*
X-788Y4432D01*
X-846Y4443D01*
D02*
G37*
G36*
X-1181Y3912D02*
X-1239Y3900D01*
X-1289Y3867D01*
X-1322Y3818D01*
X-1333Y3760D01*
X-1322Y3702D01*
X-1289Y3652D01*
X-1239Y3619D01*
X-1181Y3608D01*
X-1123Y3619D01*
X-1074Y3652D01*
X-1041Y3702D01*
X-1029Y3760D01*
X-1041Y3818D01*
X-1074Y3867D01*
X-1123Y3900D01*
X-1181Y3912D01*
D02*
G37*
G36*
X-1535Y2987D02*
X-1594Y2975D01*
X-1643Y2942D01*
X-1676Y2893D01*
X-1688Y2835D01*
X-1676Y2776D01*
X-1643Y2727D01*
X-1594Y2694D01*
X-1535Y2683D01*
X-1477Y2694D01*
X-1428Y2727D01*
X-1395Y2776D01*
X-1383Y2835D01*
X-1395Y2893D01*
X-1428Y2942D01*
X-1477Y2975D01*
X-1535Y2987D01*
D02*
G37*
%LPD*%
D58*
X-713Y14819D02*
G03*
X-827Y14705I0J-114D01*
G01*
X-713Y14819D02*
X-83D01*
D66*
X-630Y7913D02*
D03*
D70*
X-1457Y16890D02*
D03*
X965Y8209D02*
D03*
D71*
X-827Y14705D02*
D03*
D74*
X-1457Y17331D02*
D03*
Y16417D02*
D03*
X2224Y9094D02*
D03*
X1555Y5453D02*
D03*
X630Y6368D02*
D03*
D75*
X-118Y4154D02*
D03*
Y4567D02*
D03*
X512Y4244D02*
D03*
X391Y3977D02*
D03*
X221Y4291D02*
D03*
Y4567D02*
D03*
X630Y14961D02*
D03*
X1969Y6732D02*
D03*
X-1969Y4331D02*
D03*
D78*
X1520Y8764D02*
G03*
X965Y8209I0J-555D01*
G01*
X1520Y8764D02*
X1870D01*
X-1457Y16890D02*
X236D01*
M02*
