G04*
G04 #@! TF.GenerationSoftware,Altium Limited,Altium Designer,18.1.6 (161)*
G04*
G04 Layer_Physical_Order=1*
G04 Layer_Color=255*
%FSLAX24Y24*%
%MOIN*%
G70*
G01*
G75*
%ADD12C,0.0080*%
%ADD14C,0.0100*%
%ADD15R,0.0236X0.1575*%
%ADD16R,0.0315X0.0315*%
%ADD17O,0.0236X0.0079*%
%ADD18O,0.0079X0.0236*%
%ADD19R,0.0606X0.0669*%
%ADD20R,0.0197X0.0157*%
%ADD21R,0.0157X0.0197*%
%ADD22R,0.0197X0.0472*%
%ADD23R,0.0472X0.0197*%
%ADD24R,0.0315X0.0315*%
%ADD25R,0.0394X0.0236*%
%ADD26R,0.0591X0.1575*%
%ADD27R,0.0591X0.2362*%
%ADD28R,0.0217X0.0217*%
%ADD29R,0.0256X0.0157*%
%ADD30R,0.0217X0.0217*%
%ADD31R,0.0217X0.0335*%
%ADD53C,0.0250*%
%ADD54C,0.0250*%
%ADD55C,0.0160*%
%ADD56C,0.0120*%
%ADD57C,0.0300*%
%ADD58C,0.0472*%
%ADD59R,0.0492X0.0492*%
%ADD60C,0.0492*%
%ADD61C,0.0236*%
%ADD62C,0.0315*%
%ADD63C,0.0300*%
%ADD64C,0.0157*%
G36*
X-678Y16042D02*
X-622D01*
Y15917D01*
X-621Y15912D01*
X-639Y15822D01*
X-693Y15742D01*
X-773Y15688D01*
X-863Y15671D01*
X-868Y15672D01*
X-1031D01*
X-1051Y15710D01*
X-1052Y15722D01*
X-1039Y15787D01*
X-1053Y15857D01*
X-1092Y15916D01*
X-1151Y15955D01*
X-1220Y15969D01*
X-1290Y15955D01*
X-1349Y15916D01*
X-1353Y15910D01*
X-2047D01*
Y15910D01*
X-2163Y15899D01*
X-2275Y15865D01*
X-2378Y15810D01*
X-2468Y15736D01*
X-2542Y15646D01*
X-2597Y15543D01*
X-2631Y15431D01*
X-2643Y15315D01*
X-2642D01*
Y13917D01*
X-2633Y13871D01*
X-2606Y13831D01*
X-1860Y13085D01*
X-1892Y13046D01*
X-1922Y13066D01*
X-1968Y13075D01*
X-2015Y13066D01*
X-2055Y13039D01*
X-2082Y13000D01*
X-2091Y12953D01*
Y12520D01*
X-2082Y12473D01*
X-2055Y12433D01*
X-2015Y12407D01*
X-1968Y12397D01*
X-1922Y12407D01*
X-1882Y12433D01*
X-1882Y12434D01*
X-1832Y12419D01*
Y12270D01*
X-2894Y12270D01*
X-2894Y12270D01*
X-3150D01*
X-3150Y17717D01*
X-1178D01*
Y17435D01*
X-1228Y17420D01*
X-1249Y17451D01*
X-1308Y17491D01*
X-1377Y17504D01*
X-1447Y17491D01*
X-1506Y17451D01*
X-1545Y17392D01*
X-1559Y17323D01*
X-1545Y17253D01*
X-1506Y17194D01*
X-1447Y17155D01*
X-1377Y17141D01*
X-1308Y17155D01*
X-1249Y17194D01*
X-1228Y17226D01*
X-1178Y17211D01*
Y16639D01*
X-1575D01*
X-1581Y16647D01*
X-1650Y16694D01*
X-1732Y16710D01*
X-1814Y16694D01*
X-1884Y16647D01*
X-1930Y16578D01*
X-1946Y16496D01*
X-1930Y16414D01*
X-1884Y16345D01*
X-1814Y16298D01*
X-1732Y16282D01*
X-1650Y16298D01*
X-1581Y16345D01*
X-1575Y16353D01*
X-1178D01*
Y16042D01*
X-822D01*
Y17717D01*
X-678D01*
Y16042D01*
D02*
G37*
G36*
X822D02*
X902D01*
X905Y16028D01*
X960Y15944D01*
X1012Y15910D01*
X996Y15860D01*
X650D01*
X650Y15860D01*
X623Y15871D01*
X612Y15898D01*
X612Y15898D01*
Y16042D01*
X678D01*
Y17717D01*
X822D01*
Y16042D01*
D02*
G37*
G36*
X322D02*
X388D01*
Y15898D01*
X388D01*
X397Y15830D01*
X423Y15767D01*
X464Y15712D01*
X472Y15707D01*
X455Y15657D01*
X-36D01*
Y15659D01*
X-122Y15642D01*
X-196Y15593D01*
X-245Y15520D01*
X-257Y15456D01*
X-585D01*
X-602Y15506D01*
X-520Y15569D01*
X-442Y15671D01*
X-393Y15790D01*
X-376Y15917D01*
X-378D01*
Y16042D01*
X-322D01*
Y17717D01*
X-178D01*
Y16943D01*
X-189Y16890D01*
Y15898D01*
X-174Y15825D01*
X-133Y15764D01*
X-72Y15723D01*
X0Y15709D01*
X72Y15723D01*
X133Y15764D01*
X174Y15825D01*
X189Y15898D01*
Y16890D01*
X178Y16943D01*
Y17717D01*
X322D01*
Y16042D01*
D02*
G37*
G36*
X1045Y15297D02*
X1062Y15257D01*
X1061Y15254D01*
Y15071D01*
X1055Y15065D01*
X1011Y15049D01*
X988Y15064D01*
X945Y15073D01*
X709D01*
X666Y15064D01*
X629Y15040D01*
X605Y15004D01*
X597Y14961D01*
X605Y14918D01*
X629Y14881D01*
X666Y14857D01*
X709Y14848D01*
X945D01*
X988Y14857D01*
X1011Y14873D01*
X1055Y14856D01*
X1061Y14850D01*
Y14493D01*
X912Y14344D01*
X890Y14311D01*
X882Y14272D01*
Y12816D01*
X727D01*
X671Y12920D01*
X581Y13030D01*
X580Y13029D01*
X580Y13029D01*
X545Y13064D01*
X544Y13064D01*
X508Y13118D01*
X496Y13182D01*
X496Y13182D01*
Y13287D01*
X495Y13291D01*
Y13335D01*
X507Y13371D01*
X543Y13383D01*
X669D01*
X708Y13391D01*
X741Y13413D01*
X763Y13445D01*
X771Y13484D01*
X763Y13523D01*
X762Y13524D01*
X744Y13563D01*
X762Y13602D01*
X763Y13603D01*
X771Y13642D01*
X763Y13680D01*
X741Y13713D01*
Y13728D01*
X763Y13760D01*
X771Y13799D01*
X763Y13838D01*
X762Y13839D01*
X744Y13878D01*
X762Y13917D01*
X763Y13918D01*
X771Y13957D01*
X763Y13995D01*
X762Y13997D01*
X744Y14035D01*
X762Y14074D01*
X763Y14075D01*
X771Y14114D01*
X763Y14153D01*
X762Y14154D01*
X744Y14193D01*
X762Y14232D01*
X763Y14233D01*
X771Y14272D01*
X763Y14310D01*
X741Y14343D01*
X708Y14365D01*
X669Y14373D01*
X543D01*
X507Y14385D01*
X495Y14421D01*
Y14547D01*
X487Y14586D01*
X465Y14619D01*
X452Y14628D01*
X440Y14686D01*
X473Y14719D01*
X473Y14719D01*
X497Y14755D01*
X506Y14798D01*
Y14802D01*
X532D01*
Y15084D01*
X561Y15127D01*
X575Y15197D01*
X562Y15263D01*
X562Y15274D01*
X583Y15313D01*
X1002D01*
X1005Y15314D01*
X1045Y15297D01*
D02*
G37*
G36*
X-2010Y15427D02*
X-901D01*
X-884Y15377D01*
X-909Y15358D01*
X-963Y15288D01*
X-997Y15206D01*
X-1008Y15118D01*
X-1007D01*
Y14961D01*
X-1008D01*
X-997Y14873D01*
X-963Y14791D01*
X-909Y14721D01*
X-838Y14667D01*
X-757Y14633D01*
X-669Y14621D01*
Y14622D01*
X-551D01*
X-549Y14623D01*
X-511Y14607D01*
X-495Y14569D01*
X-496Y14567D01*
Y14468D01*
X-495Y14465D01*
Y14421D01*
X-504Y14396D01*
X-548Y14375D01*
X-591Y14384D01*
X-591Y14384D01*
X-990D01*
X-1016Y14433D01*
X-1016Y14435D01*
X-1013Y14438D01*
X-1000Y14508D01*
X-1013Y14577D01*
X-1053Y14636D01*
X-1112Y14676D01*
X-1181Y14689D01*
X-1251Y14676D01*
X-1310Y14636D01*
X-1349Y14577D01*
X-1351Y14565D01*
X-1399Y14550D01*
X-1606Y14757D01*
X-1598Y14819D01*
X-1560Y14848D01*
X-1513Y14910D01*
X-1483Y14982D01*
X-1473Y15059D01*
X-1483Y15136D01*
X-1513Y15208D01*
X-1560Y15270D01*
X-1622Y15318D01*
X-1694Y15348D01*
X-1772Y15358D01*
X-1849Y15348D01*
X-1921Y15318D01*
X-1983Y15270D01*
X-2030Y15208D01*
X-2060Y15136D01*
X-2070Y15059D01*
X-2060Y14982D01*
X-2030Y14910D01*
X-1983Y14848D01*
X-1921Y14800D01*
X-1884Y14785D01*
Y14764D01*
X-1884Y14764D01*
X-1875Y14721D01*
X-1851Y14684D01*
X-1508Y14342D01*
Y14284D01*
X-1558Y14267D01*
X-1560Y14270D01*
X-1622Y14318D01*
X-1694Y14348D01*
X-1772Y14358D01*
X-1849Y14348D01*
X-1921Y14318D01*
X-1983Y14270D01*
X-2030Y14208D01*
X-2060Y14136D01*
X-2070Y14059D01*
X-2060Y13982D01*
X-2043Y13940D01*
X-2086Y13912D01*
X-2161Y13988D01*
Y15276D01*
X-2161Y15276D01*
X-2150Y15334D01*
X-2117Y15383D01*
X-2068Y15416D01*
X-2010Y15427D01*
X-2010Y15427D01*
D02*
G37*
G36*
X197Y14296D02*
X236Y14288D01*
X275Y14296D01*
X276Y14297D01*
X315Y14315D01*
X354Y14297D01*
X355Y14296D01*
X364Y14294D01*
X410Y14272D01*
X418Y14233D01*
X419Y14232D01*
X437Y14193D01*
X419Y14154D01*
X418Y14153D01*
X410Y14114D01*
X418Y14075D01*
X419Y14074D01*
X437Y14035D01*
X419Y13997D01*
X418Y13995D01*
X410Y13957D01*
X418Y13918D01*
X419Y13917D01*
X437Y13878D01*
X419Y13839D01*
X418Y13838D01*
X410Y13799D01*
X418Y13760D01*
X440Y13728D01*
Y13713D01*
X418Y13680D01*
X410Y13642D01*
X418Y13603D01*
X419Y13602D01*
X437Y13563D01*
X419Y13524D01*
X418Y13523D01*
X410Y13484D01*
X364Y13462D01*
X355Y13460D01*
X354Y13459D01*
X315Y13441D01*
X276Y13459D01*
X275Y13460D01*
X236Y13467D01*
X197Y13460D01*
X165Y13438D01*
X150D01*
X118Y13460D01*
X79Y13467D01*
X40Y13460D01*
X39Y13459D01*
X0Y13441D01*
X-39Y13459D01*
X-40Y13460D01*
X-79Y13467D01*
X-84Y13466D01*
X-134Y13504D01*
Y13599D01*
X72Y13806D01*
X94Y13839D01*
X102Y13878D01*
X94Y13917D01*
X72Y13950D01*
X39Y13972D01*
X0Y13980D01*
X-39Y13972D01*
X-72Y13950D01*
X-308Y13714D01*
X-330Y13681D01*
X-338Y13642D01*
Y13504D01*
X-388Y13466D01*
X-394Y13467D01*
X-432Y13460D01*
X-439Y13456D01*
X-489Y13482D01*
Y13484D01*
X-490Y13494D01*
X-475Y13543D01*
X-459Y13557D01*
X-440Y13570D01*
X-418Y13603D01*
X-410Y13642D01*
X-418Y13680D01*
X-440Y13713D01*
Y13728D01*
X-418Y13760D01*
X-410Y13799D01*
X-418Y13838D01*
X-419Y13839D01*
X-437Y13878D01*
X-419Y13917D01*
X-418Y13918D01*
X-410Y13957D01*
X-418Y13995D01*
X-419Y13997D01*
X-437Y14035D01*
X-419Y14074D01*
X-418Y14075D01*
X-410Y14114D01*
X-418Y14153D01*
X-419Y14154D01*
X-437Y14193D01*
X-419Y14232D01*
X-418Y14233D01*
X-416Y14242D01*
X-394Y14288D01*
X-355Y14296D01*
X-354Y14297D01*
X-315Y14315D01*
X-276Y14297D01*
X-275Y14296D01*
X-236Y14288D01*
X-197Y14296D01*
X-196Y14297D01*
X-157Y14315D01*
X-119Y14297D01*
X-118Y14296D01*
X-79Y14288D01*
X-40Y14296D01*
X-39Y14297D01*
X0Y14315D01*
X39Y14297D01*
X40Y14296D01*
X79Y14288D01*
X118Y14296D01*
X150Y14318D01*
X165D01*
X197Y14296D01*
D02*
G37*
G36*
X-771Y14114D02*
X-763Y14075D01*
X-762Y14074D01*
X-744Y14035D01*
X-762Y13997D01*
X-763Y13995D01*
X-771Y13957D01*
X-763Y13918D01*
X-762Y13917D01*
X-744Y13878D01*
X-762Y13839D01*
X-763Y13838D01*
X-771Y13799D01*
X-763Y13760D01*
X-741Y13728D01*
Y13713D01*
X-763Y13680D01*
X-771Y13642D01*
X-763Y13603D01*
X-741Y13570D01*
X-722Y13557D01*
X-706Y13543D01*
X-691Y13494D01*
X-693Y13484D01*
Y13310D01*
X-702Y13300D01*
X-724Y13267D01*
X-732Y13228D01*
X-726Y13200D01*
X-759Y13174D01*
X-767Y13170D01*
X-1284Y13687D01*
Y13833D01*
X-1234Y13860D01*
X-1224Y13853D01*
X-1181Y13845D01*
X-945D01*
X-902Y13853D01*
X-866Y13877D01*
X-841Y13914D01*
X-833Y13957D01*
X-841Y14000D01*
X-866Y14036D01*
X-902Y14060D01*
X-945Y14069D01*
X-1181D01*
X-1224Y14060D01*
X-1234Y14054D01*
X-1284Y14080D01*
Y14133D01*
X-1023D01*
Y14159D01*
X-813D01*
X-771Y14114D01*
D02*
G37*
G36*
X1250Y16761D02*
X1308Y16722D01*
X1378Y16708D01*
X1447Y16722D01*
X1506Y16761D01*
X1510Y16767D01*
X1635D01*
X1637Y16768D01*
X1741Y16754D01*
X1839Y16713D01*
X1924Y16648D01*
X1989Y16564D01*
X2030Y16465D01*
X2044Y16362D01*
X2043Y16359D01*
Y12816D01*
X1982D01*
Y15492D01*
X1983D01*
X1971Y15610D01*
X1937Y15724D01*
X1881Y15828D01*
X1806Y15920D01*
X1714Y15995D01*
X1610Y16051D01*
X1496Y16086D01*
X1378Y16097D01*
Y16096D01*
X1178D01*
Y16778D01*
X1228Y16793D01*
X1250Y16761D01*
D02*
G37*
G36*
X3150Y0D02*
X1399D01*
Y1635D01*
X1257D01*
Y1694D01*
X1256Y1700D01*
X1267Y1809D01*
X1301Y1921D01*
X1356Y2024D01*
X1398Y2076D01*
X1431Y2112D01*
X1431Y2112D01*
X1519Y2226D01*
X1574Y2359D01*
X1593Y2501D01*
X1592D01*
Y2834D01*
X1595D01*
Y3269D01*
X1592D01*
Y3346D01*
X1576Y3428D01*
X1529Y3498D01*
X1524Y3501D01*
X1512Y3531D01*
X1513Y3537D01*
Y3652D01*
X1497Y3734D01*
X1467Y3778D01*
Y3879D01*
X1131D01*
Y3778D01*
X1101Y3734D01*
X1085Y3652D01*
Y3537D01*
X1085D01*
X1102Y3412D01*
X1142Y3313D01*
X1160Y3269D01*
X1160Y3269D01*
X1160Y3269D01*
Y3163D01*
X893D01*
X857Y3199D01*
Y3219D01*
X857Y3269D01*
Y3574D01*
X770D01*
X743Y3639D01*
X671Y3732D01*
X670Y3731D01*
X612Y3776D01*
X544Y3804D01*
X472Y3813D01*
Y3813D01*
X-92D01*
X-141Y3814D01*
X-156Y3820D01*
X-157Y3820D01*
X-222Y3870D01*
X-297Y3901D01*
X-379Y3912D01*
Y3911D01*
X-629D01*
Y3977D01*
X-1143D01*
Y3621D01*
X-629D01*
Y3687D01*
X-379D01*
Y3686D01*
X-358Y3682D01*
X-317Y3659D01*
X-317Y3659D01*
X-237Y3605D01*
X-199Y3598D01*
X-204Y3548D01*
X-394D01*
X-441Y3538D01*
X-480Y3512D01*
X-507Y3472D01*
X-516Y3425D01*
X-507Y3378D01*
X-480Y3339D01*
X-441Y3312D01*
X-394Y3303D01*
X59D01*
X106Y3312D01*
X146Y3339D01*
X172Y3378D01*
X181Y3425D01*
X172Y3472D01*
X146Y3512D01*
X106Y3538D01*
X104Y3539D01*
X109Y3589D01*
X472D01*
X474Y3589D01*
X510Y3574D01*
X511Y3572D01*
X514Y3570D01*
X521Y3561D01*
Y3269D01*
X521Y3237D01*
X521Y3187D01*
Y2883D01*
X857D01*
Y2939D01*
X1160D01*
Y2834D01*
X1164D01*
Y2501D01*
X1165Y2498D01*
X1156Y2454D01*
X1156Y2454D01*
X1128Y2416D01*
X1128Y2416D01*
X1001Y2261D01*
X906Y2084D01*
X848Y1893D01*
X828Y1694D01*
X829D01*
Y1635D01*
X688D01*
Y0D01*
X-688D01*
Y2422D01*
X-764D01*
X-787Y2467D01*
X-745Y2521D01*
X-690Y2654D01*
X-671Y2797D01*
X-672D01*
Y2873D01*
X-629D01*
Y3229D01*
X-774D01*
X-804Y3249D01*
X-886Y3265D01*
X-1476D01*
X-1558Y3249D01*
X-1588Y3229D01*
X-1733D01*
Y2873D01*
X-1588D01*
X-1558Y2853D01*
X-1476Y2837D01*
X-1114D01*
X-1100Y2787D01*
X-1108Y2749D01*
X-1132Y2713D01*
X-1136Y2710D01*
X-1140Y2703D01*
X-1201Y2624D01*
X-1243Y2524D01*
X-1256Y2425D01*
X-1256Y2422D01*
X-1399D01*
Y0D01*
X-3150D01*
X-3150Y7094D01*
X-3149Y7140D01*
X-1378Y7146D01*
X-955D01*
X-909Y7165D01*
X-890Y7211D01*
Y8072D01*
X-843Y8091D01*
X-840Y8090D01*
X-757Y7983D01*
X-756Y7984D01*
X-716Y7958D01*
X-669Y7949D01*
X-622Y7958D01*
X-583Y7984D01*
X-556Y8024D01*
X-547Y8071D01*
X-556Y8118D01*
X-583Y8157D01*
X-583Y8158D01*
X-627Y8216D01*
X-655Y8283D01*
X-660Y8319D01*
X-617Y8365D01*
X204D01*
X234Y8325D01*
X215Y8263D01*
X133Y8109D01*
X26Y7978D01*
X22Y7975D01*
X-2245Y5709D01*
X-2246Y5711D01*
X-2361Y5571D01*
X-2446Y5412D01*
X-2498Y5239D01*
X-2514Y5080D01*
X-2540D01*
Y4763D01*
X-2533D01*
Y4597D01*
X-2590D01*
Y4261D01*
X-2533D01*
Y3603D01*
X-2678D01*
Y3247D01*
X-2164D01*
Y3603D01*
X-2309D01*
Y4261D01*
X-2253D01*
Y4597D01*
X-2309D01*
Y4763D01*
X-2263D01*
Y5080D01*
X-2263D01*
X-2285Y5105D01*
X-2277Y5195D01*
X-2259Y5253D01*
X-2209Y5246D01*
Y4921D01*
X-2200Y4874D01*
X-2179Y4844D01*
Y4429D01*
X-2171Y4386D01*
X-2146Y4350D01*
X-2110Y4326D01*
X-2067Y4317D01*
X-2024Y4326D01*
X-1988Y4350D01*
X-1963Y4386D01*
X-1955Y4429D01*
Y4874D01*
X-1953D01*
X-1964Y4928D01*
Y5276D01*
X-1974Y5322D01*
X-2000Y5362D01*
X-2040Y5389D01*
X-2087Y5398D01*
X-2133Y5389D01*
X-2154Y5375D01*
X-2192Y5410D01*
X-2173Y5446D01*
X-2087Y5550D01*
X-2086Y5551D01*
X-112Y7525D01*
X-67Y7499D01*
X-108Y7366D01*
X-125Y7194D01*
X-123D01*
Y5729D01*
X-149D01*
Y5614D01*
X-373D01*
Y5719D01*
X-808D01*
Y5614D01*
X-967D01*
Y5616D01*
X-1075Y5601D01*
X-1175Y5560D01*
X-1261Y5494D01*
X-1261Y5493D01*
X-1322Y5414D01*
X-1360Y5322D01*
X-1373Y5223D01*
X-1372D01*
Y4794D01*
X-1374D01*
X-1358Y4672D01*
X-1332Y4609D01*
X-1360Y4568D01*
X-1664D01*
Y4290D01*
X-1589D01*
Y3977D01*
X-1733D01*
Y3621D01*
X-1220D01*
Y3977D01*
X-1364D01*
Y4290D01*
X-1288D01*
Y4451D01*
X-1283Y4453D01*
X-1235Y4460D01*
X-1133Y4381D01*
X-1074Y4357D01*
Y4290D01*
X-698D01*
Y4568D01*
X-996D01*
X-1020Y4578D01*
X-1075Y4620D01*
X-1103Y4658D01*
X-1131Y4699D01*
X-1149Y4790D01*
X-1148Y4794D01*
Y5223D01*
X-1148Y5224D01*
X-1136Y5283D01*
X-1102Y5334D01*
X-1102Y5334D01*
X-1101Y5336D01*
X-1040Y5376D01*
X-969Y5390D01*
X-967Y5390D01*
X-808D01*
Y5284D01*
X-373D01*
Y5390D01*
X-149D01*
Y5275D01*
X31D01*
X48Y5225D01*
X-35Y5160D01*
X-35Y5160D01*
X-108Y5065D01*
X-154Y4955D01*
X-169Y4836D01*
X-169D01*
Y4537D01*
X-155Y4465D01*
X-149Y4456D01*
Y4310D01*
X188D01*
Y4456D01*
X194Y4465D01*
X208Y4537D01*
Y4836D01*
X208Y4837D01*
X214Y4867D01*
X231Y4893D01*
X232Y4893D01*
X233Y4895D01*
X272Y4921D01*
X317Y4930D01*
X320Y4929D01*
X1111D01*
Y4805D01*
X958D01*
Y4805D01*
X839Y4789D01*
X780Y4765D01*
X599D01*
Y4621D01*
X578Y4588D01*
X572Y4559D01*
X519Y4552D01*
X475Y4619D01*
X473Y4617D01*
X437Y4641D01*
X394Y4650D01*
X351Y4641D01*
X314Y4617D01*
X290Y4580D01*
X282Y4537D01*
X290Y4494D01*
X314Y4458D01*
X314Y4457D01*
X320Y4442D01*
X321Y4393D01*
Y4158D01*
X79D01*
X32Y4148D01*
X-8Y4122D01*
X-34Y4082D01*
X-44Y4035D01*
X-34Y3989D01*
X-8Y3949D01*
X32Y3922D01*
X79Y3913D01*
X433D01*
X480Y3922D01*
X520Y3949D01*
X524Y3956D01*
X540Y3958D01*
X582Y3952D01*
X609Y3910D01*
Y3877D01*
X652D01*
X676Y3861D01*
X748Y3847D01*
X820Y3861D01*
X844Y3877D01*
X887D01*
Y3910D01*
X922Y3963D01*
X937Y4035D01*
Y4386D01*
X958Y4428D01*
X1131D01*
Y4389D01*
X1467D01*
Y4535D01*
X1473Y4544D01*
X1488Y4616D01*
Y4999D01*
X1595D01*
Y5434D01*
X1566D01*
Y5709D01*
X1567D01*
X1550Y5834D01*
X1502Y5951D01*
X1425Y6051D01*
X1324Y6128D01*
X1208Y6177D01*
X1082Y6193D01*
Y6193D01*
X886D01*
X879Y6191D01*
X806Y6206D01*
X739Y6251D01*
X694Y6318D01*
X679Y6391D01*
X681Y6398D01*
Y7087D01*
X680Y7088D01*
X688Y7128D01*
X711Y7163D01*
X746Y7186D01*
X786Y7194D01*
X787Y7193D01*
X973D01*
Y7076D01*
X1437D01*
X1662Y6850D01*
X1664Y6849D01*
X1770Y6762D01*
X1893Y6696D01*
X1948Y6680D01*
Y6613D01*
X2383D01*
Y6909D01*
X2433Y6926D01*
X2447Y6907D01*
X2476Y6837D01*
X2486Y6762D01*
X2486D01*
Y5034D01*
X2486Y5034D01*
X2485Y5033D01*
X2165D01*
Y5036D01*
X2076Y5018D01*
X2001Y4968D01*
X1950Y4892D01*
X1941Y4843D01*
X1879D01*
Y4389D01*
X2216D01*
Y4809D01*
X2493D01*
Y4807D01*
X2577Y4824D01*
X2648Y4871D01*
X2696Y4942D01*
X2713Y5026D01*
X2711D01*
Y6762D01*
X2713D01*
X2695Y6896D01*
X2643Y7021D01*
X2561Y7128D01*
X2454Y7210D01*
X2329Y7262D01*
X2195Y7280D01*
Y7280D01*
X2193Y7278D01*
X2115Y7288D01*
X2059Y7311D01*
X2069Y7361D01*
X2383D01*
Y7796D01*
X2354D01*
X2349Y7802D01*
X2333Y7846D01*
X2374Y7899D01*
X2405Y7975D01*
X2410Y8011D01*
X2442D01*
Y8121D01*
X2446Y8125D01*
X2496Y8107D01*
Y8039D01*
X2495Y8039D01*
X2495D01*
X2506Y7955D01*
X2539Y7876D01*
X2590Y7809D01*
X2590Y7809D01*
X2617Y7770D01*
X2623Y7762D01*
X2634Y7706D01*
X2634Y7706D01*
Y7224D01*
X2643Y7178D01*
X2669Y7138D01*
X2709Y7111D01*
X2756Y7102D01*
X2803Y7111D01*
X2842Y7138D01*
X2869Y7178D01*
X2878Y7224D01*
Y7706D01*
X2879D01*
X2866Y7808D01*
X2827Y7902D01*
X2764Y7983D01*
X2764Y7983D01*
X2748Y8009D01*
X2742Y8039D01*
X2740D01*
Y8169D01*
X2731Y8216D01*
X2705Y8256D01*
X2665Y8282D01*
X2618Y8292D01*
X2571Y8282D01*
X2532Y8256D01*
X2505Y8216D01*
X2504Y8211D01*
X2484Y8169D01*
X2483Y8169D01*
X2446Y8198D01*
Y8436D01*
X2471Y8474D01*
X2485Y8543D01*
X2471Y8613D01*
X2444Y8653D01*
X2434Y8726D01*
X2400Y8809D01*
X2345Y8881D01*
X2345Y8881D01*
X2338Y8898D01*
X2338Y8947D01*
Y9199D01*
X2339D01*
X2344Y9224D01*
X2359Y9246D01*
X2366Y9251D01*
X2537D01*
X2552Y9201D01*
X2551Y9201D01*
X2525Y9161D01*
X2515Y9114D01*
Y8780D01*
X2525Y8733D01*
X2551Y8693D01*
X2591Y8667D01*
X2638Y8657D01*
X2685Y8667D01*
X2724Y8693D01*
X2751Y8733D01*
X2760Y8780D01*
Y9114D01*
X2751Y9161D01*
X2724Y9201D01*
X2724Y9201D01*
X2739Y9251D01*
X2934D01*
Y9546D01*
Y9842D01*
Y10137D01*
Y10432D01*
Y10727D01*
Y11023D01*
Y11340D01*
X2342D01*
X2338Y11388D01*
Y11467D01*
X2353Y11479D01*
X2435Y11495D01*
X2504Y11542D01*
X2550Y11611D01*
X2567Y11693D01*
X2550Y11775D01*
X2504Y11844D01*
X2435Y11891D01*
X2353Y11907D01*
X2271Y11891D01*
X2201Y11844D01*
X2155Y11775D01*
X2151Y11756D01*
X2140Y11748D01*
X2093Y11685D01*
X2063Y11613D01*
X2053Y11538D01*
X2052Y11535D01*
Y9201D01*
X2052Y9199D01*
X2052D01*
Y8898D01*
X2053Y8896D01*
X2063Y8817D01*
X2094Y8743D01*
X2142Y8680D01*
X2143Y8679D01*
X2146Y8629D01*
X2135Y8613D01*
X2122Y8543D01*
X2135Y8474D01*
X2160Y8436D01*
Y8169D01*
X2164Y8149D01*
Y8011D01*
X2145Y7969D01*
X2103Y7914D01*
X2065Y7822D01*
X2062Y7796D01*
X1948D01*
Y7568D01*
X1898Y7543D01*
X1889Y7550D01*
X1884Y7589D01*
X1884D01*
Y7976D01*
X1886D01*
X1867Y8071D01*
X1813Y8152D01*
X1812Y8151D01*
X1733Y8212D01*
X1641Y8250D01*
X1542Y8263D01*
Y8262D01*
X978D01*
X977Y8262D01*
X917Y8274D01*
X867Y8307D01*
X867Y8308D01*
X864Y8310D01*
X856Y8321D01*
X880Y8365D01*
X1438D01*
Y8958D01*
X-651D01*
Y8763D01*
X-701Y8747D01*
X-701Y8748D01*
X-741Y8774D01*
X-787Y8784D01*
X-834Y8774D01*
X-840Y8771D01*
X-890Y8797D01*
Y12179D01*
X-848Y12223D01*
X2288D01*
X2324Y12223D01*
X2338Y12179D01*
Y12087D01*
X2348Y12040D01*
X2374Y12000D01*
X2414Y11974D01*
X2461Y11964D01*
X2507Y11974D01*
X2547Y12000D01*
X2574Y12040D01*
X2583Y12087D01*
Y12520D01*
X2574Y12567D01*
X2547Y12606D01*
X2507Y12633D01*
X2461Y12642D01*
X2414Y12633D01*
X2374Y12606D01*
X2374Y12606D01*
X2324Y12621D01*
Y12816D01*
X2288D01*
Y16359D01*
X2289D01*
X2276Y16487D01*
X2239Y16609D01*
X2178Y16722D01*
X2097Y16821D01*
X1998Y16903D01*
X1885Y16963D01*
X1762Y17000D01*
X1635Y17013D01*
Y17012D01*
X1510D01*
X1506Y17018D01*
X1447Y17058D01*
X1378Y17071D01*
X1308Y17058D01*
X1250Y17018D01*
X1228Y16986D01*
X1178Y17001D01*
Y17717D01*
X3150D01*
X3150Y0D01*
D02*
G37*
G36*
X590Y8349D02*
X635Y8241D01*
X707Y8148D01*
X707Y8148D01*
X786Y8088D01*
X879Y8049D01*
X978Y8036D01*
Y8037D01*
X1542D01*
X1543Y8038D01*
X1602Y8026D01*
X1613Y8018D01*
X1623Y8011D01*
X1658Y7976D01*
X1660Y7975D01*
Y7589D01*
X1657D01*
X1673Y7470D01*
X1639Y7433D01*
X1630Y7429D01*
X1617Y7432D01*
X1615Y7432D01*
X1615Y7432D01*
X1586Y7470D01*
Y7688D01*
X973D01*
Y7571D01*
X787D01*
Y7571D01*
X662Y7555D01*
X545Y7506D01*
X445Y7429D01*
X368Y7329D01*
X319Y7212D01*
X303Y7087D01*
X303D01*
Y6398D01*
X302D01*
X322Y6247D01*
X380Y6106D01*
X473Y5985D01*
X594Y5892D01*
X735Y5834D01*
X886Y5814D01*
Y5815D01*
X1082D01*
X1084Y5816D01*
X1123Y5808D01*
X1158Y5785D01*
X1181Y5750D01*
X1189Y5710D01*
X1189Y5709D01*
X1189Y5709D01*
Y5434D01*
X1160D01*
Y5351D01*
X1140Y5307D01*
X936D01*
Y5729D01*
X599D01*
Y5307D01*
X320D01*
Y5307D01*
X238Y5297D01*
X188Y5340D01*
Y5729D01*
X162D01*
Y7194D01*
X162Y7196D01*
X173Y7310D01*
X207Y7422D01*
X262Y7526D01*
X306Y7579D01*
X337Y7616D01*
X391Y7657D01*
X438Y7676D01*
X452Y7667D01*
X521Y7653D01*
X591Y7667D01*
X650Y7706D01*
X689Y7765D01*
X703Y7835D01*
X689Y7904D01*
X650Y7963D01*
X591Y8002D01*
X521Y8016D01*
X452Y8002D01*
X393Y7963D01*
X359Y7961D01*
X328Y8004D01*
X386Y8098D01*
X453Y8259D01*
X478Y8365D01*
X588D01*
X590Y8349D01*
D02*
G37*
%LPC*%
G36*
X2165Y6363D02*
X2119Y6353D01*
X2079Y6327D01*
X2052Y6287D01*
X2043Y6240D01*
Y5886D01*
X2052Y5839D01*
X2079Y5799D01*
X2119Y5773D01*
X2165Y5763D01*
X2212Y5773D01*
X2252Y5799D01*
X2278Y5839D01*
X2288Y5886D01*
Y6240D01*
X2278Y6287D01*
X2252Y6327D01*
X2212Y6353D01*
X2165Y6363D01*
D02*
G37*
G36*
X1969Y5693D02*
X1922Y5684D01*
X1882Y5657D01*
X1855Y5618D01*
X1846Y5571D01*
Y5217D01*
X1855Y5170D01*
X1882Y5130D01*
X1922Y5103D01*
X1969Y5094D01*
X2015Y5103D01*
X2055Y5130D01*
X2082Y5170D01*
X2091Y5217D01*
Y5571D01*
X2082Y5618D01*
X2055Y5657D01*
X2015Y5684D01*
X1969Y5693D01*
D02*
G37*
G36*
X-591Y5034D02*
X-945D01*
X-992Y5024D01*
X-1031Y4998D01*
X-1058Y4958D01*
X-1067Y4911D01*
X-1058Y4865D01*
X-1031Y4825D01*
X-992Y4798D01*
X-945Y4789D01*
X-591D01*
X-544Y4798D01*
X-504Y4825D01*
X-478Y4865D01*
X-468Y4911D01*
X-478Y4958D01*
X-504Y4998D01*
X-544Y5024D01*
X-591Y5034D01*
D02*
G37*
G36*
X2657Y4788D02*
X2611Y4778D01*
X2571Y4752D01*
X2544Y4712D01*
X2535Y4665D01*
Y4311D01*
X2544Y4264D01*
X2571Y4225D01*
X2611Y4198D01*
X2657Y4189D01*
X2704Y4198D01*
X2744Y4225D01*
X2770Y4264D01*
X2780Y4311D01*
Y4665D01*
X2770Y4712D01*
X2744Y4752D01*
X2704Y4778D01*
X2657Y4788D01*
D02*
G37*
G36*
X1673Y4738D02*
X1626Y4729D01*
X1587Y4703D01*
X1560Y4663D01*
X1551Y4616D01*
Y4262D01*
X1560Y4215D01*
X1587Y4175D01*
X1626Y4149D01*
X1673Y4139D01*
X1720Y4149D01*
X1760Y4175D01*
X1786Y4215D01*
X1796Y4262D01*
Y4616D01*
X1786Y4663D01*
X1760Y4703D01*
X1720Y4729D01*
X1673Y4738D01*
D02*
G37*
G36*
X2826Y4125D02*
X2489D01*
Y3996D01*
X2489Y3947D01*
X2452Y3916D01*
X2394Y3869D01*
X2286Y3811D01*
X2256Y3802D01*
X2216Y3832D01*
Y3879D01*
X1879D01*
Y3424D01*
X2216D01*
Y3555D01*
X2373Y3602D01*
X2520Y3681D01*
X2649Y3787D01*
X2698Y3788D01*
X2826D01*
Y4125D01*
D02*
G37*
G36*
X2323Y3174D02*
X1969D01*
X1922Y3164D01*
X1882Y3138D01*
X1855Y3098D01*
X1846Y3051D01*
X1855Y3004D01*
X1882Y2965D01*
X1922Y2938D01*
X1969Y2929D01*
X2323D01*
X2370Y2938D01*
X2409Y2965D01*
X2436Y3004D01*
X2445Y3051D01*
X2436Y3098D01*
X2409Y3138D01*
X2370Y3164D01*
X2323Y3174D01*
D02*
G37*
%LPD*%
D12*
X1378Y15238D02*
G03*
X1060Y15555I-317J0D01*
G01*
X-36D02*
G03*
X-157Y15433I0J-122D01*
G01*
X-236Y15354D02*
G03*
X-157Y15433I0J79D01*
G01*
X-669Y15354D02*
G03*
X-906Y15118I0J-236D01*
G01*
Y14961D02*
G03*
X-669Y14724I237J0D01*
G01*
X-394Y14567D02*
G03*
X-551Y14724I-157J0D01*
G01*
X303Y15415D02*
G03*
X157Y15269I0J-146D01*
G01*
X1163Y15254D02*
G03*
X1002Y15415I-161J0D01*
G01*
X236Y13048D02*
G03*
X276Y12953I134J0D01*
G01*
X394Y12740D02*
G03*
X326Y12902I-230J0D01*
G01*
X79Y12567D02*
G03*
X98Y12520I67J0D01*
G01*
X394Y13182D02*
G03*
X472Y12992I269J0D01*
G01*
X689Y12520D02*
G03*
X508Y12957I-618J0D01*
G01*
X-36Y15555D02*
X1060D01*
X1378Y14389D02*
Y15238D01*
X-669Y15354D02*
X-236D01*
X-669Y14724D02*
X-551D01*
X-906Y14961D02*
Y15118D01*
X-394Y14468D02*
Y14567D01*
X303Y15415D02*
X1002D01*
X157Y14774D02*
Y15269D01*
X1163Y14450D02*
Y15254D01*
X-630Y13228D02*
X-591Y13268D01*
Y13484D01*
X1280Y14291D02*
X1378Y14389D01*
X1280Y12520D02*
Y14291D01*
X984Y14272D02*
X1163Y14450D01*
X984Y12520D02*
Y14272D01*
X276Y12953D02*
X326Y12902D01*
X394Y12520D02*
Y12740D01*
X236Y13048D02*
Y13287D01*
X79Y12567D02*
Y13287D01*
X394Y13182D02*
Y13287D01*
X472Y12992D02*
X508Y12957D01*
X79Y14468D02*
Y14696D01*
X157Y14774D01*
X-79Y14468D02*
Y14961D01*
X-236Y13642D02*
X0Y13878D01*
X-236Y13287D02*
Y13642D01*
D14*
X500Y15898D02*
G03*
X650Y15748I150J0D01*
G01*
X1000Y16126D02*
G03*
X1142Y15984I142J0D01*
G01*
X1870Y15492D02*
G03*
X1378Y15984I-492J0D01*
G01*
X1575Y15394D02*
G03*
X1220Y15748I-354J0D01*
G01*
X2244Y7913D02*
G03*
X2303Y8056I-143J143D01*
G01*
X2244Y7913D02*
G03*
X2165Y7723I190J-190D01*
G01*
X-967Y5502D02*
G03*
X-1181Y5413I0J-302D01*
G01*
D02*
G03*
X-1260Y5223I190J-190D01*
G01*
X-1155Y4540D02*
G03*
X-886Y4429I269J269D01*
G01*
X-1260Y4794D02*
G03*
X-1155Y4540I359J0D01*
G01*
X433Y4442D02*
G03*
X394Y4537I-134J0D01*
G01*
X-2067Y4874D02*
G03*
X-2087Y4921I-67J0D01*
G01*
X2493D02*
G03*
X2598Y5026I0J105D01*
G01*
Y6762D02*
G03*
X2195Y7165I-403J0D01*
G01*
X2165Y4921D02*
G03*
X2047Y4803I0J-118D01*
G01*
X689Y8466D02*
G03*
X787Y8228I336J0D01*
G01*
X1772Y7976D02*
G03*
X1732Y8071I-134J0D01*
G01*
X1772Y7589D02*
G03*
X2195Y7165I424J0D01*
G01*
X787Y8228D02*
G03*
X978Y8150I190J190D01*
G01*
X1732Y8071D02*
G03*
X1542Y8150I-190J-190D01*
G01*
X101Y7896D02*
G03*
X394Y8603I-707J707D01*
G01*
X-2402Y4921D02*
G03*
X-2421Y4874I48J-48D01*
G01*
X-2165Y5630D02*
G03*
X-2402Y5060I570J-570D01*
G01*
X-236Y3740D02*
G03*
X-379Y3799I-143J-143D01*
G01*
X-236Y3740D02*
G03*
X-141Y3701I95J95D01*
G01*
X689Y3414D02*
G03*
X591Y3652I-336J0D01*
G01*
D02*
G03*
X472Y3701I-119J-119D01*
G01*
X2047Y3652D02*
G03*
X2568Y3867I0J737D01*
G01*
X650Y15748D02*
X1220D01*
X500Y15898D02*
Y16890D01*
X1000Y16126D02*
Y16890D01*
X1142Y15984D02*
X1378D01*
X1870Y12520D02*
Y15492D01*
X1575Y12520D02*
Y15394D01*
X-492Y12520D02*
Y12736D01*
X-1396Y13640D02*
X-492Y12736D01*
X-1396Y13640D02*
Y14388D01*
X-1772Y14764D02*
X-1396Y14388D01*
X-1772Y14764D02*
Y15059D01*
Y13717D02*
X-787Y12733D01*
X-1772Y13717D02*
Y14059D01*
X-787Y12520D02*
Y12733D01*
X-1181Y13957D02*
X-945D01*
X2303Y8543D02*
Y8637D01*
X2165Y7579D02*
Y7723D01*
X-967Y5502D02*
X-591D01*
X-1260Y4794D02*
Y5223D01*
X-1181Y14272D02*
Y14508D01*
X709Y14961D02*
X945D01*
X-630D02*
X-394D01*
X-591Y14272D02*
X-591Y14272D01*
X-1181Y14272D02*
X-591D01*
X394Y14961D02*
Y15197D01*
X2303Y8056D02*
Y8169D01*
X236Y14641D02*
X394Y14798D01*
Y14961D01*
X236Y14468D02*
Y14641D01*
X433Y4035D02*
Y4442D01*
X-2067Y4429D02*
Y4874D01*
X2598Y5026D02*
Y6762D01*
X1772Y7589D02*
Y7976D01*
X2165Y4921D02*
X2493D01*
X2047Y4616D02*
Y4803D01*
X978Y8150D02*
X1542D01*
X689Y8466D02*
Y8661D01*
X-2165Y5630D02*
X101Y7896D01*
X-2421Y4429D02*
Y4874D01*
X-2402Y4921D02*
Y5060D01*
X394Y8603D02*
Y8661D01*
X-886Y3799D02*
X-379D01*
X-141Y3701D02*
X472D01*
X-591Y5502D02*
X20D01*
X-2421Y3425D02*
Y4429D01*
X-1476Y3799D02*
Y4429D01*
X2568Y3867D02*
X2657Y3957D01*
X689Y3406D02*
Y3414D01*
Y3051D02*
X1378D01*
D15*
X500Y16890D02*
D03*
X1000D02*
D03*
X-1000D02*
D03*
X-500D02*
D03*
X0D02*
D03*
D16*
X2165Y6831D02*
D03*
Y6240D02*
D03*
X-591Y5502D02*
D03*
Y4911D02*
D03*
D17*
X591Y13484D02*
D03*
Y13642D02*
D03*
Y13799D02*
D03*
Y13957D02*
D03*
Y14114D02*
D03*
Y14272D02*
D03*
X-591D02*
D03*
Y14114D02*
D03*
Y13957D02*
D03*
Y13799D02*
D03*
Y13642D02*
D03*
Y13484D02*
D03*
D18*
X394Y14468D02*
D03*
X236D02*
D03*
X79D02*
D03*
X-79D02*
D03*
X-236D02*
D03*
X-394D02*
D03*
Y13287D02*
D03*
X-236D02*
D03*
X-79D02*
D03*
X79D02*
D03*
X236D02*
D03*
X394D02*
D03*
D19*
X0Y13878D02*
D03*
D20*
X-1181Y14272D02*
D03*
Y13957D02*
D03*
D21*
X394Y14961D02*
D03*
X709D02*
D03*
X-79D02*
D03*
X-394D02*
D03*
X2618Y8169D02*
D03*
X2303D02*
D03*
X-2402Y4921D02*
D03*
X-2087D02*
D03*
X748Y4035D02*
D03*
X433D02*
D03*
D22*
X-787Y8661D02*
D03*
X1280D02*
D03*
X689D02*
D03*
X984D02*
D03*
X-492D02*
D03*
X98D02*
D03*
X-197D02*
D03*
X394D02*
D03*
X-1083Y12520D02*
D03*
X-1673D02*
D03*
X-1378D02*
D03*
X-1968D02*
D03*
X394D02*
D03*
X-197D02*
D03*
X98D02*
D03*
X-787D02*
D03*
X-492D02*
D03*
X984D02*
D03*
X689D02*
D03*
X1575D02*
D03*
X1280D02*
D03*
X1870D02*
D03*
X2165D02*
D03*
X2461D02*
D03*
D23*
X2638Y11181D02*
D03*
Y10886D02*
D03*
Y9114D02*
D03*
Y9409D02*
D03*
Y9705D02*
D03*
Y10000D02*
D03*
Y10295D02*
D03*
Y10591D02*
D03*
D24*
X2165Y7579D02*
D03*
X2756D02*
D03*
X1378Y5217D02*
D03*
X1969D02*
D03*
X1378Y3051D02*
D03*
X1969D02*
D03*
D25*
X-886Y3799D02*
D03*
Y3051D02*
D03*
X59Y3425D02*
D03*
X-1476Y3051D02*
D03*
Y3799D02*
D03*
X-2421Y3425D02*
D03*
D26*
X1043Y787D02*
D03*
D27*
X-1043Y1181D02*
D03*
D28*
X689Y3406D02*
D03*
Y3051D02*
D03*
X2657Y4311D02*
D03*
Y3957D02*
D03*
D29*
X-886Y4429D02*
D03*
X-1476D02*
D03*
D30*
X-2421D02*
D03*
X-2067D02*
D03*
D31*
X2047Y3652D02*
D03*
X1299D02*
D03*
Y4616D02*
D03*
X1673D02*
D03*
X2047D02*
D03*
X20Y5502D02*
D03*
X768D02*
D03*
Y4537D02*
D03*
X394D02*
D03*
X20D02*
D03*
D53*
X1481Y7298D02*
D03*
D54*
X1481Y7298D02*
G03*
X1280Y7382I-202J-202D01*
G01*
X1796Y6984D02*
G03*
X2165Y6831I370J370D01*
G01*
X787Y7382D02*
G03*
X492Y7087I0J-295D01*
G01*
Y6398D02*
G03*
X886Y6004I394J0D01*
G01*
X1378Y5709D02*
G03*
X1082Y6004I-295J0D01*
G01*
X1140Y5118D02*
G03*
X1378Y5216I0J336D01*
G01*
X1378Y5216D02*
G03*
X1299Y5026I190J-190D01*
G01*
X958Y4616D02*
G03*
X768Y4537I0J-269D01*
G01*
D02*
G03*
X748Y4490I48J-48D01*
G01*
X320Y5118D02*
G03*
X98Y5026I0J-313D01*
G01*
D02*
G03*
X20Y4836I190J-190D01*
G01*
X1481Y7298D02*
X1796Y6984D01*
X1481Y7298D02*
X1481Y7298D01*
X787Y7382D02*
X1280D01*
X492Y6398D02*
Y7087D01*
X1378Y5709D02*
X1378D01*
X886Y6004D02*
X1082D01*
X1378Y5216D02*
Y5709D01*
Y5216D02*
Y5216D01*
X958Y4616D02*
X1299D01*
Y5026D01*
X748Y4035D02*
Y4490D01*
X320Y5118D02*
X1140D01*
X20Y4537D02*
Y4836D01*
X0Y15898D02*
Y16890D01*
D55*
X2353Y11693D02*
G03*
X2195Y11535I0J-157D01*
G01*
X2303Y8637D02*
G03*
X2244Y8780I-202J0D01*
G01*
X2195Y8898D02*
G03*
X2244Y8780I167J0D01*
G01*
X2406Y9409D02*
G03*
X2195Y9199I0J-211D01*
G01*
X521Y7835D02*
G03*
X236Y7717I0J-403D01*
G01*
D02*
G03*
X20Y7194I523J-523D01*
G01*
X2195Y9199D02*
Y11535D01*
X2406Y9409D02*
X2638D01*
X2195Y8898D02*
Y9199D01*
X2303Y8169D02*
Y8543D01*
X-1732Y16496D02*
X-1000D01*
X20Y5502D02*
Y7194D01*
D56*
X-2047Y15787D02*
G03*
X-2520Y15315I0J-472D01*
G01*
X-2010Y15549D02*
G03*
X-2283Y15276I0J-274D01*
G01*
X-868Y15549D02*
G03*
X-500Y15917I0J368D01*
G01*
X2165Y16359D02*
G03*
X1635Y16890I-531J0D01*
G01*
X2618Y8039D02*
G03*
X2677Y7896I202J0D01*
G01*
X2756Y7706D02*
G03*
X2677Y7896I-269J0D01*
G01*
X-787Y8356D02*
G03*
X-669Y8071I403J0D01*
G01*
X-2047Y15787D02*
X-1220D01*
X-2520Y13917D02*
Y15315D01*
X-2010Y15549D02*
X-868D01*
X-2283Y13937D02*
Y15276D01*
X1378Y16890D02*
X1635D01*
X2165Y12520D02*
Y16359D01*
X-2283Y13937D02*
X-1378Y13031D01*
X-2520Y13917D02*
X-1673Y13071D01*
X2638Y8780D02*
Y9114D01*
X-500Y15917D02*
Y16890D01*
X-1378Y12520D02*
Y13031D01*
X-1673Y12520D02*
Y13071D01*
X-1968Y12520D02*
Y12953D01*
X2756Y7579D02*
Y7706D01*
X2618Y8039D02*
Y8169D01*
X-787Y8356D02*
Y8661D01*
X-2087Y4921D02*
Y5276D01*
X2461Y12087D02*
Y12520D01*
X2756Y7224D02*
Y7579D01*
X2165Y5886D02*
Y6240D01*
X1969Y5217D02*
Y5571D01*
X2657Y4311D02*
Y4665D01*
X1673Y4262D02*
Y4616D01*
X-945Y4911D02*
X-591D01*
X79Y4035D02*
X433D01*
X-394Y3425D02*
X59D01*
X1969Y3051D02*
X2323D01*
D57*
X-984Y2559D02*
G03*
X-1043Y2417I143J-143D01*
G01*
X-984Y2559D02*
G03*
X-886Y2797I-238J238D01*
G01*
X1299Y3537D02*
G03*
X1378Y3346I269J0D01*
G01*
X1280Y2264D02*
G03*
X1378Y2501I-238J238D01*
G01*
X1280Y2264D02*
G03*
X1043Y1694I570J-570D01*
G01*
X-1476Y3051D02*
X-886D01*
X-1043Y1181D02*
Y2417D01*
X-886Y2797D02*
Y3051D01*
X1299Y3537D02*
Y3652D01*
X1378Y3051D02*
Y3346D01*
X1043Y787D02*
Y1694D01*
X1378Y2501D02*
Y3051D01*
D58*
X-2598Y12957D02*
D03*
X-1772Y14059D02*
D03*
Y15059D02*
D03*
D59*
X1280Y7382D02*
D03*
D60*
Y6594D02*
D03*
D61*
X-630Y13228D02*
D03*
X-945Y13957D02*
D03*
X2303Y8543D02*
D03*
X0Y15898D02*
D03*
X-1377Y17323D02*
D03*
X-1181Y14508D02*
D03*
X-1220Y15787D02*
D03*
X1378Y16890D02*
D03*
X945Y14961D02*
D03*
X-630D02*
D03*
X394Y15197D02*
D03*
X521Y7835D02*
D03*
D62*
X2638Y8780D02*
D03*
X-1968Y12953D02*
D03*
X2461Y12087D02*
D03*
X-669Y8071D02*
D03*
X2756Y7224D02*
D03*
X2165Y5886D02*
D03*
X1969Y5571D02*
D03*
X2657Y4665D02*
D03*
X1673Y4262D02*
D03*
X-945Y4911D02*
D03*
X-2087Y5276D02*
D03*
X79Y4035D02*
D03*
X-394Y3425D02*
D03*
X2323Y3051D02*
D03*
D63*
X2353Y11693D02*
D03*
X-1732Y16496D02*
D03*
D64*
X157Y13681D02*
D03*
X-157Y14075D02*
D03*
X157D02*
D03*
X-157Y13681D02*
D03*
X0Y13878D02*
D03*
M02*
