G04*
G04 #@! TF.GenerationSoftware,Altium Limited,Altium Designer,18.1.6 (161)*
G04*
G04 Layer_Color=65535*
%FSLAX24Y24*%
%MOIN*%
G70*
G01*
G75*
%ADD10C,0.0098*%
%ADD11C,0.0039*%
%ADD12C,0.0080*%
%ADD13C,0.0079*%
%ADD14C,0.0100*%
D10*
X974Y13268D02*
G03*
X974Y13268I-49J0D01*
G01*
X-837Y4134D02*
G03*
X-837Y4134I-49J0D01*
G01*
X-1427Y2717D02*
G03*
X-1427Y2717I-49J0D01*
G01*
X2421Y4616D02*
G03*
X2421Y4616I-49J0D01*
G01*
X-256Y4537D02*
G03*
X-256Y4537I-49J0D01*
G01*
D11*
X-1555Y4724D02*
G03*
X-1555Y4724I-20J0D01*
G01*
D12*
X-1240Y5906D02*
Y8169D01*
X925D01*
Y5807D02*
Y8169D01*
X-1240Y5807D02*
X925D01*
X-1240D02*
Y5906D01*
X2165Y0D02*
Y2559D01*
X-2165D02*
X2165D01*
X-2165Y0D02*
Y2559D01*
Y0D02*
X2165D01*
D13*
X1890Y7087D02*
X2441D01*
Y5984D02*
Y7087D01*
X1890Y5984D02*
X2441D01*
X1890D02*
Y7087D01*
X669Y13209D02*
Y13287D01*
X591Y13209D02*
X669D01*
X-669D02*
X-591D01*
X-669D02*
Y13287D01*
Y14468D02*
Y14547D01*
X-591D01*
X669Y14468D02*
Y14547D01*
X591D02*
X669D01*
X-1378Y13780D02*
Y14449D01*
X-984D01*
Y13780D02*
Y14449D01*
X-1378Y13780D02*
X-984D01*
X217Y14764D02*
X886D01*
X217D02*
Y15157D01*
X886D01*
Y14764D02*
Y15157D01*
X-571D02*
X98D01*
Y14764D02*
Y15157D01*
X-571Y14764D02*
X98D01*
X-571D02*
Y15157D01*
X2126Y8366D02*
X2795D01*
Y7972D02*
Y8366D01*
X2126Y7972D02*
X2795D01*
X2126D02*
Y8366D01*
X1909Y7303D02*
Y7854D01*
X3012D01*
Y7303D02*
Y7854D01*
X1909Y7303D02*
X3012D01*
X-531Y4016D02*
X-138D01*
Y3701D02*
Y4016D01*
X-531Y2835D02*
X-138D01*
Y3150D01*
X453Y2795D02*
X925D01*
Y3661D01*
X453D02*
X925D01*
X453Y2795D02*
Y3661D01*
X-2224Y2835D02*
X-1831D01*
X-2224D02*
Y3150D01*
Y4016D02*
X-1831D01*
X-2224Y3701D02*
Y4016D01*
X-1811Y4193D02*
Y4665D01*
X-2677D02*
X-1811D01*
X-2677Y4193D02*
Y4665D01*
Y4193D02*
X-1811D01*
X-2579Y4724D02*
X-1909D01*
X-2579D02*
Y5118D01*
X-1909D01*
Y4724D02*
Y5118D01*
X1102Y3976D02*
X2244D01*
X1102Y4291D02*
X2244D01*
X1102Y3976D02*
Y4291D01*
X2244Y3976D02*
Y4291D01*
X2421Y3701D02*
X2894D01*
Y4567D01*
X2421D02*
X2894D01*
X2421Y3701D02*
Y4567D01*
X1122Y4941D02*
Y5492D01*
X2224D01*
Y4941D02*
Y5492D01*
X1122Y4941D02*
X2224D01*
X1122Y2776D02*
Y3327D01*
X2224D01*
Y2776D02*
Y3327D01*
X1122Y2776D02*
X2224D01*
X-177Y5177D02*
X965D01*
X-177Y4862D02*
X965D01*
Y5177D01*
X-177Y4862D02*
Y5177D01*
X-866Y5758D02*
X-315D01*
Y4656D02*
Y5758D01*
X-866Y4656D02*
X-315D01*
X-866D02*
Y5758D01*
X256Y4232D02*
X925D01*
Y3839D02*
Y4232D01*
X256Y3839D02*
X925D01*
X256D02*
Y4232D01*
D14*
X2776Y12244D02*
Y12657D01*
X-2933Y12264D02*
Y12657D01*
X-2146D01*
X2638D02*
X2776D01*
X2638Y8524D02*
X2776D01*
Y8937D01*
X-2933Y8524D02*
X-965D01*
X-2933D02*
Y8917D01*
M02*
