G04*
G04 #@! TF.GenerationSoftware,Altium Limited,Altium Designer,18.1.6 (161)*
G04*
G04 Layer_Physical_Order=2*
G04 Layer_Color=16711680*
%FSLAX24Y24*%
%MOIN*%
G70*
G01*
G75*
%ADD15R,0.0236X0.1575*%
%ADD54C,0.0250*%
%ADD55C,0.0160*%
%ADD56C,0.0120*%
%ADD58C,0.0472*%
%ADD59R,0.0492X0.0492*%
%ADD60C,0.0492*%
%ADD61C,0.0236*%
%ADD62C,0.0315*%
%ADD63C,0.0300*%
%ADD64C,0.0157*%
G36*
X3150Y0D02*
X-3150D01*
X-3150Y7140D01*
X-955D01*
X-909Y7159D01*
X-890Y7205D01*
Y12198D01*
X-890Y12198D01*
Y12205D01*
X-909Y12251D01*
X-955Y12270D01*
X-2894Y12270D01*
X-2896Y12269D01*
X-3149Y12270D01*
X-3150Y12344D01*
X-3150Y17717D01*
X-1178D01*
Y17466D01*
X-1258D01*
X-1305Y17497D01*
X-1377Y17511D01*
X-1772D01*
Y17513D01*
X-1963Y17494D01*
X-2146Y17438D01*
X-2315Y17348D01*
X-2463Y17227D01*
X-2584Y17079D01*
X-2674Y16910D01*
X-2730Y16727D01*
X-2749Y16536D01*
X-2748D01*
Y14063D01*
X-2748D01*
X-2732Y13894D01*
X-2682Y13732D01*
X-2602Y13582D01*
X-2494Y13450D01*
X-2363Y13343D01*
X-2213Y13263D01*
X-2051Y13213D01*
X-1882Y13197D01*
Y13197D01*
X-1309D01*
X-1304Y13198D01*
X-1245Y13186D01*
X-1191Y13150D01*
X-1160Y13105D01*
X-1144Y13031D01*
X-1144D01*
X-1127Y12901D01*
X-1076Y12779D01*
X-996Y12675D01*
X-892Y12595D01*
X-770Y12544D01*
X-640Y12527D01*
Y12528D01*
X-551D01*
X-548Y12528D01*
X-502Y12519D01*
X-461Y12492D01*
X-433Y12450D01*
X-424Y12404D01*
X-425Y12402D01*
Y7811D01*
X-424Y7804D01*
X-412Y7690D01*
X-377Y7575D01*
X-320Y7468D01*
X-244Y7375D01*
X-150Y7298D01*
X-44Y7241D01*
X72Y7206D01*
X186Y7195D01*
X192Y7193D01*
X973D01*
Y7076D01*
X1586D01*
Y7688D01*
X1255D01*
X1235Y7768D01*
X1348Y7828D01*
X1472Y7930D01*
X1471Y7931D01*
X1690Y8149D01*
X1690Y8149D01*
X1749Y8200D01*
X1819Y8258D01*
X1967Y8337D01*
X2128Y8386D01*
X2207Y8394D01*
X2234Y8376D01*
X2303Y8362D01*
X2373Y8376D01*
X2432Y8415D01*
X2471Y8474D01*
X2485Y8543D01*
X2471Y8613D01*
X2432Y8672D01*
X2373Y8711D01*
X2303Y8725D01*
X2234Y8711D01*
X2184Y8678D01*
X2117Y8673D01*
X1943Y8631D01*
X1777Y8562D01*
X1624Y8468D01*
X1487Y8352D01*
X1487Y8352D01*
X1431Y8295D01*
X1269Y8132D01*
X1265Y8127D01*
X1160Y8046D01*
X1032Y7993D01*
X902Y7976D01*
X895Y7977D01*
X628D01*
X591Y8002D01*
X521Y8016D01*
X452Y8002D01*
X393Y7963D01*
X354Y7904D01*
X340Y7835D01*
X354Y7765D01*
X393Y7706D01*
X452Y7667D01*
X521Y7653D01*
X591Y7667D01*
X628Y7692D01*
X815D01*
X875Y7691D01*
X928Y7624D01*
X907Y7571D01*
X192D01*
X184Y7569D01*
X99Y7586D01*
X20Y7638D01*
X-32Y7717D01*
X-49Y7802D01*
X-48Y7811D01*
Y12402D01*
X-47D01*
X-64Y12532D01*
X-114Y12654D01*
X-195Y12758D01*
X-299Y12838D01*
X-421Y12889D01*
X-551Y12906D01*
Y12905D01*
X-640D01*
X-642Y12905D01*
X-689Y12914D01*
X-730Y12941D01*
X-743Y12961D01*
X-765Y13032D01*
X-765D01*
X-784Y13172D01*
X-838Y13303D01*
X-924Y13416D01*
X-1037Y13503D01*
X-1168Y13557D01*
X-1309Y13575D01*
Y13574D01*
X-1882D01*
X-1890Y13573D01*
X-2009Y13588D01*
X-2127Y13637D01*
X-2229Y13716D01*
X-2307Y13817D01*
X-2357Y13936D01*
X-2372Y14055D01*
X-2370Y14063D01*
Y16536D01*
X-2371Y16541D01*
X-2360Y16653D01*
X-2326Y16766D01*
X-2271Y16869D01*
X-2196Y16960D01*
X-2105Y17035D01*
X-2002Y17090D01*
X-1889Y17124D01*
X-1777Y17135D01*
X-1772Y17134D01*
X-1520D01*
Y16696D01*
X-1534Y16684D01*
X-1600Y16660D01*
X-1650Y16694D01*
X-1732Y16710D01*
X-1814Y16694D01*
X-1884Y16647D01*
X-1930Y16578D01*
X-1946Y16496D01*
X-1930Y16414D01*
X-1884Y16345D01*
X-1875Y16339D01*
Y15591D01*
X-1875Y15591D01*
X-1864Y15536D01*
X-1833Y15490D01*
X-1780Y15437D01*
X-1810Y15353D01*
X-1849Y15348D01*
X-1921Y15318D01*
X-1983Y15270D01*
X-2030Y15208D01*
X-2060Y15136D01*
X-2070Y15059D01*
X-2060Y14982D01*
X-2030Y14910D01*
X-1983Y14848D01*
X-1921Y14800D01*
X-1849Y14770D01*
X-1772Y14760D01*
X-1694Y14770D01*
X-1622Y14800D01*
X-1560Y14848D01*
X-1513Y14910D01*
X-1483Y14982D01*
X-1478Y15021D01*
X-1394Y15050D01*
X-1324Y14980D01*
Y14615D01*
X-1349Y14577D01*
X-1363Y14508D01*
X-1349Y14438D01*
X-1310Y14379D01*
X-1251Y14340D01*
X-1181Y14326D01*
X-1112Y14340D01*
X-1053Y14379D01*
X-1013Y14438D01*
X-1000Y14508D01*
X-1013Y14577D01*
X-1038Y14615D01*
Y14980D01*
X-909Y15110D01*
X91D01*
X105Y15096D01*
X105Y15096D01*
X151Y15065D01*
X206Y15054D01*
X206Y15054D01*
X287D01*
X324Y15029D01*
X394Y15015D01*
X463Y15029D01*
X501Y15054D01*
X709D01*
X709Y15054D01*
X763Y15065D01*
X806Y15093D01*
X1802D01*
X1803Y15094D01*
X1858Y15083D01*
X1905Y15051D01*
X1936Y15004D01*
X1947Y14950D01*
X1947Y14949D01*
Y11956D01*
X1946D01*
X1960Y11851D01*
X2001Y11753D01*
X2065Y11669D01*
X2149Y11604D01*
X2163Y11598D01*
X2201Y11542D01*
X2271Y11495D01*
X2353Y11479D01*
X2435Y11495D01*
X2504Y11542D01*
X2550Y11611D01*
X2567Y11693D01*
X2550Y11775D01*
X2504Y11844D01*
X2435Y11891D01*
X2353Y11907D01*
X2271Y11891D01*
X2232Y11956D01*
Y14949D01*
X2233D01*
X2219Y15060D01*
X2175Y15164D01*
X2107Y15254D01*
X2018Y15322D01*
X1913Y15365D01*
X1802Y15380D01*
Y15379D01*
X748D01*
X748Y15379D01*
X693Y15368D01*
X651Y15340D01*
X501D01*
X463Y15365D01*
X394Y15378D01*
X324Y15365D01*
X287Y15340D01*
X265D01*
X251Y15353D01*
X205Y15384D01*
X150Y15395D01*
X150Y15395D01*
X135D01*
X95Y15475D01*
X101Y15483D01*
X132Y15558D01*
X142Y15635D01*
X143Y15637D01*
Y15791D01*
X168Y15828D01*
X182Y15898D01*
X168Y15967D01*
X128Y16026D01*
X69Y16065D01*
X0Y16079D01*
X-69Y16065D01*
X-128Y16026D01*
X-168Y15967D01*
X-182Y15898D01*
X-168Y15828D01*
X-143Y15791D01*
Y15637D01*
X-143D01*
X-150Y15622D01*
X-165Y15616D01*
Y15615D01*
X-497D01*
X-522Y15695D01*
X-460Y15736D01*
X-406Y15817D01*
X-387Y15913D01*
X-389D01*
Y16042D01*
X-322D01*
Y17717D01*
X822D01*
Y16042D01*
X1178D01*
Y16727D01*
X1214Y16744D01*
X1258Y16756D01*
X1308Y16722D01*
X1378Y16708D01*
X1447Y16722D01*
X1506Y16761D01*
X1546Y16820D01*
X1560Y16890D01*
X1546Y16959D01*
X1506Y17018D01*
X1447Y17058D01*
X1378Y17071D01*
X1308Y17058D01*
X1258Y17024D01*
X1214Y17035D01*
X1178Y17052D01*
Y17717D01*
X3150D01*
X3150Y0D01*
D02*
G37*
G36*
X-678Y16042D02*
X-634D01*
Y15913D01*
X-637D01*
X-637Y15913D01*
X-638Y15912D01*
Y15910D01*
X-1088D01*
X-1092Y15916D01*
X-1145Y15951D01*
X-1156Y15996D01*
X-1162Y16039D01*
X-1159Y16042D01*
X-822D01*
Y17717D01*
X-678D01*
Y16042D01*
D02*
G37*
%LPC*%
G36*
X-1772Y14358D02*
X-1849Y14348D01*
X-1921Y14318D01*
X-1983Y14270D01*
X-2030Y14208D01*
X-2060Y14136D01*
X-2070Y14059D01*
X-2060Y13982D01*
X-2030Y13910D01*
X-1983Y13848D01*
X-1921Y13800D01*
X-1849Y13770D01*
X-1772Y13760D01*
X-1694Y13770D01*
X-1622Y13800D01*
X-1560Y13848D01*
X-1513Y13910D01*
X-1483Y13982D01*
X-1473Y14059D01*
X-1483Y14136D01*
X-1513Y14208D01*
X-1560Y14270D01*
X-1622Y14318D01*
X-1694Y14348D01*
X-1772Y14358D01*
D02*
G37*
%LPD*%
D15*
X0Y16890D02*
D03*
X500D02*
D03*
X1000D02*
D03*
X-1000D02*
D03*
X-500D02*
D03*
D54*
X-236Y12402D02*
G03*
X-551Y12717I-315J0D01*
G01*
X-955Y13032D02*
G03*
X-640Y12717I315J0D01*
G01*
X-2559Y14063D02*
G03*
X-1882Y13386I677J0D01*
G01*
X-955Y13032D02*
G03*
X-1309Y13386I-354J0D01*
G01*
X-1772Y17323D02*
G03*
X-2559Y16536I0J-787D01*
G01*
X-236Y7811D02*
G03*
X192Y7382I429J0D01*
G01*
X-236Y7811D02*
Y12402D01*
X-640Y12717D02*
X-551D01*
X-1882Y13386D02*
X-1309D01*
X-1772Y17323D02*
X-1377D01*
X192Y7382D02*
X1280D01*
X-2559Y14063D02*
Y16536D01*
D55*
X-165Y15472D02*
G03*
X0Y15637I0J165D01*
G01*
X2090Y11956D02*
G03*
X2353Y11693I263J0D01*
G01*
X2090Y14949D02*
G03*
X1802Y15236I-288J0D01*
G01*
X2296Y8543D02*
G03*
X1589Y8250I0J-1000D01*
G01*
X895Y7835D02*
G03*
X1370Y8031I0J672D01*
G01*
X-1181Y15039D02*
X-968Y15252D01*
X-1732Y15591D02*
X-1181Y15039D01*
Y14508D02*
Y15039D01*
X-968Y15252D02*
X150D01*
X-1271Y15472D02*
X-165D01*
X-1377Y17323D02*
X-1000D01*
X2090Y11956D02*
Y14949D01*
X748Y15236D02*
X1802D01*
X709Y15197D02*
X748Y15236D01*
X394Y15197D02*
X709D01*
X206D02*
X394D01*
X150Y15252D02*
X206Y15197D01*
X-1479Y15680D02*
X-1271Y15472D01*
X-1479Y15680D02*
Y16002D01*
X-1377Y16103D01*
Y17323D01*
X0Y15637D02*
Y15898D01*
X2296Y8543D02*
X2303D01*
X-1732Y15591D02*
Y16496D01*
X1370Y8031D02*
X1589Y8250D01*
X521Y7835D02*
X895D01*
D56*
X-638Y15787D02*
G03*
X-512Y15913I0J126D01*
G01*
X-1220Y15787D02*
X-638D01*
X-512Y15913D02*
Y16890D01*
X1000D02*
X1378D01*
D58*
X-2598Y12957D02*
D03*
X-1772Y14059D02*
D03*
Y15059D02*
D03*
D59*
X1280Y7382D02*
D03*
D60*
Y6594D02*
D03*
D61*
X-630Y13228D02*
D03*
X-945Y13957D02*
D03*
X2303Y8543D02*
D03*
X0Y15898D02*
D03*
X-1377Y17323D02*
D03*
X-1181Y14508D02*
D03*
X-1220Y15787D02*
D03*
X1378Y16890D02*
D03*
X945Y14961D02*
D03*
X-630D02*
D03*
X394Y15197D02*
D03*
X521Y7835D02*
D03*
D62*
X2638Y8780D02*
D03*
X-1968Y12953D02*
D03*
X2461Y12087D02*
D03*
X-669Y8071D02*
D03*
X2756Y7224D02*
D03*
X2165Y5886D02*
D03*
X1969Y5571D02*
D03*
X2657Y4665D02*
D03*
X1673Y4262D02*
D03*
X-945Y4911D02*
D03*
X-2087Y5276D02*
D03*
X79Y4035D02*
D03*
X-394Y3425D02*
D03*
X2323Y3051D02*
D03*
D63*
X2353Y11693D02*
D03*
X-1732Y16496D02*
D03*
D64*
X157Y13681D02*
D03*
X-157Y14075D02*
D03*
X157D02*
D03*
X-157Y13681D02*
D03*
X0Y13878D02*
D03*
M02*
