G04*
G04 #@! TF.GenerationSoftware,Altium Limited,Altium Designer,18.1.6 (161)*
G04*
G04 Layer_Color=65535*
%FSLAX24Y24*%
%MOIN*%
G70*
G01*
G75*
%ADD10C,0.0098*%
%ADD11C,0.0079*%
%ADD12C,0.0080*%
%ADD13C,0.0100*%
D10*
X610Y6368D02*
G03*
X610Y6368I-49J0D01*
G01*
X2598Y4577D02*
G03*
X2598Y4577I-49J0D01*
G01*
X738Y6358D02*
G03*
X738Y6358I-49J0D01*
G01*
X-2579Y5030D02*
G03*
X-2579Y5030I-49J0D01*
G01*
X974Y13701D02*
G03*
X974Y13701I-49J0D01*
G01*
X30Y2717D02*
G03*
X30Y2717I-49J0D01*
G01*
D11*
X-1772Y2835D02*
X-1299D01*
Y3701D01*
X-1772D02*
X-1299D01*
X-1772Y2835D02*
Y3701D01*
X2519Y3356D02*
X2992D01*
Y4222D01*
X2519D02*
X2992D01*
X2519Y3356D02*
Y4222D01*
X591Y4409D02*
X1142D01*
Y3307D02*
Y4409D01*
X591Y3307D02*
X1142D01*
X591D02*
Y4409D01*
X-1142Y6122D02*
X-669D01*
X-1142Y5256D02*
Y6122D01*
Y5256D02*
X-669D01*
Y6122D01*
X689Y6693D02*
Y7008D01*
X1831Y6693D02*
Y7008D01*
X689Y6693D02*
X1831D01*
X689Y7008D02*
X1831D01*
X709Y7559D02*
Y8110D01*
X1811D01*
Y7559D02*
Y8110D01*
X709Y7559D02*
X1811D01*
X846Y5669D02*
X1516D01*
X846D02*
Y6063D01*
X1516D01*
Y5669D02*
Y6063D01*
X2421Y3937D02*
Y4252D01*
X1280Y3937D02*
Y4252D01*
X2421D01*
X1280Y3937D02*
X2421D01*
X-591Y5522D02*
Y6102D01*
X-522D01*
X-591Y4764D02*
Y5344D01*
Y4764D02*
X-522D01*
X679D02*
X748D01*
Y5344D01*
Y5522D02*
Y6102D01*
X679D02*
X748D01*
X-2323Y4921D02*
X-1929D01*
X-2323Y3740D02*
X-1929D01*
X-2323D02*
Y4921D01*
X-1929Y3740D02*
Y4921D01*
X-768Y4094D02*
X-98D01*
X-768D02*
Y4488D01*
X-98D01*
Y4094D02*
Y4488D01*
X-984Y4528D02*
Y5197D01*
X-1378Y4528D02*
X-984D01*
X-1378D02*
Y5197D01*
X-984D01*
Y3839D02*
Y4508D01*
X-1378Y3839D02*
X-984D01*
X-1378D02*
Y4508D01*
X-984D01*
X1299Y4843D02*
Y5394D01*
X2402D01*
Y4843D02*
Y5394D01*
X1299Y4843D02*
X2402D01*
X1299Y2776D02*
Y3327D01*
X2402D01*
Y2776D02*
Y3327D01*
X1299Y2776D02*
X2402D01*
X-2461Y3248D02*
X-1791D01*
X-2461D02*
Y3642D01*
X-1791D01*
Y3248D02*
Y3642D01*
X1969Y5551D02*
Y6024D01*
Y5551D02*
X2835D01*
Y6024D01*
X1969D02*
X2835D01*
X1969Y6969D02*
Y7441D01*
Y6969D02*
X2835D01*
Y7441D01*
X1969D02*
X2835D01*
X827Y4705D02*
Y5374D01*
X1220D01*
Y4705D02*
Y5374D01*
X827Y4705D02*
X1220D01*
X-2559Y5000D02*
Y5472D01*
Y5000D02*
X-1693D01*
Y5472D01*
X-2559D02*
X-1693D01*
X-2953Y3701D02*
X-2480D01*
X-2953Y2835D02*
Y3701D01*
Y2835D02*
X-2480D01*
Y3701D01*
X-2559Y5472D02*
Y5945D01*
Y5472D02*
X-1693D01*
Y5945D01*
X-2559D02*
X-1693D01*
X669Y13642D02*
Y13720D01*
X591Y13642D02*
X669D01*
X-669D02*
X-591D01*
X-669D02*
Y13720D01*
Y14902D02*
Y14980D01*
X-591D01*
X669Y14902D02*
Y14980D01*
X591D02*
X669D01*
X-1378Y14213D02*
Y14882D01*
X-984D01*
Y14213D02*
Y14882D01*
X-1378Y14213D02*
X-984D01*
X217Y15197D02*
X886D01*
X217D02*
Y15591D01*
X886D01*
Y15197D02*
Y15591D01*
X-571D02*
X98D01*
Y15197D02*
Y15591D01*
X-571Y15197D02*
X98D01*
X-571D02*
Y15591D01*
X2126Y8799D02*
X2795D01*
Y8406D02*
Y8799D01*
X2126Y8406D02*
X2795D01*
X2126D02*
Y8799D01*
X1909Y7736D02*
Y8287D01*
X3012D01*
Y7736D02*
Y8287D01*
X1909Y7736D02*
X3012D01*
X-768Y2835D02*
X-374D01*
X-768D02*
Y3150D01*
Y4016D02*
X-374D01*
X-768Y3701D02*
Y4016D01*
X1201Y2815D02*
Y3287D01*
X335D02*
X1201D01*
X335Y2815D02*
Y3287D01*
Y2815D02*
X1201D01*
X2835Y6024D02*
Y6496D01*
X1969D02*
X2835D01*
X1969Y6024D02*
Y6496D01*
Y6024D02*
X2835D01*
Y6496D02*
Y6969D01*
X1969D02*
X2835D01*
X1969Y6496D02*
Y6969D01*
Y6496D02*
X2835D01*
X-39Y8071D02*
X512D01*
Y6969D02*
Y8071D01*
X-39Y6969D02*
X512D01*
X-39D02*
Y8071D01*
D12*
X-2165Y0D02*
X2165D01*
X-2165D02*
Y2559D01*
X2165D01*
Y0D02*
Y2559D01*
X-3150Y6437D02*
Y8701D01*
X-984D01*
Y6339D02*
Y8701D01*
X-3150Y6339D02*
X-984D01*
X-3150D02*
Y6437D01*
D13*
X2776Y12677D02*
Y13091D01*
X-2933Y12697D02*
Y13091D01*
X-2146D01*
X2638D02*
X2776D01*
X2638Y8957D02*
X2776D01*
Y9370D01*
X-2933Y8957D02*
X-965D01*
X-2933D02*
Y9350D01*
M02*
