G04*
G04 #@! TF.GenerationSoftware,Altium Limited,Altium Designer,18.1.6 (161)*
G04*
G04 Layer_Color=8388736*
%FSLAX24Y24*%
%MOIN*%
G70*
G01*
G75*
%ADD33R,0.0297X0.0297*%
%ADD34R,0.0395X0.0395*%
%ADD35R,0.0297X0.0415*%
%ADD36R,0.0395X0.0395*%
%ADD37R,0.0237X0.0277*%
%ADD38R,0.1025X0.0730*%
%ADD39O,0.0198X0.0316*%
%ADD40R,0.0395X0.0297*%
%ADD41R,0.0671X0.2442*%
%ADD42R,0.0671X0.1655*%
%ADD43R,0.0277X0.0237*%
%ADD44R,0.0297X0.0297*%
%ADD45R,0.0316X0.1655*%
%ADD46O,0.0316X0.0159*%
%ADD47O,0.0159X0.0316*%
%ADD48R,0.0686X0.0749*%
%ADD49R,0.0277X0.0552*%
%ADD50R,0.0552X0.0277*%
%ADD51R,0.0474X0.0316*%
%ADD52C,0.0552*%
%ADD53R,0.0552X0.0552*%
%ADD54R,0.0572X0.0572*%
%ADD55C,0.0572*%
%ADD56C,0.0237*%
G36*
X2676Y17626D02*
X2681Y17625D01*
X2686Y17623D01*
X2687Y17623D01*
X2691Y17621D01*
X2696Y17619D01*
X2702Y17614D01*
X2710Y17609D01*
X2719Y17601D01*
X2723Y17597D01*
X2728Y17592D01*
X2733Y17586D01*
X2739Y17580D01*
X2739Y17579D01*
X2740Y17578D01*
X2742Y17577D01*
X2743Y17574D01*
X2745Y17571D01*
X2748Y17567D01*
X2754Y17559D01*
X2761Y17549D01*
X2768Y17537D01*
X2774Y17526D01*
X2773Y17528D01*
X2772Y17536D01*
Y17536D01*
X2772Y17537D01*
Y17540D01*
X2771Y17543D01*
Y17547D01*
X2770Y17551D01*
Y17566D01*
X2771Y17568D01*
X2772Y17575D01*
X2773Y17583D01*
X2775Y17591D01*
X2779Y17600D01*
X2784Y17608D01*
X2791Y17615D01*
X2792Y17616D01*
X2795Y17618D01*
X2799Y17620D01*
X2806Y17623D01*
X2814Y17625D01*
X2823Y17625D01*
X2829Y17625D01*
X2835Y17624D01*
X2841Y17623D01*
X2847Y17621D01*
X2848D01*
X2850Y17620D01*
X2853Y17619D01*
X2857Y17617D01*
X2861Y17615D01*
X2867Y17612D01*
X2873Y17608D01*
X2879Y17605D01*
X2886Y17600D01*
X2893Y17594D01*
X2901Y17588D01*
X2909Y17581D01*
X2916Y17574D01*
X2923Y17565D01*
X2930Y17556D01*
X2937Y17546D01*
X2938Y17546D01*
X2939Y17543D01*
X2940Y17541D01*
X2942Y17536D01*
X2946Y17531D01*
X2949Y17524D01*
X2953Y17517D01*
X2957Y17508D01*
X2961Y17499D01*
X2965Y17489D01*
X2970Y17477D01*
X2974Y17465D01*
X2978Y17452D01*
X2982Y17439D01*
X2986Y17424D01*
X2989Y17410D01*
Y17409D01*
X2990Y17407D01*
X2990Y17405D01*
Y17402D01*
X2992Y17395D01*
X2992Y17388D01*
Y17386D01*
X2992Y17384D01*
Y17382D01*
X2989Y17377D01*
X2988Y17376D01*
X2986Y17374D01*
X2985Y17374D01*
X2982Y17373D01*
X2978D01*
X2973Y17374D01*
X2972D01*
X2971Y17375D01*
X2969Y17377D01*
X2966Y17380D01*
X2963Y17383D01*
X2960Y17388D01*
X2958Y17395D01*
X2957Y17404D01*
Y17404D01*
X2956Y17406D01*
X2956Y17410D01*
X2955Y17414D01*
X2954Y17421D01*
X2952Y17427D01*
X2951Y17435D01*
X2948Y17443D01*
X2946Y17452D01*
X2944Y17461D01*
X2938Y17481D01*
X2930Y17500D01*
X2921Y17520D01*
X2921Y17520D01*
X2920Y17522D01*
X2918Y17525D01*
X2916Y17528D01*
X2914Y17532D01*
X2910Y17537D01*
X2906Y17542D01*
X2902Y17547D01*
X2892Y17558D01*
X2880Y17568D01*
X2873Y17574D01*
X2865Y17578D01*
X2858Y17582D01*
X2850Y17585D01*
X2849D01*
X2847Y17586D01*
X2845Y17586D01*
X2842Y17587D01*
X2838Y17588D01*
X2834D01*
X2830Y17587D01*
X2825Y17586D01*
X2821Y17585D01*
X2816Y17583D01*
X2812Y17579D01*
X2809Y17575D01*
X2805Y17569D01*
X2803Y17562D01*
X2802Y17554D01*
X2801Y17544D01*
Y17537D01*
X2802Y17532D01*
Y17526D01*
X2802Y17519D01*
X2804Y17505D01*
Y17504D01*
X2805Y17502D01*
X2805Y17498D01*
X2806Y17493D01*
X2808Y17486D01*
X2809Y17478D01*
X2811Y17470D01*
X2813Y17460D01*
Y17459D01*
X2814Y17459D01*
X2814Y17457D01*
X2815Y17455D01*
X2818Y17450D01*
X2821Y17443D01*
X2824Y17437D01*
X2827Y17430D01*
X2829Y17424D01*
X2832Y17419D01*
Y17419D01*
X2832Y17418D01*
X2833Y17416D01*
X2833Y17413D01*
X2835Y17407D01*
X2835Y17401D01*
Y17400D01*
X2835Y17397D01*
X2833Y17394D01*
X2832Y17393D01*
X2829Y17392D01*
X2829D01*
X2828Y17391D01*
X2826D01*
X2821D01*
X2816Y17392D01*
X2815D01*
X2814Y17393D01*
X2812Y17394D01*
X2810Y17396D01*
X2807Y17398D01*
X2804Y17401D01*
X2801Y17405D01*
X2799Y17410D01*
Y17411D01*
X2798Y17413D01*
X2797Y17416D01*
X2796Y17419D01*
X2793Y17428D01*
X2790Y17436D01*
Y17437D01*
X2789Y17439D01*
X2788Y17443D01*
X2786Y17447D01*
X2785Y17452D01*
X2782Y17458D01*
X2777Y17471D01*
Y17471D01*
X2776Y17473D01*
X2775Y17475D01*
X2774Y17478D01*
X2772Y17482D01*
X2769Y17487D01*
X2764Y17498D01*
X2758Y17510D01*
X2751Y17523D01*
X2743Y17536D01*
X2735Y17548D01*
Y17548D01*
X2734Y17549D01*
X2733Y17550D01*
X2731Y17553D01*
X2727Y17558D01*
X2721Y17564D01*
X2715Y17571D01*
X2707Y17577D01*
X2699Y17583D01*
X2695Y17585D01*
X2691Y17586D01*
X2690D01*
X2688Y17587D01*
X2685Y17588D01*
X2681D01*
X2677D01*
X2673Y17588D01*
X2669Y17586D01*
X2667Y17583D01*
X2666Y17582D01*
X2666Y17581D01*
X2665Y17578D01*
X2663Y17575D01*
X2662Y17570D01*
X2661Y17565D01*
X2660Y17558D01*
X2660Y17549D01*
Y17546D01*
X2660Y17543D01*
Y17540D01*
X2661Y17536D01*
X2661Y17531D01*
X2662Y17526D01*
X2665Y17515D01*
X2668Y17502D01*
X2673Y17488D01*
X2680Y17472D01*
Y17472D01*
X2681Y17471D01*
X2683Y17469D01*
X2684Y17466D01*
X2689Y17459D01*
X2693Y17452D01*
Y17452D01*
X2695Y17451D01*
X2697Y17447D01*
X2701Y17443D01*
X2704Y17440D01*
X2704Y17440D01*
X2705Y17439D01*
X2707Y17437D01*
X2708Y17435D01*
X2711Y17429D01*
X2712Y17425D01*
X2713Y17422D01*
Y17421D01*
X2712Y17419D01*
X2711Y17416D01*
X2710Y17413D01*
X2708Y17410D01*
X2705Y17408D01*
X2701Y17407D01*
X2698D01*
X2695Y17408D01*
X2695D01*
X2693Y17410D01*
X2691Y17411D01*
X2688Y17413D01*
X2684Y17417D01*
X2679Y17422D01*
X2674Y17429D01*
X2668Y17437D01*
Y17438D01*
X2667Y17439D01*
X2666Y17440D01*
X2665Y17442D01*
X2662Y17447D01*
X2658Y17455D01*
X2653Y17464D01*
X2648Y17474D01*
X2643Y17485D01*
X2638Y17498D01*
Y17499D01*
X2638Y17500D01*
X2637Y17501D01*
X2636Y17504D01*
X2636Y17507D01*
X2634Y17511D01*
X2632Y17520D01*
X2630Y17531D01*
X2628Y17543D01*
X2626Y17555D01*
X2626Y17568D01*
Y17574D01*
X2626Y17580D01*
X2628Y17588D01*
X2630Y17596D01*
X2632Y17604D01*
X2636Y17612D01*
X2642Y17618D01*
X2642Y17619D01*
X2644Y17620D01*
X2648Y17623D01*
X2653Y17624D01*
X2659Y17626D01*
X2667Y17626D01*
X2676Y17626D01*
D02*
G37*
G36*
X2678Y17359D02*
X2687Y17357D01*
X2687D01*
X2688Y17357D01*
X2690Y17356D01*
X2692Y17355D01*
X2698Y17353D01*
X2705Y17349D01*
X2714Y17344D01*
X2722Y17338D01*
X2732Y17330D01*
X2740Y17321D01*
Y17321D01*
X2742Y17320D01*
X2744Y17317D01*
X2748Y17311D01*
X2754Y17304D01*
X2759Y17295D01*
X2766Y17286D01*
X2772Y17274D01*
X2778Y17262D01*
Y17262D01*
X2779Y17261D01*
X2780Y17259D01*
X2781Y17256D01*
X2782Y17253D01*
X2784Y17249D01*
X2786Y17244D01*
X2788Y17239D01*
X2791Y17233D01*
X2794Y17226D01*
X2797Y17218D01*
X2800Y17211D01*
X2803Y17203D01*
X2806Y17193D01*
X2814Y17174D01*
Y17174D01*
X2815Y17172D01*
X2816Y17169D01*
X2817Y17166D01*
X2819Y17162D01*
X2820Y17157D01*
X2824Y17147D01*
Y17146D01*
X2824Y17145D01*
X2826Y17143D01*
X2826Y17140D01*
X2827Y17137D01*
X2828Y17140D01*
X2829Y17144D01*
X2831Y17149D01*
X2832Y17154D01*
X2833Y17160D01*
X2837Y17174D01*
X2841Y17188D01*
X2846Y17204D01*
X2851Y17221D01*
X2855Y17231D01*
Y17232D01*
X2855Y17233D01*
X2856Y17235D01*
X2857Y17238D01*
X2858Y17242D01*
X2860Y17246D01*
X2863Y17256D01*
X2867Y17267D01*
X2871Y17278D01*
X2875Y17289D01*
X2879Y17298D01*
X2880Y17299D01*
X2881Y17302D01*
X2882Y17305D01*
X2885Y17309D01*
X2887Y17313D01*
X2891Y17316D01*
X2893Y17318D01*
X2895Y17318D01*
X2897Y17318D01*
X2897D01*
X2898Y17317D01*
X2899Y17317D01*
X2901Y17316D01*
X2904Y17314D01*
X2907Y17312D01*
X2910Y17310D01*
X2914Y17306D01*
X2914Y17306D01*
X2915Y17305D01*
X2917Y17303D01*
X2918Y17301D01*
X2922Y17295D01*
X2923Y17293D01*
X2923Y17289D01*
Y17286D01*
X2923Y17283D01*
X2922Y17280D01*
X2921Y17279D01*
X2920Y17277D01*
X2917Y17273D01*
X2914Y17268D01*
X2913Y17267D01*
X2911Y17263D01*
X2907Y17258D01*
X2904Y17251D01*
X2899Y17242D01*
X2893Y17231D01*
X2887Y17218D01*
X2881Y17204D01*
X2881Y17203D01*
X2880Y17200D01*
X2879Y17197D01*
X2877Y17191D01*
X2875Y17185D01*
X2872Y17178D01*
X2869Y17169D01*
X2867Y17160D01*
X2866Y17158D01*
X2865Y17156D01*
X2864Y17151D01*
X2862Y17146D01*
X2859Y17134D01*
X2857Y17129D01*
X2856Y17125D01*
X2911Y17109D01*
X2911D01*
X2913Y17108D01*
X2915Y17108D01*
X2918Y17107D01*
X2924Y17105D01*
X2932Y17105D01*
X2932D01*
X2933D01*
X2936D01*
X2940Y17104D01*
X2942Y17104D01*
X2943D01*
X2944Y17103D01*
X2947Y17102D01*
X2951Y17098D01*
X2953Y17096D01*
X2954Y17092D01*
Y17092D01*
X2955Y17091D01*
X2956Y17090D01*
X2957Y17087D01*
X2959Y17083D01*
X2959Y17077D01*
Y17075D01*
X2959Y17074D01*
X2958Y17072D01*
X2956Y17070D01*
X2953Y17069D01*
X2950Y17068D01*
X2945D01*
X2944D01*
X2941Y17069D01*
X2940D01*
X2937Y17069D01*
X2936D01*
X2936Y17070D01*
X2934D01*
X2932Y17071D01*
X2929Y17072D01*
X2925Y17073D01*
X2921Y17074D01*
X2916Y17076D01*
X2915D01*
X2914Y17077D01*
X2911Y17078D01*
X2908Y17079D01*
X2903Y17080D01*
X2897Y17082D01*
X2889Y17084D01*
X2879Y17087D01*
X2879D01*
X2877Y17087D01*
X2875Y17088D01*
X2873Y17089D01*
X2867Y17091D01*
X2859Y17092D01*
X2859D01*
X2858Y17093D01*
X2856Y17093D01*
X2854Y17094D01*
X2850Y17096D01*
X2845Y17097D01*
X2845D01*
X2844Y17096D01*
X2843Y17095D01*
X2843D01*
X2841Y17095D01*
X2839Y17094D01*
X2837Y17093D01*
X2835D01*
X2833D01*
X2831D01*
X2827Y17094D01*
X2826D01*
X2824Y17095D01*
X2821Y17095D01*
X2819Y17096D01*
X2817Y17096D01*
X2816Y17097D01*
X2814Y17098D01*
X2811Y17101D01*
X2811Y17101D01*
X2810Y17103D01*
X2807Y17107D01*
X2806D01*
X2806Y17108D01*
X2804Y17108D01*
X2802Y17109D01*
X2796Y17110D01*
X2789Y17113D01*
X2780Y17116D01*
X2770Y17119D01*
X2759Y17122D01*
X2748Y17126D01*
X2725Y17133D01*
X2714Y17137D01*
X2704Y17140D01*
X2695Y17143D01*
X2686Y17146D01*
X2680Y17148D01*
X2678Y17149D01*
X2676Y17149D01*
X2675D01*
X2673Y17150D01*
X2671Y17151D01*
X2667Y17152D01*
X2662Y17154D01*
X2658Y17155D01*
X2648Y17159D01*
X2648D01*
X2646Y17160D01*
X2644Y17161D01*
X2642Y17161D01*
X2640Y17162D01*
X2638Y17163D01*
X2637Y17163D01*
X2637Y17162D01*
X2638Y17160D01*
X2638Y17156D01*
X2639Y17151D01*
Y17149D01*
X2639Y17146D01*
X2640Y17143D01*
X2641Y17136D01*
X2642Y17132D01*
X2642Y17129D01*
Y17129D01*
X2643Y17128D01*
Y17126D01*
X2643Y17124D01*
X2645Y17118D01*
X2647Y17111D01*
X2649Y17103D01*
X2651Y17094D01*
X2653Y17086D01*
X2656Y17079D01*
Y17078D01*
X2657Y17076D01*
X2658Y17073D01*
X2660Y17068D01*
X2662Y17063D01*
X2664Y17057D01*
X2669Y17045D01*
X2670Y17044D01*
X2671Y17042D01*
X2673Y17038D01*
X2674Y17034D01*
Y17033D01*
X2675Y17031D01*
X2675Y17028D01*
X2676Y17024D01*
Y17023D01*
X2675Y17021D01*
X2674Y17018D01*
X2671Y17016D01*
X2674Y17014D01*
X2679Y17009D01*
X2680D01*
X2681D01*
X2683Y17008D01*
X2686Y17008D01*
X2692Y17006D01*
X2701Y17004D01*
X2701D01*
X2702Y17003D01*
X2704Y17003D01*
X2706Y17002D01*
X2709Y17001D01*
X2713Y17000D01*
X2718Y16999D01*
X2724Y16997D01*
X2731Y16995D01*
X2738Y16994D01*
X2747Y16991D01*
X2757Y16988D01*
X2768Y16985D01*
X2779Y16982D01*
X2792Y16979D01*
X2806Y16975D01*
X2808D01*
X2810Y16974D01*
X2814Y16973D01*
X2819Y16972D01*
X2826Y16970D01*
X2833Y16968D01*
X2840Y16966D01*
X2849Y16964D01*
X2866Y16960D01*
X2883Y16955D01*
X2891Y16954D01*
X2898Y16952D01*
X2905Y16950D01*
X2910Y16949D01*
X2911D01*
X2912Y16949D01*
X2915D01*
X2918Y16948D01*
X2923Y16948D01*
X2929Y16947D01*
X2936Y16946D01*
X2944Y16945D01*
X2945D01*
X2947D01*
X2952Y16944D01*
X2957Y16944D01*
X2958D01*
X2959D01*
X2962Y16943D01*
X2965Y16943D01*
X2967Y16942D01*
X2968Y16942D01*
X2969D01*
X2969Y16941D01*
X2972Y16939D01*
X2975Y16938D01*
X2977Y16936D01*
X2979Y16933D01*
X2981Y16930D01*
Y16929D01*
X2982Y16928D01*
X2983Y16926D01*
X2984Y16924D01*
X2986Y16918D01*
X2987Y16915D01*
X2987Y16912D01*
Y16911D01*
X2986Y16908D01*
X2984Y16906D01*
X2983Y16905D01*
X2980Y16904D01*
X2977Y16903D01*
X2976D01*
X2975D01*
X2973Y16902D01*
X2970D01*
X2967D01*
X2963D01*
X2954Y16903D01*
X2954D01*
X2952Y16904D01*
X2950Y16905D01*
X2945Y16905D01*
X2940Y16906D01*
X2934Y16908D01*
X2926Y16909D01*
X2917Y16911D01*
X2907Y16913D01*
X2896Y16916D01*
X2883Y16919D01*
X2870Y16923D01*
X2855Y16926D01*
X2839Y16931D01*
X2821Y16936D01*
X2802Y16941D01*
X2708Y16967D01*
X2708Y16967D01*
X2709Y16966D01*
X2711Y16963D01*
X2714Y16960D01*
X2716Y16956D01*
X2720Y16952D01*
X2724Y16947D01*
X2728Y16941D01*
X2733Y16935D01*
X2738Y16927D01*
X2748Y16912D01*
X2758Y16896D01*
X2768Y16878D01*
X2769Y16877D01*
X2769Y16876D01*
X2770Y16873D01*
X2772Y16870D01*
X2774Y16864D01*
X2775Y16861D01*
X2775Y16859D01*
Y16858D01*
X2775Y16855D01*
X2774Y16852D01*
X2771Y16849D01*
X2770Y16848D01*
X2768Y16848D01*
X2765Y16847D01*
X2762Y16848D01*
X2761D01*
X2760Y16848D01*
X2758Y16849D01*
X2757Y16851D01*
X2754Y16854D01*
X2751Y16857D01*
X2749Y16861D01*
X2745Y16867D01*
Y16867D01*
X2745Y16868D01*
X2744Y16870D01*
X2743Y16872D01*
X2739Y16877D01*
X2736Y16884D01*
X2731Y16892D01*
X2725Y16901D01*
X2713Y16920D01*
Y16920D01*
X2712Y16921D01*
X2709Y16924D01*
X2706Y16929D01*
X2701Y16936D01*
X2696Y16944D01*
X2689Y16953D01*
X2682Y16963D01*
X2674Y16973D01*
X2671Y16977D01*
X2665Y16979D01*
X2661Y16980D01*
X2660Y16981D01*
X2657Y16982D01*
X2655Y16984D01*
X2653Y16986D01*
X2653Y16986D01*
X2652Y16988D01*
X2651Y16989D01*
X2651Y16991D01*
Y16991D01*
X2650Y16993D01*
X2650Y16996D01*
Y17003D01*
X2650Y17005D01*
X2651Y17010D01*
X2654Y17015D01*
Y17016D01*
X2654Y17016D01*
X2656Y17018D01*
X2655Y17019D01*
X2652Y17022D01*
X2648Y17027D01*
X2646Y17030D01*
X2644Y17034D01*
X2642Y17038D01*
X2639Y17043D01*
X2637Y17049D01*
X2635Y17055D01*
Y17056D01*
X2634Y17057D01*
X2634Y17059D01*
X2633Y17061D01*
X2632Y17065D01*
X2631Y17069D01*
X2630Y17073D01*
X2628Y17078D01*
X2625Y17089D01*
X2621Y17102D01*
X2618Y17115D01*
X2615Y17129D01*
Y17131D01*
X2615Y17133D01*
X2614Y17138D01*
X2613Y17144D01*
X2612Y17151D01*
X2610Y17161D01*
X2609Y17170D01*
X2608Y17182D01*
Y17184D01*
X2608Y17185D01*
Y17187D01*
X2607Y17193D01*
X2607Y17202D01*
X2606Y17210D01*
X2606Y17220D01*
X2605Y17230D01*
Y17248D01*
X2606Y17252D01*
Y17256D01*
X2606Y17267D01*
X2608Y17279D01*
X2609Y17291D01*
X2612Y17303D01*
X2615Y17315D01*
Y17315D01*
X2616Y17316D01*
X2616Y17317D01*
X2617Y17319D01*
X2620Y17324D01*
X2622Y17330D01*
X2627Y17338D01*
X2632Y17344D01*
X2638Y17350D01*
X2644Y17354D01*
X2645Y17355D01*
X2648Y17356D01*
X2651Y17358D01*
X2656Y17359D01*
X2663Y17360D01*
X2670Y17360D01*
X2678Y17359D01*
D02*
G37*
G36*
X2647Y16887D02*
X2649Y16885D01*
X2650Y16883D01*
X2652Y16881D01*
X2654Y16878D01*
X2657Y16875D01*
X2657Y16875D01*
X2658Y16873D01*
X2660Y16871D01*
X2661Y16869D01*
X2667Y16862D01*
X2674Y16856D01*
X2675Y16855D01*
X2677Y16854D01*
X2679Y16852D01*
X2683Y16849D01*
X2688Y16846D01*
X2693Y16842D01*
X2701Y16837D01*
X2708Y16832D01*
X2709Y16832D01*
X2712Y16830D01*
X2717Y16826D01*
X2725Y16822D01*
X2733Y16816D01*
X2745Y16809D01*
X2758Y16801D01*
X2774Y16791D01*
X2822Y16761D01*
X2823Y16761D01*
X2826Y16759D01*
X2829Y16757D01*
X2835Y16753D01*
X2842Y16749D01*
X2850Y16745D01*
X2858Y16740D01*
X2868Y16734D01*
X2887Y16723D01*
X2906Y16711D01*
X2916Y16706D01*
X2925Y16701D01*
X2933Y16696D01*
X2940Y16693D01*
X2941D01*
X2941Y16692D01*
X2945Y16689D01*
X2950Y16685D01*
X2955Y16678D01*
Y16678D01*
X2956Y16677D01*
X2957Y16675D01*
X2958Y16672D01*
X2959Y16669D01*
X2960Y16665D01*
X2961Y16660D01*
X2962Y16655D01*
X2961Y16654D01*
X2959Y16653D01*
X2956Y16652D01*
X2954Y16651D01*
X2951Y16650D01*
X2948Y16650D01*
X2944Y16648D01*
X2939Y16648D01*
X2933Y16647D01*
X2927Y16646D01*
X2920Y16646D01*
X2919D01*
X2917D01*
X2915Y16645D01*
X2912D01*
X2907Y16645D01*
X2903D01*
X2897Y16644D01*
X2890Y16644D01*
X2882Y16643D01*
X2874Y16642D01*
X2865Y16641D01*
X2856Y16641D01*
X2845Y16640D01*
X2834Y16639D01*
X2822Y16639D01*
X2810Y16638D01*
X2810D01*
X2809D01*
X2807Y16637D01*
X2804D01*
X2802Y16636D01*
X2798Y16636D01*
X2789Y16635D01*
X2779Y16633D01*
X2767Y16632D01*
X2755Y16629D01*
X2743Y16627D01*
X2742D01*
X2741D01*
X2739Y16627D01*
X2737Y16626D01*
X2732Y16625D01*
X2725Y16624D01*
X2719Y16622D01*
X2712Y16621D01*
X2707Y16620D01*
X2705Y16618D01*
X2704Y16618D01*
X2704Y16617D01*
X2703Y16617D01*
X2702Y16616D01*
X2699Y16615D01*
X2697Y16614D01*
X2694Y16614D01*
X2691D01*
X2687Y16614D01*
X2686Y16615D01*
X2684Y16616D01*
X2683Y16617D01*
X2680Y16620D01*
X2678Y16622D01*
X2676Y16626D01*
X2675Y16626D01*
X2675Y16627D01*
X2674Y16629D01*
X2672Y16632D01*
X2670Y16638D01*
X2669Y16641D01*
X2669Y16645D01*
Y16648D01*
X2670Y16651D01*
X2671Y16652D01*
X2672Y16653D01*
X2673Y16653D01*
X2675Y16655D01*
X2679Y16656D01*
X2679D01*
X2680Y16657D01*
X2683Y16657D01*
X2687Y16658D01*
X2692Y16659D01*
X2699Y16660D01*
X2708Y16662D01*
X2719Y16663D01*
X2719D01*
X2720D01*
X2721Y16664D01*
X2724D01*
X2727Y16664D01*
X2730Y16665D01*
X2738Y16666D01*
X2748Y16666D01*
X2758Y16668D01*
X2770Y16669D01*
X2782Y16670D01*
X2882Y16675D01*
X2882D01*
X2883D01*
X2885Y16675D01*
X2888D01*
X2894Y16676D01*
X2901Y16677D01*
X2908D01*
X2915D01*
X2917Y16676D01*
X2916Y16677D01*
X2911Y16679D01*
X2905Y16682D01*
X2901Y16684D01*
X2897Y16687D01*
X2891Y16690D01*
X2886Y16693D01*
X2885D01*
X2884Y16694D01*
X2882Y16695D01*
X2880Y16696D01*
X2877Y16699D01*
X2873Y16701D01*
X2869Y16703D01*
X2864Y16706D01*
X2853Y16712D01*
X2840Y16720D01*
X2826Y16729D01*
X2810Y16738D01*
X2809Y16739D01*
X2807Y16740D01*
X2804Y16741D01*
X2799Y16744D01*
X2794Y16747D01*
X2788Y16751D01*
X2782Y16755D01*
X2775Y16759D01*
X2760Y16769D01*
X2744Y16778D01*
X2728Y16788D01*
X2721Y16792D01*
X2714Y16796D01*
X2714D01*
X2713Y16798D01*
X2711Y16799D01*
X2709Y16800D01*
X2702Y16804D01*
X2695Y16810D01*
X2685Y16815D01*
X2676Y16822D01*
X2667Y16828D01*
X2659Y16834D01*
X2657Y16835D01*
X2655Y16837D01*
X2652Y16839D01*
X2648Y16843D01*
X2639Y16850D01*
X2636Y16854D01*
X2632Y16858D01*
X2632Y16858D01*
X2631Y16859D01*
X2630Y16861D01*
X2628Y16864D01*
X2626Y16870D01*
X2625Y16873D01*
X2625Y16877D01*
Y16878D01*
X2626Y16879D01*
X2627Y16881D01*
X2628Y16882D01*
X2631Y16884D01*
X2634Y16885D01*
X2634D01*
X2636Y16885D01*
X2639Y16887D01*
X2643Y16887D01*
X2646D01*
X2647Y16887D01*
D02*
G37*
G36*
X2604Y16481D02*
X2610Y16480D01*
X2618Y16477D01*
X2618D01*
X2619Y16476D01*
X2620Y16476D01*
X2621D01*
X2622Y16475D01*
X2625Y16474D01*
X2629Y16473D01*
X2630D01*
X2631Y16472D01*
X2632Y16472D01*
X2634Y16470D01*
X2638Y16469D01*
X2641Y16468D01*
X2645Y16466D01*
X2650Y16464D01*
X2661Y16460D01*
X2674Y16455D01*
X2689Y16449D01*
X2705Y16443D01*
X2723Y16436D01*
X2742Y16428D01*
X2762Y16421D01*
X2782Y16414D01*
X2804Y16405D01*
X2825Y16398D01*
X2869Y16383D01*
X2870D01*
X2872Y16382D01*
X2875Y16381D01*
X2879Y16380D01*
X2883Y16379D01*
X2888Y16379D01*
X2894D01*
X2900D01*
X2901D01*
X2903D01*
X2906Y16379D01*
X2909D01*
X2912D01*
X2915D01*
X2917D01*
X2918D01*
X2919D01*
X2920Y16379D01*
X2923Y16377D01*
X2927Y16373D01*
X2929Y16371D01*
X2930Y16367D01*
Y16367D01*
X2931Y16366D01*
X2932Y16364D01*
X2932Y16362D01*
X2933Y16356D01*
X2934Y16350D01*
Y16348D01*
X2933Y16347D01*
X2932Y16345D01*
X2930Y16343D01*
X2928Y16342D01*
X2924Y16341D01*
X2919Y16340D01*
X2918D01*
X2916D01*
X2912Y16341D01*
X2907Y16341D01*
X2901Y16342D01*
X2894Y16344D01*
X2885Y16346D01*
X2875Y16349D01*
X2875D01*
X2873Y16350D01*
X2870Y16351D01*
X2866Y16353D01*
X2861Y16354D01*
X2855Y16356D01*
X2847Y16359D01*
X2839Y16362D01*
X2831Y16365D01*
X2821Y16368D01*
X2810Y16372D01*
X2799Y16376D01*
X2787Y16380D01*
X2775Y16385D01*
X2762Y16389D01*
X2748Y16394D01*
X2747Y16395D01*
X2745Y16395D01*
X2741Y16397D01*
X2736Y16398D01*
X2729Y16401D01*
X2722Y16403D01*
X2714Y16406D01*
X2706Y16409D01*
X2687Y16416D01*
X2669Y16422D01*
X2651Y16429D01*
X2643Y16432D01*
X2635Y16435D01*
X2634D01*
X2633Y16436D01*
X2630Y16437D01*
X2626Y16439D01*
X2622Y16441D01*
X2618Y16443D01*
X2608Y16450D01*
X2607Y16450D01*
X2606Y16451D01*
X2603Y16454D01*
X2601Y16456D01*
X2598Y16460D01*
X2596Y16464D01*
X2595Y16469D01*
X2594Y16474D01*
Y16475D01*
X2595Y16478D01*
X2597Y16480D01*
X2598Y16481D01*
X2600D01*
X2601D01*
X2603D01*
X2604Y16481D01*
D02*
G37*
G36*
X2738Y16326D02*
X2743Y16325D01*
X2743D01*
X2745Y16324D01*
X2748Y16322D01*
X2751Y16321D01*
X2759Y16316D01*
X2762Y16313D01*
X2766Y16309D01*
X2763Y16312D01*
Y16314D01*
X2764Y16315D01*
X2766Y16317D01*
X2768Y16318D01*
X2770Y16319D01*
X2775D01*
X2780Y16318D01*
X2781D01*
X2782Y16318D01*
X2784Y16317D01*
X2787Y16316D01*
X2791Y16315D01*
X2796Y16313D01*
X2803Y16311D01*
X2811Y16309D01*
X2812Y16308D01*
X2815Y16308D01*
X2819Y16306D01*
X2824Y16304D01*
X2830Y16303D01*
X2837Y16301D01*
X2843Y16299D01*
X2849Y16297D01*
X2849D01*
X2851Y16296D01*
X2854Y16295D01*
X2858Y16294D01*
X2863Y16292D01*
X2868Y16291D01*
X2879Y16288D01*
X2879D01*
X2881Y16287D01*
X2883Y16286D01*
X2887Y16285D01*
X2894Y16283D01*
X2897Y16282D01*
X2900Y16281D01*
X2901D01*
X2902D01*
X2904Y16282D01*
X2907Y16283D01*
X2907Y16283D01*
X2909Y16284D01*
X2911Y16284D01*
X2914Y16284D01*
X2915D01*
X2915Y16283D01*
X2918Y16282D01*
X2924Y16278D01*
X2927Y16276D01*
X2930Y16272D01*
X2930Y16272D01*
X2931Y16271D01*
X2933Y16269D01*
X2934Y16267D01*
X2937Y16262D01*
X2938Y16259D01*
X2939Y16256D01*
Y16255D01*
X2938Y16253D01*
X2937Y16250D01*
X2936Y16248D01*
X2934Y16246D01*
X2931Y16245D01*
X2927Y16244D01*
X2927D01*
X2925D01*
X2923D01*
X2920D01*
X2916Y16244D01*
X2911Y16245D01*
X2906Y16246D01*
X2901Y16248D01*
X2901D01*
X2899Y16249D01*
X2897Y16249D01*
X2895Y16250D01*
X2892Y16251D01*
X2889Y16252D01*
X2885Y16254D01*
X2880Y16255D01*
X2875Y16258D01*
X2868Y16260D01*
X2861Y16262D01*
X2853Y16265D01*
X2844Y16268D01*
X2834Y16272D01*
X2816Y16278D01*
X2816D01*
X2815Y16279D01*
X2812Y16280D01*
X2809Y16282D01*
X2807Y16282D01*
X2806Y16283D01*
X2806Y16282D01*
X2808Y16282D01*
X2809Y16280D01*
X2811Y16278D01*
X2818Y16272D01*
X2826Y16265D01*
X2835Y16256D01*
X2845Y16247D01*
X2855Y16236D01*
X2865Y16226D01*
X2866Y16225D01*
X2867Y16225D01*
X2868Y16223D01*
X2870Y16221D01*
X2875Y16215D01*
X2882Y16207D01*
X2889Y16198D01*
X2898Y16187D01*
X2907Y16175D01*
X2916Y16161D01*
Y16160D01*
X2917Y16159D01*
X2918Y16157D01*
X2920Y16155D01*
X2921Y16152D01*
X2923Y16148D01*
X2927Y16138D01*
X2932Y16128D01*
X2935Y16116D01*
X2938Y16104D01*
X2939Y16098D01*
X2939Y16092D01*
Y16089D01*
X2939Y16086D01*
X2938Y16082D01*
X2936Y16078D01*
X2935Y16074D01*
X2932Y16071D01*
X2929Y16068D01*
X2928D01*
X2927Y16068D01*
X2924Y16066D01*
X2922Y16066D01*
X2917D01*
X2913D01*
X2907Y16067D01*
X2901Y16069D01*
X2900Y16069D01*
X2898Y16070D01*
X2893Y16072D01*
X2887Y16076D01*
X2880Y16080D01*
X2871Y16086D01*
X2861Y16094D01*
X2849Y16104D01*
X2849Y16104D01*
X2847Y16105D01*
X2846Y16106D01*
X2843Y16108D01*
X2840Y16111D01*
X2837Y16114D01*
X2828Y16123D01*
X2818Y16132D01*
X2806Y16143D01*
X2794Y16156D01*
X2782Y16170D01*
X2781Y16170D01*
X2780Y16171D01*
X2779Y16173D01*
X2776Y16176D01*
X2773Y16179D01*
X2770Y16183D01*
X2762Y16193D01*
X2754Y16204D01*
X2744Y16216D01*
X2735Y16229D01*
X2726Y16242D01*
X2726Y16243D01*
X2724Y16246D01*
X2721Y16249D01*
X2719Y16255D01*
X2715Y16260D01*
X2712Y16266D01*
X2709Y16272D01*
X2707Y16277D01*
Y16278D01*
X2706Y16279D01*
X2705Y16282D01*
X2704Y16285D01*
X2703Y16292D01*
X2702Y16300D01*
Y16303D01*
X2702Y16305D01*
X2704Y16310D01*
X2707Y16315D01*
Y16316D01*
X2708Y16316D01*
X2711Y16319D01*
X2715Y16322D01*
X2721Y16325D01*
X2722D01*
X2723Y16326D01*
X2725Y16326D01*
X2727D01*
X2731D01*
X2734D01*
X2738Y16326D01*
D02*
G37*
G36*
X2732Y16107D02*
X2735Y16107D01*
X2736Y16106D01*
X2739Y16105D01*
X2741Y16103D01*
X2743Y16101D01*
X2745Y16098D01*
X2748Y16095D01*
Y16094D01*
X2749Y16093D01*
X2750Y16092D01*
X2751Y16089D01*
X2754Y16084D01*
X2754Y16082D01*
X2755Y16080D01*
Y16078D01*
X2754Y16076D01*
X2753Y16074D01*
X2751Y16071D01*
X2751Y16071D01*
X2749Y16070D01*
X2746Y16068D01*
X2742Y16066D01*
X2742D01*
X2739Y16065D01*
X2738Y16064D01*
X2736Y16062D01*
X2735Y16061D01*
X2734Y16059D01*
X2733Y16057D01*
X2733Y16054D01*
Y16053D01*
X2733Y16052D01*
X2734Y16049D01*
X2737Y16045D01*
X2741Y16039D01*
X2744Y16035D01*
X2748Y16031D01*
X2751Y16027D01*
X2756Y16021D01*
X2761Y16016D01*
X2767Y16010D01*
X2768Y16009D01*
X2769Y16008D01*
X2770Y16006D01*
X2773Y16004D01*
X2776Y16000D01*
X2781Y15997D01*
X2785Y15993D01*
X2791Y15988D01*
X2797Y15982D01*
X2803Y15977D01*
X2810Y15971D01*
X2819Y15964D01*
X2835Y15951D01*
X2855Y15936D01*
X2855D01*
X2856Y15936D01*
X2858Y15935D01*
X2861Y15934D01*
X2864Y15933D01*
X2869Y15932D01*
X2874Y15930D01*
X2880Y15929D01*
X2881D01*
X2883Y15928D01*
X2886Y15927D01*
X2889Y15927D01*
X2897Y15924D01*
X2901Y15923D01*
X2904Y15922D01*
X2924Y15917D01*
X2924D01*
X2925Y15917D01*
X2928Y15915D01*
X2933Y15912D01*
X2938Y15909D01*
X2939Y15908D01*
X2941Y15904D01*
X2943Y15899D01*
X2944Y15896D01*
X2944Y15892D01*
Y15892D01*
X2944Y15891D01*
X2943Y15888D01*
X2941Y15887D01*
X2939Y15885D01*
X2934Y15884D01*
X2929D01*
X2921Y15885D01*
X2921D01*
X2920Y15886D01*
X2917Y15886D01*
X2911Y15888D01*
X2904Y15890D01*
X2895Y15892D01*
X2884Y15896D01*
X2871Y15899D01*
X2857Y15904D01*
X2856D01*
X2855Y15905D01*
X2852Y15905D01*
X2850Y15906D01*
X2845Y15908D01*
X2840Y15909D01*
X2834Y15911D01*
X2828Y15913D01*
X2827Y15914D01*
X2824Y15914D01*
X2820Y15916D01*
X2815Y15917D01*
X2808Y15920D01*
X2800Y15922D01*
X2791Y15925D01*
X2781Y15928D01*
X2781D01*
X2780Y15928D01*
X2778Y15929D01*
X2775Y15930D01*
X2772Y15931D01*
X2768Y15932D01*
X2759Y15935D01*
X2750Y15938D01*
X2740Y15941D01*
X2732Y15944D01*
X2724Y15946D01*
X2723D01*
X2722Y15947D01*
X2719Y15949D01*
X2716Y15951D01*
X2714Y15954D01*
X2711Y15958D01*
X2709Y15963D01*
X2709Y15969D01*
Y15971D01*
X2710Y15975D01*
X2711Y15977D01*
X2713Y15979D01*
X2715Y15980D01*
X2717D01*
X2718D01*
X2719D01*
X2721Y15980D01*
X2724Y15979D01*
X2728Y15978D01*
X2733Y15977D01*
X2739Y15975D01*
X2746Y15973D01*
X2814Y15950D01*
X2812Y15951D01*
X2810Y15952D01*
X2803Y15956D01*
X2796Y15960D01*
X2786Y15966D01*
X2776Y15973D01*
X2766Y15981D01*
X2756Y15991D01*
X2755Y15991D01*
X2755Y15992D01*
X2751Y15995D01*
X2746Y16000D01*
X2740Y16006D01*
X2734Y16013D01*
X2727Y16021D01*
X2721Y16029D01*
X2715Y16037D01*
X2714Y16039D01*
X2713Y16041D01*
X2710Y16045D01*
X2707Y16050D01*
X2705Y16056D01*
X2702Y16062D01*
X2701Y16068D01*
X2700Y16074D01*
Y16078D01*
X2701Y16081D01*
X2702Y16087D01*
X2705Y16094D01*
Y16094D01*
X2707Y16095D01*
X2709Y16099D01*
X2713Y16102D01*
X2719Y16106D01*
X2719D01*
X2720Y16106D01*
X2722Y16107D01*
X2723Y16107D01*
X2729Y16108D01*
X2732Y16107D01*
D02*
G37*
G36*
X2738Y15917D02*
X2739D01*
X2740Y15916D01*
X2742Y15915D01*
X2744Y15914D01*
X2746Y15912D01*
X2749Y15909D01*
X2752Y15906D01*
X2754Y15903D01*
Y15902D01*
X2755Y15901D01*
X2756Y15898D01*
X2757Y15896D01*
X2758Y15891D01*
X2760Y15886D01*
X2761Y15880D01*
X2762Y15874D01*
Y15873D01*
X2762Y15871D01*
Y15869D01*
X2763Y15867D01*
X2763Y15863D01*
X2764Y15859D01*
X2766Y15850D01*
X2767Y15840D01*
X2768Y15831D01*
X2769Y15827D01*
X2769Y15823D01*
Y15820D01*
X2770Y15818D01*
X2774Y15795D01*
X2775Y15794D01*
X2778Y15793D01*
X2783Y15792D01*
X2789Y15790D01*
X2796Y15787D01*
X2804Y15785D01*
X2813Y15782D01*
X2822Y15779D01*
X2823Y15778D01*
X2827Y15778D01*
X2831Y15776D01*
X2838Y15774D01*
X2844Y15772D01*
X2852Y15770D01*
X2868Y15766D01*
X2868D01*
X2869Y15765D01*
X2872Y15764D01*
X2877Y15763D01*
X2883Y15762D01*
X2889Y15761D01*
X2896Y15760D01*
X2903Y15758D01*
X2909Y15758D01*
X2909D01*
X2911D01*
X2913D01*
X2916D01*
X2922D01*
X2924Y15757D01*
X2925D01*
X2926D01*
X2926Y15757D01*
X2929Y15755D01*
X2932Y15754D01*
X2934Y15751D01*
X2935Y15749D01*
X2938Y15745D01*
Y15745D01*
X2938Y15744D01*
X2939Y15742D01*
X2940Y15740D01*
X2942Y15735D01*
X2942Y15730D01*
Y15729D01*
X2942Y15727D01*
X2941Y15725D01*
X2940Y15723D01*
X2939Y15722D01*
X2938Y15722D01*
X2936Y15721D01*
X2933Y15721D01*
X2933D01*
X2932D01*
X2930D01*
X2927D01*
X2924D01*
X2920Y15721D01*
X2915Y15722D01*
X2909Y15723D01*
X2907D01*
X2905Y15724D01*
X2901Y15725D01*
X2897Y15726D01*
X2891Y15727D01*
X2884Y15729D01*
X2876Y15731D01*
X2868Y15733D01*
X2867D01*
X2865Y15734D01*
X2861Y15735D01*
X2856Y15737D01*
X2849Y15738D01*
X2841Y15740D01*
X2833Y15743D01*
X2823Y15746D01*
X2823D01*
X2822Y15746D01*
X2819Y15748D01*
X2814Y15749D01*
X2808Y15751D01*
X2801Y15753D01*
X2794Y15756D01*
X2786Y15758D01*
X2779Y15761D01*
Y15760D01*
X2779Y15757D01*
X2780Y15752D01*
X2781Y15746D01*
X2783Y15738D01*
X2785Y15730D01*
X2787Y15720D01*
X2789Y15709D01*
Y15708D01*
X2790Y15705D01*
X2791Y15701D01*
X2792Y15695D01*
X2793Y15690D01*
X2793Y15684D01*
X2794Y15680D01*
Y15676D01*
X2794Y15673D01*
X2793Y15669D01*
X2790Y15665D01*
X2789Y15665D01*
X2787Y15663D01*
X2782Y15662D01*
X2780D01*
X2777Y15663D01*
X2776D01*
X2775Y15663D01*
X2772Y15665D01*
X2768Y15668D01*
X2767Y15671D01*
X2766Y15673D01*
Y15673D01*
X2765Y15674D01*
X2764Y15675D01*
X2764Y15678D01*
X2763Y15683D01*
X2763Y15691D01*
Y15694D01*
X2762Y15696D01*
Y15698D01*
X2762Y15702D01*
X2761Y15706D01*
X2761Y15710D01*
Y15711D01*
X2760Y15713D01*
Y15715D01*
X2760Y15718D01*
X2758Y15724D01*
X2758Y15726D01*
X2757Y15728D01*
Y15729D01*
X2757Y15730D01*
Y15732D01*
X2756Y15734D01*
X2755Y15740D01*
X2754Y15748D01*
X2752Y15755D01*
X2751Y15762D01*
X2750Y15767D01*
X2750Y15769D01*
Y15770D01*
X2749D01*
X2749Y15771D01*
X2747Y15772D01*
X2745Y15772D01*
X2742Y15773D01*
X2738Y15774D01*
X2734Y15775D01*
X2728Y15777D01*
X2727Y15778D01*
X2725Y15778D01*
X2721Y15779D01*
X2716Y15781D01*
X2705Y15784D01*
X2700Y15786D01*
X2695Y15787D01*
X2694Y15788D01*
X2692Y15789D01*
X2689Y15790D01*
X2685Y15791D01*
X2675Y15795D01*
X2671Y15797D01*
X2666Y15798D01*
X2666D01*
X2665Y15799D01*
X2662Y15801D01*
X2660Y15802D01*
X2654Y15805D01*
X2647Y15810D01*
X2647Y15810D01*
X2645Y15811D01*
X2643Y15813D01*
X2641Y15816D01*
X2639Y15819D01*
X2637Y15823D01*
X2636Y15827D01*
X2635Y15832D01*
Y15833D01*
X2636Y15835D01*
X2636Y15838D01*
X2638Y15840D01*
X2638Y15841D01*
X2640Y15841D01*
X2642D01*
X2646Y15840D01*
X2647D01*
X2648Y15840D01*
X2649Y15839D01*
X2651Y15838D01*
X2655Y15837D01*
X2658Y15834D01*
X2663Y15832D01*
X2663Y15832D01*
X2665Y15831D01*
X2668Y15829D01*
X2672Y15828D01*
X2678Y15826D01*
X2684Y15823D01*
X2691Y15821D01*
X2698Y15818D01*
X2699Y15817D01*
X2702Y15817D01*
X2705Y15816D01*
X2710Y15814D01*
X2716Y15812D01*
X2722Y15810D01*
X2729Y15808D01*
X2737Y15806D01*
X2745Y15803D01*
Y15804D01*
X2744Y15805D01*
Y15807D01*
X2744Y15809D01*
X2743Y15812D01*
X2743Y15815D01*
X2742Y15820D01*
X2741Y15825D01*
X2739Y15831D01*
X2738Y15838D01*
X2737Y15845D01*
X2735Y15854D01*
X2733Y15863D01*
X2731Y15874D01*
X2728Y15886D01*
Y15887D01*
X2727Y15888D01*
X2725Y15890D01*
X2722Y15892D01*
X2721D01*
X2721Y15893D01*
X2719Y15896D01*
X2717Y15899D01*
X2716Y15901D01*
Y15904D01*
X2717Y15908D01*
X2719Y15911D01*
X2721Y15913D01*
X2723Y15915D01*
X2724D01*
X2725Y15915D01*
X2728Y15917D01*
X2733Y15917D01*
X2736D01*
X2738Y15917D01*
D02*
G37*
G36*
X2745Y15639D02*
X2746D01*
X2746D01*
X2748Y15639D01*
X2750D01*
X2756Y15638D01*
X2763Y15636D01*
X2773Y15635D01*
X2784Y15632D01*
X2796Y15629D01*
X2810Y15624D01*
X2811D01*
X2812Y15624D01*
X2815Y15623D01*
X2819Y15621D01*
X2823Y15620D01*
X2829Y15618D01*
X2835Y15617D01*
X2843Y15614D01*
X2851Y15611D01*
X2860Y15608D01*
X2870Y15605D01*
X2881Y15601D01*
X2893Y15597D01*
X2906Y15593D01*
X2920Y15588D01*
X2934Y15583D01*
X2935D01*
X2935Y15583D01*
X2939Y15581D01*
X2943Y15578D01*
X2945Y15576D01*
X2947Y15573D01*
Y15572D01*
X2948Y15571D01*
X2948Y15570D01*
X2950Y15568D01*
X2951Y15562D01*
X2952Y15556D01*
Y15555D01*
X2952Y15553D01*
X2951Y15549D01*
X2949Y15546D01*
X2948Y15546D01*
X2947Y15544D01*
X2944Y15544D01*
X2942D01*
X2940Y15544D01*
X2939Y15545D01*
X2936Y15546D01*
X2932Y15547D01*
X2925Y15550D01*
X2917Y15553D01*
X2907Y15557D01*
X2895Y15562D01*
X2881Y15568D01*
X2880D01*
X2879Y15568D01*
X2876Y15570D01*
X2874Y15571D01*
X2870Y15572D01*
X2865Y15574D01*
X2856Y15578D01*
X2844Y15582D01*
X2832Y15586D01*
X2821Y15591D01*
X2809Y15595D01*
X2809D01*
X2808Y15595D01*
X2805Y15596D01*
X2800Y15598D01*
X2794Y15600D01*
X2787Y15602D01*
X2780Y15604D01*
X2773Y15606D01*
X2767Y15608D01*
X2767D01*
X2765Y15608D01*
X2762Y15609D01*
X2760Y15609D01*
X2757Y15610D01*
X2754Y15611D01*
X2752D01*
X2752Y15610D01*
Y15609D01*
X2752Y15608D01*
X2754Y15604D01*
X2757Y15600D01*
X2758Y15597D01*
X2761Y15594D01*
X2764Y15590D01*
X2768Y15586D01*
X2773Y15582D01*
X2778Y15577D01*
X2784Y15571D01*
X2790Y15566D01*
X2791Y15565D01*
X2792Y15564D01*
X2794Y15562D01*
X2797Y15560D01*
X2801Y15557D01*
X2805Y15554D01*
X2811Y15549D01*
X2817Y15544D01*
X2824Y15539D01*
X2832Y15534D01*
X2840Y15527D01*
X2849Y15520D01*
X2858Y15513D01*
X2869Y15505D01*
X2880Y15497D01*
X2892Y15489D01*
X2911Y15476D01*
X2912Y15475D01*
X2914Y15472D01*
X2917Y15469D01*
X2921Y15464D01*
Y15463D01*
X2921Y15463D01*
X2922Y15460D01*
X2923Y15455D01*
X2924Y15451D01*
Y15447D01*
X2923Y15444D01*
X2922Y15441D01*
X2922Y15440D01*
X2921Y15440D01*
X2918D01*
X2916D01*
X2913Y15440D01*
X2875Y15449D01*
X2808Y15465D01*
X2808D01*
X2806Y15466D01*
X2804Y15466D01*
X2802Y15467D01*
X2798Y15468D01*
X2794Y15469D01*
X2784Y15471D01*
X2773Y15473D01*
X2761Y15476D01*
X2749Y15479D01*
X2737Y15481D01*
X2737D01*
X2736D01*
X2733Y15482D01*
X2729Y15483D01*
X2726Y15483D01*
X2726D01*
X2725Y15484D01*
X2721Y15486D01*
X2716Y15490D01*
X2714Y15493D01*
X2712Y15496D01*
X2711Y15496D01*
X2711Y15497D01*
X2710Y15500D01*
X2709Y15502D01*
X2707Y15508D01*
X2706Y15512D01*
Y15516D01*
X2707Y15517D01*
X2707Y15518D01*
X2709Y15519D01*
X2712Y15520D01*
X2716Y15520D01*
X2722Y15520D01*
X2726Y15519D01*
X2731Y15518D01*
X2732D01*
X2733Y15518D01*
X2735Y15517D01*
X2738Y15517D01*
X2741Y15516D01*
X2745Y15514D01*
X2749Y15513D01*
X2754Y15512D01*
X2760Y15511D01*
X2766Y15509D01*
X2772Y15507D01*
X2779Y15505D01*
X2787Y15503D01*
X2796Y15501D01*
X2805Y15498D01*
X2828Y15491D01*
X2828D01*
X2830Y15491D01*
X2832Y15490D01*
X2835Y15489D01*
X2839Y15489D01*
X2844Y15487D01*
X2853Y15485D01*
X2863Y15482D01*
X2868Y15481D01*
X2868Y15481D01*
X2863Y15484D01*
X2858Y15488D01*
X2851Y15493D01*
X2844Y15499D01*
X2836Y15505D01*
X2819Y15518D01*
X2800Y15532D01*
X2781Y15547D01*
X2764Y15562D01*
X2763Y15562D01*
X2762Y15564D01*
X2760Y15566D01*
X2757Y15568D01*
X2754Y15572D01*
X2750Y15576D01*
X2741Y15584D01*
X2733Y15594D01*
X2726Y15604D01*
X2723Y15609D01*
X2721Y15615D01*
X2719Y15620D01*
X2719Y15624D01*
Y15625D01*
X2719Y15627D01*
X2720Y15630D01*
X2722Y15633D01*
X2725Y15636D01*
X2730Y15638D01*
X2733Y15639D01*
X2737Y15640D01*
X2740D01*
X2745Y15639D01*
D02*
G37*
G36*
X2728Y15428D02*
X2734Y15427D01*
X2734Y15426D01*
X2737Y15425D01*
X2740Y15423D01*
X2745Y15420D01*
X2751Y15416D01*
X2756Y15411D01*
X2763Y15404D01*
X2769Y15395D01*
Y15394D01*
X2769Y15394D01*
X2772Y15390D01*
X2775Y15385D01*
X2779Y15378D01*
X2783Y15369D01*
X2788Y15359D01*
X2792Y15348D01*
X2797Y15335D01*
Y15335D01*
X2798Y15334D01*
X2798Y15332D01*
X2799Y15329D01*
X2800Y15327D01*
X2801Y15323D01*
X2804Y15315D01*
X2806Y15305D01*
X2809Y15294D01*
X2811Y15282D01*
X2814Y15271D01*
X2814Y15270D01*
X2817Y15269D01*
X2820Y15267D01*
X2825Y15265D01*
X2831Y15262D01*
X2837Y15259D01*
X2844Y15257D01*
X2851Y15254D01*
X2852D01*
X2852Y15253D01*
X2856Y15253D01*
X2860Y15252D01*
X2866Y15251D01*
X2872Y15250D01*
X2879D01*
X2885Y15250D01*
X2891Y15252D01*
X2891Y15252D01*
X2893Y15253D01*
X2895Y15255D01*
X2897Y15258D01*
X2900Y15262D01*
X2902Y15267D01*
X2904Y15273D01*
X2904Y15280D01*
Y15283D01*
X2904Y15286D01*
Y15289D01*
X2903Y15292D01*
X2901Y15301D01*
X2898Y15311D01*
X2894Y15321D01*
X2888Y15333D01*
X2884Y15338D01*
X2880Y15344D01*
X2879Y15344D01*
X2879Y15345D01*
X2877Y15346D01*
X2875Y15348D01*
X2870Y15354D01*
X2863Y15362D01*
X2855Y15370D01*
X2845Y15380D01*
X2834Y15389D01*
X2823Y15399D01*
X2822Y15400D01*
X2821Y15401D01*
X2819Y15402D01*
X2814Y15406D01*
X2814D01*
X2813Y15407D01*
X2811Y15409D01*
X2809Y15412D01*
X2808Y15415D01*
Y15417D01*
X2809Y15420D01*
X2810Y15421D01*
X2812Y15422D01*
X2815D01*
X2819Y15421D01*
X2820D01*
X2821Y15419D01*
X2823Y15418D01*
X2827Y15416D01*
X2833Y15413D01*
X2839Y15408D01*
X2847Y15402D01*
X2858Y15394D01*
X2858D01*
X2859Y15393D01*
X2861Y15392D01*
X2863Y15390D01*
X2868Y15386D01*
X2876Y15379D01*
X2884Y15370D01*
X2893Y15360D01*
X2903Y15350D01*
X2912Y15337D01*
Y15336D01*
X2914Y15335D01*
X2915Y15334D01*
X2916Y15331D01*
X2918Y15328D01*
X2921Y15324D01*
X2925Y15315D01*
X2929Y15304D01*
X2934Y15292D01*
X2936Y15279D01*
X2937Y15271D01*
X2938Y15264D01*
Y15261D01*
X2937Y15259D01*
X2936Y15253D01*
X2935Y15246D01*
X2933Y15239D01*
X2929Y15231D01*
X2924Y15223D01*
X2918Y15217D01*
X2917Y15217D01*
X2914Y15215D01*
X2910Y15214D01*
X2903Y15212D01*
X2894Y15211D01*
X2884D01*
X2878Y15211D01*
X2871Y15213D01*
X2865Y15215D01*
X2857Y15217D01*
X2857D01*
X2856Y15217D01*
X2853Y15218D01*
X2851Y15219D01*
X2847Y15221D01*
X2844Y15222D01*
X2834Y15227D01*
X2822Y15233D01*
X2810Y15240D01*
X2797Y15249D01*
X2783Y15259D01*
X2782Y15259D01*
X2781Y15261D01*
X2780Y15262D01*
X2777Y15264D01*
X2774Y15267D01*
X2770Y15270D01*
X2762Y15279D01*
X2752Y15288D01*
X2742Y15299D01*
X2732Y15312D01*
X2723Y15325D01*
X2722Y15325D01*
X2722Y15327D01*
X2721Y15328D01*
X2719Y15331D01*
X2717Y15334D01*
X2715Y15338D01*
X2711Y15347D01*
X2707Y15357D01*
X2703Y15369D01*
X2701Y15380D01*
X2699Y15386D01*
Y15395D01*
X2700Y15399D01*
X2701Y15402D01*
X2702Y15407D01*
X2703Y15412D01*
X2705Y15417D01*
X2708Y15421D01*
X2709Y15422D01*
X2710Y15423D01*
X2712Y15424D01*
X2715Y15426D01*
X2718Y15427D01*
X2723Y15428D01*
X2728Y15428D01*
D02*
G37*
G36*
X2844Y15215D02*
X2847Y15214D01*
X2848D01*
X2849Y15214D01*
X2850Y15213D01*
X2852Y15211D01*
X2855Y15209D01*
X2858Y15207D01*
X2863Y15203D01*
X2867Y15199D01*
X2868Y15198D01*
X2868Y15198D01*
X2870Y15196D01*
X2872Y15193D01*
X2874Y15191D01*
X2877Y15187D01*
X2881Y15183D01*
X2884Y15179D01*
X2892Y15168D01*
X2901Y15155D01*
X2911Y15141D01*
X2920Y15126D01*
Y15125D01*
X2921Y15124D01*
X2922Y15121D01*
X2924Y15119D01*
X2926Y15115D01*
X2928Y15110D01*
X2930Y15105D01*
X2933Y15099D01*
X2937Y15086D01*
X2941Y15073D01*
X2944Y15057D01*
X2945Y15050D01*
X2945Y15042D01*
Y15038D01*
X2945Y15035D01*
Y15031D01*
X2944Y15027D01*
X2942Y15018D01*
X2939Y15007D01*
X2935Y14997D01*
X2928Y14986D01*
X2924Y14982D01*
X2920Y14978D01*
X2920D01*
X2919Y14978D01*
X2917Y14977D01*
X2915Y14976D01*
X2913Y14974D01*
X2910Y14973D01*
X2906Y14972D01*
X2901Y14971D01*
X2897Y14970D01*
X2891Y14970D01*
X2885Y14969D01*
X2878Y14970D01*
X2871Y14970D01*
X2863Y14971D01*
X2855Y14973D01*
X2846Y14976D01*
X2845D01*
X2844Y14977D01*
X2843Y14977D01*
X2840Y14978D01*
X2837Y14979D01*
X2833Y14981D01*
X2829Y14983D01*
X2824Y14985D01*
X2814Y14990D01*
X2801Y14996D01*
X2787Y15003D01*
X2772Y15012D01*
X2772Y15013D01*
X2770Y15013D01*
X2768Y15015D01*
X2765Y15016D01*
X2762Y15019D01*
X2757Y15021D01*
X2748Y15028D01*
X2737Y15036D01*
X2725Y15045D01*
X2713Y15054D01*
X2701Y15063D01*
X2700Y15064D01*
X2699Y15065D01*
X2698Y15066D01*
X2696Y15068D01*
X2690Y15073D01*
X2683Y15080D01*
X2674Y15088D01*
X2666Y15097D01*
X2657Y15107D01*
X2649Y15117D01*
Y15118D01*
X2648Y15119D01*
X2647Y15120D01*
X2645Y15122D01*
X2642Y15128D01*
X2638Y15135D01*
X2634Y15143D01*
X2631Y15151D01*
X2628Y15160D01*
X2627Y15169D01*
Y15173D01*
X2628Y15176D01*
X2630Y15181D01*
X2631Y15186D01*
X2634Y15191D01*
X2638Y15195D01*
X2644Y15198D01*
X2644Y15199D01*
X2647Y15199D01*
X2650Y15200D01*
X2655Y15200D01*
X2660Y15201D01*
X2667Y15200D01*
X2674Y15199D01*
X2683Y15197D01*
X2683D01*
X2684Y15197D01*
X2686Y15196D01*
X2688Y15195D01*
X2693Y15192D01*
X2700Y15188D01*
X2701D01*
X2702Y15187D01*
X2703Y15186D01*
X2705Y15184D01*
X2710Y15180D01*
X2716Y15175D01*
X2716Y15174D01*
X2717Y15174D01*
X2719Y15171D01*
X2722Y15167D01*
X2722Y15165D01*
X2723Y15163D01*
Y15162D01*
X2722Y15160D01*
X2721Y15158D01*
X2719Y15157D01*
X2717D01*
X2714Y15158D01*
X2713D01*
X2712Y15158D01*
X2710Y15160D01*
X2707Y15162D01*
X2705Y15162D01*
X2704Y15163D01*
X2702Y15165D01*
X2699Y15166D01*
X2699D01*
X2698Y15167D01*
X2696Y15167D01*
X2693Y15168D01*
X2686Y15169D01*
X2679Y15170D01*
X2678D01*
X2678D01*
X2674D01*
X2671Y15169D01*
X2667Y15167D01*
X2666Y15166D01*
X2664Y15164D01*
X2662Y15161D01*
X2662Y15156D01*
Y15155D01*
X2662Y15153D01*
X2663Y15151D01*
X2663Y15148D01*
X2665Y15144D01*
X2667Y15140D01*
X2669Y15135D01*
X2673Y15129D01*
X2677Y15123D01*
X2682Y15117D01*
X2688Y15110D01*
X2695Y15102D01*
X2703Y15094D01*
X2713Y15086D01*
X2723Y15077D01*
X2724D01*
X2725Y15075D01*
X2728Y15073D01*
X2733Y15069D01*
X2740Y15064D01*
X2749Y15058D01*
X2759Y15051D01*
X2769Y15044D01*
X2781Y15037D01*
X2782D01*
X2783Y15037D01*
X2785Y15036D01*
X2787Y15034D01*
X2790Y15033D01*
X2793Y15031D01*
X2801Y15027D01*
X2811Y15022D01*
X2821Y15017D01*
X2832Y15013D01*
X2844Y15008D01*
X2845D01*
X2847Y15007D01*
X2851Y15006D01*
X2856Y15006D01*
X2862Y15004D01*
X2868Y15004D01*
X2874Y15003D01*
X2880Y15004D01*
X2881D01*
X2883Y15004D01*
X2886Y15006D01*
X2889Y15007D01*
X2893Y15009D01*
X2898Y15011D01*
X2902Y15014D01*
X2906Y15018D01*
X2906Y15019D01*
X2907Y15020D01*
X2909Y15023D01*
X2910Y15027D01*
X2912Y15031D01*
X2914Y15037D01*
X2915Y15043D01*
X2915Y15050D01*
Y15056D01*
X2915Y15059D01*
X2914Y15062D01*
X2913Y15071D01*
X2911Y15080D01*
X2909Y15091D01*
X2905Y15103D01*
X2899Y15115D01*
Y15115D01*
X2899Y15116D01*
X2898Y15118D01*
X2897Y15120D01*
X2895Y15123D01*
X2893Y15127D01*
X2888Y15135D01*
X2882Y15145D01*
X2875Y15157D01*
X2867Y15170D01*
X2858Y15183D01*
X2857Y15184D01*
X2856Y15185D01*
X2853Y15187D01*
X2851Y15190D01*
X2847Y15193D01*
X2847Y15193D01*
X2846Y15194D01*
X2844Y15196D01*
X2842Y15198D01*
X2838Y15204D01*
X2837Y15206D01*
X2837Y15209D01*
Y15210D01*
X2837Y15211D01*
X2838Y15214D01*
X2840Y15215D01*
X2840D01*
X2842Y15215D01*
X2844Y15215D01*
D02*
G37*
G36*
X2705Y14838D02*
X2714Y14836D01*
X2715D01*
X2716Y14835D01*
X2718Y14834D01*
X2721Y14833D01*
X2724Y14832D01*
X2728Y14830D01*
X2737Y14825D01*
X2748Y14819D01*
X2760Y14811D01*
X2773Y14801D01*
X2786Y14789D01*
X2786Y14789D01*
X2787Y14788D01*
X2789Y14786D01*
X2792Y14783D01*
X2795Y14780D01*
X2799Y14776D01*
X2803Y14771D01*
X2808Y14765D01*
X2813Y14759D01*
X2819Y14752D01*
X2825Y14744D01*
X2832Y14736D01*
X2839Y14727D01*
X2846Y14717D01*
X2853Y14706D01*
X2861Y14695D01*
X2862Y14694D01*
X2862Y14693D01*
X2864Y14691D01*
X2865Y14688D01*
X2868Y14685D01*
X2870Y14681D01*
X2874Y14676D01*
X2877Y14671D01*
X2884Y14660D01*
X2892Y14647D01*
X2901Y14633D01*
X2910Y14619D01*
Y14618D01*
X2911Y14617D01*
X2912Y14615D01*
X2914Y14613D01*
X2915Y14610D01*
X2917Y14606D01*
X2922Y14598D01*
X2927Y14588D01*
X2932Y14578D01*
X2936Y14569D01*
X2940Y14560D01*
X2940Y14559D01*
X2942Y14558D01*
X2945Y14556D01*
X2948Y14552D01*
X2948Y14551D01*
X2950Y14549D01*
X2951Y14545D01*
X2952Y14539D01*
Y14538D01*
X2951Y14536D01*
X2950Y14533D01*
X2948Y14531D01*
X2948Y14530D01*
X2946D01*
X2944Y14529D01*
X2939Y14531D01*
X2938Y14531D01*
X2937Y14532D01*
X2935Y14532D01*
X2932Y14533D01*
X2928Y14535D01*
X2922Y14538D01*
X2916Y14540D01*
X2915Y14541D01*
X2912Y14542D01*
X2908Y14544D01*
X2902Y14546D01*
X2895Y14549D01*
X2887Y14552D01*
X2878Y14556D01*
X2868Y14559D01*
X2868D01*
X2866Y14559D01*
X2864Y14561D01*
X2861Y14562D01*
X2856Y14563D01*
X2851Y14564D01*
X2846Y14567D01*
X2840Y14568D01*
X2827Y14573D01*
X2813Y14577D01*
X2798Y14582D01*
X2784Y14586D01*
X2784D01*
X2782Y14587D01*
X2780Y14588D01*
X2777Y14588D01*
X2773Y14589D01*
X2769Y14591D01*
X2760Y14594D01*
X2750Y14597D01*
X2739Y14601D01*
X2729Y14604D01*
X2726Y14605D01*
X2722Y14606D01*
X2721D01*
X2721Y14607D01*
X2717Y14608D01*
X2712Y14610D01*
X2705Y14613D01*
X2698Y14616D01*
X2691Y14620D01*
X2684Y14623D01*
X2677Y14628D01*
X2676Y14628D01*
X2674Y14630D01*
X2672Y14632D01*
X2669Y14635D01*
X2666Y14639D01*
X2663Y14643D01*
X2662Y14648D01*
X2661Y14653D01*
Y14656D01*
X2662Y14659D01*
X2663Y14662D01*
X2664Y14662D01*
X2665Y14664D01*
X2668Y14664D01*
X2669D01*
X2672Y14664D01*
X2672Y14663D01*
X2674Y14663D01*
X2675Y14662D01*
X2678Y14660D01*
X2680Y14658D01*
X2684Y14656D01*
X2689Y14653D01*
X2690Y14652D01*
X2691Y14651D01*
X2694Y14650D01*
X2697Y14648D01*
X2701Y14646D01*
X2705Y14644D01*
X2714Y14640D01*
X2715D01*
X2716Y14640D01*
X2718Y14639D01*
X2721Y14638D01*
X2724Y14637D01*
X2728Y14635D01*
X2733Y14634D01*
X2738Y14632D01*
X2749Y14628D01*
X2762Y14624D01*
X2776Y14620D01*
X2791Y14615D01*
X2791D01*
X2793Y14615D01*
X2796Y14614D01*
X2800Y14612D01*
X2804Y14611D01*
X2810Y14609D01*
X2822Y14605D01*
X2834Y14601D01*
X2846Y14597D01*
X2852Y14596D01*
X2857Y14594D01*
X2861Y14592D01*
X2864Y14591D01*
X2865D01*
X2866Y14591D01*
X2868Y14590D01*
X2870Y14589D01*
X2875Y14587D01*
X2882Y14585D01*
X2888Y14583D01*
X2894Y14581D01*
X2897Y14580D01*
X2899Y14579D01*
X2900Y14579D01*
X2901Y14578D01*
X2901Y14579D01*
X2900Y14580D01*
X2899Y14583D01*
X2896Y14588D01*
X2893Y14594D01*
X2888Y14602D01*
X2883Y14612D01*
X2880Y14618D01*
X2876Y14624D01*
Y14625D01*
X2875Y14626D01*
X2874Y14628D01*
X2873Y14630D01*
X2870Y14634D01*
X2868Y14637D01*
X2863Y14646D01*
X2858Y14655D01*
X2851Y14665D01*
X2845Y14675D01*
X2839Y14685D01*
X2838Y14686D01*
X2837Y14687D01*
X2835Y14690D01*
X2833Y14694D01*
X2829Y14698D01*
X2826Y14703D01*
X2822Y14709D01*
X2817Y14715D01*
X2808Y14728D01*
X2797Y14741D01*
X2786Y14753D01*
X2780Y14759D01*
X2775Y14765D01*
X2774Y14765D01*
X2774Y14766D01*
X2772Y14767D01*
X2770Y14769D01*
X2764Y14774D01*
X2757Y14780D01*
X2748Y14787D01*
X2738Y14793D01*
X2727Y14799D01*
X2716Y14803D01*
X2716D01*
X2715Y14804D01*
X2713D01*
X2711Y14804D01*
X2705Y14805D01*
X2698Y14804D01*
X2694Y14802D01*
X2690Y14801D01*
X2686Y14799D01*
X2683Y14795D01*
X2679Y14792D01*
X2675Y14787D01*
X2672Y14781D01*
X2669Y14773D01*
Y14773D01*
X2669Y14772D01*
X2668Y14769D01*
X2667Y14766D01*
X2666Y14762D01*
X2665Y14757D01*
X2664Y14751D01*
X2662Y14744D01*
X2661Y14736D01*
X2660Y14728D01*
X2659Y14718D01*
X2658Y14707D01*
X2657Y14696D01*
X2656Y14684D01*
X2656Y14671D01*
Y14648D01*
X2656Y14641D01*
X2657Y14632D01*
X2658Y14621D01*
X2660Y14609D01*
X2661Y14594D01*
Y14592D01*
X2662Y14591D01*
Y14588D01*
X2662Y14585D01*
X2663Y14581D01*
X2665Y14576D01*
X2666Y14570D01*
Y14569D01*
X2666Y14568D01*
X2667Y14565D01*
X2668Y14561D01*
X2668Y14557D01*
Y14556D01*
X2667Y14554D01*
X2665Y14551D01*
X2663Y14550D01*
X2661Y14549D01*
X2660D01*
X2659D01*
X2657Y14548D01*
X2656D01*
X2650Y14549D01*
X2645Y14550D01*
X2644Y14550D01*
X2642Y14551D01*
X2640Y14553D01*
X2638Y14557D01*
Y14557D01*
X2637Y14558D01*
X2636Y14561D01*
X2634Y14565D01*
X2633Y14571D01*
Y14573D01*
X2633Y14574D01*
Y14576D01*
X2632Y14582D01*
X2631Y14588D01*
X2630Y14596D01*
X2630Y14604D01*
X2628Y14613D01*
X2628Y14621D01*
Y14622D01*
X2627Y14625D01*
Y14629D01*
X2627Y14635D01*
X2626Y14642D01*
Y14651D01*
X2626Y14659D01*
Y14677D01*
X2626Y14683D01*
Y14691D01*
X2627Y14699D01*
X2627Y14708D01*
X2628Y14718D01*
X2630Y14729D01*
X2631Y14740D01*
X2634Y14762D01*
X2639Y14784D01*
X2642Y14794D01*
X2646Y14804D01*
Y14804D01*
X2647Y14806D01*
X2648Y14808D01*
X2650Y14811D01*
X2655Y14818D01*
X2658Y14822D01*
X2662Y14826D01*
X2666Y14829D01*
X2671Y14833D01*
X2677Y14836D01*
X2683Y14837D01*
X2690Y14839D01*
X2697D01*
X2705Y14838D01*
D02*
G37*
G36*
X2633Y14553D02*
X2634D01*
X2635Y14552D01*
X2637Y14551D01*
X2638Y14550D01*
X2641Y14548D01*
X2643Y14546D01*
X2645Y14543D01*
X2648Y14538D01*
X2648Y14538D01*
X2649Y14535D01*
X2650Y14532D01*
X2652Y14526D01*
X2655Y14520D01*
X2657Y14512D01*
X2660Y14503D01*
X2663Y14492D01*
Y14492D01*
X2663Y14491D01*
Y14490D01*
X2664Y14487D01*
X2666Y14482D01*
X2667Y14475D01*
X2669Y14467D01*
X2671Y14459D01*
X2673Y14451D01*
X2674Y14443D01*
Y14442D01*
X2675Y14440D01*
Y14438D01*
X2676Y14433D01*
X2677Y14425D01*
X2679Y14416D01*
X2680Y14407D01*
X2681Y14396D01*
X2683Y14386D01*
Y14385D01*
X2683Y14381D01*
X2684Y14377D01*
X2684Y14372D01*
X2685Y14366D01*
X2685Y14361D01*
Y14357D01*
X2686Y14355D01*
Y14354D01*
X2687Y14354D01*
X2690Y14353D01*
X2695Y14351D01*
X2701Y14349D01*
X2708Y14347D01*
X2717Y14344D01*
X2727Y14341D01*
X2737Y14338D01*
X2738D01*
X2738Y14337D01*
X2742Y14336D01*
X2746Y14335D01*
X2752Y14333D01*
X2758Y14331D01*
X2763Y14330D01*
X2768Y14329D01*
X2772Y14327D01*
Y14328D01*
X2771Y14330D01*
X2770Y14334D01*
X2769Y14339D01*
X2768Y14347D01*
X2767Y14356D01*
X2766Y14362D01*
X2764Y14368D01*
X2763Y14374D01*
X2762Y14381D01*
X2761Y14396D01*
Y14397D01*
X2760Y14398D01*
Y14399D01*
X2760Y14402D01*
X2758Y14407D01*
X2756Y14414D01*
X2754Y14422D01*
X2751Y14431D01*
X2747Y14439D01*
X2743Y14447D01*
X2742Y14448D01*
X2742Y14449D01*
X2740Y14451D01*
X2739Y14454D01*
X2736Y14460D01*
X2736Y14462D01*
X2735Y14465D01*
Y14466D01*
X2736Y14468D01*
X2737Y14470D01*
X2740Y14472D01*
X2742D01*
X2744Y14473D01*
X2746D01*
X2750Y14472D01*
X2751D01*
X2752Y14471D01*
X2755Y14469D01*
X2757Y14467D01*
X2761Y14463D01*
X2764Y14458D01*
X2768Y14452D01*
X2773Y14444D01*
X2773Y14443D01*
X2774Y14439D01*
X2776Y14435D01*
X2779Y14429D01*
X2781Y14421D01*
X2784Y14413D01*
X2786Y14404D01*
X2788Y14396D01*
Y14395D01*
X2788Y14392D01*
X2790Y14387D01*
X2791Y14381D01*
X2792Y14374D01*
X2793Y14366D01*
X2794Y14358D01*
X2796Y14349D01*
Y14348D01*
X2797Y14345D01*
X2797Y14341D01*
X2798Y14336D01*
X2799Y14331D01*
X2799Y14326D01*
X2800Y14323D01*
X2800Y14320D01*
X2802D01*
X2804Y14319D01*
X2808Y14318D01*
X2812Y14316D01*
X2819Y14315D01*
X2826Y14313D01*
X2834Y14311D01*
X2842Y14309D01*
X2860Y14304D01*
X2879Y14301D01*
X2887Y14300D01*
X2896Y14298D01*
X2904Y14298D01*
X2911Y14297D01*
Y14298D01*
X2912Y14299D01*
X2912Y14301D01*
X2913Y14304D01*
X2914Y14307D01*
X2915Y14311D01*
X2917Y14319D01*
Y14320D01*
X2917Y14321D01*
Y14324D01*
X2918Y14328D01*
X2918Y14332D01*
Y14338D01*
X2919Y14344D01*
Y14355D01*
X2918Y14359D01*
Y14364D01*
X2918Y14369D01*
X2917Y14377D01*
X2914Y14391D01*
Y14392D01*
X2913Y14394D01*
X2912Y14398D01*
X2910Y14402D01*
X2909Y14407D01*
X2906Y14413D01*
X2904Y14418D01*
X2901Y14423D01*
X2901Y14424D01*
X2900Y14425D01*
X2899Y14427D01*
X2897Y14430D01*
X2893Y14434D01*
X2891Y14436D01*
X2889Y14437D01*
X2889D01*
X2888Y14438D01*
X2885D01*
X2884D01*
X2882D01*
X2880Y14437D01*
X2878Y14437D01*
X2877D01*
X2876Y14436D01*
X2875Y14436D01*
X2873Y14435D01*
X2872D01*
X2870Y14434D01*
X2868D01*
X2866Y14435D01*
X2865D01*
X2864Y14436D01*
X2863Y14437D01*
X2861Y14438D01*
X2859Y14440D01*
X2858Y14444D01*
X2857Y14448D01*
X2857Y14453D01*
Y14455D01*
X2857Y14456D01*
X2858Y14458D01*
X2859Y14461D01*
X2860Y14463D01*
X2862Y14465D01*
X2865Y14467D01*
X2865D01*
X2866Y14467D01*
X2868Y14468D01*
X2870Y14468D01*
X2875Y14469D01*
X2878D01*
X2881Y14468D01*
X2882D01*
X2884Y14467D01*
X2887Y14465D01*
X2892Y14463D01*
X2897Y14459D01*
X2902Y14455D01*
X2908Y14449D01*
X2914Y14443D01*
X2915Y14442D01*
X2917Y14439D01*
X2920Y14435D01*
X2923Y14430D01*
X2927Y14422D01*
X2931Y14415D01*
X2935Y14405D01*
X2939Y14396D01*
Y14395D01*
X2939Y14395D01*
X2940Y14393D01*
X2940Y14391D01*
X2941Y14385D01*
X2943Y14378D01*
X2945Y14370D01*
X2946Y14360D01*
X2947Y14350D01*
X2948Y14339D01*
Y14329D01*
X2947Y14323D01*
Y14315D01*
X2946Y14307D01*
X2946Y14299D01*
X2945Y14292D01*
Y14291D01*
X2944Y14289D01*
X2943Y14286D01*
X2942Y14282D01*
X2938Y14274D01*
X2935Y14271D01*
X2932Y14267D01*
X2932Y14267D01*
X2929Y14266D01*
X2926Y14265D01*
X2921Y14264D01*
X2915Y14264D01*
X2907D01*
X2897Y14264D01*
X2886Y14266D01*
X2886D01*
X2885Y14266D01*
X2883D01*
X2880Y14267D01*
X2877Y14268D01*
X2874Y14268D01*
X2869Y14270D01*
X2864Y14271D01*
X2858Y14272D01*
X2852Y14273D01*
X2839Y14277D01*
X2823Y14281D01*
X2806Y14286D01*
X2806Y14285D01*
X2807Y14282D01*
X2808Y14280D01*
X2809Y14277D01*
X2809Y14273D01*
X2810Y14270D01*
Y14268D01*
X2810Y14266D01*
Y14263D01*
X2811Y14258D01*
X2811Y14252D01*
Y14251D01*
X2811Y14248D01*
X2809Y14244D01*
X2806Y14241D01*
X2805Y14241D01*
X2803Y14240D01*
X2799Y14239D01*
X2794Y14240D01*
X2794Y14241D01*
X2792Y14241D01*
X2790Y14243D01*
X2787Y14244D01*
X2786Y14245D01*
X2785Y14247D01*
X2783Y14250D01*
X2782Y14254D01*
Y14254D01*
X2781Y14256D01*
Y14259D01*
X2781Y14262D01*
X2780Y14270D01*
X2780Y14273D01*
Y14277D01*
X2778Y14293D01*
X2777D01*
X2775Y14294D01*
X2772Y14295D01*
X2768Y14296D01*
X2763Y14297D01*
X2758Y14299D01*
X2752Y14301D01*
X2745Y14303D01*
X2731Y14307D01*
X2716Y14312D01*
X2702Y14316D01*
X2688Y14320D01*
Y14316D01*
X2689Y14314D01*
X2689Y14292D01*
Y14291D01*
X2689Y14288D01*
X2687Y14285D01*
X2686Y14283D01*
X2685Y14282D01*
X2683Y14282D01*
X2680D01*
X2677Y14282D01*
X2677D01*
X2675Y14283D01*
X2672Y14285D01*
X2669Y14287D01*
X2666Y14290D01*
X2662Y14295D01*
X2660Y14300D01*
X2657Y14307D01*
Y14308D01*
X2657Y14312D01*
X2656Y14316D01*
X2656Y14323D01*
Y14323D01*
X2655Y14324D01*
X2655Y14327D01*
X2654Y14331D01*
Y14333D01*
X2654Y14333D01*
X2653Y14335D01*
X2651Y14338D01*
X2649Y14341D01*
X2648Y14345D01*
X2646Y14349D01*
X2645Y14354D01*
X2644Y14359D01*
Y14359D01*
X2645Y14361D01*
X2647Y14363D01*
X2649Y14363D01*
X2650D01*
X2651Y14364D01*
X2652Y14365D01*
X2651Y14365D01*
Y14370D01*
X2651Y14372D01*
Y14375D01*
X2650Y14383D01*
X2650Y14393D01*
X2648Y14405D01*
X2647Y14419D01*
X2645Y14435D01*
Y14437D01*
X2644Y14438D01*
X2644Y14440D01*
Y14444D01*
X2643Y14448D01*
X2642Y14452D01*
X2641Y14457D01*
X2640Y14463D01*
X2639Y14470D01*
X2637Y14478D01*
X2636Y14486D01*
X2634Y14494D01*
X2632Y14504D01*
X2630Y14515D01*
X2627Y14526D01*
X2624Y14546D01*
Y14548D01*
X2625Y14551D01*
X2626Y14552D01*
X2628Y14553D01*
X2630D01*
X2633Y14553D01*
D02*
G37*
G36*
X2892Y14176D02*
X2897Y14175D01*
X2897D01*
X2898Y14175D01*
X2901Y14172D01*
X2906Y14169D01*
X2910Y14163D01*
Y14163D01*
X2911Y14161D01*
X2912Y14160D01*
X2913Y14158D01*
X2915Y14153D01*
X2916Y14146D01*
X2922Y14064D01*
X2927Y14006D01*
X2929Y13977D01*
Y13976D01*
X2928Y13973D01*
X2926Y13970D01*
X2924Y13969D01*
X2922Y13968D01*
X2922D01*
X2921D01*
X2918Y13967D01*
X2915D01*
X2910Y13968D01*
X2909Y13968D01*
X2907Y13969D01*
X2905Y13971D01*
X2903Y13974D01*
X2902Y13974D01*
X2901Y13976D01*
X2900Y13979D01*
X2899Y13981D01*
Y13981D01*
X2899Y13982D01*
X2899D01*
X2898Y13982D01*
X2897Y13983D01*
X2894Y13983D01*
X2891Y13985D01*
X2887Y13986D01*
X2882Y13988D01*
X2876Y13990D01*
X2869Y13992D01*
X2861Y13995D01*
X2852Y13998D01*
X2841Y14002D01*
X2829Y14006D01*
X2816Y14011D01*
X2800Y14016D01*
X2784Y14022D01*
X2784Y14022D01*
X2781Y14023D01*
X2778Y14024D01*
X2773Y14025D01*
X2767Y14027D01*
X2761Y14029D01*
X2754Y14031D01*
X2746Y14034D01*
X2729Y14039D01*
X2711Y14044D01*
X2695Y14048D01*
X2686Y14050D01*
X2679Y14052D01*
X2679D01*
X2678Y14052D01*
X2676D01*
X2673Y14053D01*
X2667Y14054D01*
X2660Y14056D01*
X2653Y14057D01*
X2646Y14059D01*
X2643Y14059D01*
X2641Y14060D01*
X2639Y14060D01*
X2638D01*
X2638D01*
X2637Y14061D01*
X2633Y14063D01*
X2629Y14066D01*
X2625Y14071D01*
Y14072D01*
X2624Y14073D01*
X2623Y14074D01*
X2622Y14076D01*
X2620Y14081D01*
X2620Y14087D01*
Y14088D01*
X2620Y14090D01*
X2621Y14092D01*
X2624Y14094D01*
X2625D01*
X2627Y14094D01*
X2630Y14095D01*
X2634Y14094D01*
X2634D01*
X2637D01*
X2641Y14094D01*
X2647Y14093D01*
X2651Y14092D01*
X2655Y14091D01*
X2660Y14090D01*
X2666Y14088D01*
X2672Y14087D01*
X2678Y14086D01*
X2686Y14083D01*
X2693Y14081D01*
X2694D01*
X2696Y14081D01*
X2698Y14080D01*
X2701Y14079D01*
X2705Y14078D01*
X2709Y14077D01*
X2715Y14075D01*
X2721Y14074D01*
X2734Y14069D01*
X2749Y14065D01*
X2765Y14059D01*
X2782Y14054D01*
X2782D01*
X2784Y14053D01*
X2785Y14053D01*
X2788Y14052D01*
X2791Y14051D01*
X2794Y14050D01*
X2803Y14047D01*
X2814Y14043D01*
X2825Y14039D01*
X2838Y14035D01*
X2850Y14030D01*
X2851D01*
X2852Y14030D01*
X2853Y14029D01*
X2856Y14028D01*
X2861Y14027D01*
X2868Y14024D01*
X2876Y14021D01*
X2883Y14019D01*
X2889Y14016D01*
X2895Y14015D01*
Y14017D01*
X2894Y14019D01*
Y14027D01*
X2894Y14033D01*
Y14036D01*
X2893Y14039D01*
Y14044D01*
X2893Y14050D01*
X2892Y14056D01*
X2892Y14069D01*
Y14070D01*
X2891Y14071D01*
Y14074D01*
X2890Y14080D01*
X2889Y14087D01*
X2888Y14096D01*
X2886Y14106D01*
X2885Y14118D01*
X2882Y14130D01*
Y14130D01*
X2882Y14131D01*
Y14133D01*
X2881Y14135D01*
X2880Y14141D01*
X2879Y14147D01*
X2878Y14154D01*
X2877Y14160D01*
X2876Y14166D01*
Y14171D01*
X2877Y14173D01*
X2879Y14176D01*
X2881Y14177D01*
X2883D01*
X2883D01*
X2884D01*
X2887D01*
X2892Y14176D01*
D02*
G37*
G36*
X2827Y13791D02*
X2835Y13789D01*
X2836Y13788D01*
X2838Y13787D01*
X2842Y13785D01*
X2847Y13783D01*
X2854Y13779D01*
X2862Y13773D01*
X2870Y13767D01*
X2879Y13759D01*
X2880Y13758D01*
X2883Y13755D01*
X2888Y13750D01*
X2893Y13744D01*
X2900Y13736D01*
X2907Y13727D01*
X2914Y13716D01*
X2921Y13704D01*
Y13704D01*
X2922Y13703D01*
X2923Y13701D01*
X2924Y13699D01*
X2925Y13696D01*
X2927Y13692D01*
X2930Y13684D01*
X2933Y13674D01*
X2936Y13663D01*
X2938Y13652D01*
X2939Y13639D01*
Y13636D01*
X2938Y13634D01*
X2938Y13629D01*
X2936Y13621D01*
X2934Y13614D01*
X2931Y13607D01*
X2927Y13601D01*
X2924Y13599D01*
X2921Y13596D01*
X2920Y13596D01*
X2917Y13595D01*
X2914Y13594D01*
X2908Y13592D01*
X2901Y13592D01*
X2893D01*
X2884Y13593D01*
X2874Y13596D01*
X2873Y13596D01*
X2870Y13597D01*
X2865Y13599D01*
X2858Y13602D01*
X2850Y13606D01*
X2841Y13611D01*
X2830Y13617D01*
X2818Y13623D01*
X2817D01*
X2816Y13624D01*
X2815Y13625D01*
X2812Y13626D01*
X2809Y13629D01*
X2806Y13631D01*
X2798Y13636D01*
X2788Y13643D01*
X2778Y13650D01*
X2768Y13659D01*
X2757Y13667D01*
X2757Y13668D01*
X2756Y13668D01*
X2755Y13669D01*
X2754Y13671D01*
X2751Y13673D01*
X2748Y13676D01*
X2744Y13680D01*
X2743Y13680D01*
X2742Y13682D01*
X2739Y13684D01*
X2737Y13687D01*
X2733Y13691D01*
X2730Y13695D01*
X2724Y13703D01*
X2723Y13704D01*
X2723Y13706D01*
X2722Y13708D01*
X2720Y13711D01*
X2718Y13718D01*
X2717Y13722D01*
X2717Y13726D01*
Y13727D01*
X2717Y13730D01*
X2718Y13733D01*
X2720Y13736D01*
X2721Y13737D01*
X2722Y13738D01*
X2725Y13739D01*
X2726D01*
X2728Y13738D01*
X2729D01*
X2730Y13737D01*
X2733Y13736D01*
X2736Y13733D01*
X2736Y13732D01*
X2738Y13731D01*
X2739Y13728D01*
X2741Y13727D01*
X2742Y13726D01*
X2744Y13723D01*
X2748Y13719D01*
X2753Y13714D01*
X2759Y13707D01*
X2766Y13701D01*
X2780Y13687D01*
X2781Y13686D01*
X2784Y13684D01*
X2788Y13680D01*
X2794Y13675D01*
X2801Y13671D01*
X2808Y13665D01*
X2816Y13659D01*
X2825Y13653D01*
X2826Y13653D01*
X2829Y13651D01*
X2834Y13648D01*
X2840Y13644D01*
X2847Y13641D01*
X2855Y13637D01*
X2864Y13633D01*
X2874Y13629D01*
X2875D01*
X2876Y13629D01*
X2877D01*
X2879Y13628D01*
X2885D01*
X2891Y13629D01*
X2894Y13630D01*
X2897Y13631D01*
X2899Y13633D01*
X2902Y13637D01*
X2904Y13641D01*
X2905Y13645D01*
X2906Y13651D01*
X2907Y13658D01*
Y13661D01*
X2906Y13665D01*
X2905Y13670D01*
X2904Y13676D01*
X2902Y13683D01*
X2899Y13690D01*
X2895Y13698D01*
X2895Y13699D01*
X2893Y13701D01*
X2891Y13706D01*
X2888Y13710D01*
X2883Y13716D01*
X2879Y13722D01*
X2874Y13728D01*
X2868Y13734D01*
X2867Y13735D01*
X2865Y13737D01*
X2862Y13740D01*
X2857Y13743D01*
X2853Y13746D01*
X2848Y13750D01*
X2843Y13753D01*
X2838Y13755D01*
X2837D01*
X2835Y13756D01*
X2832Y13756D01*
X2829Y13757D01*
X2825D01*
X2821D01*
X2816Y13756D01*
X2812Y13754D01*
X2811D01*
X2810Y13752D01*
X2808Y13751D01*
X2804Y13749D01*
X2801Y13746D01*
X2797Y13743D01*
X2792Y13739D01*
X2787Y13734D01*
X2787Y13733D01*
X2786Y13732D01*
X2784Y13731D01*
X2782Y13728D01*
X2777Y13724D01*
X2772Y13720D01*
X2772D01*
X2771Y13719D01*
X2768Y13718D01*
X2764Y13718D01*
X2762D01*
X2760Y13718D01*
X2759D01*
X2758Y13719D01*
X2755Y13721D01*
X2753Y13723D01*
X2751Y13725D01*
X2749Y13728D01*
X2747Y13732D01*
Y13733D01*
X2746Y13734D01*
X2745Y13737D01*
X2745Y13739D01*
X2743Y13747D01*
X2743Y13755D01*
Y13759D01*
X2743Y13763D01*
X2744Y13766D01*
Y13766D01*
X2745Y13767D01*
X2747Y13768D01*
X2750Y13767D01*
X2751D01*
X2752Y13767D01*
X2754Y13766D01*
X2755Y13764D01*
Y13763D01*
X2756Y13763D01*
X2756Y13762D01*
X2757Y13762D01*
X2757Y13763D01*
X2759Y13764D01*
X2761Y13766D01*
X2763Y13767D01*
X2763Y13768D01*
X2766Y13769D01*
X2769Y13772D01*
X2773Y13775D01*
X2778Y13779D01*
X2784Y13782D01*
X2789Y13786D01*
X2796Y13789D01*
X2796Y13789D01*
X2798Y13790D01*
X2802Y13791D01*
X2806Y13791D01*
X2812Y13792D01*
X2819D01*
X2827Y13791D01*
D02*
G37*
G36*
X2745Y13589D02*
X2746D01*
X2746D01*
X2748Y13589D01*
X2750D01*
X2756Y13588D01*
X2763Y13586D01*
X2773Y13584D01*
X2784Y13582D01*
X2796Y13578D01*
X2810Y13574D01*
X2811D01*
X2812Y13573D01*
X2815Y13572D01*
X2819Y13571D01*
X2823Y13570D01*
X2829Y13568D01*
X2835Y13566D01*
X2843Y13564D01*
X2851Y13561D01*
X2860Y13558D01*
X2870Y13555D01*
X2881Y13551D01*
X2893Y13547D01*
X2906Y13543D01*
X2920Y13538D01*
X2934Y13533D01*
X2935D01*
X2935Y13532D01*
X2939Y13531D01*
X2943Y13528D01*
X2945Y13525D01*
X2947Y13523D01*
Y13522D01*
X2948Y13521D01*
X2948Y13519D01*
X2950Y13518D01*
X2951Y13512D01*
X2952Y13506D01*
Y13505D01*
X2952Y13503D01*
X2951Y13499D01*
X2949Y13496D01*
X2948Y13495D01*
X2947Y13494D01*
X2944Y13494D01*
X2942D01*
X2940Y13494D01*
X2939Y13495D01*
X2936Y13495D01*
X2932Y13497D01*
X2925Y13500D01*
X2917Y13503D01*
X2907Y13507D01*
X2895Y13512D01*
X2881Y13518D01*
X2880D01*
X2879Y13518D01*
X2876Y13519D01*
X2874Y13520D01*
X2870Y13522D01*
X2865Y13524D01*
X2856Y13528D01*
X2844Y13532D01*
X2832Y13536D01*
X2821Y13541D01*
X2809Y13544D01*
X2809D01*
X2808Y13545D01*
X2805Y13546D01*
X2800Y13548D01*
X2794Y13549D01*
X2787Y13552D01*
X2780Y13554D01*
X2773Y13556D01*
X2767Y13558D01*
X2767D01*
X2765Y13558D01*
X2762Y13559D01*
X2760Y13559D01*
X2757Y13560D01*
X2754Y13560D01*
X2752D01*
X2752Y13560D01*
Y13559D01*
X2752Y13558D01*
X2754Y13554D01*
X2757Y13549D01*
X2758Y13547D01*
X2761Y13543D01*
X2764Y13540D01*
X2768Y13536D01*
X2773Y13531D01*
X2778Y13526D01*
X2784Y13521D01*
X2790Y13516D01*
X2791Y13515D01*
X2792Y13514D01*
X2794Y13512D01*
X2797Y13510D01*
X2801Y13507D01*
X2805Y13504D01*
X2811Y13499D01*
X2817Y13494D01*
X2824Y13489D01*
X2832Y13483D01*
X2840Y13477D01*
X2849Y13470D01*
X2858Y13463D01*
X2869Y13455D01*
X2880Y13447D01*
X2892Y13439D01*
X2911Y13425D01*
X2912Y13424D01*
X2914Y13422D01*
X2917Y13418D01*
X2921Y13413D01*
Y13413D01*
X2921Y13412D01*
X2922Y13410D01*
X2923Y13405D01*
X2924Y13401D01*
Y13397D01*
X2923Y13394D01*
X2922Y13390D01*
X2922Y13390D01*
X2921Y13389D01*
X2918D01*
X2916D01*
X2913Y13390D01*
X2875Y13399D01*
X2808Y13415D01*
X2808D01*
X2806Y13416D01*
X2804Y13416D01*
X2802Y13417D01*
X2798Y13418D01*
X2794Y13419D01*
X2784Y13421D01*
X2773Y13423D01*
X2761Y13426D01*
X2749Y13429D01*
X2737Y13431D01*
X2737D01*
X2736D01*
X2733Y13431D01*
X2729Y13433D01*
X2726Y13433D01*
X2726D01*
X2725Y13434D01*
X2721Y13436D01*
X2716Y13440D01*
X2714Y13442D01*
X2712Y13446D01*
X2711Y13446D01*
X2711Y13447D01*
X2710Y13449D01*
X2709Y13452D01*
X2707Y13458D01*
X2706Y13461D01*
Y13466D01*
X2707Y13466D01*
X2707Y13468D01*
X2709Y13469D01*
X2712Y13470D01*
X2716Y13470D01*
X2722Y13470D01*
X2726Y13469D01*
X2731Y13468D01*
X2732D01*
X2733Y13467D01*
X2735Y13467D01*
X2738Y13466D01*
X2741Y13465D01*
X2745Y13464D01*
X2749Y13463D01*
X2754Y13462D01*
X2760Y13460D01*
X2766Y13459D01*
X2772Y13457D01*
X2779Y13455D01*
X2787Y13453D01*
X2796Y13451D01*
X2805Y13448D01*
X2828Y13441D01*
X2828D01*
X2830Y13441D01*
X2832Y13440D01*
X2835Y13439D01*
X2839Y13439D01*
X2844Y13437D01*
X2853Y13435D01*
X2863Y13432D01*
X2868Y13430D01*
X2868Y13431D01*
X2863Y13434D01*
X2858Y13438D01*
X2851Y13443D01*
X2844Y13448D01*
X2836Y13454D01*
X2819Y13468D01*
X2800Y13482D01*
X2781Y13497D01*
X2764Y13512D01*
X2763Y13512D01*
X2762Y13513D01*
X2760Y13516D01*
X2757Y13518D01*
X2754Y13522D01*
X2750Y13525D01*
X2741Y13534D01*
X2733Y13544D01*
X2726Y13554D01*
X2723Y13559D01*
X2721Y13565D01*
X2719Y13570D01*
X2719Y13574D01*
Y13574D01*
X2719Y13577D01*
X2720Y13579D01*
X2722Y13583D01*
X2725Y13586D01*
X2730Y13588D01*
X2733Y13589D01*
X2737Y13590D01*
X2740D01*
X2745Y13589D01*
D02*
G37*
G36*
X2719Y13376D02*
X2720D01*
X2720Y13376D01*
X2722Y13375D01*
X2724Y13375D01*
X2727Y13374D01*
X2730Y13373D01*
X2734Y13371D01*
X2738Y13370D01*
X2744Y13369D01*
X2749Y13366D01*
X2756Y13365D01*
X2763Y13363D01*
X2770Y13360D01*
X2779Y13358D01*
X2787Y13354D01*
X2797Y13352D01*
X2798D01*
X2799Y13351D01*
X2802Y13350D01*
X2806Y13349D01*
X2810Y13348D01*
X2815Y13346D01*
X2826Y13343D01*
X2838Y13339D01*
X2850Y13336D01*
X2862Y13333D01*
X2866Y13332D01*
X2870Y13330D01*
X2871D01*
X2874Y13330D01*
X2877Y13329D01*
X2881Y13328D01*
X2890Y13327D01*
X2895D01*
X2899D01*
X2899D01*
X2900Y13328D01*
X2902D01*
X2904Y13328D01*
X2909Y13330D01*
X2915Y13332D01*
X2916Y13332D01*
X2918Y13333D01*
X2921Y13334D01*
X2923D01*
X2924D01*
X2925Y13333D01*
X2927Y13332D01*
X2929Y13331D01*
X2934Y13328D01*
X2938Y13323D01*
Y13322D01*
X2939Y13322D01*
X2940Y13320D01*
X2941Y13318D01*
X2942Y13312D01*
X2944Y13306D01*
Y13305D01*
X2943Y13304D01*
X2942Y13301D01*
X2941Y13299D01*
X2938Y13297D01*
X2935Y13294D01*
X2929Y13293D01*
X2922Y13292D01*
X2921D01*
X2918D01*
X2915D01*
X2909D01*
X2903Y13292D01*
X2895Y13293D01*
X2888Y13294D01*
X2880Y13296D01*
X2879D01*
X2877Y13297D01*
X2875Y13297D01*
X2873Y13298D01*
X2870Y13299D01*
X2867Y13300D01*
X2862Y13301D01*
X2857Y13303D01*
X2851Y13304D01*
X2844Y13306D01*
X2837Y13309D01*
X2828Y13311D01*
X2820Y13314D01*
X2809Y13317D01*
X2798Y13321D01*
X2798D01*
X2797Y13322D01*
X2794Y13322D01*
X2792Y13323D01*
X2786Y13325D01*
X2779Y13327D01*
X2778D01*
X2777Y13328D01*
X2775Y13328D01*
X2773Y13329D01*
X2769Y13331D01*
X2767Y13332D01*
X2766Y13333D01*
X2766D01*
X2767Y13332D01*
X2768Y13331D01*
X2771Y13330D01*
X2774Y13328D01*
X2777Y13326D01*
X2785Y13320D01*
X2796Y13313D01*
X2808Y13304D01*
X2822Y13292D01*
X2837Y13279D01*
X2837Y13279D01*
X2838Y13277D01*
X2840Y13275D01*
X2844Y13273D01*
X2847Y13269D01*
X2851Y13265D01*
X2861Y13256D01*
X2873Y13245D01*
X2885Y13233D01*
X2897Y13220D01*
X2909Y13206D01*
X2909Y13206D01*
X2910Y13205D01*
X2911Y13203D01*
X2914Y13201D01*
X2918Y13194D01*
X2923Y13187D01*
X2929Y13179D01*
X2934Y13170D01*
X2938Y13162D01*
X2938Y13158D01*
X2939Y13155D01*
Y13154D01*
X2938Y13152D01*
X2938Y13149D01*
X2936Y13145D01*
X2934Y13141D01*
X2931Y13139D01*
X2927Y13137D01*
X2921Y13136D01*
X2920D01*
X2917Y13137D01*
X2913Y13137D01*
X2907Y13138D01*
X2899Y13140D01*
X2889Y13142D01*
X2879Y13145D01*
X2866Y13150D01*
X2865D01*
X2864Y13150D01*
X2863Y13151D01*
X2860Y13152D01*
X2857Y13153D01*
X2853Y13155D01*
X2849Y13156D01*
X2844Y13158D01*
X2833Y13163D01*
X2820Y13169D01*
X2805Y13176D01*
X2790Y13184D01*
X2790Y13185D01*
X2788Y13185D01*
X2786Y13186D01*
X2783Y13188D01*
X2780Y13190D01*
X2775Y13192D01*
X2766Y13198D01*
X2756Y13205D01*
X2745Y13212D01*
X2734Y13219D01*
X2725Y13226D01*
X2725Y13227D01*
X2723Y13228D01*
X2722Y13229D01*
X2719Y13231D01*
X2715Y13236D01*
X2712Y13238D01*
X2710Y13240D01*
Y13241D01*
X2710Y13241D01*
X2708Y13244D01*
X2706Y13248D01*
X2705Y13253D01*
Y13256D01*
X2706Y13258D01*
X2707Y13261D01*
X2708Y13263D01*
X2709Y13265D01*
X2711Y13267D01*
X2715D01*
X2715D01*
X2717Y13265D01*
X2721Y13262D01*
X2723Y13261D01*
X2726Y13258D01*
X2727Y13257D01*
X2730Y13254D01*
X2736Y13250D01*
X2742Y13245D01*
X2751Y13238D01*
X2761Y13232D01*
X2772Y13224D01*
X2783Y13216D01*
X2784D01*
X2785Y13215D01*
X2786Y13214D01*
X2789Y13213D01*
X2792Y13211D01*
X2796Y13209D01*
X2800Y13207D01*
X2805Y13204D01*
X2811Y13202D01*
X2818Y13198D01*
X2825Y13195D01*
X2833Y13192D01*
X2841Y13188D01*
X2850Y13185D01*
X2859Y13181D01*
X2869Y13178D01*
X2870D01*
X2871Y13178D01*
X2872Y13177D01*
X2874Y13176D01*
X2880Y13175D01*
X2885Y13173D01*
X2891Y13172D01*
X2897Y13171D01*
X2899Y13170D01*
X2900Y13171D01*
X2901Y13172D01*
X2901Y13172D01*
Y13173D01*
X2901Y13174D01*
X2900Y13176D01*
X2898Y13181D01*
X2895Y13186D01*
X2891Y13192D01*
X2884Y13200D01*
X2880Y13205D01*
X2876Y13210D01*
X2875Y13211D01*
X2875Y13211D01*
X2873Y13213D01*
X2871Y13215D01*
X2866Y13221D01*
X2858Y13229D01*
X2849Y13238D01*
X2839Y13249D01*
X2826Y13260D01*
X2813Y13272D01*
X2812Y13273D01*
X2811Y13274D01*
X2809Y13275D01*
X2807Y13277D01*
X2804Y13280D01*
X2800Y13283D01*
X2791Y13291D01*
X2781Y13300D01*
X2770Y13309D01*
X2759Y13317D01*
X2749Y13325D01*
X2748Y13326D01*
X2747Y13326D01*
X2745Y13328D01*
X2742Y13330D01*
X2738Y13332D01*
X2733Y13335D01*
X2727Y13339D01*
X2721Y13343D01*
X2720D01*
X2719Y13344D01*
X2716Y13345D01*
X2711Y13348D01*
X2707Y13351D01*
X2706Y13351D01*
X2704Y13353D01*
X2703Y13357D01*
X2702Y13360D01*
Y13361D01*
X2702Y13364D01*
X2704Y13368D01*
X2707Y13372D01*
X2708Y13374D01*
X2710Y13375D01*
X2714Y13377D01*
X2717D01*
X2719Y13376D01*
D02*
G37*
G36*
X2645Y13214D02*
X2645D01*
X2647Y13214D01*
X2648Y13212D01*
X2650Y13211D01*
X2655Y13208D01*
X2658Y13205D01*
X2661Y13202D01*
Y13201D01*
X2662Y13200D01*
X2663Y13198D01*
X2664Y13196D01*
X2667Y13191D01*
X2669Y13185D01*
Y13184D01*
X2669Y13182D01*
X2670Y13180D01*
X2671Y13174D01*
X2672Y13167D01*
X2673Y13158D01*
X2674Y13149D01*
X2674Y13138D01*
X2675Y13128D01*
X2684Y13127D01*
X2685D01*
X2686Y13126D01*
X2689Y13126D01*
X2693Y13125D01*
X2697Y13124D01*
X2703Y13123D01*
X2709Y13122D01*
X2715Y13120D01*
X2722Y13119D01*
X2731Y13117D01*
X2747Y13114D01*
X2764Y13109D01*
X2782Y13105D01*
X2782D01*
X2784Y13105D01*
X2786Y13104D01*
X2790Y13103D01*
X2794Y13103D01*
X2799Y13101D01*
X2804Y13100D01*
X2811Y13098D01*
X2824Y13095D01*
X2839Y13090D01*
X2855Y13085D01*
X2871Y13080D01*
X2871D01*
X2873Y13079D01*
X2876Y13078D01*
X2880Y13077D01*
X2883Y13075D01*
X2888Y13073D01*
X2900Y13068D01*
X2912Y13061D01*
X2924Y13053D01*
X2936Y13044D01*
X2941Y13039D01*
X2945Y13034D01*
Y13033D01*
X2946Y13033D01*
X2947Y13031D01*
X2948Y13029D01*
X2950Y13026D01*
X2952Y13023D01*
X2954Y13019D01*
X2956Y13014D01*
X2960Y13004D01*
X2964Y12991D01*
X2966Y12977D01*
X2968Y12961D01*
Y12956D01*
X2967Y12951D01*
X2966Y12943D01*
X2964Y12934D01*
X2962Y12924D01*
X2959Y12913D01*
X2954Y12901D01*
Y12901D01*
X2954Y12900D01*
X2953Y12898D01*
X2952Y12896D01*
X2950Y12890D01*
X2946Y12883D01*
X2941Y12874D01*
X2936Y12866D01*
X2930Y12858D01*
X2923Y12849D01*
X2922Y12849D01*
X2920Y12847D01*
X2916Y12843D01*
X2911Y12840D01*
X2905Y12837D01*
X2898Y12835D01*
X2892Y12835D01*
X2888D01*
X2885Y12836D01*
X2884D01*
X2883Y12836D01*
X2881Y12837D01*
X2879Y12838D01*
X2877Y12841D01*
X2874Y12843D01*
X2871Y12846D01*
X2869Y12849D01*
X2868Y12850D01*
X2868Y12851D01*
X2866Y12853D01*
X2864Y12856D01*
X2860Y12863D01*
X2856Y12871D01*
Y12872D01*
X2855Y12873D01*
X2855Y12875D01*
X2853Y12878D01*
X2852Y12883D01*
X2851Y12885D01*
Y12889D01*
X2851Y12893D01*
X2853Y12896D01*
X2855Y12897D01*
X2856Y12898D01*
X2857D01*
X2859Y12899D01*
X2862Y12899D01*
X2864Y12899D01*
X2865Y12898D01*
X2867Y12897D01*
X2870Y12894D01*
X2871Y12892D01*
X2873Y12889D01*
Y12889D01*
X2874Y12888D01*
X2875Y12885D01*
X2876Y12882D01*
X2877Y12880D01*
X2878Y12879D01*
X2879Y12878D01*
X2881Y12876D01*
X2882D01*
X2883Y12876D01*
X2885D01*
X2887Y12876D01*
X2891Y12877D01*
X2894Y12879D01*
X2899Y12882D01*
X2904Y12886D01*
X2904Y12887D01*
X2906Y12889D01*
X2909Y12891D01*
X2911Y12896D01*
X2915Y12901D01*
X2919Y12907D01*
X2923Y12915D01*
X2927Y12923D01*
Y12924D01*
X2927Y12924D01*
X2928Y12927D01*
X2929Y12932D01*
X2931Y12938D01*
X2933Y12945D01*
X2934Y12953D01*
X2935Y12961D01*
X2936Y12970D01*
Y12976D01*
X2935Y12980D01*
X2935Y12986D01*
X2934Y12991D01*
X2933Y12996D01*
X2932Y13001D01*
Y13002D01*
X2931Y13003D01*
X2930Y13006D01*
X2928Y13009D01*
X2926Y13013D01*
X2923Y13017D01*
X2919Y13021D01*
X2914Y13025D01*
X2914Y13026D01*
X2911Y13027D01*
X2908Y13030D01*
X2903Y13032D01*
X2897Y13036D01*
X2889Y13039D01*
X2881Y13043D01*
X2870Y13046D01*
X2870D01*
X2868Y13047D01*
X2865Y13048D01*
X2861Y13050D01*
X2855Y13051D01*
X2849Y13053D01*
X2840Y13055D01*
X2831Y13058D01*
X2820Y13061D01*
X2808Y13064D01*
X2794Y13067D01*
X2779Y13071D01*
X2763Y13074D01*
X2745Y13079D01*
X2725Y13083D01*
X2704Y13087D01*
X2704D01*
X2703Y13087D01*
X2701Y13088D01*
X2698Y13089D01*
X2692Y13090D01*
X2686Y13091D01*
X2685D01*
X2684Y13092D01*
X2681Y13092D01*
X2678Y13093D01*
X2676Y13093D01*
X2675D01*
Y13062D01*
X2674Y13055D01*
Y13041D01*
X2674Y13038D01*
Y13034D01*
X2673Y13026D01*
X2673Y13017D01*
X2672Y13007D01*
X2671Y12997D01*
X2670Y12988D01*
Y12988D01*
X2669Y12987D01*
X2669Y12984D01*
X2667Y12979D01*
X2663Y12976D01*
X2663D01*
X2662Y12976D01*
X2659Y12974D01*
X2655D01*
X2652D01*
X2649Y12976D01*
X2648Y12976D01*
X2646Y12977D01*
X2643Y12979D01*
X2641Y12983D01*
X2640Y12984D01*
X2638Y12986D01*
X2637Y12990D01*
X2636Y12994D01*
Y13000D01*
X2637Y13003D01*
Y13007D01*
X2638Y13016D01*
Y13019D01*
X2638Y13021D01*
Y13024D01*
X2639Y13028D01*
Y13037D01*
X2639Y13047D01*
X2640Y13059D01*
X2641Y13072D01*
Y13101D01*
X2640D01*
X2639D01*
X2636Y13101D01*
X2632Y13102D01*
X2627Y13104D01*
X2627D01*
X2626Y13104D01*
X2624Y13106D01*
X2620Y13109D01*
X2616Y13114D01*
Y13115D01*
X2616Y13116D01*
X2615Y13117D01*
X2614Y13119D01*
X2612Y13124D01*
X2612Y13129D01*
Y13131D01*
X2613Y13134D01*
X2614Y13135D01*
X2616Y13137D01*
X2619Y13138D01*
X2623Y13139D01*
X2624D01*
X2625D01*
X2627D01*
X2629Y13138D01*
X2632D01*
X2636Y13138D01*
X2641Y13137D01*
Y13148D01*
X2640Y13152D01*
Y13157D01*
X2639Y13167D01*
Y13168D01*
X2639Y13169D01*
Y13172D01*
X2638Y13174D01*
X2638Y13179D01*
X2637Y13181D01*
Y13183D01*
X2637Y13185D01*
Y13187D01*
X2636Y13191D01*
X2636Y13197D01*
X2635Y13199D01*
Y13205D01*
X2636Y13208D01*
X2637Y13211D01*
X2638Y13212D01*
X2639Y13214D01*
X2642Y13215D01*
X2643D01*
X2645Y13214D01*
D02*
G37*
%LPC*%
G36*
X2679Y17326D02*
X2675Y17325D01*
X2671Y17324D01*
X2666Y17323D01*
X2662Y17320D01*
X2661Y17319D01*
X2660Y17318D01*
X2657Y17316D01*
X2655Y17313D01*
X2652Y17309D01*
X2648Y17303D01*
X2645Y17296D01*
X2642Y17288D01*
X2642Y17287D01*
X2641Y17283D01*
X2639Y17279D01*
X2638Y17271D01*
X2637Y17263D01*
X2635Y17252D01*
X2634Y17240D01*
X2634Y17227D01*
Y17201D01*
X2634Y17197D01*
Y17194D01*
X2636Y17194D01*
X2637Y17193D01*
X2639Y17193D01*
X2642Y17192D01*
X2646Y17190D01*
X2647D01*
X2648Y17190D01*
X2650Y17188D01*
X2654Y17187D01*
X2657Y17186D01*
X2662Y17184D01*
X2667Y17182D01*
X2673Y17180D01*
X2744Y17157D01*
X2798Y17141D01*
X2797Y17142D01*
X2797Y17143D01*
X2796Y17145D01*
X2795Y17148D01*
X2794Y17152D01*
Y17153D01*
X2793Y17155D01*
X2792Y17157D01*
X2792Y17160D01*
X2789Y17168D01*
X2786Y17176D01*
X2786Y17176D01*
X2785Y17179D01*
X2784Y17182D01*
X2782Y17187D01*
X2780Y17192D01*
X2778Y17199D01*
X2775Y17206D01*
X2772Y17214D01*
X2764Y17230D01*
X2757Y17247D01*
X2749Y17263D01*
X2744Y17271D01*
X2740Y17278D01*
X2739Y17279D01*
X2739Y17280D01*
X2738Y17281D01*
X2736Y17284D01*
X2731Y17290D01*
X2725Y17297D01*
X2716Y17305D01*
X2708Y17312D01*
X2698Y17319D01*
X2692Y17322D01*
X2687Y17324D01*
X2686D01*
X2685Y17324D01*
X2682Y17325D01*
X2679Y17326D01*
D02*
G37*
G36*
X2917Y16676D02*
X2920Y16675D01*
X2922Y16675D01*
X2922Y16674D01*
X2923D01*
X2922Y16675D01*
X2920Y16676D01*
X2917Y16676D01*
D02*
G37*
G36*
X2748Y16295D02*
X2743D01*
X2739Y16294D01*
X2738Y16293D01*
X2736Y16291D01*
X2734Y16289D01*
X2733Y16284D01*
Y16282D01*
X2734Y16279D01*
X2735Y16277D01*
X2737Y16272D01*
X2739Y16267D01*
X2742Y16261D01*
X2746Y16255D01*
Y16254D01*
X2747Y16254D01*
X2748Y16252D01*
X2749Y16250D01*
X2754Y16244D01*
X2759Y16236D01*
X2766Y16227D01*
X2774Y16217D01*
X2784Y16205D01*
X2794Y16193D01*
X2795Y16192D01*
X2796Y16191D01*
X2797Y16189D01*
X2799Y16187D01*
X2805Y16181D01*
X2812Y16173D01*
X2822Y16164D01*
X2831Y16154D01*
X2841Y16144D01*
X2852Y16135D01*
X2853D01*
X2853Y16134D01*
X2857Y16131D01*
X2862Y16126D01*
X2868Y16122D01*
X2875Y16117D01*
X2882Y16112D01*
X2889Y16108D01*
X2896Y16105D01*
X2897D01*
X2898Y16105D01*
X2900D01*
X2903D01*
X2904Y16106D01*
X2905Y16107D01*
X2905Y16110D01*
Y16111D01*
X2905Y16114D01*
X2904Y16118D01*
X2903Y16125D01*
X2901Y16132D01*
X2898Y16141D01*
X2894Y16151D01*
X2888Y16161D01*
Y16162D01*
X2887Y16163D01*
X2886Y16164D01*
X2885Y16166D01*
X2881Y16172D01*
X2876Y16179D01*
X2869Y16188D01*
X2862Y16197D01*
X2853Y16207D01*
X2844Y16217D01*
X2844Y16217D01*
X2843Y16218D01*
X2841Y16219D01*
X2840Y16221D01*
X2834Y16227D01*
X2827Y16235D01*
X2817Y16244D01*
X2806Y16254D01*
X2794Y16266D01*
X2781Y16279D01*
X2780Y16279D01*
X2779Y16280D01*
X2776Y16282D01*
X2772Y16284D01*
X2768Y16287D01*
X2763Y16289D01*
X2752Y16294D01*
X2752D01*
X2751Y16294D01*
X2748Y16295D01*
D02*
G37*
G36*
X2739Y15394D02*
X2738D01*
X2736D01*
X2734Y15393D01*
X2732Y15392D01*
X2731Y15390D01*
X2731Y15389D01*
X2729Y15387D01*
X2728Y15383D01*
X2728Y15377D01*
Y15374D01*
X2728Y15371D01*
X2729Y15366D01*
X2731Y15361D01*
X2732Y15355D01*
X2735Y15348D01*
X2739Y15341D01*
X2739Y15340D01*
X2741Y15338D01*
X2743Y15334D01*
X2746Y15330D01*
X2750Y15324D01*
X2755Y15318D01*
X2760Y15312D01*
X2766Y15306D01*
X2766Y15306D01*
X2768Y15304D01*
X2771Y15301D01*
X2774Y15298D01*
X2781Y15291D01*
X2784Y15288D01*
X2787Y15286D01*
Y15287D01*
X2786Y15289D01*
X2786Y15292D01*
X2785Y15297D01*
X2784Y15303D01*
X2781Y15310D01*
X2779Y15319D01*
X2776Y15328D01*
Y15329D01*
X2775Y15329D01*
X2774Y15333D01*
X2772Y15338D01*
X2769Y15344D01*
X2767Y15351D01*
X2763Y15359D01*
X2759Y15366D01*
X2755Y15374D01*
X2755Y15374D01*
X2754Y15376D01*
X2751Y15380D01*
X2749Y15383D01*
X2746Y15387D01*
X2744Y15390D01*
X2741Y15393D01*
X2739Y15394D01*
D02*
G37*
%LPD*%
D33*
X-1535Y3445D02*
D03*
Y3091D02*
D03*
X2756Y3967D02*
D03*
Y3612D02*
D03*
X-906Y5512D02*
D03*
Y5866D02*
D03*
X-2717Y3091D02*
D03*
Y3445D02*
D03*
D34*
X866Y4154D02*
D03*
Y3563D02*
D03*
X236Y7815D02*
D03*
Y7224D02*
D03*
D35*
X886Y6368D02*
D03*
X1260D02*
D03*
X1634D02*
D03*
Y7333D02*
D03*
X886D02*
D03*
X2224Y4577D02*
D03*
X1850D02*
D03*
X1476D02*
D03*
Y3612D02*
D03*
X2224D02*
D03*
D36*
X965Y7835D02*
D03*
X1555D02*
D03*
Y5118D02*
D03*
X2146D02*
D03*
X1555Y3051D02*
D03*
X2146D02*
D03*
X2165Y8012D02*
D03*
X2756D02*
D03*
D37*
X1024Y5866D02*
D03*
X1339D02*
D03*
X-591Y4291D02*
D03*
X-276D02*
D03*
X-2283Y3445D02*
D03*
X-1969D02*
D03*
X394Y15394D02*
D03*
X709D02*
D03*
X-79D02*
D03*
X-394D02*
D03*
X2618Y8602D02*
D03*
X2303D02*
D03*
D38*
X79Y5433D02*
D03*
D39*
X463Y4882D02*
D03*
X207D02*
D03*
X-49D02*
D03*
X-305D02*
D03*
Y5984D02*
D03*
X-49D02*
D03*
X207D02*
D03*
X463D02*
D03*
D40*
X-2628Y4705D02*
D03*
Y4331D02*
D03*
Y3957D02*
D03*
X-1624D02*
D03*
Y4331D02*
D03*
Y4705D02*
D03*
D41*
X-1043Y1181D02*
D03*
D42*
X1043Y787D02*
D03*
D43*
X-1181Y4705D02*
D03*
Y5020D02*
D03*
Y4016D02*
D03*
Y4331D02*
D03*
X1024Y5197D02*
D03*
Y4882D02*
D03*
X-1181Y14705D02*
D03*
Y14390D02*
D03*
D44*
X2579Y5787D02*
D03*
X2224D02*
D03*
X2579Y7205D02*
D03*
X2224D02*
D03*
X-1949Y5236D02*
D03*
X-2303D02*
D03*
X-1949Y5709D02*
D03*
X-2303D02*
D03*
X591Y3051D02*
D03*
X945D02*
D03*
X2224Y6260D02*
D03*
X2579D02*
D03*
X2224Y6732D02*
D03*
X2579D02*
D03*
D45*
X500Y16890D02*
D03*
X1000D02*
D03*
X-1000D02*
D03*
X-500D02*
D03*
X0D02*
D03*
D46*
X591Y13917D02*
D03*
Y14075D02*
D03*
Y14232D02*
D03*
Y14390D02*
D03*
Y14547D02*
D03*
Y14705D02*
D03*
X-591D02*
D03*
Y14547D02*
D03*
Y14390D02*
D03*
Y14232D02*
D03*
Y14075D02*
D03*
Y13917D02*
D03*
D47*
X394Y14902D02*
D03*
X236D02*
D03*
X79D02*
D03*
X-79D02*
D03*
X-236D02*
D03*
X-394D02*
D03*
Y13720D02*
D03*
X-236D02*
D03*
X-79D02*
D03*
X79D02*
D03*
X236D02*
D03*
X394D02*
D03*
D48*
X0Y14311D02*
D03*
D49*
X-787Y9094D02*
D03*
X1280D02*
D03*
X689D02*
D03*
X984D02*
D03*
X-492D02*
D03*
X98D02*
D03*
X-197D02*
D03*
X394D02*
D03*
X-1083Y12953D02*
D03*
X-1673D02*
D03*
X-1378D02*
D03*
X-1968D02*
D03*
X394D02*
D03*
X-197D02*
D03*
X98D02*
D03*
X-787D02*
D03*
X-492D02*
D03*
X984D02*
D03*
X689D02*
D03*
X1575D02*
D03*
X1280D02*
D03*
X1870D02*
D03*
X2165D02*
D03*
X2461D02*
D03*
D50*
X2638Y11614D02*
D03*
Y11319D02*
D03*
Y9547D02*
D03*
Y9843D02*
D03*
Y10138D02*
D03*
Y10433D02*
D03*
Y10728D02*
D03*
Y11024D02*
D03*
D51*
X-20Y3051D02*
D03*
Y3799D02*
D03*
X-965Y3425D02*
D03*
D52*
X-2165Y14232D02*
D03*
Y15232D02*
D03*
D53*
Y16232D02*
D03*
D54*
X-630Y7913D02*
D03*
D55*
Y7126D02*
D03*
D56*
X157Y14114D02*
D03*
X-157Y14508D02*
D03*
X157D02*
D03*
X-157Y14114D02*
D03*
X0Y14311D02*
D03*
M02*
