G04*
G04 #@! TF.GenerationSoftware,Altium Limited,Altium Designer,18.1.6 (161)*
G04*
G04 Layer_Color=8421504*
%FSLAX24Y24*%
%MOIN*%
G70*
G01*
G75*
%ADD14R,0.0217X0.0217*%
%ADD15R,0.0315X0.0315*%
%ADD16R,0.0217X0.0335*%
%ADD17R,0.0315X0.0315*%
%ADD18R,0.0157X0.0197*%
%ADD19R,0.0945X0.0650*%
%ADD20O,0.0118X0.0236*%
%ADD21R,0.0315X0.0217*%
%ADD22R,0.0591X0.2362*%
%ADD23R,0.0591X0.1575*%
%ADD24R,0.0197X0.0157*%
%ADD25R,0.0217X0.0217*%
%ADD26R,0.0236X0.1575*%
%ADD27O,0.0236X0.0079*%
%ADD28O,0.0079X0.0236*%
%ADD29R,0.0606X0.0669*%
%ADD30R,0.0197X0.0472*%
%ADD31R,0.0472X0.0197*%
%ADD32R,0.0394X0.0236*%
D14*
X-1535Y3445D02*
D03*
Y3091D02*
D03*
X2756Y3967D02*
D03*
Y3612D02*
D03*
X-906Y5512D02*
D03*
Y5866D02*
D03*
X-2717Y3091D02*
D03*
Y3445D02*
D03*
D15*
X866Y4154D02*
D03*
Y3563D02*
D03*
X236Y7815D02*
D03*
Y7224D02*
D03*
D16*
X886Y6368D02*
D03*
X1260D02*
D03*
X1634D02*
D03*
Y7333D02*
D03*
X886D02*
D03*
X2224Y4577D02*
D03*
X1850D02*
D03*
X1476D02*
D03*
Y3612D02*
D03*
X2224D02*
D03*
D17*
X965Y7835D02*
D03*
X1555D02*
D03*
Y5118D02*
D03*
X2146D02*
D03*
X1555Y3051D02*
D03*
X2146D02*
D03*
X2165Y8012D02*
D03*
X2756D02*
D03*
D18*
X1024Y5866D02*
D03*
X1339D02*
D03*
X-591Y4291D02*
D03*
X-276D02*
D03*
X-2283Y3445D02*
D03*
X-1969D02*
D03*
X394Y15394D02*
D03*
X709D02*
D03*
X-79D02*
D03*
X-394D02*
D03*
X2618Y8602D02*
D03*
X2303D02*
D03*
D19*
X79Y5433D02*
D03*
D20*
X463Y4882D02*
D03*
X207D02*
D03*
X-49D02*
D03*
X-305D02*
D03*
Y5984D02*
D03*
X-49D02*
D03*
X207D02*
D03*
X463D02*
D03*
D21*
X-2628Y4705D02*
D03*
Y4331D02*
D03*
Y3957D02*
D03*
X-1624D02*
D03*
Y4331D02*
D03*
Y4705D02*
D03*
D22*
X-1043Y1181D02*
D03*
D23*
X1043Y787D02*
D03*
D24*
X-1181Y4705D02*
D03*
Y5020D02*
D03*
Y4016D02*
D03*
Y4331D02*
D03*
X1024Y5197D02*
D03*
Y4882D02*
D03*
X-1181Y14705D02*
D03*
Y14390D02*
D03*
D25*
X2579Y5787D02*
D03*
X2224D02*
D03*
X2579Y7205D02*
D03*
X2224D02*
D03*
X-1949Y5236D02*
D03*
X-2303D02*
D03*
X-1949Y5709D02*
D03*
X-2303D02*
D03*
X591Y3051D02*
D03*
X945D02*
D03*
X2224Y6260D02*
D03*
X2579D02*
D03*
X2224Y6732D02*
D03*
X2579D02*
D03*
D26*
X500Y16890D02*
D03*
X1000D02*
D03*
X-1000D02*
D03*
X-500D02*
D03*
X0D02*
D03*
D27*
X591Y13917D02*
D03*
Y14075D02*
D03*
Y14232D02*
D03*
Y14390D02*
D03*
Y14547D02*
D03*
Y14705D02*
D03*
X-591D02*
D03*
Y14547D02*
D03*
Y14390D02*
D03*
Y14232D02*
D03*
Y14075D02*
D03*
Y13917D02*
D03*
D28*
X394Y14902D02*
D03*
X236D02*
D03*
X79D02*
D03*
X-79D02*
D03*
X-236D02*
D03*
X-394D02*
D03*
Y13720D02*
D03*
X-236D02*
D03*
X-79D02*
D03*
X79D02*
D03*
X236D02*
D03*
X394D02*
D03*
D29*
X0Y14311D02*
D03*
D30*
X-787Y9094D02*
D03*
X1280D02*
D03*
X689D02*
D03*
X984D02*
D03*
X-492D02*
D03*
X98D02*
D03*
X-197D02*
D03*
X394D02*
D03*
X-1083Y12953D02*
D03*
X-1673D02*
D03*
X-1378D02*
D03*
X-1968D02*
D03*
X394D02*
D03*
X-197D02*
D03*
X98D02*
D03*
X-787D02*
D03*
X-492D02*
D03*
X984D02*
D03*
X689D02*
D03*
X1575D02*
D03*
X1280D02*
D03*
X1870D02*
D03*
X2165D02*
D03*
X2461D02*
D03*
D31*
X2638Y11614D02*
D03*
Y11319D02*
D03*
Y9547D02*
D03*
Y9843D02*
D03*
Y10138D02*
D03*
Y10433D02*
D03*
Y10728D02*
D03*
Y11024D02*
D03*
D32*
X-20Y3051D02*
D03*
Y3799D02*
D03*
X-965Y3425D02*
D03*
M02*
