G04*
G04 #@! TF.GenerationSoftware,Altium Limited,Altium Designer,18.1.6 (161)*
G04*
G04 Layer_Physical_Order=1*
G04 Layer_Color=255*
%FSLAX24Y24*%
%MOIN*%
G70*
G01*
G75*
%ADD12C,0.0080*%
%ADD13C,0.0100*%
%ADD14R,0.0217X0.0217*%
%ADD15R,0.0315X0.0315*%
%ADD16R,0.0217X0.0335*%
%ADD17R,0.0315X0.0315*%
%ADD18R,0.0157X0.0197*%
%ADD19R,0.0945X0.0650*%
%ADD20O,0.0118X0.0236*%
%ADD21R,0.0315X0.0217*%
%ADD22R,0.0591X0.2362*%
%ADD23R,0.0591X0.1575*%
%ADD24R,0.0197X0.0157*%
%ADD25R,0.0217X0.0217*%
%ADD26R,0.0236X0.1575*%
%ADD27O,0.0236X0.0079*%
%ADD28O,0.0079X0.0236*%
%ADD29R,0.0606X0.0669*%
%ADD30R,0.0197X0.0472*%
%ADD31R,0.0472X0.0197*%
%ADD32R,0.0394X0.0236*%
%ADD57C,0.0160*%
%ADD58C,0.0200*%
%ADD59C,0.0100*%
%ADD60C,0.0120*%
%ADD61C,0.0140*%
%ADD62C,0.0160*%
%ADD63C,0.0080*%
%ADD64C,0.0472*%
%ADD65R,0.0472X0.0472*%
%ADD66R,0.0492X0.0492*%
%ADD67C,0.0492*%
%ADD68C,0.0200*%
%ADD69C,0.0220*%
%ADD70C,0.0260*%
%ADD71C,0.0197*%
%ADD72C,0.0320*%
%ADD73C,0.0157*%
G36*
X-1117Y16730D02*
X-1119Y16745D01*
X-1123Y16759D01*
X-1131Y16771D01*
X-1143Y16781D01*
X-1157Y16790D01*
X-1175Y16797D01*
X-1195Y16803D01*
X-1219Y16807D01*
X-1247Y16809D01*
X-1253Y16809D01*
X-1324Y16804D01*
X-1339Y16801D01*
X-1351Y16798D01*
X-1362Y16795D01*
X-1370Y16791D01*
X-1377Y16787D01*
Y16993D01*
X-1370Y16988D01*
X-1362Y16984D01*
X-1351Y16981D01*
X-1339Y16978D01*
X-1324Y16976D01*
X-1290Y16972D01*
X-1256Y16970D01*
X-1247Y16971D01*
X-1219Y16973D01*
X-1195Y16977D01*
X-1175Y16983D01*
X-1157Y16990D01*
X-1143Y16999D01*
X-1131Y17009D01*
X-1123Y17021D01*
X-1119Y17035D01*
X-1117Y17050D01*
Y16730D01*
D02*
G37*
G36*
X1118Y16980D02*
X1121Y16972D01*
X1126Y16964D01*
X1133Y16958D01*
X1142Y16952D01*
X1153Y16948D01*
X1166Y16944D01*
X1181Y16942D01*
X1198Y16940D01*
X1217Y16940D01*
Y16840D01*
X1198Y16839D01*
X1181Y16838D01*
X1166Y16835D01*
X1153Y16832D01*
X1142Y16827D01*
X1133Y16822D01*
X1126Y16815D01*
X1121Y16808D01*
X1118Y16799D01*
X1117Y16790D01*
Y16990D01*
X1118Y16980D01*
D02*
G37*
G36*
X-459Y16105D02*
X-467Y16109D01*
X-475Y16111D01*
X-484Y16110D01*
X-494Y16105D01*
X-504Y16098D01*
X-514Y16087D01*
X-525Y16073D01*
X-537Y16056D01*
X-549Y16037D01*
X-561Y16014D01*
X-601Y16023D01*
X-571Y15997D01*
X-582Y15979D01*
X-613Y15918D01*
X-618Y15906D01*
X-621Y15894D01*
X-624Y15884D01*
X-626Y15875D01*
X-626Y15867D01*
X-759Y15974D01*
X-746Y15977D01*
X-733Y15982D01*
X-720Y15988D01*
X-709Y15995D01*
X-697Y16004D01*
X-686Y16013D01*
X-676Y16024D01*
X-666Y16036D01*
X-660Y16045D01*
X-648Y16069D01*
X-615Y16147D01*
X-609Y16168D01*
X-605Y16186D01*
X-604Y16201D01*
X-605Y16214D01*
X-609Y16224D01*
X-616Y16232D01*
X-459Y16105D01*
D02*
G37*
G36*
X-1931Y16288D02*
X-1928Y16277D01*
X-1923Y16267D01*
X-1917Y16257D01*
X-1908Y16247D01*
X-1898Y16237D01*
X-1886Y16227D01*
X-1873Y16218D01*
X-1857Y16208D01*
X-1839Y16199D01*
X-1843Y16084D01*
X-1860Y16092D01*
X-1875Y16098D01*
X-1888Y16102D01*
X-1900Y16104D01*
X-1909Y16104D01*
X-1917Y16102D01*
X-1924Y16098D01*
X-1928Y16093D01*
X-1931Y16085D01*
X-1932Y16075D01*
Y16298D01*
X-1931Y16288D01*
D02*
G37*
G36*
X598Y16104D02*
X592Y16101D01*
X588Y16097D01*
X585Y16091D01*
X584Y16083D01*
X584Y16074D01*
X585Y16063D01*
X588Y16050D01*
X592Y16035D01*
X598Y16019D01*
X477Y16008D01*
X470Y16027D01*
X455Y16057D01*
X447Y16070D01*
X439Y16081D01*
X430Y16089D01*
X422Y16096D01*
X413Y16101D01*
X404Y16104D01*
X395Y16105D01*
X606D01*
X598Y16104D01*
D02*
G37*
G36*
X282Y16205D02*
X266Y16193D01*
X262Y16191D01*
X197Y16177D01*
Y16041D01*
X248Y16024D01*
X282D01*
Y16002D01*
X368D01*
X377Y15985D01*
X383Y15970D01*
X384Y15968D01*
X386Y15963D01*
X387Y15961D01*
X387Y15961D01*
X390Y15953D01*
X442Y15886D01*
X466Y15868D01*
X444Y15787D01*
X394Y15773D01*
X394Y15773D01*
D01*
X298Y15760D01*
X209Y15724D01*
X189Y15709D01*
X132Y15665D01*
X76Y15592D01*
X-257D01*
Y15592D01*
X-325Y15549D01*
X-392Y15555D01*
X-396Y15558D01*
X-399Y15563D01*
X-411Y15571D01*
X-422Y15580D01*
X-427Y15582D01*
X-432Y15585D01*
X-446Y15588D01*
X-460Y15592D01*
X-466Y15592D01*
X-471Y15593D01*
X-485Y15590D01*
X-500Y15589D01*
X-505Y15586D01*
X-510Y15585D01*
X-522Y15577D01*
X-535Y15571D01*
X-539Y15566D01*
X-543Y15563D01*
X-544Y15562D01*
X-551Y15566D01*
X-560Y15568D01*
X-569Y15571D01*
X-579Y15572D01*
X-590Y15574D01*
X-599Y15572D01*
X-608Y15572D01*
X-618Y15568D01*
X-629Y15566D01*
X-636Y15561D01*
X-645Y15557D01*
X-653Y15550D01*
X-661Y15544D01*
X-708Y15535D01*
X-758Y15502D01*
X-791Y15452D01*
X-803Y15394D01*
X-791Y15335D01*
X-787Y15330D01*
X-779Y15246D01*
X-823Y15180D01*
X-839Y15102D01*
X-823Y15024D01*
X-796Y14982D01*
X-814Y14938D01*
X-834Y14906D01*
X-904Y14892D01*
X-906Y14891D01*
X-983Y14883D01*
X-983Y14883D01*
X-1080D01*
X-1084Y14884D01*
X-1088Y14883D01*
X-1094D01*
X-1095Y14884D01*
X-1096Y14883D01*
X-1380D01*
X-1382Y14962D01*
Y15602D01*
X-1382D01*
X-1397Y15755D01*
X-1441Y15902D01*
X-1514Y16038D01*
X-1592Y16133D01*
X-1549Y16196D01*
X-1543Y16200D01*
X-1457Y16183D01*
X-1367Y16201D01*
X-1298Y16247D01*
X-1264Y16238D01*
X-1218Y16216D01*
Y16002D01*
X-987D01*
X-939Y15922D01*
X-950Y15866D01*
X-934Y15784D01*
X-888Y15715D01*
X-818Y15668D01*
X-736Y15652D01*
X-654Y15668D01*
X-585Y15715D01*
X-538Y15784D01*
X-531Y15819D01*
X-450D01*
X-445Y15796D01*
X-433Y15778D01*
Y16002D01*
X-282D01*
Y16024D01*
X-215D01*
X-212Y16027D01*
X-201Y16039D01*
X-197Y16045D01*
Y16478D01*
X-261Y16448D01*
X-282Y16463D01*
Y17717D01*
X282D01*
Y16205D01*
D02*
G37*
G36*
X-471Y15444D02*
X-466Y15444D01*
Y15344D01*
X-471Y15344D01*
Y15296D01*
X-472Y15305D01*
X-475Y15313D01*
X-480Y15321D01*
X-487Y15327D01*
X-496Y15332D01*
X-507Y15336D01*
X-520Y15339D01*
X-523Y15340D01*
X-528Y15339D01*
X-541Y15337D01*
X-552Y15334D01*
X-563Y15330D01*
X-573Y15326D01*
X-582Y15321D01*
X-590Y15316D01*
Y15472D01*
X-582Y15466D01*
X-573Y15462D01*
X-563Y15457D01*
X-552Y15454D01*
X-541Y15451D01*
X-528Y15448D01*
X-523Y15448D01*
X-520Y15448D01*
X-507Y15451D01*
X-496Y15456D01*
X-487Y15461D01*
X-480Y15467D01*
X-475Y15474D01*
X-472Y15482D01*
X-471Y15491D01*
Y15444D01*
D02*
G37*
G36*
X787Y15482D02*
X790Y15474D01*
X795Y15467D01*
X802Y15461D01*
X811Y15456D01*
X822Y15451D01*
X835Y15448D01*
X838Y15448D01*
X843Y15448D01*
X856Y15451D01*
X867Y15454D01*
X878Y15457D01*
X888Y15462D01*
X897Y15466D01*
X905Y15472D01*
Y15316D01*
X897Y15321D01*
X888Y15326D01*
X878Y15330D01*
X867Y15334D01*
X856Y15337D01*
X843Y15339D01*
X838Y15340D01*
X835Y15339D01*
X822Y15336D01*
X811Y15332D01*
X802Y15327D01*
X795Y15321D01*
X790Y15313D01*
X787Y15305D01*
X786Y15296D01*
Y15344D01*
X781Y15344D01*
Y15444D01*
X786Y15444D01*
Y15491D01*
X787Y15482D01*
D02*
G37*
G36*
X464Y15296D02*
X458Y15293D01*
X452Y15289D01*
X447Y15284D01*
X443Y15276D01*
X440Y15268D01*
X437Y15257D01*
X435Y15245D01*
X434Y15232D01*
X434Y15216D01*
X354D01*
X353Y15232D01*
X352Y15245D01*
X350Y15257D01*
X348Y15268D01*
X344Y15276D01*
X340Y15284D01*
X335Y15289D01*
X330Y15293D01*
X323Y15296D01*
X316Y15296D01*
X471D01*
X464Y15296D01*
D02*
G37*
G36*
X-8D02*
X-15Y15293D01*
X-20Y15289D01*
X-25Y15284D01*
X-29Y15276D01*
X-33Y15268D01*
X-35Y15257D01*
X-37Y15245D01*
X-38Y15232D01*
X-39Y15216D01*
X-119D01*
X-119Y15232D01*
X-120Y15245D01*
X-122Y15257D01*
X-125Y15268D01*
X-128Y15276D01*
X-132Y15284D01*
X-137Y15289D01*
X-143Y15293D01*
X-149Y15296D01*
X-156Y15296D01*
X-1D01*
X-8Y15296D01*
D02*
G37*
G36*
X-398Y15092D02*
X-356Y15013D01*
X-355Y15007D01*
X-356Y15004D01*
X-360Y15004D01*
X-366Y15008D01*
X-431Y14933D01*
X-427Y14940D01*
X-424Y14948D01*
X-422Y14957D01*
X-423Y14967D01*
X-425Y14978D01*
X-428Y14991D01*
X-433Y15004D01*
X-440Y15019D01*
X-449Y15035D01*
X-459Y15052D01*
X-414Y15118D01*
X-398Y15092D01*
D02*
G37*
G36*
X642Y15073D02*
X644Y15071D01*
X646Y15069D01*
X658Y15061D01*
X684Y15043D01*
X539Y14998D01*
X559Y15054D01*
X641Y15074D01*
X642Y15073D01*
D02*
G37*
G36*
X-887Y14627D02*
X-897Y14634D01*
X-908Y14640D01*
X-919Y14646D01*
X-931Y14651D01*
X-944Y14655D01*
X-957Y14659D01*
X-970Y14661D01*
X-985Y14663D01*
X-1000Y14664D01*
X-1009Y14665D01*
X-1019Y14664D01*
X-1033Y14663D01*
X-1045Y14661D01*
X-1055Y14659D01*
X-1064Y14655D01*
X-1071Y14651D01*
X-1077Y14646D01*
X-1081Y14641D01*
X-1083Y14634D01*
X-1084Y14627D01*
Y14782D01*
X-1083Y14775D01*
X-1081Y14769D01*
X-1077Y14763D01*
X-1071Y14758D01*
X-1064Y14754D01*
X-1055Y14751D01*
X-1045Y14748D01*
X-1033Y14746D01*
X-1019Y14745D01*
X-1009Y14745D01*
X-1000Y14745D01*
X-970Y14748D01*
X-957Y14751D01*
X-944Y14754D01*
X-931Y14758D01*
X-919Y14763D01*
X-908Y14769D01*
X-897Y14776D01*
X-887Y14783D01*
Y14627D01*
D02*
G37*
G36*
X182Y14692D02*
X236Y14681D01*
X291Y14692D01*
X356Y14667D01*
X381Y14602D01*
X370Y14547D01*
X381Y14493D01*
X397Y14469D01*
X381Y14444D01*
X370Y14390D01*
X381Y14335D01*
X397Y14311D01*
X381Y14287D01*
X370Y14232D01*
X381Y14178D01*
X397Y14154D01*
X381Y14129D01*
X370Y14075D01*
X381Y14020D01*
X356Y13955D01*
X291Y13930D01*
X236Y13941D01*
X182Y13930D01*
X157Y13914D01*
X133Y13930D01*
X79Y13941D01*
X30Y13932D01*
X-41Y13975D01*
X-41Y14034D01*
X-18Y14051D01*
X-9Y14061D01*
X1Y14070D01*
X3Y14076D01*
X8Y14081D01*
X12Y14093D01*
X18Y14105D01*
X18Y14112D01*
X21Y14118D01*
X20Y14127D01*
X21Y14128D01*
X25Y14131D01*
X27Y14132D01*
X28Y14133D01*
X29Y14133D01*
X31Y14134D01*
X32Y14134D01*
X32Y14134D01*
X39Y14137D01*
X49Y14139D01*
X57Y14144D01*
X66Y14148D01*
X73Y14155D01*
X82Y14161D01*
X88Y14169D01*
X94Y14175D01*
X98Y14185D01*
X104Y14194D01*
X106Y14203D01*
X110Y14212D01*
X110Y14223D01*
X110Y14224D01*
X132Y14256D01*
X143Y14311D01*
X132Y14366D01*
X101Y14412D01*
X55Y14443D01*
X0Y14454D01*
X-55Y14443D01*
X-87Y14421D01*
X-88Y14421D01*
X-99Y14421D01*
X-108Y14417D01*
X-117Y14415D01*
X-126Y14410D01*
X-136Y14405D01*
X-142Y14399D01*
X-150Y14393D01*
X-156Y14384D01*
X-163Y14377D01*
X-167Y14368D01*
X-172Y14360D01*
X-174Y14350D01*
X-177Y14343D01*
X-177Y14343D01*
X-177Y14342D01*
X-178Y14340D01*
X-178Y14339D01*
X-179Y14339D01*
X-180Y14336D01*
X-183Y14332D01*
X-186Y14328D01*
X-192Y14321D01*
X-239Y14273D01*
X-243Y14270D01*
X-244Y14270D01*
X-261Y14252D01*
X-263Y14251D01*
X-273Y14240D01*
X-323Y14242D01*
X-357Y14249D01*
X-392Y14319D01*
X-381Y14335D01*
X-370Y14390D01*
X-381Y14444D01*
X-397Y14469D01*
X-381Y14493D01*
X-370Y14547D01*
X-381Y14602D01*
X-356Y14667D01*
X-291Y14692D01*
X-236Y14681D01*
X-182Y14692D01*
X-157Y14708D01*
X-133Y14692D01*
X-79Y14681D01*
X-24Y14692D01*
X0Y14708D01*
X24Y14692D01*
X79Y14681D01*
X133Y14692D01*
X157Y14708D01*
X182Y14692D01*
D02*
G37*
G36*
X-757Y14776D02*
X-746Y14769D01*
X-734Y14763D01*
X-723Y14758D01*
X-710Y14754D01*
X-697Y14751D01*
X-683Y14748D01*
X-669Y14746D01*
X-654Y14745D01*
X-638Y14745D01*
Y14665D01*
X-654Y14664D01*
X-683Y14661D01*
X-697Y14659D01*
X-710Y14655D01*
X-723Y14651D01*
X-734Y14646D01*
X-746Y14640D01*
X-757Y14634D01*
X-767Y14627D01*
Y14783D01*
X-757Y14776D01*
D02*
G37*
G36*
X-1131Y14312D02*
X-1084D01*
X-1093Y14311D01*
X-1101Y14308D01*
X-1108Y14303D01*
X-1114Y14296D01*
X-1119Y14287D01*
X-1124Y14276D01*
X-1127Y14263D01*
X-1127Y14260D01*
X-1127Y14256D01*
X-1124Y14243D01*
X-1121Y14231D01*
X-1117Y14220D01*
X-1113Y14210D01*
X-1108Y14202D01*
X-1103Y14194D01*
X-1259D01*
X-1254Y14202D01*
X-1249Y14210D01*
X-1245Y14220D01*
X-1241Y14231D01*
X-1238Y14243D01*
X-1236Y14256D01*
X-1235Y14260D01*
X-1235Y14263D01*
X-1239Y14276D01*
X-1243Y14287D01*
X-1248Y14296D01*
X-1254Y14303D01*
X-1261Y14308D01*
X-1269Y14311D01*
X-1278Y14312D01*
X-1231D01*
X-1231Y14317D01*
X-1131D01*
X-1131Y14312D01*
D02*
G37*
G36*
X10Y14233D02*
X3Y14232D01*
X-5Y14229D01*
X-13Y14226D01*
X-21Y14222D01*
X-29Y14217D01*
X-38Y14211D01*
X-47Y14205D01*
X-54Y14198D01*
X-63Y14188D01*
X-69Y14179D01*
X-74Y14170D01*
X-78Y14162D01*
X-80Y14154D01*
X-81Y14146D01*
X-82Y14138D01*
X-81Y14131D01*
X-182Y14189D01*
X-180Y14190D01*
X-178Y14192D01*
X-170Y14199D01*
X-128Y14240D01*
X-123Y14245D01*
X-106Y14264D01*
X-100Y14273D01*
X-94Y14282D01*
X-89Y14290D01*
X-85Y14298D01*
X-82Y14306D01*
X-79Y14314D01*
X-78Y14321D01*
X10Y14233D01*
D02*
G37*
G36*
X-212Y13979D02*
X-217Y13984D01*
X-225Y13987D01*
X-234Y13989D01*
X-245Y13987D01*
X-258Y13984D01*
X-273Y13979D01*
X-276Y13978D01*
X-156Y13979D01*
X-164Y13978D01*
X-171Y13975D01*
X-177Y13971D01*
X-182Y13966D01*
X-186Y13958D01*
X-190Y13949D01*
X-193Y13939D01*
X-195Y13927D01*
X-196Y13913D01*
X-196Y13898D01*
X-276D01*
X-276Y13913D01*
X-279Y13938D01*
X-280Y13949D01*
X-283Y13958D01*
X-285Y13965D01*
X-289Y13970D01*
X-290Y13971D01*
X-290Y13971D01*
X-309Y13961D01*
X-353Y13935D01*
X-366Y14020D01*
X-350Y14031D01*
X-323Y14051D01*
X-313Y14061D01*
X-306Y14070D01*
X-300Y14079D01*
X-297Y14087D01*
X-296Y14095D01*
X-297Y14103D01*
X-301Y14110D01*
X-212Y13979D01*
D02*
G37*
G36*
X-411Y13910D02*
X-425Y13905D01*
X-484Y13889D01*
X-484Y13890D01*
X-651Y13955D01*
X-638Y13951D01*
X-623Y13950D01*
X-606Y13949D01*
X-586Y13951D01*
X-564Y13954D01*
X-512Y13965D01*
X-483Y13973D01*
X-416Y13994D01*
X-411Y13910D01*
D02*
G37*
G36*
X2239Y13435D02*
X2234Y13426D01*
X2230Y13416D01*
X2226Y13405D01*
X2223Y13393D01*
X2220Y13379D01*
X2218Y13365D01*
X2216Y13334D01*
X2215Y13317D01*
X2115D01*
X2115Y13334D01*
X2113Y13365D01*
X2111Y13379D01*
X2108Y13393D01*
X2105Y13405D01*
X2101Y13416D01*
X2097Y13426D01*
X2092Y13435D01*
X2086Y13443D01*
X2245D01*
X2239Y13435D01*
D02*
G37*
G36*
X-1600D02*
X-1604Y13426D01*
X-1609Y13416D01*
X-1613Y13405D01*
X-1616Y13393D01*
X-1619Y13379D01*
X-1621Y13365D01*
X-1623Y13334D01*
X-1623Y13317D01*
X-1723D01*
X-1724Y13334D01*
X-1726Y13365D01*
X-1728Y13379D01*
X-1731Y13393D01*
X-1734Y13405D01*
X-1738Y13416D01*
X-1742Y13426D01*
X-1747Y13435D01*
X-1752Y13443D01*
X-1594D01*
X-1600Y13435D01*
D02*
G37*
G36*
X-1304Y13425D02*
X-1309Y13416D01*
X-1314Y13406D01*
X-1317Y13395D01*
X-1321Y13383D01*
X-1323Y13370D01*
X-1325Y13356D01*
X-1328Y13325D01*
X-1328Y13308D01*
X-1428D01*
X-1428Y13325D01*
X-1431Y13356D01*
X-1433Y13370D01*
X-1435Y13383D01*
X-1438Y13395D01*
X-1442Y13406D01*
X-1447Y13416D01*
X-1452Y13425D01*
X-1457Y13433D01*
X-1299D01*
X-1304Y13425D01*
D02*
G37*
G36*
X1351Y13423D02*
X1345Y13412D01*
X1339Y13400D01*
X1334Y13388D01*
X1329Y13375D01*
X1326Y13362D01*
X1323Y13348D01*
X1321Y13333D01*
X1320Y13318D01*
X1320Y13303D01*
X1240D01*
X1239Y13318D01*
X1238Y13333D01*
X1236Y13348D01*
X1233Y13362D01*
X1230Y13375D01*
X1225Y13388D01*
X1220Y13400D01*
X1214Y13412D01*
X1208Y13423D01*
X1200Y13433D01*
X1359D01*
X1351Y13423D01*
D02*
G37*
G36*
X2541Y13290D02*
X2547Y13208D01*
X2549Y13199D01*
X2552Y13193D01*
X2555Y13189D01*
X2558Y13188D01*
X2363D01*
X2367Y13189D01*
X2370Y13193D01*
X2372Y13199D01*
X2374Y13208D01*
X2376Y13219D01*
X2378Y13233D01*
X2380Y13268D01*
X2381Y13314D01*
X2541D01*
X2541Y13290D01*
D02*
G37*
G36*
X2216Y13269D02*
X2217Y13252D01*
X2220Y13237D01*
X2223Y13224D01*
X2227Y13213D01*
X2232Y13204D01*
X2239Y13197D01*
X2246Y13192D01*
X2254Y13189D01*
X2263Y13188D01*
X2068D01*
X2077Y13189D01*
X2085Y13192D01*
X2092Y13197D01*
X2098Y13204D01*
X2104Y13213D01*
X2108Y13224D01*
X2111Y13237D01*
X2113Y13252D01*
X2115Y13269D01*
X2115Y13288D01*
X2215D01*
X2216Y13269D01*
D02*
G37*
G36*
X1921D02*
X1922Y13252D01*
X1924Y13237D01*
X1928Y13224D01*
X1932Y13213D01*
X1937Y13204D01*
X1943Y13197D01*
X1950Y13192D01*
X1958Y13189D01*
X1967Y13188D01*
X1773D01*
X1782Y13189D01*
X1790Y13192D01*
X1797Y13197D01*
X1803Y13204D01*
X1808Y13213D01*
X1813Y13224D01*
X1816Y13237D01*
X1818Y13252D01*
X1820Y13269D01*
X1820Y13288D01*
X1920D01*
X1921Y13269D01*
D02*
G37*
G36*
X1625D02*
X1627Y13252D01*
X1629Y13237D01*
X1632Y13224D01*
X1637Y13213D01*
X1642Y13204D01*
X1648Y13197D01*
X1655Y13192D01*
X1663Y13189D01*
X1672Y13188D01*
X1478D01*
X1487Y13189D01*
X1495Y13192D01*
X1502Y13197D01*
X1508Y13204D01*
X1513Y13213D01*
X1517Y13224D01*
X1521Y13237D01*
X1523Y13252D01*
X1524Y13269D01*
X1525Y13288D01*
X1625D01*
X1625Y13269D01*
D02*
G37*
G36*
X-753Y13268D02*
X-748Y13251D01*
X-743Y13236D01*
X-737Y13223D01*
X-731Y13212D01*
X-724Y13204D01*
X-716Y13197D01*
X-708Y13192D01*
X-700Y13189D01*
X-690Y13188D01*
X-885D01*
X-877Y13189D01*
X-870Y13192D01*
X-865Y13197D01*
X-860Y13203D01*
X-857Y13212D01*
X-856Y13223D01*
X-855Y13236D01*
X-855Y13250D01*
X-857Y13267D01*
X-860Y13286D01*
X-757Y13286D01*
X-753Y13268D01*
D02*
G37*
G36*
X-1327Y13269D02*
X-1326Y13252D01*
X-1324Y13237D01*
X-1320Y13224D01*
X-1316Y13213D01*
X-1311Y13204D01*
X-1305Y13197D01*
X-1298Y13192D01*
X-1290Y13189D01*
X-1281Y13188D01*
X-1475D01*
X-1466Y13189D01*
X-1458Y13192D01*
X-1451Y13197D01*
X-1445Y13204D01*
X-1440Y13213D01*
X-1435Y13224D01*
X-1432Y13237D01*
X-1430Y13252D01*
X-1428Y13269D01*
X-1428Y13288D01*
X-1328D01*
X-1327Y13269D01*
D02*
G37*
G36*
X-1623D02*
X-1621Y13252D01*
X-1619Y13237D01*
X-1616Y13224D01*
X-1611Y13213D01*
X-1606Y13204D01*
X-1600Y13197D01*
X-1593Y13192D01*
X-1585Y13189D01*
X-1576Y13188D01*
X-1770D01*
X-1761Y13189D01*
X-1753Y13192D01*
X-1746Y13197D01*
X-1740Y13204D01*
X-1735Y13213D01*
X-1731Y13224D01*
X-1727Y13237D01*
X-1725Y13252D01*
X-1724Y13269D01*
X-1723Y13288D01*
X-1623D01*
X-1623Y13269D01*
D02*
G37*
G36*
X-1888Y13290D02*
X-1882Y13208D01*
X-1880Y13199D01*
X-1877Y13193D01*
X-1875Y13189D01*
X-1871Y13188D01*
X-2066D01*
X-2062Y13189D01*
X-2060Y13193D01*
X-2057Y13199D01*
X-2055Y13208D01*
X-2053Y13219D01*
X-2051Y13233D01*
X-2049Y13268D01*
X-2048Y13314D01*
X-1888D01*
X-1888Y13290D01*
D02*
G37*
G36*
X1320Y13252D02*
X1321Y13239D01*
X1323Y13226D01*
X1326Y13216D01*
X1330Y13207D01*
X1334Y13200D01*
X1339Y13194D01*
X1345Y13190D01*
X1352Y13187D01*
X1360Y13187D01*
X1200D01*
X1207Y13187D01*
X1214Y13190D01*
X1220Y13194D01*
X1225Y13200D01*
X1230Y13207D01*
X1233Y13216D01*
X1236Y13226D01*
X1238Y13239D01*
X1239Y13252D01*
X1240Y13268D01*
X1320D01*
X1320Y13252D01*
D02*
G37*
G36*
X1025D02*
X1026Y13239D01*
X1028Y13226D01*
X1031Y13216D01*
X1034Y13207D01*
X1039Y13200D01*
X1044Y13194D01*
X1050Y13190D01*
X1057Y13187D01*
X1064Y13187D01*
X904D01*
X912Y13187D01*
X919Y13190D01*
X925Y13194D01*
X930Y13200D01*
X934Y13207D01*
X938Y13216D01*
X941Y13226D01*
X943Y13239D01*
X944Y13252D01*
X944Y13268D01*
X1024D01*
X1025Y13252D01*
D02*
G37*
G36*
X672Y13248D02*
X679Y13236D01*
X685Y13224D01*
X692Y13214D01*
X699Y13206D01*
X706Y13199D01*
X713Y13194D01*
X721Y13190D01*
X729Y13187D01*
X737Y13187D01*
X592Y13188D01*
X592Y13196D01*
X590Y13220D01*
X589Y13227D01*
X586Y13242D01*
X584Y13248D01*
X579Y13262D01*
X666Y13263D01*
X672Y13248D01*
D02*
G37*
G36*
X434Y13226D02*
X436Y13199D01*
X436Y13194D01*
X437Y13191D01*
X438Y13189D01*
X440Y13187D01*
X441Y13187D01*
X346D01*
X348Y13187D01*
X349Y13189D01*
X350Y13191D01*
X351Y13194D01*
X352Y13199D01*
X353Y13204D01*
X353Y13218D01*
X354Y13235D01*
X434D01*
X434Y13226D01*
D02*
G37*
G36*
X119Y13252D02*
X120Y13239D01*
X122Y13226D01*
X125Y13216D01*
X129Y13207D01*
X133Y13200D01*
X138Y13194D01*
X144Y13190D01*
X151Y13187D01*
X159Y13187D01*
X1Y13188D01*
X8Y13189D01*
X15Y13191D01*
X20Y13195D01*
X25Y13201D01*
X29Y13208D01*
X33Y13217D01*
X35Y13227D01*
X37Y13239D01*
X38Y13253D01*
X39Y13268D01*
X119D01*
X119Y13252D01*
D02*
G37*
G36*
X-459Y13267D02*
X-455Y13251D01*
X-450Y13236D01*
X-444Y13223D01*
X-437Y13212D01*
X-430Y13203D01*
X-423Y13196D01*
X-414Y13191D01*
X-405Y13188D01*
X-396Y13187D01*
X-589Y13188D01*
X-582Y13189D01*
X-575Y13192D01*
X-570Y13197D01*
X-566Y13203D01*
X-563Y13212D01*
X-561Y13223D01*
X-561Y13236D01*
X-561Y13251D01*
X-563Y13267D01*
X-566Y13286D01*
X-463Y13286D01*
X-459Y13267D01*
D02*
G37*
G36*
X3150Y0D02*
X1439D01*
Y1675D01*
X1257D01*
X1256Y1677D01*
X1252Y1693D01*
X1249Y1714D01*
X1247Y1729D01*
Y2551D01*
X1256Y2619D01*
X1287Y2694D01*
X1313Y2728D01*
X1426Y2791D01*
X1427Y2792D01*
X1428Y2793D01*
X1430Y2794D01*
X1813D01*
Y2846D01*
X1813Y2846D01*
X1893Y2859D01*
X1895Y2856D01*
Y2856D01*
X1901Y2847D01*
X1901Y2847D01*
X1905Y2837D01*
X1912Y2831D01*
X1917Y2823D01*
X1926Y2817D01*
X1934Y2809D01*
X1925Y2774D01*
X1922Y2763D01*
X1918Y2752D01*
X1919Y2744D01*
X1917Y2735D01*
X1919Y2724D01*
X1920Y2713D01*
X1923Y2705D01*
X1925Y2696D01*
X1931Y2687D01*
X1936Y2676D01*
X1942Y2671D01*
Y2638D01*
X1957Y2560D01*
X2001Y2494D01*
X2068Y2449D01*
X2146Y2434D01*
X2224Y2449D01*
X2290Y2494D01*
X2334Y2560D01*
X2350Y2638D01*
Y2671D01*
X2355Y2676D01*
X2360Y2687D01*
X2367Y2696D01*
X2368Y2705D01*
X2372Y2713D01*
X2372Y2724D01*
X2374Y2735D01*
X2373Y2744D01*
X2373Y2752D01*
X2369Y2763D01*
X2367Y2774D01*
X2358Y2809D01*
X2365Y2817D01*
X2374Y2823D01*
X2379Y2831D01*
X2386Y2837D01*
X2390Y2847D01*
X2396Y2856D01*
X2398Y2865D01*
X2402Y2874D01*
X2402Y2884D01*
X2404Y2895D01*
X2402Y2904D01*
X2402Y2914D01*
X2398Y2923D01*
X2396Y2934D01*
X2391Y2942D01*
X2387Y2951D01*
X2380Y2958D01*
X2374Y2967D01*
X2366Y2972D01*
X2360Y2979D01*
X2350Y2983D01*
X2350Y2983D01*
Y3051D01*
X2334Y3129D01*
X2290Y3195D01*
X2224Y3240D01*
X2146Y3255D01*
X2068Y3240D01*
X2001Y3195D01*
X1957Y3129D01*
X1942Y3051D01*
Y2983D01*
X1942Y2983D01*
X1932Y2979D01*
X1925Y2972D01*
X1917Y2967D01*
X1911Y2958D01*
X1904Y2951D01*
X1901Y2944D01*
X1900Y2942D01*
X1895Y2934D01*
X1892Y2930D01*
X1813Y3001D01*
Y3204D01*
X1813Y3207D01*
X1813Y3211D01*
Y3309D01*
X1763D01*
X1762Y3317D01*
X1759Y3353D01*
Y3533D01*
X1755Y3556D01*
X1748Y3606D01*
X1720Y3674D01*
X1685Y3720D01*
Y3775D01*
X1685Y3778D01*
X1685Y3782D01*
Y3872D01*
X1820D01*
Y3871D01*
X1937Y3881D01*
X2016Y3809D01*
Y3345D01*
X2433D01*
Y3449D01*
X2547D01*
Y3404D01*
X2645D01*
X2649Y3403D01*
X2652Y3404D01*
X2964D01*
Y3820D01*
X2935D01*
X2892Y3900D01*
X2897Y3908D01*
X2909Y3967D01*
Y3988D01*
X2920Y3994D01*
X2923Y3999D01*
X2928Y4002D01*
X2936Y4014D01*
X2945Y4025D01*
X2947Y4030D01*
X2950Y4035D01*
X2953Y4049D01*
X2957Y4063D01*
X2957Y4068D01*
X2958Y4074D01*
X2955Y4088D01*
X2953Y4103D01*
X2951Y4107D01*
X2950Y4113D01*
X2942Y4125D01*
X2935Y4138D01*
X2933Y4140D01*
X2933Y4141D01*
X2934Y4152D01*
X2936Y4162D01*
X2934Y4172D01*
X2934Y4181D01*
X2930Y4191D01*
X2928Y4201D01*
X2923Y4209D01*
X2919Y4218D01*
X2912Y4226D01*
X2906Y4234D01*
X2897Y4281D01*
X2864Y4331D01*
X2814Y4364D01*
X2801Y4394D01*
X2884Y4530D01*
X2958Y4709D01*
X3003Y4897D01*
X3018Y5090D01*
X3018D01*
X3018Y5090D01*
Y5170D01*
X3018Y5172D01*
X3005Y5335D01*
X2966Y5496D01*
X2903Y5649D01*
X2870Y5702D01*
X2868Y5710D01*
X2851Y5740D01*
X2823Y5792D01*
X2804Y5836D01*
X2797Y5853D01*
X2793Y5868D01*
X2790Y5880D01*
X2788Y5889D01*
X2788Y5900D01*
X2787Y5903D01*
Y5996D01*
X2787D01*
X2789Y6075D01*
X2793Y6082D01*
X2803Y6086D01*
X2814Y6088D01*
X2822Y6093D01*
X2830Y6096D01*
X2838Y6104D01*
X2846Y6109D01*
X2893Y6119D01*
X2943Y6152D01*
X2976Y6201D01*
X2988Y6260D01*
X2976Y6318D01*
X2943Y6368D01*
X2893Y6401D01*
X2846Y6411D01*
X2838Y6416D01*
X2830Y6423D01*
X2822Y6427D01*
X2814Y6432D01*
X2803Y6434D01*
X2793Y6438D01*
X2789Y6445D01*
X2787Y6524D01*
X2787Y6524D01*
Y6941D01*
X2787D01*
X2787Y6996D01*
X2787D01*
Y7413D01*
X2730D01*
X2721Y7482D01*
X2700Y7533D01*
X2737Y7591D01*
X2754Y7603D01*
X2756Y7603D01*
X2814Y7615D01*
X2864Y7648D01*
X2897Y7697D01*
X2907Y7745D01*
X2912Y7753D01*
X2919Y7760D01*
X2923Y7769D01*
X2928Y7777D01*
X2930Y7787D01*
X2931Y7788D01*
X2935Y7791D01*
X2942Y7804D01*
X2950Y7817D01*
X2951Y7822D01*
X2953Y7827D01*
X2955Y7841D01*
X2957Y7856D01*
X2956Y7861D01*
X2957Y7866D01*
X2953Y7880D01*
X2950Y7895D01*
X2947Y7899D01*
X2945Y7904D01*
X2936Y7915D01*
X2928Y7928D01*
X2923Y7931D01*
X2920Y7935D01*
X2909Y7940D01*
Y8012D01*
X2897Y8070D01*
X2864Y8120D01*
X2814Y8153D01*
X2756Y8165D01*
X2697Y8153D01*
X2648Y8120D01*
X2615Y8070D01*
X2603Y8012D01*
Y7940D01*
X2592Y7935D01*
X2589Y7931D01*
X2584Y7928D01*
X2576Y7915D01*
X2567Y7904D01*
X2565Y7899D01*
X2562Y7895D01*
X2559Y7880D01*
X2555Y7866D01*
X2555Y7861D01*
X2554Y7856D01*
X2557Y7841D01*
X2559Y7827D01*
X2561Y7822D01*
X2562Y7817D01*
X2570Y7804D01*
X2577Y7791D01*
X2573Y7754D01*
X2518Y7713D01*
X2473Y7711D01*
X2423Y7754D01*
Y8269D01*
X2423Y8269D01*
X2440Y8342D01*
X2440Y8343D01*
X2482Y8404D01*
X2529Y8430D01*
X2562Y8440D01*
X2618Y8429D01*
X2627Y8431D01*
X2635Y8425D01*
X2646Y8416D01*
X2652Y8414D01*
X2657Y8411D01*
X2671Y8408D01*
X2684Y8404D01*
X2690Y8404D01*
X2696Y8403D01*
X2710Y8406D01*
X2724Y8407D01*
X2729Y8410D01*
X2735Y8411D01*
X2747Y8419D01*
X2759Y8425D01*
X2763Y8430D01*
X2768Y8433D01*
X2769Y8434D01*
X2775Y8430D01*
X2784Y8428D01*
X2793Y8425D01*
X2804Y8424D01*
X2814Y8422D01*
X2823Y8424D01*
X2833Y8424D01*
X2843Y8428D01*
X2853Y8430D01*
X2861Y8435D01*
X2870Y8439D01*
X2877Y8446D01*
X2885Y8452D01*
X2933Y8461D01*
X2982Y8494D01*
X3015Y8544D01*
X3027Y8602D01*
X3015Y8661D01*
X2982Y8711D01*
X2933Y8744D01*
X2885Y8753D01*
X2877Y8758D01*
X2870Y8766D01*
X2861Y8769D01*
X2853Y8775D01*
X2843Y8777D01*
X2833Y8781D01*
X2798Y8836D01*
X2792Y8859D01*
X2791Y8860D01*
Y9340D01*
X2792Y9348D01*
X2794Y9356D01*
X2797Y9357D01*
X2802Y9360D01*
X2807Y9362D01*
X2818Y9371D01*
X2830Y9379D01*
X2833Y9384D01*
X2837Y9387D01*
X2844Y9400D01*
X2852Y9412D01*
X2853Y9418D01*
X2856Y9422D01*
X2857Y9437D01*
X2860Y9451D01*
X2859Y9457D01*
X2860Y9462D01*
X2855Y9476D01*
X2852Y9490D01*
X2849Y9495D01*
X2848Y9500D01*
X2838Y9511D01*
X2830Y9523D01*
X2833Y9576D01*
X2840Y9609D01*
X2866Y9644D01*
X2974D01*
Y9939D01*
Y10235D01*
Y10530D01*
Y10825D01*
Y11120D01*
Y11416D01*
Y11813D01*
X2302D01*
Y11416D01*
Y11120D01*
Y10825D01*
Y10530D01*
Y10235D01*
Y10013D01*
X2291Y10011D01*
X2226Y9984D01*
X2214Y9980D01*
X2211Y9978D01*
X2205Y9976D01*
X2203Y9975D01*
X2202Y9974D01*
X2184Y9967D01*
X2092Y9896D01*
X2021Y9804D01*
X1977Y9697D01*
X1962Y9582D01*
X1962D01*
Y9285D01*
X1962D01*
X1977Y9167D01*
X1996Y9123D01*
X1990Y9094D01*
X2008Y9005D01*
X2059Y8929D01*
X2120Y8888D01*
Y8537D01*
X2120Y8536D01*
X2113Y8504D01*
X2095Y8476D01*
X2095Y8476D01*
X2093Y8473D01*
X2083Y8461D01*
X2044Y8463D01*
X2000Y8484D01*
X1992Y8545D01*
X1962Y8620D01*
X1912Y8684D01*
X1848Y8733D01*
X1773Y8764D01*
X1697Y8774D01*
X1693Y8775D01*
X1478D01*
Y9431D01*
X1212D01*
X1174Y9467D01*
X1155Y9500D01*
X1154Y9508D01*
X1154Y9510D01*
X1156Y9512D01*
X1160Y9520D01*
X1182Y9554D01*
X1198Y9636D01*
X1182Y9718D01*
X1136Y9788D01*
X1066Y9834D01*
X984Y9850D01*
X902Y9834D01*
X837Y9790D01*
X771Y9834D01*
X689Y9850D01*
X607Y9834D01*
X541Y9790D01*
X476Y9834D01*
X394Y9850D01*
X312Y9834D01*
X242Y9788D01*
X196Y9718D01*
X180Y9636D01*
X196Y9554D01*
X218Y9520D01*
X222Y9512D01*
X224Y9510D01*
X224Y9508D01*
X223Y9500D01*
X207Y9471D01*
X163Y9431D01*
X-532D01*
X-561Y9456D01*
X-582Y9508D01*
X-579Y9516D01*
X-539Y9575D01*
X-538Y9579D01*
X-525Y9646D01*
X-539Y9716D01*
X-579Y9775D01*
X-638Y9815D01*
X-709Y9829D01*
X-773Y9816D01*
X-782Y9817D01*
X-853Y9862D01*
Y12617D01*
X2364D01*
Y12712D01*
X2444Y12773D01*
X2461Y12769D01*
X2531Y12783D01*
X2590Y12823D01*
X2630Y12883D01*
X2644Y12953D01*
Y13137D01*
X2652Y13149D01*
X2652Y13150D01*
X2653Y13151D01*
X2656Y13169D01*
X2660Y13188D01*
X2660Y13189D01*
X2660Y13190D01*
X2656Y13209D01*
X2652Y13227D01*
X2651Y13228D01*
X2651Y13229D01*
X2647Y13235D01*
X2644Y13275D01*
Y13305D01*
X2669Y13374D01*
X2709Y13434D01*
X2710Y13437D01*
X2723Y13504D01*
X2709Y13574D01*
X2669Y13634D01*
X2610Y13673D01*
X2539Y13687D01*
X2469Y13673D01*
X2414Y13636D01*
X2409Y13634D01*
X2314Y13641D01*
X2310Y13648D01*
X2243Y13692D01*
X2165Y13708D01*
X2103Y13695D01*
X2023Y13738D01*
Y16490D01*
X2025D01*
X2006Y16634D01*
X1951Y16767D01*
X1863Y16882D01*
X1748Y16970D01*
X1614Y17026D01*
X1471Y17045D01*
Y17043D01*
X1218D01*
Y17717D01*
X3150D01*
X3150Y0D01*
D02*
G37*
G36*
X2403Y9745D02*
X2401Y9744D01*
X2397Y9741D01*
X2390Y9738D01*
X2368Y9729D01*
X2264Y9693D01*
X2249Y9884D01*
X2403Y9940D01*
Y9745D01*
D02*
G37*
G36*
X1066Y9561D02*
X1062Y9552D01*
X1058Y9542D01*
X1054Y9531D01*
X1051Y9518D01*
X1049Y9503D01*
X1045Y9471D01*
X1045Y9453D01*
X1044Y9442D01*
X1045Y9427D01*
X1048Y9388D01*
X1050Y9373D01*
X1054Y9360D01*
X1058Y9349D01*
X1063Y9340D01*
X1068Y9334D01*
X1074Y9331D01*
X1081Y9330D01*
X887D01*
X894Y9331D01*
X900Y9334D01*
X906Y9340D01*
X911Y9349D01*
X915Y9360D01*
X918Y9373D01*
X921Y9388D01*
X923Y9406D01*
X924Y9445D01*
X924Y9453D01*
X920Y9503D01*
X917Y9518D01*
X914Y9531D01*
X911Y9542D01*
X907Y9552D01*
X902Y9561D01*
X897Y9569D01*
X1071D01*
X1066Y9561D01*
D02*
G37*
G36*
X771D02*
X766Y9552D01*
X762Y9542D01*
X759Y9531D01*
X756Y9518D01*
X753Y9503D01*
X750Y9471D01*
X749Y9453D01*
X749Y9442D01*
X749Y9427D01*
X752Y9388D01*
X755Y9373D01*
X758Y9360D01*
X762Y9349D01*
X767Y9340D01*
X773Y9334D01*
X779Y9331D01*
X786Y9330D01*
X592D01*
X599Y9331D01*
X605Y9334D01*
X611Y9340D01*
X616Y9349D01*
X620Y9360D01*
X623Y9373D01*
X626Y9388D01*
X628Y9406D01*
X629Y9445D01*
X629Y9453D01*
X625Y9503D01*
X622Y9518D01*
X619Y9531D01*
X616Y9542D01*
X612Y9552D01*
X607Y9561D01*
X602Y9569D01*
X776D01*
X771Y9561D01*
D02*
G37*
G36*
X476D02*
X471Y9552D01*
X467Y9542D01*
X463Y9531D01*
X461Y9518D01*
X458Y9503D01*
X455Y9471D01*
X454Y9453D01*
X454Y9442D01*
X454Y9427D01*
X457Y9388D01*
X460Y9373D01*
X463Y9360D01*
X467Y9349D01*
X472Y9340D01*
X478Y9334D01*
X484Y9331D01*
X491Y9330D01*
X296D01*
X304Y9331D01*
X310Y9334D01*
X315Y9340D01*
X320Y9349D01*
X324Y9360D01*
X328Y9373D01*
X330Y9388D01*
X332Y9406D01*
X334Y9445D01*
X333Y9453D01*
X329Y9503D01*
X327Y9518D01*
X324Y9531D01*
X320Y9542D01*
X316Y9552D01*
X312Y9561D01*
X307Y9569D01*
X481D01*
X476Y9561D01*
D02*
G37*
G36*
X-707Y9432D02*
X-701Y9350D01*
X-699Y9341D01*
X-696Y9335D01*
X-693Y9331D01*
X-690Y9330D01*
X-885D01*
X-881Y9331D01*
X-878Y9335D01*
X-876Y9341D01*
X-874Y9350D01*
X-872Y9361D01*
X-870Y9375D01*
X-868Y9410D01*
X-867Y9456D01*
X-707D01*
X-707Y9432D01*
D02*
G37*
G36*
X2745Y9450D02*
X2733Y9446D01*
X2722Y9439D01*
X2713Y9429D01*
X2706Y9416D01*
X2699Y9400D01*
X2694Y9382D01*
X2691Y9361D01*
X2689Y9337D01*
X2688Y9310D01*
X2548D01*
X2547Y9337D01*
X2545Y9361D01*
X2542Y9382D01*
X2537Y9400D01*
X2531Y9416D01*
X2523Y9429D01*
X2514Y9439D01*
X2503Y9446D01*
X2491Y9450D01*
X2478Y9451D01*
X2758D01*
X2745Y9450D01*
D02*
G37*
G36*
X-691Y8854D02*
Y8758D01*
X-43D01*
X-41Y8738D01*
X1Y8562D01*
X71Y8394D01*
X165Y8240D01*
X240Y8152D01*
X203Y8072D01*
X84D01*
X80Y8073D01*
X76Y8072D01*
X-21D01*
Y8023D01*
X-29Y8021D01*
X-66Y8019D01*
X-230D01*
X-245Y8020D01*
X-266Y8024D01*
X-281Y8028D01*
X-284Y8029D01*
Y8259D01*
X-853D01*
Y8861D01*
X-791Y8912D01*
X-787Y8911D01*
X-771Y8914D01*
X-691Y8854D01*
D02*
G37*
G36*
X1354Y8860D02*
X1349Y8857D01*
X1344Y8853D01*
X1340Y8848D01*
X1337Y8840D01*
X1334Y8831D01*
X1332Y8821D01*
X1331Y8809D01*
X1330Y8795D01*
X1330Y8780D01*
X1230D01*
X1229Y8795D01*
X1227Y8821D01*
X1225Y8831D01*
X1222Y8840D01*
X1219Y8848D01*
X1215Y8853D01*
X1210Y8857D01*
X1205Y8860D01*
X1200Y8861D01*
X1359D01*
X1354Y8860D01*
D02*
G37*
G36*
X187Y8858D02*
X180Y8856D01*
X174Y8851D01*
X169Y8844D01*
X165Y8835D01*
X162Y8824D01*
X160Y8811D01*
X160Y8796D01*
X160Y8779D01*
X162Y8760D01*
X60Y8760D01*
X58Y8779D01*
X55Y8796D01*
X51Y8811D01*
X46Y8824D01*
X40Y8835D01*
X34Y8844D01*
X27Y8851D01*
X19Y8855D01*
X11Y8858D01*
X1Y8859D01*
X196D01*
X187Y8858D01*
D02*
G37*
G36*
X2696Y8700D02*
X2541D01*
X2542Y8701D01*
X2543Y8705D01*
X2544Y8712D01*
X2545Y8722D01*
X2547Y8768D01*
X2548Y8840D01*
X2688D01*
X2696Y8700D01*
D02*
G37*
G36*
X2697Y8691D02*
X2700Y8683D01*
X2705Y8676D01*
X2712Y8669D01*
X2721Y8664D01*
X2732Y8660D01*
X2745Y8657D01*
X2747Y8656D01*
X2752Y8657D01*
X2765Y8659D01*
X2777Y8662D01*
X2788Y8666D01*
X2797Y8670D01*
X2806Y8675D01*
X2814Y8680D01*
Y8524D01*
X2806Y8530D01*
X2797Y8534D01*
X2788Y8539D01*
X2777Y8542D01*
X2765Y8545D01*
X2752Y8548D01*
X2747Y8549D01*
X2745Y8548D01*
X2732Y8545D01*
X2721Y8541D01*
X2712Y8535D01*
X2705Y8529D01*
X2700Y8522D01*
X2697Y8514D01*
X2696Y8505D01*
Y8552D01*
X2691Y8552D01*
Y8652D01*
X2696Y8652D01*
Y8700D01*
X2697Y8691D01*
D02*
G37*
G36*
X1636Y8129D02*
X1658D01*
X1654Y8122D01*
X1650Y8114D01*
X1646Y8103D01*
X1643Y8091D01*
X1641Y8076D01*
X1642Y8069D01*
X1647Y8049D01*
X1654Y8031D01*
X1663Y8017D01*
X1673Y8005D01*
X1684Y7997D01*
X1697Y7993D01*
X1711Y7991D01*
X1635D01*
X1635Y7976D01*
X1475D01*
X1475Y7991D01*
X1399D01*
X1413Y7993D01*
X1426Y7997D01*
X1438Y8005D01*
X1448Y8017D01*
X1456Y8031D01*
X1463Y8049D01*
X1468Y8069D01*
X1469Y8076D01*
X1467Y8091D01*
X1464Y8103D01*
X1460Y8114D01*
X1456Y8122D01*
X1452Y8129D01*
X1475D01*
X1475Y8151D01*
X1635D01*
X1636Y8129D01*
D02*
G37*
G36*
X1045D02*
X1068D01*
X1063Y8122D01*
X1059Y8114D01*
X1056Y8103D01*
X1053Y8091D01*
X1050Y8076D01*
X1051Y8069D01*
X1057Y8049D01*
X1064Y8031D01*
X1072Y8017D01*
X1082Y8005D01*
X1093Y7997D01*
X1106Y7993D01*
X1121Y7991D01*
X1045D01*
X1045Y7976D01*
X885D01*
X884Y7991D01*
X808D01*
X823Y7993D01*
X836Y7997D01*
X847Y8005D01*
X857Y8017D01*
X865Y8031D01*
X872Y8049D01*
X878Y8069D01*
X879Y8076D01*
X876Y8091D01*
X873Y8103D01*
X870Y8114D01*
X866Y8122D01*
X862Y8129D01*
X884D01*
X885Y8151D01*
X1045D01*
X1045Y8129D01*
D02*
G37*
G36*
X2806Y7922D02*
X2808Y7892D01*
X2810Y7878D01*
X2813Y7865D01*
X2815Y7856D01*
X2856D01*
X2846Y7855D01*
X2838Y7852D01*
X2830Y7847D01*
X2824Y7840D01*
X2822Y7837D01*
X2824Y7833D01*
X2829Y7824D01*
X2834Y7816D01*
X2813D01*
X2810Y7807D01*
X2808Y7792D01*
X2806Y7775D01*
X2806Y7756D01*
X2706D01*
X2705Y7775D01*
X2704Y7792D01*
X2701Y7807D01*
X2699Y7816D01*
X2678D01*
X2683Y7824D01*
X2688Y7833D01*
X2690Y7837D01*
X2688Y7840D01*
X2682Y7847D01*
X2674Y7852D01*
X2666Y7855D01*
X2656Y7856D01*
X2696D01*
X2699Y7865D01*
X2701Y7878D01*
X2703Y7892D01*
X2706Y7922D01*
X2706Y7939D01*
X2806D01*
X2806Y7922D01*
D02*
G37*
G36*
X-384Y7996D02*
X-378Y7979D01*
X-368Y7964D01*
X-354Y7951D01*
X-336Y7940D01*
X-314Y7931D01*
X-288Y7924D01*
X-257Y7919D01*
X-223Y7916D01*
X-185Y7915D01*
Y7715D01*
X-223Y7714D01*
X-313Y7708D01*
X-335Y7703D01*
X-353Y7698D01*
X-367Y7692D01*
X-377Y7685D01*
X-383Y7677D01*
X-385Y7669D01*
X-386Y8015D01*
X-384Y7996D01*
D02*
G37*
G36*
X80Y7659D02*
X78Y7669D01*
X72Y7679D01*
X62Y7687D01*
X48Y7695D01*
X30Y7701D01*
X8Y7706D01*
X-18Y7710D01*
X-48Y7713D01*
X-120Y7715D01*
Y7915D01*
X-82Y7916D01*
X-18Y7920D01*
X8Y7924D01*
X30Y7929D01*
X48Y7935D01*
X62Y7943D01*
X72Y7951D01*
X78Y7961D01*
X80Y7971D01*
Y7659D01*
D02*
G37*
G36*
X-54Y7611D02*
X-30Y7609D01*
X-21Y7607D01*
Y7557D01*
X51D01*
X59Y7480D01*
X50Y7477D01*
X41Y7475D01*
X32Y7469D01*
X22Y7465D01*
X16Y7458D01*
X8Y7453D01*
X2Y7444D01*
X-5Y7436D01*
X-6Y7435D01*
X-11Y7434D01*
X-29Y7431D01*
X-66Y7428D01*
X-392D01*
Y7429D01*
X-532Y7411D01*
X-663Y7357D01*
X-775Y7271D01*
X-774Y7270D01*
X-818Y7204D01*
X-834Y7126D01*
X-818Y7048D01*
X-774Y6982D01*
X-708Y6938D01*
X-630Y6922D01*
X-552Y6938D01*
X-486Y6982D01*
X-486Y6982D01*
X-420Y7016D01*
X-396Y7021D01*
X-392Y7020D01*
X-104D01*
X-88Y6940D01*
X-112Y6930D01*
X-228Y6842D01*
X-228Y6842D01*
X-288Y6796D01*
X-306Y6784D01*
X-396Y6766D01*
X-403Y6767D01*
X-1850D01*
X-1851Y6767D01*
X-1969Y6755D01*
X-2082Y6721D01*
X-2187Y6665D01*
X-2279Y6590D01*
X-2354Y6498D01*
X-2410Y6393D01*
X-2444Y6280D01*
X-2456Y6162D01*
X-2456Y6161D01*
Y5917D01*
X-2511D01*
Y5500D01*
X-2511D01*
Y5444D01*
X-2511D01*
Y5028D01*
X-2511D01*
X-2491Y4980D01*
X-2546Y4913D01*
X-2885D01*
Y4496D01*
X-2786D01*
X-2780Y4489D01*
X-2751Y4416D01*
X-2769Y4389D01*
X-2781Y4331D01*
X-2769Y4272D01*
X-2751Y4245D01*
X-2780Y4172D01*
X-2786Y4165D01*
X-2885D01*
Y3748D01*
X-2885D01*
X-2878Y3733D01*
X-2925Y3653D01*
X-2925D01*
Y3237D01*
Y2882D01*
X-2869D01*
Y1489D01*
X-2870D01*
X-2855Y1370D01*
X-2809Y1258D01*
X-2735Y1163D01*
X-2639Y1089D01*
X-2528Y1043D01*
X-2408Y1027D01*
Y1028D01*
X-1439D01*
Y0D01*
X-3150D01*
X-3150Y7456D01*
X-3070Y7536D01*
X-955D01*
X-916Y7544D01*
X-883Y7566D01*
X-882Y7567D01*
X-389D01*
X-385Y7567D01*
X-381Y7567D01*
X-284D01*
Y7608D01*
X-238Y7611D01*
X-59D01*
X-54Y7611D01*
D02*
G37*
G36*
X1106Y7677D02*
X1093Y7672D01*
X1082Y7664D01*
X1072Y7653D01*
X1063Y7639D01*
X1057Y7622D01*
X1051Y7602D01*
X1048Y7579D01*
X1045Y7552D01*
X1045Y7523D01*
X885D01*
X884Y7552D01*
X882Y7579D01*
X878Y7602D01*
X872Y7622D01*
X866Y7639D01*
X857Y7653D01*
X848Y7664D01*
X836Y7672D01*
X823Y7677D01*
X809Y7678D01*
X1120D01*
X1106Y7677D01*
D02*
G37*
G36*
X2629Y7384D02*
X2630Y7369D01*
X2632Y7355D01*
X2635Y7343D01*
X2639Y7333D01*
X2643Y7325D01*
X2648Y7319D01*
X2654Y7314D01*
X2661Y7311D01*
X2669Y7311D01*
X2489D01*
X2497Y7311D01*
X2503Y7314D01*
X2509Y7319D01*
X2514Y7325D01*
X2519Y7333D01*
X2522Y7343D01*
X2525Y7355D01*
X2527Y7369D01*
X2528Y7384D01*
X2529Y7402D01*
X2629D01*
X2629Y7384D01*
D02*
G37*
G36*
X2119Y7256D02*
X2135Y7255D01*
X2152Y7255D01*
Y7155D01*
X2135Y7154D01*
X2119Y7153D01*
Y7105D01*
X2118Y7114D01*
X2114Y7123D01*
X2109Y7130D01*
X2102Y7137D01*
X2093Y7142D01*
X2082Y7147D01*
X2078Y7148D01*
X2078Y7148D01*
X2066Y7145D01*
X2055Y7141D01*
X2045Y7137D01*
X2036Y7132D01*
X2029Y7127D01*
Y7154D01*
X2017Y7155D01*
Y7255D01*
X2029Y7255D01*
Y7283D01*
X2036Y7277D01*
X2045Y7273D01*
X2055Y7268D01*
X2066Y7265D01*
X2078Y7262D01*
X2078Y7262D01*
X2082Y7263D01*
X2093Y7267D01*
X2102Y7273D01*
X2109Y7279D01*
X2114Y7287D01*
X2118Y7295D01*
X2119Y7305D01*
Y7256D01*
D02*
G37*
G36*
X80Y7068D02*
X78Y7079D01*
X72Y7088D01*
X62Y7097D01*
X48Y7104D01*
X30Y7110D01*
X8Y7115D01*
X-18Y7119D01*
X-48Y7122D01*
X-120Y7124D01*
Y7324D01*
X-82Y7325D01*
X-18Y7329D01*
X8Y7333D01*
X30Y7338D01*
X48Y7345D01*
X62Y7352D01*
X72Y7360D01*
X78Y7370D01*
X80Y7381D01*
Y7068D01*
D02*
G37*
G36*
X2669Y7098D02*
X2661Y7095D01*
X2653Y7090D01*
X2647Y7083D01*
X2641Y7074D01*
X2637Y7062D01*
X2633Y7049D01*
X2631Y7034D01*
X2629Y7017D01*
X2629Y6998D01*
X2529D01*
X2528Y7017D01*
X2527Y7034D01*
X2524Y7049D01*
X2521Y7062D01*
X2516Y7074D01*
X2511Y7083D01*
X2504Y7090D01*
X2497Y7095D01*
X2488Y7098D01*
X2479Y7099D01*
X2679D01*
X2669Y7098D01*
D02*
G37*
G36*
X2629Y6920D02*
X2631Y6903D01*
X2633Y6888D01*
X2637Y6875D01*
X2641Y6863D01*
X2647Y6854D01*
X2653Y6847D01*
X2661Y6842D01*
X2669Y6839D01*
X2679Y6838D01*
X2479D01*
X2488Y6839D01*
X2497Y6842D01*
X2504Y6847D01*
X2511Y6854D01*
X2516Y6863D01*
X2521Y6875D01*
X2524Y6888D01*
X2527Y6903D01*
X2528Y6920D01*
X2529Y6939D01*
X2629D01*
X2629Y6920D01*
D02*
G37*
G36*
X2117Y6784D02*
X2135Y6783D01*
X2152Y6782D01*
Y6682D01*
X2135Y6682D01*
X2117Y6681D01*
Y6632D01*
X2116Y6642D01*
X2113Y6650D01*
X2108Y6658D01*
X2101Y6664D01*
X2092Y6670D01*
X2081Y6674D01*
X2078Y6675D01*
X2078Y6675D01*
X2066Y6672D01*
X2055Y6669D01*
X2045Y6664D01*
X2036Y6660D01*
X2029Y6654D01*
Y6682D01*
X2017Y6682D01*
Y6782D01*
X2029Y6783D01*
Y6810D01*
X2036Y6805D01*
X2045Y6800D01*
X2055Y6796D01*
X2066Y6792D01*
X2078Y6789D01*
X2078Y6789D01*
X2081Y6790D01*
X2092Y6795D01*
X2101Y6800D01*
X2108Y6807D01*
X2113Y6814D01*
X2116Y6823D01*
X2117Y6832D01*
Y6784D01*
D02*
G37*
G36*
X1305Y7952D02*
X1308Y7947D01*
X1309Y7942D01*
X1319Y7931D01*
X1327Y7919D01*
X1331Y7916D01*
X1335Y7911D01*
X1348Y7905D01*
X1360Y7897D01*
X1365Y7896D01*
X1370Y7893D01*
X1372Y7893D01*
Y7835D01*
X1386Y7764D01*
X1425Y7705D01*
X1463Y7680D01*
X1438Y7600D01*
X1426D01*
Y7065D01*
X1842D01*
X1842Y7065D01*
X1920Y7061D01*
X1957Y7054D01*
X1965Y7049D01*
X1973Y7041D01*
X1982Y7038D01*
X1990Y7033D01*
X1994Y7032D01*
X2006Y7011D01*
X2007Y7006D01*
X2002Y6972D01*
X1980Y6937D01*
X1979Y6936D01*
X1969Y6935D01*
X1941Y6929D01*
X1891Y6919D01*
X1825Y6875D01*
X1782Y6810D01*
X1776Y6781D01*
X1718Y6762D01*
X1690Y6759D01*
X1631Y6804D01*
X1557Y6835D01*
X1481Y6845D01*
X1476Y6846D01*
X1043D01*
X1039Y6845D01*
X963Y6835D01*
X888Y6804D01*
X824Y6755D01*
X775Y6690D01*
X752Y6635D01*
X678D01*
Y6635D01*
X613Y6599D01*
X540Y6585D01*
X538Y6583D01*
X458Y6615D01*
X439Y6682D01*
X466Y6732D01*
X523Y6756D01*
X615Y6826D01*
X685Y6918D01*
X729Y7025D01*
X735Y7065D01*
X1094D01*
Y7312D01*
X1133Y7406D01*
X1148Y7523D01*
X1206Y7577D01*
X1222D01*
Y7678D01*
X1222Y7678D01*
X1222Y7679D01*
Y7953D01*
X1302Y7966D01*
X1305Y7952D01*
D02*
G37*
G36*
X936Y6516D02*
X941Y6444D01*
X942Y6435D01*
X944Y6427D01*
X946Y6422D01*
X949Y6417D01*
X862D01*
Y6319D01*
X949D01*
X947Y6315D01*
X944Y6309D01*
X942Y6302D01*
X941Y6293D01*
X939Y6282D01*
X937Y6256D01*
X936Y6206D01*
X836D01*
X836Y6224D01*
X831Y6287D01*
X780Y6284D01*
Y6219D01*
X778Y6232D01*
X774Y6244D01*
X766Y6254D01*
X756Y6263D01*
X742Y6271D01*
X729Y6276D01*
X726Y6275D01*
X718Y6271D01*
X712Y6267D01*
Y6281D01*
X706Y6282D01*
X684Y6285D01*
X658Y6287D01*
X630Y6288D01*
Y6448D01*
X658Y6449D01*
X684Y6451D01*
X706Y6454D01*
X712Y6456D01*
Y6469D01*
X718Y6465D01*
X726Y6461D01*
X729Y6460D01*
X742Y6465D01*
X756Y6473D01*
X766Y6482D01*
X774Y6492D01*
X778Y6504D01*
X780Y6517D01*
Y6452D01*
X796Y6450D01*
X832Y6449D01*
X834Y6468D01*
X835Y6498D01*
X836Y6535D01*
X936D01*
X936Y6516D01*
D02*
G37*
G36*
X2117Y6311D02*
X2135Y6310D01*
X2152Y6310D01*
Y6210D01*
X2135Y6210D01*
X2117Y6208D01*
Y6160D01*
X2116Y6169D01*
X2113Y6178D01*
X2108Y6185D01*
X2101Y6192D01*
X2092Y6197D01*
X2081Y6202D01*
X2078Y6203D01*
X2078Y6203D01*
X2066Y6200D01*
X2055Y6196D01*
X2045Y6192D01*
X2036Y6187D01*
X2029Y6182D01*
Y6210D01*
X2017Y6210D01*
Y6310D01*
X2029Y6310D01*
Y6338D01*
X2036Y6333D01*
X2045Y6328D01*
X2055Y6324D01*
X2066Y6320D01*
X2078Y6317D01*
X2078Y6317D01*
X2081Y6318D01*
X2092Y6322D01*
X2101Y6328D01*
X2108Y6334D01*
X2113Y6342D01*
X2116Y6350D01*
X2117Y6360D01*
Y6311D01*
D02*
G37*
G36*
X2686Y6350D02*
X2689Y6342D01*
X2694Y6334D01*
X2701Y6328D01*
X2710Y6322D01*
X2721Y6318D01*
X2725Y6317D01*
X2726Y6317D01*
X2737Y6320D01*
X2748Y6324D01*
X2758Y6328D01*
X2767Y6333D01*
X2775Y6338D01*
Y6310D01*
X2786Y6310D01*
Y6210D01*
X2775Y6210D01*
Y6182D01*
X2767Y6187D01*
X2758Y6192D01*
X2748Y6196D01*
X2737Y6200D01*
X2726Y6203D01*
X2725Y6203D01*
X2721Y6202D01*
X2710Y6197D01*
X2701Y6192D01*
X2694Y6185D01*
X2689Y6178D01*
X2686Y6169D01*
X2685Y6160D01*
Y6208D01*
X2668Y6210D01*
X2651Y6210D01*
Y6310D01*
X2668Y6310D01*
X2685Y6311D01*
Y6360D01*
X2686Y6350D01*
D02*
G37*
G36*
X980Y6202D02*
X974Y6199D01*
X968Y6195D01*
X964Y6188D01*
X962Y6180D01*
X961Y6170D01*
X961Y6157D01*
X962Y6143D01*
X965Y6128D01*
X970Y6110D01*
X857Y6105D01*
X851Y6124D01*
X845Y6140D01*
X839Y6155D01*
X832Y6168D01*
X825Y6179D01*
X818Y6187D01*
X810Y6194D01*
X801Y6199D01*
X792Y6202D01*
X783Y6203D01*
X988D01*
X980Y6202D01*
D02*
G37*
G36*
X215Y6184D02*
X216Y6184D01*
X219Y6178D01*
X219Y6178D01*
X219Y6178D01*
X228Y6161D01*
X256Y6099D01*
X259Y6090D01*
X259Y6085D01*
X257Y6082D01*
X254Y6082D01*
X248Y6085D01*
X148Y5925D01*
X147Y5950D01*
X142Y5999D01*
X137Y6023D01*
X125Y6071D01*
X116Y6095D01*
X96Y6143D01*
X85Y6164D01*
X81Y6170D01*
X72Y6178D01*
X63Y6186D01*
X54Y6192D01*
X45Y6196D01*
X35Y6200D01*
X25Y6202D01*
X138Y6304D01*
X215Y6184D01*
D02*
G37*
G36*
X2315Y6153D02*
X2306Y6150D01*
X2299Y6145D01*
X2292Y6138D01*
X2287Y6129D01*
X2282Y6118D01*
X2279Y6104D01*
X2276Y6089D01*
X2275Y6072D01*
X2274Y6053D01*
X2174D01*
X2174Y6072D01*
X2172Y6089D01*
X2170Y6104D01*
X2166Y6118D01*
X2162Y6129D01*
X2156Y6138D01*
X2150Y6145D01*
X2142Y6150D01*
X2134Y6153D01*
X2124Y6154D01*
X2324D01*
X2315Y6153D01*
D02*
G37*
G36*
X1028Y6036D02*
X1056Y5996D01*
X1065Y5986D01*
X1073Y5978D01*
X1081Y5971D01*
X1088Y5967D01*
X1095Y5964D01*
X1101Y5963D01*
X946D01*
X946Y5964D01*
X945Y5966D01*
X933Y5986D01*
X910Y6028D01*
X1018Y6053D01*
X1028Y6036D01*
D02*
G37*
G36*
X2275Y5975D02*
X2276Y5958D01*
X2279Y5943D01*
X2282Y5930D01*
X2287Y5919D01*
X2292Y5909D01*
X2299Y5902D01*
X2306Y5897D01*
X2315Y5894D01*
X2324Y5893D01*
X2124D01*
X2134Y5894D01*
X2142Y5897D01*
X2150Y5902D01*
X2156Y5909D01*
X2162Y5919D01*
X2166Y5930D01*
X2170Y5943D01*
X2172Y5958D01*
X2174Y5975D01*
X2174Y5994D01*
X2274D01*
X2275Y5975D01*
D02*
G37*
G36*
X-351Y5891D02*
X-352Y5899D01*
X-355Y5907D01*
X-360Y5913D01*
X-368Y5919D01*
X-377Y5923D01*
X-389Y5927D01*
X-403Y5930D01*
X-419Y5933D01*
X-437Y5934D01*
X-458Y5934D01*
Y6034D01*
X-437Y6035D01*
X-403Y6038D01*
X-389Y6041D01*
X-377Y6045D01*
X-368Y6050D01*
X-360Y6055D01*
X-355Y6062D01*
X-352Y6069D01*
X-351Y6077D01*
Y5891D01*
D02*
G37*
G36*
X-2253Y5896D02*
X-2251Y5879D01*
X-2249Y5864D01*
X-2245Y5851D01*
X-2241Y5840D01*
X-2235Y5831D01*
X-2229Y5824D01*
X-2221Y5819D01*
X-2213Y5816D01*
X-2203Y5815D01*
X-2403D01*
X-2394Y5816D01*
X-2385Y5819D01*
X-2378Y5824D01*
X-2371Y5831D01*
X-2366Y5840D01*
X-2361Y5851D01*
X-2358Y5864D01*
X-2355Y5879D01*
X-2354Y5896D01*
X-2353Y5916D01*
X-2253D01*
X-2253Y5896D01*
D02*
G37*
G36*
X-799Y5921D02*
X-797Y5920D01*
X-795Y5919D01*
X-791Y5918D01*
X-785Y5918D01*
X-772Y5917D01*
X-743Y5916D01*
Y5816D01*
X-754Y5816D01*
X-795Y5813D01*
X-797Y5813D01*
X-799Y5812D01*
X-800Y5811D01*
Y5922D01*
X-799Y5921D01*
D02*
G37*
G36*
X1417Y5954D02*
X1420Y5946D01*
X1425Y5939D01*
X1432Y5933D01*
X1441Y5928D01*
X1452Y5924D01*
X1465Y5920D01*
X1468Y5920D01*
X1473Y5921D01*
X1485Y5923D01*
X1497Y5926D01*
X1508Y5930D01*
X1518Y5934D01*
X1527Y5939D01*
X1534Y5944D01*
Y5788D01*
X1527Y5793D01*
X1518Y5798D01*
X1508Y5802D01*
X1497Y5806D01*
X1485Y5809D01*
X1473Y5812D01*
X1468Y5812D01*
X1465Y5812D01*
X1452Y5809D01*
X1441Y5804D01*
X1432Y5799D01*
X1425Y5793D01*
X1420Y5786D01*
X1417Y5778D01*
X1416Y5769D01*
Y5816D01*
X1411Y5816D01*
Y5916D01*
X1416Y5916D01*
Y5963D01*
X1417Y5954D01*
D02*
G37*
G36*
X707Y6085D02*
X762Y6070D01*
X763Y6069D01*
X764Y6062D01*
X769Y6056D01*
X780Y6028D01*
X825Y5969D01*
X845Y5936D01*
Y5668D01*
X895D01*
X908Y5652D01*
X915Y5561D01*
X882Y5511D01*
X873Y5464D01*
X868Y5456D01*
X860Y5448D01*
X857Y5440D01*
X851Y5432D01*
X849Y5421D01*
X845Y5412D01*
X846Y5402D01*
X844Y5393D01*
X846Y5382D01*
X846Y5372D01*
X850Y5363D01*
X851Y5354D01*
X856Y5347D01*
X854Y5346D01*
X851Y5342D01*
X847Y5338D01*
X840Y5325D01*
X832Y5313D01*
X831Y5308D01*
X828Y5303D01*
X827Y5288D01*
X824Y5274D01*
X826Y5269D01*
X825Y5263D01*
X829Y5249D01*
X832Y5235D01*
X835Y5231D01*
X837Y5225D01*
X846Y5214D01*
X854Y5202D01*
X818Y5132D01*
X806Y5119D01*
X651D01*
X612Y5112D01*
X610Y5110D01*
X404D01*
X365Y5102D01*
X353Y5094D01*
X341Y5102D01*
X302Y5110D01*
X141D01*
X139Y5110D01*
X94Y5150D01*
X93Y5159D01*
X95Y5189D01*
X96Y5201D01*
X101Y5219D01*
X106Y5234D01*
X106Y5234D01*
X106Y5235D01*
X110Y5235D01*
X120Y5239D01*
X130Y5241D01*
X138Y5247D01*
X147Y5250D01*
X155Y5257D01*
X164Y5263D01*
X169Y5271D01*
X176Y5278D01*
X180Y5288D01*
X186Y5296D01*
X187Y5306D01*
X191Y5314D01*
X191Y5325D01*
X193Y5334D01*
X220Y5375D01*
X232Y5433D01*
X220Y5492D01*
X204Y5516D01*
X204Y5524D01*
X205Y5537D01*
X203Y5543D01*
X203Y5550D01*
X198Y5562D01*
X194Y5575D01*
X190Y5580D01*
X187Y5587D01*
X178Y5596D01*
X170Y5606D01*
X163Y5609D01*
X158Y5614D01*
X149Y5632D01*
X140Y5660D01*
X136Y5691D01*
X136Y5701D01*
X140Y5707D01*
X142Y5712D01*
X145Y5716D01*
X207Y5763D01*
X269Y5775D01*
X321Y5811D01*
X348D01*
X401Y5775D01*
X463Y5763D01*
X525Y5775D01*
X577Y5811D01*
X612Y5863D01*
X625Y5925D01*
Y5979D01*
X626Y5984D01*
X626D01*
X625Y6043D01*
X627Y6045D01*
X676Y6086D01*
X699Y6086D01*
X707Y6085D01*
D02*
G37*
G36*
X4Y5900D02*
X4Y5896D01*
X3Y5890D01*
X2Y5861D01*
X1Y5839D01*
X1Y5837D01*
X3Y5820D01*
X5Y5805D01*
X9Y5792D01*
X13Y5781D01*
X19Y5772D01*
X25Y5765D01*
X33Y5760D01*
X41Y5756D01*
X51Y5755D01*
X-149D01*
X-140Y5756D01*
X-131Y5760D01*
X-124Y5765D01*
X-117Y5772D01*
X-112Y5781D01*
X-107Y5792D01*
X-104Y5805D01*
X-101Y5820D01*
X-101Y5828D01*
X-104Y5903D01*
X5D01*
X4Y5900D01*
D02*
G37*
G36*
X-1841Y5799D02*
X-1838Y5791D01*
X-1833Y5783D01*
X-1826Y5777D01*
X-1817Y5771D01*
X-1806Y5767D01*
X-1802Y5766D01*
X-1802Y5766D01*
X-1790Y5769D01*
X-1779Y5772D01*
X-1770Y5777D01*
X-1761Y5781D01*
X-1753Y5787D01*
Y5759D01*
X-1742Y5759D01*
Y5659D01*
X-1753Y5658D01*
Y5631D01*
X-1761Y5636D01*
X-1770Y5641D01*
X-1779Y5645D01*
X-1790Y5649D01*
X-1802Y5652D01*
X-1802Y5652D01*
X-1806Y5651D01*
X-1817Y5646D01*
X-1826Y5641D01*
X-1833Y5634D01*
X-1838Y5627D01*
X-1841Y5618D01*
X-1842Y5609D01*
Y5657D01*
X-1859Y5658D01*
X-1876Y5659D01*
Y5759D01*
X-1859Y5759D01*
X-1842Y5760D01*
Y5809D01*
X-1841Y5799D01*
D02*
G37*
G36*
X2687Y5878D02*
X2690Y5861D01*
X2694Y5841D01*
X2701Y5820D01*
X2709Y5797D01*
X2732Y5747D01*
X2761Y5690D01*
X2779Y5660D01*
X2658Y5548D01*
X2636Y5585D01*
X2594Y5642D01*
X2575Y5663D01*
X2557Y5679D01*
X2540Y5690D01*
X2525Y5696D01*
X2510Y5696D01*
X2497Y5691D01*
X2484Y5682D01*
X2686Y5894D01*
X2687Y5878D01*
D02*
G37*
G36*
X-2213Y5602D02*
X-2221Y5599D01*
X-2229Y5594D01*
X-2235Y5587D01*
X-2241Y5577D01*
X-2245Y5566D01*
X-2249Y5553D01*
X-2251Y5538D01*
X-2253Y5521D01*
X-2253Y5502D01*
X-2353D01*
X-2354Y5521D01*
X-2355Y5538D01*
X-2358Y5553D01*
X-2361Y5566D01*
X-2366Y5577D01*
X-2371Y5587D01*
X-2378Y5594D01*
X-2385Y5599D01*
X-2394Y5602D01*
X-2403Y5603D01*
X-2203D01*
X-2213Y5602D01*
D02*
G37*
G36*
X-2253Y5424D02*
X-2251Y5407D01*
X-2249Y5392D01*
X-2245Y5379D01*
X-2241Y5367D01*
X-2235Y5358D01*
X-2229Y5351D01*
X-2221Y5346D01*
X-2213Y5343D01*
X-2203Y5342D01*
X-2403D01*
X-2394Y5343D01*
X-2385Y5346D01*
X-2378Y5351D01*
X-2371Y5358D01*
X-2366Y5367D01*
X-2361Y5379D01*
X-2358Y5392D01*
X-2355Y5407D01*
X-2354Y5424D01*
X-2353Y5443D01*
X-2253D01*
X-2253Y5424D01*
D02*
G37*
G36*
X-855Y5422D02*
X-854Y5405D01*
X-806D01*
X-815Y5404D01*
X-824Y5401D01*
X-831Y5396D01*
X-838Y5389D01*
X-843Y5380D01*
X-848Y5369D01*
X-849Y5365D01*
X-849Y5365D01*
X-845Y5353D01*
X-842Y5342D01*
X-838Y5333D01*
X-833Y5324D01*
X-828Y5316D01*
X-855D01*
X-856Y5305D01*
X-956D01*
X-956Y5316D01*
X-984D01*
X-978Y5324D01*
X-973Y5333D01*
X-969Y5342D01*
X-966Y5353D01*
X-963Y5365D01*
X-962Y5365D01*
X-964Y5369D01*
X-968Y5380D01*
X-974Y5389D01*
X-980Y5396D01*
X-988Y5401D01*
X-996Y5404D01*
X-1006Y5405D01*
X-957D01*
X-956Y5422D01*
X-956Y5439D01*
X-856D01*
X-855Y5422D01*
D02*
G37*
G36*
X1842Y6101D02*
Y6101D01*
X1872Y6084D01*
X1891Y6073D01*
X1909Y6069D01*
X1909Y6069D01*
X1909Y6069D01*
X1969Y6058D01*
X1976Y6059D01*
X2016Y5985D01*
Y5579D01*
X2514D01*
X2515Y5578D01*
X2548Y5533D01*
X2600Y5434D01*
X2632Y5329D01*
X2577Y5285D01*
X2562Y5280D01*
X2551Y5288D01*
X2480Y5302D01*
X2462D01*
X2460Y5304D01*
X2449Y5309D01*
X2440Y5315D01*
X2431Y5317D01*
X2423Y5321D01*
X2412Y5321D01*
X2401Y5323D01*
X2392Y5321D01*
X2392Y5321D01*
X2391Y5324D01*
X2382Y5335D01*
X2374Y5346D01*
X2369Y5350D01*
X2366Y5354D01*
X2353Y5361D01*
X2341Y5369D01*
X2335Y5370D01*
X2330Y5372D01*
X2316Y5374D01*
X2302Y5376D01*
X2296Y5375D01*
X2291Y5376D01*
X2277Y5371D01*
X2263Y5369D01*
X2258Y5365D01*
X2253Y5364D01*
X2242Y5354D01*
X2230Y5346D01*
X2227Y5342D01*
X2222Y5338D01*
X2216Y5325D01*
X2208Y5313D01*
X2207Y5308D01*
X2204Y5303D01*
X2204Y5302D01*
X2146D01*
X2075Y5288D01*
X2016Y5248D01*
X1976Y5188D01*
X1971Y5162D01*
X1966Y5160D01*
X1954Y5158D01*
X1947Y5154D01*
X1939Y5151D01*
X1930Y5144D01*
X1920Y5138D01*
X1915Y5131D01*
X1909Y5125D01*
X1904Y5115D01*
X1897Y5105D01*
X1895Y5097D01*
X1891Y5090D01*
X1815Y5098D01*
X1813Y5099D01*
Y5263D01*
X1813Y5263D01*
X1813Y5265D01*
Y5271D01*
X1813Y5274D01*
X1813Y5278D01*
Y5376D01*
X1813D01*
X1782Y5413D01*
X1790Y5453D01*
X1772Y5543D01*
X1721Y5619D01*
X1674Y5650D01*
X1670Y5663D01*
X1674Y5739D01*
X1703Y5758D01*
X1736Y5808D01*
X1747Y5866D01*
X1736Y5925D01*
X1703Y5974D01*
X1653Y6007D01*
X1648Y6021D01*
X1704Y6101D01*
X1842D01*
X1842Y6101D01*
D02*
G37*
G36*
X1096Y5385D02*
X1092Y5376D01*
X1087Y5366D01*
X1084Y5356D01*
X1081Y5344D01*
X1078Y5331D01*
X1077Y5326D01*
X1078Y5323D01*
X1081Y5310D01*
X1085Y5299D01*
X1091Y5290D01*
X1097Y5283D01*
X1104Y5278D01*
X1112Y5275D01*
X1121Y5274D01*
X1074D01*
X1074Y5270D01*
X974D01*
X974Y5274D01*
X926D01*
X935Y5275D01*
X943Y5278D01*
X950Y5283D01*
X957Y5290D01*
X962Y5299D01*
X966Y5310D01*
X969Y5323D01*
X970Y5326D01*
X969Y5331D01*
X967Y5344D01*
X964Y5356D01*
X960Y5366D01*
X956Y5376D01*
X951Y5385D01*
X946Y5393D01*
X1102D01*
X1096Y5385D01*
D02*
G37*
G36*
X-19Y5646D02*
X8Y5608D01*
X21Y5619D01*
X26Y5604D01*
X32Y5591D01*
X39Y5579D01*
X46Y5568D01*
X54Y5558D01*
X63Y5550D01*
X72Y5543D01*
X82Y5537D01*
X92Y5532D01*
X104Y5528D01*
X-17Y5444D01*
X91Y5335D01*
X82Y5334D01*
X73Y5331D01*
X63Y5327D01*
X52Y5322D01*
X42Y5316D01*
X31Y5308D01*
X20Y5300D01*
X17Y5298D01*
X15Y5295D01*
X7Y5284D01*
X-1Y5273D01*
X-7Y5262D01*
X-12Y5252D01*
X-16Y5242D01*
X-19Y5233D01*
X-21Y5224D01*
X-131Y5334D01*
X-122Y5336D01*
X-112Y5338D01*
X-102Y5342D01*
X-92Y5347D01*
X-81Y5354D01*
X-70Y5361D01*
X-59Y5369D01*
X-57Y5372D01*
X-54Y5374D01*
X-46Y5385D01*
X-39Y5396D01*
X-32Y5407D01*
X-27Y5417D01*
X-23Y5427D01*
X-21Y5437D01*
X-19Y5443D01*
X-19Y5445D01*
X-21Y5450D01*
X-23Y5456D01*
X-34Y5487D01*
X-39Y5499D01*
X-51Y5514D01*
X-58Y5522D01*
X-66Y5528D01*
X-72Y5533D01*
X-78Y5536D01*
X-83Y5537D01*
X-87Y5536D01*
X-20Y5641D01*
X-19Y5646D01*
X-22Y5649D01*
X-130Y5728D01*
X-119Y5729D01*
X-114Y5730D01*
X-110Y5732D01*
X-107Y5733D01*
X-104Y5735D01*
X-102Y5736D01*
X-100Y5738D01*
X-100Y5740D01*
X-99Y5742D01*
X1D01*
X-19Y5646D01*
D02*
G37*
G36*
X1636Y5404D02*
X1638Y5377D01*
X1639Y5373D01*
X1658D01*
X1654Y5367D01*
X1650Y5358D01*
X1646Y5347D01*
X1645Y5341D01*
X1647Y5332D01*
X1654Y5314D01*
X1663Y5300D01*
X1673Y5289D01*
X1684Y5281D01*
X1697Y5276D01*
X1711Y5274D01*
X1637D01*
X1635Y5244D01*
X1635Y5220D01*
X1475D01*
X1475Y5244D01*
X1473Y5274D01*
X1399D01*
X1413Y5276D01*
X1426Y5281D01*
X1438Y5289D01*
X1448Y5300D01*
X1456Y5314D01*
X1463Y5332D01*
X1465Y5341D01*
X1464Y5347D01*
X1460Y5358D01*
X1456Y5367D01*
X1452Y5373D01*
X1472D01*
X1472Y5377D01*
X1474Y5404D01*
X1475Y5434D01*
X1635D01*
X1636Y5404D01*
D02*
G37*
G36*
X-1108Y5208D02*
X-1113Y5199D01*
X-1117Y5189D01*
X-1121Y5178D01*
X-1124Y5167D01*
X-1127Y5154D01*
X-1127Y5149D01*
X-1127Y5146D01*
X-1124Y5133D01*
X-1119Y5122D01*
X-1114Y5113D01*
X-1108Y5106D01*
X-1101Y5101D01*
X-1093Y5098D01*
X-1084Y5097D01*
X-1131D01*
X-1131Y5092D01*
X-1231D01*
X-1231Y5097D01*
X-1278D01*
X-1269Y5098D01*
X-1261Y5101D01*
X-1254Y5106D01*
X-1248Y5113D01*
X-1243Y5122D01*
X-1239Y5133D01*
X-1235Y5146D01*
X-1235Y5149D01*
X-1236Y5154D01*
X-1238Y5167D01*
X-1241Y5178D01*
X-1245Y5189D01*
X-1249Y5199D01*
X-1254Y5208D01*
X-1259Y5216D01*
X-1103D01*
X-1108Y5208D01*
D02*
G37*
G36*
X-2213Y5129D02*
X-2221Y5126D01*
X-2229Y5121D01*
X-2235Y5114D01*
X-2241Y5105D01*
X-2245Y5094D01*
X-2249Y5081D01*
X-2251Y5066D01*
X-2253Y5049D01*
X-2253Y5030D01*
X-2353D01*
X-2354Y5049D01*
X-2355Y5066D01*
X-2358Y5081D01*
X-2361Y5094D01*
X-2366Y5105D01*
X-2371Y5114D01*
X-2377Y5121D01*
X-2385Y5126D01*
X-2393Y5129D01*
X-2403Y5130D01*
X-2204D01*
X-2213Y5129D01*
D02*
G37*
G36*
X-1857D02*
X-1863Y5126D01*
X-1869Y5121D01*
X-1875Y5114D01*
X-1879Y5105D01*
X-1882Y5094D01*
X-1885Y5081D01*
X-1887Y5066D01*
X-1888Y5049D01*
X-1889Y5030D01*
X-2009D01*
X-2009Y5049D01*
X-2012Y5081D01*
X-2015Y5094D01*
X-2019Y5105D01*
X-2023Y5114D01*
X-2028Y5121D01*
X-2034Y5126D01*
X-2041Y5129D01*
X-2048Y5130D01*
X-1849D01*
X-1857Y5129D01*
D02*
G37*
G36*
X2304Y5260D02*
X2308Y5247D01*
X2316Y5235D01*
X2328Y5226D01*
X2342Y5217D01*
X2360Y5210D01*
X2369Y5208D01*
X2375Y5209D01*
X2385Y5213D01*
X2394Y5217D01*
X2401Y5221D01*
Y5202D01*
X2404Y5201D01*
X2432Y5199D01*
X2462Y5198D01*
Y5038D01*
X2432Y5037D01*
X2404Y5035D01*
X2401Y5035D01*
Y5015D01*
X2394Y5019D01*
X2385Y5023D01*
X2375Y5027D01*
X2369Y5028D01*
X2360Y5026D01*
X2342Y5019D01*
X2328Y5011D01*
X2316Y5001D01*
X2308Y4989D01*
X2304Y4976D01*
X2302Y4962D01*
Y5037D01*
X2272Y5038D01*
X2248Y5038D01*
Y5198D01*
X2272Y5198D01*
X2302Y5201D01*
Y5274D01*
X2304Y5260D01*
D02*
G37*
G36*
X2208Y4962D02*
X2201Y4963D01*
X2191Y4961D01*
X2178Y4956D01*
X2164Y4947D01*
X2147Y4935D01*
X2127Y4920D01*
X2081Y4879D01*
X2025Y4825D01*
X1912Y4938D01*
X1932Y4959D01*
X1977Y5011D01*
X1986Y5024D01*
X1992Y5036D01*
X1996Y5045D01*
X1997Y5053D01*
X1994Y5059D01*
X1989Y5063D01*
X2208Y4962D01*
D02*
G37*
G36*
X-104Y5139D02*
X-116Y5136D01*
X-128Y5133D01*
X-139Y5128D01*
X-150Y5123D01*
X-160Y5116D01*
X-166Y5111D01*
X-123D01*
X-134Y5110D01*
X-145Y5107D01*
X-156Y5103D01*
X-167Y5097D01*
X-177Y5089D01*
X-187Y5080D01*
X-197Y5069D01*
X-207Y5056D01*
X-216Y5041D01*
X-220Y5034D01*
X-222Y5030D01*
X-243Y4969D01*
X-245Y4960D01*
X-246Y4952D01*
X-247Y4946D01*
X-246Y4941D01*
X-347Y4983D01*
X-348Y4983D01*
X-348Y4985D01*
X-347Y4989D01*
X-345Y4996D01*
X-332Y5028D01*
X-315Y5067D01*
X-313Y5077D01*
X-314Y5088D01*
X-316Y5096D01*
X-321Y5102D01*
X-327Y5107D01*
X-336Y5110D01*
X-347Y5111D01*
X-284D01*
X-291Y5115D01*
X-216Y5243D01*
X-104Y5139D01*
D02*
G37*
G36*
X39Y4652D02*
X35Y4644D01*
X19Y4567D01*
X35Y4490D01*
X39Y4482D01*
Y4376D01*
X35Y4369D01*
X19Y4291D01*
X35Y4214D01*
X39Y4207D01*
Y4173D01*
X39Y4150D01*
X21Y4106D01*
X-12Y4073D01*
X-33Y4064D01*
X-79Y4055D01*
X-335Y4055D01*
X-354Y4055D01*
X-374Y4063D01*
X-412Y4093D01*
Y4490D01*
X-433D01*
Y4567D01*
X-433Y4583D01*
X-421Y4612D01*
X-399Y4634D01*
X-370Y4646D01*
X-354Y4646D01*
X-354Y4646D01*
X-276D01*
X-256Y4648D01*
X-221Y4662D01*
X-194Y4689D01*
X-179Y4725D01*
X-179Y4725D01*
X-155Y4761D01*
X-143Y4823D01*
Y4941D01*
X-143Y4942D01*
X-141Y4952D01*
X-128Y4990D01*
X-123Y4998D01*
X-118Y5005D01*
X-115Y5008D01*
X39D01*
Y4652D01*
D02*
G37*
G36*
X-1467Y4803D02*
X-1463Y4795D01*
X-1457Y4788D01*
X-1449Y4782D01*
X-1438Y4776D01*
X-1425Y4772D01*
X-1409Y4769D01*
X-1391Y4767D01*
X-1371Y4765D01*
X-1308Y4769D01*
X-1298Y4771D01*
X-1289Y4773D01*
X-1283Y4776D01*
X-1280Y4779D01*
X-1278Y4782D01*
Y4627D01*
X-1280Y4631D01*
X-1283Y4633D01*
X-1289Y4636D01*
X-1298Y4638D01*
X-1308Y4640D01*
X-1322Y4642D01*
X-1355Y4644D01*
X-1370Y4644D01*
X-1371Y4644D01*
X-1409Y4640D01*
X-1425Y4637D01*
X-1438Y4633D01*
X-1449Y4628D01*
X-1457Y4622D01*
X-1463Y4615D01*
X-1467Y4607D01*
X-1468Y4598D01*
Y4812D01*
X-1467Y4803D01*
D02*
G37*
G36*
X-2387Y4742D02*
X-2403Y4729D01*
X-2430Y4704D01*
X-2441Y4691D01*
X-2451Y4679D01*
X-2458Y4667D01*
X-2464Y4655D01*
X-2468Y4643D01*
X-2471Y4631D01*
X-2472Y4619D01*
Y4812D01*
X-2471Y4814D01*
X-2469Y4817D01*
X-2465Y4821D01*
X-2460Y4826D01*
X-2446Y4838D01*
X-2401Y4874D01*
X-2387Y4742D01*
D02*
G37*
G36*
X-1824Y4875D02*
X-1749Y4823D01*
X-1730Y4812D01*
X-1713Y4805D01*
X-1699Y4801D01*
X-1688Y4801D01*
X-1679Y4804D01*
X-1674Y4811D01*
X-1780Y4598D01*
X-1781Y4610D01*
X-1784Y4624D01*
X-1789Y4637D01*
X-1796Y4651D01*
X-1805Y4665D01*
X-1816Y4680D01*
X-1829Y4695D01*
X-1845Y4711D01*
X-1881Y4743D01*
X-1855Y4900D01*
X-1824Y4875D01*
D02*
G37*
G36*
X2482Y4662D02*
X2475Y4661D01*
X2468Y4659D01*
X2461Y4655D01*
X2452Y4651D01*
X2443Y4645D01*
X2433Y4638D01*
X2411Y4619D01*
X2386Y4595D01*
X2315Y4666D01*
X2328Y4679D01*
X2358Y4713D01*
X2365Y4723D01*
X2371Y4732D01*
X2376Y4740D01*
X2379Y4748D01*
X2381Y4755D01*
X2382Y4761D01*
X2482Y4662D01*
D02*
G37*
G36*
X2025Y4825D02*
X2001Y4786D01*
X1964Y4717D01*
X1952Y4687D01*
X1943Y4660D01*
X1938Y4637D01*
X1937Y4616D01*
X1939Y4598D01*
X1946Y4584D01*
X1956Y4572D01*
X1743Y4743D01*
X1750Y4744D01*
X1758Y4749D01*
X1768Y4756D01*
X1778Y4766D01*
X1790Y4778D01*
X1816Y4812D01*
X1848Y4858D01*
X1866Y4885D01*
X2025Y4825D01*
D02*
G37*
G36*
X-416Y5808D02*
X-367Y5775D01*
X-305Y5763D01*
X-243Y5716D01*
X-240Y5712D01*
X-239Y5707D01*
X-229Y5695D01*
X-221Y5683D01*
X-220Y5682D01*
X-217Y5674D01*
X-217Y5674D01*
X-217Y5674D01*
X-203Y5660D01*
X-193Y5648D01*
X-191Y5627D01*
X-177Y5582D01*
X-179Y5578D01*
X-185Y5565D01*
X-186Y5559D01*
X-188Y5555D01*
X-188Y5540D01*
X-189Y5525D01*
X-187Y5520D01*
X-187Y5515D01*
X-184Y5507D01*
X-179Y5479D01*
X-188Y5439D01*
X-203Y5406D01*
X-208Y5398D01*
X-215Y5391D01*
X-219Y5382D01*
X-225Y5373D01*
X-227Y5364D01*
X-231Y5355D01*
X-231Y5344D01*
X-231Y5342D01*
X-242Y5341D01*
X-250Y5338D01*
X-259Y5336D01*
X-268Y5329D01*
X-278Y5324D01*
X-284Y5317D01*
X-291Y5312D01*
X-297Y5303D01*
X-304Y5294D01*
X-352Y5212D01*
X-362Y5210D01*
X-378Y5208D01*
X-382Y5206D01*
X-386Y5205D01*
X-399Y5196D01*
X-413Y5189D01*
X-416Y5185D01*
X-419Y5183D01*
X-428Y5170D01*
X-438Y5157D01*
X-439Y5153D01*
X-441Y5150D01*
X-444Y5134D01*
X-449Y5119D01*
X-448Y5115D01*
X-449Y5111D01*
X-446Y5095D01*
X-444Y5080D01*
X-442Y5076D01*
X-441Y5072D01*
X-433Y5059D01*
X-431Y5055D01*
X-439Y5033D01*
X-440Y5030D01*
X-441Y5028D01*
X-444Y5021D01*
X-444Y5017D01*
X-446Y5014D01*
X-447Y5010D01*
X-447Y4998D01*
X-448Y4995D01*
X-450Y4989D01*
X-450Y4988D01*
X-450Y4987D01*
X-450Y4985D01*
X-448Y4977D01*
X-449Y4970D01*
X-448Y4969D01*
X-460Y4882D01*
X-458D01*
X-446Y4823D01*
X-440Y4814D01*
X-438Y4742D01*
X-461Y4712D01*
X-471Y4706D01*
X-493Y4684D01*
X-493Y4684D01*
X-515Y4651D01*
X-527Y4622D01*
X-527Y4622D01*
X-527Y4622D01*
X-531Y4604D01*
X-535Y4583D01*
X-535Y4583D01*
X-535Y4583D01*
X-535Y4567D01*
Y4515D01*
X-544Y4502D01*
X-557Y4491D01*
X-582Y4479D01*
X-613Y4473D01*
X-619Y4478D01*
X-624Y4480D01*
X-629Y4483D01*
X-643Y4486D01*
X-657Y4490D01*
X-662Y4489D01*
X-668Y4491D01*
X-682Y4488D01*
X-696Y4487D01*
X-702Y4484D01*
X-707Y4483D01*
X-719Y4475D01*
X-732Y4468D01*
X-735Y4464D01*
X-740Y4461D01*
X-741Y4459D01*
X-747Y4464D01*
X-757Y4465D01*
X-765Y4469D01*
X-776Y4469D01*
X-786Y4471D01*
X-796Y4469D01*
X-805Y4470D01*
X-815Y4466D01*
X-825Y4464D01*
X-833Y4458D01*
X-842Y4455D01*
X-850Y4447D01*
X-858Y4442D01*
X-903Y4433D01*
X-905Y4433D01*
X-934Y4449D01*
X-983Y4509D01*
Y4526D01*
X-983D01*
Y4883D01*
X-983D01*
X-1026Y4951D01*
X-1020Y5018D01*
X-1017Y5022D01*
X-1012Y5025D01*
X-1004Y5037D01*
X-995Y5048D01*
X-990Y5057D01*
X-990Y5058D01*
X-930Y5098D01*
X-906Y5103D01*
X-906Y5103D01*
X-847Y5115D01*
X-797Y5148D01*
X-764Y5197D01*
X-755Y5245D01*
X-750Y5253D01*
X-742Y5260D01*
X-739Y5269D01*
X-733Y5277D01*
X-731Y5287D01*
X-727Y5297D01*
X-727Y5307D01*
X-726Y5316D01*
X-728Y5326D01*
X-728Y5337D01*
X-729Y5339D01*
X-726Y5341D01*
X-719Y5354D01*
X-711Y5366D01*
X-710Y5371D01*
X-708Y5376D01*
X-706Y5390D01*
X-704Y5405D01*
X-705Y5410D01*
X-704Y5415D01*
X-708Y5429D01*
X-711Y5444D01*
X-714Y5448D01*
X-716Y5453D01*
X-725Y5465D01*
X-733Y5477D01*
X-738Y5480D01*
X-741Y5484D01*
X-753Y5490D01*
Y5512D01*
X-764Y5570D01*
X-769Y5578D01*
X-726Y5658D01*
X-697D01*
Y5719D01*
X-651Y5725D01*
X-566Y5761D01*
X-504Y5808D01*
X-434Y5810D01*
X-416Y5808D01*
D02*
G37*
G36*
X1260Y4583D02*
X1260Y4583D01*
X1260Y4570D01*
X1255Y4544D01*
X1245Y4520D01*
X1230Y4498D01*
X1220Y4488D01*
X1220Y4488D01*
X1211Y4479D01*
X1189Y4464D01*
X1165Y4454D01*
X1139Y4449D01*
X1125Y4449D01*
X433D01*
X408Y4489D01*
X408Y4489D01*
X408Y4490D01*
X424Y4567D01*
X408Y4644D01*
X404Y4652D01*
X404Y5008D01*
X651D01*
Y5017D01*
X1260D01*
X1260Y4583D01*
D02*
G37*
G36*
X-1779Y4231D02*
X-1780Y4240D01*
X-1783Y4249D01*
X-1788Y4256D01*
X-1795Y4263D01*
X-1804Y4268D01*
X-1816Y4273D01*
X-1829Y4276D01*
X-1837Y4278D01*
X-1847Y4276D01*
X-1859Y4274D01*
X-1871Y4271D01*
X-1882Y4267D01*
X-1892Y4263D01*
X-1901Y4258D01*
X-1908Y4253D01*
Y4409D01*
X-1901Y4403D01*
X-1892Y4399D01*
X-1882Y4394D01*
X-1871Y4391D01*
X-1859Y4388D01*
X-1847Y4385D01*
X-1837Y4384D01*
X-1829Y4385D01*
X-1816Y4389D01*
X-1804Y4393D01*
X-1795Y4399D01*
X-1788Y4405D01*
X-1783Y4413D01*
X-1780Y4421D01*
X-1779Y4431D01*
Y4231D01*
D02*
G37*
G36*
X-668Y4341D02*
X-663Y4341D01*
Y4241D01*
X-668Y4241D01*
Y4194D01*
X-669Y4203D01*
X-672Y4211D01*
X-677Y4218D01*
X-684Y4224D01*
X-693Y4230D01*
X-704Y4234D01*
X-717Y4237D01*
X-720Y4238D01*
X-725Y4237D01*
X-737Y4234D01*
X-749Y4231D01*
X-760Y4228D01*
X-770Y4223D01*
X-779Y4219D01*
X-786Y4213D01*
Y4369D01*
X-779Y4364D01*
X-770Y4359D01*
X-760Y4355D01*
X-749Y4351D01*
X-737Y4348D01*
X-725Y4346D01*
X-720Y4345D01*
X-717Y4346D01*
X-704Y4349D01*
X-693Y4353D01*
X-684Y4358D01*
X-677Y4364D01*
X-672Y4372D01*
X-669Y4380D01*
X-668Y4389D01*
Y4341D01*
D02*
G37*
G36*
X-1467Y4429D02*
X-1463Y4421D01*
X-1457Y4414D01*
X-1449Y4408D01*
X-1438Y4402D01*
X-1425Y4398D01*
X-1409Y4395D01*
X-1391Y4393D01*
X-1371Y4391D01*
X-1308Y4395D01*
X-1298Y4397D01*
X-1289Y4399D01*
X-1283Y4402D01*
X-1280Y4405D01*
X-1278Y4408D01*
Y4253D01*
X-1280Y4257D01*
X-1283Y4259D01*
X-1289Y4262D01*
X-1298Y4264D01*
X-1308Y4266D01*
X-1322Y4268D01*
X-1355Y4270D01*
X-1370Y4270D01*
X-1371Y4270D01*
X-1409Y4266D01*
X-1425Y4263D01*
X-1438Y4259D01*
X-1449Y4254D01*
X-1457Y4248D01*
X-1463Y4241D01*
X-1467Y4233D01*
X-1468Y4224D01*
Y4438D01*
X-1467Y4429D01*
D02*
G37*
G36*
X-2471Y4421D02*
X-2468Y4413D01*
X-2463Y4405D01*
X-2456Y4399D01*
X-2447Y4393D01*
X-2436Y4389D01*
X-2423Y4385D01*
X-2415Y4384D01*
X-2405Y4385D01*
X-2392Y4388D01*
X-2381Y4391D01*
X-2370Y4394D01*
X-2360Y4399D01*
X-2351Y4403D01*
X-2343Y4409D01*
Y4253D01*
X-2351Y4258D01*
X-2360Y4263D01*
X-2370Y4267D01*
X-2381Y4271D01*
X-2392Y4274D01*
X-2405Y4276D01*
X-2415Y4278D01*
X-2423Y4276D01*
X-2436Y4273D01*
X-2447Y4268D01*
X-2456Y4263D01*
X-2463Y4256D01*
X-2468Y4249D01*
X-2471Y4240D01*
X-2472Y4231D01*
Y4431D01*
X-2471Y4421D01*
D02*
G37*
G36*
X2806Y4162D02*
X2834D01*
X2828Y4155D01*
X2824Y4146D01*
X2819Y4136D01*
X2816Y4125D01*
X2813Y4113D01*
X2813Y4113D01*
X2814Y4110D01*
X2818Y4099D01*
X2824Y4090D01*
X2830Y4083D01*
X2838Y4078D01*
X2846Y4075D01*
X2856Y4074D01*
X2807D01*
X2806Y4056D01*
X2806Y4039D01*
X2706D01*
X2705Y4056D01*
X2704Y4074D01*
X2656D01*
X2665Y4075D01*
X2674Y4078D01*
X2681Y4083D01*
X2688Y4090D01*
X2693Y4099D01*
X2698Y4110D01*
X2699Y4113D01*
X2699Y4113D01*
X2696Y4125D01*
X2692Y4136D01*
X2688Y4146D01*
X2683Y4155D01*
X2678Y4162D01*
X2705D01*
X2706Y4174D01*
X2806D01*
X2806Y4162D01*
D02*
G37*
G36*
X302Y4947D02*
X300Y4941D01*
Y4887D01*
X299Y4882D01*
X300Y4877D01*
Y4823D01*
X302Y4817D01*
Y4652D01*
X304Y4642D01*
X304Y4632D01*
X307Y4622D01*
X309Y4613D01*
X311Y4610D01*
X320Y4567D01*
X308Y4510D01*
X308Y4509D01*
X308Y4499D01*
X306Y4489D01*
X308Y4480D01*
X308Y4472D01*
X308Y4471D01*
X308Y4469D01*
X312Y4460D01*
X314Y4450D01*
X314Y4450D01*
X319Y4443D01*
X322Y4435D01*
X347Y4395D01*
X355Y4386D01*
X361Y4377D01*
X368Y4372D01*
X374Y4366D01*
X384Y4361D01*
X394Y4355D01*
X402Y4353D01*
X410Y4349D01*
X422Y4349D01*
X433Y4347D01*
X980D01*
X1023Y4295D01*
X1054Y4258D01*
X1054Y4258D01*
X1087Y4221D01*
X1102Y4202D01*
Y3940D01*
X1087Y3903D01*
X1058Y3874D01*
X1020Y3858D01*
X277D01*
Y4017D01*
X142D01*
X116Y4067D01*
X134Y4111D01*
X134Y4111D01*
X141Y4150D01*
X141Y4173D01*
Y4207D01*
X139Y4217D01*
Y4227D01*
X136Y4236D01*
X134Y4246D01*
X132Y4249D01*
X123Y4291D01*
X132Y4334D01*
X134Y4337D01*
X136Y4347D01*
X139Y4356D01*
Y4366D01*
X141Y4376D01*
Y4482D01*
X139Y4492D01*
X139Y4502D01*
X136Y4511D01*
X134Y4521D01*
X132Y4524D01*
X123Y4567D01*
X132Y4610D01*
X134Y4613D01*
X136Y4622D01*
X139Y4632D01*
X139Y4642D01*
X141Y4652D01*
Y5008D01*
X302D01*
Y4947D01*
D02*
G37*
G36*
X-1131Y3938D02*
X-1084D01*
X-1093Y3937D01*
X-1101Y3934D01*
X-1108Y3929D01*
X-1114Y3922D01*
X-1119Y3913D01*
X-1124Y3902D01*
X-1127Y3889D01*
X-1127Y3886D01*
X-1127Y3882D01*
X-1124Y3869D01*
X-1121Y3857D01*
X-1117Y3846D01*
X-1113Y3836D01*
X-1108Y3828D01*
X-1103Y3820D01*
X-1259D01*
X-1254Y3828D01*
X-1249Y3836D01*
X-1245Y3846D01*
X-1241Y3857D01*
X-1238Y3869D01*
X-1236Y3882D01*
X-1235Y3886D01*
X-1235Y3889D01*
X-1239Y3902D01*
X-1243Y3913D01*
X-1248Y3922D01*
X-1254Y3929D01*
X-1261Y3934D01*
X-1269Y3937D01*
X-1278Y3938D01*
X-1231D01*
X-1231Y3943D01*
X-1131D01*
X-1131Y3938D01*
D02*
G37*
G36*
X-1558Y3850D02*
X-1562Y3848D01*
X-1565Y3844D01*
X-1567Y3840D01*
X-1569Y3833D01*
X-1571Y3825D01*
X-1572Y3816D01*
X-1573Y3806D01*
X-1574Y3780D01*
X-1674D01*
X-1674Y3794D01*
X-1676Y3816D01*
X-1677Y3825D01*
X-1679Y3833D01*
X-1681Y3840D01*
X-1684Y3844D01*
X-1686Y3848D01*
X-1690Y3850D01*
X-1693Y3851D01*
X-1555D01*
X-1558Y3850D01*
D02*
G37*
G36*
X-2562D02*
X-2566Y3848D01*
X-2568Y3844D01*
X-2571Y3840D01*
X-2573Y3833D01*
X-2575Y3825D01*
X-2576Y3816D01*
X-2577Y3806D01*
X-2578Y3780D01*
X-2678D01*
X-2678Y3794D01*
X-2680Y3816D01*
X-2681Y3825D01*
X-2683Y3833D01*
X-2685Y3840D01*
X-2687Y3844D01*
X-2690Y3848D01*
X-2694Y3850D01*
X-2697Y3851D01*
X-2559D01*
X-2562Y3850D01*
D02*
G37*
G36*
X1531Y3906D02*
X1554Y3818D01*
X1560Y3804D01*
X1566Y3793D01*
X1572Y3785D01*
X1578Y3780D01*
X1583Y3778D01*
X1369D01*
X1373Y3780D01*
X1375Y3785D01*
X1377Y3792D01*
X1377Y3803D01*
X1377Y3818D01*
X1373Y3855D01*
X1360Y3935D01*
X1526Y3936D01*
X1531Y3906D01*
D02*
G37*
G36*
X-327Y3921D02*
X-317Y3916D01*
X-304Y3912D01*
X-289Y3909D01*
X-275Y3906D01*
X-223Y3910D01*
X-217Y3913D01*
X-215Y3916D01*
Y3901D01*
X-178Y3899D01*
X-148Y3899D01*
Y3699D01*
X-178Y3699D01*
X-215Y3696D01*
Y3682D01*
X-217Y3686D01*
X-223Y3688D01*
X-233Y3691D01*
X-247Y3693D01*
X-253Y3694D01*
X-271Y3693D01*
X-289Y3690D01*
X-304Y3686D01*
X-317Y3682D01*
X-327Y3678D01*
X-335Y3672D01*
Y3698D01*
X-343Y3699D01*
X-415Y3699D01*
Y3899D01*
X-377Y3899D01*
X-335Y3902D01*
Y3926D01*
X-327Y3921D01*
D02*
G37*
G36*
X710Y3663D02*
X738Y3663D01*
Y3463D01*
X710Y3463D01*
Y3407D01*
X708Y3417D01*
X702Y3427D01*
X692Y3435D01*
X678Y3443D01*
X660Y3449D01*
X638Y3454D01*
X620Y3457D01*
X615Y3456D01*
X597Y3453D01*
X582Y3450D01*
X569Y3446D01*
X558Y3441D01*
X550Y3436D01*
Y3462D01*
X510Y3463D01*
Y3663D01*
X548Y3664D01*
X550Y3664D01*
Y3690D01*
X558Y3685D01*
X569Y3680D01*
X582Y3676D01*
X597Y3673D01*
X615Y3670D01*
X619Y3669D01*
X638Y3672D01*
X660Y3677D01*
X678Y3683D01*
X692Y3691D01*
X702Y3699D01*
X708Y3709D01*
X710Y3719D01*
Y3663D01*
D02*
G37*
G36*
X2649Y3505D02*
X2647Y3514D01*
X2644Y3522D01*
X2638Y3529D01*
X2629Y3535D01*
X2619Y3540D01*
X2605Y3545D01*
X2590Y3548D01*
X2572Y3550D01*
X2551Y3552D01*
X2529Y3552D01*
Y3672D01*
X2551Y3673D01*
X2590Y3676D01*
X2605Y3680D01*
X2619Y3684D01*
X2629Y3689D01*
X2638Y3695D01*
X2644Y3702D01*
X2647Y3710D01*
X2649Y3719D01*
Y3505D01*
D02*
G37*
G36*
X2331Y3721D02*
X2335Y3711D01*
X2341Y3702D01*
X2350Y3694D01*
X2361Y3687D01*
X2374Y3682D01*
X2390Y3678D01*
X2408Y3675D01*
X2428Y3673D01*
X2451Y3672D01*
Y3552D01*
X2428Y3552D01*
X2408Y3550D01*
X2390Y3547D01*
X2374Y3543D01*
X2361Y3537D01*
X2350Y3531D01*
X2341Y3523D01*
X2335Y3514D01*
X2331Y3504D01*
X2330Y3492D01*
Y3732D01*
X2331Y3721D01*
D02*
G37*
G36*
X-1890Y3533D02*
X-1887Y3525D01*
X-1882Y3518D01*
X-1875Y3512D01*
X-1866Y3507D01*
X-1855Y3502D01*
X-1842Y3499D01*
X-1827Y3497D01*
X-1810Y3495D01*
X-1791Y3495D01*
Y3395D01*
X-1810Y3394D01*
X-1827Y3393D01*
X-1842Y3391D01*
X-1855Y3387D01*
X-1866Y3383D01*
X-1875Y3378D01*
X-1882Y3372D01*
X-1887Y3365D01*
X-1890Y3357D01*
X-1891Y3348D01*
Y3542D01*
X-1890Y3533D01*
D02*
G37*
G36*
X-2361Y3348D02*
X-2362Y3357D01*
X-2365Y3365D01*
X-2370Y3372D01*
X-2377Y3378D01*
X-2386Y3383D01*
X-2397Y3387D01*
X-2410Y3391D01*
X-2425Y3393D01*
X-2442Y3394D01*
X-2461Y3395D01*
Y3495D01*
X-2442Y3495D01*
X-2425Y3497D01*
X-2410Y3499D01*
X-2397Y3502D01*
X-2386Y3507D01*
X-2377Y3512D01*
X-2370Y3518D01*
X-2365Y3525D01*
X-2362Y3533D01*
X-2361Y3542D01*
Y3348D01*
D02*
G37*
G36*
X-1641Y3345D02*
X-1642Y3354D01*
X-1645Y3363D01*
X-1650Y3370D01*
X-1657Y3377D01*
X-1667Y3382D01*
X-1678Y3387D01*
X-1691Y3390D01*
X-1706Y3393D01*
X-1723Y3394D01*
X-1743Y3395D01*
Y3495D01*
X-1723Y3495D01*
X-1706Y3497D01*
X-1691Y3499D01*
X-1678Y3503D01*
X-1667Y3507D01*
X-1657Y3513D01*
X-1650Y3519D01*
X-1645Y3527D01*
X-1642Y3535D01*
X-1641Y3545D01*
Y3345D01*
D02*
G37*
G36*
X-2610Y3535D02*
X-2607Y3527D01*
X-2602Y3519D01*
X-2594Y3513D01*
X-2585Y3507D01*
X-2574Y3503D01*
X-2561Y3499D01*
X-2546Y3497D01*
X-2529Y3495D01*
X-2509Y3495D01*
Y3395D01*
X-2529Y3394D01*
X-2546Y3393D01*
X-2561Y3390D01*
X-2574Y3387D01*
X-2585Y3382D01*
X-2594Y3377D01*
X-2602Y3370D01*
X-2607Y3363D01*
X-2610Y3354D01*
X-2611Y3345D01*
Y3545D01*
X-2610Y3535D01*
D02*
G37*
G36*
X-905Y4150D02*
X-904Y4150D01*
X-858Y4141D01*
X-850Y4135D01*
X-842Y4128D01*
X-833Y4124D01*
X-825Y4119D01*
X-815Y4117D01*
X-805Y4113D01*
X-796Y4113D01*
X-786Y4111D01*
X-776Y4113D01*
X-765Y4114D01*
X-757Y4117D01*
X-747Y4119D01*
X-741Y4123D01*
X-740Y4122D01*
X-735Y4119D01*
X-732Y4114D01*
X-719Y4108D01*
X-707Y4100D01*
X-702Y4099D01*
X-696Y4096D01*
X-682Y4095D01*
X-668Y4092D01*
X-662Y4093D01*
X-657Y4093D01*
X-643Y4097D01*
X-629Y4100D01*
X-624Y4103D01*
X-619Y4105D01*
X-608Y4114D01*
X-596Y4122D01*
X-524Y4093D01*
X-513Y4081D01*
X-509Y4070D01*
X-509Y4067D01*
X-509Y4041D01*
X-521Y4001D01*
X-534Y3973D01*
X-537Y3971D01*
X-540Y3968D01*
X-577Y3943D01*
X-621Y3877D01*
X-637Y3799D01*
X-621Y3721D01*
X-577Y3655D01*
X-511Y3611D01*
X-433Y3595D01*
X-400D01*
X-395Y3589D01*
X-384Y3585D01*
X-374Y3578D01*
X-366Y3577D01*
X-358Y3573D01*
X-347Y3573D01*
X-335Y3570D01*
X-327Y3572D01*
X-319Y3572D01*
X-308Y3576D01*
X-296Y3578D01*
X-289Y3583D01*
X-281Y3586D01*
X-280Y3587D01*
X-277Y3588D01*
X-269Y3590D01*
X-259Y3591D01*
X-259Y3591D01*
X-254Y3588D01*
X-246Y3586D01*
X-238Y3583D01*
X-227Y3583D01*
X-215Y3580D01*
X-207Y3582D01*
X-199Y3582D01*
X-188Y3586D01*
X-176Y3588D01*
X-169Y3593D01*
X-163Y3595D01*
X-20D01*
X58Y3611D01*
X125Y3655D01*
X169Y3721D01*
X183Y3730D01*
X221Y3720D01*
X264Y3641D01*
X249Y3563D01*
X264Y3485D01*
X309Y3419D01*
X375Y3375D01*
X453Y3359D01*
X455D01*
X475Y3340D01*
X467Y3295D01*
X444Y3259D01*
X382Y3259D01*
D01*
X354Y3261D01*
X277Y3269D01*
Y3269D01*
X180D01*
X176Y3270D01*
X172Y3269D01*
X-317D01*
Y2833D01*
X172D01*
X176Y2832D01*
X180Y2833D01*
X277D01*
Y2833D01*
X357Y2844D01*
X382Y2843D01*
Y2843D01*
X480D01*
X483Y2842D01*
X487Y2843D01*
X829D01*
X830Y2840D01*
X835Y2825D01*
X838Y2804D01*
X839Y2789D01*
Y2539D01*
Y1729D01*
X838Y1714D01*
X835Y1693D01*
X830Y1677D01*
X829Y1675D01*
X648D01*
Y0D01*
X-648D01*
Y2462D01*
X-829D01*
X-830Y2465D01*
X-835Y2480D01*
X-838Y2501D01*
X-839Y2516D01*
Y3207D01*
X-668D01*
Y3643D01*
X-982D01*
X-1000Y3661D01*
X-1035Y3723D01*
X-1030Y3749D01*
X-1025Y3757D01*
X-1018Y3764D01*
X-1014Y3773D01*
X-1009Y3781D01*
X-1007Y3791D01*
X-1003Y3801D01*
X-1003Y3811D01*
X-1001Y3820D01*
X-1003Y3830D01*
X-1003Y3841D01*
X-1007Y3850D01*
X-1009Y3859D01*
X-1013Y3865D01*
X-1012Y3866D01*
X-1009Y3871D01*
X-1004Y3875D01*
X-998Y3887D01*
X-990Y3899D01*
X-989Y3905D01*
X-986Y3910D01*
X-985Y3924D01*
X-982Y3938D01*
X-983Y3944D01*
X-983Y3950D01*
X-987Y3963D01*
X-990Y3977D01*
X-993Y3982D01*
X-995Y3987D01*
X-1004Y3998D01*
X-1012Y4010D01*
X-1017Y4013D01*
X-1020Y4018D01*
X-1027Y4091D01*
X-973Y4152D01*
X-905Y4150D01*
D02*
G37*
G36*
X1597Y3444D02*
X1609Y3438D01*
X1620Y3428D01*
X1629Y3414D01*
X1632Y3407D01*
X1655D01*
X1656Y3369D01*
X1660Y3305D01*
X1664Y3279D01*
X1669Y3257D01*
X1675Y3239D01*
X1683Y3225D01*
X1691Y3215D01*
X1701Y3209D01*
X1711Y3207D01*
X1399D01*
X1410Y3209D01*
X1419Y3215D01*
X1428Y3225D01*
X1435Y3239D01*
X1441Y3257D01*
X1446Y3279D01*
X1450Y3305D01*
X1451Y3320D01*
X1447Y3348D01*
X1441Y3374D01*
X1434Y3396D01*
X1424Y3414D01*
X1413Y3428D01*
X1400Y3438D01*
X1386Y3444D01*
X1369Y3446D01*
X1583D01*
X1597Y3444D01*
D02*
G37*
G36*
X178Y3165D02*
X184Y3162D01*
X194Y3159D01*
X208Y3157D01*
X226Y3155D01*
X303Y3152D01*
X483Y3158D01*
Y2944D01*
X481Y2945D01*
X475Y2947D01*
X465Y2948D01*
X433Y2949D01*
X332Y2951D01*
X184Y2940D01*
X178Y2937D01*
X176Y2934D01*
Y3168D01*
X178Y3165D01*
D02*
G37*
G36*
X-1485Y3001D02*
X-1484Y2985D01*
X-1435D01*
X-1445Y2984D01*
X-1453Y2981D01*
X-1461Y2976D01*
X-1467Y2968D01*
X-1473Y2959D01*
X-1477Y2948D01*
X-1479Y2944D01*
X-1478Y2944D01*
X-1475Y2932D01*
X-1472Y2921D01*
X-1468Y2911D01*
X-1463Y2902D01*
X-1457Y2895D01*
X-1485D01*
X-1485Y2883D01*
X-1585D01*
X-1586Y2895D01*
X-1613D01*
X-1608Y2902D01*
X-1603Y2911D01*
X-1599Y2921D01*
X-1596Y2932D01*
X-1592Y2944D01*
X-1592Y2944D01*
X-1593Y2948D01*
X-1598Y2959D01*
X-1603Y2968D01*
X-1610Y2976D01*
X-1617Y2981D01*
X-1626Y2984D01*
X-1635Y2985D01*
X-1587D01*
X-1586Y3001D01*
X-1585Y3018D01*
X-1485D01*
X-1485Y3001D01*
D02*
G37*
G36*
X-2626Y2982D02*
X-2635Y2979D01*
X-2642Y2974D01*
X-2649Y2967D01*
X-2654Y2958D01*
X-2659Y2947D01*
X-2662Y2934D01*
X-2665Y2919D01*
X-2666Y2902D01*
X-2667Y2883D01*
X-2767D01*
X-2767Y2902D01*
X-2769Y2919D01*
X-2771Y2934D01*
X-2775Y2947D01*
X-2779Y2958D01*
X-2785Y2967D01*
X-2791Y2974D01*
X-2799Y2979D01*
X-2807Y2982D01*
X-2817Y2983D01*
X-2617D01*
X-2626Y2982D01*
D02*
G37*
G36*
X1399Y2895D02*
X1398Y2894D01*
X1394Y2891D01*
X1376Y2880D01*
X1239Y2803D01*
X1217Y3049D01*
X1252Y3069D01*
X1333Y3123D01*
X1353Y3139D01*
X1370Y3155D01*
X1382Y3169D01*
X1392Y3183D01*
X1397Y3196D01*
X1399Y3207D01*
Y2895D01*
D02*
G37*
G36*
X1052Y2944D02*
X1069Y2942D01*
X1085Y2936D01*
X1099Y2926D01*
X1110Y2912D01*
X1120Y2894D01*
X1129Y2872D01*
X1135Y2846D01*
X1140Y2816D01*
X1142Y2782D01*
X1143Y2744D01*
X943D01*
X942Y2782D01*
X939Y2816D01*
X934Y2846D01*
X927Y2873D01*
X918Y2895D01*
X907Y2913D01*
X894Y2927D01*
X879Y2937D01*
X862Y2943D01*
X843Y2945D01*
X1052Y2944D01*
D02*
G37*
G36*
X2246Y2895D02*
X2302D01*
X2291Y2893D01*
X2282Y2887D01*
X2273Y2877D01*
X2266Y2863D01*
X2260Y2845D01*
X2255Y2823D01*
X2252Y2805D01*
X2252Y2800D01*
X2255Y2782D01*
X2259Y2767D01*
X2263Y2754D01*
X2267Y2744D01*
X2272Y2735D01*
X2247D01*
X2246Y2695D01*
X2046D01*
X2045Y2733D01*
X2045Y2735D01*
X2019D01*
X2024Y2744D01*
X2029Y2754D01*
X2033Y2767D01*
X2036Y2782D01*
X2039Y2800D01*
X2039Y2804D01*
X2037Y2823D01*
X2032Y2845D01*
X2025Y2863D01*
X2018Y2877D01*
X2010Y2887D01*
X2000Y2893D01*
X1989Y2895D01*
X2045D01*
X2046Y2923D01*
X2246D01*
X2246Y2895D01*
D02*
G37*
G36*
X-942Y2523D02*
X-939Y2489D01*
X-934Y2458D01*
X-927Y2432D01*
X-918Y2410D01*
X-907Y2392D01*
X-894Y2378D01*
X-879Y2368D01*
X-862Y2362D01*
X-843Y2360D01*
X-1243D01*
X-1224Y2362D01*
X-1207Y2368D01*
X-1192Y2378D01*
X-1179Y2392D01*
X-1168Y2410D01*
X-1159Y2432D01*
X-1152Y2458D01*
X-1147Y2489D01*
X-1144Y2523D01*
X-1143Y2561D01*
X-943D01*
X-942Y2523D01*
D02*
G37*
G36*
X1144Y1735D02*
X1147Y1701D01*
X1152Y1671D01*
X1159Y1645D01*
X1168Y1623D01*
X1179Y1605D01*
X1192Y1591D01*
X1207Y1580D01*
X1224Y1574D01*
X1243Y1572D01*
X843D01*
X862Y1574D01*
X879Y1580D01*
X894Y1591D01*
X907Y1605D01*
X918Y1623D01*
X927Y1645D01*
X934Y1671D01*
X939Y1701D01*
X942Y1735D01*
X943Y1774D01*
X1143D01*
X1144Y1735D01*
D02*
G37*
G36*
X-1114Y1110D02*
X-1120Y1114D01*
X-1129Y1118D01*
X-1142Y1121D01*
X-1159Y1124D01*
X-1202Y1128D01*
X-1293Y1131D01*
X-1330Y1131D01*
Y1231D01*
X-1293Y1231D01*
X-1142Y1241D01*
X-1129Y1244D01*
X-1120Y1248D01*
X-1114Y1252D01*
Y1110D01*
D02*
G37*
G36*
X-1336Y1081D02*
X-1337Y1091D01*
X-1340Y1099D01*
X-1345Y1107D01*
X-1352Y1113D01*
X-1361Y1119D01*
X-1373Y1123D01*
X-1386Y1127D01*
X-1401Y1129D01*
X-1418Y1131D01*
X-1437Y1131D01*
Y1231D01*
X-1418Y1232D01*
X-1401Y1233D01*
X-1386Y1236D01*
X-1373Y1239D01*
X-1361Y1244D01*
X-1352Y1249D01*
X-1345Y1256D01*
X-1340Y1263D01*
X-1337Y1272D01*
X-1336Y1281D01*
Y1081D01*
D02*
G37*
%LPC*%
G36*
X-148Y15709D02*
X-364D01*
X-346Y15697D01*
X-276Y15683D01*
X-256Y15687D01*
X-236Y15683D01*
X-166Y15697D01*
X-148Y15709D01*
D02*
G37*
%LPD*%
D12*
X371Y15157D02*
G03*
X394Y15181I0J23D01*
G01*
X630Y14961D02*
G03*
X433Y15157I-197J0D01*
G01*
X371D02*
G03*
X276Y15118I0J-134D01*
G01*
D02*
G03*
X236Y15023I95J-95D01*
G01*
X-394Y15003D02*
G03*
X-492Y15102I-98J0D01*
G01*
X1181Y15433D02*
G03*
X984Y15630I-197J0D01*
G01*
X1102Y13780D02*
G03*
X984Y13494I285J-285D01*
G01*
X394Y15630D02*
G03*
X167Y15403I0J-227D01*
G01*
X118Y15197D02*
G03*
X167Y15315I-118J118D01*
G01*
X118Y15197D02*
G03*
X79Y15102I95J-95D01*
G01*
X1102Y13780D02*
G03*
X1181Y13970I-190J190D01*
G01*
X-177Y14134D02*
G03*
X-236Y13991I143J-142D01*
G01*
X-591Y13917D02*
G03*
X-255Y14056I0J475D01*
G01*
X394Y13647D02*
G03*
X453Y13504I202J0D01*
G01*
X689Y12953D02*
G03*
X466Y13490I-760J0D01*
G01*
X394Y13235D02*
G03*
X315Y13425I-269J0D01*
G01*
X236Y13615D02*
G03*
X315Y13425I269J0D01*
G01*
X79Y13000D02*
G03*
X98Y12953I67J0D01*
G01*
X371Y15157D02*
X433D01*
X236Y14902D02*
Y15023D01*
X-394Y14902D02*
Y15003D01*
X-635Y15102D02*
X-492D01*
X1280Y12953D02*
Y13494D01*
X1181Y13970D02*
Y15433D01*
X394Y15630D02*
X984D01*
X984Y12953D02*
Y13494D01*
X167Y15315D02*
Y15403D01*
X79Y14902D02*
Y15102D01*
X394Y15181D02*
Y15394D01*
X-827Y14705D02*
X-591D01*
X-1181D02*
X-827D01*
X-591Y14705D02*
Y14705D01*
X-177Y14134D02*
X0Y14311D01*
X-255Y14057D02*
X-177Y14134D01*
X-236Y13720D02*
Y13991D01*
X-79Y14902D02*
Y15394D01*
X453Y13504D02*
X466Y13490D01*
X394Y13647D02*
Y13720D01*
X394Y12953D02*
Y13235D01*
X236Y13615D02*
Y13720D01*
X79Y13000D02*
Y13720D01*
D13*
X-787Y13130D02*
G03*
X-1378Y13720I-591J0D01*
G01*
X-1772Y14114D02*
G03*
X-1378Y13720I394J0D01*
G01*
X-1772Y14839D02*
G03*
X-2165Y15232I-394J0D01*
G01*
X-492Y13100D02*
G03*
X-1280Y13887I-787J0D01*
G01*
X-1535Y14143D02*
G03*
X-1280Y13887I256J0D01*
G01*
X-1535Y15602D02*
G03*
X-2165Y16232I-630J0D01*
G01*
X-736Y15866D02*
G03*
X-500Y16436I-570J570D01*
G01*
X2224Y4577D02*
G03*
X2348Y4628I0J175D01*
G01*
X1634Y13701D02*
G03*
X1693Y13843I-143J143D01*
G01*
X1634Y13701D02*
G03*
X1575Y13558I143J-143D01*
G01*
X1693Y15354D02*
G03*
X1102Y15945I-591J0D01*
G01*
X500Y16114D02*
G03*
X669Y15945I169J0D01*
G01*
X1870Y16490D02*
G03*
X1471Y16890I-400J0D01*
G01*
X2579Y7402D02*
G03*
X2421Y7559I-157J0D01*
G01*
X1280Y8780D02*
G03*
X1437Y8622I157J0D01*
G01*
X1850Y7717D02*
G03*
X2008Y7559I157J0D01*
G01*
X1850Y8465D02*
G03*
X1693Y8622I-157J0D01*
G01*
X1339Y6007D02*
G03*
X1299Y6102I-134J0D01*
G01*
X1260Y6197D02*
G03*
X1299Y6102I134J0D01*
G01*
X-49Y5742D02*
G03*
X79Y5433I437J0D01*
G01*
X-187Y5168D02*
G03*
X-305Y4882I286J-286D01*
G01*
X98Y8918D02*
G03*
X391Y8211I1000J0D01*
G01*
X591Y7733D02*
G03*
X394Y8209I-672J0D01*
G01*
X302Y6850D02*
G03*
X591Y7139I0J289D01*
G01*
X167Y6850D02*
G03*
X-118Y6732I0J-403D01*
G01*
X-403Y6614D02*
G03*
X-118Y6732I0J403D01*
G01*
X-1850Y6614D02*
G03*
X-2303Y6161I0J-453D01*
G01*
X1634Y6535D02*
G03*
X1476Y6693I-157J0D01*
G01*
X1043D02*
G03*
X886Y6535I0J-157D01*
G01*
X1024Y5873D02*
G03*
X945Y6063I-269J0D01*
G01*
X886Y6206D02*
G03*
X945Y6063I202J0D01*
G01*
X-458Y5984D02*
G03*
X-600Y5925I0J-202D01*
G01*
X-743Y5866D02*
G03*
X-600Y5925I0J202D01*
G01*
X-1535Y3566D02*
G03*
X-1575Y3661I-134J0D01*
G01*
X-1624Y3780D02*
G03*
X-1575Y3661I168J0D01*
G01*
X-2677D02*
G03*
X-2628Y3780I-119J119D01*
G01*
X-2677Y3661D02*
G03*
X-2717Y3566I95J-95D01*
G01*
X-2628Y4705D02*
G03*
X-2303Y5030I0J325D01*
G01*
X-2717Y1489D02*
G03*
X-2408Y1181I308J0D01*
G01*
X-787Y12953D02*
Y13130D01*
X-1772Y14114D02*
Y14839D01*
X-492Y12953D02*
Y13100D01*
X-1535Y14143D02*
Y15602D01*
X-776Y15866D02*
X-742Y15900D01*
X-1378Y12953D02*
Y13494D01*
X-500Y16436D02*
Y16890D01*
X2348Y4628D02*
X2348Y4628D01*
X2480Y4760D01*
X2165Y12953D02*
Y13504D01*
X-1673Y12953D02*
Y13504D01*
X1693Y13843D02*
Y15354D01*
X1575Y12953D02*
Y13558D01*
X669Y15945D02*
X1102D01*
X500Y16114D02*
Y16890D01*
X1870Y12953D02*
Y16490D01*
X1000Y16890D02*
X1471D01*
X2579Y7205D02*
Y7402D01*
X2008Y7559D02*
X2421D01*
X1437Y8622D02*
X1693D01*
X1280Y8780D02*
Y9094D01*
X1850Y7717D02*
Y8465D01*
X-1181Y14134D02*
Y14390D01*
X709Y15394D02*
X965D01*
X-650D02*
X-394D01*
X1260Y6197D02*
Y6368D01*
X1339Y5866D02*
Y6007D01*
X-49Y5742D02*
Y5984D01*
X-118Y5236D02*
X79Y5433D01*
X-187Y5168D02*
X-118Y5236D01*
X391Y8211D02*
X394Y8209D01*
X98Y8918D02*
Y9094D01*
X591Y7139D02*
Y7733D01*
X167Y6850D02*
X302D01*
X-1850Y6614D02*
X-403D01*
X-2303Y5709D02*
Y6161D01*
X1969Y6260D02*
X2224D01*
X1969Y6732D02*
X2224D01*
X1043Y6693D02*
X1476D01*
X1634Y6368D02*
Y6535D01*
X886Y6368D02*
Y6535D01*
X1024Y5866D02*
Y5873D01*
X886Y6206D02*
Y6368D01*
X-1969Y4331D02*
X-1624D01*
X1969Y7205D02*
X2224D01*
X2756Y7756D02*
Y8012D01*
X2579Y7205D02*
X2579Y7205D01*
X2579Y6732D02*
Y7205D01*
X1339Y5866D02*
X1594D01*
X2224Y6260D02*
X2224Y6260D01*
Y5787D02*
Y6260D01*
X-458Y5984D02*
X-305D01*
X-906Y5866D02*
X-743D01*
X-2303Y5236D02*
Y5709D01*
X-1624Y3780D02*
Y3957D01*
X-1535Y3445D02*
Y3566D01*
X-2628Y4331D02*
X-2283D01*
X-2717Y3445D02*
Y3566D01*
X-2628Y3780D02*
Y3957D01*
X-2303Y5030D02*
Y5236D01*
X2579Y6260D02*
X2835D01*
X2618Y8602D02*
X2874D01*
X1024Y5197D02*
Y5453D01*
X2756Y3967D02*
Y4222D01*
X-846Y4291D02*
X-591D01*
X-1181Y5020D02*
Y5276D01*
X-1949Y5709D02*
X-1693D01*
X-906Y5256D02*
Y5512D01*
X-1181Y3760D02*
Y4016D01*
X-1535Y2835D02*
Y3091D01*
X-1969Y3445D02*
X-1535D01*
X-2717D02*
X-2283D01*
X-2717Y1489D02*
Y3091D01*
X-2408Y1181D02*
X-1043D01*
D14*
X-1535Y3445D02*
D03*
Y3091D02*
D03*
X2756Y3967D02*
D03*
Y3612D02*
D03*
X-906Y5512D02*
D03*
Y5866D02*
D03*
X-2717Y3091D02*
D03*
Y3445D02*
D03*
D15*
X866Y4154D02*
D03*
Y3563D02*
D03*
X236Y7815D02*
D03*
Y7224D02*
D03*
D16*
X886Y6368D02*
D03*
X1260D02*
D03*
X1634D02*
D03*
Y7333D02*
D03*
X886D02*
D03*
X2224Y4577D02*
D03*
X1850D02*
D03*
X1476D02*
D03*
Y3612D02*
D03*
X2224D02*
D03*
D17*
X965Y7835D02*
D03*
X1555D02*
D03*
Y5118D02*
D03*
X2146D02*
D03*
X1555Y3051D02*
D03*
X2146D02*
D03*
X2165Y8012D02*
D03*
X2756D02*
D03*
D18*
X1024Y5866D02*
D03*
X1339D02*
D03*
X-591Y4291D02*
D03*
X-276D02*
D03*
X-2283Y3445D02*
D03*
X-1969D02*
D03*
X394Y15394D02*
D03*
X709D02*
D03*
X-79D02*
D03*
X-394D02*
D03*
X2618Y8602D02*
D03*
X2303D02*
D03*
D19*
X79Y5433D02*
D03*
D20*
X463Y4882D02*
D03*
X207D02*
D03*
X-49D02*
D03*
X-305D02*
D03*
Y5984D02*
D03*
X-49D02*
D03*
X207D02*
D03*
X463D02*
D03*
D21*
X-2628Y4705D02*
D03*
Y4331D02*
D03*
Y3957D02*
D03*
X-1624D02*
D03*
Y4331D02*
D03*
Y4705D02*
D03*
D22*
X-1043Y1181D02*
D03*
D23*
X1043Y787D02*
D03*
D24*
X-1181Y4705D02*
D03*
Y5020D02*
D03*
Y4016D02*
D03*
Y4331D02*
D03*
X1024Y5197D02*
D03*
Y4882D02*
D03*
X-1181Y14705D02*
D03*
Y14390D02*
D03*
D25*
X2579Y5787D02*
D03*
X2224D02*
D03*
X2579Y7205D02*
D03*
X2224D02*
D03*
X-1949Y5236D02*
D03*
X-2303D02*
D03*
X-1949Y5709D02*
D03*
X-2303D02*
D03*
X591Y3051D02*
D03*
X945D02*
D03*
X2224Y6260D02*
D03*
X2579D02*
D03*
X2224Y6732D02*
D03*
X2579D02*
D03*
D26*
X500Y16890D02*
D03*
X1000D02*
D03*
X-1000D02*
D03*
X-500D02*
D03*
X0D02*
D03*
D27*
X591Y13917D02*
D03*
Y14075D02*
D03*
Y14232D02*
D03*
Y14390D02*
D03*
Y14547D02*
D03*
Y14705D02*
D03*
X-591D02*
D03*
Y14547D02*
D03*
Y14390D02*
D03*
Y14232D02*
D03*
Y14075D02*
D03*
Y13917D02*
D03*
D28*
X394Y14902D02*
D03*
X236D02*
D03*
X79D02*
D03*
X-79D02*
D03*
X-236D02*
D03*
X-394D02*
D03*
Y13720D02*
D03*
X-236D02*
D03*
X-79D02*
D03*
X79D02*
D03*
X236D02*
D03*
X394D02*
D03*
D29*
X0Y14311D02*
D03*
D30*
X-787Y9094D02*
D03*
X1280D02*
D03*
X689D02*
D03*
X984D02*
D03*
X-492D02*
D03*
X98D02*
D03*
X-197D02*
D03*
X394D02*
D03*
X-1083Y12953D02*
D03*
X-1673D02*
D03*
X-1378D02*
D03*
X-1968D02*
D03*
X394D02*
D03*
X-197D02*
D03*
X98D02*
D03*
X-787D02*
D03*
X-492D02*
D03*
X984D02*
D03*
X689D02*
D03*
X1575D02*
D03*
X1280D02*
D03*
X1870D02*
D03*
X2165D02*
D03*
X2461D02*
D03*
D31*
X2638Y11614D02*
D03*
Y11319D02*
D03*
Y9547D02*
D03*
Y9843D02*
D03*
Y10138D02*
D03*
Y10433D02*
D03*
Y10728D02*
D03*
Y11024D02*
D03*
D32*
X-20Y3051D02*
D03*
Y3799D02*
D03*
X-965Y3425D02*
D03*
D57*
X2303Y8904D02*
G03*
X2224Y9094I-269J0D01*
G01*
X2406Y9843D02*
G03*
X2146Y9582I0J-261D01*
G01*
Y9285D02*
G03*
X2224Y9094I269J0D01*
G01*
Y8346D02*
G03*
X2165Y8204I143J-143D01*
G01*
X1506Y4823D02*
G03*
X1476Y4752I71J-71D01*
G01*
X-236Y15866D02*
G03*
X0Y16436I-570J570D01*
G01*
X2539Y13504D02*
G03*
X2461Y13314I190J-190D01*
G01*
X-1968D02*
G03*
X-2047Y13504I-269J0D01*
G01*
X2104Y5017D02*
G03*
X2146Y5118I-101J101D01*
G01*
X1969Y4882D02*
G03*
X1850Y4597I285J-285D01*
G01*
X-709Y9646D02*
G03*
X-787Y9456I190J-190D01*
G01*
X886Y7333D02*
G03*
X965Y7523I-190J190D01*
G01*
X2835Y5170D02*
G03*
X2579Y5787I-874J0D01*
G01*
X2527Y4348D02*
G03*
X2835Y5090I-742J742D01*
G01*
X1820Y4055D02*
G03*
X2527Y4348I0J1000D01*
G01*
X1476Y3680D02*
G03*
X1403Y4055I-1000J0D01*
G01*
X1024Y4773D02*
G03*
X1183Y4387I546J0D01*
G01*
X1403Y4055D02*
G03*
X1183Y4387I-927J-375D01*
G01*
X1506Y4823D02*
G03*
X1555Y4942I-119J119D01*
G01*
X2224Y8346D02*
G03*
X2303Y8537I-190J190D01*
G01*
X2406Y9843D02*
X2638D01*
X2303Y8602D02*
Y8904D01*
X2146Y9285D02*
Y9582D01*
X2165Y8012D02*
Y8204D01*
X1476Y4577D02*
Y4752D01*
X-276Y15866D02*
X-242Y15900D01*
X0Y16436D02*
Y16890D01*
X2461Y12953D02*
Y13314D01*
X-1968Y12953D02*
Y13314D01*
X-1457Y16890D02*
X-1000D01*
X2104Y5017D02*
X2104Y5017D01*
X1969Y4882D02*
X2104Y5017D01*
X1850Y4577D02*
Y4597D01*
X-787Y9094D02*
Y9456D01*
X965Y7523D02*
Y7835D01*
X2835Y5090D02*
Y5170D01*
X2527Y4348D02*
X2527Y4348D01*
X1403Y4055D02*
X1820D01*
X1476Y3612D02*
Y3680D01*
X1398Y4055D02*
X1403D01*
X1024Y4773D02*
Y4882D01*
X2146Y5118D02*
X2480D01*
X1555D02*
Y5453D01*
Y4942D02*
Y5118D01*
X2303Y8537D02*
Y8602D01*
X1555Y7835D02*
Y8209D01*
X965Y7835D02*
Y8209D01*
X630Y6368D02*
X886D01*
D58*
X-630Y7913D02*
G03*
X-392Y7815I238J238D01*
G01*
X-392Y7224D02*
G03*
X-630Y7126I0J-336D01*
G01*
X1555Y3533D02*
G03*
X1476Y3612I-79J0D01*
G01*
X1555Y3051D02*
G03*
X1043Y2539I0J-512D01*
G01*
Y2953D02*
G03*
X945Y3051I-98J0D01*
G01*
X-965Y3425D02*
G03*
X-1043Y3235I190J-190D01*
G01*
X-392Y7815D02*
X236D01*
X-392Y7224D02*
X236D01*
X1555Y3051D02*
Y3533D01*
X1043Y2539D02*
Y2953D01*
Y787D02*
Y2539D01*
X2146Y2638D02*
Y3051D01*
X453Y3563D02*
X866D01*
X-433Y3799D02*
X-20D01*
Y3051D02*
X591D01*
X-1043Y1181D02*
Y3235D01*
D59*
X2348Y4628D02*
D03*
D60*
X236Y6531D02*
G03*
X316Y6337I274J0D01*
G01*
X463Y5984D02*
G03*
X316Y6337I-499J0D01*
G01*
X207Y5984D02*
G03*
X102Y6236I-356J0D01*
G01*
X-1949Y5030D02*
G03*
X-1624Y4705I325J0D01*
G01*
X236Y6531D02*
Y6575D01*
X394Y9094D02*
Y9636D01*
X984Y9094D02*
Y9636D01*
X689Y9094D02*
Y9636D01*
X39Y6299D02*
X102Y6236D01*
X463Y4882D02*
X1024D01*
X-1624Y4705D02*
X-1181D01*
X-1624Y4331D02*
X-1181D01*
X-1949Y5030D02*
Y5236D01*
X2224Y3612D02*
X2756D01*
D61*
X2638Y9547D02*
G03*
X2618Y9528I0J-20D01*
G01*
Y8602D02*
Y9528D01*
D62*
X2104Y5017D02*
D03*
D63*
X-177Y14134D02*
D03*
D64*
X-2165Y14232D02*
D03*
Y15232D02*
D03*
D65*
Y16232D02*
D03*
D66*
X-630Y7913D02*
D03*
D67*
Y7126D02*
D03*
D68*
X-1378Y13494D02*
D03*
X-635Y15102D02*
D03*
X1280Y13494D02*
D03*
X2165Y13504D02*
D03*
X-1673D02*
D03*
D69*
X-736Y15866D02*
D03*
X394Y9636D02*
D03*
X984D02*
D03*
X689D02*
D03*
D70*
X-1457Y17331D02*
D03*
X236Y15866D02*
D03*
X-1457Y16417D02*
D03*
X-236Y15866D02*
D03*
X2539Y13504D02*
D03*
X-2047D02*
D03*
X-1457Y16890D02*
D03*
X-709Y9646D02*
D03*
X2224Y9094D02*
D03*
X2480Y5118D02*
D03*
X1555Y5453D02*
D03*
Y8209D02*
D03*
X965D02*
D03*
X630Y6368D02*
D03*
D71*
X-118Y4154D02*
D03*
Y4567D02*
D03*
X512Y4244D02*
D03*
X391Y3977D02*
D03*
X221Y4291D02*
D03*
Y4567D02*
D03*
X630Y14961D02*
D03*
X-827Y14705D02*
D03*
X-1181Y14134D02*
D03*
X965Y15394D02*
D03*
X-650D02*
D03*
X2480Y4760D02*
D03*
X1969Y6260D02*
D03*
X1969Y6732D02*
D03*
X236Y6575D02*
D03*
X39Y6299D02*
D03*
X-1969Y4331D02*
D03*
X1969Y7205D02*
D03*
X2756Y7756D02*
D03*
X1594Y5866D02*
D03*
X-118Y5630D02*
D03*
Y5236D02*
D03*
X276Y5630D02*
D03*
Y5236D02*
D03*
X79Y5433D02*
D03*
X-2283Y4331D02*
D03*
X2835Y6260D02*
D03*
X2874Y8602D02*
D03*
X1024Y5453D02*
D03*
X2756Y4222D02*
D03*
X-846Y4291D02*
D03*
X-1181Y5276D02*
D03*
X-1693Y5709D02*
D03*
X-906Y5256D02*
D03*
X-1181Y3760D02*
D03*
X-1535Y2835D02*
D03*
D72*
X2146Y2638D02*
D03*
X453Y3563D02*
D03*
X-433Y3799D02*
D03*
D73*
X157Y14114D02*
D03*
X-157Y14508D02*
D03*
X157D02*
D03*
X-157Y14114D02*
D03*
X0Y14311D02*
D03*
M02*
