G04*
G04 #@! TF.GenerationSoftware,Altium Limited,Altium Designer,21.0.8 (223)*
G04*
G04 Layer_Physical_Order=4*
G04 Layer_Color=16711680*
%FSLAX24Y24*%
%MOIN*%
G70*
G04*
G04 #@! TF.SameCoordinates,0C60853F-5807-4D95-8285-97C70BD38C20*
G04*
G04*
G04 #@! TF.FilePolarity,Positive*
G04*
G01*
G75*
%ADD14C,0.0080*%
%ADD15C,0.0100*%
%ADD17C,0.0295*%
%ADD34R,0.0236X0.1575*%
%ADD63C,0.0160*%
%ADD65C,0.0200*%
%ADD69C,0.0120*%
%ADD70C,0.0472*%
%ADD71R,0.0472X0.0472*%
%ADD72R,0.0492X0.0492*%
%ADD73C,0.0492*%
%ADD74C,0.0200*%
%ADD75C,0.0197*%
%ADD76C,0.0260*%
%ADD77C,0.0320*%
%ADD78C,0.0157*%
%ADD79C,0.0220*%
G36*
X282Y16908D02*
X202Y16900D01*
X197Y16925D01*
Y16113D01*
X206Y16096D01*
X250Y16024D01*
X282D01*
Y16002D01*
X341D01*
X343Y15992D01*
X347Y15941D01*
Y15787D01*
X346D01*
X344Y15783D01*
X339Y15781D01*
Y15779D01*
X-433D01*
Y15922D01*
X-408D01*
X-398Y15924D01*
X-388D01*
X-378Y15927D01*
X-369Y15929D01*
X-360Y15935D01*
X-351Y15939D01*
X-344Y15946D01*
X-336Y15952D01*
X-333Y15956D01*
X-282Y15990D01*
X-276Y15991D01*
X-268Y15996D01*
X-258Y16000D01*
X-251Y16007D01*
X-243Y16013D01*
X-237Y16021D01*
X-235Y16024D01*
X-197D01*
Y17065D01*
X-213Y17075D01*
Y17677D01*
X-139Y17717D01*
X282D01*
Y16908D01*
D02*
G37*
G36*
X-315Y16085D02*
X-326Y16083D01*
X-402Y16032D01*
X-408Y16024D01*
X-594D01*
X-654Y16064D01*
X-736Y16080D01*
X-818Y16064D01*
X-879Y16024D01*
X-1732D01*
Y16840D01*
X-1682Y16845D01*
X-1673Y16800D01*
X-1623Y16724D01*
X-1546Y16673D01*
X-1457Y16655D01*
X-1367Y16673D01*
X-1291Y16724D01*
X-1240Y16800D01*
X-1222Y16890D01*
X-1240Y16980D01*
X-1291Y17056D01*
X-1367Y17106D01*
X-1457Y17124D01*
X-1546Y17106D01*
X-1623Y17056D01*
X-1673Y16980D01*
X-1682Y16935D01*
X-1732Y16940D01*
Y17677D01*
X-315D01*
Y16085D01*
D02*
G37*
G36*
X1092Y16104D02*
X1085Y16101D01*
X1079Y16096D01*
X1074Y16089D01*
X1070Y16080D01*
X1066Y16069D01*
X1064Y16055D01*
X1062Y16040D01*
X1060Y16023D01*
X1060Y16004D01*
X940D01*
X940Y16023D01*
X936Y16055D01*
X934Y16069D01*
X930Y16080D01*
X926Y16089D01*
X921Y16096D01*
X915Y16101D01*
X908Y16104D01*
X901Y16105D01*
X1099D01*
X1092Y16104D01*
D02*
G37*
G36*
X604Y16102D02*
X593Y16096D01*
X583Y16086D01*
X574Y16072D01*
X567Y16054D01*
X561Y16032D01*
X556Y16006D01*
X553Y15976D01*
X550Y15904D01*
X450D01*
X449Y15942D01*
X444Y16006D01*
X439Y16032D01*
X433Y16054D01*
X426Y16072D01*
X417Y16086D01*
X407Y16096D01*
X396Y16102D01*
X383Y16104D01*
X617D01*
X604Y16102D01*
D02*
G37*
G36*
X-827Y15804D02*
X-829Y15806D01*
X-833Y15808D01*
X-837Y15810D01*
X-843Y15812D01*
X-849Y15813D01*
X-857Y15814D01*
X-876Y15816D01*
X-899Y15816D01*
Y15916D01*
X-887Y15916D01*
X-849Y15919D01*
X-843Y15920D01*
X-837Y15922D01*
X-833Y15924D01*
X-829Y15926D01*
X-827Y15928D01*
Y15804D01*
D02*
G37*
G36*
X-536Y15084D02*
X-536Y15076D01*
X-535Y15068D01*
X-534Y15060D01*
X-532Y15052D01*
X-529Y15043D01*
X-526Y15035D01*
X-522Y15026D01*
X-512Y15008D01*
X-575Y14955D01*
X-580Y14963D01*
X-585Y14971D01*
X-591Y14978D01*
X-597Y14983D01*
X-604Y14989D01*
X-611Y14993D01*
X-618Y14996D01*
X-626Y14999D01*
X-634Y15001D01*
X-643Y15002D01*
X-535Y15092D01*
X-536Y15084D01*
D02*
G37*
G36*
X1959Y13704D02*
X1953Y13702D01*
X1948Y13700D01*
X1943Y13697D01*
X1939Y13693D01*
X1935Y13688D01*
X1931Y13682D01*
X1928Y13675D01*
X1926Y13667D01*
X1923Y13658D01*
X1922Y13648D01*
X1833Y13709D01*
X1836Y13720D01*
X1849Y13775D01*
X1849Y13778D01*
X1959Y13704D01*
D02*
G37*
G36*
X2225Y13633D02*
X2228Y13597D01*
X2229Y13591D01*
X2230Y13586D01*
X2232Y13581D01*
X2233Y13578D01*
X2235Y13575D01*
X2095D01*
X2097Y13578D01*
X2099Y13581D01*
X2100Y13586D01*
X2102Y13591D01*
X2103Y13597D01*
X2104Y13613D01*
X2105Y13633D01*
X2105Y13644D01*
X2225D01*
X2225Y13633D01*
D02*
G37*
G36*
X-1328Y13630D02*
X-1326Y13611D01*
X-1325Y13602D01*
X-1323Y13594D01*
X-1321Y13587D01*
X-1318Y13581D01*
X-1315Y13575D01*
X-1312Y13570D01*
X-1308Y13566D01*
X-1448D01*
X-1444Y13570D01*
X-1441Y13575D01*
X-1438Y13581D01*
X-1435Y13587D01*
X-1433Y13594D01*
X-1431Y13602D01*
X-1430Y13611D01*
X-1429Y13620D01*
X-1428Y13641D01*
X-1328D01*
X-1328Y13630D01*
D02*
G37*
G36*
X1208Y13424D02*
X1202Y13430D01*
X1196Y13435D01*
X1189Y13440D01*
X1181Y13444D01*
X1173Y13447D01*
X1165Y13450D01*
X1156Y13452D01*
X1147Y13453D01*
X1138Y13454D01*
X1128Y13454D01*
Y13534D01*
X1138Y13535D01*
X1147Y13536D01*
X1156Y13537D01*
X1165Y13539D01*
X1173Y13542D01*
X1181Y13545D01*
X1189Y13549D01*
X1196Y13554D01*
X1202Y13559D01*
X1208Y13564D01*
Y13424D01*
D02*
G37*
G36*
X3150Y0D02*
X-3150D01*
X-3150Y7536D01*
X-955D01*
X-916Y7544D01*
X-883Y7566D01*
X-882Y7567D01*
X-303D01*
X-284Y7567D01*
X-223Y7521D01*
Y6539D01*
X-224D01*
X-207Y6409D01*
X-183Y6350D01*
X-183Y6347D01*
X-179Y6340D01*
X-178Y6333D01*
X-163Y6300D01*
X-163Y6299D01*
X-148Y6222D01*
X-104Y6156D01*
X-38Y6112D01*
X16Y6102D01*
X37Y6088D01*
X43Y6084D01*
X69Y6063D01*
X235Y5974D01*
X416Y5919D01*
X604Y5901D01*
Y5902D01*
X1217D01*
Y5901D01*
X1362Y5920D01*
X1497Y5976D01*
X1613Y6065D01*
X1613D01*
X1680Y6096D01*
X1686Y6097D01*
X1686Y6097D01*
X1856D01*
X1891Y6073D01*
X1969Y6058D01*
X1980Y6060D01*
X2042Y6009D01*
Y5036D01*
X2041D01*
X2056Y4922D01*
X2100Y4816D01*
X2170Y4725D01*
X2261Y4655D01*
X2287Y4644D01*
X2288Y4643D01*
X2294Y4641D01*
X2300Y4637D01*
X2334Y4622D01*
X2337Y4617D01*
X2403Y4573D01*
X2480Y4558D01*
X2558Y4573D01*
X2623Y4617D01*
X2667Y4683D01*
X2683Y4760D01*
X2667Y4837D01*
X2623Y4903D01*
X2558Y4947D01*
X2480Y4962D01*
X2444Y4955D01*
X2372Y5011D01*
X2368Y5035D01*
X2368Y5036D01*
Y7835D01*
X2369D01*
X2353Y7997D01*
X2305Y8154D01*
X2228Y8298D01*
X2125Y8424D01*
X1998Y8528D01*
X1854Y8605D01*
X1698Y8652D01*
X1535Y8668D01*
Y8668D01*
X1459Y8676D01*
X1435Y8679D01*
X1341Y8718D01*
X1260Y8780D01*
X1198Y8860D01*
X1159Y8954D01*
X1147Y9051D01*
X1147Y9055D01*
Y9502D01*
X1182Y9554D01*
X1198Y9636D01*
X1182Y9718D01*
X1136Y9788D01*
X1066Y9834D01*
X984Y9850D01*
X902Y9834D01*
X837Y9790D01*
X771Y9834D01*
X689Y9850D01*
X607Y9834D01*
X541Y9790D01*
X476Y9834D01*
X394Y9850D01*
X312Y9834D01*
X242Y9788D01*
X239Y9782D01*
X209Y9770D01*
X200Y9767D01*
X193Y9763D01*
X158Y9752D01*
X51Y9695D01*
X-42Y9619D01*
X-119Y9525D01*
X-176Y9418D01*
X-211Y9303D01*
X-223Y9184D01*
X-223Y9182D01*
Y8306D01*
X-284Y8259D01*
X-303Y8259D01*
X-853D01*
Y12631D01*
X-853Y12631D01*
Y12638D01*
X-861Y12677D01*
X-883Y12710D01*
X-916Y12732D01*
X-955Y12740D01*
X-2894Y12740D01*
X-2898Y12739D01*
X-3149Y12740D01*
X-3150Y12815D01*
X-3150Y17717D01*
X-1908D01*
X-1834Y17677D01*
Y16940D01*
X-1831Y16925D01*
X-1830Y16910D01*
X-1827Y16905D01*
X-1826Y16901D01*
X-1819Y16890D01*
X-1826Y16879D01*
X-1827Y16874D01*
X-1830Y16870D01*
X-1831Y16855D01*
X-1834Y16840D01*
Y16569D01*
X-2502D01*
Y15896D01*
X-1829D01*
Y15896D01*
X-1749Y15925D01*
X-1732Y15922D01*
X-1446D01*
X-1385Y15842D01*
X-1389Y15818D01*
X-1517Y15662D01*
X-1612Y15485D01*
X-1671Y15292D01*
X-1690Y15091D01*
X-1688D01*
Y14166D01*
X-1689D01*
X-1675Y14057D01*
X-1632Y13955D01*
X-1565Y13868D01*
Y13868D01*
X-1534Y13801D01*
X-1531Y13787D01*
X-1531Y13786D01*
Y13738D01*
X-1611Y13695D01*
X-1673Y13708D01*
X-1751Y13692D01*
X-1817Y13648D01*
X-1862Y13582D01*
X-1877Y13504D01*
X-1862Y13426D01*
X-1825Y13371D01*
X-1812Y13270D01*
X-1767Y13161D01*
X-1696Y13068D01*
X-1602Y12997D01*
X-1494Y12952D01*
X-1378Y12937D01*
Y12938D01*
X-1235D01*
Y12936D01*
X-1110Y12953D01*
X-993Y13001D01*
X-893Y13078D01*
X-816Y13178D01*
X-768Y13295D01*
X-751Y13420D01*
X-753D01*
Y14183D01*
X-751D01*
X-770Y14328D01*
X-810Y14424D01*
X-775Y14506D01*
X-765Y14515D01*
X-749Y14518D01*
X-695Y14554D01*
X-649Y14541D01*
X-615Y14520D01*
Y13907D01*
X-617D01*
X-598Y13763D01*
X-543Y13628D01*
X-454Y13513D01*
X-339Y13424D01*
X-204Y13369D01*
X-60Y13350D01*
Y13352D01*
X1134D01*
X1135Y13350D01*
X1202Y13306D01*
X1280Y13291D01*
X1358Y13306D01*
X1424Y13350D01*
X1468Y13416D01*
X1483Y13494D01*
X1468Y13572D01*
X1424Y13639D01*
X1358Y13683D01*
X1280Y13698D01*
X1202Y13683D01*
X1135Y13639D01*
X1134Y13637D01*
X-60D01*
X-60Y13637D01*
X-130Y13646D01*
X-195Y13673D01*
X-251Y13716D01*
X-294Y13772D01*
X-321Y13837D01*
X-330Y13907D01*
X-330Y13907D01*
Y14710D01*
X-329D01*
X-342Y14846D01*
X-382Y14977D01*
X-420Y15047D01*
X-422Y15055D01*
X-430Y15070D01*
X-431Y15073D01*
X-432Y15076D01*
X-433Y15078D01*
X-434Y15080D01*
X-434Y15082D01*
X-434Y15082D01*
X-434Y15086D01*
X-434Y15087D01*
X-431Y15102D01*
X-446Y15180D01*
X-491Y15246D01*
X-557Y15290D01*
X-635Y15306D01*
X-713Y15290D01*
X-779Y15246D01*
X-823Y15180D01*
X-839Y15102D01*
X-823Y15024D01*
X-796Y14982D01*
X-814Y14938D01*
X-834Y14906D01*
X-904Y14892D01*
X-948Y14862D01*
X-1019Y14890D01*
X-1028Y14898D01*
Y15172D01*
X-1028Y15173D01*
X-1018Y15250D01*
X-988Y15323D01*
X-940Y15385D01*
X-878Y15433D01*
X-805Y15463D01*
X-728Y15474D01*
X-727Y15473D01*
X339D01*
X342Y15474D01*
X420Y15484D01*
X496Y15516D01*
X561Y15565D01*
X611Y15630D01*
X642Y15706D01*
X652Y15784D01*
X653Y15787D01*
Y15928D01*
X654Y15963D01*
X718Y16002D01*
X782D01*
X843Y15957D01*
X850Y15906D01*
X888Y15814D01*
X948Y15735D01*
X1027Y15675D01*
X1118Y15637D01*
X1217Y15624D01*
Y15624D01*
X1832D01*
X1836Y15625D01*
X1898Y15613D01*
X1953Y15575D01*
X1991Y15520D01*
X2003Y15458D01*
X2002Y15454D01*
Y14053D01*
X1945Y14007D01*
X1867Y13991D01*
X1801Y13947D01*
X1757Y13881D01*
X1741Y13803D01*
X1746Y13781D01*
X1738Y13746D01*
X1736Y13740D01*
X1731Y13727D01*
X1717Y13621D01*
X1717D01*
Y11270D01*
X1717D01*
X1730Y11167D01*
X1770Y11070D01*
X1834Y10987D01*
X1917Y10924D01*
X2013Y10884D01*
X2117Y10870D01*
Y10870D01*
X2183Y10837D01*
X2186Y10835D01*
X2264Y10820D01*
X2342Y10835D01*
X2408Y10879D01*
X2452Y10946D01*
X2468Y11024D01*
X2452Y11102D01*
X2408Y11168D01*
X2342Y11212D01*
X2264Y11228D01*
X2186Y11212D01*
X2183Y11210D01*
X2117Y11177D01*
X2081Y11184D01*
X2051Y11204D01*
X2030Y11234D01*
X2023Y11270D01*
X2023D01*
Y13270D01*
X2103Y13312D01*
X2165Y13300D01*
X2243Y13316D01*
X2310Y13360D01*
X2354Y13426D01*
X2369Y13504D01*
X2354Y13582D01*
X2329Y13620D01*
X2329Y13620D01*
Y15454D01*
X2330D01*
X2313Y15583D01*
X2263Y15703D01*
X2184Y15806D01*
X2081Y15885D01*
X1961Y15935D01*
X1832Y15952D01*
Y15951D01*
X1277D01*
X1218Y16002D01*
Y17717D01*
X3150D01*
X3150Y0D01*
D02*
G37*
G36*
X-1282Y14584D02*
X-1218Y14465D01*
X-1132Y14360D01*
X-1132Y14360D01*
X-1087Y14299D01*
X-1075Y14280D01*
X-1057Y14190D01*
X-1058Y14183D01*
Y13420D01*
X-1058Y13416D01*
X-1071Y13352D01*
X-1109Y13294D01*
X-1167Y13256D01*
X-1231Y13243D01*
X-1235Y13243D01*
X-1250D01*
X-1274Y13323D01*
X-1234Y13350D01*
X-1190Y13416D01*
X-1174Y13494D01*
X-1190Y13572D01*
X-1225Y13626D01*
Y13786D01*
X-1224D01*
X-1239Y13896D01*
X-1281Y13997D01*
X-1348Y14085D01*
Y14085D01*
X-1380Y14152D01*
X-1383Y14166D01*
X-1382Y14166D01*
Y14641D01*
X-1302Y14652D01*
X-1282Y14584D01*
D02*
G37*
G36*
X2180Y10969D02*
X2179Y10970D01*
X2177Y10970D01*
X2173Y10971D01*
X2169Y10972D01*
X2156Y10973D01*
X2117Y10974D01*
Y11074D01*
X2129Y11074D01*
X2177Y11077D01*
X2179Y11078D01*
X2180Y11079D01*
Y10969D01*
D02*
G37*
G36*
X325Y9550D02*
X320Y9554D01*
X314Y9556D01*
X308Y9558D01*
X301Y9559D01*
X293Y9559D01*
X285Y9558D01*
X276Y9557D01*
X266Y9554D01*
X256Y9551D01*
X245Y9547D01*
X232Y9670D01*
X245Y9674D01*
X296Y9695D01*
X301Y9698D01*
X304Y9701D01*
X306Y9703D01*
X325Y9550D01*
D02*
G37*
G36*
X1058Y9554D02*
X1055Y9549D01*
X1053Y9543D01*
X1050Y9537D01*
X1049Y9529D01*
X1047Y9521D01*
X1046Y9512D01*
X1044Y9490D01*
X1044Y9478D01*
X924D01*
X924Y9490D01*
X922Y9521D01*
X920Y9529D01*
X918Y9537D01*
X916Y9543D01*
X913Y9549D01*
X910Y9554D01*
X907Y9558D01*
X1061D01*
X1058Y9554D01*
D02*
G37*
G36*
X758Y9551D02*
X756Y9548D01*
X753Y9544D01*
X750Y9540D01*
X747Y9534D01*
X745Y9527D01*
X738Y9509D01*
X729Y9475D01*
X607Y9485D01*
X610Y9496D01*
X614Y9516D01*
X615Y9525D01*
X615Y9534D01*
X615Y9541D01*
X613Y9548D01*
X611Y9555D01*
X609Y9560D01*
X605Y9565D01*
X758Y9551D01*
D02*
G37*
G36*
X821Y9225D02*
Y9055D01*
X821D01*
X835Y8916D01*
X875Y8782D01*
X941Y8658D01*
X1030Y8550D01*
X1106Y8487D01*
X1110Y8485D01*
X1075Y8437D01*
X1075D01*
X1075Y8437D01*
X999Y8436D01*
X965Y8443D01*
X875Y8425D01*
X799Y8374D01*
X748Y8298D01*
X730Y8209D01*
X748Y8119D01*
X799Y8043D01*
X875Y7992D01*
X965Y7974D01*
X1054Y7992D01*
X1130Y8043D01*
X1181Y8119D01*
X1199Y8209D01*
X1181Y8298D01*
X1166Y8321D01*
X1141Y8393D01*
X1171Y8443D01*
X1175Y8441D01*
X1262Y8395D01*
X1396Y8354D01*
X1535Y8340D01*
Y8340D01*
X1612Y8333D01*
X1667Y8326D01*
X1790Y8275D01*
X1895Y8194D01*
X1976Y8089D01*
X2027Y7966D01*
X2043Y7842D01*
X2042Y7835D01*
Y6983D01*
X1980Y6932D01*
X1969Y6935D01*
X1891Y6919D01*
X1825Y6875D01*
X1782Y6810D01*
X1766Y6732D01*
X1782Y6655D01*
X1825Y6589D01*
X1891Y6545D01*
X1934Y6537D01*
Y6455D01*
X1891Y6447D01*
X1856Y6423D01*
X1686D01*
Y6424D01*
X1574Y6409D01*
X1470Y6366D01*
X1380Y6297D01*
X1380Y6297D01*
X1319Y6252D01*
X1306Y6244D01*
X1223Y6227D01*
X1217Y6229D01*
X902D01*
X853Y6309D01*
X864Y6368D01*
X847Y6458D01*
X796Y6534D01*
X720Y6585D01*
X630Y6603D01*
X540Y6585D01*
X515Y6568D01*
X507Y6569D01*
X432Y6609D01*
X423Y6652D01*
X399Y6688D01*
Y8770D01*
X398Y8777D01*
X415Y8863D01*
X464Y8936D01*
X470Y8940D01*
X630Y9100D01*
X631Y9100D01*
X725Y9215D01*
X741Y9245D01*
X821Y9225D01*
D02*
G37*
G36*
X296Y6701D02*
X298Y6666D01*
X299Y6660D01*
X301Y6655D01*
X302Y6651D01*
X303Y6647D01*
X305Y6645D01*
X167D01*
X169Y6647D01*
X171Y6651D01*
X172Y6655D01*
X173Y6660D01*
X174Y6666D01*
X175Y6681D01*
X176Y6701D01*
X176Y6712D01*
X296D01*
X296Y6701D01*
D02*
G37*
G36*
X18Y6441D02*
X25Y6425D01*
X29Y6418D01*
X32Y6412D01*
X36Y6407D01*
X40Y6403D01*
X44Y6400D01*
X48Y6398D01*
X53Y6397D01*
X-58Y6314D01*
X-58Y6315D01*
X-59Y6317D01*
X-84Y6374D01*
X14Y6451D01*
X18Y6441D01*
D02*
G37*
G36*
X1898Y6191D02*
X1896Y6193D01*
X1893Y6194D01*
X1889Y6195D01*
X1883Y6197D01*
X1877Y6198D01*
X1862Y6199D01*
X1843Y6200D01*
X1831Y6200D01*
Y6320D01*
X1843Y6320D01*
X1877Y6322D01*
X1883Y6323D01*
X1889Y6324D01*
X1893Y6326D01*
X1896Y6327D01*
X1898Y6329D01*
Y6191D01*
D02*
G37*
G36*
X138Y6301D02*
X140Y6297D01*
X142Y6293D01*
X146Y6289D01*
X150Y6284D01*
X155Y6279D01*
X168Y6268D01*
X176Y6262D01*
X185Y6256D01*
X104Y6166D01*
X94Y6173D01*
X51Y6200D01*
X48Y6201D01*
X46Y6201D01*
X138Y6304D01*
X138Y6301D01*
D02*
G37*
G36*
X2369Y4851D02*
X2385Y4842D01*
X2392Y4840D01*
X2398Y4838D01*
X2404Y4837D01*
X2410Y4836D01*
X2415Y4837D01*
X2419Y4838D01*
X2423Y4840D01*
X2399Y4705D01*
X2341Y4730D01*
X2361Y4856D01*
X2369Y4851D01*
D02*
G37*
%LPC*%
G36*
X-2165Y15571D02*
X-2253Y15560D01*
X-2335Y15526D01*
X-2405Y15472D01*
X-2459Y15402D01*
X-2493Y15320D01*
X-2504Y15232D01*
X-2493Y15145D01*
X-2459Y15063D01*
X-2405Y14992D01*
X-2335Y14939D01*
X-2253Y14905D01*
X-2165Y14893D01*
X-2078Y14905D01*
X-1996Y14939D01*
X-1926Y14992D01*
X-1872Y15063D01*
X-1838Y15145D01*
X-1826Y15232D01*
X-1838Y15320D01*
X-1872Y15402D01*
X-1926Y15472D01*
X-1996Y15526D01*
X-2078Y15560D01*
X-2165Y15571D01*
D02*
G37*
G36*
X630Y15163D02*
X553Y15148D01*
X487Y15104D01*
X443Y15038D01*
X428Y14961D01*
X443Y14883D01*
X487Y14818D01*
X553Y14774D01*
X630Y14758D01*
X707Y14774D01*
X773Y14818D01*
X817Y14883D01*
X832Y14961D01*
X817Y15038D01*
X773Y15104D01*
X707Y15148D01*
X630Y15163D01*
D02*
G37*
G36*
X2756Y14771D02*
X2678Y14755D01*
X2612Y14711D01*
X2568Y14645D01*
X2552Y14567D01*
X2568Y14489D01*
X2612Y14423D01*
X2678Y14379D01*
X2756Y14363D01*
X2834Y14379D01*
X2900Y14423D01*
X2944Y14489D01*
X2960Y14567D01*
X2944Y14645D01*
X2900Y14711D01*
X2834Y14755D01*
X2756Y14771D01*
D02*
G37*
G36*
Y14279D02*
X2678Y14263D01*
X2612Y14219D01*
X2568Y14153D01*
X2552Y14075D01*
X2568Y13997D01*
X2612Y13931D01*
X2678Y13886D01*
X2756Y13871D01*
X2834Y13886D01*
X2900Y13931D01*
X2944Y13997D01*
X2960Y14075D01*
X2944Y14153D01*
X2900Y14219D01*
X2834Y14263D01*
X2756Y14279D01*
D02*
G37*
G36*
X2224Y9329D02*
X2135Y9311D01*
X2059Y9260D01*
X2008Y9184D01*
X1990Y9094D01*
X2008Y9005D01*
X2059Y8929D01*
X2135Y8878D01*
X2224Y8860D01*
X2314Y8878D01*
X2390Y8929D01*
X2441Y9005D01*
X2459Y9094D01*
X2441Y9184D01*
X2390Y9260D01*
X2314Y9311D01*
X2224Y9329D01*
D02*
G37*
G36*
X-2311Y5843D02*
X-2408Y5824D01*
X-2490Y5769D01*
X-2545Y5687D01*
X-2564Y5591D01*
X-2545Y5494D01*
X-2490Y5412D01*
X-2408Y5357D01*
X-2311Y5338D01*
X-2215Y5357D01*
X-2133Y5412D01*
X-2078Y5494D01*
X-2059Y5591D01*
X-2078Y5687D01*
X-2133Y5769D01*
X-2215Y5824D01*
X-2311Y5843D01*
D02*
G37*
G36*
X1555Y5687D02*
X1465Y5669D01*
X1389Y5619D01*
X1338Y5543D01*
X1321Y5453D01*
X1338Y5363D01*
X1389Y5287D01*
X1465Y5236D01*
X1555Y5218D01*
X1645Y5236D01*
X1721Y5287D01*
X1772Y5363D01*
X1790Y5453D01*
X1772Y5543D01*
X1721Y5619D01*
X1645Y5669D01*
X1555Y5687D01*
D02*
G37*
G36*
X221Y4769D02*
X144Y4754D01*
X78Y4710D01*
X25D01*
X-41Y4754D01*
X-118Y4769D01*
X-196Y4754D01*
X-261Y4710D01*
X-305Y4644D01*
X-320Y4567D01*
X-305Y4490D01*
X-261Y4424D01*
X-237Y4408D01*
Y4313D01*
X-261Y4297D01*
X-305Y4231D01*
X-320Y4154D01*
X-305Y4076D01*
X-261Y4010D01*
X-196Y3967D01*
X-118Y3951D01*
X-41Y3967D01*
X25Y4010D01*
X69Y4076D01*
X119Y4097D01*
X146Y4101D01*
X203Y4048D01*
X189Y3977D01*
X204Y3900D01*
X248Y3834D01*
X314Y3790D01*
X391Y3775D01*
X469Y3790D01*
X534Y3834D01*
X578Y3900D01*
X594Y3977D01*
X589Y4058D01*
X655Y4101D01*
X699Y4167D01*
X714Y4244D01*
X699Y4322D01*
X655Y4387D01*
X589Y4431D01*
X512Y4447D01*
X471Y4439D01*
X446Y4459D01*
X411Y4505D01*
X424Y4567D01*
X408Y4644D01*
X365Y4710D01*
X299Y4754D01*
X221Y4769D01*
D02*
G37*
%LPD*%
D14*
X-472Y13907D02*
G03*
X-60Y13494I412J0D01*
G01*
X-472Y14710D02*
G03*
X-635Y15102I-555J0D01*
G01*
X-60Y13494D02*
X1280D01*
X-472Y13907D02*
Y14710D01*
D15*
X1945Y13803D02*
G03*
X1870Y13621I182J-182D01*
G01*
Y11270D02*
G03*
X2117Y11024I247J0D01*
G01*
X339Y15626D02*
G03*
X500Y15787I0J161D01*
G01*
X-906Y14183D02*
G03*
X-1024Y14468I-403J0D01*
G01*
X-727Y15626D02*
G03*
X-1181Y15172I0J-454D01*
G01*
Y14849D02*
G03*
X-1024Y14468I538J0D01*
G01*
X-1673Y13386D02*
G03*
X-1378Y13091I295J0D01*
G01*
X-1235D02*
G03*
X-906Y13420I0J329D01*
G01*
X-899Y15866D02*
G03*
X-1280Y15709I0J-538D01*
G01*
D02*
G03*
X-1535Y15091I618J-618D01*
G01*
Y14166D02*
G03*
X-1457Y13976I269J0D01*
G01*
X-1378Y13786D02*
G03*
X-1457Y13976I-269J0D01*
G01*
X1945Y13776D02*
Y13803D01*
X1870Y11270D02*
Y13621D01*
X2117Y11024D02*
X2264D01*
X-727Y15626D02*
X339D01*
X-906Y13420D02*
Y14183D01*
X-1181Y14849D02*
Y15172D01*
X-1673Y13386D02*
Y13504D01*
X-1378Y13091D02*
X-1235D01*
X-899Y15866D02*
X-736D01*
X-1535Y14166D02*
Y15091D01*
X-1378Y13494D02*
Y13786D01*
X500Y15787D02*
Y16890D01*
D17*
X-2311Y5591D02*
D03*
D34*
X0Y16890D02*
D03*
X500D02*
D03*
X1000D02*
D03*
X-1000D02*
D03*
X-500D02*
D03*
D63*
X-1000Y16874D02*
G03*
X-1457Y17331I-457J0D01*
G01*
Y16417D02*
G03*
X-1000Y16874I0J457D01*
G01*
Y16890D01*
D65*
X0Y16436D02*
G03*
X236Y15866I807J0D01*
G01*
X0Y16436D02*
Y16890D01*
D69*
X984Y9055D02*
G03*
X1535Y8504I551J0D01*
G01*
X2205Y7835D02*
G03*
X1535Y8504I-669J0D01*
G01*
X2205Y5036D02*
G03*
X2480Y4760I276J0D01*
G01*
X2165Y15454D02*
G03*
X1832Y15787I-333J0D01*
G01*
X1000Y16004D02*
G03*
X1217Y15787I217J0D01*
G01*
X1686Y6260D02*
G03*
X1496Y6181I0J-269D01*
G01*
X1217Y6065D02*
G03*
X1496Y6181I0J395D01*
G01*
X-60Y6539D02*
G03*
X39Y6299I339J0D01*
G01*
D02*
G03*
X604Y6065I565J565D01*
G01*
X394Y9636D02*
G03*
X-60Y9182I0J-454D01*
G01*
X354Y9055D02*
G03*
X236Y8770I285J-285D01*
G01*
X515Y9216D02*
G03*
X689Y9636I-421J421D01*
G01*
X984Y9055D02*
Y9636D01*
X2205Y5036D02*
Y7835D01*
X2165Y13504D02*
Y15454D01*
X1000Y16004D02*
Y16890D01*
X1217Y15787D02*
X1832D01*
X1686Y6260D02*
X1969D01*
X604Y6065D02*
X1217D01*
X-60Y6539D02*
Y9182D01*
X236Y6575D02*
Y8770D01*
X354Y9055D02*
X515Y9216D01*
D70*
X-2165Y14232D02*
D03*
Y15232D02*
D03*
D71*
Y16232D02*
D03*
D72*
X-630Y7913D02*
D03*
D73*
Y7126D02*
D03*
D74*
X2756Y14075D02*
D03*
Y14567D02*
D03*
Y15059D02*
D03*
X1945Y13803D02*
D03*
X2264Y11024D02*
D03*
X-1378Y13494D02*
D03*
X-635Y15102D02*
D03*
X1280Y13494D02*
D03*
X2165Y13504D02*
D03*
X-1673D02*
D03*
D75*
X2463Y15392D02*
D03*
X-2697Y3524D02*
D03*
X-787Y4291D02*
D03*
X-118Y4154D02*
D03*
Y4567D02*
D03*
X512Y4244D02*
D03*
X391Y3977D02*
D03*
X221Y4291D02*
D03*
Y4567D02*
D03*
X630Y14961D02*
D03*
X-827Y14705D02*
D03*
X-1181Y14134D02*
D03*
X965Y15394D02*
D03*
X-650D02*
D03*
X2480Y4760D02*
D03*
X1969Y6260D02*
D03*
X1969Y6732D02*
D03*
X236Y6575D02*
D03*
X39Y6299D02*
D03*
X1969Y7205D02*
D03*
X2756Y7756D02*
D03*
X1594Y5866D02*
D03*
X-118Y5630D02*
D03*
Y5236D02*
D03*
X276Y5630D02*
D03*
Y5236D02*
D03*
X79Y5433D02*
D03*
X2835Y6260D02*
D03*
X2874Y8602D02*
D03*
X1024Y5453D02*
D03*
X2756Y4222D02*
D03*
X-906Y5256D02*
D03*
D76*
X2415Y13701D02*
D03*
X-1457Y17331D02*
D03*
X236Y15866D02*
D03*
X-1457Y16417D02*
D03*
X-236Y15866D02*
D03*
X-2047Y13504D02*
D03*
X-1457Y16890D02*
D03*
X-709Y9646D02*
D03*
X2224Y9094D02*
D03*
X2480Y5118D02*
D03*
X1555Y5453D02*
D03*
Y8209D02*
D03*
X965D02*
D03*
X630Y6368D02*
D03*
D77*
X2559Y3051D02*
D03*
X-1496Y3878D02*
D03*
X453Y3563D02*
D03*
X-433Y3799D02*
D03*
D78*
X157Y14114D02*
D03*
X-157Y14508D02*
D03*
X157D02*
D03*
X-157Y14114D02*
D03*
X0Y14311D02*
D03*
D79*
X-736Y15866D02*
D03*
X394Y9636D02*
D03*
X984D02*
D03*
X689D02*
D03*
M02*
