M48
;Layer_Color=9474304
;FILE_FORMAT=2:4
INCH,LZ
;TYPE=PLATED
T1F00S00C0.0079
T2F00S00C0.0118
T3F00S00C0.0157
T4F00S00C0.0160
T5F00S00C0.0295
%
T01
X-000157Y013681
X000157
X0Y013878
X-000157Y014075
X000157
T02
X-00063Y013228
X-000945Y013957
X-001181Y014508
X-00063Y014961
X000394Y015197
X000945Y014961
X0Y015898
X-00122Y015787
X-001377Y017323
X001378Y01689
T03
X-001693Y002933
X-001968Y004213
X-000646Y003898
X-000591Y004557
X000079Y004035
X-000197Y003602
X001673Y004262
X002657Y004665
X001969Y005571
X002323Y003051
X002165Y005886
X002756Y007224
X002638Y00878
X002461Y012087
X-002244Y012957
X-000669Y008071
X-002323Y006417
T04
X00002Y005945
X002303Y008543
X002353Y011693
X-001732Y016496
T05
X00128Y006594
Y007382
X-001772Y014059
Y015059
X-002717Y0133
M30
