G04*
G04 #@! TF.GenerationSoftware,Altium Limited,Altium Designer,18.1.7 (191)*
G04*
G04 Layer_Color=65535*
%FSLAX24Y24*%
%MOIN*%
G70*
G01*
G75*
%ADD10C,0.0098*%
%ADD11C,0.0079*%
%ADD12C,0.0080*%
%ADD13C,0.0100*%
D10*
X-2421Y4911D02*
G03*
X-2421Y4911I-49J0D01*
G01*
X974Y13268D02*
G03*
X974Y13268I-49J0D01*
G01*
X207Y2520D02*
G03*
X207Y2520I-49J0D01*
G01*
X2421Y4616D02*
G03*
X2421Y4616I-49J0D01*
G01*
X-256Y4537D02*
G03*
X-256Y4537I-49J0D01*
G01*
D11*
X-803Y3720D02*
Y4390D01*
X-1197Y3720D02*
X-803D01*
X-1197D02*
Y4390D01*
X-803D01*
X-2165Y4803D02*
X-1772D01*
X-2165Y3622D02*
X-1772D01*
X-2165D02*
Y4803D01*
X-1772Y3622D02*
Y4803D01*
X-2835Y3543D02*
X-2362D01*
X-2835Y2677D02*
Y3543D01*
Y2677D02*
X-2362D01*
Y3543D01*
X-2205Y5748D02*
X-1732D01*
X-2205Y4882D02*
Y5748D01*
Y4882D02*
X-1732D01*
Y5748D01*
X-2303Y3150D02*
X-1634D01*
X-2303D02*
Y3543D01*
X-1634D01*
Y3150D02*
Y3543D01*
X-1575Y2677D02*
X-1102D01*
Y3543D01*
X-1575D02*
X-1102D01*
X-1575Y2677D02*
Y3543D01*
X-2209Y5807D02*
Y6280D01*
Y5807D02*
X-1343D01*
Y6280D01*
X-2209D02*
X-1343D01*
X-2209Y6358D02*
Y6831D01*
Y6358D02*
X-1343D01*
Y6831D01*
X-2209D02*
X-1343D01*
X1890Y7087D02*
X2441D01*
Y5984D02*
Y7087D01*
X1890Y5984D02*
X2441D01*
X1890D02*
Y7087D01*
X669Y13209D02*
Y13287D01*
X591Y13209D02*
X669D01*
X-669D02*
X-591D01*
X-669D02*
Y13287D01*
Y14468D02*
Y14547D01*
X-591D01*
X669Y14468D02*
Y14547D01*
X591D02*
X669D01*
X-1378Y13780D02*
Y14449D01*
X-984D01*
Y13780D02*
Y14449D01*
X-1378Y13780D02*
X-984D01*
X217Y14764D02*
X886D01*
X217D02*
Y15157D01*
X886D01*
Y14764D02*
Y15157D01*
X-571D02*
X98D01*
Y14764D02*
Y15157D01*
X-571Y14764D02*
X98D01*
X-571D02*
Y15157D01*
X2126Y8366D02*
X2795D01*
Y7972D02*
Y8366D01*
X2126Y7972D02*
X2795D01*
X2126D02*
Y8366D01*
X1909Y7303D02*
Y7854D01*
X3012D01*
Y7303D02*
Y7854D01*
X1909Y7303D02*
X3012D01*
X-591Y2638D02*
X-197D01*
X-591D02*
Y2953D01*
Y3819D02*
X-197D01*
X-591Y3504D02*
Y3819D01*
X453Y2795D02*
X925D01*
Y3661D01*
X453D02*
X925D01*
X453Y2795D02*
Y3661D01*
X-2707Y4882D02*
X-2234D01*
Y5748D01*
X-2707D02*
X-2234D01*
X-2707Y4882D02*
Y5748D01*
X-1270Y4980D02*
Y5650D01*
X-1663Y4980D02*
X-1270D01*
X-1663D02*
Y5650D01*
X-1270D01*
X1102Y3976D02*
X2244D01*
X1102Y4291D02*
X2244D01*
X1102Y3976D02*
Y4291D01*
X2244Y3976D02*
Y4291D01*
X2421Y3701D02*
X2894D01*
Y4567D01*
X2421D02*
X2894D01*
X2421Y3701D02*
Y4567D01*
X1122Y4941D02*
Y5492D01*
X2224D01*
Y4941D02*
Y5492D01*
X1122Y4941D02*
X2224D01*
X1122Y2776D02*
Y3327D01*
X2224D01*
Y2776D02*
Y3327D01*
X1122Y2776D02*
X2224D01*
X-177Y5177D02*
X965D01*
X-177Y4862D02*
X965D01*
Y5177D01*
X-177Y4862D02*
Y5177D01*
X-866Y5758D02*
X-315D01*
Y4656D02*
Y5758D01*
X-866Y4656D02*
X-315D01*
X-866D02*
Y5758D01*
X256Y4232D02*
X925D01*
Y3839D02*
Y4232D01*
X256Y3839D02*
X925D01*
X256D02*
Y4232D01*
D12*
X-1240Y5906D02*
Y8169D01*
X925D01*
Y5807D02*
Y8169D01*
X-1240Y5807D02*
X925D01*
X-1240D02*
Y5906D01*
X2165Y0D02*
Y2559D01*
X-2165D02*
X2165D01*
X-2165Y0D02*
Y2559D01*
Y0D02*
X2165D01*
D13*
X2776Y12244D02*
Y12657D01*
X-2933Y12264D02*
Y12657D01*
X-2146D01*
X2638D02*
X2776D01*
X2638Y8524D02*
X2776D01*
Y8937D01*
X-2933Y8524D02*
X-965D01*
X-2933D02*
Y8917D01*
M02*
