G04*
G04 #@! TF.GenerationSoftware,Altium Limited,Altium Designer,18.1.7 (191)*
G04*
G04 Layer_Physical_Order=2*
G04 Layer_Color=16711680*
%FSLAX24Y24*%
%MOIN*%
G70*
G01*
G75*
%ADD19R,0.0236X0.1575*%
%ADD52C,0.0120*%
%ADD53C,0.0250*%
%ADD55C,0.0200*%
%ADD56C,0.0160*%
%ADD58C,0.0472*%
%ADD59R,0.0492X0.0492*%
%ADD60C,0.0492*%
%ADD61C,0.0315*%
%ADD62C,0.0260*%
%ADD63C,0.0236*%
%ADD64C,0.0300*%
%ADD65C,0.0157*%
G36*
X-1116Y17403D02*
X-1031Y17403D01*
Y17243D01*
X-1116Y17240D01*
Y17163D01*
X-1117Y17178D01*
X-1122Y17192D01*
X-1130Y17204D01*
X-1142Y17214D01*
X-1156Y17223D01*
X-1174Y17230D01*
X-1195Y17236D01*
X-1204Y17237D01*
X-1289Y17234D01*
X-1291Y17230D01*
X-1292Y17221D01*
X-1293Y17208D01*
X-1297Y17105D01*
X-1297Y16977D01*
X-1457D01*
X-1466Y17234D01*
X-1460D01*
X-1460Y17238D01*
X-1295D01*
X-1295Y17236D01*
X-1295Y17234D01*
X-1289D01*
Y17240D01*
X-1293Y17240D01*
Y17406D01*
X-1291Y17405D01*
X-1289Y17405D01*
Y17411D01*
X-1285Y17410D01*
X-1276Y17408D01*
X-1262Y17407D01*
X-1223Y17406D01*
X-1219Y17406D01*
X-1195Y17410D01*
X-1174Y17416D01*
X-1156Y17423D01*
X-1142Y17432D01*
X-1130Y17442D01*
X-1122Y17454D01*
X-1117Y17468D01*
X-1116Y17483D01*
Y17403D01*
D02*
G37*
G36*
X1117Y16998D02*
X1121Y16988D01*
X1127Y16979D01*
X1135Y16971D01*
X1146Y16965D01*
X1159Y16959D01*
X1175Y16955D01*
X1187Y16953D01*
X1254Y16958D01*
X1268Y16961D01*
X1279Y16964D01*
X1288Y16968D01*
X1294Y16972D01*
Y16807D01*
X1288Y16811D01*
X1279Y16815D01*
X1268Y16819D01*
X1254Y16822D01*
X1237Y16824D01*
X1196Y16828D01*
X1193Y16827D01*
X1175Y16824D01*
X1159Y16820D01*
X1146Y16815D01*
X1135Y16808D01*
X1127Y16800D01*
X1121Y16791D01*
X1117Y16781D01*
X1116Y16770D01*
Y16830D01*
X1111Y16830D01*
Y16950D01*
X1116Y16950D01*
Y17010D01*
X1117Y16998D01*
D02*
G37*
G36*
X3150Y0D02*
X-3150D01*
X-3150Y7140D01*
X-955D01*
X-909Y7159D01*
X-890Y7205D01*
Y12198D01*
X-890Y12198D01*
Y12205D01*
X-909Y12251D01*
X-955Y12270D01*
X-2894Y12270D01*
X-2896Y12269D01*
X-3149Y12270D01*
X-3150Y12344D01*
X-3150Y17717D01*
X-1178D01*
Y17530D01*
X-1249Y17472D01*
X-1258Y17472D01*
X-1268Y17473D01*
X-1269Y17473D01*
X-1305Y17497D01*
X-1377Y17511D01*
X-1772D01*
Y17513D01*
X-1963Y17494D01*
X-2146Y17438D01*
X-2315Y17348D01*
X-2463Y17227D01*
X-2584Y17079D01*
X-2674Y16910D01*
X-2730Y16727D01*
X-2749Y16536D01*
X-2748D01*
Y14063D01*
X-2748D01*
X-2732Y13894D01*
X-2682Y13732D01*
X-2602Y13582D01*
X-2494Y13450D01*
X-2363Y13343D01*
X-2213Y13263D01*
X-2051Y13213D01*
X-1882Y13197D01*
Y13197D01*
X-1309D01*
X-1304Y13198D01*
X-1245Y13186D01*
X-1191Y13150D01*
X-1160Y13105D01*
X-1144Y13031D01*
X-1144D01*
X-1127Y12901D01*
X-1076Y12779D01*
X-996Y12675D01*
X-892Y12595D01*
X-770Y12544D01*
X-640Y12527D01*
Y12528D01*
X-551D01*
X-548Y12528D01*
X-502Y12519D01*
X-461Y12492D01*
X-433Y12450D01*
X-424Y12404D01*
X-425Y12402D01*
Y7811D01*
X-424Y7804D01*
X-412Y7690D01*
X-377Y7575D01*
X-320Y7468D01*
X-244Y7375D01*
X-150Y7298D01*
X-44Y7241D01*
X72Y7206D01*
X186Y7195D01*
X192Y7193D01*
X780D01*
X783Y7192D01*
X829Y7191D01*
X867Y7188D01*
X899Y7182D01*
X925Y7176D01*
X944Y7168D01*
X956Y7161D01*
X963Y7155D01*
X967Y7150D01*
X968Y7145D01*
X970Y7130D01*
X973Y7124D01*
X973Y7076D01*
X1035Y7072D01*
X1036Y7073D01*
X1042Y7072D01*
X1048Y7076D01*
X1053Y7076D01*
X1568D01*
X1586Y7076D01*
X1648Y7033D01*
Y6522D01*
X1649Y6518D01*
X1636Y6425D01*
X1599Y6334D01*
X1542Y6259D01*
X1538Y6257D01*
X1534Y6251D01*
X1434Y6174D01*
X1311Y6123D01*
X1186Y6107D01*
X1178Y6108D01*
X118D01*
X94Y6124D01*
X20Y6139D01*
X-54Y6124D01*
X-117Y6082D01*
X-159Y6019D01*
X-174Y5945D01*
X-159Y5871D01*
X-117Y5808D01*
X-54Y5766D01*
X20Y5751D01*
X94Y5766D01*
X118Y5782D01*
X1178D01*
Y5781D01*
X1341Y5797D01*
X1498Y5845D01*
X1643Y5922D01*
X1770Y6026D01*
X1769Y6026D01*
X1856Y6132D01*
X1921Y6254D01*
X1961Y6385D01*
X1974Y6522D01*
X1974D01*
Y7644D01*
X1973Y7652D01*
X1988Y7808D01*
X2036Y7965D01*
X2113Y8110D01*
X2213Y8232D01*
X2219Y8236D01*
X2340Y8357D01*
X2377Y8364D01*
X2440Y8406D01*
X2482Y8469D01*
X2497Y8543D01*
X2482Y8617D01*
X2440Y8680D01*
X2377Y8722D01*
X2303Y8737D01*
X2229Y8722D01*
X2166Y8680D01*
X2124Y8617D01*
X2120Y8599D01*
X1989Y8467D01*
X1988Y8467D01*
X1870Y8328D01*
X1774Y8172D01*
X1704Y8004D01*
X1662Y7826D01*
X1653Y7718D01*
X1586Y7688D01*
X1571Y7688D01*
X1053D01*
X1048Y7688D01*
X1042Y7691D01*
X1036Y7691D01*
X1035Y7692D01*
X973Y7688D01*
X973Y7640D01*
X970Y7634D01*
X968Y7619D01*
X967Y7614D01*
X963Y7609D01*
X956Y7603D01*
X944Y7595D01*
X925Y7588D01*
X899Y7581D01*
X867Y7576D01*
X829Y7573D01*
X783Y7572D01*
X780Y7571D01*
X192D01*
X184Y7569D01*
X99Y7586D01*
X20Y7638D01*
X-32Y7717D01*
X-49Y7802D01*
X-48Y7811D01*
Y12402D01*
X-47D01*
X-64Y12532D01*
X-114Y12654D01*
X-195Y12758D01*
X-299Y12838D01*
X-421Y12889D01*
X-551Y12906D01*
Y12905D01*
X-640D01*
X-642Y12905D01*
X-689Y12914D01*
X-730Y12941D01*
X-743Y12961D01*
X-765Y13032D01*
X-765D01*
X-784Y13172D01*
X-838Y13303D01*
X-924Y13416D01*
X-1037Y13503D01*
X-1168Y13557D01*
X-1309Y13575D01*
Y13574D01*
X-1882D01*
X-1890Y13573D01*
X-2009Y13588D01*
X-2127Y13637D01*
X-2229Y13716D01*
X-2307Y13817D01*
X-2357Y13936D01*
X-2372Y14055D01*
X-2370Y14063D01*
Y16536D01*
X-2371Y16541D01*
X-2360Y16653D01*
X-2326Y16766D01*
X-2271Y16869D01*
X-2196Y16960D01*
X-2105Y17035D01*
X-2002Y17090D01*
X-1889Y17124D01*
X-1777Y17135D01*
X-1772Y17134D01*
X-1528D01*
X-1522Y16975D01*
X-1520Y16970D01*
Y16696D01*
X-1534Y16684D01*
X-1600Y16660D01*
X-1650Y16694D01*
X-1732Y16710D01*
X-1814Y16694D01*
X-1884Y16647D01*
X-1930Y16578D01*
X-1946Y16496D01*
X-1930Y16414D01*
X-1893Y16358D01*
X-1893Y16358D01*
X-1891Y16353D01*
X-1890Y16351D01*
X-1890Y16351D01*
X-1888Y16344D01*
X-1886Y16332D01*
X-1877Y16196D01*
X-1877Y16159D01*
X-1875Y16154D01*
Y15591D01*
X-1875Y15591D01*
X-1864Y15536D01*
X-1833Y15490D01*
X-1780Y15437D01*
X-1810Y15353D01*
X-1849Y15348D01*
X-1921Y15318D01*
X-1983Y15270D01*
X-2030Y15208D01*
X-2060Y15136D01*
X-2070Y15059D01*
X-2060Y14982D01*
X-2030Y14910D01*
X-1983Y14848D01*
X-1921Y14800D01*
X-1849Y14770D01*
X-1772Y14760D01*
X-1694Y14770D01*
X-1622Y14800D01*
X-1560Y14848D01*
X-1513Y14910D01*
X-1483Y14982D01*
X-1478Y15021D01*
X-1394Y15050D01*
X-1324Y14980D01*
Y14766D01*
X-1326Y14760D01*
X-1327Y14637D01*
X-1328Y14609D01*
X-1349Y14577D01*
X-1363Y14508D01*
X-1349Y14438D01*
X-1310Y14379D01*
X-1251Y14340D01*
X-1181Y14326D01*
X-1112Y14340D01*
X-1105Y14345D01*
X-906D01*
Y14344D01*
X-724Y14359D01*
X-547Y14401D01*
X-378Y14471D01*
X-222Y14567D01*
X-84Y14685D01*
X-84Y14685D01*
X173Y14942D01*
X174Y14944D01*
X237Y14993D01*
X313Y15024D01*
X335Y15027D01*
X394Y15015D01*
X463Y15029D01*
X470Y15034D01*
X709D01*
X771Y15046D01*
X824Y15081D01*
X855Y15112D01*
X2283D01*
X2287Y15113D01*
X2374Y15102D01*
X2458Y15067D01*
X2531Y15011D01*
X2586Y14939D01*
X2621Y14854D01*
X2633Y14767D01*
X2632Y14764D01*
Y12047D01*
X2633Y12043D01*
X2619Y11973D01*
X2577Y11911D01*
X2515Y11869D01*
X2478Y11862D01*
X2435Y11891D01*
X2353Y11907D01*
X2271Y11891D01*
X2201Y11844D01*
X2155Y11775D01*
X2139Y11693D01*
X2155Y11611D01*
X2201Y11542D01*
X2271Y11495D01*
X2353Y11479D01*
X2435Y11495D01*
X2487Y11530D01*
X2491Y11532D01*
X2497Y11536D01*
X2575Y11546D01*
X2700Y11598D01*
X2808Y11680D01*
X2890Y11788D01*
X2942Y11913D01*
X2960Y12047D01*
X2958D01*
Y14764D01*
X2959D01*
X2946Y14895D01*
X2907Y15022D01*
X2845Y15139D01*
X2761Y15241D01*
X2659Y15325D01*
X2542Y15387D01*
X2415Y15426D01*
X2283Y15439D01*
Y15439D01*
X787D01*
X725Y15426D01*
X672Y15391D01*
X641Y15360D01*
X470D01*
X463Y15365D01*
X394Y15378D01*
X324Y15365D01*
X304Y15351D01*
X269Y15348D01*
X149Y15311D01*
X39Y15252D01*
X-57Y15173D01*
X-58Y15173D01*
X-315Y14916D01*
X-319Y14910D01*
X-440Y14810D01*
X-585Y14733D01*
X-743Y14685D01*
X-899Y14670D01*
X-906Y14671D01*
X-1035D01*
X-1036Y14761D01*
X-1038Y14766D01*
Y15039D01*
X-1038Y15039D01*
X-1049Y15094D01*
X-1080Y15140D01*
X-1080Y15140D01*
X-1196Y15256D01*
X-1165Y15330D01*
X-165D01*
X-163Y15330D01*
X-85Y15340D01*
X-11Y15371D01*
X53Y15420D01*
X101Y15483D01*
X132Y15558D01*
X142Y15635D01*
X143Y15637D01*
Y15791D01*
X168Y15828D01*
X182Y15898D01*
X168Y15967D01*
X128Y16026D01*
X69Y16065D01*
X0Y16079D01*
X-69Y16065D01*
X-128Y16026D01*
X-168Y15967D01*
X-182Y15898D01*
X-168Y15828D01*
X-143Y15791D01*
Y15637D01*
X-143D01*
X-150Y15622D01*
X-165Y15616D01*
Y15615D01*
X-497D01*
X-522Y15695D01*
X-460Y15736D01*
X-406Y15817D01*
X-387Y15913D01*
X-387Y15913D01*
X-387Y15993D01*
X-386Y16003D01*
X-385Y16019D01*
X-383Y16032D01*
X-381Y16040D01*
X-380Y16042D01*
X-322D01*
Y17717D01*
X822D01*
Y16042D01*
X1178D01*
Y16689D01*
X1206Y16727D01*
X1211Y16731D01*
X1249Y16754D01*
X1256Y16754D01*
X1261Y16752D01*
X1263Y16752D01*
X1308Y16722D01*
X1378Y16708D01*
X1447Y16722D01*
X1506Y16761D01*
X1546Y16820D01*
X1560Y16890D01*
X1546Y16959D01*
X1506Y17018D01*
X1447Y17058D01*
X1378Y17071D01*
X1308Y17058D01*
X1263Y17027D01*
X1261Y17027D01*
X1256Y17025D01*
X1249Y17026D01*
X1234Y17034D01*
X1178Y17095D01*
Y17717D01*
X3150D01*
X3150Y0D01*
D02*
G37*
G36*
X-1632Y16382D02*
X-1636Y16372D01*
X-1640Y16358D01*
X-1643Y16340D01*
X-1646Y16319D01*
X-1650Y16266D01*
X-1652Y16159D01*
X-1812D01*
X-1813Y16198D01*
X-1821Y16340D01*
X-1825Y16358D01*
X-1828Y16372D01*
X-1833Y16382D01*
X-1837Y16389D01*
X-1627D01*
X-1632Y16382D01*
D02*
G37*
G36*
X-403Y16103D02*
X-413Y16100D01*
X-422Y16094D01*
X-430Y16085D01*
X-437Y16074D01*
X-442Y16061D01*
X-446Y16045D01*
X-449Y16027D01*
X-451Y16007D01*
X-452Y15984D01*
X-572D01*
X-572Y16006D01*
X-576Y16045D01*
X-579Y16060D01*
X-583Y16074D01*
X-588Y16084D01*
X-594Y16093D01*
X-601Y16099D01*
X-608Y16102D01*
X-617Y16104D01*
X-392Y16105D01*
X-403Y16103D01*
D02*
G37*
G36*
X-678Y16122D02*
X-678Y16118D01*
X-681Y16113D01*
X-681Y16106D01*
X-682Y16103D01*
X-678Y16042D01*
X-673Y16034D01*
X-654Y15982D01*
X-698Y15910D01*
X-946D01*
X-952Y15912D01*
X-1034Y15914D01*
X-1072Y15918D01*
X-1085Y15920D01*
X-1094Y15922D01*
X-1099Y15923D01*
X-1104Y15925D01*
X-1106Y15925D01*
X-1145Y15951D01*
X-1156Y15996D01*
X-1162Y16039D01*
X-1159Y16042D01*
X-822D01*
Y17717D01*
X-678D01*
Y16122D01*
D02*
G37*
G36*
X-1130Y15866D02*
X-1122Y15862D01*
X-1110Y15859D01*
X-1096Y15856D01*
X-1079Y15853D01*
X-1037Y15849D01*
X-953Y15847D01*
Y15727D01*
X-984Y15727D01*
X-1096Y15719D01*
X-1110Y15716D01*
X-1122Y15713D01*
X-1130Y15709D01*
X-1136Y15705D01*
Y15870D01*
X-1130Y15866D01*
D02*
G37*
G36*
X-1098Y14592D02*
X-1264D01*
X-1263Y14594D01*
X-1263Y14600D01*
X-1262Y14636D01*
X-1261Y14760D01*
X-1101D01*
X-1098Y14592D01*
D02*
G37*
G36*
X2458Y11800D02*
X2460Y11799D01*
X2462Y11798D01*
X2464Y11797D01*
X2466Y11796D01*
X2468Y11796D01*
X2471Y11795D01*
X2473Y11795D01*
X2476Y11795D01*
X2479Y11796D01*
X2480Y11595D01*
X2477Y11594D01*
X2465Y11592D01*
X2464Y11592D01*
X2463Y11592D01*
X2456Y11802D01*
X2458Y11800D01*
D02*
G37*
G36*
X1035Y7137D02*
X1032Y7160D01*
X1025Y7180D01*
X1012Y7198D01*
X995Y7214D01*
X972Y7227D01*
X945Y7238D01*
X912Y7246D01*
X875Y7252D01*
X832Y7256D01*
X785Y7257D01*
Y7507D01*
X832Y7508D01*
X875Y7512D01*
X912Y7518D01*
X945Y7526D01*
X972Y7537D01*
X995Y7550D01*
X1012Y7566D01*
X1025Y7584D01*
X1032Y7604D01*
X1035Y7627D01*
Y7137D01*
D02*
G37*
%LPC*%
G36*
X-1772Y14358D02*
X-1849Y14348D01*
X-1921Y14318D01*
X-1983Y14270D01*
X-2030Y14208D01*
X-2060Y14136D01*
X-2070Y14059D01*
X-2060Y13982D01*
X-2030Y13910D01*
X-1983Y13848D01*
X-1921Y13800D01*
X-1849Y13770D01*
X-1772Y13760D01*
X-1694Y13770D01*
X-1622Y13800D01*
X-1560Y13848D01*
X-1513Y13910D01*
X-1483Y13982D01*
X-1473Y14059D01*
X-1483Y14136D01*
X-1513Y14208D01*
X-1560Y14270D01*
X-1622Y14318D01*
X-1694Y14348D01*
X-1772Y14358D01*
D02*
G37*
%LPD*%
D19*
X0Y16890D02*
D03*
X500D02*
D03*
X1000D02*
D03*
X-1000D02*
D03*
X-500D02*
D03*
D52*
X-638Y15787D02*
G03*
X-512Y15913I0J126D01*
G01*
Y16890D01*
X-1220Y15787D02*
X-638D01*
X1000Y16890D02*
X1378D01*
D53*
X-1772Y17323D02*
G03*
X-2559Y16536I0J-787D01*
G01*
X-236Y12402D02*
G03*
X-551Y12717I-315J0D01*
G01*
X-236Y7811D02*
G03*
X192Y7382I429J0D01*
G01*
X-955Y13032D02*
G03*
X-1309Y13386I-354J0D01*
G01*
X-2559Y14063D02*
G03*
X-1882Y13386I677J0D01*
G01*
X-955Y13032D02*
G03*
X-640Y12717I315J0D01*
G01*
X-1772Y17323D02*
X-1377D01*
X192Y7382D02*
X1280D01*
X-1882Y13386D02*
X-1309D01*
X-2559Y14063D02*
Y16536D01*
X-640Y12717D02*
X-551D01*
X-236Y7811D02*
Y12402D01*
D55*
X394Y15197D02*
G03*
X58Y15058I0J-475D01*
G01*
X-906Y14508D02*
G03*
X-199Y14801I0J1000D01*
G01*
X2795Y14764D02*
G03*
X2283Y15276I-512J0D01*
G01*
X2441Y11693D02*
G03*
X2795Y12047I0J354D01*
G01*
X2104Y8351D02*
G03*
X1811Y7644I707J-707D01*
G01*
X1178Y5945D02*
G03*
X1654Y6142I0J672D01*
G01*
D02*
G03*
X1811Y6522I-380J380D01*
G01*
X394Y15197D02*
X709D01*
X-1181Y14508D02*
X-906D01*
X-199Y14801D02*
X58Y15058D01*
X2795Y12047D02*
Y14764D01*
X787Y15276D02*
X2283D01*
X709Y15197D02*
X787Y15276D01*
X2353Y11693D02*
X2441D01*
X2104Y8351D02*
X2296Y8543D01*
X1811Y6522D02*
Y7644D01*
X20Y5945D02*
X1178D01*
D56*
X-165Y15472D02*
G03*
X0Y15637I0J165D01*
G01*
X-1377Y17323D02*
X-1000D01*
X-1271Y15472D02*
X-165D01*
X-1479Y15680D02*
X-1271Y15472D01*
X-1732Y15591D02*
X-1181Y15039D01*
Y14508D02*
Y15039D01*
X-1479Y15680D02*
Y16002D01*
X-1377Y16103D01*
Y17323D01*
X0Y15637D02*
Y15898D01*
X-1732Y15591D02*
Y16496D01*
D58*
X-2717Y13300D02*
D03*
X-1772Y14059D02*
D03*
Y15059D02*
D03*
D59*
X1280Y7382D02*
D03*
D60*
Y6594D02*
D03*
D61*
X-2323Y6417D02*
D03*
X-591Y4557D02*
D03*
X2756Y7224D02*
D03*
X-1968Y4213D02*
D03*
X-646Y3898D02*
D03*
X-1693Y2933D02*
D03*
X-197Y3602D02*
D03*
X79Y4035D02*
D03*
X-2244Y12957D02*
D03*
X2638Y8780D02*
D03*
X2461Y12087D02*
D03*
X-669Y8071D02*
D03*
X2165Y5886D02*
D03*
X1969Y5571D02*
D03*
X2657Y4665D02*
D03*
X1673Y4262D02*
D03*
X2323Y3051D02*
D03*
D62*
X20Y5945D02*
D03*
X2303Y8543D02*
D03*
D63*
X-630Y13228D02*
D03*
X-945Y13957D02*
D03*
X0Y15898D02*
D03*
X-1377Y17323D02*
D03*
X-1181Y14508D02*
D03*
X-1220Y15787D02*
D03*
X1378Y16890D02*
D03*
X945Y14961D02*
D03*
X-630D02*
D03*
X394Y15197D02*
D03*
D64*
X2353Y11693D02*
D03*
X-1732Y16496D02*
D03*
D65*
X157Y13681D02*
D03*
X-157Y14075D02*
D03*
X157D02*
D03*
X-157Y13681D02*
D03*
X0Y13878D02*
D03*
M02*
