G04*
G04 #@! TF.GenerationSoftware,Altium Limited,Altium Designer,18.1.7 (191)*
G04*
G04 Layer_Physical_Order=1*
G04 Layer_Color=255*
%FSLAX24Y24*%
%MOIN*%
G70*
G01*
G75*
%ADD12C,0.0080*%
%ADD13C,0.0100*%
%ADD14R,0.0197X0.0157*%
%ADD15R,0.0315X0.0217*%
%ADD16R,0.0217X0.0217*%
%ADD17R,0.0157X0.0197*%
%ADD18R,0.0217X0.0217*%
%ADD19R,0.0236X0.1575*%
%ADD20R,0.0315X0.0315*%
%ADD21O,0.0236X0.0079*%
%ADD22O,0.0079X0.0236*%
%ADD23R,0.0606X0.0669*%
%ADD24R,0.0197X0.0472*%
%ADD25R,0.0472X0.0197*%
%ADD26R,0.0315X0.0315*%
%ADD27R,0.0394X0.0236*%
%ADD28R,0.0591X0.1575*%
%ADD29R,0.0591X0.2362*%
%ADD30R,0.0217X0.0335*%
%ADD52C,0.0120*%
%ADD53C,0.0250*%
%ADD54C,0.0250*%
%ADD55C,0.0200*%
%ADD56C,0.0160*%
%ADD57C,0.0300*%
%ADD58C,0.0472*%
%ADD59R,0.0492X0.0492*%
%ADD60C,0.0492*%
%ADD61C,0.0315*%
%ADD62C,0.0260*%
%ADD63C,0.0236*%
%ADD64C,0.0300*%
%ADD65C,0.0157*%
G36*
X-678Y16117D02*
X-681Y16111D01*
X-680Y16107D01*
X-682Y16104D01*
X-678Y16095D01*
Y16042D01*
X-632D01*
X-631Y16041D01*
X-629Y16032D01*
X-627Y16019D01*
X-625Y16003D01*
X-625Y15982D01*
X-622Y15976D01*
Y15917D01*
X-621Y15912D01*
X-639Y15822D01*
X-693Y15742D01*
X-773Y15688D01*
X-863Y15671D01*
X-868Y15672D01*
X-1031D01*
X-1051Y15710D01*
X-1052Y15722D01*
X-1039Y15787D01*
X-1053Y15857D01*
X-1092Y15916D01*
X-1151Y15955D01*
X-1220Y15969D01*
X-1290Y15955D01*
X-1335Y15925D01*
X-1337Y15925D01*
X-1342Y15923D01*
X-1347Y15922D01*
X-1354Y15920D01*
X-1459Y15913D01*
X-1488Y15912D01*
X-1494Y15910D01*
X-2047D01*
Y15910D01*
X-2163Y15899D01*
X-2275Y15865D01*
X-2378Y15810D01*
X-2468Y15736D01*
X-2542Y15646D01*
X-2597Y15543D01*
X-2631Y15431D01*
X-2643Y15315D01*
X-2642D01*
Y13740D01*
X-2633Y13693D01*
X-2606Y13654D01*
X-2095Y13143D01*
X-2116Y13092D01*
X-2128Y13086D01*
X-2148Y13079D01*
X-2148Y13079D01*
X-2244D01*
X-2291Y13070D01*
X-2331Y13043D01*
X-2357Y13003D01*
X-2366Y12957D01*
X-2357Y12910D01*
X-2331Y12870D01*
X-2291Y12843D01*
X-2244Y12834D01*
X-2167D01*
X-2164Y12823D01*
X-2157Y12820D01*
X-2154Y12814D01*
X-2102Y12775D01*
X-2103Y12769D01*
X-2109Y12754D01*
X-2106Y12746D01*
X-2107Y12737D01*
X-2097Y12724D01*
X-2091Y12709D01*
Y12520D01*
X-2082Y12473D01*
X-2055Y12433D01*
X-2015Y12407D01*
X-1968Y12397D01*
X-1922Y12407D01*
X-1882Y12433D01*
X-1882Y12434D01*
X-1832Y12419D01*
Y12270D01*
X-2894Y12270D01*
X-2894Y12270D01*
X-3150D01*
X-3150Y17717D01*
X-1178D01*
Y17435D01*
X-1228Y17420D01*
X-1249Y17451D01*
X-1308Y17491D01*
X-1377Y17504D01*
X-1447Y17491D01*
X-1506Y17451D01*
X-1545Y17392D01*
X-1559Y17323D01*
X-1545Y17253D01*
X-1506Y17194D01*
X-1447Y17155D01*
X-1377Y17141D01*
X-1308Y17155D01*
X-1249Y17194D01*
X-1228Y17226D01*
X-1178Y17211D01*
Y16669D01*
X-1182Y16663D01*
X-1182Y16657D01*
X-1186Y16654D01*
X-1195Y16651D01*
X-1209Y16647D01*
X-1228Y16644D01*
X-1250Y16642D01*
X-1279Y16641D01*
X-1284Y16639D01*
X-1389D01*
X-1394Y16641D01*
X-1499Y16643D01*
X-1549Y16647D01*
X-1567Y16649D01*
X-1580Y16652D01*
X-1587Y16654D01*
X-1588Y16654D01*
X-1589Y16654D01*
X-1594Y16656D01*
X-1594Y16656D01*
X-1650Y16694D01*
X-1732Y16710D01*
X-1814Y16694D01*
X-1884Y16647D01*
X-1930Y16578D01*
X-1946Y16496D01*
X-1930Y16414D01*
X-1884Y16345D01*
X-1814Y16298D01*
X-1732Y16282D01*
X-1650Y16298D01*
X-1594Y16336D01*
X-1594Y16336D01*
X-1589Y16338D01*
X-1588Y16338D01*
X-1587Y16338D01*
X-1580Y16340D01*
X-1569Y16342D01*
X-1432Y16351D01*
X-1395Y16351D01*
X-1390Y16353D01*
X-1284D01*
X-1279Y16351D01*
X-1250Y16350D01*
X-1228Y16348D01*
X-1209Y16345D01*
X-1195Y16342D01*
X-1186Y16338D01*
X-1182Y16335D01*
X-1182Y16329D01*
X-1178Y16323D01*
Y16042D01*
X-822D01*
Y17717D01*
X-678D01*
Y16117D01*
D02*
G37*
G36*
X1476Y16957D02*
X1482Y16956D01*
X1491Y16954D01*
X1503Y16953D01*
X1555Y16951D01*
X1635Y16950D01*
Y16830D01*
X1605Y16830D01*
X1476Y16822D01*
X1474Y16820D01*
Y16959D01*
X1476Y16957D01*
D02*
G37*
G36*
X-1618Y16596D02*
X-1608Y16592D01*
X-1594Y16588D01*
X-1577Y16585D01*
X-1555Y16582D01*
X-1502Y16578D01*
X-1395Y16576D01*
Y16416D01*
X-1435Y16416D01*
X-1577Y16407D01*
X-1594Y16404D01*
X-1608Y16400D01*
X-1618Y16396D01*
X-1625Y16391D01*
Y16601D01*
X-1618Y16596D01*
D02*
G37*
G36*
X-1117Y16336D02*
X-1119Y16351D01*
X-1123Y16365D01*
X-1131Y16377D01*
X-1143Y16387D01*
X-1157Y16396D01*
X-1175Y16403D01*
X-1195Y16409D01*
X-1219Y16413D01*
X-1247Y16415D01*
X-1277Y16416D01*
Y16576D01*
X-1247Y16577D01*
X-1219Y16579D01*
X-1195Y16583D01*
X-1175Y16589D01*
X-1157Y16596D01*
X-1143Y16605D01*
X-1131Y16615D01*
X-1123Y16627D01*
X-1119Y16641D01*
X-1117Y16656D01*
Y16336D01*
D02*
G37*
G36*
X1108Y16104D02*
X1104Y16102D01*
X1101Y16099D01*
X1100Y16094D01*
X1100Y16088D01*
X1101Y16080D01*
X1104Y16071D01*
X1108Y16061D01*
X1114Y16050D01*
X1120Y16037D01*
X988Y16012D01*
X977Y16029D01*
X957Y16059D01*
X947Y16071D01*
X937Y16081D01*
X927Y16090D01*
X918Y16096D01*
X908Y16101D01*
X899Y16104D01*
X889Y16105D01*
X1114D01*
X1108Y16104D01*
D02*
G37*
G36*
X591Y16104D02*
X582Y16101D01*
X575Y16096D01*
X568Y16089D01*
X562Y16079D01*
X558Y16068D01*
X554Y16055D01*
X552Y16040D01*
X551Y16023D01*
X550Y16004D01*
X450D01*
X450Y16023D01*
X448Y16040D01*
X446Y16055D01*
X442Y16068D01*
X437Y16079D01*
X432Y16089D01*
X426Y16096D01*
X418Y16101D01*
X410Y16104D01*
X400Y16105D01*
X600D01*
X591Y16104D01*
D02*
G37*
G36*
X-394Y16102D02*
X-404Y16099D01*
X-412Y16093D01*
X-420Y16084D01*
X-426Y16074D01*
X-431Y16060D01*
X-435Y16045D01*
X-438Y16027D01*
X-439Y16006D01*
X-440Y15984D01*
X-560D01*
X-561Y16006D01*
X-562Y16027D01*
X-565Y16045D01*
X-569Y16060D01*
X-574Y16074D01*
X-580Y16084D01*
X-588Y16093D01*
X-596Y16099D01*
X-606Y16102D01*
X-617Y16104D01*
X-383D01*
X-394Y16102D01*
D02*
G37*
G36*
X822Y16042D02*
X879D01*
X880Y16042D01*
X880Y16042D01*
X880Y16042D01*
X883Y16040D01*
X885Y16040D01*
X888Y16038D01*
X892Y16034D01*
X899Y16028D01*
X905Y16020D01*
X923Y15994D01*
X932Y15979D01*
X943Y15970D01*
X960Y15944D01*
X1012Y15910D01*
X996Y15860D01*
X650D01*
X650Y15860D01*
X623Y15871D01*
X612Y15898D01*
X612Y15898D01*
Y15996D01*
X615Y16002D01*
X615Y16019D01*
X616Y16032D01*
X618Y16042D01*
X618Y16042D01*
X678D01*
Y17717D01*
X822D01*
Y16042D01*
D02*
G37*
G36*
X322D02*
X382D01*
X382Y16042D01*
X384Y16032D01*
X385Y16019D01*
X385Y16002D01*
X388Y15996D01*
Y15898D01*
X388D01*
X397Y15830D01*
X423Y15767D01*
X464Y15712D01*
X472Y15707D01*
X455Y15657D01*
X-36D01*
Y15659D01*
X-122Y15642D01*
X-196Y15593D01*
X-245Y15520D01*
X-257Y15456D01*
X-585D01*
X-602Y15506D01*
X-520Y15569D01*
X-442Y15671D01*
X-393Y15790D01*
X-376Y15917D01*
X-378D01*
Y15976D01*
X-375Y15982D01*
X-375Y16003D01*
X-373Y16019D01*
X-371Y16032D01*
X-369Y16041D01*
X-368Y16042D01*
X-322D01*
Y16095D01*
X-318Y16104D01*
X-320Y16107D01*
X-319Y16111D01*
X-322Y16117D01*
Y17717D01*
X-178D01*
Y16943D01*
X-189Y16890D01*
Y15898D01*
X-174Y15825D01*
X-133Y15764D01*
X-72Y15723D01*
X0Y15709D01*
X72Y15723D01*
X133Y15764D01*
X174Y15825D01*
X189Y15898D01*
Y16890D01*
X178Y16943D01*
Y17717D01*
X322D01*
Y16042D01*
D02*
G37*
G36*
X-1305Y15705D02*
X-1311Y15709D01*
X-1319Y15713D01*
X-1331Y15716D01*
X-1345Y15719D01*
X-1362Y15722D01*
X-1404Y15725D01*
X-1488Y15727D01*
Y15847D01*
X-1457Y15848D01*
X-1345Y15856D01*
X-1331Y15859D01*
X-1319Y15862D01*
X-1311Y15866D01*
X-1305Y15870D01*
Y15705D01*
D02*
G37*
G36*
X1045Y15297D02*
X1062Y15257D01*
X1061Y15254D01*
Y15071D01*
X1055Y15065D01*
X1011Y15049D01*
X988Y15064D01*
X945Y15073D01*
X894D01*
X888Y15076D01*
X871Y15076D01*
X864Y15077D01*
X852Y15084D01*
X847Y15083D01*
X843Y15085D01*
X832Y15104D01*
X829Y15105D01*
X827Y15108D01*
X827Y15109D01*
X806Y15115D01*
X786Y15123D01*
X783Y15121D01*
X779Y15122D01*
X760Y15112D01*
X740Y15104D01*
X739Y15100D01*
X735Y15098D01*
X735Y15098D01*
X729Y15078D01*
X729Y15077D01*
X728Y15076D01*
X728Y15076D01*
X708Y15076D01*
X696Y15070D01*
X666Y15064D01*
X629Y15040D01*
X605Y15004D01*
X597Y14961D01*
X605Y14918D01*
X629Y14881D01*
X666Y14857D01*
X695Y14851D01*
X708Y14846D01*
X728Y14845D01*
X729Y14845D01*
X729Y14844D01*
X735Y14823D01*
X735Y14823D01*
X739Y14821D01*
X740Y14817D01*
X760Y14809D01*
X779Y14799D01*
X779Y14799D01*
X783Y14800D01*
X786Y14799D01*
X786Y14798D01*
X806Y14807D01*
X827Y14813D01*
X829Y14816D01*
X832Y14817D01*
X832Y14817D01*
X843Y14837D01*
X847Y14838D01*
X852Y14837D01*
X864Y14845D01*
X871Y14845D01*
X888Y14846D01*
X894Y14848D01*
X945D01*
X988Y14857D01*
X1011Y14873D01*
X1055Y14856D01*
X1061Y14850D01*
Y14493D01*
X912Y14344D01*
X890Y14311D01*
X882Y14272D01*
Y12843D01*
X879Y12836D01*
X879Y12823D01*
X878Y12816D01*
X742D01*
X740Y12817D01*
X740Y12817D01*
X740Y12817D01*
X738Y12818D01*
X736Y12818D01*
X735Y12820D01*
X731Y12823D01*
X727Y12829D01*
X722Y12836D01*
X717Y12845D01*
X710Y12857D01*
X702Y12865D01*
X697Y12875D01*
X695Y12875D01*
X671Y12920D01*
X581Y13030D01*
X580Y13029D01*
X580Y13029D01*
X545Y13064D01*
X544Y13064D01*
X508Y13118D01*
X496Y13182D01*
X496Y13182D01*
Y13287D01*
X495Y13291D01*
Y13335D01*
X507Y13371D01*
X543Y13383D01*
X669D01*
X708Y13391D01*
X741Y13413D01*
X763Y13445D01*
X771Y13484D01*
X763Y13523D01*
X762Y13524D01*
X744Y13563D01*
X762Y13602D01*
X763Y13603D01*
X771Y13642D01*
X763Y13680D01*
X741Y13713D01*
Y13728D01*
X763Y13760D01*
X771Y13799D01*
X763Y13838D01*
X762Y13839D01*
X744Y13878D01*
X762Y13917D01*
X763Y13918D01*
X771Y13957D01*
X763Y13995D01*
X762Y13997D01*
X744Y14035D01*
X762Y14074D01*
X763Y14075D01*
X771Y14114D01*
X763Y14153D01*
X762Y14154D01*
X744Y14193D01*
X762Y14232D01*
X763Y14233D01*
X771Y14272D01*
X763Y14310D01*
X741Y14343D01*
X708Y14365D01*
X669Y14373D01*
X543D01*
X507Y14385D01*
X495Y14421D01*
Y14547D01*
X487Y14586D01*
X465Y14619D01*
X452Y14628D01*
X440Y14686D01*
X473Y14719D01*
X473Y14719D01*
X497Y14755D01*
X503Y14785D01*
X509Y14798D01*
X509Y14802D01*
X532D01*
Y15042D01*
X535Y15046D01*
X534Y15052D01*
X536Y15058D01*
X532Y15067D01*
Y15084D01*
X561Y15127D01*
X575Y15197D01*
X562Y15263D01*
X562Y15274D01*
X583Y15313D01*
X1002D01*
X1005Y15314D01*
X1045Y15297D01*
D02*
G37*
G36*
X-471Y15012D02*
X-394Y15011D01*
Y14911D01*
X-418Y14911D01*
X-471Y14907D01*
Y14863D01*
X-472Y14872D01*
X-475Y14880D01*
X-480Y14887D01*
X-487Y14894D01*
X-496Y14899D01*
X-507Y14903D01*
X-512Y14904D01*
X-525Y14903D01*
X-528Y14902D01*
Y14908D01*
X-535Y14909D01*
X-552Y14910D01*
X-571Y14911D01*
Y15011D01*
X-552Y15011D01*
X-535Y15013D01*
X-528Y15014D01*
Y15020D01*
X-525Y15018D01*
X-521Y15016D01*
X-517Y15016D01*
X-507Y15018D01*
X-496Y15022D01*
X-487Y15028D01*
X-480Y15034D01*
X-475Y15041D01*
X-472Y15049D01*
X-471Y15058D01*
Y15012D01*
D02*
G37*
G36*
X444Y15139D02*
X446Y15107D01*
X448Y15095D01*
X453D01*
X451Y15092D01*
X450Y15088D01*
X451Y15083D01*
X454Y15074D01*
X457Y15067D01*
X461Y15062D01*
X466Y15059D01*
X471Y15058D01*
X446D01*
X445Y15044D01*
X444Y14961D01*
X344D01*
X344Y14985D01*
X339Y15058D01*
X316D01*
X321Y15059D01*
X326Y15062D01*
X330Y15067D01*
X334Y15074D01*
X337Y15083D01*
X337Y15084D01*
X336Y15092D01*
X335Y15095D01*
X339D01*
X341Y15107D01*
X343Y15122D01*
X344Y15158D01*
X444D01*
X444Y15139D01*
D02*
G37*
G36*
X787Y15049D02*
X790Y15041D01*
X795Y15034D01*
X802Y15028D01*
X811Y15022D01*
X822Y15018D01*
X827Y15017D01*
X840Y15018D01*
X843Y15020D01*
Y15014D01*
X850Y15013D01*
X867Y15011D01*
X886Y15011D01*
Y14911D01*
X867Y14910D01*
X850Y14909D01*
X843Y14908D01*
Y14902D01*
X840Y14903D01*
X836Y14905D01*
X832Y14906D01*
X822Y14903D01*
X811Y14899D01*
X802Y14894D01*
X795Y14887D01*
X790Y14880D01*
X787Y14872D01*
X786Y14863D01*
Y14909D01*
X709Y14911D01*
Y15011D01*
X733Y15011D01*
X786Y15014D01*
Y15058D01*
X787Y15049D01*
D02*
G37*
G36*
X456Y14863D02*
X453Y14861D01*
X451Y14858D01*
X449Y14853D01*
X447Y14847D01*
X446Y14840D01*
X445Y14832D01*
X444Y14811D01*
X444Y14798D01*
X344D01*
X344Y14811D01*
X341Y14840D01*
X340Y14847D01*
X338Y14853D01*
X336Y14858D01*
X334Y14861D01*
X332Y14863D01*
X329Y14863D01*
X459D01*
X456Y14863D01*
D02*
G37*
G36*
X-8Y14863D02*
X-15Y14860D01*
X-20Y14856D01*
X-25Y14851D01*
X-29Y14843D01*
X-33Y14835D01*
X-35Y14824D01*
X-37Y14812D01*
X-38Y14799D01*
X-39Y14783D01*
X-119D01*
X-119Y14799D01*
X-120Y14812D01*
X-122Y14824D01*
X-125Y14835D01*
X-128Y14843D01*
X-132Y14851D01*
X-137Y14856D01*
X-143Y14860D01*
X-149Y14863D01*
X-156Y14863D01*
X-1D01*
X-8Y14863D01*
D02*
G37*
G36*
X-2010Y15427D02*
X-901D01*
X-884Y15377D01*
X-909Y15358D01*
X-963Y15288D01*
X-997Y15206D01*
X-1008Y15118D01*
X-1007D01*
Y14961D01*
X-1008D01*
X-997Y14873D01*
X-963Y14791D01*
X-909Y14721D01*
X-838Y14667D01*
X-757Y14633D01*
X-669Y14621D01*
Y14622D01*
X-551D01*
X-549Y14623D01*
X-511Y14607D01*
X-495Y14569D01*
X-496Y14567D01*
Y14468D01*
X-495Y14465D01*
Y14421D01*
X-504Y14396D01*
X-548Y14375D01*
X-591Y14384D01*
X-591Y14384D01*
X-976D01*
X-982Y14387D01*
X-988Y14387D01*
X-1014Y14438D01*
X-1014Y14438D01*
X-1013Y14438D01*
X-1000Y14508D01*
X-1013Y14577D01*
X-1053Y14636D01*
X-1112Y14676D01*
X-1181Y14689D01*
X-1251Y14676D01*
X-1310Y14636D01*
X-1349Y14577D01*
X-1351Y14565D01*
X-1399Y14550D01*
X-1606Y14757D01*
X-1598Y14819D01*
X-1560Y14848D01*
X-1513Y14910D01*
X-1483Y14982D01*
X-1473Y15059D01*
X-1483Y15136D01*
X-1513Y15208D01*
X-1560Y15270D01*
X-1622Y15318D01*
X-1694Y15348D01*
X-1772Y15358D01*
X-1849Y15348D01*
X-1921Y15318D01*
X-1983Y15270D01*
X-2030Y15208D01*
X-2060Y15136D01*
X-2070Y15059D01*
X-2060Y14982D01*
X-2030Y14910D01*
X-1983Y14848D01*
X-1921Y14800D01*
X-1884Y14785D01*
Y14764D01*
X-1884Y14764D01*
X-1875Y14721D01*
X-1851Y14684D01*
X-1508Y14342D01*
Y14284D01*
X-1558Y14267D01*
X-1560Y14270D01*
X-1622Y14318D01*
X-1694Y14348D01*
X-1772Y14358D01*
X-1849Y14348D01*
X-1921Y14318D01*
X-1983Y14270D01*
X-2030Y14208D01*
X-2060Y14136D01*
X-2070Y14059D01*
X-2060Y13982D01*
X-2030Y13910D01*
X-1983Y13848D01*
X-1921Y13800D01*
X-1888Y13787D01*
X-1887Y13715D01*
X-1881Y13703D01*
X-1875Y13674D01*
X-1851Y13638D01*
X-1075Y12862D01*
X-1094Y12816D01*
X-1249D01*
X-1250Y12821D01*
X-1253Y12855D01*
X-1253Y12876D01*
X-1256Y12882D01*
Y12902D01*
X-1265Y12949D01*
X-1291Y12989D01*
X-2161Y13858D01*
Y15276D01*
X-2161Y15276D01*
X-2150Y15334D01*
X-2117Y15383D01*
X-2068Y15416D01*
X-2010Y15427D01*
X-2010Y15427D01*
D02*
G37*
G36*
X197Y14296D02*
X236Y14288D01*
X275Y14296D01*
X276Y14297D01*
X315Y14315D01*
X354Y14297D01*
X355Y14296D01*
X364Y14294D01*
X410Y14272D01*
X418Y14233D01*
X419Y14232D01*
X437Y14193D01*
X419Y14154D01*
X418Y14153D01*
X410Y14114D01*
X418Y14075D01*
X419Y14074D01*
X437Y14035D01*
X419Y13997D01*
X418Y13995D01*
X410Y13957D01*
X418Y13918D01*
X419Y13917D01*
X437Y13878D01*
X419Y13839D01*
X418Y13838D01*
X410Y13799D01*
X418Y13760D01*
X440Y13728D01*
Y13713D01*
X418Y13680D01*
X410Y13642D01*
X418Y13603D01*
X419Y13602D01*
X437Y13563D01*
X419Y13524D01*
X418Y13523D01*
X410Y13484D01*
X364Y13462D01*
X355Y13460D01*
X354Y13459D01*
X315Y13441D01*
X276Y13459D01*
X275Y13460D01*
X236Y13467D01*
X197Y13460D01*
X165Y13438D01*
X150D01*
X118Y13460D01*
X79Y13467D01*
X40Y13460D01*
X39Y13459D01*
X0Y13441D01*
X-39Y13459D01*
X-40Y13460D01*
X-77Y13467D01*
X-86Y13482D01*
X-103Y13514D01*
X-99Y13526D01*
X-91Y13546D01*
X-93Y13550D01*
X-92Y13553D01*
X-92Y13553D01*
X-102Y13572D01*
X-111Y13592D01*
X-94Y13639D01*
X-85Y13648D01*
X-74Y13646D01*
X-70Y13648D01*
X-65Y13648D01*
X-64Y13648D01*
X-49Y13661D01*
X-47Y13661D01*
X-47Y13662D01*
X-32Y13671D01*
X-30Y13676D01*
X-26Y13680D01*
X-26Y13680D01*
X-25Y13694D01*
X-23Y13696D01*
X-22Y13699D01*
X-21Y13701D01*
X-19Y13704D01*
X-3Y13723D01*
X5Y13729D01*
X11Y13734D01*
X15Y13737D01*
X16Y13737D01*
X18Y13738D01*
X18Y13739D01*
X19Y13739D01*
X21Y13741D01*
X25Y13744D01*
X26Y13745D01*
X45Y13753D01*
X47Y13758D01*
X51Y13761D01*
X56Y13780D01*
X63Y13797D01*
X72Y13806D01*
X94Y13839D01*
X102Y13878D01*
X94Y13917D01*
X72Y13950D01*
X39Y13972D01*
X0Y13980D01*
X-39Y13972D01*
X-72Y13950D01*
X-81Y13941D01*
X-98Y13934D01*
X-117Y13929D01*
X-120Y13925D01*
X-125Y13923D01*
X-132Y13904D01*
X-133Y13903D01*
X-137Y13899D01*
X-139Y13897D01*
X-139Y13896D01*
X-140Y13895D01*
X-141Y13894D01*
X-141Y13893D01*
X-143Y13891D01*
X-188Y13839D01*
X-200Y13826D01*
X-201Y13825D01*
X-223Y13803D01*
X-225Y13797D01*
X-308Y13714D01*
X-330Y13681D01*
X-338Y13642D01*
Y13598D01*
X-340Y13597D01*
X-343Y13592D01*
X-348Y13590D01*
X-348Y13590D01*
X-356Y13572D01*
X-366Y13555D01*
X-366Y13555D01*
X-365Y13549D01*
X-367Y13544D01*
X-367Y13544D01*
X-359Y13526D01*
X-359Y13526D01*
X-359Y13525D01*
X-356Y13511D01*
X-377Y13474D01*
X-385Y13468D01*
X-391Y13467D01*
X-394Y13467D01*
X-432Y13460D01*
X-465Y13493D01*
X-468Y13494D01*
X-469Y13495D01*
X-470Y13497D01*
X-470Y13497D01*
X-471Y13498D01*
X-473Y13538D01*
X-471Y13546D01*
X-459Y13557D01*
X-440Y13570D01*
X-418Y13603D01*
X-410Y13642D01*
X-418Y13680D01*
X-440Y13713D01*
Y13728D01*
X-418Y13760D01*
X-410Y13799D01*
X-418Y13838D01*
X-419Y13839D01*
X-437Y13878D01*
X-419Y13917D01*
X-418Y13918D01*
X-410Y13957D01*
X-418Y13995D01*
X-419Y13997D01*
X-437Y14035D01*
X-419Y14074D01*
X-418Y14075D01*
X-410Y14114D01*
X-418Y14153D01*
X-419Y14154D01*
X-437Y14193D01*
X-419Y14232D01*
X-418Y14233D01*
X-416Y14242D01*
X-394Y14288D01*
X-355Y14296D01*
X-354Y14297D01*
X-315Y14315D01*
X-276Y14297D01*
X-275Y14296D01*
X-236Y14288D01*
X-197Y14296D01*
X-196Y14297D01*
X-157Y14315D01*
X-119Y14297D01*
X-118Y14296D01*
X-79Y14288D01*
X-40Y14296D01*
X-39Y14297D01*
X0Y14315D01*
X39Y14297D01*
X40Y14296D01*
X79Y14288D01*
X118Y14296D01*
X150Y14318D01*
X165D01*
X197Y14296D01*
D02*
G37*
G36*
X-1131Y14430D02*
X-1129Y14413D01*
X-1128Y14406D01*
X-1122D01*
X-1124Y14403D01*
X-1125Y14399D01*
X-1126Y14395D01*
X-1124Y14385D01*
X-1119Y14374D01*
X-1114Y14365D01*
X-1108Y14358D01*
X-1101Y14353D01*
X-1093Y14350D01*
X-1084Y14349D01*
X-1130D01*
X-1131Y14272D01*
X-1231D01*
X-1231Y14296D01*
X-1235Y14349D01*
X-1278D01*
X-1269Y14350D01*
X-1261Y14353D01*
X-1254Y14358D01*
X-1248Y14365D01*
X-1243Y14374D01*
X-1239Y14385D01*
X-1238Y14390D01*
X-1238Y14403D01*
X-1240Y14406D01*
X-1234D01*
X-1233Y14413D01*
X-1232Y14430D01*
X-1231Y14449D01*
X-1131D01*
X-1131Y14430D01*
D02*
G37*
G36*
X-1083Y14344D02*
X-1080Y14339D01*
X-1075Y14335D01*
X-1068Y14332D01*
X-1059Y14329D01*
X-1048Y14326D01*
X-1035Y14324D01*
X-1020Y14323D01*
X-984Y14322D01*
Y14222D01*
X-1003Y14221D01*
X-1035Y14219D01*
X-1048Y14217D01*
X-1059Y14215D01*
X-1068Y14212D01*
X-1075Y14208D01*
X-1080Y14204D01*
X-1083Y14199D01*
X-1084Y14194D01*
Y14349D01*
X-1083Y14344D01*
D02*
G37*
G36*
Y14029D02*
X-1080Y14024D01*
X-1075Y14020D01*
X-1068Y14017D01*
X-1059Y14014D01*
X-1058Y14013D01*
X-1049Y14014D01*
X-1047Y14016D01*
Y14011D01*
X-1035Y14009D01*
X-1020Y14008D01*
X-984Y14007D01*
Y13907D01*
X-1003Y13906D01*
X-1035Y13904D01*
X-1047Y13902D01*
Y13898D01*
X-1049Y13899D01*
X-1054Y13901D01*
X-1059Y13900D01*
X-1068Y13897D01*
X-1075Y13893D01*
X-1080Y13889D01*
X-1083Y13884D01*
X-1084Y13879D01*
Y13904D01*
X-1098Y13905D01*
X-1181Y13907D01*
Y14007D01*
X-1157Y14007D01*
X-1084Y14012D01*
Y14034D01*
X-1083Y14029D01*
D02*
G37*
G36*
X-771Y14114D02*
X-763Y14075D01*
X-762Y14074D01*
X-744Y14035D01*
X-762Y13997D01*
X-763Y13995D01*
X-771Y13957D01*
X-763Y13918D01*
X-762Y13917D01*
X-744Y13878D01*
X-762Y13839D01*
X-763Y13838D01*
X-771Y13799D01*
X-763Y13760D01*
X-741Y13728D01*
Y13713D01*
X-763Y13680D01*
X-771Y13642D01*
X-763Y13603D01*
X-741Y13570D01*
X-722Y13557D01*
X-710Y13546D01*
X-708Y13538D01*
X-710Y13498D01*
X-711Y13497D01*
X-713Y13494D01*
X-716Y13493D01*
X-725Y13473D01*
X-735Y13454D01*
X-735Y13454D01*
X-734Y13450D01*
X-735Y13447D01*
X-735Y13447D01*
X-727Y13427D01*
X-721Y13406D01*
X-729Y13360D01*
X-727Y13336D01*
X-726Y13313D01*
X-725Y13312D01*
X-725Y13311D01*
X-706Y13295D01*
X-706Y13295D01*
X-724Y13267D01*
X-732Y13228D01*
X-726Y13200D01*
X-759Y13174D01*
X-767Y13170D01*
X-1284Y13687D01*
Y13833D01*
X-1234Y13860D01*
X-1224Y13853D01*
X-1195Y13847D01*
X-1182Y13842D01*
X-1135Y13841D01*
X-1132Y13839D01*
X-1130Y13833D01*
X-1130Y13833D01*
X-1112Y13826D01*
X-1096Y13815D01*
X-1090Y13817D01*
X-1084Y13814D01*
X-1084Y13814D01*
X-1066Y13822D01*
X-1047Y13825D01*
X-1044Y13831D01*
X-1038Y13833D01*
X-1038Y13834D01*
X-1027Y13840D01*
X-1000Y13842D01*
X-983Y13842D01*
X-976Y13845D01*
X-945D01*
X-902Y13853D01*
X-866Y13877D01*
X-841Y13914D01*
X-833Y13957D01*
X-841Y14000D01*
X-866Y14036D01*
X-902Y14060D01*
X-945Y14069D01*
X-976D01*
X-982Y14072D01*
X-995Y14072D01*
X-1011Y14088D01*
X-1021Y14127D01*
X-1006Y14156D01*
X-1000Y14156D01*
X-983Y14157D01*
X-976Y14159D01*
X-813D01*
X-771Y14114D01*
D02*
G37*
G36*
X-1719Y13828D02*
X-1720Y13824D01*
X-1720Y13818D01*
X-1722Y13757D01*
X-1722Y13717D01*
X-1822D01*
X-1825Y13829D01*
X-1719D01*
X-1719Y13828D01*
D02*
G37*
G36*
X-1Y13799D02*
X-6Y13799D01*
X-11Y13796D01*
X-18Y13793D01*
X-26Y13787D01*
X-36Y13780D01*
X-49Y13769D01*
X-71Y13744D01*
X-77Y13735D01*
X-81Y13727D01*
X-84Y13720D01*
X-85Y13714D01*
X-84Y13710D01*
X-177Y13757D01*
X-154Y13780D01*
X-154Y13780D01*
X-140Y13795D01*
X-91Y13852D01*
X-85Y13860D01*
X-82Y13867D01*
X-79Y13872D01*
X-79Y13877D01*
X-1Y13799D01*
D02*
G37*
G36*
X-164Y13545D02*
X-171Y13542D01*
X-177Y13538D01*
X-182Y13533D01*
X-186Y13525D01*
X-190Y13516D01*
X-193Y13506D01*
X-195Y13494D01*
X-196Y13480D01*
X-196Y13465D01*
X-276D01*
X-276Y13480D01*
X-279Y13505D01*
X-280Y13516D01*
X-283Y13525D01*
X-285Y13532D01*
X-289Y13537D01*
X-293Y13541D01*
X-297Y13544D01*
X-302Y13545D01*
X-156Y13546D01*
X-164Y13545D01*
D02*
G37*
G36*
X-551Y13481D02*
X-550Y13451D01*
X-550Y13447D01*
X-511D01*
X-518Y13446D01*
X-525Y13443D01*
X-531Y13439D01*
X-536Y13434D01*
X-541Y13426D01*
X-544Y13417D01*
X-547Y13407D01*
X-547Y13404D01*
X-543Y13337D01*
X-541Y13322D01*
X-538Y13310D01*
X-534Y13300D01*
X-531Y13292D01*
X-667Y13341D01*
X-660Y13344D01*
X-654Y13350D01*
X-648Y13358D01*
X-644Y13369D01*
X-640Y13382D01*
X-636Y13398D01*
X-635Y13409D01*
X-637Y13417D01*
X-640Y13426D01*
X-645Y13434D01*
X-650Y13439D01*
X-656Y13443D01*
X-663Y13446D01*
X-670Y13447D01*
X-632D01*
X-631Y13459D01*
X-631Y13484D01*
X-551Y13481D01*
D02*
G37*
G36*
X1250Y16761D02*
X1308Y16722D01*
X1378Y16708D01*
X1447Y16722D01*
X1502Y16759D01*
X1607Y16765D01*
X1635Y16765D01*
X1641Y16767D01*
X1741Y16754D01*
X1839Y16713D01*
X1924Y16648D01*
X1989Y16564D01*
X2030Y16465D01*
X2044Y16362D01*
X2043Y16359D01*
Y12883D01*
X2040Y12877D01*
X2039Y12836D01*
X2038Y12822D01*
X2037Y12816D01*
X1988D01*
X1988Y12817D01*
X1987Y12826D01*
X1985Y12839D01*
X1985Y12856D01*
X1982Y12863D01*
Y15492D01*
X1983D01*
X1971Y15610D01*
X1937Y15724D01*
X1881Y15828D01*
X1806Y15920D01*
X1714Y15995D01*
X1610Y16051D01*
X1496Y16086D01*
X1378Y16097D01*
Y16096D01*
X1226D01*
X1179Y16113D01*
X1178Y16113D01*
Y16778D01*
X1228Y16793D01*
X1250Y16761D01*
D02*
G37*
G36*
X2226Y12852D02*
X2229Y12814D01*
X2231Y12798D01*
X2235Y12785D01*
X2239Y12774D01*
X2244Y12766D01*
X2249Y12760D01*
X2256Y12756D01*
X2263Y12755D01*
X2068D01*
X2075Y12756D01*
X2082Y12760D01*
X2087Y12766D01*
X2092Y12774D01*
X2096Y12785D01*
X2099Y12798D01*
X2102Y12814D01*
X2104Y12832D01*
X2105Y12875D01*
X2225D01*
X2226Y12852D01*
D02*
G37*
G36*
X1921Y12836D02*
X1922Y12819D01*
X1924Y12804D01*
X1928Y12791D01*
X1932Y12780D01*
X1937Y12771D01*
X1943Y12764D01*
X1950Y12759D01*
X1958Y12756D01*
X1967Y12755D01*
X1773D01*
X1782Y12756D01*
X1790Y12759D01*
X1797Y12764D01*
X1803Y12771D01*
X1808Y12780D01*
X1813Y12791D01*
X1816Y12804D01*
X1818Y12819D01*
X1820Y12836D01*
X1820Y12855D01*
X1920D01*
X1921Y12836D01*
D02*
G37*
G36*
X1625D02*
X1627Y12819D01*
X1629Y12804D01*
X1632Y12791D01*
X1637Y12780D01*
X1642Y12771D01*
X1648Y12764D01*
X1655Y12759D01*
X1663Y12756D01*
X1672Y12755D01*
X1478D01*
X1487Y12756D01*
X1495Y12759D01*
X1502Y12764D01*
X1508Y12771D01*
X1513Y12780D01*
X1517Y12791D01*
X1521Y12804D01*
X1523Y12819D01*
X1524Y12836D01*
X1525Y12855D01*
X1625D01*
X1625Y12836D01*
D02*
G37*
G36*
X-525Y12841D02*
X-471Y12793D01*
X-455Y12781D01*
X-441Y12772D01*
X-427Y12764D01*
X-415Y12759D01*
X-404Y12756D01*
X-395Y12755D01*
X-589D01*
X-590Y12757D01*
X-592Y12760D01*
X-595Y12764D01*
X-599Y12770D01*
X-620Y12793D01*
X-652Y12825D01*
X-546Y12861D01*
X-525Y12841D01*
D02*
G37*
G36*
X-824D02*
X-769Y12793D01*
X-753Y12781D01*
X-738Y12772D01*
X-724Y12764D01*
X-712Y12759D01*
X-700Y12756D01*
X-690Y12755D01*
X-885D01*
X-885Y12756D01*
X-887Y12759D01*
X-891Y12763D01*
X-908Y12782D01*
X-951Y12825D01*
X-845Y12861D01*
X-824Y12841D01*
D02*
G37*
G36*
X-1318Y12852D02*
X-1315Y12814D01*
X-1312Y12798D01*
X-1309Y12785D01*
X-1305Y12774D01*
X-1300Y12766D01*
X-1294Y12760D01*
X-1288Y12756D01*
X-1281Y12755D01*
X-1475D01*
X-1468Y12756D01*
X-1462Y12760D01*
X-1456Y12766D01*
X-1451Y12774D01*
X-1447Y12785D01*
X-1444Y12798D01*
X-1441Y12814D01*
X-1439Y12832D01*
X-1438Y12875D01*
X-1318D01*
X-1318Y12852D01*
D02*
G37*
G36*
X-1613D02*
X-1610Y12814D01*
X-1607Y12798D01*
X-1604Y12785D01*
X-1600Y12774D01*
X-1595Y12766D01*
X-1589Y12760D01*
X-1583Y12756D01*
X-1576Y12755D01*
X-1770D01*
X-1763Y12756D01*
X-1757Y12760D01*
X-1751Y12766D01*
X-1747Y12774D01*
X-1743Y12785D01*
X-1739Y12798D01*
X-1737Y12814D01*
X-1735Y12832D01*
X-1733Y12875D01*
X-1613D01*
X-1613Y12852D01*
D02*
G37*
G36*
X1320Y12819D02*
X1321Y12805D01*
X1323Y12793D01*
X1326Y12783D01*
X1330Y12774D01*
X1334Y12766D01*
X1339Y12761D01*
X1345Y12757D01*
X1352Y12754D01*
X1360Y12754D01*
X1200D01*
X1207Y12754D01*
X1214Y12757D01*
X1220Y12761D01*
X1225Y12766D01*
X1230Y12774D01*
X1233Y12783D01*
X1236Y12793D01*
X1238Y12805D01*
X1239Y12819D01*
X1240Y12835D01*
X1320D01*
X1320Y12819D01*
D02*
G37*
G36*
X1025D02*
X1026Y12805D01*
X1028Y12793D01*
X1031Y12783D01*
X1034Y12774D01*
X1039Y12766D01*
X1044Y12761D01*
X1050Y12757D01*
X1057Y12754D01*
X1064Y12754D01*
X904D01*
X912Y12754D01*
X919Y12757D01*
X925Y12761D01*
X930Y12766D01*
X934Y12774D01*
X938Y12783D01*
X941Y12793D01*
X943Y12805D01*
X944Y12819D01*
X944Y12835D01*
X1024D01*
X1025Y12819D01*
D02*
G37*
G36*
X660Y12814D02*
X667Y12801D01*
X675Y12790D01*
X682Y12780D01*
X690Y12772D01*
X698Y12766D01*
X706Y12760D01*
X715Y12757D01*
X723Y12754D01*
X732Y12754D01*
X592Y12755D01*
X591Y12757D01*
X591Y12760D01*
X589Y12765D01*
X584Y12777D01*
X562Y12825D01*
X653Y12828D01*
X660Y12814D01*
D02*
G37*
G36*
X421Y12818D02*
X426Y12804D01*
X430Y12792D01*
X436Y12782D01*
X441Y12773D01*
X447Y12766D01*
X454Y12761D01*
X460Y12757D01*
X468Y12754D01*
X475Y12754D01*
X311D01*
X318Y12754D01*
X324Y12757D01*
X329Y12760D01*
X333Y12766D01*
X335Y12773D01*
X336Y12781D01*
X337Y12791D01*
X336Y12803D01*
X334Y12816D01*
X330Y12831D01*
X417Y12833D01*
X421Y12818D01*
D02*
G37*
G36*
X119Y12819D02*
X120Y12806D01*
X122Y12793D01*
X125Y12783D01*
X129Y12774D01*
X133Y12767D01*
X138Y12761D01*
X144Y12757D01*
X151Y12754D01*
X159Y12754D01*
X1Y12755D01*
X8Y12756D01*
X15Y12758D01*
X20Y12762D01*
X25Y12768D01*
X29Y12775D01*
X33Y12784D01*
X35Y12794D01*
X37Y12806D01*
X38Y12820D01*
X39Y12835D01*
X119D01*
X119Y12819D01*
D02*
G37*
G36*
X-1926Y12873D02*
X-1968Y12830D01*
X-1908D01*
X-1908Y12816D01*
X-1906Y12781D01*
X-1905Y12773D01*
X-1903Y12766D01*
X-1901Y12760D01*
X-1898Y12757D01*
X-1896Y12754D01*
X-1893Y12754D01*
X-2044D01*
X-2041Y12754D01*
X-2039Y12757D01*
X-2036Y12760D01*
X-2034Y12766D01*
X-2032Y12773D01*
X-2031Y12781D01*
X-2030Y12791D01*
X-2029Y12802D01*
X-2115Y12866D01*
X-2105Y13031D01*
X-1926Y12873D01*
D02*
G37*
G36*
X2521Y12413D02*
X2529Y12314D01*
X2533Y12287D01*
X2534Y12285D01*
X2558D01*
X2551Y12283D01*
X2544Y12280D01*
X2539Y12274D01*
X2537Y12271D01*
X2539Y12263D01*
X2545Y12243D01*
X2553Y12225D01*
X2561Y12210D01*
X2571Y12199D01*
X2522D01*
X2521Y12165D01*
X2401D01*
X2400Y12187D01*
X2399Y12199D01*
X2350D01*
X2360Y12210D01*
X2368Y12225D01*
X2376Y12243D01*
X2383Y12263D01*
X2384Y12271D01*
X2382Y12274D01*
X2377Y12280D01*
X2370Y12283D01*
X2363Y12285D01*
X2388D01*
X2388Y12287D01*
X2393Y12314D01*
X2399Y12377D01*
X2400Y12413D01*
X2401Y12453D01*
X2521D01*
X2521Y12413D01*
D02*
G37*
G36*
X3150Y0D02*
X1399D01*
Y1635D01*
X1257D01*
Y1694D01*
X1256Y1700D01*
X1267Y1809D01*
X1301Y1921D01*
X1356Y2024D01*
X1398Y2076D01*
X1431Y2112D01*
X1431Y2112D01*
X1519Y2226D01*
X1574Y2359D01*
X1593Y2501D01*
X1592D01*
Y2592D01*
X1593Y2594D01*
X1596Y2866D01*
X1597Y2877D01*
X1598Y2884D01*
X1596Y2888D01*
X1599Y2895D01*
X1595Y2904D01*
Y3269D01*
X1592D01*
Y3346D01*
X1576Y3428D01*
X1529Y3498D01*
X1524Y3501D01*
X1512Y3531D01*
X1513Y3537D01*
Y3652D01*
X1497Y3734D01*
X1467Y3778D01*
Y3879D01*
X1131D01*
Y3778D01*
X1101Y3734D01*
X1085Y3652D01*
Y3537D01*
X1085D01*
X1102Y3412D01*
X1142Y3313D01*
X1160Y3269D01*
X1160Y3269D01*
X1160Y3269D01*
Y3182D01*
X1151Y3180D01*
X987Y3167D01*
X936Y3166D01*
X929Y3163D01*
X904D01*
X898Y3166D01*
X880Y3167D01*
X868Y3168D01*
X858Y3169D01*
X857Y3169D01*
Y3219D01*
X857Y3219D01*
Y3237D01*
X857D01*
X857Y3269D01*
Y3574D01*
X521D01*
Y3512D01*
X518Y3507D01*
X518Y3502D01*
X518Y3501D01*
X517Y3499D01*
X515Y3495D01*
X511Y3490D01*
X505Y3483D01*
X497Y3477D01*
X473Y3459D01*
X458Y3449D01*
X452Y3441D01*
X443Y3436D01*
X441Y3431D01*
X400Y3399D01*
X335Y3315D01*
X294Y3216D01*
X280Y3110D01*
X280Y3110D01*
X272Y3064D01*
X270Y3059D01*
X260Y3037D01*
X257Y3032D01*
X-99D01*
Y2676D01*
X343D01*
X351Y2673D01*
X361Y2676D01*
X414D01*
Y2727D01*
X418Y2735D01*
X419Y2749D01*
X420Y2761D01*
X426Y2796D01*
X430Y2813D01*
X463Y2910D01*
X473Y2937D01*
X521Y2932D01*
Y2883D01*
X857D01*
Y2933D01*
X858Y2933D01*
X868Y2935D01*
X880Y2936D01*
X898Y2936D01*
X904Y2939D01*
X929D01*
X935Y2936D01*
X1036Y2934D01*
X1117Y2928D01*
X1119Y2927D01*
X1148Y2902D01*
X1157Y2894D01*
X1163Y2594D01*
X1164Y2592D01*
Y2501D01*
X1165Y2498D01*
X1156Y2454D01*
X1156Y2454D01*
X1128Y2416D01*
X1128Y2416D01*
X1001Y2261D01*
X906Y2084D01*
X848Y1893D01*
X828Y1694D01*
X829D01*
Y1635D01*
X688D01*
Y0D01*
X-688D01*
Y2350D01*
X-684Y2357D01*
X-685Y2359D01*
X-684Y2361D01*
X-688Y2370D01*
Y2422D01*
X-706D01*
X-729Y2450D01*
X-735Y2472D01*
X-678Y2541D01*
X-621Y2648D01*
X-586Y2763D01*
X-576Y2872D01*
X-574Y2879D01*
X-572Y2883D01*
X-572Y2925D01*
X-569Y2995D01*
X-566Y3021D01*
X-562Y3041D01*
X-560Y3050D01*
X-531D01*
Y3102D01*
X-527Y3111D01*
X-530Y3119D01*
X-529Y3128D01*
X-531Y3130D01*
Y3406D01*
X-676D01*
X-705Y3426D01*
X-787Y3442D01*
X-869Y3426D01*
X-899Y3406D01*
X-1044D01*
Y3130D01*
X-1046Y3128D01*
X-1045Y3119D01*
X-1048Y3111D01*
X-1044Y3102D01*
Y3050D01*
X-1015D01*
X-1012Y3041D01*
X-1009Y3022D01*
X-1003Y2924D01*
X-1002Y2883D01*
X-1001Y2879D01*
X-1000Y2877D01*
X-1013Y2810D01*
X-1051Y2754D01*
X-1057Y2750D01*
X-1062Y2743D01*
X-1116Y2677D01*
X-1127Y2668D01*
X-1138Y2649D01*
X-1141Y2646D01*
X-1150Y2630D01*
X-1184Y2571D01*
X-1210Y2533D01*
X-1235Y2501D01*
X-1258Y2475D01*
X-1280Y2455D01*
X-1299Y2440D01*
X-1315Y2432D01*
X-1328Y2427D01*
X-1345Y2426D01*
X-1351Y2422D01*
X-1399D01*
Y2370D01*
X-1402Y2361D01*
X-1401Y2357D01*
X-1402Y2354D01*
X-1399Y2348D01*
Y1313D01*
X-1400Y1312D01*
X-1409Y1310D01*
X-1422Y1308D01*
X-1438Y1307D01*
X-1447Y1306D01*
X-1481Y1306D01*
X-1487Y1303D01*
X-1776D01*
X-1780Y1303D01*
X-1936Y1318D01*
X-2089Y1365D01*
X-2231Y1440D01*
X-2352Y1540D01*
X-2354Y1543D01*
X-2357Y1545D01*
X-2421Y1629D01*
X-2463Y1729D01*
X-2477Y1834D01*
X-2476Y1837D01*
Y2699D01*
X-2474Y2705D01*
X-2473Y2726D01*
X-2472Y2743D01*
X-2470Y2756D01*
X-2468Y2765D01*
X-2430D01*
Y2817D01*
X-2426Y2826D01*
X-2428Y2830D01*
X-2427Y2835D01*
X-2430Y2840D01*
Y3069D01*
X-2430Y3101D01*
X-2430Y3151D01*
Y3214D01*
X-2428Y3215D01*
X-2419Y3217D01*
X-2407Y3220D01*
X-2391Y3221D01*
X-2370Y3222D01*
X-2364Y3224D01*
X-2331D01*
X-2326Y3222D01*
X-2285Y3220D01*
X-2271Y3219D01*
X-2265Y3218D01*
Y3188D01*
X-2213D01*
X-2204Y3184D01*
X-2198Y3186D01*
X-2193Y3185D01*
X-2188Y3188D01*
X-2000D01*
X-1987Y3188D01*
X-1950D01*
X-1937Y3188D01*
X-1749D01*
X-1744Y3185D01*
X-1739Y3186D01*
X-1733Y3184D01*
X-1724Y3188D01*
X-1672D01*
Y3218D01*
X-1667Y3219D01*
X-1633Y3221D01*
X-1612Y3222D01*
X-1606Y3224D01*
X-1573D01*
X-1567Y3222D01*
X-1546Y3221D01*
X-1530Y3220D01*
X-1518Y3217D01*
X-1509Y3215D01*
X-1507Y3214D01*
X-1507Y3125D01*
X-1543Y3085D01*
X-1548Y3087D01*
X-1570Y3096D01*
X-1571Y3096D01*
X-1572Y3096D01*
X-1594Y3087D01*
X-1616Y3077D01*
X-1616Y3076D01*
X-1618Y3076D01*
X-1625Y3055D01*
X-1693D01*
X-1740Y3046D01*
X-1779Y3020D01*
X-1806Y2980D01*
X-1815Y2933D01*
X-1806Y2886D01*
X-1779Y2847D01*
X-1740Y2820D01*
X-1693Y2811D01*
X-1625D01*
X-1618Y2791D01*
X-1618Y2790D01*
X-1616Y2790D01*
X-1616Y2789D01*
X-1594Y2780D01*
X-1572Y2770D01*
X-1572Y2770D01*
X-1571Y2770D01*
X-1570Y2770D01*
X-1548Y2779D01*
X-1526Y2787D01*
X-1485Y2774D01*
X-1465Y2769D01*
X-1446Y2761D01*
X-1446Y2761D01*
X-1441Y2763D01*
X-1437Y2762D01*
X-1419Y2772D01*
X-1400Y2780D01*
X-1400Y2780D01*
X-1398Y2784D01*
X-1394Y2787D01*
X-1389Y2807D01*
X-1374Y2808D01*
X-1338Y2808D01*
X-1326Y2813D01*
X-1292Y2820D01*
X-1252Y2847D01*
X-1226Y2886D01*
X-1216Y2933D01*
X-1226Y2980D01*
X-1252Y3020D01*
X-1292Y3046D01*
X-1325Y3053D01*
X-1337Y3058D01*
X-1341Y3058D01*
X-1348Y3069D01*
X-1319Y3119D01*
X-1170D01*
Y3456D01*
X-1327D01*
X-1328Y3456D01*
X-1398Y3470D01*
Y3469D01*
X-1536D01*
X-1559Y3471D01*
X-1562Y3470D01*
X-1566Y3471D01*
X-1572Y3469D01*
X-1606D01*
X-1611Y3471D01*
X-1652Y3473D01*
X-1666Y3474D01*
X-1672Y3475D01*
Y3505D01*
X-1684D01*
X-1686Y3543D01*
X-1686Y3564D01*
X-1689Y3570D01*
Y3622D01*
X-1684Y3670D01*
X-1249D01*
Y3994D01*
X-1249Y4007D01*
Y4044D01*
X-1249Y4062D01*
X-1178Y4067D01*
X-1150Y4068D01*
X-1145Y4070D01*
X-1008D01*
X-1001Y4023D01*
X-1013Y4017D01*
X-1047Y4011D01*
X-1087Y3984D01*
X-1113Y3944D01*
X-1122Y3898D01*
X-1113Y3851D01*
X-1087Y3811D01*
X-1047Y3785D01*
X-1013Y3778D01*
X-1001Y3773D01*
X-942Y3771D01*
X-935Y3769D01*
X-925Y3759D01*
X-925Y3759D01*
X-913Y3760D01*
X-903Y3755D01*
X-890Y3761D01*
X-875Y3761D01*
X-875Y3761D01*
X-870Y3766D01*
X-853Y3764D01*
X-835Y3761D01*
X-823Y3757D01*
X-816Y3754D01*
X-815Y3754D01*
X-813Y3752D01*
X-791Y3743D01*
X-769Y3734D01*
X-767Y3735D01*
X-766Y3734D01*
X-745Y3744D01*
X-723Y3753D01*
X-722Y3754D01*
X-721Y3755D01*
X-713Y3775D01*
X-646D01*
X-599Y3785D01*
X-559Y3811D01*
X-533Y3851D01*
X-523Y3898D01*
X-533Y3944D01*
X-559Y3984D01*
X-599Y4011D01*
X-646Y4020D01*
X-713D01*
X-721Y4040D01*
X-721Y4040D01*
X-722Y4041D01*
X-723Y4042D01*
X-745Y4051D01*
X-766Y4061D01*
X-766Y4061D01*
X-767Y4061D01*
X-769Y4061D01*
X-791Y4052D01*
X-803Y4047D01*
X-837Y4076D01*
X-841Y4083D01*
X-842Y4085D01*
Y4281D01*
X-838Y4290D01*
X-842Y4299D01*
X-842Y4308D01*
X-841Y4311D01*
X-842Y4351D01*
X-850D01*
X-855Y4422D01*
X-855Y4451D01*
X-857Y4456D01*
Y5260D01*
X-857D01*
X-854Y5275D01*
X-808Y5284D01*
X-808Y5284D01*
X-808Y5284D01*
X-447D01*
X-441Y5281D01*
X-438Y5282D01*
X-434Y5281D01*
X-425Y5284D01*
X-373D01*
Y5332D01*
X-370Y5339D01*
X-369Y5342D01*
X-366Y5344D01*
X-357Y5348D01*
X-343Y5351D01*
X-324Y5354D01*
X-301Y5356D01*
X-273Y5357D01*
X-268Y5359D01*
X-254D01*
X-249Y5357D01*
X-220Y5356D01*
X-198Y5354D01*
X-179Y5351D01*
X-165Y5347D01*
X-156Y5344D01*
X-151Y5341D01*
X-151Y5335D01*
X-149Y5331D01*
Y5275D01*
X31D01*
X48Y5225D01*
X-35Y5160D01*
X-35Y5160D01*
X-108Y5065D01*
X-154Y4955D01*
X-169Y4836D01*
X-169D01*
Y4537D01*
X-155Y4465D01*
X-149Y4456D01*
Y4310D01*
X188D01*
Y4456D01*
X194Y4465D01*
X208Y4537D01*
Y4836D01*
X208Y4837D01*
X214Y4867D01*
X231Y4893D01*
X232Y4893D01*
X233Y4895D01*
X272Y4921D01*
X317Y4930D01*
X320Y4929D01*
X1111D01*
Y4815D01*
X1000Y4806D01*
X957Y4806D01*
X953Y4804D01*
X839Y4789D01*
X780Y4765D01*
X599D01*
Y4621D01*
X578Y4588D01*
X572Y4559D01*
X519Y4552D01*
X475Y4619D01*
X473Y4617D01*
X437Y4641D01*
X394Y4650D01*
X351Y4641D01*
X314Y4617D01*
X290Y4580D01*
X282Y4537D01*
X290Y4494D01*
X301Y4478D01*
X302Y4476D01*
X294Y4430D01*
X291Y4424D01*
X287Y4419D01*
X287Y4419D01*
X283Y4409D01*
X279Y4399D01*
X269Y4380D01*
X269Y4380D01*
X270Y4376D01*
X268Y4373D01*
X268Y4373D01*
X276Y4353D01*
X282Y4332D01*
X285Y4330D01*
X287Y4327D01*
X287Y4327D01*
X307Y4318D01*
X313Y4315D01*
X315Y4309D01*
X317Y4299D01*
X318Y4287D01*
X318Y4270D01*
X321Y4263D01*
Y4241D01*
X318Y4235D01*
X317Y4211D01*
X302Y4191D01*
X281Y4177D01*
X273Y4174D01*
X252Y4177D01*
X249Y4179D01*
X248Y4179D01*
X246Y4181D01*
X224Y4190D01*
X202Y4199D01*
X201Y4198D01*
X199Y4199D01*
X178Y4189D01*
X156Y4180D01*
X155Y4179D01*
X154Y4178D01*
X147Y4158D01*
X79D01*
X32Y4148D01*
X-8Y4122D01*
X-34Y4082D01*
X-44Y4035D01*
X-34Y3989D01*
X-8Y3949D01*
X32Y3922D01*
X79Y3913D01*
X147D01*
X154Y3893D01*
X154Y3893D01*
X155Y3892D01*
X156Y3891D01*
X178Y3882D01*
X199Y3872D01*
X199Y3872D01*
X201Y3873D01*
X202Y3872D01*
X224Y3881D01*
X246Y3889D01*
X248Y3892D01*
X249Y3892D01*
X256Y3895D01*
X268Y3898D01*
X284Y3901D01*
X305Y3903D01*
X310Y3892D01*
X315Y3890D01*
X318Y3885D01*
X337Y3881D01*
X356Y3873D01*
X361Y3875D01*
X366Y3874D01*
X383Y3885D01*
X401Y3892D01*
X404Y3898D01*
X408Y3901D01*
X411Y3910D01*
X434Y3910D01*
X446Y3916D01*
X480Y3922D01*
X520Y3949D01*
X524Y3956D01*
X540Y3958D01*
X582Y3952D01*
X609Y3910D01*
Y3877D01*
X652D01*
X676Y3861D01*
X748Y3847D01*
X820Y3861D01*
X844Y3877D01*
X887D01*
Y3910D01*
X922Y3963D01*
X937Y4035D01*
Y4380D01*
X939Y4387D01*
X986Y4426D01*
X1039Y4425D01*
X1101Y4420D01*
X1122Y4417D01*
X1131Y4415D01*
Y4389D01*
X1183D01*
X1192Y4385D01*
X1201Y4389D01*
X1211Y4388D01*
X1212Y4389D01*
X1463D01*
X1472Y4388D01*
X1512Y4377D01*
X1520Y4361D01*
X1529Y4339D01*
X1530Y4338D01*
X1531Y4337D01*
X1531Y4337D01*
X1548Y4331D01*
X1548Y4329D01*
X1551Y4323D01*
Y4262D01*
X1560Y4215D01*
X1587Y4175D01*
X1626Y4149D01*
X1673Y4139D01*
X1720Y4149D01*
X1760Y4175D01*
X1786Y4215D01*
X1796Y4262D01*
Y4323D01*
X1798Y4329D01*
X1798Y4331D01*
X1816Y4337D01*
X1816Y4337D01*
X1816Y4338D01*
X1818Y4339D01*
X1827Y4361D01*
X1834Y4377D01*
X1875Y4388D01*
X1883Y4389D01*
X2216D01*
Y4809D01*
X2286D01*
Y4808D01*
X2396Y4822D01*
X2499Y4865D01*
X2587Y4932D01*
X2655Y5021D01*
X2698Y5124D01*
X2712Y5234D01*
X2711D01*
Y6762D01*
X2713D01*
X2695Y6896D01*
X2643Y7021D01*
X2561Y7128D01*
X2454Y7210D01*
X2329Y7262D01*
X2195Y7280D01*
Y7280D01*
X2193Y7278D01*
X2115Y7288D01*
X2059Y7311D01*
X2069Y7361D01*
X2383D01*
Y7796D01*
X2358D01*
X2347Y7808D01*
X2333Y7846D01*
X2374Y7899D01*
X2405Y7975D01*
X2410Y8011D01*
X2442D01*
Y8121D01*
X2446Y8125D01*
X2496Y8107D01*
Y8039D01*
X2495Y8039D01*
X2495D01*
X2506Y7955D01*
X2539Y7876D01*
X2574Y7830D01*
X2579Y7801D01*
X2578Y7774D01*
X2572Y7754D01*
X2564Y7734D01*
X2564Y7734D01*
X2565Y7730D01*
X2564Y7727D01*
X2574Y7708D01*
X2583Y7688D01*
X2586Y7686D01*
X2588Y7683D01*
X2588Y7683D01*
X2609Y7677D01*
X2613Y7675D01*
X2613Y7675D01*
X2614Y7675D01*
X2628Y7669D01*
X2634D01*
Y7586D01*
X2631Y7580D01*
X2629Y7508D01*
X2628Y7484D01*
X2616Y7479D01*
X2595Y7473D01*
X2595Y7473D01*
X2593Y7470D01*
X2590Y7468D01*
X2582Y7448D01*
X2571Y7429D01*
X2571Y7429D01*
X2572Y7426D01*
X2571Y7423D01*
X2571Y7422D01*
X2579Y7402D01*
X2585Y7382D01*
X2589Y7380D01*
X2590Y7377D01*
X2593Y7347D01*
X2593Y7346D01*
X2593Y7345D01*
X2603Y7323D01*
X2612Y7301D01*
X2613Y7301D01*
X2613Y7300D01*
X2614Y7300D01*
X2634Y7292D01*
Y7224D01*
X2643Y7178D01*
X2669Y7138D01*
X2709Y7111D01*
X2756Y7102D01*
X2803Y7111D01*
X2842Y7138D01*
X2869Y7178D01*
X2878Y7224D01*
Y7292D01*
X2898Y7300D01*
X2899Y7300D01*
X2899Y7301D01*
X2900Y7301D01*
X2909Y7323D01*
X2919Y7345D01*
X2919Y7345D01*
X2919Y7346D01*
X2919Y7347D01*
X2919Y7347D01*
X2922Y7377D01*
X2923Y7380D01*
X2926Y7381D01*
X2926Y7382D01*
X2933Y7402D01*
X2941Y7422D01*
X2941Y7422D01*
X2939Y7426D01*
X2941Y7429D01*
X2930Y7448D01*
X2922Y7468D01*
X2922Y7468D01*
X2919Y7470D01*
X2917Y7473D01*
X2916Y7473D01*
X2896Y7479D01*
X2886Y7483D01*
X2881Y7543D01*
X2881Y7579D01*
X2878Y7585D01*
Y7669D01*
X2880D01*
X2900Y7677D01*
X2921Y7683D01*
X2923Y7687D01*
X2926Y7688D01*
X2926Y7688D01*
X2934Y7708D01*
X2945Y7727D01*
X2945Y7727D01*
X2944Y7731D01*
X2945Y7734D01*
X2945Y7734D01*
X2937Y7754D01*
X2931Y7775D01*
X2927Y7776D01*
X2926Y7780D01*
X2906Y7788D01*
X2887Y7798D01*
X2883Y7799D01*
X2881Y7800D01*
X2877Y7805D01*
X2871Y7812D01*
X2865Y7822D01*
X2858Y7836D01*
X2851Y7852D01*
X2844Y7873D01*
X2835Y7882D01*
X2827Y7902D01*
X2764Y7983D01*
X2764Y7983D01*
X2748Y8009D01*
X2742Y8039D01*
X2740D01*
Y8169D01*
X2731Y8216D01*
X2705Y8256D01*
X2665Y8282D01*
X2618Y8292D01*
X2571Y8282D01*
X2532Y8256D01*
X2505Y8216D01*
X2504Y8211D01*
X2484Y8169D01*
X2483Y8169D01*
X2446Y8198D01*
Y8253D01*
X2448Y8259D01*
X2448Y8292D01*
X2451Y8394D01*
X2453Y8421D01*
X2454Y8426D01*
X2454Y8427D01*
X2482Y8469D01*
X2497Y8543D01*
X2482Y8617D01*
X2466Y8642D01*
X2454Y8731D01*
X2417Y8819D01*
X2360Y8895D01*
X2359Y8895D01*
X2361Y8896D01*
X2360Y8898D01*
X2358Y8947D01*
Y9203D01*
X2388Y9218D01*
X2389Y9219D01*
X2391Y9219D01*
X2404Y9227D01*
X2406Y9228D01*
X2407Y9229D01*
X2418Y9235D01*
X2420Y9238D01*
X2422Y9238D01*
X2431Y9245D01*
X2433Y9248D01*
X2437Y9250D01*
X2438Y9251D01*
X2537D01*
X2552Y9201D01*
X2551Y9201D01*
X2525Y9161D01*
X2518Y9127D01*
X2513Y9115D01*
X2513Y9081D01*
X2498Y9075D01*
X2477Y9069D01*
X2475Y9065D01*
X2472Y9064D01*
X2472Y9064D01*
X2464Y9044D01*
X2453Y9025D01*
X2453Y9025D01*
X2454Y9022D01*
X2453Y9018D01*
X2467Y8977D01*
X2467Y8977D01*
X2472Y8973D01*
X2472Y8972D01*
X2498Y8947D01*
X2497Y8941D01*
X2494Y8932D01*
X2484Y8910D01*
X2484Y8909D01*
X2484Y8909D01*
X2494Y8886D01*
X2503Y8864D01*
X2504Y8864D01*
X2504Y8863D01*
X2504Y8863D01*
X2515Y8859D01*
Y8780D01*
X2525Y8733D01*
X2551Y8693D01*
X2591Y8667D01*
X2638Y8657D01*
X2685Y8667D01*
X2724Y8693D01*
X2751Y8733D01*
X2760Y8780D01*
Y8859D01*
X2772Y8863D01*
X2772Y8863D01*
X2772Y8864D01*
X2772Y8864D01*
X2782Y8886D01*
X2791Y8909D01*
X2791Y8909D01*
X2791Y8910D01*
X2788Y8918D01*
X2804Y8972D01*
X2804Y8973D01*
X2808Y8977D01*
X2808Y8977D01*
X2823Y9018D01*
X2821Y9022D01*
X2822Y9025D01*
X2812Y9044D01*
X2804Y9064D01*
X2800Y9065D01*
X2799Y9069D01*
X2798Y9069D01*
X2778Y9075D01*
X2763Y9081D01*
X2763Y9081D01*
X2763Y9115D01*
X2758Y9127D01*
X2751Y9161D01*
X2724Y9201D01*
X2724Y9201D01*
X2739Y9251D01*
X2934D01*
Y9546D01*
Y9842D01*
Y10137D01*
Y10432D01*
Y10727D01*
Y11023D01*
Y11340D01*
X2358D01*
Y11480D01*
X2435Y11495D01*
X2504Y11542D01*
X2550Y11611D01*
X2567Y11693D01*
X2550Y11775D01*
X2504Y11844D01*
X2435Y11891D01*
X2353Y11907D01*
X2271Y11891D01*
X2201Y11844D01*
X2167Y11793D01*
X2126Y11762D01*
X2075Y11696D01*
X2043Y11618D01*
X2033Y11541D01*
X2032Y11535D01*
Y9199D01*
Y8898D01*
X2033Y8893D01*
X2044Y8812D01*
X2077Y8733D01*
X2126Y8668D01*
X2129Y8664D01*
X2124Y8617D01*
X2109Y8543D01*
X2124Y8469D01*
X2150Y8430D01*
X2158Y8291D01*
X2158Y8259D01*
X2160Y8253D01*
Y8169D01*
X2164Y8149D01*
Y8011D01*
X2145Y7969D01*
X2103Y7914D01*
X2082Y7862D01*
X2072Y7849D01*
X2067Y7832D01*
X2063Y7819D01*
X2059Y7809D01*
X2056Y7801D01*
X2053Y7797D01*
X2052Y7796D01*
X2052Y7796D01*
X2052Y7796D01*
X1948D01*
Y7568D01*
X1898Y7543D01*
X1898Y7543D01*
X1885Y7589D01*
X1885Y7589D01*
X1872Y7720D01*
X1834Y7847D01*
X1771Y7963D01*
X1688Y8065D01*
X1585Y8149D01*
X1469Y8212D01*
X1342Y8250D01*
X1211Y8263D01*
Y8263D01*
X1165Y8273D01*
X1130Y8296D01*
X1117Y8315D01*
X1140Y8365D01*
X1438D01*
Y8958D01*
X-651D01*
Y8763D01*
X-701Y8747D01*
X-701Y8748D01*
X-741Y8774D01*
X-787Y8784D01*
X-834Y8774D01*
X-840Y8771D01*
X-890Y8797D01*
Y12205D01*
X-877Y12223D01*
X2241D01*
X2265Y12210D01*
X2286Y12193D01*
X2296Y12174D01*
X2304Y12153D01*
X2307Y12152D01*
X2309Y12149D01*
X2330Y12143D01*
X2338Y12139D01*
Y12087D01*
X2348Y12040D01*
X2374Y12000D01*
X2414Y11974D01*
X2461Y11964D01*
X2507Y11974D01*
X2547Y12000D01*
X2574Y12040D01*
X2583Y12087D01*
Y12139D01*
X2591Y12143D01*
X2613Y12149D01*
X2614Y12152D01*
X2617Y12153D01*
X2617Y12153D01*
X2625Y12174D01*
X2636Y12193D01*
X2635Y12196D01*
X2636Y12199D01*
X2636Y12199D01*
X2627Y12220D01*
X2621Y12241D01*
X2615Y12248D01*
X2612Y12252D01*
X2615Y12266D01*
X2623Y12284D01*
X2623Y12285D01*
X2621Y12290D01*
X2622Y12295D01*
X2622Y12296D01*
X2611Y12312D01*
X2604Y12331D01*
X2604Y12331D01*
X2599Y12333D01*
X2595Y12338D01*
X2595Y12338D01*
X2592Y12338D01*
X2586Y12416D01*
X2586Y12454D01*
X2583Y12460D01*
Y12520D01*
X2574Y12567D01*
X2547Y12606D01*
X2507Y12633D01*
X2461Y12642D01*
X2414Y12633D01*
X2374Y12606D01*
X2374Y12606D01*
X2324Y12621D01*
Y12739D01*
X2327Y12744D01*
X2325Y12749D01*
X2328Y12755D01*
X2324Y12764D01*
Y12816D01*
X2294D01*
X2293Y12821D01*
X2291Y12855D01*
X2290Y12876D01*
X2288Y12882D01*
Y16359D01*
X2289D01*
X2276Y16487D01*
X2239Y16609D01*
X2178Y16722D01*
X2097Y16821D01*
X1998Y16903D01*
X1885Y16963D01*
X1762Y17000D01*
X1641Y17012D01*
X1635Y17015D01*
X1557Y17016D01*
X1508Y17018D01*
X1506Y17018D01*
X1506Y17018D01*
X1447Y17058D01*
X1378Y17071D01*
X1308Y17058D01*
X1250Y17018D01*
X1228Y16986D01*
X1178Y17001D01*
Y17717D01*
X3150D01*
X3150Y0D01*
D02*
G37*
G36*
X2403Y9312D02*
X2402Y9308D01*
X2398Y9302D01*
X2392Y9297D01*
X2383Y9290D01*
X2373Y9283D01*
X2359Y9276D01*
X2325Y9259D01*
X2282Y9240D01*
X2251Y9445D01*
X2403Y9507D01*
Y9312D01*
D02*
G37*
G36*
X2698Y9079D02*
X2702Y9018D01*
X2758D01*
X2746Y9017D01*
X2736Y9013D01*
X2727Y9007D01*
X2719Y8999D01*
X2713Y8988D01*
X2707Y8975D01*
X2706Y8967D01*
X2708Y8952D01*
X2712Y8936D01*
X2716Y8924D01*
X2721Y8915D01*
X2726Y8910D01*
X2698D01*
X2698Y8897D01*
X2578D01*
X2577Y8910D01*
X2549D01*
X2555Y8915D01*
X2560Y8924D01*
X2564Y8936D01*
X2568Y8952D01*
X2570Y8967D01*
X2568Y8975D01*
X2563Y8988D01*
X2556Y8999D01*
X2548Y9007D01*
X2539Y9013D01*
X2529Y9017D01*
X2518Y9018D01*
X2575D01*
X2578Y9079D01*
X2578Y9114D01*
X2698D01*
X2698Y9079D01*
D02*
G37*
G36*
X1034Y8376D02*
X934D01*
X934Y8428D01*
X1034D01*
X1034Y8376D01*
D02*
G37*
G36*
X-719Y8427D02*
X-721Y8425D01*
X-722Y8421D01*
X-724Y8416D01*
X-725Y8410D01*
X-726Y8402D01*
X-727Y8382D01*
X-727Y8356D01*
X-847D01*
X-847Y8370D01*
X-850Y8410D01*
X-851Y8416D01*
X-852Y8421D01*
X-854Y8425D01*
X-856Y8427D01*
X-858Y8428D01*
X-717D01*
X-719Y8427D01*
D02*
G37*
G36*
X777Y8425D02*
X769Y8422D01*
X762Y8417D01*
X756Y8410D01*
X751Y8401D01*
X747Y8390D01*
X743Y8377D01*
X741Y8362D01*
X739Y8345D01*
X739Y8326D01*
X639D01*
X639Y8345D01*
X637Y8362D01*
X635Y8377D01*
X631Y8390D01*
X627Y8401D01*
X622Y8410D01*
X616Y8417D01*
X609Y8422D01*
X601Y8425D01*
X592Y8426D01*
X786D01*
X777Y8425D01*
D02*
G37*
G36*
X482D02*
X474Y8422D01*
X467Y8417D01*
X461Y8410D01*
X456Y8401D01*
X451Y8390D01*
X448Y8377D01*
X446Y8362D01*
X444Y8345D01*
X444Y8326D01*
X344D01*
X343Y8345D01*
X342Y8362D01*
X339Y8377D01*
X336Y8390D01*
X332Y8401D01*
X327Y8410D01*
X321Y8417D01*
X313Y8422D01*
X305Y8425D01*
X296Y8426D01*
X491D01*
X482Y8425D01*
D02*
G37*
G36*
X2392Y8447D02*
X2390Y8439D01*
X2389Y8429D01*
X2386Y8397D01*
X2383Y8293D01*
X2383Y8259D01*
X2223D01*
X2223Y8293D01*
X2214Y8447D01*
X2212Y8450D01*
X2394D01*
X2392Y8447D01*
D02*
G37*
G36*
X-726Y8327D02*
X-723Y8309D01*
X-718Y8292D01*
X-712Y8277D01*
X-704Y8264D01*
X-695Y8253D01*
X-683Y8243D01*
X-671Y8236D01*
X-656Y8230D01*
X-640Y8226D01*
X-823Y8104D01*
X-822Y8112D01*
X-822Y8122D01*
X-822Y8134D01*
X-824Y8164D01*
X-832Y8224D01*
X-840Y8275D01*
X-727Y8347D01*
X-726Y8327D01*
D02*
G37*
G36*
X2364Y8117D02*
X2362Y8112D01*
X2360Y8107D01*
X2358Y8102D01*
X2357Y8096D01*
X2355Y8089D01*
X2354Y8074D01*
X2353Y8065D01*
X2353Y8056D01*
X2253D01*
X2253Y8065D01*
X2251Y8089D01*
X2250Y8096D01*
X2248Y8102D01*
X2247Y8107D01*
X2245Y8112D01*
X2242Y8117D01*
X2240Y8121D01*
X2367D01*
X2364Y8117D01*
D02*
G37*
G36*
X279Y8336D02*
X279Y8325D01*
X281Y8319D01*
X282Y8318D01*
Y7913D01*
X282Y7912D01*
X275Y7896D01*
X236Y7869D01*
X107Y7856D01*
X-18Y7819D01*
X-133Y7757D01*
X-234Y7675D01*
X-316Y7574D01*
X-378Y7459D01*
X-415Y7334D01*
X-428Y7205D01*
X-428D01*
X-429Y7155D01*
X-439Y7103D01*
X-475Y7050D01*
X-528Y7014D01*
X-590Y7002D01*
X-591Y7002D01*
X-2126D01*
Y7003D01*
X-2263Y6990D01*
X-2395Y6950D01*
X-2517Y6885D01*
X-2624Y6797D01*
X-2711Y6690D01*
X-2776Y6569D01*
X-2816Y6437D01*
X-2830Y6299D01*
X-2829D01*
Y5384D01*
X-2830D01*
X-2817Y5291D01*
X-2781Y5204D01*
X-2724Y5130D01*
X-2716Y5123D01*
X-2715Y5120D01*
X-2708Y5116D01*
X-2704Y5108D01*
X-2688Y5096D01*
X-2676Y5085D01*
X-2666Y5075D01*
X-2658Y5066D01*
X-2651Y5058D01*
X-2647Y5051D01*
X-2644Y5045D01*
X-2642Y5041D01*
X-2642Y5038D01*
X-2641Y5032D01*
X-2639Y5027D01*
Y4970D01*
X-2589D01*
X-2589Y4969D01*
X-2587Y4959D01*
X-2586Y4946D01*
X-2585Y4929D01*
X-2583Y4923D01*
Y4802D01*
X-2585Y4795D01*
X-2586Y4778D01*
X-2587Y4765D01*
X-2589Y4756D01*
X-2589Y4755D01*
X-2688D01*
Y4418D01*
X-2377D01*
X-2362Y4369D01*
X-2387Y4335D01*
X-2470D01*
X-2517Y4326D01*
X-2557Y4299D01*
X-2584Y4259D01*
X-2593Y4213D01*
X-2584Y4166D01*
X-2557Y4126D01*
X-2517Y4100D01*
X-2470Y4090D01*
X-2387D01*
X-2362Y4056D01*
X-2377Y4007D01*
X-2688D01*
Y3670D01*
X-2253D01*
X-2248Y3622D01*
Y3571D01*
X-2251Y3565D01*
X-2252Y3523D01*
X-2253Y3505D01*
X-2265D01*
Y3475D01*
X-2270Y3474D01*
X-2304Y3472D01*
X-2325Y3471D01*
X-2331Y3469D01*
X-2365D01*
X-2371Y3471D01*
X-2372Y3471D01*
X-2373Y3471D01*
X-2434Y3470D01*
X-2435Y3470D01*
X-2437Y3470D01*
X-2457Y3469D01*
X-2539D01*
Y3470D01*
X-2609Y3456D01*
X-2610Y3456D01*
X-2767D01*
Y3151D01*
X-2767Y3119D01*
X-2767Y3069D01*
Y2840D01*
X-2770Y2835D01*
X-2769Y2830D01*
X-2770Y2826D01*
X-2767Y2817D01*
Y2765D01*
X-2729D01*
X-2727Y2757D01*
X-2724Y2725D01*
X-2723Y2705D01*
X-2721Y2699D01*
Y1837D01*
X-2722D01*
X-2709Y1708D01*
X-2671Y1584D01*
X-2610Y1470D01*
X-2528Y1370D01*
X-2528Y1370D01*
X-2401Y1261D01*
X-2259Y1174D01*
X-2104Y1110D01*
X-1942Y1071D01*
X-1776Y1058D01*
Y1059D01*
X-1487D01*
X-1481Y1056D01*
X-1447Y1056D01*
X-1438Y1056D01*
X-1422Y1054D01*
X-1409Y1052D01*
X-1400Y1050D01*
X-1399Y1049D01*
Y0D01*
X-3150D01*
X-3150Y7094D01*
X-3149Y7140D01*
X-1378Y7146D01*
X-955D01*
X-909Y7165D01*
X-890Y7211D01*
Y8016D01*
X-881Y8025D01*
X-840Y8043D01*
X-836Y8040D01*
X-836Y8040D01*
X-834Y8041D01*
X-833Y8040D01*
X-810Y8045D01*
X-806Y8046D01*
X-757Y7983D01*
X-756Y7984D01*
X-716Y7958D01*
X-669Y7949D01*
X-622Y7958D01*
X-583Y7984D01*
X-556Y8024D01*
X-547Y8071D01*
X-556Y8118D01*
X-583Y8157D01*
X-583Y8158D01*
X-599Y8179D01*
X-591Y8191D01*
X-577Y8210D01*
X-577Y8211D01*
X-576Y8213D01*
X-581Y8236D01*
X-584Y8259D01*
X-586Y8260D01*
X-586Y8262D01*
X-605Y8275D01*
X-624Y8289D01*
X-642Y8320D01*
X-643Y8326D01*
X-643Y8327D01*
X-603Y8365D01*
X273D01*
X279Y8336D01*
D02*
G37*
G36*
X2791Y7828D02*
X2799Y7808D01*
X2808Y7791D01*
X2817Y7776D01*
X2827Y7763D01*
X2837Y7752D01*
X2847Y7744D01*
X2858Y7738D01*
X2869Y7735D01*
X2880Y7734D01*
X2628D01*
X2638Y7735D01*
X2646Y7738D01*
X2653Y7744D01*
X2657Y7751D01*
X2660Y7761D01*
X2660Y7773D01*
X2659Y7787D01*
X2656Y7804D01*
X2651Y7822D01*
X2645Y7843D01*
X2783Y7850D01*
X2791Y7828D01*
D02*
G37*
G36*
X2243Y7830D02*
X2239Y7812D01*
X2237Y7796D01*
X2236Y7781D01*
X2236Y7769D01*
X2238Y7758D01*
X2241Y7749D01*
X2246Y7742D01*
X2252Y7738D01*
X2259Y7735D01*
X2268Y7734D01*
X2064D01*
X2073Y7735D01*
X2082Y7738D01*
X2090Y7743D01*
X2098Y7750D01*
X2105Y7759D01*
X2112Y7769D01*
X2119Y7782D01*
X2124Y7797D01*
X2130Y7814D01*
X2135Y7833D01*
X2243Y7830D01*
D02*
G37*
G36*
X883Y8288D02*
X917Y8206D01*
X971Y8136D01*
X1041Y8082D01*
X1123Y8048D01*
X1211Y8037D01*
Y8037D01*
X1259Y8032D01*
X1327Y8023D01*
X1436Y7978D01*
X1529Y7907D01*
X1600Y7814D01*
X1645Y7705D01*
X1654Y7638D01*
X1657Y7589D01*
X1657D01*
X1671Y7480D01*
X1623Y7463D01*
X1616Y7473D01*
X1597Y7509D01*
X1586Y7537D01*
Y7688D01*
X1048D01*
X1042Y7691D01*
X1038Y7690D01*
X1035Y7692D01*
X1026Y7688D01*
X973D01*
Y7640D01*
X970Y7634D01*
X968Y7619D01*
X967Y7614D01*
X963Y7609D01*
X956Y7603D01*
X944Y7595D01*
X925Y7588D01*
X900Y7581D01*
X868Y7576D01*
X831Y7573D01*
X786Y7572D01*
X783Y7570D01*
X704Y7560D01*
X697Y7568D01*
X680Y7607D01*
X743Y7689D01*
X788Y7797D01*
X803Y7913D01*
X801D01*
Y8319D01*
X804Y8325D01*
X804Y8342D01*
X805Y8355D01*
X807Y8364D01*
X807Y8365D01*
X873D01*
X883Y8288D01*
D02*
G37*
G36*
X2816Y7540D02*
X2825Y7422D01*
X2876D01*
X2865Y7421D01*
X2854Y7418D01*
X2845Y7412D01*
X2838Y7403D01*
X2831Y7393D01*
X2835Y7381D01*
X2840Y7366D01*
X2847Y7355D01*
X2854Y7347D01*
X2819D01*
X2818Y7346D01*
X2817Y7325D01*
X2816Y7302D01*
X2696D01*
X2695Y7325D01*
X2694Y7346D01*
X2693Y7347D01*
X2657D01*
X2665Y7355D01*
X2671Y7366D01*
X2677Y7381D01*
X2680Y7393D01*
X2674Y7403D01*
X2667Y7412D01*
X2658Y7418D01*
X2647Y7421D01*
X2636Y7422D01*
X2687D01*
X2690Y7445D01*
X2694Y7505D01*
X2696Y7579D01*
X2816D01*
X2816Y7540D01*
D02*
G37*
G36*
X1035Y7137D02*
X1032Y7160D01*
X1025Y7180D01*
X1012Y7198D01*
X995Y7214D01*
X973Y7227D01*
X946Y7238D01*
X914Y7246D01*
X876Y7252D01*
X834Y7256D01*
X787Y7257D01*
Y7507D01*
X834Y7508D01*
X876Y7512D01*
X914Y7518D01*
X946Y7526D01*
X973Y7537D01*
X995Y7550D01*
X1012Y7566D01*
X1025Y7584D01*
X1032Y7604D01*
X1035Y7627D01*
Y7137D01*
D02*
G37*
G36*
X1515Y7583D02*
X1515Y7553D01*
X1523Y7520D01*
X1538Y7482D01*
X1561Y7440D01*
X1591Y7393D01*
X1629Y7343D01*
X1728Y7230D01*
X1790Y7167D01*
X1643Y6960D01*
X1586Y7015D01*
X1487Y7100D01*
X1444Y7130D01*
X1407Y7152D01*
X1374Y7166D01*
X1345Y7171D01*
X1322Y7169D01*
X1303Y7158D01*
X1289Y7138D01*
X1523Y7609D01*
X1515Y7583D01*
D02*
G37*
G36*
X1908Y7058D02*
X2008Y6990D01*
X2009Y6987D01*
Y6674D01*
X2007Y6680D01*
X2000Y6687D01*
X1989Y6697D01*
X1973Y6709D01*
X1899Y6759D01*
X1784Y6830D01*
X1884Y7072D01*
X1908Y7058D01*
D02*
G37*
G36*
X-2059Y6509D02*
X-2060Y6514D01*
X-2062Y6518D01*
X-2066Y6522D01*
X-2073Y6525D01*
X-2080Y6528D01*
X-2090Y6530D01*
X-2101Y6532D01*
X-2114Y6533D01*
X-2146Y6534D01*
Y6654D01*
X-2129Y6655D01*
X-2101Y6657D01*
X-2090Y6659D01*
X-2080Y6661D01*
X-2073Y6664D01*
X-2066Y6667D01*
X-2062Y6671D01*
X-2060Y6675D01*
X-2059Y6680D01*
Y6509D01*
D02*
G37*
G36*
X-1490Y6685D02*
X-1487Y6676D01*
X-1482Y6669D01*
X-1475Y6662D01*
X-1466Y6657D01*
X-1455Y6652D01*
X-1442Y6649D01*
X-1427Y6646D01*
X-1410Y6645D01*
X-1391Y6644D01*
Y6544D01*
X-1410Y6544D01*
X-1427Y6542D01*
X-1442Y6540D01*
X-1455Y6536D01*
X-1466Y6532D01*
X-1475Y6526D01*
X-1482Y6520D01*
X-1487Y6512D01*
X-1490Y6504D01*
X-1491Y6494D01*
Y6694D01*
X-1490Y6685D01*
D02*
G37*
G36*
X-358Y6443D02*
X-365Y6423D01*
X-401Y6390D01*
X-497Y6312D01*
X-649Y6231D01*
X-814Y6181D01*
X-980Y6165D01*
X-985Y6166D01*
X-1364D01*
X-1370Y6168D01*
X-1391Y6169D01*
X-1408Y6170D01*
X-1422Y6172D01*
X-1430Y6173D01*
Y6212D01*
X-1482D01*
X-1491Y6215D01*
X-1496Y6214D01*
X-1500Y6215D01*
X-1505Y6212D01*
X-1590D01*
X-1607Y6262D01*
X-1581Y6282D01*
X-1529Y6349D01*
X-1525Y6360D01*
X-1517Y6368D01*
X-1510Y6385D01*
X-1504Y6398D01*
X-1499Y6409D01*
X-1494Y6417D01*
X-1490Y6422D01*
X-1488Y6424D01*
X-1485Y6425D01*
X-1484Y6426D01*
X-1484Y6426D01*
X-1430D01*
Y6476D01*
X-1429Y6476D01*
X-1419Y6478D01*
X-1407Y6479D01*
X-1390Y6480D01*
X-1383Y6482D01*
X-453D01*
Y6481D01*
X-392Y6489D01*
X-358Y6443D01*
D02*
G37*
G36*
X-1767Y6763D02*
Y6502D01*
X-1770Y6496D01*
X-1769Y6492D01*
X-1770Y6489D01*
X-1767Y6480D01*
Y6428D01*
X-1810Y6415D01*
X-1812Y6414D01*
X-1909Y6395D01*
X-1993Y6339D01*
X-2048Y6256D01*
X-2057Y6212D01*
X-2121D01*
Y5875D01*
X-1817D01*
X-1785Y5875D01*
Y5875D01*
X-1767D01*
Y5875D01*
X-1505D01*
X-1500Y5872D01*
X-1496Y5873D01*
X-1491Y5871D01*
X-1482Y5875D01*
X-1430D01*
Y5913D01*
X-1423Y5915D01*
X-1390Y5918D01*
X-1370Y5918D01*
X-1364Y5921D01*
X-985D01*
Y5920D01*
X-809Y5934D01*
X-638Y5975D01*
X-475Y6042D01*
X-325Y6134D01*
X-191Y6249D01*
X-191Y6249D01*
X-154Y6282D01*
X-67Y6354D01*
X76Y6430D01*
X232Y6477D01*
X266Y6481D01*
X303Y6447D01*
Y6398D01*
X302D01*
X322Y6247D01*
X380Y6106D01*
X473Y5985D01*
X594Y5892D01*
X735Y5834D01*
X886Y5814D01*
Y5815D01*
X1082D01*
X1084Y5816D01*
X1123Y5808D01*
X1158Y5785D01*
X1181Y5750D01*
X1189Y5710D01*
X1189Y5709D01*
X1189Y5709D01*
Y5627D01*
X1188Y5624D01*
X1185Y5499D01*
X1180Y5443D01*
X1179Y5434D01*
X1160D01*
Y5382D01*
X1157Y5373D01*
X1160Y5364D01*
Y5351D01*
X1140Y5307D01*
X936D01*
Y5729D01*
X599D01*
Y5307D01*
X320D01*
Y5307D01*
X238Y5297D01*
X188Y5340D01*
Y5659D01*
X192Y5668D01*
X191Y5669D01*
X192Y5670D01*
X185Y5851D01*
X199Y5871D01*
X213Y5945D01*
X199Y6019D01*
X157Y6082D01*
X94Y6124D01*
X20Y6139D01*
X-54Y6124D01*
X-117Y6082D01*
X-159Y6019D01*
X-174Y5945D01*
X-159Y5871D01*
X-145Y5850D01*
X-147Y5729D01*
X-149D01*
X-150Y5683D01*
X-181Y5656D01*
X-198Y5650D01*
X-220Y5648D01*
X-249Y5647D01*
X-254Y5645D01*
X-268D01*
X-273Y5647D01*
X-301Y5648D01*
X-324Y5650D01*
X-343Y5652D01*
X-357Y5656D01*
X-366Y5660D01*
X-369Y5662D01*
X-370Y5665D01*
X-373Y5671D01*
Y5719D01*
X-425D01*
X-434Y5723D01*
X-438Y5722D01*
X-441Y5723D01*
X-447Y5719D01*
X-808D01*
Y5639D01*
X-858Y5632D01*
X-951Y5594D01*
X-1031Y5533D01*
X-1092Y5453D01*
X-1130Y5360D01*
X-1143Y5260D01*
X-1143D01*
Y4456D01*
X-1145Y4451D01*
X-1146Y4404D01*
X-1149Y4358D01*
X-1205Y4359D01*
X-1208Y4359D01*
X-1249Y4381D01*
Y4418D01*
X-1249D01*
Y4755D01*
X-1334D01*
X-1335Y4757D01*
X-1338Y4766D01*
X-1340Y4778D01*
X-1341Y4794D01*
X-1342Y4815D01*
X-1344Y4821D01*
Y4952D01*
X-1342Y4958D01*
X-1340Y4999D01*
X-1339Y5012D01*
X-1338Y5019D01*
X-1308D01*
Y5071D01*
X-1304Y5080D01*
X-1307Y5085D01*
X-1305Y5091D01*
X-1308Y5095D01*
Y5296D01*
X-1548D01*
X-1552Y5299D01*
X-1558Y5298D01*
X-1564Y5300D01*
X-1573Y5296D01*
X-1625D01*
Y5274D01*
X-1647Y5273D01*
X-1665Y5272D01*
X-1671Y5270D01*
X-1754D01*
X-1760Y5272D01*
X-1764Y5272D01*
X-1800Y5306D01*
Y5324D01*
X-1800Y5324D01*
Y5660D01*
X-2066D01*
X-2068Y5662D01*
X-2071Y5661D01*
X-2074Y5662D01*
X-2078Y5660D01*
X-2137D01*
Y5608D01*
X-2139Y5604D01*
X-2139Y5600D01*
X-2141Y5598D01*
X-2144Y5594D01*
X-2150Y5589D01*
X-2158Y5583D01*
X-2183Y5568D01*
X-2198Y5560D01*
X-2206Y5550D01*
X-2207Y5549D01*
X-2218Y5544D01*
X-2219Y5540D01*
X-2260Y5508D01*
X-2313Y5440D01*
X-2346Y5361D01*
X-2352Y5310D01*
X-2357Y5310D01*
X-2364Y5310D01*
X-2373Y5306D01*
X-2551D01*
X-2595Y5337D01*
X-2604Y5384D01*
X-2604D01*
Y6299D01*
X-2605Y6303D01*
X-2589Y6423D01*
X-2541Y6539D01*
X-2465Y6638D01*
X-2366Y6715D01*
X-2250Y6763D01*
X-2164Y6774D01*
X-2164Y6774D01*
X-2140Y6727D01*
X-2147Y6719D01*
X-2155Y6716D01*
X-2223Y6707D01*
X-2296Y6677D01*
X-2358Y6629D01*
X-2405Y6567D01*
X-2435Y6495D01*
X-2445Y6417D01*
X-2445D01*
X-2436Y6370D01*
X-2409Y6331D01*
X-2370Y6304D01*
X-2323Y6295D01*
X-2276Y6304D01*
X-2236Y6331D01*
X-2210Y6370D01*
X-2200Y6417D01*
X-2200D01*
X-2186Y6448D01*
X-2153Y6467D01*
X-2105Y6463D01*
X-2099Y6460D01*
X-2096Y6455D01*
X-2077Y6451D01*
X-2076Y6451D01*
X-2076Y6451D01*
X-2075Y6451D01*
X-2059Y6444D01*
X-2059Y6444D01*
X-2053Y6446D01*
X-2047Y6445D01*
X-2031Y6455D01*
X-2013Y6463D01*
X-2010Y6468D01*
X-2005Y6471D01*
X-2005Y6472D01*
X-1953D01*
X-1906Y6481D01*
X-1866Y6508D01*
X-1840Y6548D01*
X-1830Y6594D01*
X-1840Y6641D01*
X-1866Y6681D01*
X-1906Y6708D01*
X-1953Y6717D01*
X-1968D01*
X-1977Y6728D01*
X-1953Y6778D01*
X-1811D01*
X-1767Y6763D01*
D02*
G37*
G36*
X-1504Y6488D02*
X-1513Y6485D01*
X-1522Y6480D01*
X-1531Y6473D01*
X-1539Y6464D01*
X-1547Y6454D01*
X-1555Y6441D01*
X-1563Y6427D01*
X-1570Y6410D01*
X-1577Y6392D01*
X-1694Y6399D01*
X-1688Y6416D01*
X-1684Y6431D01*
X-1681Y6445D01*
X-1680Y6456D01*
X-1680Y6466D01*
X-1682Y6474D01*
X-1686Y6481D01*
X-1691Y6485D01*
X-1697Y6488D01*
X-1705Y6489D01*
X-1494D01*
X-1504Y6488D01*
D02*
G37*
G36*
X-1490Y6141D02*
X-1487Y6133D01*
X-1481Y6126D01*
X-1472Y6120D01*
X-1461Y6115D01*
X-1448Y6111D01*
X-1433Y6108D01*
X-1415Y6105D01*
X-1394Y6104D01*
X-1371Y6103D01*
Y5983D01*
X-1394Y5983D01*
X-1433Y5979D01*
X-1448Y5976D01*
X-1461Y5972D01*
X-1472Y5966D01*
X-1481Y5960D01*
X-1487Y5953D01*
X-1490Y5945D01*
X-1491Y5936D01*
Y6150D01*
X-1490Y6141D01*
D02*
G37*
G36*
X127Y5668D02*
X-87D01*
X-86Y5670D01*
X-85Y5676D01*
X-84Y5686D01*
X-82Y5718D01*
X-80Y5868D01*
X120D01*
X127Y5668D01*
D02*
G37*
G36*
X-2076Y5385D02*
X-2089Y5385D01*
X-2155Y5381D01*
X-2157Y5380D01*
X-2168Y5502D01*
X-2151Y5511D01*
X-2121Y5530D01*
X-2108Y5539D01*
X-2098Y5549D01*
X-2090Y5558D01*
X-2083Y5568D01*
X-2078Y5577D01*
X-2075Y5587D01*
X-2074Y5597D01*
X-2076Y5385D01*
D02*
G37*
G36*
X1503Y5575D02*
X1514Y5413D01*
X1518Y5395D01*
X1523Y5383D01*
X1528Y5375D01*
X1534Y5373D01*
X1222D01*
X1228Y5375D01*
X1233Y5383D01*
X1237Y5395D01*
X1241Y5413D01*
X1245Y5435D01*
X1250Y5495D01*
X1253Y5623D01*
X1503D01*
X1503Y5575D01*
D02*
G37*
G36*
X-433Y5644D02*
X-428Y5631D01*
X-420Y5619D01*
X-409Y5609D01*
X-394Y5601D01*
X-377Y5594D01*
X-356Y5589D01*
X-332Y5585D01*
X-305Y5583D01*
X-274Y5582D01*
Y5422D01*
X-305Y5421D01*
X-332Y5419D01*
X-356Y5415D01*
X-377Y5410D01*
X-394Y5403D01*
X-409Y5395D01*
X-420Y5385D01*
X-428Y5373D01*
X-433Y5360D01*
X-434Y5346D01*
Y5658D01*
X-433Y5644D01*
D02*
G37*
G36*
X-86Y5342D02*
X-88Y5357D01*
X-93Y5371D01*
X-101Y5383D01*
X-112Y5393D01*
X-126Y5402D01*
X-144Y5409D01*
X-165Y5415D01*
X-189Y5419D01*
X-217Y5421D01*
X-247Y5422D01*
Y5582D01*
X-217Y5583D01*
X-189Y5585D01*
X-165Y5589D01*
X-144Y5595D01*
X-126Y5602D01*
X-112Y5611D01*
X-101Y5621D01*
X-93Y5633D01*
X-88Y5647D01*
X-86Y5662D01*
Y5342D01*
D02*
G37*
G36*
X-1860Y5238D02*
X-1857Y5231D01*
X-1852Y5226D01*
X-1845Y5221D01*
X-1836Y5217D01*
X-1825Y5213D01*
X-1812Y5211D01*
X-1797Y5209D01*
X-1780Y5208D01*
X-1761Y5207D01*
Y5107D01*
X-1781Y5107D01*
X-1798Y5105D01*
X-1813Y5103D01*
X-1826Y5099D01*
X-1837Y5095D01*
X-1846Y5089D01*
X-1853Y5083D01*
X-1858Y5075D01*
X-1862Y5067D01*
X-1863Y5057D01*
X-1861Y5245D01*
X-1860Y5238D01*
D02*
G37*
G36*
X-2578Y5245D02*
X-2576Y5037D01*
X-2577Y5048D01*
X-2580Y5060D01*
X-2584Y5072D01*
X-2590Y5083D01*
X-2598Y5095D01*
X-2608Y5108D01*
X-2619Y5120D01*
X-2632Y5133D01*
X-2647Y5146D01*
X-2663Y5159D01*
X-2644Y5293D01*
X-2578Y5245D01*
D02*
G37*
G36*
X786Y7192D02*
X831Y7191D01*
X868Y7188D01*
X900Y7182D01*
X925Y7176D01*
X944Y7168D01*
X956Y7161D01*
X963Y7155D01*
X967Y7150D01*
X968Y7145D01*
X970Y7130D01*
X973Y7124D01*
Y7076D01*
X1026D01*
X1035Y7072D01*
X1038Y7074D01*
X1042Y7072D01*
X1048Y7076D01*
X1292D01*
X1299Y7074D01*
X1302Y7076D01*
X1409D01*
X1409Y7076D01*
X1447Y7049D01*
X1542Y6967D01*
X1597Y6914D01*
X1600Y6912D01*
X1604Y6909D01*
X1605Y6907D01*
X1606Y6907D01*
X1662Y6850D01*
X1664Y6849D01*
X1742Y6785D01*
X1750Y6775D01*
X1864Y6704D01*
X1935Y6656D01*
X1948Y6646D01*
X1948Y6646D01*
Y6613D01*
X2000D01*
X2009Y6609D01*
X2018Y6613D01*
X2383D01*
Y6909D01*
X2433Y6926D01*
X2447Y6907D01*
X2476Y6837D01*
X2486Y6762D01*
X2486D01*
Y5234D01*
X2487Y5231D01*
X2472Y5157D01*
X2428Y5091D01*
X2363Y5048D01*
X2288Y5033D01*
X2286Y5033D01*
X2165D01*
Y5036D01*
X2076Y5018D01*
X2001Y4968D01*
X1950Y4892D01*
X1941Y4843D01*
X1879D01*
Y4533D01*
X1829Y4508D01*
X1803Y4527D01*
X1799Y4581D01*
X1798Y4617D01*
X1793Y4629D01*
X1786Y4663D01*
X1760Y4703D01*
X1720Y4729D01*
X1673Y4738D01*
X1626Y4729D01*
X1587Y4703D01*
X1560Y4663D01*
X1554Y4629D01*
X1548Y4618D01*
X1547Y4546D01*
X1545Y4526D01*
X1535Y4519D01*
X1476Y4537D01*
X1473Y4544D01*
X1488Y4616D01*
Y4999D01*
X1595D01*
Y5364D01*
X1599Y5373D01*
X1595Y5382D01*
Y5434D01*
X1578D01*
X1568Y5578D01*
X1568Y5623D01*
X1566Y5626D01*
Y5709D01*
X1567D01*
X1550Y5834D01*
X1502Y5951D01*
X1425Y6051D01*
X1324Y6128D01*
X1208Y6177D01*
X1082Y6193D01*
Y6193D01*
X886D01*
X879Y6191D01*
X806Y6206D01*
X739Y6251D01*
X694Y6318D01*
X679Y6391D01*
X681Y6398D01*
Y6614D01*
Y7087D01*
X680Y7088D01*
X688Y7128D01*
X711Y7163D01*
X746Y7186D01*
X783Y7193D01*
X786Y7192D01*
D02*
G37*
G36*
X-2271Y5124D02*
X-2289Y5114D01*
X-2318Y5095D01*
X-2330Y5085D01*
X-2340Y5076D01*
X-2349Y5066D01*
X-2355Y5057D01*
X-2360Y5048D01*
X-2362Y5039D01*
X-2363Y5031D01*
Y5245D01*
X-2354Y5245D01*
X-2331Y5247D01*
X-2324Y5248D01*
X-2311Y5251D01*
X-2306Y5252D01*
X-2301Y5254D01*
X-2296Y5256D01*
X-2271Y5124D01*
D02*
G37*
G36*
X-1564Y5080D02*
X-1369D01*
X-1376Y5079D01*
X-1383Y5075D01*
X-1388Y5069D01*
X-1393Y5061D01*
X-1397Y5050D01*
X-1401Y5037D01*
X-1403Y5021D01*
X-1405Y5003D01*
X-1407Y4960D01*
X-1527D01*
X-1527Y4983D01*
X-1530Y5021D01*
X-1532Y5037D01*
X-1536Y5050D01*
X-1540Y5061D01*
X-1545Y5069D01*
X-1550Y5075D01*
X-1557Y5079D01*
X-1564Y5080D01*
X-1565Y5085D01*
X-1568Y5090D01*
X-1573Y5094D01*
X-1580Y5098D01*
X-1589Y5101D01*
X-1600Y5103D01*
X-1613Y5105D01*
X-1628Y5106D01*
X-1664Y5107D01*
Y5207D01*
X-1645Y5208D01*
X-1613Y5210D01*
X-1600Y5212D01*
X-1589Y5214D01*
X-1580Y5217D01*
X-1573Y5221D01*
X-1568Y5225D01*
X-1565Y5230D01*
X-1564Y5235D01*
Y5080D01*
D02*
G37*
G36*
X-2380Y5031D02*
X-2388Y5028D01*
X-2396Y5023D01*
X-2402Y5016D01*
X-2408Y5007D01*
X-2412Y4996D01*
X-2416Y4982D01*
X-2418Y4967D01*
X-2420Y4950D01*
X-2420Y4931D01*
X-2520D01*
X-2521Y4950D01*
X-2522Y4967D01*
X-2525Y4982D01*
X-2528Y4996D01*
X-2533Y5007D01*
X-2538Y5016D01*
X-2545Y5023D01*
X-2552Y5028D01*
X-2561Y5031D01*
X-2570Y5032D01*
X-2370D01*
X-2380Y5031D01*
D02*
G37*
G36*
X-1406Y4791D02*
X-1404Y4770D01*
X-1401Y4752D01*
X-1397Y4736D01*
X-1392Y4723D01*
X-1385Y4712D01*
X-1377Y4703D01*
X-1368Y4697D01*
X-1358Y4694D01*
X-1347Y4692D01*
X-1587D01*
X-1575Y4694D01*
X-1565Y4697D01*
X-1556Y4703D01*
X-1548Y4712D01*
X-1542Y4723D01*
X-1536Y4736D01*
X-1532Y4752D01*
X-1529Y4770D01*
X-1527Y4791D01*
X-1527Y4814D01*
X-1407D01*
X-1406Y4791D01*
D02*
G37*
G36*
X-2420Y4774D02*
X-2418Y4757D01*
X-2416Y4742D01*
X-2412Y4729D01*
X-2408Y4718D01*
X-2402Y4709D01*
X-2396Y4702D01*
X-2388Y4697D01*
X-2380Y4693D01*
X-2370Y4692D01*
X-2570D01*
X-2561Y4693D01*
X-2552Y4697D01*
X-2545Y4702D01*
X-2538Y4709D01*
X-2533Y4718D01*
X-2528Y4729D01*
X-2525Y4742D01*
X-2522Y4757D01*
X-2521Y4774D01*
X-2520Y4794D01*
X-2420D01*
X-2420Y4774D01*
D02*
G37*
G36*
X1192Y4450D02*
X1190Y4458D01*
X1183Y4465D01*
X1171Y4471D01*
X1155Y4476D01*
X1134Y4481D01*
X1108Y4485D01*
X1042Y4489D01*
X958Y4491D01*
Y4741D01*
X1002Y4742D01*
X1134Y4751D01*
X1155Y4756D01*
X1171Y4761D01*
X1183Y4767D01*
X1190Y4774D01*
X1192Y4782D01*
Y4450D01*
D02*
G37*
G36*
X1734Y4578D02*
X1743Y4458D01*
X1744Y4450D01*
X1780D01*
X1771Y4449D01*
X1763Y4445D01*
X1756Y4439D01*
X1750Y4431D01*
X1749Y4429D01*
X1752Y4418D01*
X1758Y4404D01*
X1764Y4393D01*
X1772Y4385D01*
X1737D01*
X1735Y4373D01*
X1734Y4353D01*
X1733Y4330D01*
X1613D01*
X1613Y4353D01*
X1610Y4385D01*
X1575D01*
X1582Y4393D01*
X1589Y4404D01*
X1594Y4418D01*
X1597Y4429D01*
X1596Y4431D01*
X1590Y4439D01*
X1583Y4445D01*
X1575Y4449D01*
X1566Y4450D01*
X1602D01*
X1604Y4458D01*
X1607Y4483D01*
X1612Y4543D01*
X1613Y4616D01*
X1733D01*
X1734Y4578D01*
D02*
G37*
G36*
X-920Y4420D02*
X-912Y4305D01*
X-909Y4297D01*
X-906Y4292D01*
X-903Y4290D01*
X-1097D01*
X-1094Y4292D01*
X-1091Y4297D01*
X-1088Y4305D01*
X-1086Y4316D01*
X-1084Y4330D01*
X-1082Y4369D01*
X-1080Y4450D01*
X-920D01*
X-920Y4420D01*
D02*
G37*
G36*
X-2081Y4102D02*
X-2092Y4112D01*
X-2107Y4120D01*
X-2124Y4128D01*
X-2145Y4135D01*
X-2169Y4140D01*
X-2196Y4145D01*
X-2246Y4149D01*
X-2255Y4148D01*
X-2271Y4145D01*
X-2284Y4141D01*
X-2295Y4136D01*
X-2303Y4130D01*
X-2309Y4122D01*
X-2313Y4114D01*
X-2314Y4106D01*
Y4152D01*
X-2335Y4153D01*
Y4273D01*
X-2314Y4273D01*
Y4320D01*
X-2313Y4311D01*
X-2309Y4303D01*
X-2303Y4296D01*
X-2295Y4290D01*
X-2284Y4284D01*
X-2271Y4280D01*
X-2255Y4277D01*
X-2252Y4276D01*
X-2196Y4281D01*
X-2169Y4285D01*
X-2145Y4291D01*
X-2124Y4297D01*
X-2107Y4305D01*
X-2092Y4313D01*
X-2081Y4323D01*
Y4102D01*
D02*
G37*
G36*
X501Y4371D02*
X497Y4370D01*
X494Y4367D01*
X492Y4362D01*
X489Y4355D01*
X487Y4346D01*
X486Y4335D01*
X484Y4307D01*
X483Y4271D01*
X383D01*
X383Y4290D01*
X381Y4308D01*
X379Y4323D01*
X375Y4336D01*
X371Y4347D01*
X365Y4356D01*
X359Y4363D01*
X351Y4368D01*
X343Y4371D01*
X333Y4372D01*
X501Y4371D01*
D02*
G37*
G36*
X483Y4214D02*
X486Y4182D01*
X487Y4169D01*
X490Y4158D01*
X493Y4149D01*
X497Y4142D01*
X501Y4137D01*
X505Y4134D01*
X511Y4133D01*
X356D01*
X361Y4134D01*
X365Y4137D01*
X370Y4142D01*
X373Y4149D01*
X376Y4158D01*
X379Y4169D01*
X381Y4182D01*
X382Y4197D01*
X383Y4233D01*
X483D01*
X483Y4214D01*
D02*
G37*
G36*
X-1309Y4315D02*
X-1304Y4310D01*
X-1296Y4306D01*
X-1285Y4302D01*
X-1270Y4299D01*
X-1253Y4297D01*
X-1208Y4294D01*
X-1150Y4293D01*
Y4133D01*
X-1181Y4132D01*
X-1270Y4126D01*
X-1285Y4123D01*
X-1296Y4119D01*
X-1304Y4115D01*
X-1309Y4111D01*
X-1310Y4106D01*
Y4320D01*
X-1309Y4315D01*
D02*
G37*
G36*
X-2137Y5106D02*
Y4970D01*
X-1800D01*
Y5039D01*
X-1799Y5039D01*
X-1790Y5041D01*
X-1777Y5042D01*
X-1760Y5043D01*
X-1754Y5045D01*
X-1672D01*
X-1666Y5043D01*
X-1632Y5042D01*
X-1625Y5041D01*
Y5019D01*
X-1595D01*
X-1594Y5013D01*
X-1592Y4980D01*
X-1591Y4959D01*
X-1589Y4953D01*
Y4821D01*
X-1591Y4815D01*
X-1592Y4794D01*
X-1593Y4778D01*
X-1595Y4766D01*
X-1598Y4757D01*
X-1599Y4755D01*
X-1684D01*
Y4418D01*
X-1684D01*
Y4381D01*
X-1684D01*
Y4057D01*
X-1684Y4044D01*
Y4007D01*
X-1684Y3994D01*
Y3959D01*
X-1741Y3952D01*
X-1803Y3926D01*
X-1857Y3885D01*
X-1898Y3831D01*
X-1924Y3768D01*
X-1933Y3703D01*
X-1933Y3701D01*
Y3571D01*
X-1936Y3565D01*
X-1936Y3550D01*
X-1950Y3536D01*
X-1973Y3539D01*
X-2001Y3556D01*
X-2001Y3564D01*
X-2004Y3570D01*
Y3701D01*
X-2004Y3703D01*
X-2013Y3768D01*
X-2039Y3831D01*
X-2080Y3885D01*
X-2134Y3926D01*
X-2196Y3952D01*
X-2253Y3959D01*
Y4007D01*
X-2253D01*
X-2259Y4057D01*
X-2259Y4057D01*
X-2235Y4083D01*
X-2204Y4080D01*
X-2182Y4076D01*
X-2162Y4072D01*
X-2147Y4067D01*
X-2136Y4062D01*
X-2130Y4059D01*
X-2123Y4053D01*
X-2101Y4046D01*
X-2081Y4038D01*
X-2081Y4037D01*
X-2078Y4039D01*
X-2075Y4038D01*
X-2056Y4048D01*
X-2035Y4056D01*
X-2034Y4059D01*
X-2031Y4061D01*
X-2025Y4082D01*
X-2021Y4090D01*
X-1968D01*
X-1922Y4100D01*
X-1882Y4126D01*
X-1855Y4166D01*
X-1846Y4213D01*
X-1855Y4259D01*
X-1882Y4299D01*
X-1922Y4326D01*
X-1968Y4335D01*
X-2021D01*
X-2025Y4343D01*
X-2031Y4365D01*
X-2034Y4366D01*
X-2035Y4369D01*
X-2035Y4369D01*
X-2056Y4377D01*
X-2075Y4388D01*
X-2078Y4387D01*
X-2081Y4388D01*
X-2081Y4388D01*
X-2101Y4379D01*
X-2123Y4373D01*
X-2130Y4367D01*
X-2136Y4363D01*
X-2147Y4358D01*
X-2162Y4353D01*
X-2182Y4349D01*
X-2204Y4345D01*
X-2234Y4343D01*
X-2257Y4368D01*
X-2253Y4418D01*
X-2253D01*
Y4755D01*
X-2352D01*
X-2352Y4756D01*
X-2354Y4765D01*
X-2355Y4778D01*
X-2356Y4795D01*
X-2358Y4802D01*
Y4923D01*
X-2356Y4929D01*
X-2355Y4946D01*
X-2354Y4959D01*
X-2352Y4969D01*
X-2352Y4970D01*
X-2302D01*
Y5018D01*
X-2302Y5019D01*
X-2301Y5020D01*
X-2300Y5022D01*
X-2299Y5024D01*
X-2299Y5024D01*
X-2298Y5026D01*
X-2294Y5030D01*
X-2288Y5036D01*
X-2280Y5042D01*
X-2255Y5059D01*
X-2239Y5067D01*
X-2230Y5079D01*
X-2222Y5084D01*
X-2217Y5087D01*
X-2217Y5088D01*
X-2203Y5097D01*
X-2193Y5112D01*
X-2184Y5121D01*
X-2137Y5106D01*
D02*
G37*
G36*
X-769Y3799D02*
X-776Y3807D01*
X-788Y3813D01*
X-802Y3819D01*
X-820Y3824D01*
X-842Y3828D01*
X-867Y3831D01*
X-878Y3832D01*
X-884Y3831D01*
X-892Y3829D01*
X-898Y3826D01*
X-902Y3823D01*
X-903Y3820D01*
Y3834D01*
X-927Y3836D01*
X-1000Y3838D01*
Y3958D01*
X-962Y3958D01*
X-903Y3963D01*
Y3975D01*
X-902Y3972D01*
X-898Y3969D01*
X-892Y3966D01*
X-884Y3964D01*
X-842Y3967D01*
X-820Y3971D01*
X-802Y3976D01*
X-788Y3982D01*
X-776Y3989D01*
X-769Y3996D01*
Y3799D01*
D02*
G37*
G36*
X210Y4127D02*
X221Y4120D01*
X235Y4114D01*
X253Y4109D01*
X275Y4105D01*
X300Y4102D01*
X309Y4101D01*
X312Y4101D01*
X326Y4105D01*
X336Y4109D01*
X345Y4114D01*
X351Y4119D01*
X354Y4126D01*
X356Y4133D01*
Y4097D01*
X360Y4097D01*
X433Y4095D01*
Y3975D01*
X395Y3975D01*
X356Y3972D01*
Y3938D01*
X354Y3945D01*
X351Y3952D01*
X345Y3957D01*
X336Y3962D01*
X326Y3966D01*
X315Y3969D01*
X275Y3966D01*
X253Y3962D01*
X235Y3957D01*
X221Y3951D01*
X210Y3944D01*
X202Y3937D01*
Y4134D01*
X210Y4127D01*
D02*
G37*
G36*
X-1751Y3541D02*
X-1747Y3474D01*
X-1745Y3463D01*
X-1742Y3454D01*
X-1740Y3448D01*
X-1737Y3445D01*
X-1733Y3444D01*
X-1889D01*
X-1885Y3445D01*
X-1882Y3448D01*
X-1880Y3454D01*
X-1877Y3463D01*
X-1875Y3474D01*
X-1874Y3487D01*
X-1872Y3520D01*
X-1871Y3564D01*
X-1751D01*
X-1751Y3541D01*
D02*
G37*
G36*
X-2066D02*
X-2062Y3474D01*
X-2060Y3463D01*
X-2057Y3454D01*
X-2055Y3448D01*
X-2052Y3445D01*
X-2048Y3444D01*
X-2204D01*
X-2200Y3445D01*
X-2197Y3448D01*
X-2195Y3454D01*
X-2192Y3463D01*
X-2190Y3474D01*
X-2189Y3487D01*
X-2187Y3520D01*
X-2186Y3564D01*
X-2066D01*
X-2066Y3541D01*
D02*
G37*
G36*
X582Y3298D02*
X581Y3302D01*
X579Y3303D01*
X575Y3304D01*
X569Y3303D01*
X562Y3301D01*
X554Y3298D01*
X543Y3293D01*
X518Y3279D01*
X503Y3270D01*
X493Y3394D01*
X510Y3405D01*
X539Y3427D01*
X550Y3437D01*
X560Y3448D01*
X568Y3459D01*
X575Y3470D01*
X579Y3480D01*
X582Y3491D01*
X583Y3501D01*
X582Y3298D01*
D02*
G37*
G36*
X-1732Y3437D02*
X-1729Y3430D01*
X-1723Y3425D01*
X-1714Y3420D01*
X-1703Y3416D01*
X-1690Y3412D01*
X-1675Y3410D01*
X-1657Y3408D01*
X-1613Y3406D01*
Y3286D01*
X-1636Y3286D01*
X-1675Y3283D01*
X-1690Y3280D01*
X-1703Y3277D01*
X-1714Y3273D01*
X-1723Y3268D01*
X-1729Y3263D01*
X-1732Y3256D01*
X-1733Y3249D01*
Y3444D01*
X-1732Y3437D01*
D02*
G37*
G36*
X-2204Y3249D02*
X-2205Y3256D01*
X-2208Y3263D01*
X-2214Y3268D01*
X-2223Y3273D01*
X-2234Y3277D01*
X-2247Y3280D01*
X-2262Y3283D01*
X-2280Y3285D01*
X-2324Y3286D01*
Y3406D01*
X-2301Y3407D01*
X-2262Y3410D01*
X-2247Y3412D01*
X-2234Y3416D01*
X-2223Y3420D01*
X-2214Y3425D01*
X-2208Y3430D01*
X-2205Y3437D01*
X-2204Y3444D01*
Y3249D01*
D02*
G37*
G36*
X-1446Y3394D02*
X-1444Y3226D01*
X-1446Y3238D01*
X-1449Y3248D01*
X-1456Y3257D01*
X-1464Y3265D01*
X-1475Y3271D01*
X-1488Y3277D01*
X-1504Y3281D01*
X-1522Y3284D01*
X-1543Y3286D01*
X-1566Y3286D01*
Y3406D01*
X-1446Y3394D01*
D02*
G37*
G36*
X-2371Y3286D02*
X-2394Y3286D01*
X-2415Y3284D01*
X-2433Y3281D01*
X-2449Y3277D01*
X-2462Y3271D01*
X-2473Y3265D01*
X-2481Y3257D01*
X-2488Y3248D01*
X-2491Y3238D01*
X-2493Y3226D01*
X-2491Y3394D01*
X-2490Y3397D01*
X-2487Y3399D01*
X-2481Y3401D01*
X-2472Y3402D01*
X-2461Y3403D01*
X-2433Y3405D01*
X-2371Y3406D01*
Y3286D01*
D02*
G37*
G36*
X1272Y2945D02*
X1258Y2956D01*
X1241Y2965D01*
X1223Y2972D01*
Y2951D01*
X1222Y2961D01*
X1219Y2969D01*
X1215Y2974D01*
X1191Y2981D01*
X1160Y2987D01*
X1124Y2992D01*
X1039Y2999D01*
X937Y3001D01*
Y3101D01*
X990Y3102D01*
X1160Y3115D01*
X1191Y3121D01*
X1215Y3128D01*
X1219Y3133D01*
X1222Y3142D01*
X1223Y3151D01*
Y3130D01*
X1241Y3137D01*
X1258Y3147D01*
X1272Y3157D01*
Y2945D01*
D02*
G37*
G36*
X-1446Y2997D02*
X-1412Y2995D01*
X-1339Y2993D01*
Y2873D01*
X-1377Y2873D01*
X-1446Y2867D01*
Y2826D01*
X-1447Y2835D01*
X-1450Y2843D01*
X-1456Y2850D01*
X-1465Y2856D01*
X-1476Y2861D01*
X-1485Y2864D01*
X-1497Y2863D01*
X-1518Y2859D01*
X-1536Y2854D01*
X-1551Y2848D01*
X-1562Y2842D01*
X-1570Y2835D01*
Y3031D01*
X-1562Y3024D01*
X-1551Y3018D01*
X-1536Y3012D01*
X-1518Y3007D01*
X-1497Y3003D01*
X-1487Y3001D01*
X-1476Y3005D01*
X-1465Y3010D01*
X-1456Y3016D01*
X-1450Y3023D01*
X-1447Y3031D01*
X-1446Y3040D01*
Y2997D01*
D02*
G37*
G36*
X413Y2961D02*
X401Y2932D01*
X368Y2831D01*
X363Y2810D01*
X356Y2771D01*
X354Y2753D01*
X353Y2737D01*
X251Y2970D01*
X257Y2960D01*
X264Y2953D01*
X271Y2952D01*
X279Y2954D01*
X288Y2961D01*
X297Y2972D01*
X307Y2988D01*
X318Y3008D01*
X329Y3032D01*
X341Y3061D01*
X413Y2961D01*
D02*
G37*
G36*
X796Y3142D02*
X799Y3133D01*
X804Y3126D01*
X811Y3119D01*
X820Y3114D01*
X831Y3109D01*
X844Y3106D01*
X860Y3103D01*
X877Y3102D01*
X896Y3101D01*
Y3001D01*
X877Y3001D01*
X860Y2999D01*
X844Y2997D01*
X831Y2993D01*
X820Y2989D01*
X811Y2983D01*
X804Y2977D01*
X799Y2969D01*
X796Y2961D01*
X795Y2951D01*
Y3151D01*
X796Y3142D01*
D02*
G37*
G36*
X-600Y3109D02*
X-608Y3102D01*
X-615Y3091D01*
X-621Y3075D01*
X-626Y3054D01*
X-630Y3029D01*
X-633Y3000D01*
X-637Y2927D01*
X-637Y2884D01*
X-937D01*
X-938Y2927D01*
X-945Y3029D01*
X-949Y3054D01*
X-954Y3075D01*
X-960Y3091D01*
X-967Y3102D01*
X-974Y3109D01*
X-983Y3111D01*
X-592D01*
X-600Y3109D01*
D02*
G37*
G36*
X-2500Y2825D02*
X-2508Y2821D01*
X-2515Y2815D01*
X-2521Y2807D01*
X-2527Y2796D01*
X-2531Y2783D01*
X-2534Y2767D01*
X-2537Y2749D01*
X-2538Y2729D01*
X-2538Y2706D01*
X-2658D01*
X-2659Y2729D01*
X-2663Y2767D01*
X-2666Y2783D01*
X-2670Y2796D01*
X-2675Y2807D01*
X-2681Y2815D01*
X-2689Y2821D01*
X-2697Y2825D01*
X-2705Y2826D01*
X-2491D01*
X-2500Y2825D01*
D02*
G37*
G36*
X1533Y2892D02*
X1532Y2883D01*
X1531Y2868D01*
X1528Y2595D01*
X1228D01*
X1222Y2895D01*
X1534D01*
X1533Y2892D01*
D02*
G37*
G36*
X-799Y2492D02*
X-812Y2467D01*
X-820Y2445D01*
X-825Y2425D01*
X-825Y2408D01*
X-822Y2394D01*
X-815Y2382D01*
X-805Y2373D01*
X-790Y2366D01*
X-772Y2362D01*
X-749Y2361D01*
X-1337D01*
X-1313Y2364D01*
X-1289Y2372D01*
X-1264Y2386D01*
X-1238Y2405D01*
X-1212Y2430D01*
X-1185Y2460D01*
X-1157Y2495D01*
X-1129Y2536D01*
X-1071Y2635D01*
X-799Y2492D01*
D02*
G37*
G36*
X-1336Y1247D02*
X-1255Y1253D01*
X-1225Y1258D01*
X-1199Y1264D01*
X-1177Y1271D01*
X-1161Y1278D01*
X-1149Y1287D01*
Y1075D01*
X-1161Y1084D01*
X-1177Y1092D01*
X-1199Y1098D01*
X-1225Y1104D01*
X-1255Y1110D01*
X-1331Y1117D01*
X-1336Y1117D01*
Y1061D01*
X-1337Y1072D01*
X-1341Y1083D01*
X-1347Y1092D01*
X-1356Y1099D01*
X-1366Y1106D01*
X-1380Y1111D01*
X-1396Y1116D01*
X-1414Y1119D01*
X-1434Y1120D01*
X-1446Y1121D01*
X-1481Y1121D01*
Y1241D01*
X-1446Y1241D01*
X-1434Y1242D01*
X-1414Y1243D01*
X-1396Y1247D01*
X-1380Y1251D01*
X-1366Y1256D01*
X-1356Y1263D01*
X-1347Y1270D01*
X-1341Y1279D01*
X-1337Y1290D01*
X-1336Y1301D01*
Y1247D01*
D02*
G37*
%LPC*%
G36*
X-591Y5034D02*
X-637Y5024D01*
X-677Y4998D01*
X-704Y4958D01*
X-710Y4925D01*
X-715Y4913D01*
X-717Y4841D01*
X-719Y4818D01*
X-731Y4813D01*
X-751Y4807D01*
X-753Y4804D01*
X-756Y4802D01*
X-756Y4802D01*
X-765Y4782D01*
X-775Y4763D01*
X-775Y4763D01*
X-774Y4760D01*
X-776Y4756D01*
X-775Y4756D01*
X-767Y4736D01*
X-761Y4716D01*
X-758Y4714D01*
X-756Y4710D01*
X-744Y4705D01*
X-745Y4702D01*
X-754Y4680D01*
X-753Y4679D01*
X-754Y4678D01*
X-744Y4656D01*
X-735Y4634D01*
X-734Y4634D01*
X-733Y4632D01*
X-733Y4632D01*
X-713Y4625D01*
Y4557D01*
X-704Y4510D01*
X-677Y4471D01*
X-637Y4444D01*
X-591Y4435D01*
X-544Y4444D01*
X-504Y4471D01*
X-478Y4510D01*
X-468Y4557D01*
Y4625D01*
X-448Y4632D01*
X-448Y4632D01*
X-447Y4634D01*
X-446Y4634D01*
X-437Y4656D01*
X-427Y4678D01*
X-427Y4678D01*
X-428Y4679D01*
X-427Y4680D01*
X-427Y4680D01*
X-425Y4710D01*
X-423Y4714D01*
X-420Y4715D01*
X-420Y4716D01*
X-414Y4736D01*
X-406Y4756D01*
X-406Y4756D01*
X-407Y4760D01*
X-406Y4763D01*
X-416Y4782D01*
X-425Y4802D01*
X-425Y4802D01*
X-428Y4804D01*
X-430Y4807D01*
X-430Y4807D01*
X-451Y4813D01*
X-461Y4817D01*
X-465Y4876D01*
X-466Y4912D01*
X-471Y4924D01*
X-478Y4958D01*
X-504Y4998D01*
X-544Y5024D01*
X-591Y5034D01*
D02*
G37*
G36*
X2657Y4788D02*
X2611Y4778D01*
X2571Y4752D01*
X2544Y4712D01*
X2535Y4665D01*
Y4598D01*
X2515Y4590D01*
X2515Y4590D01*
X2514Y4589D01*
X2513Y4588D01*
X2513Y4588D01*
X2504Y4566D01*
X2494Y4545D01*
X2494Y4545D01*
X2495Y4544D01*
X2494Y4542D01*
X2494Y4542D01*
X2503Y4520D01*
X2511Y4498D01*
X2499Y4457D01*
X2493Y4437D01*
X2485Y4418D01*
X2487Y4414D01*
X2486Y4409D01*
X2497Y4391D01*
X2504Y4372D01*
X2509Y4370D01*
X2511Y4366D01*
X2531Y4361D01*
X2532Y4347D01*
X2533Y4310D01*
X2538Y4298D01*
X2544Y4264D01*
X2571Y4225D01*
X2611Y4198D01*
X2657Y4189D01*
X2704Y4198D01*
X2744Y4225D01*
X2770Y4264D01*
X2777Y4298D01*
X2782Y4310D01*
X2783Y4361D01*
X2784Y4361D01*
X2804Y4366D01*
X2806Y4370D01*
X2810Y4372D01*
X2818Y4391D01*
X2829Y4409D01*
X2828Y4414D01*
X2829Y4418D01*
X2822Y4437D01*
X2816Y4457D01*
X2803Y4498D01*
X2812Y4520D01*
X2821Y4542D01*
X2820Y4544D01*
X2821Y4545D01*
X2811Y4566D01*
X2802Y4588D01*
X2801Y4589D01*
X2800Y4590D01*
X2800Y4590D01*
X2780Y4598D01*
Y4665D01*
X2770Y4712D01*
X2744Y4752D01*
X2704Y4778D01*
X2657Y4788D01*
D02*
G37*
G36*
X2826Y4125D02*
X2489D01*
Y3990D01*
X2487Y3986D01*
X2489Y3979D01*
X2487Y3973D01*
X2489Y3969D01*
Y3961D01*
X2483Y3953D01*
X2428Y3899D01*
X2402Y3878D01*
X2400Y3874D01*
X2394Y3869D01*
X2286Y3811D01*
X2266Y3805D01*
X2218Y3837D01*
X2216Y3843D01*
Y3879D01*
X1879D01*
Y3424D01*
X2216D01*
Y3546D01*
X2216Y3547D01*
X2216Y3547D01*
X2216Y3547D01*
X2220Y3550D01*
X2228Y3554D01*
X2238Y3558D01*
X2251Y3562D01*
X2268Y3566D01*
X2279Y3574D01*
X2373Y3602D01*
X2520Y3681D01*
X2533Y3692D01*
X2539Y3693D01*
X2540Y3695D01*
X2542Y3695D01*
X2573Y3720D01*
X2627Y3759D01*
X2648Y3773D01*
X2666Y3783D01*
X2679Y3788D01*
X2707D01*
X2714Y3786D01*
X2718Y3788D01*
X2826D01*
Y4125D01*
D02*
G37*
G36*
X-38Y3784D02*
X-58Y3776D01*
X-79Y3770D01*
X-81Y3767D01*
X-84Y3765D01*
X-84Y3765D01*
X-86Y3761D01*
X-98Y3756D01*
X-120Y3747D01*
X-120Y3746D01*
X-121Y3745D01*
X-128Y3729D01*
X-139Y3728D01*
X-160Y3727D01*
X-166Y3725D01*
X-197D01*
X-244Y3715D01*
X-283Y3689D01*
X-310Y3649D01*
X-319Y3602D01*
X-310Y3556D01*
X-283Y3516D01*
X-244Y3489D01*
X-197Y3480D01*
X-166D01*
X-160Y3477D01*
X-139Y3477D01*
X-128Y3476D01*
X-121Y3460D01*
X-120Y3459D01*
X-120Y3458D01*
X-98Y3449D01*
X-86Y3443D01*
X-84Y3440D01*
X-84Y3440D01*
X-81Y3438D01*
X-79Y3435D01*
X-79Y3435D01*
X-58Y3429D01*
X-38Y3420D01*
X-35Y3422D01*
X-31Y3421D01*
X-12Y3431D01*
X8Y3440D01*
X9Y3443D01*
X13Y3445D01*
X13Y3445D01*
X19Y3466D01*
X20Y3469D01*
X122Y3477D01*
X158Y3477D01*
X170Y3483D01*
X204Y3489D01*
X244Y3516D01*
X271Y3556D01*
X280Y3602D01*
X271Y3649D01*
X244Y3689D01*
X204Y3715D01*
X171Y3722D01*
X159Y3727D01*
X87Y3729D01*
X31Y3733D01*
X20Y3735D01*
X19Y3739D01*
X13Y3760D01*
X9Y3762D01*
X8Y3765D01*
X-12Y3773D01*
X-31Y3784D01*
X-31Y3784D01*
X-35Y3783D01*
X-38Y3784D01*
D02*
G37*
G36*
X2124Y3236D02*
X2123Y3236D01*
X2120Y3235D01*
X2117Y3236D01*
X2098Y3225D01*
X2078Y3217D01*
X2076Y3214D01*
X2073Y3212D01*
X2073Y3212D01*
X2067Y3191D01*
X2063Y3181D01*
X2004Y3176D01*
X1968Y3176D01*
X1956Y3171D01*
X1922Y3164D01*
X1882Y3138D01*
X1855Y3098D01*
X1846Y3051D01*
X1855Y3004D01*
X1882Y2965D01*
X1922Y2938D01*
X1955Y2931D01*
X1967Y2926D01*
X2039Y2925D01*
X2062Y2923D01*
X2067Y2911D01*
X2073Y2890D01*
X2076Y2889D01*
X2078Y2885D01*
X2098Y2877D01*
X2117Y2867D01*
X2120Y2868D01*
X2124Y2866D01*
X2144Y2875D01*
X2164Y2881D01*
X2166Y2884D01*
X2170Y2885D01*
X2200Y2888D01*
X2201Y2888D01*
X2202Y2888D01*
X2224Y2898D01*
X2246Y2907D01*
X2246Y2908D01*
X2247Y2909D01*
X2255Y2929D01*
X2323D01*
X2370Y2938D01*
X2409Y2965D01*
X2436Y3004D01*
X2445Y3051D01*
X2436Y3098D01*
X2409Y3138D01*
X2370Y3164D01*
X2323Y3174D01*
X2255D01*
X2248Y3194D01*
X2247Y3194D01*
X2246Y3194D01*
X2246Y3196D01*
X2224Y3205D01*
X2202Y3215D01*
X2202Y3214D01*
X2201Y3214D01*
X2200Y3215D01*
X2170Y3217D01*
X2166Y3219D01*
X2165Y3221D01*
X2164Y3222D01*
X2144Y3228D01*
X2124Y3236D01*
D02*
G37*
%LPD*%
G36*
X-530Y4873D02*
X-521Y4756D01*
X-471D01*
X-482Y4755D01*
X-492Y4751D01*
X-501Y4745D01*
X-509Y4737D01*
X-515Y4727D01*
X-512Y4714D01*
X-506Y4699D01*
X-499Y4688D01*
X-492Y4680D01*
X-528D01*
X-528Y4679D01*
X-530Y4658D01*
X-531Y4635D01*
X-651D01*
X-651Y4658D01*
X-653Y4679D01*
X-653Y4680D01*
X-689D01*
X-682Y4688D01*
X-675Y4699D01*
X-669Y4714D01*
X-666Y4727D01*
X-672Y4737D01*
X-680Y4745D01*
X-689Y4751D01*
X-699Y4755D01*
X-711Y4756D01*
X-660D01*
X-657Y4778D01*
X-652Y4838D01*
X-651Y4911D01*
X-531D01*
X-530Y4873D01*
D02*
G37*
G36*
X2749Y4535D02*
X2742Y4523D01*
X2736Y4509D01*
X2731Y4491D01*
X2727Y4469D01*
X2726Y4459D01*
X2729Y4448D01*
X2734Y4437D01*
X2741Y4429D01*
X2748Y4423D01*
X2756Y4419D01*
X2765Y4418D01*
X2722D01*
X2719Y4384D01*
X2717Y4311D01*
X2597D01*
X2597Y4349D01*
X2592Y4418D01*
X2550D01*
X2559Y4419D01*
X2567Y4423D01*
X2574Y4429D01*
X2581Y4437D01*
X2586Y4448D01*
X2589Y4458D01*
X2588Y4469D01*
X2584Y4491D01*
X2579Y4509D01*
X2573Y4523D01*
X2566Y4535D01*
X2559Y4542D01*
X2756D01*
X2749Y4535D01*
D02*
G37*
G36*
X2708Y3851D02*
X2699Y3855D01*
X2687Y3857D01*
X2673Y3855D01*
X2656Y3849D01*
X2637Y3841D01*
X2615Y3828D01*
X2591Y3813D01*
X2534Y3772D01*
X2502Y3746D01*
X2444Y3828D01*
X2471Y3851D01*
X2532Y3909D01*
X2544Y3925D01*
X2553Y3940D01*
X2558Y3952D01*
X2560Y3963D01*
X2558Y3972D01*
X2552Y3979D01*
X2708Y3851D01*
D02*
G37*
G36*
X2154Y3752D02*
X2157Y3744D01*
X2162Y3738D01*
X2169Y3733D01*
X2178Y3729D01*
X2189Y3727D01*
X2201Y3726D01*
X2216Y3727D01*
X2233Y3729D01*
X2252Y3733D01*
X2252Y3629D01*
X2233Y3624D01*
X2217Y3619D01*
X2202Y3613D01*
X2189Y3607D01*
X2178Y3600D01*
X2169Y3593D01*
X2162Y3585D01*
X2157Y3576D01*
X2154Y3567D01*
X2153Y3557D01*
Y3762D01*
X2154Y3752D01*
D02*
G37*
G36*
X-38Y3681D02*
X-22Y3676D01*
X-1Y3672D01*
X24Y3669D01*
X84Y3664D01*
X157Y3662D01*
Y3542D01*
X119Y3542D01*
X-1Y3533D01*
X-22Y3529D01*
X-38Y3524D01*
Y3485D01*
X-39Y3496D01*
X-43Y3506D01*
X-49Y3514D01*
X-53Y3518D01*
X-55Y3518D01*
X-66Y3511D01*
X-74Y3504D01*
Y3530D01*
X-81Y3533D01*
X-97Y3537D01*
X-115Y3540D01*
X-135Y3542D01*
X-158Y3542D01*
Y3662D01*
X-135Y3663D01*
X-115Y3665D01*
X-97Y3667D01*
X-81Y3671D01*
X-74Y3674D01*
Y3701D01*
X-66Y3693D01*
X-55Y3687D01*
X-53Y3686D01*
X-49Y3690D01*
X-43Y3699D01*
X-39Y3708D01*
X-38Y3719D01*
Y3681D01*
D02*
G37*
G36*
X2125Y3160D02*
X2128Y3150D01*
X2134Y3141D01*
X2143Y3133D01*
X2153Y3126D01*
X2166Y3130D01*
X2181Y3136D01*
X2192Y3142D01*
X2200Y3150D01*
Y3114D01*
X2201Y3114D01*
X2222Y3112D01*
X2245Y3111D01*
Y2991D01*
X2222Y2991D01*
X2201Y2989D01*
X2200Y2989D01*
Y2953D01*
X2192Y2960D01*
X2181Y2967D01*
X2166Y2972D01*
X2153Y2976D01*
X2143Y2970D01*
X2134Y2962D01*
X2128Y2953D01*
X2125Y2943D01*
X2124Y2931D01*
Y2982D01*
X2102Y2985D01*
X2042Y2990D01*
X1969Y2991D01*
Y3111D01*
X2007Y3112D01*
X2124Y3121D01*
Y3171D01*
X2125Y3160D01*
D02*
G37*
%LPC*%
G36*
X2165Y6363D02*
X2119Y6353D01*
X2079Y6327D01*
X2052Y6287D01*
X2046Y6253D01*
X2040Y6242D01*
X2039Y6170D01*
X2037Y6147D01*
X2025Y6142D01*
X2005Y6136D01*
X2003Y6132D01*
X2000Y6131D01*
X1999Y6131D01*
X1991Y6111D01*
X1981Y6092D01*
X1981Y6092D01*
X1982Y6088D01*
X1980Y6085D01*
X1981Y6085D01*
X1989Y6065D01*
X1995Y6044D01*
X1998Y6043D01*
X1999Y6039D01*
X2012Y6034D01*
X2011Y6031D01*
X2002Y6009D01*
X2002Y6008D01*
X2002Y6006D01*
X2012Y5985D01*
X2021Y5963D01*
X2022Y5962D01*
X2023Y5961D01*
X2023Y5961D01*
X2043Y5954D01*
Y5886D01*
X2052Y5839D01*
X2079Y5799D01*
X2119Y5773D01*
X2165Y5763D01*
X2212Y5773D01*
X2252Y5799D01*
X2278Y5839D01*
X2288Y5886D01*
Y5954D01*
X2308Y5961D01*
X2308Y5961D01*
X2309Y5962D01*
X2310Y5963D01*
X2319Y5985D01*
X2329Y6006D01*
X2329Y6007D01*
X2328Y6008D01*
X2329Y6009D01*
X2329Y6009D01*
X2331Y6039D01*
X2333Y6043D01*
X2336Y6044D01*
X2336Y6044D01*
X2342Y6065D01*
X2350Y6085D01*
X2350Y6085D01*
X2349Y6088D01*
X2350Y6092D01*
X2340Y6111D01*
X2331Y6131D01*
X2331Y6131D01*
X2328Y6132D01*
X2326Y6136D01*
X2326Y6136D01*
X2305Y6142D01*
X2295Y6146D01*
X2291Y6205D01*
X2290Y6241D01*
X2285Y6253D01*
X2278Y6287D01*
X2252Y6327D01*
X2212Y6353D01*
X2165Y6363D01*
D02*
G37*
G36*
X1969Y5693D02*
X1922Y5684D01*
X1882Y5657D01*
X1855Y5618D01*
X1846Y5571D01*
Y5503D01*
X1826Y5496D01*
X1826Y5495D01*
X1825Y5494D01*
X1824Y5494D01*
X1815Y5472D01*
X1805Y5450D01*
X1805Y5450D01*
X1806Y5449D01*
X1805Y5448D01*
X1803Y5418D01*
X1801Y5414D01*
X1798Y5413D01*
X1798Y5412D01*
X1792Y5392D01*
X1784Y5372D01*
X1785Y5368D01*
X1784Y5365D01*
X1794Y5346D01*
X1803Y5326D01*
X1806Y5324D01*
X1808Y5321D01*
X1808Y5321D01*
X1828Y5315D01*
X1839Y5311D01*
X1843Y5252D01*
X1844Y5216D01*
X1849Y5204D01*
X1855Y5170D01*
X1882Y5130D01*
X1922Y5103D01*
X1969Y5094D01*
X2015Y5103D01*
X2055Y5130D01*
X2082Y5170D01*
X2088Y5203D01*
X2093Y5215D01*
X2095Y5287D01*
X2097Y5310D01*
X2109Y5315D01*
X2129Y5321D01*
X2129Y5321D01*
X2131Y5324D01*
X2134Y5326D01*
X2143Y5346D01*
X2153Y5365D01*
X2153Y5365D01*
X2152Y5368D01*
X2153Y5371D01*
X2153Y5372D01*
X2145Y5392D01*
X2139Y5412D01*
X2136Y5414D01*
X2134Y5418D01*
X2132Y5448D01*
X2131Y5449D01*
X2132Y5450D01*
X2122Y5472D01*
X2113Y5494D01*
X2112Y5494D01*
X2111Y5495D01*
X2111Y5496D01*
X2091Y5503D01*
Y5571D01*
X2082Y5618D01*
X2055Y5657D01*
X2015Y5684D01*
X1969Y5693D01*
D02*
G37*
%LPD*%
G36*
X2226Y6202D02*
X2235Y6085D01*
X2285D01*
X2274Y6084D01*
X2264Y6080D01*
X2255Y6074D01*
X2247Y6066D01*
X2241Y6055D01*
X2244Y6043D01*
X2250Y6028D01*
X2256Y6017D01*
X2264Y6009D01*
X2228D01*
X2228Y6008D01*
X2226Y5987D01*
X2225Y5964D01*
X2105D01*
X2105Y5987D01*
X2103Y6008D01*
X2103Y6009D01*
X2067D01*
X2074Y6017D01*
X2081Y6028D01*
X2087Y6043D01*
X2090Y6055D01*
X2084Y6066D01*
X2076Y6074D01*
X2067Y6080D01*
X2057Y6084D01*
X2045Y6085D01*
X2096D01*
X2099Y6107D01*
X2104Y6167D01*
X2105Y6240D01*
X2225D01*
X2226Y6202D01*
D02*
G37*
G36*
X2029Y5470D02*
X2031Y5449D01*
X2031Y5448D01*
X2067D01*
X2060Y5440D01*
X2053Y5429D01*
X2047Y5414D01*
X2044Y5401D01*
X2050Y5391D01*
X2058Y5383D01*
X2067Y5376D01*
X2077Y5373D01*
X2088Y5372D01*
X2038D01*
X2035Y5350D01*
X2030Y5290D01*
X2028Y5217D01*
X1909D01*
X1908Y5255D01*
X1899Y5372D01*
X1849D01*
X1860Y5373D01*
X1870Y5376D01*
X1879Y5383D01*
X1887Y5391D01*
X1893Y5401D01*
X1890Y5414D01*
X1884Y5429D01*
X1877Y5440D01*
X1870Y5448D01*
X1906D01*
X1906Y5449D01*
X1908Y5470D01*
X1909Y5493D01*
X2028D01*
X2029Y5470D01*
D02*
G37*
D12*
X1378Y15238D02*
G03*
X1060Y15555I-317J0D01*
G01*
X-36D02*
G03*
X-157Y15433I0J-122D01*
G01*
X-236Y15354D02*
G03*
X-157Y15433I0J79D01*
G01*
X-669Y15354D02*
G03*
X-906Y15118I0J-236D01*
G01*
Y14961D02*
G03*
X-669Y14724I237J0D01*
G01*
X-394Y14567D02*
G03*
X-551Y14724I-157J0D01*
G01*
X303Y15415D02*
G03*
X157Y15269I0J-146D01*
G01*
X1163Y15254D02*
G03*
X1002Y15415I-161J0D01*
G01*
X236Y13048D02*
G03*
X276Y12953I134J0D01*
G01*
X394Y12740D02*
G03*
X326Y12902I-230J0D01*
G01*
X79Y12567D02*
G03*
X98Y12520I67J0D01*
G01*
X394Y13182D02*
G03*
X472Y12992I269J0D01*
G01*
X689Y12520D02*
G03*
X508Y12957I-618J0D01*
G01*
X-236Y13642D02*
X0Y13878D01*
X-36Y15555D02*
X1060D01*
X1378Y14389D02*
Y15238D01*
X-669Y15354D02*
X-236D01*
X-669Y14724D02*
X-551D01*
X-906Y14961D02*
Y15118D01*
X-394Y14468D02*
Y14567D01*
X303Y15415D02*
X1002D01*
X157Y14774D02*
Y15269D01*
X1163Y14450D02*
Y15254D01*
X-630Y13228D02*
X-591Y13268D01*
Y13484D01*
X1280Y14291D02*
X1378Y14389D01*
X1280Y12520D02*
Y14291D01*
X984Y14272D02*
X1163Y14450D01*
X984Y12520D02*
Y14272D01*
X276Y12953D02*
X326Y12902D01*
X394Y12520D02*
Y12740D01*
X236Y13048D02*
Y13287D01*
X79Y12567D02*
Y13287D01*
X394Y13182D02*
Y13287D01*
X472Y12992D02*
X508Y12957D01*
X79Y14468D02*
Y14696D01*
X157Y14774D01*
X-79Y14468D02*
Y14961D01*
X-236Y13287D02*
Y13642D01*
D13*
X-591Y6890D02*
G03*
X-315Y7165I0J276D01*
G01*
X236Y7756D02*
G03*
X394Y7913I0J158D01*
G01*
X236Y7756D02*
G03*
X-315Y7205I0J-551D01*
G01*
X354Y7579D02*
G03*
X689Y7913I0J335D01*
G01*
X354Y7579D02*
G03*
X-118Y7106I0J-472D01*
G01*
X-453Y6594D02*
G03*
X-118Y6929I0J335D01*
G01*
X1772Y7589D02*
G03*
X1211Y8150I-561J0D01*
G01*
X984Y8376D02*
G03*
X1211Y8150I227J0D01*
G01*
X-2126Y6890D02*
G03*
X-2717Y6299I0J-591D01*
G01*
X-2382Y5138D02*
G03*
X-2244Y5276I0J138D01*
G01*
X-2717Y5384D02*
G03*
X-2470Y5138I246J0D01*
G01*
X-1811Y6299D02*
G03*
X-1598Y6512I0J213D01*
G01*
X-1811Y6299D02*
G03*
X-1953Y6157I0J-142D01*
G01*
X2598Y6762D02*
G03*
X2195Y7165I-403J0D01*
G01*
X2286Y4921D02*
G03*
X2598Y5234I0J313D01*
G01*
X2165Y4921D02*
G03*
X2047Y4803I0J-118D01*
G01*
X1772Y7589D02*
G03*
X2195Y7165I424J0D01*
G01*
X2244Y7913D02*
G03*
X2165Y7723I190J-190D01*
G01*
X2244Y7913D02*
G03*
X2303Y8056I-143J143D01*
G01*
X-2028Y5492D02*
G03*
X-2244Y5276I0J-217D01*
G01*
X-1949Y5157D02*
G03*
X-1969Y5138I0J-20D01*
G01*
X689Y3406D02*
G03*
X394Y3110I0J-295D01*
G01*
X157Y2854D02*
G03*
X394Y3091I0J236D01*
G01*
X433Y4442D02*
G03*
X394Y4537I-134J0D01*
G01*
X500Y15898D02*
G03*
X650Y15748I150J0D01*
G01*
X1000Y16126D02*
G03*
X1142Y15984I142J0D01*
G01*
X1870Y15492D02*
G03*
X1378Y15984I-492J0D01*
G01*
X1575Y15394D02*
G03*
X1220Y15748I-354J0D01*
G01*
X2047Y3652D02*
G03*
X2568Y3867I0J737D01*
G01*
X-315Y7165D02*
Y7205D01*
X394Y7913D02*
Y8661D01*
X689Y7913D02*
Y8661D01*
X-118Y6929D02*
Y7106D01*
X984Y8376D02*
Y8661D01*
X-2126Y6890D02*
X-591D01*
X-2470Y4587D02*
Y5138D01*
X-2382D01*
X-2717Y5384D02*
Y6299D01*
X-1598Y6594D02*
X-453D01*
X-1953Y6043D02*
Y6157D01*
X-1598Y6512D02*
Y6594D01*
X2598Y5234D02*
Y6762D01*
X2165Y4921D02*
X2286D01*
X2047Y4616D02*
Y4803D01*
X2165Y7579D02*
Y7723D01*
X-2028Y5492D02*
X-1969D01*
X-1949Y5157D02*
X-1467D01*
X689Y3406D02*
Y3414D01*
X394Y3091D02*
Y3110D01*
X433Y4035D02*
Y4442D01*
X650Y15748D02*
X1220D01*
X500Y15898D02*
Y16890D01*
X1000Y16126D02*
Y16890D01*
X1142Y15984D02*
X1378D01*
X1870Y12520D02*
Y15492D01*
X1575Y12520D02*
Y15394D01*
X-492Y12520D02*
Y12736D01*
X-1396Y13640D02*
X-492Y12736D01*
X-1396Y13640D02*
Y14388D01*
X-1772Y14764D02*
X-1396Y14388D01*
X-1772Y14764D02*
Y15059D01*
Y13717D02*
X-787Y12733D01*
X-1772Y13717D02*
Y14059D01*
X-787Y12520D02*
Y12733D01*
X-1181Y13957D02*
X-945D01*
X-1181Y14272D02*
Y14508D01*
X709Y14961D02*
X945D01*
X-630D02*
X-394D01*
X-591Y14272D02*
X-591Y14272D01*
X-1181Y14272D02*
X-591D01*
X394Y14961D02*
Y15197D01*
X2303Y8056D02*
Y8169D01*
X236Y14641D02*
X394Y14798D01*
Y14961D01*
X236Y14468D02*
Y14641D01*
X2568Y3867D02*
X2657Y3957D01*
X689Y3051D02*
X1378D01*
D14*
X-1000Y3898D02*
D03*
Y4213D02*
D03*
X-1181Y14272D02*
D03*
Y13957D02*
D03*
X-1467Y5157D02*
D03*
Y5472D02*
D03*
D15*
X-2470Y4587D02*
D03*
Y4213D02*
D03*
Y3839D02*
D03*
X-1467D02*
D03*
Y4213D02*
D03*
Y4587D02*
D03*
D16*
X-2598Y2933D02*
D03*
Y3287D02*
D03*
X-1969Y5138D02*
D03*
Y5492D02*
D03*
X-1339Y3287D02*
D03*
Y2933D02*
D03*
X689Y3406D02*
D03*
Y3051D02*
D03*
X-2470Y5492D02*
D03*
Y5138D02*
D03*
X2657Y4311D02*
D03*
Y3957D02*
D03*
D17*
X-2126Y3346D02*
D03*
X-1811D02*
D03*
X394Y14961D02*
D03*
X709D02*
D03*
X-79D02*
D03*
X-394D02*
D03*
X2618Y8169D02*
D03*
X2303D02*
D03*
X748Y4035D02*
D03*
X433D02*
D03*
D18*
X-1598Y6043D02*
D03*
X-1953D02*
D03*
X-1598Y6594D02*
D03*
X-1953D02*
D03*
D19*
X500Y16890D02*
D03*
X1000D02*
D03*
X-1000D02*
D03*
X-500D02*
D03*
X0D02*
D03*
D20*
X2165Y6831D02*
D03*
Y6240D02*
D03*
X-591Y5502D02*
D03*
Y4911D02*
D03*
D21*
X591Y13484D02*
D03*
Y13642D02*
D03*
Y13799D02*
D03*
Y13957D02*
D03*
Y14114D02*
D03*
Y14272D02*
D03*
X-591D02*
D03*
Y14114D02*
D03*
Y13957D02*
D03*
Y13799D02*
D03*
Y13642D02*
D03*
Y13484D02*
D03*
D22*
X394Y14468D02*
D03*
X236D02*
D03*
X79D02*
D03*
X-79D02*
D03*
X-236D02*
D03*
X-394D02*
D03*
Y13287D02*
D03*
X-236D02*
D03*
X-79D02*
D03*
X79D02*
D03*
X236D02*
D03*
X394D02*
D03*
D23*
X0Y13878D02*
D03*
D24*
X-787Y8661D02*
D03*
X1280D02*
D03*
X689D02*
D03*
X984D02*
D03*
X-492D02*
D03*
X98D02*
D03*
X-197D02*
D03*
X394D02*
D03*
X-1083Y12520D02*
D03*
X-1673D02*
D03*
X-1378D02*
D03*
X-1968D02*
D03*
X394D02*
D03*
X-197D02*
D03*
X98D02*
D03*
X-787D02*
D03*
X-492D02*
D03*
X984D02*
D03*
X689D02*
D03*
X1575D02*
D03*
X1280D02*
D03*
X1870D02*
D03*
X2165D02*
D03*
X2461D02*
D03*
D25*
X2638Y11181D02*
D03*
Y10886D02*
D03*
Y9114D02*
D03*
Y9409D02*
D03*
Y9705D02*
D03*
Y10000D02*
D03*
Y10295D02*
D03*
Y10591D02*
D03*
D26*
X2165Y7579D02*
D03*
X2756D02*
D03*
X1378Y5217D02*
D03*
X1969D02*
D03*
X1378Y3051D02*
D03*
X1969D02*
D03*
D27*
X157Y2854D02*
D03*
Y3602D02*
D03*
X-787Y3228D02*
D03*
D28*
X1043Y787D02*
D03*
D29*
X-1043Y1181D02*
D03*
D30*
X2047Y3652D02*
D03*
X1299D02*
D03*
Y4616D02*
D03*
X1673D02*
D03*
X2047D02*
D03*
X20Y5502D02*
D03*
X768D02*
D03*
Y4537D02*
D03*
X394D02*
D03*
X20D02*
D03*
D52*
X-2146Y6594D02*
G03*
X-2323Y6417I0J-177D01*
G01*
X393Y6614D02*
G03*
X-278Y6336I0J-949D01*
G01*
X-985Y6043D02*
G03*
X-278Y6336I0J1000D01*
G01*
X-1339Y3287D02*
G03*
X-1398Y3346I-59J0D01*
G01*
X-2539D02*
G03*
X-2598Y3287I0J-59D01*
G01*
X-1673Y3839D02*
G03*
X-1811Y3701I0J-138D01*
G01*
X-2126D02*
G03*
X-2264Y3839I-138J0D01*
G01*
X-2598Y1837D02*
G03*
X-2441Y1457I538J0D01*
G01*
D02*
G03*
X-1776Y1181I665J665D01*
G01*
X-868Y15549D02*
G03*
X-500Y15917I0J368D01*
G01*
X-2010Y15549D02*
G03*
X-2283Y15276I0J-274D01*
G01*
X-2047Y15787D02*
G03*
X-2520Y15315I0J-472D01*
G01*
X2618Y8039D02*
G03*
X2677Y7896I202J0D01*
G01*
X2756Y7706D02*
G03*
X2677Y7896I-269J0D01*
G01*
X-787Y8356D02*
G03*
X-669Y8071I403J0D01*
G01*
X2165Y16359D02*
G03*
X1635Y16890I-531J0D01*
G01*
X-2146Y6594D02*
X-1953D01*
X-591Y4557D02*
Y4911D01*
X393Y6614D02*
X492D01*
X-1598Y6043D02*
X-985D01*
X2756Y7224D02*
Y7579D01*
X-1776Y1181D02*
X-1043D01*
X-1467Y4587D02*
Y5157D01*
X-2470Y4213D02*
X-1968D01*
X-1000Y3898D02*
X-646D01*
X-1693Y2933D02*
X-1339D01*
X-1811Y3346D02*
Y3701D01*
Y3346D02*
X-1398D01*
X-2126D02*
Y3701D01*
X-2539Y3346D02*
X-2126D01*
X-197Y3602D02*
X157D01*
X-1673Y3839D02*
X-1467D01*
X-2470D02*
X-2264D01*
X-2598Y1837D02*
Y2933D01*
X79Y4035D02*
X433D01*
X-2010Y15549D02*
X-868D01*
X-2283Y13808D02*
Y15276D01*
X-1378Y12520D02*
Y12902D01*
X-2283Y13808D02*
X-1378Y12902D01*
X-2047Y15787D02*
X-1220D01*
X-2520Y13740D02*
Y15315D01*
X-1673Y12520D02*
Y12894D01*
X-2520Y13740D02*
X-1673Y12894D01*
X-2244Y12957D02*
X-2095D01*
X-1968Y12830D01*
X2618Y8039D02*
Y8169D01*
X2756Y7579D02*
Y7706D01*
X-787Y8356D02*
Y8661D01*
X-1968Y12520D02*
Y12830D01*
X1378Y16890D02*
X1635D01*
X2165Y12520D02*
Y16359D01*
X2638Y8780D02*
Y9114D01*
X-500Y15917D02*
Y16890D01*
X2461Y12087D02*
Y12520D01*
X2165Y5886D02*
Y6240D01*
X1969Y5217D02*
Y5571D01*
X2657Y4311D02*
Y4665D01*
X1673Y4262D02*
Y4616D01*
X1969Y3051D02*
X2323D01*
D53*
X492Y6398D02*
G03*
X886Y6004I394J0D01*
G01*
X1481Y7298D02*
G03*
X1280Y7382I-202J-202D01*
G01*
X1796Y6984D02*
G03*
X2165Y6831I370J370D01*
G01*
X787Y7382D02*
G03*
X492Y7087I0J-295D01*
G01*
X1378Y5709D02*
G03*
X1082Y6004I-295J0D01*
G01*
X1140Y5118D02*
G03*
X1378Y5216I0J336D01*
G01*
X1378Y5216D02*
G03*
X1299Y5026I190J-190D01*
G01*
X958Y4616D02*
G03*
X768Y4537I0J-269D01*
G01*
D02*
G03*
X748Y4490I48J-48D01*
G01*
X320Y5118D02*
G03*
X98Y5026I0J-313D01*
G01*
D02*
G03*
X20Y4836I190J-190D01*
G01*
X492Y6614D02*
Y7087D01*
Y6398D02*
Y6614D01*
X1481Y7298D02*
X1796Y6984D01*
X1481Y7298D02*
X1481Y7298D01*
X1378Y5216D02*
Y5709D01*
X787Y7382D02*
X1280D01*
X1378Y5709D02*
X1378D01*
X886Y6004D02*
X1082D01*
X1378Y5216D02*
Y5216D01*
X1299Y4616D02*
Y5026D01*
X958Y4616D02*
X1299D01*
X320Y5118D02*
X1140D01*
X748Y4035D02*
Y4490D01*
X20Y4537D02*
Y4836D01*
X0Y15898D02*
Y16890D01*
D54*
X1481Y7298D02*
D03*
D55*
X2353Y11693D02*
G03*
X2195Y11535I0J-157D01*
G01*
X2303Y8637D02*
G03*
X2244Y8780I-202J0D01*
G01*
X2195Y8898D02*
G03*
X2244Y8780I167J0D01*
G01*
X2195Y9199D02*
Y11535D01*
X2303Y8543D02*
Y8637D01*
X2195Y8898D02*
Y9199D01*
X20Y5502D02*
Y5945D01*
D56*
X2406Y9409D02*
G03*
X2195Y9199I0J-211D01*
G01*
X-759Y5502D02*
G03*
X-1000Y5260I0J-241D01*
G01*
X2406Y9409D02*
X2638D01*
X-1732Y16496D02*
X-1000D01*
X-759Y5502D02*
X-591D01*
X-1000Y4213D02*
Y5260D01*
X-1467Y4213D02*
X-1000D01*
X2303Y8169D02*
Y8543D01*
X-591Y5502D02*
X20D01*
D57*
X-906Y2598D02*
G03*
X-787Y2884I-285J285D01*
G01*
X-906Y2598D02*
G03*
X-1043Y2266I333J-333D01*
G01*
X1299Y3537D02*
G03*
X1378Y3346I269J0D01*
G01*
X1280Y2264D02*
G03*
X1378Y2501I-238J238D01*
G01*
X1280Y2264D02*
G03*
X1043Y1694I570J-570D01*
G01*
X-1043Y1181D02*
Y2266D01*
X-787Y2884D02*
Y3228D01*
X1299Y3537D02*
Y3652D01*
X1378Y3051D02*
Y3346D01*
X1043Y787D02*
Y1694D01*
X1378Y2501D02*
Y3051D01*
D58*
X-2717Y13300D02*
D03*
X-1772Y14059D02*
D03*
Y15059D02*
D03*
D59*
X1280Y7382D02*
D03*
D60*
Y6594D02*
D03*
D61*
X-2323Y6417D02*
D03*
X-591Y4557D02*
D03*
X2756Y7224D02*
D03*
X-1968Y4213D02*
D03*
X-646Y3898D02*
D03*
X-1693Y2933D02*
D03*
X-197Y3602D02*
D03*
X79Y4035D02*
D03*
X-2244Y12957D02*
D03*
X2638Y8780D02*
D03*
X2461Y12087D02*
D03*
X-669Y8071D02*
D03*
X2165Y5886D02*
D03*
X1969Y5571D02*
D03*
X2657Y4665D02*
D03*
X1673Y4262D02*
D03*
X2323Y3051D02*
D03*
D62*
X20Y5945D02*
D03*
X2303Y8543D02*
D03*
D63*
X-630Y13228D02*
D03*
X-945Y13957D02*
D03*
X0Y15898D02*
D03*
X-1377Y17323D02*
D03*
X-1181Y14508D02*
D03*
X-1220Y15787D02*
D03*
X1378Y16890D02*
D03*
X945Y14961D02*
D03*
X-630D02*
D03*
X394Y15197D02*
D03*
D64*
X2353Y11693D02*
D03*
X-1732Y16496D02*
D03*
D65*
X157Y13681D02*
D03*
X-157Y14075D02*
D03*
X157D02*
D03*
X-157Y13681D02*
D03*
X0Y13878D02*
D03*
M02*
