G04*
G04 #@! TF.GenerationSoftware,Altium Limited,Altium Designer,18.1.7 (191)*
G04*
G04 Layer_Color=8388736*
%FSLAX24Y24*%
%MOIN*%
G70*
G01*
G75*
%ADD31R,0.0277X0.0237*%
%ADD32R,0.0395X0.0297*%
%ADD33R,0.0297X0.0297*%
%ADD34R,0.0237X0.0277*%
%ADD35R,0.0297X0.0297*%
%ADD36R,0.0316X0.1655*%
%ADD37R,0.0395X0.0395*%
%ADD38O,0.0316X0.0159*%
%ADD39O,0.0159X0.0316*%
%ADD40R,0.0686X0.0749*%
%ADD41R,0.0277X0.0552*%
%ADD42R,0.0552X0.0277*%
%ADD43R,0.0395X0.0395*%
%ADD44R,0.0474X0.0316*%
%ADD45R,0.0671X0.1655*%
%ADD46R,0.0671X0.2442*%
%ADD47R,0.0297X0.0415*%
%ADD48C,0.0552*%
%ADD49R,0.0572X0.0572*%
%ADD50C,0.0572*%
%ADD51C,0.0237*%
G36*
X2924Y17630D02*
X2931Y17629D01*
X2932D01*
X2932Y17628D01*
X2936Y17626D01*
X2940Y17623D01*
X2942Y17620D01*
X2944Y17617D01*
Y17617D01*
X2945Y17615D01*
X2946Y17614D01*
X2947Y17611D01*
X2950Y17605D01*
X2952Y17596D01*
Y17595D01*
X2953Y17592D01*
Y17588D01*
X2954Y17582D01*
X2955Y17574D01*
X2956Y17564D01*
X2958Y17552D01*
X2960Y17537D01*
Y17535D01*
X2960Y17534D01*
Y17531D01*
X2962Y17526D01*
X2963Y17518D01*
X2964Y17510D01*
X2964Y17502D01*
X2966Y17495D01*
X2966Y17489D01*
X2971Y17452D01*
Y17451D01*
X2972Y17449D01*
Y17447D01*
X2973Y17441D01*
X2974Y17433D01*
X2975Y17425D01*
X2977Y17416D01*
X2978Y17408D01*
X2978Y17400D01*
Y17399D01*
X2979Y17397D01*
Y17393D01*
X2979Y17387D01*
X2980Y17381D01*
Y17374D01*
X2981Y17366D01*
Y17356D01*
X2980Y17355D01*
X2979Y17352D01*
X2978Y17347D01*
X2976Y17345D01*
X2974Y17342D01*
X2973D01*
X2973Y17342D01*
X2971Y17341D01*
X2969Y17340D01*
X2966Y17340D01*
X2963D01*
X2959D01*
X2955Y17341D01*
X2954D01*
X2954Y17341D01*
X2951Y17342D01*
X2947Y17344D01*
X2944Y17346D01*
X2943Y17347D01*
X2941Y17349D01*
X2939Y17353D01*
X2935Y17357D01*
X2934Y17358D01*
X2933Y17359D01*
X2932Y17361D01*
X2930Y17364D01*
X2925Y17370D01*
X2918Y17379D01*
X2911Y17388D01*
X2903Y17399D01*
X2895Y17409D01*
X2887Y17419D01*
Y17420D01*
X2886Y17420D01*
X2885Y17422D01*
X2883Y17424D01*
X2882Y17427D01*
X2879Y17430D01*
X2872Y17438D01*
X2864Y17448D01*
X2854Y17461D01*
X2843Y17476D01*
X2830Y17493D01*
X2829Y17493D01*
X2828Y17494D01*
X2826Y17496D01*
X2824Y17499D01*
X2818Y17505D01*
X2810Y17512D01*
X2801Y17522D01*
X2792Y17531D01*
X2782Y17540D01*
X2773Y17549D01*
X2772Y17550D01*
X2769Y17552D01*
X2763Y17556D01*
X2757Y17561D01*
X2750Y17566D01*
X2742Y17571D01*
X2732Y17576D01*
X2723Y17580D01*
X2722Y17580D01*
X2720Y17581D01*
X2716Y17581D01*
X2710Y17583D01*
X2705D01*
X2699D01*
X2694Y17581D01*
X2689Y17579D01*
X2688Y17578D01*
X2687Y17577D01*
X2685Y17575D01*
X2682Y17572D01*
X2681Y17568D01*
X2678Y17562D01*
X2677Y17556D01*
X2676Y17549D01*
Y17543D01*
X2677Y17539D01*
X2678Y17534D01*
X2678Y17529D01*
X2681Y17519D01*
Y17518D01*
X2682Y17516D01*
X2683Y17513D01*
X2685Y17508D01*
X2687Y17503D01*
X2691Y17496D01*
X2695Y17487D01*
X2700Y17477D01*
Y17477D01*
X2700Y17476D01*
X2702Y17473D01*
X2704Y17468D01*
X2708Y17462D01*
Y17462D01*
X2708Y17461D01*
X2710Y17458D01*
X2713Y17454D01*
X2715Y17451D01*
Y17451D01*
X2715Y17450D01*
X2716Y17448D01*
X2717Y17446D01*
X2721Y17441D01*
X2724Y17435D01*
Y17434D01*
X2725Y17433D01*
X2727Y17430D01*
X2728Y17425D01*
X2729Y17421D01*
Y17421D01*
X2728Y17419D01*
X2728Y17417D01*
X2727Y17414D01*
X2725Y17412D01*
X2721Y17410D01*
X2717Y17410D01*
X2712Y17411D01*
X2711D01*
X2709Y17412D01*
X2707Y17413D01*
X2704Y17416D01*
X2701Y17418D01*
X2697Y17422D01*
X2693Y17427D01*
X2689Y17433D01*
X2689Y17434D01*
X2688Y17435D01*
X2687Y17437D01*
X2685Y17440D01*
X2683Y17445D01*
X2681Y17451D01*
X2677Y17458D01*
Y17459D01*
X2676Y17460D01*
X2675Y17462D01*
X2674Y17465D01*
X2671Y17471D01*
X2668Y17477D01*
Y17477D01*
X2668Y17478D01*
X2666Y17481D01*
X2664Y17486D01*
X2661Y17492D01*
X2659Y17499D01*
X2656Y17507D01*
X2653Y17514D01*
X2651Y17522D01*
Y17522D01*
X2650Y17525D01*
X2649Y17528D01*
X2648Y17534D01*
X2647Y17540D01*
X2646Y17547D01*
X2645Y17554D01*
Y17566D01*
X2646Y17569D01*
X2647Y17575D01*
X2648Y17582D01*
X2651Y17590D01*
X2655Y17598D01*
X2660Y17606D01*
X2667Y17611D01*
X2668Y17612D01*
X2671Y17614D01*
X2675Y17615D01*
X2682Y17617D01*
X2689Y17618D01*
X2698Y17619D01*
X2709Y17618D01*
X2715Y17616D01*
X2721Y17614D01*
X2722Y17614D01*
X2725Y17613D01*
X2729Y17611D01*
X2736Y17608D01*
X2743Y17604D01*
X2751Y17599D01*
X2760Y17594D01*
X2769Y17587D01*
X2770Y17587D01*
X2773Y17584D01*
X2778Y17580D01*
X2784Y17575D01*
X2790Y17569D01*
X2797Y17563D01*
X2812Y17549D01*
X2812Y17547D01*
X2815Y17545D01*
X2819Y17541D01*
X2823Y17536D01*
X2829Y17529D01*
X2836Y17522D01*
X2843Y17513D01*
X2851Y17504D01*
X2852Y17503D01*
X2853Y17501D01*
X2857Y17496D01*
X2859Y17493D01*
X2862Y17490D01*
X2865Y17486D01*
X2869Y17481D01*
X2874Y17475D01*
X2879Y17469D01*
X2885Y17462D01*
X2891Y17454D01*
X2898Y17445D01*
X2906Y17435D01*
X2933Y17402D01*
X2933Y17401D01*
X2935Y17399D01*
X2937Y17396D01*
X2940Y17391D01*
X2941Y17390D01*
X2943Y17388D01*
X2945Y17386D01*
X2946Y17385D01*
X2947Y17384D01*
X2947Y17385D01*
X2948Y17386D01*
Y17396D01*
X2947Y17401D01*
X2947Y17406D01*
X2946Y17413D01*
X2945Y17421D01*
X2944Y17430D01*
Y17431D01*
X2943Y17434D01*
X2943Y17439D01*
X2941Y17444D01*
X2941Y17450D01*
X2940Y17455D01*
X2940Y17459D01*
X2939Y17463D01*
X2932Y17504D01*
Y17504D01*
X2932Y17506D01*
Y17509D01*
X2930Y17514D01*
X2930Y17520D01*
X2929Y17528D01*
X2928Y17534D01*
X2928Y17539D01*
X2926Y17546D01*
X2926Y17553D01*
Y17554D01*
X2925Y17556D01*
Y17558D01*
X2925Y17564D01*
X2924Y17571D01*
X2922Y17577D01*
X2922Y17584D01*
X2921Y17590D01*
Y17592D01*
X2920Y17594D01*
Y17595D01*
X2920Y17595D01*
X2918Y17599D01*
X2916Y17603D01*
X2913Y17610D01*
Y17610D01*
X2913Y17611D01*
X2911Y17614D01*
X2910Y17618D01*
X2909Y17622D01*
Y17622D01*
X2910Y17624D01*
X2910Y17626D01*
X2912Y17628D01*
X2914Y17630D01*
X2918Y17631D01*
X2924Y17630D01*
D02*
G37*
G36*
X2683Y17361D02*
X2692Y17359D01*
X2693D01*
X2693Y17359D01*
X2695Y17358D01*
X2697Y17357D01*
X2703Y17355D01*
X2710Y17351D01*
X2719Y17346D01*
X2728Y17340D01*
X2736Y17332D01*
X2745Y17323D01*
X2746Y17322D01*
X2748Y17319D01*
X2753Y17314D01*
X2758Y17307D01*
X2764Y17298D01*
X2770Y17288D01*
X2777Y17276D01*
X2783Y17264D01*
Y17264D01*
X2784Y17262D01*
X2785Y17261D01*
X2786Y17258D01*
X2787Y17255D01*
X2789Y17251D01*
X2791Y17246D01*
X2793Y17240D01*
X2796Y17235D01*
X2799Y17228D01*
X2801Y17221D01*
X2805Y17213D01*
X2811Y17196D01*
X2819Y17176D01*
Y17175D01*
X2819Y17174D01*
X2820Y17171D01*
X2822Y17167D01*
X2823Y17163D01*
X2825Y17159D01*
X2829Y17149D01*
Y17148D01*
X2829Y17147D01*
X2830Y17145D01*
X2831Y17142D01*
X2832Y17137D01*
X2833Y17139D01*
X2833Y17141D01*
X2834Y17145D01*
X2835Y17150D01*
X2837Y17156D01*
X2838Y17162D01*
X2842Y17175D01*
X2846Y17190D01*
X2851Y17206D01*
X2856Y17222D01*
X2860Y17232D01*
Y17233D01*
X2860Y17234D01*
X2861Y17236D01*
X2862Y17240D01*
X2863Y17243D01*
X2865Y17248D01*
X2868Y17258D01*
X2872Y17269D01*
X2876Y17280D01*
X2880Y17291D01*
X2884Y17300D01*
X2884Y17301D01*
X2886Y17303D01*
X2887Y17307D01*
X2890Y17311D01*
X2892Y17315D01*
X2895Y17318D01*
X2898Y17320D01*
X2900D01*
X2902D01*
X2902D01*
X2903Y17319D01*
X2906Y17318D01*
X2911Y17314D01*
X2915Y17311D01*
X2918Y17308D01*
X2919Y17308D01*
X2920Y17307D01*
X2921Y17305D01*
X2923Y17303D01*
X2926Y17297D01*
X2928Y17295D01*
X2928Y17291D01*
Y17288D01*
X2928Y17285D01*
X2926Y17281D01*
X2926Y17281D01*
X2925Y17278D01*
X2922Y17274D01*
X2919Y17269D01*
X2918Y17268D01*
X2916Y17265D01*
X2913Y17260D01*
X2909Y17253D01*
X2903Y17244D01*
X2898Y17233D01*
X2892Y17220D01*
X2886Y17205D01*
X2886Y17205D01*
X2885Y17202D01*
X2883Y17198D01*
X2882Y17193D01*
X2880Y17186D01*
X2877Y17179D01*
X2875Y17170D01*
X2872Y17161D01*
X2871Y17160D01*
X2871Y17157D01*
X2869Y17152D01*
X2868Y17147D01*
X2864Y17136D01*
X2862Y17130D01*
X2860Y17126D01*
X2916Y17110D01*
X2917D01*
X2918Y17110D01*
X2920Y17109D01*
X2923Y17109D01*
X2930Y17107D01*
X2937Y17106D01*
X2937D01*
X2938D01*
X2941D01*
X2945D01*
X2948Y17106D01*
X2948D01*
X2949Y17105D01*
X2952Y17103D01*
X2956Y17099D01*
X2960Y17094D01*
Y17094D01*
X2960Y17093D01*
X2962Y17089D01*
X2964Y17084D01*
X2964Y17079D01*
Y17077D01*
X2964Y17075D01*
X2963Y17073D01*
X2961Y17072D01*
X2959Y17071D01*
X2955Y17070D01*
X2951D01*
X2950D01*
X2949Y17071D01*
X2947Y17071D01*
X2944D01*
X2942Y17072D01*
X2941D01*
X2941D01*
X2939Y17072D01*
X2937Y17073D01*
X2934Y17074D01*
X2930Y17075D01*
X2926Y17076D01*
X2921Y17078D01*
X2921D01*
X2920Y17079D01*
X2917Y17079D01*
X2913Y17080D01*
X2909Y17082D01*
X2902Y17084D01*
X2894Y17086D01*
X2884Y17088D01*
X2883D01*
X2882Y17089D01*
X2880Y17090D01*
X2878Y17091D01*
X2872Y17092D01*
X2865Y17094D01*
X2864D01*
X2863Y17095D01*
X2860Y17096D01*
X2855Y17098D01*
X2850Y17099D01*
X2850Y17098D01*
X2848Y17096D01*
X2848D01*
X2846Y17096D01*
X2844Y17095D01*
X2841Y17095D01*
X2841D01*
X2838Y17095D01*
X2835D01*
X2832Y17096D01*
X2831D01*
X2829Y17096D01*
X2826Y17097D01*
X2824Y17098D01*
X2823Y17098D01*
X2821Y17099D01*
X2819Y17100D01*
X2816Y17103D01*
X2816Y17103D01*
X2815Y17105D01*
X2812Y17109D01*
X2811D01*
X2811Y17110D01*
X2809Y17110D01*
X2807Y17111D01*
X2801Y17113D01*
X2794Y17115D01*
X2785Y17118D01*
X2775Y17121D01*
X2764Y17124D01*
X2753Y17128D01*
X2730Y17135D01*
X2719Y17139D01*
X2709Y17142D01*
X2700Y17145D01*
X2691Y17147D01*
X2685Y17149D01*
X2681Y17151D01*
X2681D01*
X2679Y17152D01*
X2676Y17152D01*
X2672Y17154D01*
X2668Y17155D01*
X2663Y17157D01*
X2653Y17160D01*
X2653D01*
X2652Y17161D01*
X2649Y17162D01*
X2647Y17163D01*
X2645Y17164D01*
X2643Y17164D01*
X2642Y17165D01*
X2641D01*
X2642Y17164D01*
X2643Y17162D01*
X2643Y17158D01*
X2644Y17154D01*
Y17151D01*
X2644Y17148D01*
X2645Y17145D01*
X2646Y17138D01*
X2647Y17134D01*
X2647Y17131D01*
Y17130D01*
X2648Y17130D01*
Y17128D01*
X2648Y17126D01*
X2649Y17120D01*
X2651Y17113D01*
X2653Y17105D01*
X2656Y17096D01*
X2658Y17088D01*
X2660Y17081D01*
Y17080D01*
X2661Y17078D01*
X2663Y17075D01*
X2664Y17070D01*
X2666Y17065D01*
X2668Y17059D01*
X2674Y17047D01*
X2675Y17046D01*
X2676Y17043D01*
X2678Y17040D01*
X2679Y17036D01*
Y17035D01*
X2680Y17033D01*
X2681Y17030D01*
X2681Y17026D01*
Y17024D01*
X2681Y17022D01*
X2679Y17019D01*
X2677Y17017D01*
X2679Y17015D01*
X2685Y17011D01*
X2685D01*
X2686D01*
X2688Y17010D01*
X2691Y17009D01*
X2697Y17008D01*
X2706Y17006D01*
X2706D01*
X2707Y17005D01*
X2709Y17005D01*
X2711Y17004D01*
X2715Y17003D01*
X2719Y17002D01*
X2723Y17001D01*
X2729Y16999D01*
X2736Y16997D01*
X2743Y16995D01*
X2752Y16993D01*
X2762Y16990D01*
X2773Y16987D01*
X2784Y16984D01*
X2797Y16981D01*
X2811Y16977D01*
X2812D01*
X2815Y16976D01*
X2819Y16975D01*
X2824Y16973D01*
X2830Y16971D01*
X2837Y16970D01*
X2845Y16968D01*
X2854Y16966D01*
X2871Y16961D01*
X2888Y16957D01*
X2897Y16955D01*
X2903Y16954D01*
X2910Y16952D01*
X2916Y16951D01*
X2916D01*
X2917D01*
X2920Y16950D01*
X2924Y16950D01*
X2928Y16949D01*
X2934Y16948D01*
X2941Y16947D01*
X2950Y16947D01*
X2950D01*
X2953D01*
X2957Y16946D01*
X2963Y16946D01*
X2963D01*
X2964D01*
X2967Y16945D01*
X2971Y16944D01*
X2972Y16944D01*
X2973D01*
X2974D01*
X2974Y16943D01*
X2978Y16942D01*
X2982Y16937D01*
X2984Y16935D01*
X2986Y16932D01*
Y16931D01*
X2988Y16930D01*
X2988Y16928D01*
X2989Y16926D01*
X2991Y16920D01*
X2992Y16913D01*
Y16912D01*
X2991Y16910D01*
X2990Y16908D01*
X2988Y16907D01*
X2986Y16906D01*
X2982Y16905D01*
X2982D01*
X2981D01*
X2978Y16904D01*
X2976D01*
X2973D01*
X2969D01*
X2959Y16905D01*
X2959D01*
X2957Y16906D01*
X2954Y16906D01*
X2950Y16907D01*
X2945Y16908D01*
X2939Y16909D01*
X2931Y16911D01*
X2922Y16913D01*
X2912Y16916D01*
X2901Y16918D01*
X2888Y16921D01*
X2875Y16924D01*
X2860Y16928D01*
X2844Y16932D01*
X2826Y16937D01*
X2807Y16942D01*
X2712Y16969D01*
X2713Y16969D01*
X2714Y16967D01*
X2716Y16965D01*
X2718Y16962D01*
X2721Y16958D01*
X2725Y16954D01*
X2729Y16948D01*
X2733Y16943D01*
X2743Y16929D01*
X2753Y16914D01*
X2763Y16898D01*
X2773Y16880D01*
X2774Y16879D01*
X2774Y16878D01*
X2776Y16875D01*
X2777Y16872D01*
X2780Y16866D01*
X2780Y16862D01*
X2781Y16860D01*
Y16859D01*
X2780Y16856D01*
X2779Y16853D01*
X2776Y16851D01*
X2776Y16850D01*
X2773Y16849D01*
X2770D01*
X2767D01*
X2766D01*
X2765Y16850D01*
X2763Y16851D01*
X2762Y16853D01*
X2759Y16855D01*
X2756Y16859D01*
X2753Y16863D01*
X2750Y16868D01*
Y16869D01*
X2750Y16870D01*
X2747Y16873D01*
X2744Y16879D01*
X2740Y16886D01*
X2736Y16894D01*
X2730Y16903D01*
X2718Y16921D01*
Y16922D01*
X2717Y16923D01*
X2715Y16926D01*
X2711Y16931D01*
X2706Y16937D01*
X2701Y16946D01*
X2694Y16955D01*
X2687Y16965D01*
X2680Y16976D01*
X2676Y16979D01*
X2670Y16981D01*
X2666Y16982D01*
X2664Y16983D01*
X2663Y16984D01*
X2660Y16985D01*
X2658Y16988D01*
X2657Y16988D01*
X2657Y16989D01*
X2656Y16991D01*
X2656Y16992D01*
Y16993D01*
X2655Y16995D01*
X2655Y16997D01*
Y17004D01*
X2655Y17007D01*
X2656Y17012D01*
X2659Y17017D01*
X2659Y17018D01*
X2661Y17020D01*
X2660Y17021D01*
X2657Y17024D01*
X2653Y17029D01*
X2651Y17033D01*
X2649Y17036D01*
X2647Y17041D01*
X2645Y17045D01*
X2643Y17051D01*
X2640Y17057D01*
Y17058D01*
X2640Y17059D01*
X2639Y17061D01*
X2638Y17064D01*
X2637Y17067D01*
X2636Y17071D01*
X2633Y17080D01*
X2630Y17091D01*
X2626Y17103D01*
X2623Y17117D01*
X2620Y17131D01*
Y17132D01*
X2619Y17135D01*
X2618Y17139D01*
X2618Y17145D01*
X2617Y17153D01*
X2615Y17162D01*
X2614Y17172D01*
X2613Y17183D01*
Y17185D01*
X2613Y17186D01*
Y17189D01*
X2612Y17195D01*
X2611Y17203D01*
X2611Y17212D01*
X2610Y17221D01*
X2610Y17232D01*
Y17249D01*
X2610Y17253D01*
Y17258D01*
X2611Y17268D01*
X2612Y17280D01*
X2614Y17293D01*
X2617Y17305D01*
X2620Y17316D01*
Y17317D01*
X2621Y17318D01*
X2622Y17321D01*
X2624Y17326D01*
X2628Y17333D01*
X2632Y17339D01*
X2636Y17346D01*
X2642Y17352D01*
X2649Y17356D01*
X2649Y17357D01*
X2652Y17358D01*
X2656Y17359D01*
X2661Y17361D01*
X2668Y17362D01*
X2675D01*
X2683Y17361D01*
D02*
G37*
G36*
X2652Y16888D02*
X2653Y16887D01*
X2655Y16885D01*
X2657Y16883D01*
X2659Y16880D01*
X2661Y16877D01*
X2662Y16876D01*
X2663Y16875D01*
X2664Y16874D01*
X2666Y16871D01*
X2672Y16865D01*
X2679Y16858D01*
X2680Y16857D01*
X2682Y16856D01*
X2685Y16854D01*
X2688Y16852D01*
X2693Y16848D01*
X2698Y16844D01*
X2705Y16840D01*
X2713Y16834D01*
X2714Y16834D01*
X2717Y16832D01*
X2722Y16829D01*
X2729Y16824D01*
X2738Y16818D01*
X2750Y16811D01*
X2763Y16803D01*
X2778Y16794D01*
X2827Y16764D01*
X2828Y16763D01*
X2830Y16761D01*
X2835Y16759D01*
X2840Y16755D01*
X2847Y16751D01*
X2855Y16747D01*
X2863Y16742D01*
X2872Y16736D01*
X2892Y16724D01*
X2911Y16713D01*
X2921Y16708D01*
X2930Y16702D01*
X2938Y16698D01*
X2945Y16694D01*
X2946D01*
X2947Y16694D01*
X2950Y16691D01*
X2955Y16687D01*
X2960Y16681D01*
Y16680D01*
X2961Y16679D01*
X2962Y16677D01*
X2963Y16674D01*
X2964Y16671D01*
X2966Y16667D01*
X2966Y16662D01*
X2967Y16657D01*
X2966Y16656D01*
X2964Y16655D01*
X2962Y16654D01*
X2959Y16652D01*
X2956Y16652D01*
X2953Y16651D01*
X2949Y16650D01*
X2944Y16649D01*
X2939Y16648D01*
X2932Y16648D01*
X2925Y16647D01*
X2924D01*
X2923D01*
X2920D01*
X2917Y16647D01*
X2913D01*
X2907Y16646D01*
X2902Y16645D01*
X2895Y16645D01*
X2887Y16644D01*
X2879Y16644D01*
X2870Y16643D01*
X2861Y16643D01*
X2850Y16642D01*
X2839Y16641D01*
X2827Y16640D01*
X2815Y16639D01*
X2815D01*
X2814D01*
X2812Y16639D01*
X2810D01*
X2807Y16638D01*
X2803Y16637D01*
X2794Y16636D01*
X2784Y16635D01*
X2773Y16633D01*
X2761Y16632D01*
X2748Y16629D01*
X2747D01*
X2746D01*
X2744Y16629D01*
X2743Y16628D01*
X2737Y16627D01*
X2730Y16626D01*
X2724Y16624D01*
X2717Y16623D01*
X2712Y16621D01*
X2710Y16620D01*
X2709Y16620D01*
X2709D01*
X2708Y16618D01*
X2704Y16617D01*
X2699Y16615D01*
X2696D01*
X2693Y16616D01*
X2691Y16616D01*
X2689Y16618D01*
X2687Y16620D01*
X2685Y16622D01*
X2683Y16624D01*
X2681Y16628D01*
X2680Y16628D01*
X2679Y16629D01*
X2678Y16631D01*
X2677Y16634D01*
X2675Y16640D01*
X2674Y16643D01*
Y16649D01*
X2675Y16652D01*
X2676Y16654D01*
X2676Y16655D01*
X2678Y16655D01*
X2680Y16657D01*
X2683Y16658D01*
X2684D01*
X2685Y16659D01*
X2688Y16659D01*
X2692Y16660D01*
X2698Y16661D01*
X2705Y16662D01*
X2713Y16664D01*
X2724Y16665D01*
X2724D01*
X2725D01*
X2727Y16666D01*
X2729D01*
X2735Y16667D01*
X2743Y16667D01*
X2753Y16668D01*
X2763Y16670D01*
X2775Y16671D01*
X2788Y16672D01*
X2887Y16677D01*
X2887D01*
X2888D01*
X2890Y16677D01*
X2892D01*
X2899Y16678D01*
X2906Y16678D01*
X2913Y16679D01*
X2920Y16678D01*
X2923Y16678D01*
X2921Y16679D01*
X2917Y16681D01*
X2910Y16684D01*
X2902Y16689D01*
X2897Y16692D01*
X2891Y16695D01*
X2890D01*
X2889Y16696D01*
X2887Y16697D01*
X2885Y16698D01*
X2882Y16700D01*
X2878Y16702D01*
X2869Y16708D01*
X2858Y16715D01*
X2845Y16722D01*
X2830Y16731D01*
X2815Y16740D01*
X2814Y16740D01*
X2812Y16742D01*
X2809Y16743D01*
X2804Y16746D01*
X2800Y16749D01*
X2793Y16753D01*
X2787Y16757D01*
X2780Y16761D01*
X2765Y16770D01*
X2748Y16780D01*
X2733Y16789D01*
X2726Y16794D01*
X2719Y16798D01*
X2719D01*
X2717Y16799D01*
X2716Y16800D01*
X2713Y16802D01*
X2707Y16806D01*
X2699Y16811D01*
X2690Y16817D01*
X2681Y16823D01*
X2672Y16830D01*
X2664Y16836D01*
X2663Y16837D01*
X2661Y16838D01*
X2657Y16841D01*
X2653Y16845D01*
X2645Y16852D01*
X2641Y16856D01*
X2637Y16860D01*
X2637Y16860D01*
X2636Y16861D01*
X2635Y16863D01*
X2633Y16866D01*
X2631Y16871D01*
X2630Y16875D01*
X2630Y16878D01*
Y16879D01*
X2631Y16881D01*
X2632Y16882D01*
X2634Y16884D01*
X2636Y16885D01*
X2639Y16886D01*
X2640D01*
X2640Y16887D01*
X2644Y16888D01*
X2648Y16889D01*
X2651D01*
X2652Y16888D01*
D02*
G37*
G36*
X2610Y16482D02*
X2612Y16482D01*
X2615Y16481D01*
X2619Y16480D01*
X2623Y16479D01*
X2624Y16478D01*
X2625Y16478D01*
X2626D01*
X2627Y16477D01*
X2630Y16476D01*
X2634Y16474D01*
X2634D01*
X2635Y16474D01*
X2637Y16473D01*
X2640Y16472D01*
X2643Y16471D01*
X2646Y16470D01*
X2650Y16468D01*
X2655Y16466D01*
X2666Y16462D01*
X2679Y16457D01*
X2694Y16451D01*
X2710Y16444D01*
X2728Y16438D01*
X2747Y16430D01*
X2767Y16423D01*
X2788Y16415D01*
X2809Y16408D01*
X2830Y16400D01*
X2875Y16384D01*
X2875D01*
X2877Y16383D01*
X2880Y16383D01*
X2884Y16382D01*
X2888Y16381D01*
X2894Y16380D01*
X2906D01*
X2906D01*
X2909D01*
X2911Y16381D01*
X2914D01*
X2918D01*
X2921D01*
X2923D01*
X2924D01*
X2925D01*
X2925Y16380D01*
X2928Y16379D01*
X2932Y16375D01*
X2933Y16372D01*
X2935Y16369D01*
Y16368D01*
X2936Y16367D01*
X2936Y16366D01*
X2937Y16363D01*
X2938Y16357D01*
X2939Y16351D01*
Y16350D01*
X2938Y16348D01*
X2937Y16347D01*
X2935Y16345D01*
X2932Y16343D01*
X2929Y16342D01*
X2924Y16341D01*
X2923D01*
X2921D01*
X2917Y16342D01*
X2913Y16342D01*
X2906Y16344D01*
X2899Y16345D01*
X2890Y16348D01*
X2880Y16351D01*
X2880D01*
X2878Y16352D01*
X2875Y16353D01*
X2871Y16355D01*
X2866Y16356D01*
X2860Y16359D01*
X2853Y16361D01*
X2845Y16364D01*
X2836Y16367D01*
X2826Y16370D01*
X2816Y16374D01*
X2804Y16378D01*
X2793Y16382D01*
X2780Y16386D01*
X2767Y16391D01*
X2753Y16396D01*
X2752Y16397D01*
X2750Y16397D01*
X2746Y16398D01*
X2741Y16401D01*
X2735Y16402D01*
X2727Y16405D01*
X2720Y16408D01*
X2711Y16411D01*
X2693Y16417D01*
X2674Y16424D01*
X2656Y16431D01*
X2648Y16434D01*
X2640Y16436D01*
X2640D01*
X2638Y16438D01*
X2635Y16439D01*
X2632Y16440D01*
X2627Y16442D01*
X2622Y16445D01*
X2613Y16451D01*
X2612Y16452D01*
X2610Y16453D01*
X2608Y16455D01*
X2606Y16458D01*
X2603Y16462D01*
X2601Y16466D01*
X2599Y16470D01*
X2599Y16476D01*
Y16477D01*
X2599Y16480D01*
X2602Y16482D01*
X2603Y16483D01*
X2605D01*
X2606D01*
X2610Y16482D01*
D02*
G37*
G36*
X2743Y16327D02*
X2748Y16326D01*
X2748D01*
X2750Y16325D01*
X2753Y16323D01*
X2757Y16322D01*
X2764Y16317D01*
X2768Y16314D01*
X2771Y16310D01*
X2769Y16313D01*
Y16315D01*
X2769Y16316D01*
X2771Y16318D01*
X2773Y16319D01*
X2776Y16320D01*
X2780D01*
X2785Y16319D01*
X2786D01*
X2786Y16318D01*
X2789Y16318D01*
X2792Y16317D01*
X2796Y16316D01*
X2801Y16314D01*
X2808Y16312D01*
X2816Y16310D01*
X2817D01*
X2820Y16308D01*
X2824Y16307D01*
X2829Y16306D01*
X2835Y16304D01*
X2842Y16302D01*
X2848Y16300D01*
X2854Y16298D01*
X2854D01*
X2857Y16298D01*
X2860Y16296D01*
X2864Y16295D01*
X2868Y16294D01*
X2873Y16292D01*
X2884Y16289D01*
X2884D01*
X2886Y16288D01*
X2889Y16287D01*
X2892Y16287D01*
X2899Y16284D01*
X2903Y16283D01*
X2906Y16282D01*
X2906D01*
X2907D01*
X2909Y16283D01*
X2912Y16284D01*
X2913Y16284D01*
X2914Y16285D01*
X2917Y16285D01*
X2919Y16285D01*
X2920D01*
X2920Y16284D01*
X2924Y16283D01*
X2928Y16279D01*
X2932Y16276D01*
X2935Y16273D01*
X2935Y16273D01*
X2936Y16272D01*
X2937Y16270D01*
X2939Y16268D01*
X2942Y16263D01*
X2943Y16260D01*
X2943Y16257D01*
Y16256D01*
X2942Y16251D01*
X2940Y16250D01*
X2939Y16247D01*
X2936Y16246D01*
X2932Y16245D01*
X2932D01*
X2930D01*
X2928D01*
X2925D01*
X2921Y16246D01*
X2917Y16246D01*
X2907Y16249D01*
X2906D01*
X2904Y16250D01*
X2901Y16251D01*
X2898Y16252D01*
X2894Y16253D01*
X2890Y16255D01*
X2886Y16257D01*
X2880Y16258D01*
X2873Y16261D01*
X2867Y16264D01*
X2858Y16266D01*
X2849Y16270D01*
X2839Y16273D01*
X2822Y16280D01*
X2821D01*
X2820Y16280D01*
X2817Y16281D01*
X2814Y16283D01*
X2812Y16283D01*
X2811Y16284D01*
X2811Y16283D01*
X2812Y16283D01*
X2814Y16281D01*
X2816Y16279D01*
X2822Y16273D01*
X2830Y16266D01*
X2839Y16257D01*
X2850Y16248D01*
X2860Y16238D01*
X2871Y16227D01*
Y16227D01*
X2872Y16226D01*
X2873Y16224D01*
X2875Y16223D01*
X2880Y16216D01*
X2887Y16209D01*
X2894Y16199D01*
X2903Y16188D01*
X2911Y16176D01*
X2921Y16162D01*
Y16162D01*
X2922Y16160D01*
X2923Y16159D01*
X2924Y16156D01*
X2926Y16152D01*
X2928Y16149D01*
X2932Y16140D01*
X2937Y16129D01*
X2941Y16117D01*
X2943Y16105D01*
X2944Y16092D01*
Y16090D01*
X2944Y16087D01*
X2943Y16083D01*
X2942Y16079D01*
X2940Y16076D01*
X2937Y16072D01*
X2934Y16069D01*
X2933D01*
X2932Y16069D01*
X2930Y16068D01*
X2926Y16067D01*
X2923D01*
X2918D01*
X2913Y16068D01*
X2907Y16069D01*
X2906Y16070D01*
X2903Y16071D01*
X2899Y16073D01*
X2892Y16076D01*
X2885Y16081D01*
X2876Y16087D01*
X2865Y16095D01*
X2854Y16105D01*
X2853Y16105D01*
X2852Y16106D01*
X2850Y16107D01*
X2848Y16110D01*
X2845Y16113D01*
X2842Y16116D01*
X2833Y16124D01*
X2823Y16133D01*
X2812Y16145D01*
X2800Y16157D01*
X2787Y16171D01*
X2786Y16171D01*
X2785Y16173D01*
X2784Y16175D01*
X2781Y16177D01*
X2778Y16181D01*
X2775Y16185D01*
X2767Y16194D01*
X2758Y16205D01*
X2749Y16217D01*
X2740Y16230D01*
X2731Y16243D01*
X2731Y16244D01*
X2729Y16246D01*
X2727Y16251D01*
X2723Y16256D01*
X2720Y16261D01*
X2717Y16267D01*
X2714Y16273D01*
X2712Y16278D01*
Y16279D01*
X2711Y16280D01*
X2710Y16283D01*
X2709Y16286D01*
X2707Y16293D01*
X2706Y16300D01*
Y16302D01*
X2707Y16306D01*
X2709Y16311D01*
X2712Y16316D01*
Y16317D01*
X2713Y16317D01*
X2716Y16320D01*
X2720Y16323D01*
X2727Y16326D01*
X2727D01*
X2728Y16327D01*
X2730Y16328D01*
X2733D01*
X2739D01*
X2743Y16327D01*
D02*
G37*
G36*
X2737Y16109D02*
X2740Y16108D01*
X2741Y16107D01*
X2744Y16106D01*
X2746Y16104D01*
X2748Y16102D01*
X2751Y16099D01*
X2753Y16096D01*
Y16095D01*
X2754Y16094D01*
X2755Y16092D01*
X2756Y16091D01*
X2758Y16086D01*
X2759Y16083D01*
X2759Y16080D01*
Y16080D01*
X2759Y16078D01*
X2758Y16075D01*
X2756Y16072D01*
X2755Y16072D01*
X2754Y16071D01*
X2751Y16069D01*
X2747Y16068D01*
X2746D01*
X2744Y16067D01*
X2742Y16065D01*
X2740Y16063D01*
X2740Y16062D01*
X2739Y16060D01*
X2738Y16058D01*
X2738Y16055D01*
Y16054D01*
X2738Y16053D01*
X2739Y16050D01*
X2742Y16046D01*
X2746Y16040D01*
X2748Y16036D01*
X2752Y16032D01*
X2756Y16027D01*
X2761Y16022D01*
X2766Y16017D01*
X2772Y16011D01*
X2773Y16010D01*
X2774Y16009D01*
X2776Y16007D01*
X2778Y16005D01*
X2781Y16001D01*
X2786Y15998D01*
X2791Y15994D01*
X2796Y15989D01*
X2802Y15984D01*
X2808Y15978D01*
X2816Y15972D01*
X2823Y15966D01*
X2841Y15952D01*
X2860Y15938D01*
X2860D01*
X2861Y15937D01*
X2864Y15936D01*
X2867Y15936D01*
X2870Y15935D01*
X2875Y15933D01*
X2880Y15932D01*
X2886Y15930D01*
X2886D01*
X2888Y15929D01*
X2891Y15929D01*
X2895Y15928D01*
X2902Y15925D01*
X2906Y15925D01*
X2910Y15924D01*
X2929Y15919D01*
X2930D01*
X2930Y15918D01*
X2933Y15917D01*
X2938Y15914D01*
X2943Y15910D01*
X2944Y15909D01*
X2945Y15905D01*
X2948Y15900D01*
X2948Y15897D01*
X2949Y15893D01*
Y15893D01*
X2948Y15891D01*
X2948Y15890D01*
X2946Y15888D01*
X2943Y15886D01*
X2939Y15885D01*
X2933D01*
X2926Y15886D01*
X2925Y15887D01*
X2922Y15887D01*
X2917Y15889D01*
X2909Y15891D01*
X2900Y15893D01*
X2889Y15897D01*
X2876Y15901D01*
X2862Y15905D01*
X2861D01*
X2860Y15906D01*
X2858Y15906D01*
X2854Y15908D01*
X2850Y15909D01*
X2845Y15910D01*
X2839Y15912D01*
X2833Y15915D01*
X2831Y15915D01*
X2829Y15916D01*
X2825Y15917D01*
X2820Y15919D01*
X2813Y15921D01*
X2806Y15923D01*
X2797Y15926D01*
X2787Y15929D01*
X2786D01*
X2785Y15929D01*
X2783Y15930D01*
X2781Y15931D01*
X2777Y15932D01*
X2773Y15934D01*
X2765Y15936D01*
X2755Y15939D01*
X2746Y15942D01*
X2736Y15945D01*
X2729Y15947D01*
X2728D01*
X2727Y15948D01*
X2724Y15950D01*
X2721Y15952D01*
X2719Y15955D01*
X2716Y15959D01*
X2715Y15964D01*
X2714Y15970D01*
Y15972D01*
X2715Y15976D01*
X2716Y15978D01*
X2718Y15980D01*
X2720Y15981D01*
X2723D01*
X2724D01*
X2725D01*
X2727Y15981D01*
X2730Y15980D01*
X2734Y15979D01*
X2739Y15978D01*
X2744Y15976D01*
X2751Y15974D01*
X2819Y15951D01*
X2817Y15952D01*
X2815Y15953D01*
X2808Y15957D01*
X2800Y15962D01*
X2791Y15968D01*
X2781Y15974D01*
X2771Y15982D01*
X2761Y15992D01*
X2760Y15992D01*
X2759Y15993D01*
X2756Y15996D01*
X2751Y16001D01*
X2746Y16007D01*
X2739Y16015D01*
X2732Y16023D01*
X2725Y16031D01*
X2720Y16039D01*
X2719Y16040D01*
X2717Y16042D01*
X2715Y16046D01*
X2712Y16052D01*
X2709Y16057D01*
X2707Y16063D01*
X2705Y16069D01*
X2705Y16075D01*
Y16079D01*
X2705Y16082D01*
X2707Y16088D01*
X2710Y16095D01*
Y16095D01*
X2712Y16096D01*
X2714Y16099D01*
X2718Y16103D01*
X2724Y16107D01*
X2724D01*
X2725Y16107D01*
X2729Y16109D01*
X2734Y16109D01*
X2737Y16109D01*
D02*
G37*
G36*
X2740Y15918D02*
X2743Y15917D01*
X2744D01*
X2745Y15917D01*
X2747Y15916D01*
X2749Y15915D01*
X2754Y15910D01*
X2757Y15907D01*
X2759Y15904D01*
Y15903D01*
X2759Y15902D01*
X2761Y15900D01*
X2762Y15896D01*
X2763Y15892D01*
X2764Y15887D01*
X2765Y15881D01*
X2766Y15874D01*
Y15874D01*
X2767Y15872D01*
Y15870D01*
X2767Y15867D01*
X2768Y15863D01*
X2769Y15859D01*
X2770Y15850D01*
X2772Y15841D01*
X2773Y15832D01*
X2774Y15828D01*
X2774Y15824D01*
Y15821D01*
X2775Y15819D01*
X2779Y15795D01*
X2780Y15795D01*
X2783Y15794D01*
X2788Y15792D01*
X2794Y15790D01*
X2801Y15788D01*
X2810Y15785D01*
X2818Y15782D01*
X2827Y15779D01*
X2829Y15779D01*
X2831Y15778D01*
X2836Y15776D01*
X2842Y15775D01*
X2849Y15773D01*
X2857Y15771D01*
X2873Y15766D01*
X2874Y15766D01*
X2878Y15765D01*
X2882Y15764D01*
X2888Y15762D01*
X2895Y15761D01*
X2901Y15760D01*
X2908Y15759D01*
X2914Y15758D01*
X2914D01*
X2916D01*
X2918D01*
X2921D01*
X2926D01*
X2929D01*
X2930D01*
X2931D01*
X2932Y15758D01*
X2935Y15756D01*
X2937Y15754D01*
X2939Y15752D01*
X2941Y15750D01*
X2943Y15746D01*
Y15746D01*
X2943Y15745D01*
X2944Y15743D01*
X2945Y15741D01*
X2947Y15735D01*
X2948Y15730D01*
Y15730D01*
X2947Y15728D01*
X2947Y15726D01*
X2945Y15723D01*
X2944D01*
X2943Y15723D01*
X2941Y15722D01*
X2939Y15722D01*
X2938D01*
X2937D01*
X2935D01*
X2933D01*
X2929Y15722D01*
X2925Y15723D01*
X2920Y15723D01*
X2913Y15724D01*
X2913D01*
X2910Y15725D01*
X2906Y15726D01*
X2902Y15727D01*
X2895Y15728D01*
X2889Y15730D01*
X2882Y15732D01*
X2873Y15734D01*
X2872D01*
X2870Y15735D01*
X2866Y15736D01*
X2861Y15738D01*
X2854Y15739D01*
X2847Y15742D01*
X2838Y15744D01*
X2829Y15747D01*
X2829D01*
X2828Y15747D01*
X2825Y15748D01*
X2820Y15750D01*
X2814Y15752D01*
X2807Y15754D01*
X2799Y15757D01*
X2791Y15759D01*
X2784Y15762D01*
Y15761D01*
X2784Y15758D01*
X2785Y15753D01*
X2786Y15747D01*
X2788Y15739D01*
X2790Y15731D01*
X2792Y15721D01*
X2794Y15710D01*
Y15709D01*
X2795Y15706D01*
X2796Y15701D01*
X2796Y15696D01*
X2797Y15690D01*
X2799Y15685D01*
X2799Y15681D01*
Y15677D01*
X2799Y15674D01*
X2797Y15670D01*
X2795Y15666D01*
X2794Y15665D01*
X2792Y15664D01*
X2788Y15663D01*
X2785D01*
X2782Y15663D01*
X2782D01*
X2781Y15664D01*
X2777Y15666D01*
X2774Y15669D01*
X2772Y15671D01*
X2771Y15674D01*
Y15674D01*
X2770Y15675D01*
X2769Y15678D01*
X2769Y15684D01*
X2768Y15691D01*
Y15694D01*
X2767Y15696D01*
Y15699D01*
X2767Y15703D01*
X2766Y15707D01*
X2766Y15711D01*
Y15712D01*
X2765Y15713D01*
Y15716D01*
X2765Y15719D01*
X2763Y15724D01*
X2763Y15727D01*
X2762Y15729D01*
Y15730D01*
X2762Y15731D01*
Y15733D01*
X2761Y15735D01*
X2760Y15741D01*
X2759Y15748D01*
X2758Y15756D01*
X2757Y15762D01*
X2755Y15768D01*
X2755Y15770D01*
Y15772D01*
X2754D01*
X2754Y15772D01*
X2752D01*
X2750Y15773D01*
X2747Y15774D01*
X2743Y15775D01*
X2739Y15776D01*
X2733Y15778D01*
X2732Y15779D01*
X2729Y15779D01*
X2725Y15780D01*
X2721Y15781D01*
X2710Y15785D01*
X2705Y15787D01*
X2700Y15788D01*
X2700Y15789D01*
X2697Y15790D01*
X2694Y15791D01*
X2690Y15792D01*
X2680Y15796D01*
X2675Y15798D01*
X2671Y15799D01*
X2671D01*
X2670Y15800D01*
X2667Y15801D01*
X2665Y15802D01*
X2659Y15806D01*
X2652Y15810D01*
X2652Y15811D01*
X2651Y15812D01*
X2648Y15814D01*
X2646Y15817D01*
X2644Y15820D01*
X2642Y15824D01*
X2641Y15828D01*
X2640Y15833D01*
Y15834D01*
X2641Y15836D01*
X2641Y15839D01*
X2643Y15841D01*
X2644D01*
X2645Y15842D01*
X2648D01*
X2651Y15841D01*
X2652D01*
X2653Y15841D01*
X2654Y15840D01*
X2656Y15839D01*
X2659Y15837D01*
X2663Y15836D01*
X2668Y15833D01*
X2668Y15833D01*
X2670Y15832D01*
X2673Y15831D01*
X2677Y15829D01*
X2682Y15827D01*
X2689Y15824D01*
X2695Y15822D01*
X2704Y15819D01*
X2704D01*
X2707Y15818D01*
X2710Y15817D01*
X2716Y15815D01*
X2721Y15813D01*
X2728Y15811D01*
X2742Y15807D01*
X2750Y15804D01*
Y15805D01*
X2750Y15806D01*
Y15807D01*
X2749Y15810D01*
X2748Y15813D01*
X2748Y15816D01*
X2747Y15821D01*
X2746Y15826D01*
X2744Y15832D01*
X2743Y15838D01*
X2742Y15846D01*
X2740Y15855D01*
X2738Y15864D01*
X2735Y15875D01*
X2733Y15887D01*
Y15887D01*
X2732Y15889D01*
X2731Y15890D01*
X2727Y15893D01*
X2727D01*
X2726Y15894D01*
X2724Y15897D01*
X2722Y15900D01*
X2721Y15902D01*
Y15905D01*
X2722Y15908D01*
X2724Y15912D01*
X2726Y15914D01*
X2728Y15916D01*
X2729D01*
X2729Y15916D01*
X2733Y15917D01*
X2738Y15919D01*
X2740Y15918D01*
D02*
G37*
G36*
X2750Y15640D02*
X2751D01*
X2751D01*
X2753Y15639D01*
X2755D01*
X2761Y15638D01*
X2768Y15637D01*
X2778Y15635D01*
X2789Y15632D01*
X2801Y15629D01*
X2815Y15625D01*
X2816D01*
X2818Y15625D01*
X2820Y15624D01*
X2823Y15623D01*
X2828Y15621D01*
X2834Y15620D01*
X2840Y15617D01*
X2848Y15615D01*
X2856Y15612D01*
X2865Y15609D01*
X2876Y15606D01*
X2887Y15602D01*
X2899Y15598D01*
X2911Y15594D01*
X2925Y15590D01*
X2940Y15584D01*
X2940D01*
X2941Y15584D01*
X2944Y15582D01*
X2948Y15579D01*
X2952Y15574D01*
Y15573D01*
X2953Y15572D01*
X2955Y15568D01*
X2956Y15563D01*
X2958Y15557D01*
Y15556D01*
X2957Y15554D01*
X2956Y15550D01*
X2954Y15547D01*
X2954Y15546D01*
X2952Y15545D01*
X2949Y15545D01*
X2945Y15545D01*
X2944Y15546D01*
X2941Y15546D01*
X2937Y15548D01*
X2930Y15551D01*
X2922Y15554D01*
X2912Y15558D01*
X2899Y15563D01*
X2886Y15569D01*
X2885D01*
X2884Y15569D01*
X2882Y15571D01*
X2879Y15572D01*
X2875Y15574D01*
X2871Y15575D01*
X2861Y15579D01*
X2849Y15583D01*
X2838Y15588D01*
X2826Y15592D01*
X2815Y15596D01*
X2814D01*
X2814Y15597D01*
X2810Y15598D01*
X2806Y15599D01*
X2799Y15601D01*
X2792Y15603D01*
X2785Y15605D01*
X2778Y15607D01*
X2772Y15609D01*
X2772D01*
X2770Y15609D01*
X2767Y15610D01*
X2764Y15610D01*
X2762Y15611D01*
X2759Y15612D01*
X2757D01*
X2757Y15611D01*
Y15610D01*
X2757Y15609D01*
X2758Y15605D01*
X2761Y15601D01*
X2766Y15595D01*
X2769Y15591D01*
X2773Y15587D01*
X2777Y15583D01*
X2782Y15578D01*
X2788Y15573D01*
X2795Y15567D01*
X2795Y15567D01*
X2796Y15566D01*
X2799Y15564D01*
X2801Y15561D01*
X2806Y15559D01*
X2810Y15555D01*
X2815Y15550D01*
X2822Y15546D01*
X2829Y15541D01*
X2836Y15534D01*
X2845Y15528D01*
X2854Y15521D01*
X2864Y15514D01*
X2874Y15506D01*
X2886Y15498D01*
X2897Y15489D01*
X2916Y15476D01*
X2917Y15476D01*
X2920Y15473D01*
X2922Y15470D01*
X2925Y15465D01*
Y15464D01*
X2926Y15464D01*
X2927Y15461D01*
X2928Y15456D01*
X2929Y15451D01*
Y15447D01*
X2928Y15445D01*
X2927Y15442D01*
X2926Y15441D01*
X2925Y15440D01*
X2922D01*
X2918Y15441D01*
X2880Y15450D01*
X2813Y15466D01*
X2812D01*
X2811Y15466D01*
X2809Y15467D01*
X2806Y15468D01*
X2803Y15469D01*
X2799Y15469D01*
X2789Y15472D01*
X2778Y15474D01*
X2766Y15477D01*
X2754Y15480D01*
X2742Y15482D01*
X2742D01*
X2741D01*
X2738Y15483D01*
X2735Y15484D01*
X2731Y15484D01*
X2731D01*
X2729Y15485D01*
X2726Y15487D01*
X2721Y15491D01*
X2717Y15497D01*
Y15497D01*
X2716Y15499D01*
X2715Y15500D01*
X2714Y15503D01*
X2712Y15509D01*
X2711Y15516D01*
Y15517D01*
X2712Y15517D01*
X2712Y15519D01*
X2714Y15520D01*
X2717Y15521D01*
X2721Y15521D01*
X2728Y15521D01*
X2731Y15520D01*
X2736Y15519D01*
X2737D01*
X2740Y15518D01*
X2743Y15517D01*
X2746Y15517D01*
X2750Y15515D01*
X2754Y15514D01*
X2759Y15513D01*
X2765Y15511D01*
X2770Y15510D01*
X2777Y15508D01*
X2784Y15506D01*
X2792Y15504D01*
X2800Y15502D01*
X2810Y15499D01*
X2833Y15492D01*
X2833D01*
X2835Y15492D01*
X2837Y15491D01*
X2840Y15491D01*
X2844Y15489D01*
X2849Y15488D01*
X2858Y15485D01*
X2868Y15483D01*
X2874Y15481D01*
X2873Y15482D01*
X2868Y15485D01*
X2863Y15489D01*
X2856Y15495D01*
X2849Y15500D01*
X2841Y15506D01*
X2823Y15519D01*
X2805Y15534D01*
X2786Y15549D01*
X2769Y15563D01*
X2768Y15564D01*
X2767Y15565D01*
X2765Y15567D01*
X2762Y15569D01*
X2758Y15573D01*
X2754Y15576D01*
X2746Y15585D01*
X2738Y15595D01*
X2731Y15605D01*
X2728Y15610D01*
X2725Y15616D01*
X2724Y15620D01*
X2724Y15625D01*
Y15625D01*
X2724Y15628D01*
X2725Y15631D01*
X2727Y15633D01*
X2730Y15636D01*
X2735Y15639D01*
X2742Y15640D01*
X2746D01*
X2750Y15640D01*
D02*
G37*
G36*
X2739Y15427D02*
X2739Y15427D01*
X2742Y15426D01*
X2746Y15424D01*
X2750Y15421D01*
X2755Y15417D01*
X2761Y15411D01*
X2767Y15404D01*
X2774Y15396D01*
X2774Y15394D01*
X2777Y15391D01*
X2780Y15386D01*
X2784Y15379D01*
X2788Y15370D01*
X2792Y15360D01*
X2797Y15349D01*
X2802Y15336D01*
Y15336D01*
X2803Y15334D01*
X2803Y15333D01*
X2804Y15330D01*
X2806Y15324D01*
X2808Y15315D01*
X2811Y15306D01*
X2814Y15295D01*
X2816Y15284D01*
X2819Y15272D01*
X2819Y15272D01*
X2822Y15271D01*
X2826Y15268D01*
X2830Y15266D01*
X2836Y15263D01*
X2842Y15260D01*
X2849Y15257D01*
X2857Y15254D01*
X2858Y15254D01*
X2861Y15253D01*
X2865Y15252D01*
X2871Y15251D01*
X2878Y15250D01*
X2884Y15250D01*
X2890Y15251D01*
X2896Y15253D01*
X2897Y15253D01*
X2898Y15254D01*
X2900Y15256D01*
X2902Y15259D01*
X2905Y15262D01*
X2907Y15268D01*
X2909Y15273D01*
X2909Y15281D01*
Y15284D01*
X2909Y15287D01*
X2908Y15293D01*
X2906Y15302D01*
X2903Y15311D01*
X2899Y15322D01*
X2892Y15333D01*
X2889Y15339D01*
X2884Y15345D01*
X2884Y15345D01*
X2883Y15346D01*
X2882Y15348D01*
X2880Y15350D01*
X2875Y15356D01*
X2868Y15363D01*
X2860Y15371D01*
X2850Y15381D01*
X2839Y15390D01*
X2828Y15400D01*
X2827Y15401D01*
X2826Y15402D01*
X2823Y15404D01*
X2819Y15407D01*
X2819D01*
X2818Y15408D01*
X2816Y15411D01*
X2814Y15413D01*
X2813Y15415D01*
Y15418D01*
X2814Y15421D01*
X2816Y15422D01*
X2818Y15423D01*
X2820D01*
X2825Y15421D01*
X2825D01*
X2826Y15421D01*
X2829Y15419D01*
X2833Y15417D01*
X2838Y15414D01*
X2845Y15409D01*
X2853Y15403D01*
X2863Y15396D01*
X2864D01*
X2864Y15394D01*
X2866Y15393D01*
X2868Y15392D01*
X2873Y15386D01*
X2881Y15380D01*
X2890Y15371D01*
X2899Y15362D01*
X2908Y15351D01*
X2918Y15338D01*
Y15337D01*
X2919Y15336D01*
X2920Y15334D01*
X2922Y15332D01*
X2924Y15329D01*
X2926Y15325D01*
X2930Y15316D01*
X2935Y15305D01*
X2939Y15292D01*
X2941Y15279D01*
X2942Y15272D01*
X2943Y15265D01*
Y15262D01*
X2942Y15260D01*
X2941Y15254D01*
X2940Y15247D01*
X2938Y15239D01*
X2935Y15232D01*
X2929Y15224D01*
X2923Y15218D01*
X2922Y15218D01*
X2919Y15216D01*
X2914Y15214D01*
X2908Y15213D01*
X2899Y15212D01*
X2889D01*
X2877Y15214D01*
X2870Y15215D01*
X2863Y15218D01*
X2862D01*
X2861Y15218D01*
X2859Y15219D01*
X2856Y15220D01*
X2853Y15222D01*
X2849Y15223D01*
X2839Y15228D01*
X2828Y15234D01*
X2815Y15241D01*
X2802Y15250D01*
X2788Y15260D01*
X2788Y15261D01*
X2786Y15261D01*
X2785Y15263D01*
X2782Y15265D01*
X2776Y15272D01*
X2767Y15280D01*
X2757Y15290D01*
X2747Y15301D01*
X2738Y15313D01*
X2728Y15326D01*
Y15326D01*
X2727Y15328D01*
X2726Y15329D01*
X2725Y15332D01*
X2723Y15335D01*
X2721Y15339D01*
X2716Y15348D01*
X2712Y15358D01*
X2708Y15370D01*
X2706Y15381D01*
X2705Y15393D01*
Y15396D01*
X2705Y15399D01*
X2706Y15404D01*
X2707Y15408D01*
X2708Y15413D01*
X2710Y15418D01*
X2713Y15422D01*
X2714Y15423D01*
X2715Y15424D01*
X2717Y15425D01*
X2720Y15427D01*
X2723Y15428D01*
X2728Y15429D01*
X2733D01*
X2739Y15427D01*
D02*
G37*
G36*
X2850Y15216D02*
X2853Y15215D01*
X2854Y15215D01*
X2856Y15214D01*
X2857Y15212D01*
X2860Y15211D01*
X2864Y15208D01*
X2867Y15204D01*
X2872Y15200D01*
X2872Y15199D01*
X2873Y15199D01*
X2875Y15197D01*
X2876Y15195D01*
X2879Y15192D01*
X2882Y15188D01*
X2889Y15180D01*
X2897Y15169D01*
X2906Y15157D01*
X2916Y15143D01*
X2925Y15127D01*
Y15127D01*
X2926Y15125D01*
X2928Y15123D01*
X2929Y15120D01*
X2931Y15116D01*
X2933Y15112D01*
X2936Y15106D01*
X2938Y15101D01*
X2943Y15088D01*
X2947Y15074D01*
X2950Y15058D01*
X2950Y15051D01*
X2951Y15042D01*
Y15038D01*
X2950Y15036D01*
Y15032D01*
X2950Y15027D01*
X2948Y15018D01*
X2944Y15008D01*
X2940Y14998D01*
X2934Y14988D01*
X2930Y14983D01*
X2926Y14979D01*
X2925D01*
X2925Y14979D01*
X2923Y14977D01*
X2921Y14976D01*
X2918Y14975D01*
X2916Y14974D01*
X2911Y14973D01*
X2907Y14972D01*
X2902Y14971D01*
X2897Y14970D01*
X2890Y14970D01*
X2884D01*
X2876Y14971D01*
X2868Y14972D01*
X2860Y14974D01*
X2851Y14977D01*
X2850D01*
X2849Y14977D01*
X2848Y14978D01*
X2845Y14979D01*
X2842Y14980D01*
X2838Y14981D01*
X2830Y14985D01*
X2819Y14991D01*
X2806Y14997D01*
X2792Y15004D01*
X2777Y15013D01*
X2777Y15014D01*
X2776Y15014D01*
X2773Y15015D01*
X2770Y15018D01*
X2767Y15020D01*
X2762Y15022D01*
X2753Y15029D01*
X2742Y15037D01*
X2729Y15045D01*
X2717Y15055D01*
X2706Y15064D01*
X2705Y15064D01*
X2705Y15065D01*
X2703Y15067D01*
X2701Y15068D01*
X2695Y15074D01*
X2687Y15080D01*
X2679Y15089D01*
X2671Y15098D01*
X2662Y15108D01*
X2654Y15118D01*
Y15119D01*
X2653Y15120D01*
X2651Y15123D01*
X2647Y15129D01*
X2643Y15136D01*
X2640Y15144D01*
X2636Y15152D01*
X2634Y15161D01*
X2633Y15170D01*
Y15173D01*
X2633Y15177D01*
X2634Y15182D01*
X2637Y15187D01*
X2640Y15192D01*
X2644Y15196D01*
X2649Y15199D01*
X2649Y15200D01*
X2652Y15200D01*
X2655Y15201D01*
X2660Y15201D01*
X2666Y15202D01*
X2672Y15201D01*
X2679Y15200D01*
X2687Y15198D01*
X2688D01*
X2689Y15197D01*
X2691Y15197D01*
X2693Y15196D01*
X2698Y15193D01*
X2705Y15189D01*
X2706D01*
X2706Y15188D01*
X2710Y15185D01*
X2716Y15181D01*
X2721Y15176D01*
X2722Y15174D01*
X2724Y15171D01*
X2727Y15168D01*
X2727Y15166D01*
X2728Y15164D01*
Y15163D01*
X2727Y15160D01*
X2725Y15159D01*
X2724Y15158D01*
X2722D01*
X2719Y15159D01*
X2719D01*
X2717Y15159D01*
X2715Y15161D01*
X2712Y15162D01*
X2711Y15163D01*
X2709Y15164D01*
X2706Y15166D01*
X2704Y15167D01*
X2704D01*
X2702Y15167D01*
X2700Y15168D01*
X2697Y15169D01*
X2691Y15170D01*
X2683Y15171D01*
X2683D01*
X2682D01*
X2679D01*
X2675Y15170D01*
X2672Y15167D01*
X2671Y15167D01*
X2669Y15165D01*
X2667Y15161D01*
X2667Y15157D01*
Y15155D01*
X2667Y15154D01*
X2668Y15151D01*
X2668Y15148D01*
X2670Y15144D01*
X2672Y15140D01*
X2674Y15135D01*
X2678Y15130D01*
X2682Y15124D01*
X2687Y15117D01*
X2693Y15110D01*
X2700Y15103D01*
X2708Y15095D01*
X2718Y15086D01*
X2729Y15077D01*
X2730Y15076D01*
X2734Y15074D01*
X2739Y15070D01*
X2746Y15064D01*
X2754Y15059D01*
X2764Y15052D01*
X2775Y15045D01*
X2786Y15038D01*
X2787D01*
X2788Y15037D01*
X2789Y15036D01*
X2792Y15035D01*
X2798Y15032D01*
X2806Y15027D01*
X2816Y15023D01*
X2826Y15018D01*
X2837Y15013D01*
X2849Y15009D01*
X2850D01*
X2852Y15008D01*
X2856Y15007D01*
X2861Y15006D01*
X2867Y15005D01*
X2872Y15004D01*
X2879Y15004D01*
X2885Y15004D01*
X2886D01*
X2888Y15005D01*
X2891Y15006D01*
X2894Y15007D01*
X2898Y15009D01*
X2903Y15012D01*
X2907Y15015D01*
X2911Y15019D01*
X2911Y15019D01*
X2912Y15021D01*
X2914Y15023D01*
X2916Y15027D01*
X2917Y15032D01*
X2918Y15037D01*
X2920Y15044D01*
X2920Y15051D01*
Y15056D01*
X2920Y15063D01*
X2918Y15071D01*
X2916Y15081D01*
X2914Y15092D01*
X2910Y15104D01*
X2905Y15116D01*
Y15116D01*
X2904Y15117D01*
X2903Y15119D01*
X2902Y15121D01*
X2900Y15124D01*
X2898Y15128D01*
X2893Y15136D01*
X2887Y15147D01*
X2880Y15158D01*
X2872Y15170D01*
X2863Y15184D01*
X2861Y15185D01*
X2860Y15186D01*
X2858Y15188D01*
X2856Y15190D01*
X2852Y15194D01*
X2852Y15195D01*
X2850Y15196D01*
X2849Y15197D01*
X2847Y15200D01*
X2844Y15204D01*
X2842Y15207D01*
X2842Y15209D01*
Y15210D01*
X2842Y15212D01*
X2843Y15214D01*
X2845Y15216D01*
X2846D01*
X2847Y15216D01*
X2850Y15216D01*
D02*
G37*
G36*
X2710Y14839D02*
X2719Y14837D01*
X2720D01*
X2721Y14836D01*
X2723Y14836D01*
X2725Y14835D01*
X2729Y14833D01*
X2733Y14831D01*
X2742Y14826D01*
X2753Y14820D01*
X2765Y14812D01*
X2778Y14802D01*
X2791Y14791D01*
X2791Y14790D01*
X2792Y14789D01*
X2794Y14787D01*
X2796Y14784D01*
X2800Y14782D01*
X2803Y14777D01*
X2808Y14772D01*
X2812Y14767D01*
X2818Y14760D01*
X2823Y14753D01*
X2830Y14745D01*
X2837Y14737D01*
X2844Y14727D01*
X2850Y14718D01*
X2858Y14707D01*
X2866Y14696D01*
Y14695D01*
X2867Y14694D01*
X2868Y14692D01*
X2871Y14689D01*
X2873Y14686D01*
X2875Y14682D01*
X2882Y14672D01*
X2889Y14661D01*
X2897Y14648D01*
X2906Y14635D01*
X2914Y14620D01*
Y14620D01*
X2916Y14619D01*
X2917Y14617D01*
X2918Y14614D01*
X2922Y14607D01*
X2926Y14598D01*
X2932Y14589D01*
X2937Y14579D01*
X2941Y14570D01*
X2945Y14561D01*
X2945Y14560D01*
X2947Y14559D01*
X2950Y14556D01*
X2952Y14553D01*
X2953Y14552D01*
X2954Y14549D01*
X2956Y14545D01*
X2956Y14540D01*
Y14538D01*
X2956Y14537D01*
X2955Y14534D01*
X2954Y14532D01*
X2953Y14531D01*
X2951D01*
X2948Y14530D01*
X2944Y14532D01*
X2943Y14532D01*
X2942D01*
X2940Y14533D01*
X2937Y14534D01*
X2933Y14536D01*
X2928Y14538D01*
X2921Y14541D01*
X2920Y14542D01*
X2917Y14543D01*
X2913Y14545D01*
X2907Y14547D01*
X2901Y14550D01*
X2892Y14553D01*
X2883Y14556D01*
X2873Y14560D01*
X2873D01*
X2871Y14560D01*
X2869Y14561D01*
X2865Y14563D01*
X2861Y14564D01*
X2857Y14566D01*
X2851Y14567D01*
X2845Y14570D01*
X2832Y14574D01*
X2818Y14578D01*
X2803Y14583D01*
X2789Y14587D01*
X2788D01*
X2787Y14588D01*
X2785Y14589D01*
X2782Y14590D01*
X2778Y14591D01*
X2774Y14592D01*
X2765Y14595D01*
X2754Y14598D01*
X2744Y14602D01*
X2735Y14605D01*
X2731Y14606D01*
X2727Y14608D01*
X2727D01*
X2726Y14608D01*
X2723Y14609D01*
X2717Y14611D01*
X2711Y14614D01*
X2704Y14617D01*
X2696Y14620D01*
X2689Y14624D01*
X2682Y14628D01*
X2681Y14629D01*
X2679Y14630D01*
X2676Y14632D01*
X2674Y14636D01*
X2671Y14639D01*
X2668Y14644D01*
X2667Y14648D01*
X2666Y14654D01*
Y14657D01*
X2667Y14659D01*
X2668Y14662D01*
X2669Y14663D01*
X2670Y14665D01*
X2673Y14665D01*
X2674D01*
X2676Y14665D01*
X2677Y14664D01*
X2678Y14663D01*
X2680Y14663D01*
X2683Y14661D01*
X2686Y14659D01*
X2690Y14657D01*
X2694Y14654D01*
X2695Y14653D01*
X2697Y14653D01*
X2699Y14651D01*
X2702Y14649D01*
X2710Y14644D01*
X2719Y14641D01*
X2720D01*
X2721Y14640D01*
X2723Y14640D01*
X2725Y14639D01*
X2729Y14638D01*
X2733Y14636D01*
X2743Y14633D01*
X2754Y14629D01*
X2767Y14625D01*
X2781Y14621D01*
X2796Y14616D01*
X2796D01*
X2798Y14616D01*
X2801Y14614D01*
X2805Y14613D01*
X2810Y14612D01*
X2815Y14610D01*
X2827Y14606D01*
X2839Y14602D01*
X2852Y14598D01*
X2857Y14596D01*
X2862Y14594D01*
X2867Y14593D01*
X2870Y14592D01*
X2871D01*
X2872Y14591D01*
X2873Y14591D01*
X2875Y14590D01*
X2881Y14589D01*
X2887Y14586D01*
X2894Y14584D01*
X2900Y14582D01*
X2905Y14580D01*
X2906Y14579D01*
X2907Y14579D01*
X2907Y14579D01*
X2906Y14581D01*
X2905Y14585D01*
X2902Y14589D01*
X2898Y14595D01*
X2894Y14604D01*
X2888Y14614D01*
X2881Y14626D01*
Y14627D01*
X2880Y14628D01*
X2879Y14629D01*
X2878Y14632D01*
X2873Y14639D01*
X2868Y14647D01*
X2863Y14657D01*
X2856Y14666D01*
X2850Y14677D01*
X2844Y14686D01*
X2843Y14687D01*
X2842Y14689D01*
X2840Y14692D01*
X2838Y14695D01*
X2834Y14699D01*
X2831Y14704D01*
X2822Y14716D01*
X2812Y14729D01*
X2801Y14742D01*
X2791Y14754D01*
X2780Y14766D01*
X2779Y14767D01*
X2778Y14767D01*
X2777Y14769D01*
X2774Y14771D01*
X2769Y14775D01*
X2762Y14781D01*
X2753Y14787D01*
X2743Y14794D01*
X2732Y14799D01*
X2721Y14804D01*
X2721D01*
X2720Y14805D01*
X2718D01*
X2716Y14805D01*
X2710Y14806D01*
X2703Y14805D01*
X2699Y14803D01*
X2695Y14802D01*
X2691Y14799D01*
X2687Y14797D01*
X2683Y14792D01*
X2680Y14788D01*
X2677Y14782D01*
X2674Y14775D01*
Y14774D01*
X2674Y14773D01*
X2673Y14771D01*
X2672Y14767D01*
X2671Y14763D01*
X2670Y14758D01*
X2668Y14752D01*
X2667Y14745D01*
X2666Y14737D01*
X2665Y14729D01*
X2664Y14719D01*
X2663Y14708D01*
X2661Y14697D01*
X2661Y14685D01*
X2660Y14672D01*
Y14649D01*
X2661Y14642D01*
X2661Y14633D01*
X2663Y14622D01*
X2664Y14609D01*
X2666Y14595D01*
Y14593D01*
X2667Y14591D01*
Y14589D01*
X2667Y14586D01*
X2668Y14581D01*
X2669Y14576D01*
X2670Y14571D01*
Y14570D01*
X2671Y14570D01*
X2671Y14566D01*
X2672Y14561D01*
X2673Y14558D01*
Y14557D01*
X2672Y14555D01*
X2670Y14552D01*
X2668Y14551D01*
X2666Y14550D01*
X2665D01*
X2664D01*
X2660Y14549D01*
X2656D01*
X2650Y14551D01*
X2649Y14551D01*
X2647Y14552D01*
X2645Y14555D01*
X2643Y14558D01*
X2642Y14559D01*
X2641Y14562D01*
X2639Y14566D01*
X2638Y14572D01*
Y14573D01*
X2637Y14576D01*
X2637Y14582D01*
X2636Y14589D01*
X2635Y14597D01*
X2634Y14605D01*
X2633Y14614D01*
X2633Y14622D01*
Y14623D01*
X2632Y14626D01*
Y14630D01*
X2632Y14636D01*
X2631Y14643D01*
Y14651D01*
X2630Y14660D01*
Y14678D01*
X2631Y14684D01*
Y14691D01*
X2632Y14700D01*
X2632Y14709D01*
X2633Y14719D01*
X2636Y14741D01*
X2639Y14763D01*
X2644Y14785D01*
X2647Y14795D01*
X2651Y14805D01*
Y14805D01*
X2652Y14807D01*
X2653Y14809D01*
X2655Y14812D01*
X2659Y14819D01*
X2667Y14827D01*
X2671Y14830D01*
X2676Y14834D01*
X2682Y14837D01*
X2688Y14839D01*
X2695Y14840D01*
X2702D01*
X2710Y14839D01*
D02*
G37*
G36*
X2638Y14553D02*
X2639D01*
X2640Y14553D01*
X2643Y14551D01*
X2645Y14549D01*
X2648Y14546D01*
X2649Y14543D01*
X2652Y14539D01*
X2652Y14538D01*
X2653Y14536D01*
X2655Y14532D01*
X2657Y14527D01*
X2659Y14521D01*
X2662Y14513D01*
X2665Y14503D01*
X2668Y14492D01*
Y14492D01*
X2668Y14491D01*
X2669Y14488D01*
X2670Y14482D01*
X2672Y14475D01*
X2674Y14468D01*
X2675Y14460D01*
X2677Y14451D01*
X2679Y14443D01*
Y14442D01*
X2679Y14441D01*
Y14438D01*
X2681Y14433D01*
X2682Y14426D01*
X2683Y14417D01*
X2685Y14407D01*
X2686Y14397D01*
X2687Y14386D01*
Y14385D01*
X2688Y14382D01*
X2689Y14377D01*
Y14372D01*
X2689Y14366D01*
X2690Y14361D01*
X2690Y14356D01*
Y14354D01*
X2691Y14354D01*
X2694Y14353D01*
X2699Y14351D01*
X2705Y14350D01*
X2713Y14347D01*
X2722Y14344D01*
X2732Y14341D01*
X2742Y14338D01*
X2743D01*
X2743Y14337D01*
X2747Y14337D01*
X2751Y14335D01*
X2757Y14333D01*
X2763Y14332D01*
X2769Y14330D01*
X2773Y14329D01*
X2777Y14328D01*
Y14328D01*
X2776Y14331D01*
X2776Y14334D01*
X2775Y14340D01*
X2774Y14347D01*
X2772Y14356D01*
X2771Y14362D01*
X2770Y14368D01*
X2769Y14374D01*
X2768Y14382D01*
X2766Y14396D01*
Y14397D01*
X2765Y14399D01*
X2765Y14401D01*
X2763Y14407D01*
X2762Y14415D01*
X2759Y14423D01*
X2756Y14431D01*
X2752Y14440D01*
X2747Y14448D01*
X2747Y14449D01*
X2746Y14450D01*
X2745Y14452D01*
X2743Y14454D01*
X2741Y14460D01*
X2740Y14463D01*
X2740Y14465D01*
Y14466D01*
X2740Y14468D01*
X2742Y14470D01*
X2746Y14472D01*
X2746D01*
X2748Y14473D01*
X2752D01*
X2755Y14472D01*
X2756D01*
X2757Y14471D01*
X2759Y14470D01*
X2762Y14468D01*
X2766Y14464D01*
X2769Y14459D01*
X2773Y14453D01*
X2777Y14445D01*
X2778Y14443D01*
X2779Y14441D01*
X2781Y14436D01*
X2783Y14430D01*
X2786Y14422D01*
X2788Y14414D01*
X2791Y14405D01*
X2793Y14396D01*
Y14395D01*
X2793Y14392D01*
X2795Y14388D01*
X2796Y14382D01*
X2797Y14375D01*
X2798Y14367D01*
X2800Y14358D01*
X2801Y14349D01*
Y14348D01*
X2801Y14345D01*
X2802Y14341D01*
X2803Y14336D01*
X2803Y14331D01*
X2804Y14326D01*
X2804Y14323D01*
X2805Y14321D01*
X2806D01*
X2808Y14320D01*
X2812Y14318D01*
X2817Y14317D01*
X2823Y14316D01*
X2830Y14313D01*
X2838Y14312D01*
X2847Y14309D01*
X2865Y14305D01*
X2883Y14302D01*
X2901Y14299D01*
X2909Y14298D01*
X2916D01*
Y14299D01*
X2917Y14300D01*
X2917Y14302D01*
X2918Y14305D01*
X2921Y14311D01*
X2922Y14319D01*
Y14321D01*
X2923Y14324D01*
Y14328D01*
X2924Y14332D01*
Y14338D01*
X2924Y14344D01*
Y14355D01*
X2924Y14359D01*
Y14364D01*
X2923Y14370D01*
X2922Y14377D01*
X2919Y14391D01*
Y14392D01*
X2918Y14394D01*
X2917Y14398D01*
X2916Y14403D01*
X2914Y14408D01*
X2911Y14413D01*
X2909Y14418D01*
X2907Y14423D01*
X2906Y14424D01*
X2906Y14426D01*
X2904Y14427D01*
X2902Y14430D01*
X2899Y14435D01*
X2897Y14437D01*
X2895Y14438D01*
X2894D01*
X2893Y14438D01*
X2890D01*
X2889D01*
X2887D01*
X2883Y14437D01*
X2883D01*
X2882Y14437D01*
X2878Y14435D01*
X2878D01*
X2876Y14435D01*
X2873D01*
X2871Y14435D01*
X2871D01*
X2869Y14436D01*
X2868Y14437D01*
X2867Y14439D01*
X2865Y14441D01*
X2863Y14445D01*
X2863Y14449D01*
X2862Y14453D01*
Y14455D01*
X2863Y14457D01*
X2863Y14459D01*
X2865Y14464D01*
X2867Y14466D01*
X2870Y14468D01*
X2871D01*
X2871Y14468D01*
X2875Y14469D01*
X2880D01*
X2883D01*
X2887Y14468D01*
X2887D01*
X2890Y14467D01*
X2893Y14465D01*
X2897Y14463D01*
X2902Y14460D01*
X2907Y14456D01*
X2913Y14450D01*
X2919Y14443D01*
X2920Y14442D01*
X2921Y14440D01*
X2924Y14436D01*
X2928Y14430D01*
X2932Y14423D01*
X2936Y14415D01*
X2940Y14406D01*
X2943Y14396D01*
Y14396D01*
X2944Y14395D01*
X2945Y14392D01*
X2946Y14386D01*
X2948Y14379D01*
X2950Y14370D01*
X2951Y14360D01*
X2952Y14351D01*
X2953Y14340D01*
Y14329D01*
X2952Y14323D01*
Y14316D01*
X2951Y14307D01*
X2951Y14299D01*
X2950Y14293D01*
Y14292D01*
X2949Y14290D01*
X2948Y14287D01*
X2947Y14283D01*
X2943Y14275D01*
X2940Y14271D01*
X2937Y14268D01*
X2937Y14267D01*
X2935Y14267D01*
X2931Y14265D01*
X2926Y14265D01*
X2920Y14264D01*
X2912Y14264D01*
X2902Y14264D01*
X2891Y14266D01*
X2891D01*
X2890Y14267D01*
X2888D01*
X2886Y14267D01*
X2883Y14268D01*
X2879Y14269D01*
X2874Y14270D01*
X2869Y14271D01*
X2858Y14274D01*
X2844Y14277D01*
X2828Y14282D01*
X2811Y14286D01*
X2811Y14285D01*
X2812Y14283D01*
X2812Y14280D01*
X2814Y14278D01*
X2814Y14274D01*
X2815Y14270D01*
Y14268D01*
X2815Y14266D01*
Y14264D01*
X2816Y14258D01*
X2816Y14252D01*
Y14251D01*
X2816Y14248D01*
X2815Y14245D01*
X2812Y14241D01*
X2811Y14241D01*
X2808Y14240D01*
X2804D01*
X2800Y14241D01*
X2799Y14241D01*
X2797Y14242D01*
X2795Y14244D01*
X2792Y14245D01*
X2791Y14246D01*
X2789Y14248D01*
X2788Y14250D01*
X2786Y14254D01*
Y14254D01*
X2786Y14256D01*
Y14259D01*
X2785Y14263D01*
X2785Y14270D01*
X2784Y14274D01*
Y14276D01*
X2782Y14294D01*
X2782D01*
X2780Y14294D01*
X2777Y14295D01*
X2773Y14297D01*
X2769Y14298D01*
X2763Y14299D01*
X2757Y14302D01*
X2750Y14303D01*
X2736Y14308D01*
X2721Y14313D01*
X2706Y14317D01*
X2693Y14321D01*
Y14317D01*
X2694Y14314D01*
Y14291D01*
X2693Y14288D01*
X2692Y14286D01*
X2690Y14283D01*
X2690Y14283D01*
X2688Y14282D01*
X2685D01*
X2682Y14283D01*
X2681D01*
X2679Y14284D01*
X2677Y14285D01*
X2674Y14287D01*
X2671Y14291D01*
X2667Y14295D01*
X2665Y14301D01*
X2663Y14307D01*
Y14309D01*
X2662Y14312D01*
X2661Y14317D01*
X2660Y14323D01*
Y14325D01*
X2660Y14328D01*
X2659Y14332D01*
Y14333D01*
X2659Y14334D01*
X2657Y14336D01*
X2656Y14338D01*
X2654Y14341D01*
X2652Y14345D01*
X2651Y14349D01*
X2650Y14354D01*
X2649Y14359D01*
Y14359D01*
X2650Y14362D01*
X2652Y14363D01*
X2655Y14364D01*
X2655D01*
X2656Y14365D01*
X2657Y14365D01*
X2657Y14366D01*
Y14367D01*
X2656Y14370D01*
Y14376D01*
X2656Y14384D01*
X2655Y14393D01*
X2653Y14405D01*
X2652Y14419D01*
X2650Y14435D01*
Y14437D01*
X2649Y14438D01*
X2649Y14441D01*
Y14444D01*
X2648Y14448D01*
X2647Y14452D01*
X2646Y14458D01*
X2645Y14464D01*
X2644Y14470D01*
X2643Y14478D01*
X2641Y14486D01*
X2639Y14495D01*
X2637Y14504D01*
X2634Y14515D01*
X2632Y14526D01*
X2628Y14547D01*
Y14548D01*
X2629Y14551D01*
X2630Y14553D01*
X2633Y14554D01*
X2635D01*
X2638Y14553D01*
D02*
G37*
G36*
X2897Y14177D02*
X2902Y14176D01*
X2902D01*
X2903Y14175D01*
X2907Y14173D01*
X2911Y14169D01*
X2916Y14164D01*
Y14163D01*
X2916Y14162D01*
X2917Y14161D01*
X2918Y14159D01*
X2920Y14153D01*
X2921Y14146D01*
X2926Y14064D01*
X2931Y14006D01*
X2934Y13977D01*
Y13976D01*
X2933Y13973D01*
X2931Y13970D01*
X2930Y13969D01*
X2928Y13968D01*
X2927D01*
X2926D01*
X2924Y13967D01*
X2920D01*
X2916Y13968D01*
X2914Y13969D01*
X2912Y13969D01*
X2910Y13972D01*
X2907Y13974D01*
X2907Y13975D01*
X2906Y13976D01*
X2905Y13979D01*
X2904Y13981D01*
Y13982D01*
X2903Y13983D01*
X2901Y13983D01*
X2899Y13984D01*
X2896Y13985D01*
X2892Y13986D01*
X2887Y13988D01*
X2882Y13990D01*
X2875Y13992D01*
X2867Y13995D01*
X2857Y13999D01*
X2846Y14002D01*
X2834Y14006D01*
X2821Y14011D01*
X2806Y14016D01*
X2789Y14022D01*
X2789D01*
X2786Y14023D01*
X2783Y14024D01*
X2778Y14025D01*
X2773Y14028D01*
X2766Y14029D01*
X2759Y14032D01*
X2751Y14034D01*
X2734Y14040D01*
X2717Y14044D01*
X2700Y14049D01*
X2692Y14051D01*
X2685Y14052D01*
X2684D01*
X2683Y14053D01*
X2681D01*
X2679Y14053D01*
X2672Y14055D01*
X2665Y14056D01*
X2657Y14057D01*
X2651Y14059D01*
X2648Y14060D01*
X2646Y14060D01*
X2644Y14061D01*
X2643D01*
X2643D01*
X2641Y14062D01*
X2638Y14063D01*
X2634Y14067D01*
X2630Y14072D01*
Y14072D01*
X2629Y14073D01*
X2627Y14077D01*
X2625Y14082D01*
X2625Y14087D01*
Y14088D01*
X2625Y14090D01*
X2626Y14092D01*
X2629Y14094D01*
X2629D01*
X2632Y14094D01*
X2635Y14095D01*
X2639D01*
X2640D01*
X2643Y14094D01*
X2647Y14094D01*
X2652Y14093D01*
X2661Y14091D01*
X2666Y14090D01*
X2671Y14089D01*
X2677Y14087D01*
X2684Y14086D01*
X2691Y14084D01*
X2699Y14082D01*
X2700D01*
X2701Y14081D01*
X2703Y14081D01*
X2706Y14079D01*
X2710Y14078D01*
X2715Y14077D01*
X2720Y14075D01*
X2726Y14074D01*
X2739Y14070D01*
X2754Y14065D01*
X2770Y14060D01*
X2787Y14054D01*
X2788D01*
X2789Y14053D01*
X2791Y14053D01*
X2793Y14052D01*
X2796Y14051D01*
X2800Y14050D01*
X2808Y14047D01*
X2819Y14043D01*
X2830Y14039D01*
X2843Y14035D01*
X2856Y14030D01*
X2856D01*
X2857Y14030D01*
X2858Y14029D01*
X2861Y14029D01*
X2867Y14026D01*
X2873Y14024D01*
X2881Y14021D01*
X2888Y14019D01*
X2895Y14017D01*
X2901Y14015D01*
Y14016D01*
X2900Y14017D01*
Y14019D01*
X2899Y14023D01*
Y14027D01*
X2899Y14033D01*
Y14036D01*
X2898Y14039D01*
Y14044D01*
X2898Y14049D01*
X2897Y14055D01*
X2897Y14068D01*
Y14070D01*
X2896Y14071D01*
Y14074D01*
X2895Y14079D01*
X2894Y14087D01*
X2892Y14096D01*
X2891Y14106D01*
X2890Y14118D01*
X2887Y14130D01*
Y14132D01*
X2887Y14133D01*
X2886Y14135D01*
X2886Y14141D01*
X2884Y14147D01*
X2883Y14154D01*
X2883Y14161D01*
X2882Y14166D01*
Y14171D01*
X2882Y14174D01*
X2884Y14177D01*
X2886Y14178D01*
X2888D01*
X2890D01*
X2892D01*
X2897Y14177D01*
D02*
G37*
G36*
X2832Y13791D02*
X2840Y13788D01*
X2841Y13788D01*
X2844Y13787D01*
X2848Y13785D01*
X2853Y13783D01*
X2859Y13779D01*
X2867Y13774D01*
X2875Y13767D01*
X2884Y13759D01*
X2885Y13758D01*
X2888Y13755D01*
X2892Y13750D01*
X2898Y13744D01*
X2905Y13736D01*
X2912Y13727D01*
X2920Y13716D01*
X2926Y13704D01*
Y13704D01*
X2927Y13703D01*
X2928Y13702D01*
X2929Y13699D01*
X2932Y13693D01*
X2935Y13684D01*
X2938Y13674D01*
X2941Y13664D01*
X2943Y13652D01*
X2944Y13639D01*
Y13636D01*
X2943Y13634D01*
X2943Y13628D01*
X2941Y13621D01*
X2939Y13614D01*
X2936Y13607D01*
X2932Y13601D01*
X2925Y13596D01*
X2925Y13596D01*
X2922Y13595D01*
X2918Y13593D01*
X2913Y13593D01*
X2906Y13592D01*
X2898D01*
X2890Y13593D01*
X2880Y13596D01*
X2879Y13596D01*
X2876Y13597D01*
X2871Y13599D01*
X2864Y13602D01*
X2856Y13606D01*
X2846Y13611D01*
X2835Y13616D01*
X2823Y13623D01*
X2822D01*
X2821Y13624D01*
X2819Y13625D01*
X2817Y13627D01*
X2811Y13631D01*
X2803Y13636D01*
X2793Y13643D01*
X2783Y13650D01*
X2773Y13658D01*
X2762Y13668D01*
X2762Y13668D01*
X2761Y13669D01*
X2760Y13670D01*
X2758Y13671D01*
X2756Y13673D01*
X2753Y13676D01*
X2748Y13680D01*
X2748Y13681D01*
X2746Y13682D01*
X2744Y13684D01*
X2741Y13688D01*
X2735Y13695D01*
X2729Y13703D01*
X2728Y13704D01*
X2728Y13706D01*
X2727Y13708D01*
X2725Y13711D01*
X2723Y13718D01*
X2722Y13722D01*
Y13727D01*
X2723Y13729D01*
X2723Y13732D01*
X2725Y13736D01*
X2726Y13736D01*
X2728Y13738D01*
X2730Y13739D01*
X2732D01*
X2734Y13738D01*
X2735D01*
X2735Y13737D01*
X2738Y13736D01*
X2740Y13733D01*
X2741Y13732D01*
X2743Y13730D01*
X2744Y13729D01*
X2746Y13727D01*
X2746Y13726D01*
X2749Y13723D01*
X2753Y13719D01*
X2758Y13714D01*
X2764Y13707D01*
X2770Y13700D01*
X2785Y13687D01*
X2786Y13687D01*
X2789Y13684D01*
X2793Y13680D01*
X2799Y13676D01*
X2806Y13670D01*
X2813Y13664D01*
X2821Y13658D01*
X2830Y13653D01*
X2831Y13652D01*
X2834Y13650D01*
X2838Y13647D01*
X2845Y13644D01*
X2852Y13640D01*
X2861Y13636D01*
X2870Y13632D01*
X2880Y13629D01*
X2880D01*
X2881Y13628D01*
X2885Y13628D01*
X2890D01*
X2896Y13628D01*
X2899Y13630D01*
X2902Y13631D01*
X2905Y13634D01*
X2907Y13636D01*
X2909Y13640D01*
X2911Y13645D01*
X2911Y13651D01*
X2912Y13658D01*
Y13661D01*
X2911Y13665D01*
X2910Y13670D01*
X2909Y13676D01*
X2907Y13683D01*
X2905Y13691D01*
X2901Y13698D01*
X2900Y13699D01*
X2898Y13702D01*
X2896Y13706D01*
X2892Y13710D01*
X2888Y13716D01*
X2884Y13722D01*
X2878Y13729D01*
X2872Y13734D01*
X2872Y13735D01*
X2869Y13737D01*
X2867Y13740D01*
X2863Y13743D01*
X2858Y13746D01*
X2853Y13750D01*
X2848Y13753D01*
X2842Y13755D01*
X2842D01*
X2840Y13756D01*
X2837Y13756D01*
X2834Y13757D01*
X2830D01*
X2826Y13756D01*
X2821Y13755D01*
X2817Y13753D01*
X2816D01*
X2815Y13752D01*
X2812Y13751D01*
X2810Y13749D01*
X2806Y13746D01*
X2801Y13742D01*
X2797Y13738D01*
X2792Y13734D01*
X2792Y13733D01*
X2791Y13732D01*
X2789Y13731D01*
X2787Y13729D01*
X2782Y13724D01*
X2777Y13720D01*
X2776D01*
X2776Y13719D01*
X2773Y13718D01*
X2769Y13718D01*
X2767D01*
X2765Y13718D01*
X2764D01*
X2763Y13719D01*
X2760Y13721D01*
X2758Y13723D01*
X2755Y13725D01*
X2754Y13729D01*
X2752Y13732D01*
Y13733D01*
X2751Y13734D01*
X2750Y13736D01*
X2750Y13740D01*
X2748Y13746D01*
X2747Y13755D01*
Y13759D01*
X2748Y13763D01*
X2749Y13765D01*
Y13766D01*
X2750Y13767D01*
X2752Y13768D01*
X2755Y13767D01*
X2756D01*
X2757Y13767D01*
X2758Y13766D01*
X2760Y13764D01*
Y13764D01*
X2761Y13763D01*
X2761Y13763D01*
X2762Y13762D01*
X2762Y13763D01*
X2764Y13764D01*
X2765Y13765D01*
X2767Y13767D01*
X2768Y13768D01*
X2770Y13769D01*
X2773Y13772D01*
X2778Y13775D01*
X2782Y13779D01*
X2788Y13782D01*
X2794Y13786D01*
X2800Y13788D01*
X2801Y13789D01*
X2803Y13790D01*
X2807Y13791D01*
X2811Y13791D01*
X2818Y13792D01*
X2824D01*
X2832Y13791D01*
D02*
G37*
G36*
X2750Y13589D02*
X2751D01*
X2751D01*
X2753Y13588D01*
X2755D01*
X2761Y13587D01*
X2768Y13586D01*
X2778Y13584D01*
X2789Y13581D01*
X2801Y13578D01*
X2815Y13574D01*
X2816D01*
X2818Y13574D01*
X2820Y13573D01*
X2823Y13572D01*
X2828Y13570D01*
X2834Y13568D01*
X2840Y13566D01*
X2848Y13564D01*
X2856Y13561D01*
X2865Y13558D01*
X2876Y13555D01*
X2887Y13551D01*
X2899Y13547D01*
X2911Y13543D01*
X2925Y13539D01*
X2940Y13533D01*
X2940D01*
X2941Y13533D01*
X2944Y13531D01*
X2948Y13528D01*
X2952Y13522D01*
Y13522D01*
X2953Y13521D01*
X2955Y13517D01*
X2956Y13512D01*
X2958Y13506D01*
Y13505D01*
X2957Y13503D01*
X2956Y13499D01*
X2954Y13496D01*
X2954Y13495D01*
X2952Y13494D01*
X2949Y13494D01*
X2945Y13494D01*
X2944Y13495D01*
X2941Y13495D01*
X2937Y13497D01*
X2930Y13500D01*
X2922Y13503D01*
X2912Y13507D01*
X2899Y13512D01*
X2886Y13518D01*
X2885D01*
X2884Y13518D01*
X2882Y13520D01*
X2879Y13521D01*
X2875Y13522D01*
X2871Y13524D01*
X2861Y13528D01*
X2849Y13532D01*
X2838Y13537D01*
X2826Y13541D01*
X2815Y13545D01*
X2814D01*
X2814Y13545D01*
X2810Y13547D01*
X2806Y13548D01*
X2799Y13550D01*
X2792Y13552D01*
X2785Y13554D01*
X2778Y13556D01*
X2772Y13558D01*
X2772D01*
X2770Y13558D01*
X2767Y13559D01*
X2764Y13559D01*
X2762Y13560D01*
X2759Y13560D01*
X2757D01*
X2757Y13560D01*
Y13559D01*
X2757Y13558D01*
X2758Y13554D01*
X2761Y13549D01*
X2766Y13544D01*
X2769Y13540D01*
X2773Y13536D01*
X2777Y13532D01*
X2782Y13527D01*
X2788Y13522D01*
X2795Y13516D01*
X2795Y13515D01*
X2796Y13515D01*
X2799Y13513D01*
X2801Y13510D01*
X2806Y13507D01*
X2810Y13504D01*
X2815Y13499D01*
X2822Y13495D01*
X2829Y13490D01*
X2836Y13483D01*
X2845Y13477D01*
X2854Y13470D01*
X2864Y13463D01*
X2874Y13455D01*
X2886Y13447D01*
X2897Y13438D01*
X2916Y13425D01*
X2917Y13424D01*
X2920Y13422D01*
X2922Y13419D01*
X2925Y13414D01*
Y13413D01*
X2926Y13412D01*
X2927Y13409D01*
X2928Y13405D01*
X2929Y13400D01*
Y13396D01*
X2928Y13393D01*
X2927Y13390D01*
X2926Y13390D01*
X2925Y13389D01*
X2922D01*
X2918Y13390D01*
X2880Y13399D01*
X2813Y13415D01*
X2812D01*
X2811Y13415D01*
X2809Y13416D01*
X2806Y13416D01*
X2803Y13418D01*
X2799Y13418D01*
X2789Y13420D01*
X2778Y13423D01*
X2766Y13426D01*
X2754Y13428D01*
X2742Y13431D01*
X2742D01*
X2741D01*
X2738Y13431D01*
X2735Y13433D01*
X2731Y13433D01*
X2731D01*
X2729Y13434D01*
X2726Y13436D01*
X2721Y13440D01*
X2717Y13446D01*
Y13446D01*
X2716Y13448D01*
X2715Y13449D01*
X2714Y13452D01*
X2712Y13458D01*
X2711Y13465D01*
Y13465D01*
X2712Y13466D01*
X2712Y13468D01*
X2714Y13469D01*
X2717Y13469D01*
X2721Y13470D01*
X2728Y13469D01*
X2731Y13469D01*
X2736Y13468D01*
X2737D01*
X2740Y13467D01*
X2743Y13466D01*
X2746Y13465D01*
X2750Y13464D01*
X2754Y13463D01*
X2759Y13462D01*
X2765Y13460D01*
X2770Y13458D01*
X2777Y13457D01*
X2784Y13455D01*
X2792Y13453D01*
X2800Y13450D01*
X2810Y13448D01*
X2833Y13441D01*
X2833D01*
X2835Y13441D01*
X2837Y13440D01*
X2840Y13439D01*
X2844Y13438D01*
X2849Y13437D01*
X2858Y13434D01*
X2868Y13432D01*
X2874Y13430D01*
X2873Y13431D01*
X2868Y13434D01*
X2863Y13438D01*
X2856Y13443D01*
X2849Y13449D01*
X2841Y13455D01*
X2823Y13468D01*
X2805Y13483D01*
X2786Y13498D01*
X2769Y13512D01*
X2768Y13513D01*
X2767Y13514D01*
X2765Y13515D01*
X2762Y13518D01*
X2758Y13522D01*
X2754Y13525D01*
X2746Y13534D01*
X2738Y13544D01*
X2731Y13554D01*
X2728Y13559D01*
X2725Y13564D01*
X2724Y13569D01*
X2724Y13574D01*
Y13574D01*
X2724Y13577D01*
X2725Y13579D01*
X2727Y13582D01*
X2730Y13585D01*
X2735Y13588D01*
X2742Y13589D01*
X2746D01*
X2750Y13589D01*
D02*
G37*
G36*
X2724Y13376D02*
X2725Y13376D01*
X2727Y13375D01*
X2729Y13374D01*
X2732Y13374D01*
X2735Y13373D01*
X2739Y13371D01*
X2743Y13370D01*
X2748Y13368D01*
X2755Y13366D01*
X2761Y13364D01*
X2768Y13362D01*
X2776Y13359D01*
X2784Y13356D01*
X2793Y13354D01*
X2803Y13351D01*
X2803D01*
X2805Y13350D01*
X2808Y13349D01*
X2811Y13348D01*
X2815Y13347D01*
X2820Y13346D01*
X2831Y13342D01*
X2844Y13339D01*
X2856Y13335D01*
X2867Y13332D01*
X2871Y13331D01*
X2875Y13330D01*
X2876D01*
X2878Y13329D01*
X2882Y13329D01*
X2886Y13328D01*
X2895Y13327D01*
X2899D01*
X2903D01*
X2904D01*
X2905Y13327D01*
X2907D01*
X2909Y13328D01*
X2914Y13329D01*
X2920Y13331D01*
X2921Y13332D01*
X2923Y13332D01*
X2926Y13333D01*
X2929D01*
X2929D01*
X2930Y13332D01*
X2934Y13331D01*
X2939Y13327D01*
X2943Y13323D01*
Y13322D01*
X2944Y13321D01*
X2945Y13320D01*
X2945Y13317D01*
X2948Y13312D01*
X2948Y13305D01*
Y13305D01*
X2948Y13304D01*
X2947Y13301D01*
X2945Y13299D01*
X2943Y13297D01*
X2940Y13294D01*
X2935Y13293D01*
X2928Y13291D01*
X2926D01*
X2924D01*
X2920D01*
X2914D01*
X2907Y13292D01*
X2901Y13293D01*
X2892Y13294D01*
X2884Y13296D01*
X2883D01*
X2882Y13297D01*
X2880Y13297D01*
X2878Y13298D01*
X2875Y13298D01*
X2871Y13299D01*
X2867Y13301D01*
X2862Y13302D01*
X2856Y13304D01*
X2849Y13306D01*
X2842Y13309D01*
X2834Y13311D01*
X2825Y13314D01*
X2814Y13317D01*
X2803Y13321D01*
X2803D01*
X2801Y13321D01*
X2800Y13322D01*
X2797Y13323D01*
X2791Y13325D01*
X2784Y13327D01*
X2783D01*
X2782Y13328D01*
X2778Y13329D01*
X2774Y13331D01*
X2772Y13332D01*
X2771Y13332D01*
X2770D01*
X2772Y13332D01*
X2773Y13331D01*
X2776Y13329D01*
X2778Y13328D01*
X2782Y13325D01*
X2791Y13320D01*
X2801Y13312D01*
X2813Y13303D01*
X2827Y13292D01*
X2842Y13279D01*
X2842Y13278D01*
X2844Y13277D01*
X2846Y13275D01*
X2849Y13272D01*
X2852Y13269D01*
X2856Y13265D01*
X2866Y13256D01*
X2877Y13245D01*
X2889Y13232D01*
X2901Y13219D01*
X2913Y13206D01*
X2914Y13206D01*
X2914Y13204D01*
X2916Y13203D01*
X2918Y13200D01*
X2922Y13194D01*
X2928Y13187D01*
X2934Y13179D01*
X2939Y13170D01*
X2942Y13162D01*
X2943Y13158D01*
X2943Y13154D01*
Y13154D01*
X2943Y13151D01*
X2942Y13149D01*
X2941Y13145D01*
X2939Y13142D01*
X2936Y13139D01*
X2931Y13136D01*
X2925Y13136D01*
X2925D01*
X2922Y13136D01*
X2918Y13137D01*
X2912Y13138D01*
X2904Y13139D01*
X2895Y13142D01*
X2884Y13145D01*
X2871Y13149D01*
X2871D01*
X2869Y13150D01*
X2868Y13150D01*
X2865Y13151D01*
X2862Y13153D01*
X2858Y13154D01*
X2849Y13158D01*
X2838Y13162D01*
X2825Y13169D01*
X2811Y13176D01*
X2795Y13184D01*
X2795D01*
X2793Y13185D01*
X2791Y13186D01*
X2788Y13188D01*
X2785Y13189D01*
X2780Y13192D01*
X2771Y13198D01*
X2761Y13204D01*
X2750Y13211D01*
X2739Y13218D01*
X2730Y13226D01*
X2729Y13226D01*
X2728Y13227D01*
X2727Y13229D01*
X2724Y13231D01*
X2719Y13236D01*
X2715Y13240D01*
X2715Y13241D01*
X2713Y13244D01*
X2711Y13248D01*
X2710Y13252D01*
Y13255D01*
X2711Y13257D01*
X2712Y13260D01*
X2713Y13263D01*
X2715Y13265D01*
X2717Y13266D01*
X2720D01*
X2720D01*
X2722Y13265D01*
X2725Y13262D01*
X2730Y13258D01*
X2731Y13257D01*
X2735Y13255D01*
X2740Y13250D01*
X2747Y13245D01*
X2755Y13238D01*
X2765Y13231D01*
X2776Y13223D01*
X2788Y13216D01*
X2788D01*
X2789Y13215D01*
X2791Y13214D01*
X2793Y13212D01*
X2797Y13211D01*
X2801Y13208D01*
X2806Y13206D01*
X2811Y13204D01*
X2816Y13201D01*
X2823Y13198D01*
X2830Y13195D01*
X2838Y13191D01*
X2846Y13188D01*
X2855Y13184D01*
X2875Y13177D01*
X2875D01*
X2876Y13177D01*
X2880Y13176D01*
X2885Y13174D01*
X2891Y13173D01*
X2897Y13171D01*
X2902Y13170D01*
X2906D01*
X2906Y13171D01*
X2907Y13172D01*
Y13172D01*
X2906Y13173D01*
X2906Y13176D01*
X2903Y13180D01*
X2901Y13185D01*
X2896Y13192D01*
X2890Y13200D01*
X2886Y13205D01*
X2881Y13210D01*
X2880Y13211D01*
X2880Y13211D01*
X2878Y13213D01*
X2876Y13215D01*
X2871Y13221D01*
X2863Y13229D01*
X2854Y13238D01*
X2844Y13248D01*
X2831Y13260D01*
X2818Y13272D01*
X2818Y13272D01*
X2816Y13274D01*
X2815Y13275D01*
X2812Y13278D01*
X2808Y13280D01*
X2805Y13283D01*
X2796Y13291D01*
X2786Y13299D01*
X2775Y13308D01*
X2764Y13317D01*
X2754Y13325D01*
X2753Y13325D01*
X2752Y13326D01*
X2750Y13328D01*
X2747Y13329D01*
X2743Y13332D01*
X2738Y13335D01*
X2732Y13339D01*
X2726Y13343D01*
X2725D01*
X2724Y13343D01*
X2721Y13345D01*
X2717Y13348D01*
X2712Y13351D01*
X2712Y13351D01*
X2709Y13354D01*
X2708Y13356D01*
X2707Y13359D01*
Y13361D01*
X2708Y13363D01*
X2709Y13367D01*
X2712Y13372D01*
X2713Y13373D01*
X2716Y13375D01*
X2720Y13377D01*
X2722D01*
X2724Y13376D01*
D02*
G37*
G36*
X2650Y13214D02*
X2651D01*
X2651Y13213D01*
X2655Y13211D01*
X2660Y13207D01*
X2663Y13205D01*
X2666Y13202D01*
Y13201D01*
X2667Y13200D01*
X2668Y13198D01*
X2669Y13196D01*
X2672Y13191D01*
X2674Y13184D01*
Y13183D01*
X2674Y13181D01*
X2675Y13180D01*
X2675Y13174D01*
X2676Y13166D01*
X2678Y13158D01*
X2679Y13149D01*
X2679Y13138D01*
X2680Y13128D01*
X2689Y13127D01*
X2690D01*
X2691Y13126D01*
X2694Y13126D01*
X2698Y13125D01*
X2702Y13124D01*
X2708Y13123D01*
X2714Y13121D01*
X2721Y13120D01*
X2736Y13117D01*
X2753Y13113D01*
X2770Y13109D01*
X2788Y13105D01*
X2788D01*
X2790Y13105D01*
X2792Y13104D01*
X2796Y13104D01*
X2800Y13102D01*
X2804Y13101D01*
X2810Y13100D01*
X2816Y13098D01*
X2830Y13094D01*
X2845Y13090D01*
X2860Y13085D01*
X2876Y13080D01*
X2877D01*
X2879Y13079D01*
X2882Y13078D01*
X2885Y13077D01*
X2889Y13075D01*
X2894Y13073D01*
X2905Y13067D01*
X2917Y13061D01*
X2929Y13053D01*
X2941Y13044D01*
X2945Y13039D01*
X2950Y13034D01*
Y13033D01*
X2951Y13033D01*
X2952Y13031D01*
X2954Y13029D01*
X2955Y13026D01*
X2957Y13022D01*
X2961Y13014D01*
X2966Y13003D01*
X2969Y12991D01*
X2971Y12977D01*
X2973Y12961D01*
Y12956D01*
X2972Y12950D01*
X2971Y12943D01*
X2969Y12934D01*
X2967Y12924D01*
X2964Y12913D01*
X2959Y12901D01*
Y12901D01*
X2959Y12900D01*
X2958Y12899D01*
X2957Y12896D01*
X2954Y12891D01*
X2951Y12883D01*
X2946Y12875D01*
X2940Y12866D01*
X2935Y12858D01*
X2928Y12850D01*
X2926Y12849D01*
X2924Y12847D01*
X2921Y12844D01*
X2916Y12840D01*
X2910Y12838D01*
X2903Y12835D01*
X2897Y12835D01*
X2893D01*
X2890Y12836D01*
X2889D01*
X2888Y12836D01*
X2887Y12838D01*
X2884Y12839D01*
X2882Y12840D01*
X2879Y12843D01*
X2876Y12846D01*
X2873Y12849D01*
X2873Y12850D01*
X2872Y12851D01*
X2871Y12853D01*
X2869Y12856D01*
X2865Y12863D01*
X2861Y12871D01*
Y12872D01*
X2860Y12873D01*
X2859Y12875D01*
X2858Y12877D01*
X2856Y12882D01*
X2856Y12885D01*
Y12889D01*
X2856Y12892D01*
X2858Y12896D01*
X2860Y12897D01*
X2861Y12898D01*
X2862D01*
X2864Y12899D01*
X2867D01*
X2869Y12898D01*
X2870Y12897D01*
X2872Y12896D01*
X2875Y12893D01*
X2878Y12889D01*
Y12888D01*
X2878Y12888D01*
X2879Y12885D01*
X2881Y12881D01*
X2883Y12879D01*
Y12878D01*
X2884Y12878D01*
X2885Y12877D01*
X2887Y12876D01*
X2887D01*
X2888Y12876D01*
X2890D01*
X2893Y12876D01*
X2897Y12877D01*
X2900Y12879D01*
X2905Y12882D01*
X2909Y12886D01*
X2910Y12886D01*
X2911Y12888D01*
X2914Y12891D01*
X2917Y12896D01*
X2920Y12901D01*
X2924Y12907D01*
X2928Y12914D01*
X2932Y12922D01*
X2932Y12923D01*
X2933Y12926D01*
X2935Y12931D01*
X2936Y12937D01*
X2938Y12944D01*
X2939Y12952D01*
X2940Y12960D01*
X2941Y12969D01*
Y12976D01*
X2940Y12980D01*
X2940Y12986D01*
X2939Y12991D01*
X2938Y12996D01*
X2937Y13001D01*
Y13002D01*
X2936Y13003D01*
X2935Y13006D01*
X2933Y13009D01*
X2930Y13013D01*
X2928Y13017D01*
X2924Y13021D01*
X2919Y13025D01*
X2918Y13026D01*
X2916Y13027D01*
X2913Y13029D01*
X2909Y13032D01*
X2902Y13035D01*
X2895Y13039D01*
X2886Y13043D01*
X2876Y13047D01*
X2875D01*
X2873Y13047D01*
X2871Y13048D01*
X2866Y13049D01*
X2861Y13051D01*
X2854Y13053D01*
X2846Y13055D01*
X2836Y13058D01*
X2826Y13061D01*
X2813Y13064D01*
X2800Y13067D01*
X2785Y13071D01*
X2768Y13074D01*
X2750Y13078D01*
X2731Y13082D01*
X2710Y13087D01*
X2709D01*
X2708Y13088D01*
X2706D01*
X2704Y13088D01*
X2697Y13090D01*
X2691Y13091D01*
X2690D01*
X2690Y13092D01*
X2686Y13092D01*
X2682Y13093D01*
X2679Y13093D01*
Y13041D01*
X2679Y13034D01*
X2678Y13026D01*
X2678Y13017D01*
X2677Y13007D01*
X2676Y12997D01*
X2675Y12988D01*
Y12987D01*
X2674Y12983D01*
X2671Y12979D01*
X2668Y12976D01*
X2667Y12975D01*
X2664Y12975D01*
X2660Y12974D01*
X2657Y12975D01*
X2654Y12975D01*
X2653Y12976D01*
X2651Y12977D01*
X2648Y12979D01*
X2645Y12982D01*
X2645Y12983D01*
X2643Y12986D01*
X2641Y12990D01*
X2641Y12994D01*
Y13000D01*
X2641Y13003D01*
Y13007D01*
X2643Y13016D01*
Y13018D01*
X2643Y13021D01*
Y13024D01*
X2644Y13028D01*
Y13036D01*
X2644Y13047D01*
X2645Y13059D01*
X2645Y13072D01*
Y13101D01*
X2645D01*
X2644D01*
X2641Y13101D01*
X2637Y13102D01*
X2633Y13104D01*
X2632D01*
X2632Y13104D01*
X2629Y13106D01*
X2625Y13109D01*
X2622Y13114D01*
Y13115D01*
X2621Y13115D01*
X2619Y13119D01*
X2617Y13124D01*
X2617Y13129D01*
Y13131D01*
X2618Y13134D01*
X2619Y13135D01*
X2621Y13137D01*
X2624Y13138D01*
X2628Y13139D01*
X2629D01*
X2630D01*
X2632D01*
X2634Y13138D01*
X2637D01*
X2641Y13138D01*
X2645Y13137D01*
Y13147D01*
X2645Y13152D01*
Y13157D01*
X2644Y13167D01*
Y13168D01*
X2644Y13169D01*
Y13172D01*
X2643Y13174D01*
X2643Y13179D01*
X2642Y13181D01*
Y13183D01*
X2641Y13185D01*
Y13187D01*
X2641Y13191D01*
X2640Y13197D01*
Y13205D01*
X2641Y13208D01*
X2643Y13211D01*
X2643Y13212D01*
X2644Y13214D01*
X2647Y13214D01*
X2648D01*
X2650Y13214D01*
D02*
G37*
%LPC*%
G36*
X2687Y17327D02*
X2684D01*
X2680D01*
X2676Y17326D01*
X2671Y17325D01*
X2667Y17322D01*
X2666Y17321D01*
X2664Y17320D01*
X2663Y17318D01*
X2660Y17315D01*
X2656Y17310D01*
X2653Y17305D01*
X2650Y17297D01*
X2647Y17289D01*
X2647Y17288D01*
X2646Y17285D01*
X2645Y17280D01*
X2643Y17273D01*
X2641Y17264D01*
X2640Y17254D01*
X2640Y17242D01*
X2639Y17228D01*
Y17202D01*
X2640Y17198D01*
Y17196D01*
X2641Y17196D01*
X2643Y17195D01*
X2644Y17194D01*
X2647Y17193D01*
X2651Y17192D01*
X2651D01*
X2652Y17191D01*
X2655Y17190D01*
X2658Y17189D01*
X2662Y17187D01*
X2667Y17186D01*
X2672Y17184D01*
X2678Y17182D01*
X2750Y17159D01*
X2803Y17143D01*
X2803Y17143D01*
Y17144D01*
X2802Y17145D01*
X2801Y17147D01*
X2800Y17150D01*
X2799Y17154D01*
Y17155D01*
X2799Y17156D01*
X2797Y17159D01*
X2797Y17162D01*
X2794Y17170D01*
X2791Y17178D01*
X2791Y17178D01*
X2790Y17181D01*
X2789Y17184D01*
X2787Y17189D01*
X2785Y17194D01*
X2782Y17201D01*
X2780Y17208D01*
X2776Y17215D01*
X2769Y17232D01*
X2761Y17249D01*
X2753Y17265D01*
X2748Y17273D01*
X2744Y17280D01*
Y17280D01*
X2743Y17281D01*
X2742Y17283D01*
X2740Y17285D01*
X2736Y17292D01*
X2729Y17299D01*
X2721Y17307D01*
X2713Y17314D01*
X2703Y17321D01*
X2697Y17323D01*
X2692Y17326D01*
X2691D01*
X2690Y17326D01*
X2687Y17327D01*
D02*
G37*
G36*
X2753Y16296D02*
X2748D01*
X2744Y16295D01*
X2743Y16294D01*
X2741Y16292D01*
X2739Y16289D01*
X2738Y16285D01*
Y16283D01*
X2739Y16281D01*
X2740Y16277D01*
X2741Y16273D01*
X2743Y16268D01*
X2746Y16262D01*
X2750Y16256D01*
Y16255D01*
X2751Y16254D01*
X2752Y16253D01*
X2754Y16250D01*
X2758Y16245D01*
X2763Y16237D01*
X2771Y16228D01*
X2779Y16217D01*
X2789Y16205D01*
X2799Y16193D01*
X2800Y16193D01*
X2800Y16192D01*
X2802Y16190D01*
X2804Y16188D01*
X2810Y16182D01*
X2818Y16174D01*
X2826Y16165D01*
X2836Y16155D01*
X2846Y16145D01*
X2857Y16136D01*
X2857D01*
X2858Y16135D01*
X2861Y16132D01*
X2867Y16128D01*
X2873Y16123D01*
X2880Y16118D01*
X2887Y16113D01*
X2895Y16109D01*
X2901Y16106D01*
X2902D01*
X2902Y16105D01*
X2906D01*
X2907Y16106D01*
X2909Y16106D01*
X2910Y16108D01*
X2910Y16110D01*
Y16112D01*
X2910Y16114D01*
X2909Y16120D01*
X2908Y16126D01*
X2906Y16134D01*
X2903Y16143D01*
X2898Y16152D01*
X2892Y16163D01*
Y16163D01*
X2892Y16164D01*
X2889Y16167D01*
X2886Y16173D01*
X2880Y16180D01*
X2874Y16189D01*
X2867Y16198D01*
X2858Y16208D01*
X2849Y16218D01*
X2849Y16219D01*
X2848Y16219D01*
X2846Y16221D01*
X2845Y16223D01*
X2839Y16228D01*
X2831Y16236D01*
X2822Y16245D01*
X2812Y16256D01*
X2799Y16268D01*
X2786Y16280D01*
X2785Y16281D01*
X2784Y16282D01*
X2781Y16284D01*
X2778Y16285D01*
X2773Y16288D01*
X2769Y16290D01*
X2758Y16295D01*
X2757D01*
X2757Y16295D01*
X2753Y16296D01*
D02*
G37*
G36*
X2744Y15395D02*
X2743D01*
X2741D01*
X2739Y15394D01*
X2738Y15393D01*
X2736Y15391D01*
X2736Y15390D01*
X2735Y15387D01*
X2734Y15383D01*
X2733Y15378D01*
Y15375D01*
X2734Y15371D01*
X2734Y15367D01*
X2736Y15362D01*
X2738Y15356D01*
X2740Y15349D01*
X2744Y15343D01*
X2744Y15342D01*
X2746Y15339D01*
X2748Y15336D01*
X2751Y15331D01*
X2755Y15326D01*
X2759Y15320D01*
X2765Y15314D01*
X2770Y15307D01*
X2771Y15307D01*
X2773Y15305D01*
X2776Y15302D01*
X2779Y15299D01*
X2786Y15292D01*
X2789Y15289D01*
X2792Y15287D01*
Y15287D01*
X2792Y15290D01*
X2791Y15293D01*
X2790Y15298D01*
X2788Y15304D01*
X2786Y15311D01*
X2784Y15320D01*
X2781Y15329D01*
Y15329D01*
X2780Y15330D01*
X2779Y15333D01*
X2777Y15339D01*
X2774Y15345D01*
X2772Y15352D01*
X2768Y15359D01*
X2764Y15367D01*
X2760Y15374D01*
X2759Y15375D01*
X2758Y15377D01*
X2756Y15380D01*
X2754Y15384D01*
X2751Y15387D01*
X2748Y15391D01*
X2746Y15393D01*
X2744Y15395D01*
D02*
G37*
%LPD*%
D31*
X-1000Y3898D02*
D03*
Y4213D02*
D03*
X-1181Y14272D02*
D03*
Y13957D02*
D03*
X-1467Y5157D02*
D03*
Y5472D02*
D03*
D32*
X-2470Y4587D02*
D03*
Y4213D02*
D03*
Y3839D02*
D03*
X-1467D02*
D03*
Y4213D02*
D03*
Y4587D02*
D03*
D33*
X-2598Y2933D02*
D03*
Y3287D02*
D03*
X-1969Y5138D02*
D03*
Y5492D02*
D03*
X-1339Y3287D02*
D03*
Y2933D02*
D03*
X689Y3406D02*
D03*
Y3051D02*
D03*
X-2470Y5492D02*
D03*
Y5138D02*
D03*
X2657Y4311D02*
D03*
Y3957D02*
D03*
D34*
X-2126Y3346D02*
D03*
X-1811D02*
D03*
X394Y14961D02*
D03*
X709D02*
D03*
X-79D02*
D03*
X-394D02*
D03*
X2618Y8169D02*
D03*
X2303D02*
D03*
X748Y4035D02*
D03*
X433D02*
D03*
D35*
X-1598Y6043D02*
D03*
X-1953D02*
D03*
X-1598Y6594D02*
D03*
X-1953D02*
D03*
D36*
X500Y16890D02*
D03*
X1000D02*
D03*
X-1000D02*
D03*
X-500D02*
D03*
X0D02*
D03*
D37*
X2165Y6831D02*
D03*
Y6240D02*
D03*
X-591Y5502D02*
D03*
Y4911D02*
D03*
D38*
X591Y13484D02*
D03*
Y13642D02*
D03*
Y13799D02*
D03*
Y13957D02*
D03*
Y14114D02*
D03*
Y14272D02*
D03*
X-591D02*
D03*
Y14114D02*
D03*
Y13957D02*
D03*
Y13799D02*
D03*
Y13642D02*
D03*
Y13484D02*
D03*
D39*
X394Y14468D02*
D03*
X236D02*
D03*
X79D02*
D03*
X-79D02*
D03*
X-236D02*
D03*
X-394D02*
D03*
Y13287D02*
D03*
X-236D02*
D03*
X-79D02*
D03*
X79D02*
D03*
X236D02*
D03*
X394D02*
D03*
D40*
X0Y13878D02*
D03*
D41*
X-787Y8661D02*
D03*
X1280D02*
D03*
X689D02*
D03*
X984D02*
D03*
X-492D02*
D03*
X98D02*
D03*
X-197D02*
D03*
X394D02*
D03*
X-1083Y12520D02*
D03*
X-1673D02*
D03*
X-1378D02*
D03*
X-1968D02*
D03*
X394D02*
D03*
X-197D02*
D03*
X98D02*
D03*
X-787D02*
D03*
X-492D02*
D03*
X984D02*
D03*
X689D02*
D03*
X1575D02*
D03*
X1280D02*
D03*
X1870D02*
D03*
X2165D02*
D03*
X2461D02*
D03*
D42*
X2638Y11181D02*
D03*
Y10886D02*
D03*
Y9114D02*
D03*
Y9409D02*
D03*
Y9705D02*
D03*
Y10000D02*
D03*
Y10295D02*
D03*
Y10591D02*
D03*
D43*
X2165Y7579D02*
D03*
X2756D02*
D03*
X1378Y5217D02*
D03*
X1969D02*
D03*
X1378Y3051D02*
D03*
X1969D02*
D03*
D44*
X157Y2854D02*
D03*
Y3602D02*
D03*
X-787Y3228D02*
D03*
D45*
X1043Y787D02*
D03*
D46*
X-1043Y1181D02*
D03*
D47*
X2047Y3652D02*
D03*
X1299D02*
D03*
Y4616D02*
D03*
X1673D02*
D03*
X2047D02*
D03*
X20Y5502D02*
D03*
X768D02*
D03*
Y4537D02*
D03*
X394D02*
D03*
X20D02*
D03*
D48*
X-2717Y13300D02*
D03*
X-1772Y14059D02*
D03*
Y15059D02*
D03*
D49*
X1280Y7382D02*
D03*
D50*
Y6594D02*
D03*
D51*
X157Y13681D02*
D03*
X-157Y14075D02*
D03*
X157D02*
D03*
X-157Y13681D02*
D03*
X0Y13878D02*
D03*
M02*
